<svg width="16" height="16" viewBox="0 0 16 16" fill="none" xmlns="http://www.w3.org/2000/svg">
<rect x="2" y="2" width="12" height="12" rx="3" fill="#2B080F"/>
<path d="M9.06336 5.027C8.96865 5.08256 8.81105 5.23984 8.62305 5.46796L8.79533 5.79155C8.91659 5.61969 9.03959 5.46448 9.16225 5.33324C9.17204 5.32282 9.17658 5.31796 9.17658 5.31796C9.17204 5.32282 9.16679 5.32838 9.16225 5.33324C9.12206 5.37699 9.0001 5.51865 8.81629 5.7985C8.99347 5.78982 9.26359 5.75371 9.48724 5.71621C9.55364 5.34817 9.42259 5.18151 9.42259 5.18151C9.42259 5.18151 9.25625 4.91416 9.06266 5.02839L9.06336 5.027Z" fill="#BF2141"/>
<path d="M8.76987 6.87379C8.77092 6.87345 8.77232 6.87345 8.77372 6.8731L8.74891 6.87588L8.74471 6.87796C8.75275 6.87623 8.76149 6.87484 8.76987 6.87379ZM8.59515 7.45363C8.58117 7.45675 8.56684 7.45919 8.55217 7.46162C8.56684 7.45919 8.58117 7.45641 8.59515 7.45363ZM7.39653 8.75218C7.39828 8.74767 7.40002 8.74246 7.40177 8.73795C7.43986 8.6383 7.4776 8.54143 7.51464 8.44699C7.55623 8.34109 7.59746 8.23866 7.6387 8.13936C7.68168 8.03485 7.72432 7.93347 7.7659 7.83556C7.80958 7.73313 7.85291 7.63418 7.89555 7.53904C7.93014 7.46162 7.96404 7.38662 7.99759 7.31405C8.00877 7.28975 8.01995 7.26579 8.03113 7.24218C8.05315 7.19496 8.07482 7.14913 8.09648 7.10399C8.1164 7.06268 8.13597 7.02205 8.15589 6.98178C8.16253 6.96858 8.16882 6.95539 8.17546 6.94219C8.17651 6.94011 8.17755 6.93803 8.1786 6.9356L8.15729 6.93768L8.14051 6.9047C8.13877 6.90782 8.13737 6.91129 8.13562 6.91442C8.10557 6.97448 8.07516 7.03455 8.04546 7.09531C8.02834 7.13073 8.01122 7.16614 7.99409 7.20121C7.94692 7.29947 7.90079 7.39912 7.85501 7.49842C7.80888 7.59946 7.7638 7.70084 7.71907 7.80257C7.67574 7.90257 7.63276 8.00256 7.59117 8.10221C7.54959 8.20186 7.5087 8.30116 7.46887 8.39942C7.42728 8.50219 7.38709 8.60427 7.34796 8.70496C7.33887 8.72788 7.33048 8.75045 7.3214 8.77302C7.28995 8.85426 7.2592 8.93481 7.22949 9.01398L7.25605 9.06606L7.27981 9.06363C7.28051 9.0612 7.28156 9.05911 7.28226 9.05634C7.32105 8.95287 7.35914 8.85114 7.39653 8.75218Z" fill="#BF2141"/>
<path d="M8.48318 7.74529C8.46117 7.7491 8.4388 7.75327 8.41539 7.75709C8.41539 7.75709 8.41504 7.75709 8.41504 7.75744C8.42692 7.7557 8.43845 7.75397 8.44998 7.75223C8.46082 7.7498 8.472 7.74772 8.48318 7.74529Z" fill="#BF2141"/>
<path d="M8.48318 7.74529C8.46117 7.7491 8.4388 7.75327 8.41539 7.75709C8.41539 7.75709 8.41504 7.75709 8.41504 7.75744C8.42692 7.7557 8.43845 7.75397 8.44998 7.75223C8.46082 7.7498 8.472 7.74772 8.48318 7.74529Z" fill="#BF2141"/>
<path d="M8.54332 7.46405C8.54297 7.46405 8.54297 7.46405 8.54297 7.4644C8.54646 7.46405 8.55031 7.46335 8.5538 7.46266C8.56848 7.46058 8.58281 7.45815 8.59678 7.45467C8.57931 7.4578 8.56184 7.46092 8.54332 7.46405Z" fill="#BF2141"/>
<path d="M8.54332 7.46405C8.54297 7.46405 8.54297 7.46405 8.54297 7.4644C8.54646 7.46405 8.55031 7.46335 8.5538 7.46266C8.56848 7.46058 8.58281 7.45815 8.59678 7.45467C8.57931 7.4578 8.56184 7.46092 8.54332 7.46405Z" fill="#BF2141"/>
<path d="M8.28804 6.62728C8.34046 6.52971 8.39357 6.43458 8.44704 6.34222C8.5026 6.2457 8.55921 6.15264 8.61617 6.06237C8.61932 6.05716 8.62316 6.05161 8.62631 6.0464C8.68257 5.95786 8.73953 5.87245 8.79649 5.7912L8.62421 5.46761C8.61128 5.48323 8.59835 5.4992 8.58507 5.51587C8.5351 5.57767 8.48373 5.64364 8.43061 5.71412C8.37086 5.79329 8.3097 5.878 8.24715 5.96689C8.18984 6.04883 8.13113 6.13459 8.07243 6.22382C8.02245 6.29951 7.97283 6.37729 7.92321 6.45714C7.92146 6.45992 7.91972 6.46305 7.91797 6.46617L8.14267 6.90712C8.19019 6.81164 8.23911 6.71824 8.28804 6.62728Z" fill="#BF2141"/>
<path d="M7.26437 9.10981C7.23467 9.19071 7.20462 9.27369 7.17491 9.35806C7.17456 9.3591 7.17421 9.36049 7.17352 9.36153C7.16932 9.37334 7.16478 9.38549 7.16094 9.3973C7.14067 9.45424 7.12319 9.50562 7.08301 9.62194C7.14905 9.6518 7.20217 9.73096 7.25249 9.82054C7.24725 9.72784 7.20881 9.64069 7.13508 9.57333C7.46111 9.58791 7.74312 9.50597 7.8864 9.26918C7.89933 9.248 7.91121 9.22612 7.92204 9.20217C7.85599 9.2855 7.77387 9.32056 7.61977 9.31223C7.84691 9.21119 7.96048 9.11432 8.06007 8.95461C8.08384 8.91641 8.10725 8.8751 8.13101 8.82892C7.93252 9.03134 7.70468 9.08898 7.46007 9.04523L7.27835 9.06502C7.27241 9.0803 7.26717 9.09523 7.26123 9.1105L7.26437 9.10981Z" fill="#BF2141"/>
<path d="M7.3514 8.70705C7.39053 8.60636 7.43107 8.50428 7.47231 8.4015C7.51214 8.3029 7.55268 8.2036 7.59461 8.1043C7.63655 8.00499 7.67918 7.90465 7.72251 7.80466C7.76654 7.70293 7.81197 7.60154 7.85845 7.5005C7.90423 7.40051 7.95035 7.30121 7.99753 7.20329C8.0143 7.16788 8.03178 7.13246 8.0489 7.0974C8.0786 7.03664 8.10866 6.97622 8.13906 6.9165C8.14081 6.91338 8.1422 6.90991 8.14395 6.90678L7.91925 6.46583C7.91576 6.47173 7.91192 6.47798 7.90807 6.48354C7.85565 6.5686 7.80359 6.6554 7.75257 6.74394C7.70085 6.83352 7.65018 6.92484 7.60055 7.01754C7.55897 7.09566 7.51808 7.17413 7.4779 7.25399C7.46986 7.26996 7.46217 7.28628 7.45413 7.30225C7.40521 7.40259 7.36118 7.49877 7.32099 7.59217C7.27556 7.69737 7.23573 7.79806 7.20113 7.89354C7.17807 7.95639 7.15745 8.0168 7.13823 8.07513C7.1225 8.12478 7.10783 8.17478 7.09315 8.22443C7.0596 8.34109 7.0306 8.45775 7.00684 8.57511L7.23258 9.01953C7.26228 8.94037 7.29304 8.85982 7.32449 8.77857C7.33392 8.75531 7.34231 8.73239 7.3514 8.71017V8.70705Z" fill="#BF2141"/>
<path d="M7.00197 8.589C6.97366 8.73066 6.95339 8.87163 6.94326 9.01259L6.94221 9.02717C6.87162 8.91503 6.68327 8.80566 6.68362 8.8067C6.81885 9.00113 6.92124 9.19557 6.93627 9.38306C6.86393 9.39764 6.76504 9.37646 6.65077 9.3348C6.76993 9.44382 6.85939 9.47368 6.89468 9.48201C6.78496 9.48896 6.67103 9.56361 6.55607 9.64972C6.72415 9.58166 6.86009 9.55458 6.95793 9.57646C6.80348 10.0105 6.64902 10.4896 6.49316 11C6.54069 10.9861 6.569 10.9542 6.58472 10.9115C6.61233 10.8195 6.79509 10.2136 7.08094 9.42195C7.08933 9.39938 7.09737 9.37646 7.10575 9.3539C7.10785 9.3473 7.1103 9.34105 7.11274 9.33515C7.14279 9.25182 7.17459 9.16675 7.20674 9.07995C7.21408 9.06016 7.22142 9.04037 7.22911 9.02058C7.22911 9.02023 7.22946 9.01988 7.22946 9.01954L7.00336 8.57511C7.00266 8.57963 7.00162 8.58483 7.00057 8.59004L7.00197 8.589Z" fill="#BF2141"/>
<path d="M8.17654 6.94323C8.16991 6.95643 8.16362 6.96962 8.15698 6.98282C8.13741 7.02274 8.11784 7.06337 8.09757 7.10503C8.0759 7.15017 8.05424 7.196 8.03222 7.24322C8.02104 7.26683 8.00986 7.29079 7.99867 7.31509C7.96513 7.38766 7.93123 7.46265 7.89663 7.54008C7.85435 7.63487 7.81067 7.73382 7.76699 7.8366C7.7254 7.93451 7.68242 8.03555 7.63979 8.1404C7.5989 8.2397 7.55767 8.34248 7.51573 8.44803C7.47834 8.54212 7.4406 8.63934 7.40286 8.73899C7.40111 8.7435 7.39936 8.74871 7.39762 8.75322C7.35988 8.85218 7.32179 8.95391 7.2837 9.05807C7.283 9.0605 7.28195 9.06258 7.28125 9.06536L7.46296 9.04557C7.45947 9.04488 7.45563 9.04453 7.45213 9.04383C7.66914 9.0171 7.95884 8.85565 8.14405 8.65496C8.23001 8.5633 8.30794 8.45497 8.37993 8.32824C8.43339 8.23415 8.48406 8.12929 8.53229 8.01367C8.57422 7.91263 8.61441 7.80292 8.6532 7.68452C8.60323 7.71056 8.54626 7.73 8.48336 7.7432C8.47218 7.74563 8.461 7.74771 8.44947 7.74979C8.43793 7.75188 8.4264 7.75361 8.41452 7.755C8.41452 7.755 8.41487 7.755 8.41487 7.75466C8.61755 7.67723 8.7451 7.52793 8.83771 7.34495C8.78459 7.38106 8.69793 7.42828 8.59414 7.45085C8.58016 7.45397 8.56583 7.4564 8.55116 7.45884C8.54766 7.45918 8.54382 7.45988 8.54032 7.46057H8.54102C8.61161 7.43141 8.67067 7.39842 8.72204 7.35988C8.73322 7.35155 8.74405 7.34322 8.75384 7.33419C8.76956 7.32065 8.78424 7.30641 8.79892 7.29183C8.808 7.28211 8.81674 7.27239 8.82548 7.26232C8.84574 7.23836 8.86461 7.21267 8.88209 7.18489C8.88733 7.17621 8.89292 7.16788 8.89781 7.15885C8.9048 7.146 8.91109 7.13316 8.91738 7.121C8.94569 7.06476 8.9684 7.01406 8.98622 6.96997C8.99531 6.94775 9.003 6.92761 9.00999 6.90817C9.01278 6.90053 9.01523 6.89324 9.01767 6.88594C9.02501 6.86476 9.0306 6.84602 9.03515 6.82935C9.04214 6.80435 9.04633 6.78456 9.04843 6.77032C9.04144 6.77553 9.03375 6.78109 9.02466 6.7863C8.96351 6.82275 8.85867 6.85539 8.77411 6.87101C8.77306 6.87136 8.77166 6.87136 8.77026 6.87171C8.76153 6.8731 8.75349 6.87449 8.74475 6.87553L8.74895 6.87345L8.17934 6.93559C8.17934 6.93698 8.17829 6.93941 8.17724 6.9415L8.17654 6.94323Z" fill="#BF2141"/>
<path d="M8.81918 5.79746C8.76851 5.87488 8.7133 5.96273 8.65319 6.06237C8.65005 6.06724 8.64655 6.07314 8.64376 6.078C8.59239 6.16411 8.53788 6.25855 8.47987 6.36236C8.43024 6.45194 8.37853 6.54777 8.32471 6.65089C8.27788 6.74082 8.22966 6.8363 8.17969 6.93734L8.74929 6.87519C8.91563 6.79915 8.98972 6.73075 9.0617 6.6311C9.08057 6.60367 9.10014 6.5752 9.11901 6.54534C9.17772 6.45437 9.23503 6.35438 9.2864 6.25473C9.33602 6.15855 9.3797 6.06342 9.41325 5.97731C9.43457 5.9228 9.45169 5.87211 9.46357 5.82732C9.47406 5.78808 9.48209 5.75058 9.48838 5.71482C9.26718 5.75267 8.99566 5.78878 8.81744 5.79746H8.81918Z" fill="#BF2141"/>
<path d="M8.44901 7.75223C8.43748 7.75431 8.42594 7.75605 8.41406 7.75744C8.42594 7.75639 8.43783 7.75431 8.44901 7.75223Z" fill="#BF2141"/>
<path opacity="0.35" d="M8.44901 7.75223C8.43748 7.75431 8.42594 7.75605 8.41406 7.75744C8.42594 7.75639 8.43783 7.75431 8.44901 7.75223Z" fill="#BF2141"/>
<path d="M8.44901 7.75223C8.43748 7.75431 8.42594 7.75605 8.41406 7.75744C8.42594 7.75639 8.43783 7.75431 8.44901 7.75223Z" fill="#BF2141"/>
<path d="M8.54297 7.46405C8.54646 7.4637 8.55031 7.46301 8.5538 7.46231C8.55031 7.46266 8.54681 7.4637 8.54297 7.46405Z" fill="#BF2141"/>
<path opacity="0.35" d="M8.54297 7.46405C8.54646 7.4637 8.55031 7.46301 8.5538 7.46231C8.55031 7.46266 8.54681 7.4637 8.54297 7.46405Z" fill="#BF2141"/>
<path d="M8.54297 7.46405C8.54646 7.4637 8.55031 7.46301 8.5538 7.46231C8.55031 7.46266 8.54681 7.4637 8.54297 7.46405Z" fill="#BF2141"/>
</svg>
