<svg width="16" height="16" viewBox="0 0 16 16" fill="none" xmlns="http://www.w3.org/2000/svg">
<rect x="2" y="2" width="12" height="12" rx="3" fill="#0C271C"/>
<path d="M5.26789 8.79486C5.19715 8.53724 5.16113 8.26968 5.16113 8.00017C5.16113 6.76991 5.93379 5.64501 7.08392 5.20142L7.23473 5.59169C6.24471 5.97362 5.57977 6.94145 5.57977 8.00017C5.57977 8.2324 5.61064 8.46241 5.67141 8.68403L5.26789 8.79486Z" fill="#69D3A7"/>
<path d="M10.468 6.81166C10.0204 5.95241 9.13939 5.41854 8.16931 5.41854C7.82558 5.41854 7.49151 5.48472 7.17704 5.61481L7.0166 5.22838C7.38218 5.07709 7.76997 5 8.16931 5C9.29631 5 10.3194 5.61995 10.8394 6.61829L10.468 6.81166Z" fill="#69D3A7"/>
<path d="M7.27086 7.38119C7.51361 7.38119 7.71137 7.51064 7.81297 7.73644L7.821 7.7541L8.22872 7.61567L8.22004 7.59479C8.06216 7.2103 7.6985 6.97131 7.27086 6.97131C6.97022 6.97131 6.72585 7.06767 6.52392 7.26554C6.32328 7.46213 6.22168 7.70946 6.22168 8.0008C6.22168 8.28958 6.32328 8.53562 6.52392 8.73222C6.72585 8.93008 6.97022 9.02644 7.27086 9.02644C7.6985 9.02644 8.06216 8.78745 8.22004 8.40328L8.22872 8.38242L7.82036 8.24365L7.81265 8.26195C7.72164 8.48391 7.51909 8.61657 7.27086 8.61657C7.10173 8.61657 6.95896 8.55747 6.84578 8.4412C6.73131 8.3233 6.67344 8.17523 6.67344 8.00112C6.67344 7.82575 6.73003 7.68055 6.84578 7.55721C6.95864 7.44029 7.10173 7.38119 7.27086 7.38119Z" fill="#69D3A7"/>
<path d="M9.82404 7.00921L9.24302 8.47942L8.65813 7.00921H8.17969L8.99992 9.01586L8.41633 10.4311L8.83466 10.5143L10.2761 7.00921H9.82404Z" fill="#69D3A7"/>
<path d="M8.49156 10.2487L8.38962 10.4954C8.36937 10.5442 8.32307 10.5773 8.27099 10.5795C8.23658 10.5808 8.20186 10.5818 8.16679 10.5818C6.96714 10.5811 5.90575 9.73539 5.64273 8.57L5.23438 8.6622C5.38196 9.31588 5.75237 9.90916 6.27744 10.3332C6.80863 10.762 7.47775 10.9987 8.16229 11C8.16327 11 8.16841 11 8.16841 11C8.20861 11 8.24847 10.999 8.28833 10.9974C8.50313 10.9885 8.69509 10.8539 8.77709 10.6544L8.91019 10.3319L8.49156 10.2487Z" fill="#69D3A7"/>
</svg>
