<svg width="16" height="16" viewBox="0 0 16 16" fill="none" xmlns="http://www.w3.org/2000/svg">
<rect x="2" y="2" width="12" height="12" rx="3" fill="#280D0B"/>
<path d="M4.10059 9V7H5.26072C5.5176 7 5.73474 7.03779 5.91215 7.11355C6.08957 7.1893 6.22403 7.30019 6.31551 7.4462C6.40698 7.59221 6.45272 7.77051 6.45272 7.98128V7.98394C6.45272 8.20483 6.40652 8.39111 6.31412 8.54262C6.22263 8.69325 6.08818 8.80733 5.91077 8.88504C5.73428 8.96168 5.5176 9 5.26072 9H4.10059ZM4.79639 8.49135H5.20249C5.31709 8.49135 5.41458 8.47379 5.49496 8.43866C5.57535 8.40353 5.63681 8.34995 5.67931 8.27792C5.72273 8.20483 5.74444 8.11151 5.74444 7.99796V7.99512C5.74444 7.88974 5.72413 7.80103 5.68347 7.729C5.64373 7.6559 5.58367 7.60108 5.50328 7.564C5.42288 7.5271 5.32262 7.50865 5.20249 7.50865H4.79639V8.49135Z" fill="#B03931"/>
<path d="M8.06312 9C7.8415 9 7.6475 8.96561 7.48094 8.8969C7.31455 8.82726 7.18481 8.72458 7.09155 8.5889C6.99932 8.45322 6.95312 8.28451 6.95312 8.08278V7H7.63291V8.07057C7.63291 8.16104 7.64889 8.23747 7.6805 8.29988C7.71298 8.36139 7.76091 8.40798 7.8243 8.43964C7.88857 8.4704 7.96811 8.48577 8.06312 8.48577C8.15812 8.48577 8.23732 8.4704 8.30054 8.43964C8.3648 8.40798 8.41274 8.36139 8.44435 8.29988C8.477 8.23747 8.49315 8.16104 8.49315 8.07057V7H9.17311V8.08278C9.17311 8.28451 9.12691 8.45322 9.03468 8.5889C8.94229 8.72458 8.81307 8.82726 8.64651 8.8969C8.48012 8.96561 8.2856 9 8.06312 9Z" fill="#B03931"/>
<path d="M10.0236 9V8.54954H10.9536C11.0313 8.54954 11.0909 8.53375 11.1324 8.50235C11.174 8.47006 11.1947 8.42287 11.1947 8.36095V8.35829C11.1947 8.31766 11.1851 8.28395 11.1656 8.25698C11.1463 8.22931 11.1181 8.20855 11.0812 8.19471C11.0452 8.18087 11.0012 8.17395 10.9495 8.17395H10.0236V7.79411H10.894C10.9651 7.79411 11.0207 7.77885 11.0604 7.74834C11.1002 7.71782 11.12 7.67631 11.12 7.62361V7.62095C11.12 7.56631 11.1014 7.52426 11.0645 7.49481C11.0276 7.46518 10.9753 7.45046 10.9078 7.45046H10.0236V7H11.1088C11.2566 7 11.3824 7.01934 11.4859 7.05819C11.5893 7.09598 11.6684 7.15151 11.7229 7.22443C11.7773 7.29753 11.8047 7.3857 11.8047 7.48913V7.49197C11.8047 7.57057 11.7876 7.64029 11.7534 7.70132C11.7192 7.76217 11.6707 7.81256 11.6079 7.8523C11.5449 7.89116 11.4706 7.91741 11.3847 7.93143V7.94793C11.4901 7.95822 11.5811 7.98501 11.6578 8.0283C11.7353 8.07088 11.7949 8.12676 11.8366 8.19613C11.8781 8.26444 11.8989 8.3425 11.8989 8.43032V8.43316C11.8989 8.55238 11.868 8.6544 11.8061 8.73938C11.7451 8.82347 11.6572 8.88823 11.5426 8.93347C11.4282 8.97782 11.2903 9 11.1296 9H10.0236ZM9.67285 9V7H10.3589V9H9.67285Z" fill="#B03931"/>
</svg>
