<svg width="16" height="16" viewBox="0 0 16 16" fill="none" xmlns="http://www.w3.org/2000/svg">
<rect x="2" y="2" width="12" height="12" rx="3" fill="#2C0C07"/>
<path d="M11.8641 8.60684C11.8641 8.60684 11.6695 8.75808 11.4982 8.74118C11.327 8.72429 11.3807 8.34066 11.3807 8.34066C11.3807 8.34066 11.4176 7.98878 11.3167 7.95917C11.2161 7.92986 11.0919 8.0509 11.0919 8.0509C11.0919 8.0509 10.9375 8.22262 10.8636 8.44152L10.8432 8.44822C10.8432 8.44822 10.8668 8.0643 10.84 7.97684C10.8199 7.93316 10.6352 7.93655 10.605 8.01382C10.5747 8.09138 10.427 8.62984 10.4168 8.85544C10.4168 8.85544 10.128 9.10132 9.8764 9.14151C9.6245 9.18209 9.56402 9.02376 9.56402 9.02376C9.56402 9.02376 10.2491 8.83195 10.2255 8.2832C10.2022 7.73455 9.67313 7.93762 9.61334 7.98257C9.55538 8.02625 9.24621 8.21311 9.15603 8.7308C9.15302 8.74817 9.14758 8.82525 9.14758 8.82525C9.14758 8.82525 8.88229 9.00338 8.73454 9.05055C8.73454 9.05055 9.14758 8.35377 8.64407 8.03741C8.50244 7.95199 8.37906 8.03062 8.30558 8.10284C8.26054 8.1471 8.91597 7.42838 8.76473 6.78518C8.6929 6.47911 8.5402 6.4463 8.40013 6.4959C8.18744 6.57997 8.10687 6.70442 8.10687 6.70442C8.10687 6.70442 7.83138 7.10513 7.76741 7.70096C7.70364 8.29659 7.60967 9.01706 7.60967 9.01706C7.60967 9.01706 7.47862 9.145 7.35786 9.1517C7.23681 9.15821 7.29059 8.79137 7.29059 8.79137C7.29059 8.79137 7.38456 8.23272 7.37815 8.13837C7.37116 8.04421 7.36456 7.99373 7.25371 7.96014C7.14285 7.92636 7.0219 8.06779 7.0219 8.06779C7.0219 8.06779 6.70311 8.55238 6.67632 8.62645L6.65924 8.65693L6.64264 8.63654C6.64264 8.63654 6.86746 7.97684 6.65273 7.96684C6.43781 7.95665 6.29677 8.20243 6.29677 8.20243C6.29677 8.20243 6.05156 8.61324 6.04147 8.66023L6.02487 8.64004C6.02487 8.64004 6.12544 8.16215 6.10544 8.04411C6.08505 7.92636 5.97449 7.94995 5.97449 7.94995C5.97449 7.94995 5.83344 7.93306 5.79646 8.02402C5.75957 8.11497 5.62522 8.7173 5.60833 8.90922C5.60833 8.90922 5.25586 9.1616 5.02396 9.1649C4.79244 9.1684 4.81603 9.01784 4.81603 9.01784C4.81603 9.01784 5.6656 8.72633 5.4338 8.15079C5.32973 8.00266 5.20898 7.95616 5.03774 7.95937C4.86631 7.96286 4.65392 8.0675 4.51627 8.37716C4.45036 8.52471 4.42658 8.66518 4.41289 8.77099C4.41289 8.77099 4.26437 8.80156 4.1838 8.73429C4.10303 8.66692 4.06168 8.73429 4.06168 8.73429C4.06168 8.73429 3.92335 8.91116 4.061 8.96484C4.19884 9.01881 4.41357 9.04386 4.41357 9.04386C4.44621 9.19666 4.53324 9.3324 4.65848 9.42583C4.91029 9.61765 5.39351 9.40817 5.39351 9.40817L5.59154 9.29683C5.59154 9.29683 5.59833 9.47903 5.74278 9.50553C5.88712 9.53223 5.9476 9.50514 6.1994 8.89252C6.34725 8.57946 6.35734 8.59635 6.35734 8.59635C6.37394 8.59286 6.25998 9.19199 6.30356 9.35352C6.34725 9.51534 6.53857 9.49844 6.53857 9.49844C6.53857 9.49844 6.64273 9.51854 6.7267 9.22227C6.81057 8.92611 6.9719 8.59956 6.9719 8.59956C6.9918 8.59956 6.92143 9.21208 7.02869 9.40749C7.13625 9.6028 7.41494 9.47301 7.41494 9.47301C7.41494 9.47301 7.60977 9.37468 7.64005 9.34429C7.64005 9.34429 7.87108 9.54164 8.19705 9.50582C8.92597 9.36196 9.18525 9.16762 9.18525 9.16762C9.18525 9.16762 9.31047 9.48573 9.69837 9.51534C10.1414 9.54883 10.3834 9.26955 10.3834 9.26955C10.3834 9.26955 10.3799 9.45117 10.5344 9.51534C10.6891 9.57921 10.793 9.21956 10.793 9.21956L11.0515 8.5054C11.075 8.5054 11.0883 8.96979 11.3437 9.04386C11.5989 9.11792 11.9313 8.87039 11.9313 8.87039C11.9313 8.87039 12.0119 8.82593 11.9985 8.69129C11.9849 8.55655 11.8641 8.60684 11.8641 8.60684ZM5.13841 8.2698C5.22888 8.35726 5.19539 8.54568 5.02415 8.66343C4.85311 8.78147 4.77565 8.75788 4.77565 8.75788C4.78584 8.35726 5.04793 8.18205 5.13841 8.2698ZM8.47944 6.88633C8.53651 7.18929 7.97922 8.09138 7.97922 8.09138C7.98582 7.88938 8.18385 7.20608 8.18385 7.20608C8.18385 7.20608 8.42207 6.58337 8.47934 6.88623L8.47944 6.88633ZM7.92865 9.18539C7.92865 9.18539 7.88497 9.03725 8.00922 8.62334C8.13366 8.20923 8.42566 8.37076 8.42566 8.37076C8.42566 8.37076 8.62718 8.52559 8.46934 8.9396C8.3116 9.35361 7.92865 9.18539 7.92865 9.18539ZM9.6278 8.37425C9.76535 8.12186 9.87291 8.25971 9.87291 8.25971C9.87291 8.25971 9.99036 8.38765 9.85611 8.57956C9.72167 8.77137 9.52704 8.75798 9.52704 8.75798C9.52704 8.75798 9.49015 8.62654 9.6278 8.37425Z" fill="#E04E39"/>
</svg>
