<svg width="16" height="16" viewBox="0 0 16 16" fill="none" xmlns="http://www.w3.org/2000/svg">
<rect x="2" y="2" width="12" height="12" rx="3" fill="#100A29"/>
<path d="M9.18604 7.28301L8.0465 6.62509C8.03249 6.61695 8.01658 6.61267 8.00038 6.61267C7.98418 6.61267 7.96827 6.61695 7.95426 6.62509L6.81472 7.28301C6.80067 7.29106 6.789 7.30268 6.78089 7.31669C6.77279 7.3307 6.76853 7.34661 6.76855 7.3628V8.67864C6.76855 8.71153 6.78618 8.74198 6.81472 8.75852L7.95426 9.41643C7.9828 9.43288 8.01787 9.43288 8.0465 9.41643L9.18604 8.75852C9.21458 8.74207 9.23212 8.71162 9.23212 8.67864V7.3628C9.23212 7.32981 9.21458 7.29946 9.18604 7.28292" fill="#8080F2"/>
<path d="M5.03703 7.88232L6.39867 5.51354C6.4481 5.42784 6.53952 5.36469 6.63839 5.36469H9.36158C9.46054 5.36469 9.55186 5.42784 9.60139 5.51354L10.9629 7.87714C10.9872 7.91968 11 7.96782 11 8.01681C11 8.0658 10.9872 8.11394 10.9629 8.15648L9.60139 10.5059C9.55186 10.5915 9.46054 10.6353 9.36158 10.6353H6.63839C6.53952 10.6353 6.4481 10.5929 6.39867 10.5072L5.03712 8.15394C5.01282 8.11279 5 8.06587 5 8.01808C5 7.97029 5.01282 7.92338 5.03712 7.88223M6.16458 9.02123C6.16458 9.05612 6.18557 9.08829 6.21574 9.10574L7.95005 10.1064C7.98022 10.1239 8.01802 10.1239 8.04819 10.1064L9.78386 9.10583C9.81403 9.08838 9.83511 9.05621 9.83511 9.02132V7.02003C9.83511 6.98522 9.8143 6.95296 9.78422 6.93552L8.04974 5.9351C8.03483 5.9265 8.01792 5.92197 8.00071 5.92197C7.9835 5.92197 7.96659 5.9265 7.95168 5.9351L6.21592 6.93561C6.18566 6.95305 6.16449 6.98531 6.16449 7.02012L6.16458 9.02123Z" fill="#4B32C3"/>
</svg>
