<svg width="16" height="16" viewBox="0 0 16 16" fill="none" xmlns="http://www.w3.org/2000/svg">
<rect x="2" y="2" width="12" height="12" rx="3" fill="#33002B"/>
<path d="M7.36345 5.33706C7.4486 5.09575 7.76517 5.03993 7.92773 5.23756L8.77971 6.27339C8.88513 6.40156 9.04114 6.47751 9.2071 6.48155L10.5491 6.51421C10.8053 6.52044 10.9557 6.80373 10.8179 7.01909L10.0946 8.14893C10.0503 8.21799 10.0215 8.29578 10.0101 8.377C9.99863 8.45819 10.0048 8.54093 10.0283 8.61951L10.4113 9.90446C10.4843 10.1493 10.2614 10.3805 10.0132 10.316L8.71416 9.97846C8.63476 9.95782 8.55184 9.95451 8.47105 9.96876C8.39028 9.98298 8.31349 10.0145 8.24594 10.061L7.14071 10.8225C6.92957 10.9679 6.64099 10.827 6.62582 10.5719L6.54632 9.23347C6.53648 9.06782 6.45498 8.91471 6.32307 8.81397L5.25692 7.99964C5.05371 7.84443 5.09822 7.52675 5.33685 7.43326L6.58674 6.94359C6.74129 6.88304 6.86191 6.75831 6.91713 6.60182L7.36345 5.33706Z" fill="#FFAFF3"/>
<path d="M7.59655 5.00724C7.44514 5.03394 7.30675 5.13447 7.24945 5.29682L6.80307 6.56156C6.75955 6.68487 6.66462 6.78304 6.54277 6.83079L5.29283 7.32049C4.97209 7.44615 4.91006 7.8873 5.18349 8.09614L6.24965 8.91038C6.30098 8.94955 6.34326 8.99933 6.3736 9.05636C6.40393 9.11336 6.42162 9.17623 6.42543 9.24069L6.50489 10.5791C6.52528 10.9225 6.9258 11.1178 7.20963 10.9223L7.20964 10.9223L8.31495 10.1608V10.1608C8.36816 10.1241 8.42868 10.0993 8.49231 10.0881C8.55598 10.0769 8.62131 10.0795 8.68386 10.0958L9.98293 10.4332C10.3165 10.5199 10.6261 10.1993 10.5278 9.86966V9.86969L10.1448 8.58477C10.1263 8.52289 10.1214 8.45777 10.1304 8.3938C10.1394 8.32986 10.1621 8.26862 10.197 8.21426V8.21423L10.9204 7.08437L10.9203 7.08436C11.1059 6.79459 10.8968 6.40127 10.5524 6.39289L9.21035 6.36029C9.07953 6.35711 8.95675 6.29733 8.87371 6.19635L8.02172 5.16055C7.91237 5.02759 7.74793 4.98047 7.59651 5.00717M7.63727 5.23834C7.70607 5.2262 7.78121 5.24997 7.83441 5.31463L8.68637 6.35041C8.81413 6.50576 9.0034 6.59786 9.20444 6.60275L10.5465 6.63535C10.7145 6.63943 10.8063 6.81267 10.7161 6.9536L9.99272 8.08347C9.88422 8.25285 9.85487 8.46132 9.91229 8.65405L10.2953 9.93893C10.343 10.0989 10.2066 10.2407 10.0439 10.1985L8.74483 9.86098C8.55016 9.81038 8.34291 9.84695 8.17728 9.96109L7.07198 10.7226C6.93349 10.818 6.75686 10.7314 6.74695 10.5647L6.6675 9.22629C6.65558 9.0255 6.55667 8.83971 6.39682 8.71759L5.33066 7.90335C5.19769 7.80179 5.22472 7.60761 5.38123 7.54627L6.63117 7.05656C6.81844 6.98319 6.96478 6.8319 7.03173 6.64221V6.6422L7.47811 5.37746C7.50597 5.29852 7.56845 5.25048 7.63725 5.23834" fill="#33002B"/>
<path d="M7.20734 8.41399C7.33691 8.39113 7.42343 8.26759 7.40059 8.13804C7.37774 8.00847 7.2542 7.92198 7.12463 7.94483C6.99507 7.96768 6.90855 8.09123 6.93139 8.22078C6.95423 8.35033 7.07778 8.43685 7.20734 8.41399Z" fill="#33002B"/>
<path d="M9.12729 8.07556C9.25684 8.05273 9.34336 7.92917 9.3205 7.79961C9.29767 7.67006 9.17413 7.58355 9.04455 7.6064C8.91501 7.62925 8.82848 7.7528 8.85131 7.88236C8.87417 8.01192 8.99771 8.09842 9.12729 8.07556Z" fill="#33002B"/>
<path d="M7.9702 8.36091C7.95534 8.36664 7.94176 8.37525 7.93021 8.38622C7.91869 8.3972 7.90941 8.41035 7.90298 8.42491C7.89653 8.43949 7.89301 8.45516 7.89262 8.47108C7.89222 8.487 7.89498 8.50285 7.90071 8.51771C7.91569 8.55642 7.93812 8.59183 7.96677 8.62191C7.99542 8.65198 8.02971 8.67609 8.0677 8.69288L8.06773 8.69291C8.10566 8.70971 8.14652 8.71886 8.18803 8.71986H8.18806H8.18812C8.22959 8.72083 8.27086 8.71365 8.30957 8.6987H8.3096C8.34832 8.68376 8.38373 8.66132 8.41377 8.63267H8.4138V8.63264C8.44385 8.60402 8.46795 8.56973 8.48475 8.5318C8.5016 8.49382 8.51076 8.45286 8.51173 8.41132C8.51249 8.37919 8.50045 8.34805 8.47826 8.32477C8.45604 8.30151 8.42551 8.28802 8.39334 8.28726C8.37742 8.28687 8.3616 8.28966 8.34674 8.29539C8.33189 8.30115 8.3183 8.30976 8.30678 8.32076C8.29526 8.33174 8.28601 8.3449 8.27959 8.35948C8.27316 8.37403 8.26964 8.38974 8.26928 8.40565C8.26904 8.41526 8.26691 8.42475 8.263 8.43355V8.43358L8.26297 8.43364C8.25906 8.44246 8.25345 8.45043 8.24648 8.4571C8.23948 8.46377 8.23126 8.46899 8.22226 8.47244L8.2222 8.47247C8.21316 8.47596 8.20355 8.47763 8.19388 8.47742C8.18424 8.47717 8.17472 8.47502 8.1659 8.47111H8.16584L8.16581 8.47108C8.15698 8.46717 8.14904 8.46159 8.14237 8.45462V8.45459C8.1357 8.44758 8.13049 8.43937 8.127 8.43033C8.12127 8.41548 8.11266 8.40189 8.10168 8.39037C8.09068 8.37885 8.07755 8.36958 8.06297 8.36315C8.04842 8.35669 8.03271 8.35317 8.0168 8.35278C8.00088 8.35239 7.98505 8.35514 7.9702 8.36091Z" fill="#33002B"/>
</svg>
