<svg width="16" height="16" viewBox="0 0 16 16" fill="none" xmlns="http://www.w3.org/2000/svg">
<rect x="2" y="2" width="12" height="12" rx="3" fill="#002933"/>
<path d="M7.91781 7.10212C7.58375 7.18696 7.35574 7.25059 7.02698 7.33543C6.94744 7.35664 6.94214 7.36195 6.8732 7.28241C6.79366 7.19226 6.73534 7.13394 6.62398 7.08091C6.28992 6.91653 5.96646 6.96425 5.66422 7.16045C5.30364 7.39376 5.11805 7.73843 5.12335 8.16794C5.12866 8.59214 5.4203 8.94211 5.8392 9.00044C6.19978 9.04817 6.50202 8.9209 6.74064 8.65047C6.78836 8.59214 6.83078 8.52851 6.88381 8.45428C6.69292 8.45428 6.4543 8.45428 5.86041 8.45428C5.74906 8.45428 5.72254 8.38534 5.75966 8.2952C5.8286 8.13082 5.95586 7.85509 6.03009 7.71722C6.046 7.6854 6.08312 7.63238 6.16266 7.63238C6.43309 7.63238 7.42997 7.63238 8.09279 7.63238C8.08219 7.77555 8.08219 7.91872 8.06098 8.06189C8.00265 8.44367 7.85948 8.79364 7.62617 9.10119C7.24438 9.60494 6.74594 9.91779 6.11493 10.0026C5.59528 10.0716 5.11275 9.97081 4.68854 9.65266C4.29615 9.35571 4.07344 8.96332 4.01512 8.47549C3.94618 7.89751 4.11587 7.37786 4.46583 6.92183C4.84232 6.42869 5.34076 6.11584 5.95056 6.00449C6.449 5.91434 6.92623 5.97267 7.35574 6.26431C7.63677 6.4499 7.83827 6.70443 7.97084 7.01198C8.00265 7.0597 7.98144 7.08621 7.91781 7.10212Z" fill="#00ACD7"/>
<path d="M9.67251 10.0344C9.18997 10.0238 8.74986 9.88598 8.37868 9.56782C8.06583 9.29739 7.86963 8.95272 7.806 8.54443C7.71056 7.94524 7.87494 7.41498 8.23551 6.94305C8.6226 6.434 9.08922 6.16887 9.72023 6.05752C10.2611 5.96207 10.7701 6.0151 11.2315 6.32795C11.6504 6.61429 11.9102 7.00138 11.9791 7.51042C12.0693 8.22627 11.8625 8.80955 11.3693 9.308C11.0194 9.66327 10.5899 9.88598 10.0967 9.98673C9.95354 10.0132 9.81037 10.0185 9.67251 10.0344ZM10.9345 7.89221C10.9292 7.82328 10.9292 7.77025 10.9186 7.71723C10.8232 7.19227 10.3406 6.89533 9.83689 7.01198C9.34375 7.12334 9.02559 7.43619 8.90894 7.93463C8.81349 8.34823 9.01499 8.76713 9.39677 8.93682C9.68841 9.06408 9.98006 9.04817 10.2611 8.905C10.68 8.6876 10.908 8.34823 10.9345 7.89221Z" fill="#00ACD7"/>
</svg>
