<svg width="16" height="16" viewBox="0 0 16 16" fill="none" xmlns="http://www.w3.org/2000/svg">
<rect x="2" y="2" width="12" height="12" rx="3" fill="#330022"/>
<path fill-rule="evenodd" clip-rule="evenodd" d="M8.00028 5.38808L10.2623 6.69404V9.30596L8.00028 10.6119L5.73828 9.30596V6.69404L8.00028 5.38808ZM5.99208 6.84056V8.75912L7.6536 5.88128L5.99208 6.84056ZM8.00028 5.7884L6.08496 9.1058H9.9156L8.00028 5.7884ZM9.6618 9.3596H6.33876L8.00028 10.3189L9.6618 9.3596ZM10.0085 8.75912L8.34696 5.88128L10.0085 6.84056V8.75912Z" fill="#E10098"/>
<path d="M5.86468 7.3016C6.15993 7.3016 6.39928 7.06225 6.39928 6.767C6.39928 6.47175 6.15993 6.2324 5.86468 6.2324C5.56943 6.2324 5.33008 6.47175 5.33008 6.767C5.33008 7.06225 5.56943 7.3016 5.86468 7.3016Z" fill="#E10098"/>
<path d="M5.86468 9.7673C6.15993 9.7673 6.39928 9.52795 6.39928 9.2327C6.39928 8.93745 6.15993 8.6981 5.86468 8.6981C5.56943 8.6981 5.33008 8.93745 5.33008 9.2327C5.33008 9.52795 5.56943 9.7673 5.86468 9.7673Z" fill="#E10098"/>
<path d="M8.00042 11C8.29567 11 8.53502 10.7607 8.53502 10.4654C8.53502 10.1701 8.29567 9.9308 8.00042 9.9308C7.70517 9.9308 7.46582 10.1701 7.46582 10.4654C7.46582 10.7607 7.70517 11 8.00042 11Z" fill="#E10098"/>
<path d="M10.1352 9.7673C10.4304 9.7673 10.6698 9.52795 10.6698 9.2327C10.6698 8.93745 10.4304 8.6981 10.1352 8.6981C9.83993 8.6981 9.60059 8.93745 9.60059 9.2327C9.60059 9.52795 9.83993 9.7673 10.1352 9.7673Z" fill="#E10098"/>
<path d="M10.1352 7.3019C10.4304 7.3019 10.6698 7.06255 10.6698 6.7673C10.6698 6.47205 10.4304 6.2327 10.1352 6.2327C9.83993 6.2327 9.60059 6.47205 9.60059 6.7673C9.60059 7.06255 9.83993 7.3019 10.1352 7.3019Z" fill="#E10098"/>
<path d="M8.00042 6.0692C8.29567 6.0692 8.53502 5.82985 8.53502 5.5346C8.53502 5.23935 8.29567 5 8.00042 5C7.70517 5 7.46582 5.23935 7.46582 5.5346C7.46582 5.82985 7.70517 6.0692 8.00042 6.0692Z" fill="#E10098"/>
</svg>
