<svg width="16" height="16" viewBox="0 0 16 16" fill="none" xmlns="http://www.w3.org/2000/svg">
<rect x="2" y="2" width="12" height="12" rx="3" fill="#001333"/>
<path d="M7.99997 6.63407C7.72957 6.63407 7.46525 6.71425 7.24042 6.86448C7.01559 7.0147 6.84036 7.22822 6.73688 7.47804C6.6334 7.72785 6.60633 8.00274 6.65908 8.26794C6.71183 8.53315 6.84204 8.77675 7.03324 8.96795C7.22444 9.15915 7.46805 9.28936 7.73325 9.34211C7.99845 9.39487 8.27334 9.36779 8.52316 9.26431C8.77298 9.16084 8.9865 8.98561 9.13672 8.76078C9.28695 8.53595 9.36713 8.27162 9.36713 8.00123C9.3667 7.63877 9.22252 7.29127 8.96622 7.03498C8.70992 6.77868 8.36243 6.6345 7.99997 6.63407Z" fill="#478AFF"/>
<path d="M9.96261 6.75528C10.3066 6.75528 10.5854 6.47645 10.5854 6.13251C10.5854 5.78856 10.3066 5.50974 9.96261 5.50974C9.61867 5.50974 9.33984 5.78856 9.33984 6.13251C9.33984 6.47645 9.61867 6.75528 9.96261 6.75528Z" fill="#478AFF"/>
<path d="M10.7298 6.75854L10.7037 6.70141L10.6629 6.74875C10.5608 6.8646 10.4317 6.95347 10.287 7.00749L10.2462 7.02218L10.2625 7.06299C10.4825 7.59191 10.5103 8.18114 10.3412 8.72845C10.1721 9.27575 9.81676 9.74659 9.33681 10.0593C8.85685 10.372 8.28257 10.5068 7.71361 10.4403C7.14465 10.3738 6.61691 10.1103 6.22196 9.6954C5.827 9.2805 5.58975 8.74043 5.55136 8.16889C5.51298 7.59735 5.67588 7.0304 6.01181 6.56641C6.34774 6.10243 6.8355 5.77068 7.39047 5.62873C7.94543 5.48678 8.53257 5.54359 9.05003 5.78929L9.08839 5.80765L9.10512 5.76684C9.16611 5.62499 9.26115 5.50037 9.38182 5.40403L9.43079 5.36322L9.37488 5.33425C8.95013 5.11349 8.47826 4.99881 7.99956 5.00001C7.35145 5.0001 6.7208 5.21008 6.20199 5.59852C5.68317 5.98696 5.30411 6.53296 5.12152 7.15482C4.93893 7.77669 4.96263 8.44096 5.18909 9.04822C5.41554 9.65548 5.83256 10.1731 6.37774 10.5235C6.92292 10.874 7.56694 11.0385 8.21341 10.9924C8.85988 10.9463 9.47404 10.6921 9.96396 10.2678C10.4539 9.84348 10.7932 9.27194 10.9312 8.63869C11.0692 8.00543 10.9984 7.34452 10.7294 6.75487L10.7298 6.75854Z" fill="#478AFF"/>
</svg>
