<svg width="16" height="16" viewBox="0 0 16 16" fill="none" xmlns="http://www.w3.org/2000/svg">
<rect x="2" y="2" width="12" height="12" rx="3" fill="#2F2904"/>
<path d="M6.13038 9.5C5.90693 9.5 5.70322 9.47298 5.51927 9.41893C5.33531 9.36333 5.17629 9.28304 5.04222 9.17729C4.9097 9.0705 4.80681 8.93981 4.7338 8.78547C4.66052 8.63139 4.62337 8.45548 4.62207 8.25775V8.24762H5.59851L5.60059 8.25567C5.60319 8.35857 5.62632 8.44587 5.66945 8.51758C5.71414 8.5893 5.77494 8.64412 5.85211 8.68206C5.92927 8.71869 6.01788 8.73688 6.11817 8.73688C6.27641 8.73688 6.39697 8.69479 6.47934 8.61112C6.56326 8.5272 6.60535 8.40793 6.60535 8.25385V6.5H7.62233V8.26399C7.62233 8.51836 7.56491 8.73818 7.4498 8.9237C7.3347 9.10766 7.16633 9.24979 6.94417 9.34982C6.72228 9.45012 6.45101 9.5 6.13038 9.5Z" fill="#F0DB4F"/>
<path d="M9.8075 9.5C9.47438 9.5 9.18753 9.46447 8.94694 9.39315C8.70633 9.32158 8.51666 9.21726 8.37786 9.0797C8.23905 8.94086 8.15512 8.77234 8.12603 8.57411L8.12207 8.54442H9.07979L9.08375 8.55812C9.09697 8.61497 9.13331 8.66396 9.19281 8.70508C9.25362 8.74467 9.33623 8.77564 9.44068 8.79822C9.54509 8.81929 9.672 8.82995 9.82139 8.82995C9.93903 8.82995 10.0402 8.82005 10.1248 8.80025C10.2107 8.77893 10.2768 8.74924 10.323 8.71091C10.3693 8.67259 10.3925 8.62843 10.3925 8.57817V8.57614C10.3925 8.51269 10.364 8.4665 10.3072 8.43731C10.2503 8.40812 10.1512 8.38579 10.0098 8.3698L9.28007 8.31624C8.90727 8.28071 8.63166 8.19264 8.45321 8.05254C8.27605 7.91117 8.1875 7.71548 8.1875 7.46574V7.46167C8.1875 7.26091 8.24831 7.08883 8.36991 6.94619C8.49286 6.80203 8.66801 6.69162 8.89537 6.61497C9.12276 6.53832 9.39375 6.5 9.70837 6.5C10.0243 6.5 10.2946 6.53629 10.5194 6.60914C10.7454 6.68046 10.9238 6.7835 11.0547 6.91853C11.1856 7.0533 11.2669 7.21523 11.2986 7.40431L11.3046 7.43604H10.3568L10.3528 7.42005C10.3382 7.36447 10.3045 7.31904 10.2517 7.28325C10.2001 7.24619 10.13 7.21853 10.0415 7.2C9.95291 7.1802 9.84649 7.1703 9.72225 7.1703C9.5993 7.1703 9.4975 7.17944 9.41687 7.19797C9.33623 7.21523 9.27542 7.24086 9.23446 7.27538C9.19347 7.30838 9.17298 7.34797 9.17298 7.39442V7.39619C9.17298 7.45964 9.20339 7.50736 9.2642 7.53909C9.32634 7.57081 9.42877 7.59391 9.57154 7.60838L10.3151 7.66396C10.5544 7.68782 10.7527 7.73325 10.91 7.80076C11.0673 7.86701 11.1843 7.95812 11.2609 8.07437C11.3389 8.18934 11.3779 8.33097 11.3779 8.49873V8.50076C11.3779 8.70685 11.3158 8.88553 11.1915 9.03604C11.0673 9.18553 10.8882 9.30051 10.6542 9.38122C10.4202 9.46041 10.138 9.5 9.8075 9.5Z" fill="#F0DB4F"/>
</svg>
