<svg width="16" height="16" viewBox="0 0 16 16" fill="none" xmlns="http://www.w3.org/2000/svg">
<rect x="2" y="2" width="12" height="12" rx="3" fill="#330000"/>
<path d="M10.2951 6.9754C10.2951 6.62216 10.2026 6.291 10.0397 6.004C9.6076 5.55929 8.66773 5.45627 8.43434 6.00189C8.19464 6.56119 8.83699 7.18356 9.11769 7.13415C9.47513 7.07107 9.05461 6.25105 9.05461 6.25105C9.60128 7.28133 9.47513 6.96594 8.4869 7.91211C7.49868 8.85828 6.48943 10.8547 6.34225 10.9388C6.33594 10.943 6.32963 10.9462 6.32227 10.9493H10.1984C10.2668 10.9493 10.3109 10.8768 10.2804 10.8158L9.26697 8.80992C9.2449 8.76682 9.26066 8.7132 9.30272 8.68902C9.89565 8.3484 10.2951 7.70921 10.2951 6.9754Z" fill="url(#paint0_linear_129_2397)"/>
<path d="M10.2951 6.9754C10.2951 6.62216 10.2026 6.291 10.0397 6.004C9.6076 5.55929 8.66773 5.45627 8.43434 6.00189C8.19464 6.56119 8.83699 7.18356 9.11769 7.13415C9.47513 7.07107 9.05461 6.25105 9.05461 6.25105C9.60128 7.28133 9.47513 6.96594 8.4869 7.91211C7.49868 8.85828 6.48943 10.8547 6.34225 10.9388C6.33594 10.943 6.32963 10.9462 6.32227 10.9493H10.1984C10.2668 10.9493 10.3109 10.8768 10.2804 10.8158L9.26697 8.80992C9.2449 8.76682 9.26066 8.7132 9.30272 8.68902C9.89565 8.3484 10.2951 7.70921 10.2951 6.9754Z" fill="url(#paint1_linear_129_2397)"/>
<path d="M6.34272 10.9388C6.48991 10.8547 7.49916 8.85724 8.48738 7.91107C9.47561 6.96489 9.60176 7.28028 9.05509 6.25001C9.05509 6.25001 6.96299 9.18315 6.20605 10.6339" fill="url(#paint2_linear_129_2397)"/>
<path d="M6.63637 8.31055C8.04932 5.71278 8.23435 5.45101 8.97026 5.45101C9.35714 5.45101 9.74717 5.62553 9.99949 5.93566C9.65571 5.38162 9.047 5.01051 8.34999 5H5.94987C5.8994 5 5.8584 5.041 5.8584 5.09146V9.92957C6.00138 9.56056 6.24423 9.03281 6.63637 8.31055Z" fill="url(#paint3_linear_129_2397)"/>
<path d="M8.487 7.91107C7.49876 8.85725 6.48951 10.8547 6.34233 10.9388C6.19515 11.0229 5.94809 11.0334 5.81668 10.8863C5.67686 10.7296 5.45924 10.4763 6.6367 8.31056C8.04965 5.71279 8.23468 5.45102 8.9706 5.45102C9.35748 5.45102 9.74751 5.62554 9.99982 5.93567C10.0135 5.95775 10.0272 5.98087 10.0408 6.004C9.60873 5.5593 8.66887 5.45628 8.43548 6.0019C8.19578 6.56119 8.83813 7.18357 9.11883 7.13416C9.47627 7.07108 9.05575 6.25106 9.05575 6.25106C9.60138 7.28029 9.47522 6.9649 8.487 7.91107Z" fill="url(#paint4_linear_129_2397)"/>
<path opacity="0.3" d="M6.75234 8.42621C8.16529 5.82844 8.35032 5.56666 9.08624 5.56666C9.40478 5.56666 9.72543 5.68546 9.96933 5.89993C9.71702 5.61187 9.34275 5.45102 8.9706 5.45102C8.23468 5.45102 8.04965 5.71279 6.6367 8.31056C5.45924 10.4763 5.67686 10.7296 5.81668 10.8863C5.83666 10.9083 5.85978 10.9273 5.88396 10.943C5.76096 10.7643 5.70629 10.349 6.75234 8.42621Z" fill="url(#paint5_linear_129_2397)"/>
<defs>
<linearGradient id="paint0_linear_129_2397" x1="7.38796" y1="8.19545" x2="9.00698" y2="8.57392" gradientUnits="userSpaceOnUse">
<stop stop-color="#FF6533"/>
<stop offset="0.157" stop-color="#FF5633"/>
<stop offset="0.434" stop-color="#FF4333"/>
<stop offset="0.714" stop-color="#FF3733"/>
<stop offset="1" stop-color="#FF3333"/>
</linearGradient>
<linearGradient id="paint1_linear_129_2397" x1="7.13474" y1="7.65877" x2="10.0364" y2="9.90856" gradientUnits="userSpaceOnUse">
<stop stop-color="#BF3338"/>
<stop offset="1" stop-color="#FF3333"/>
</linearGradient>
<linearGradient id="paint2_linear_129_2397" x1="7.22987" y1="8.10195" x2="7.6504" y2="8.54349" gradientUnits="userSpaceOnUse">
<stop stop-color="#FF6533"/>
<stop offset="0.157" stop-color="#FF5633"/>
<stop offset="0.434" stop-color="#FF4333"/>
<stop offset="0.714" stop-color="#FF3733"/>
<stop offset="1" stop-color="#FF3333"/>
</linearGradient>
<linearGradient id="paint3_linear_129_2397" x1="7.99372" y1="8.86204" x2="7.86756" y2="7.05379" gradientUnits="userSpaceOnUse">
<stop stop-color="#FF6533"/>
<stop offset="0.157" stop-color="#FF5633"/>
<stop offset="0.434" stop-color="#FF4333"/>
<stop offset="0.714" stop-color="#FF3733"/>
<stop offset="1" stop-color="#FF3333"/>
</linearGradient>
<linearGradient id="paint4_linear_129_2397" x1="7.44752" y1="8.07096" x2="8.04485" y2="8.47715" gradientUnits="userSpaceOnUse">
<stop stop-color="#FBB040"/>
<stop offset="1" stop-color="#FB8840"/>
</linearGradient>
<linearGradient id="paint5_linear_129_2397" x1="8.05946" y1="5.77438" x2="7.4497" y2="12.4817" gradientUnits="userSpaceOnUse">
<stop stop-color="white"/>
<stop offset="1" stop-color="white" stop-opacity="0"/>
</linearGradient>
</defs>
</svg>
