<svg width="16" height="16" viewBox="0 0 16 16" fill="none" xmlns="http://www.w3.org/2000/svg">
<rect x="2" y="2" width="12" height="12" rx="3" fill="#320501"/>
<path d="M10.6394 10.6896L10.9996 6.24088L9.60918 8.95811L6.22559 10.9952C7.62149 10.8972 9.18105 10.7903 10.6398 10.6903L10.6394 10.6896Z" fill="#A00403"/>
<path d="M10.9108 6.92065L9.12591 5.52273L8.65981 7.12821C10.5553 7.28905 10.2439 6.96169 10.9108 6.92065ZM6.91622 8.69916L9.26402 9.44148L8.65981 7.12821L6.91622 8.69916ZM5.37979 9.02716C6.13937 11.4268 6.32927 11.9446 6.91622 8.69916L5.36253 9.06169L5.37979 9.02716ZM8.36633 5.00483L10.0409 5.02209L9.12591 5.52273C8.93602 5.40188 8.50444 5.10841 8.36633 5.00483ZM5.06905 8.07768L5 9.78674L5.39705 9.04443L5.06905 8.07768ZM8.74612 5.2983C9.19497 5.74715 8.72886 6.83473 7.83117 7.71516C6.93348 8.59558 5.79411 9.14801 5.34526 8.69916C4.91368 8.25222 5.35735 7.14547 6.25763 6.26505C7.1579 5.38462 8.3154 4.84946 8.74698 5.2983H8.74612Z" fill="#B11205"/>
<path d="M6.91612 8.69916L9.21212 9.44148C8.38349 10.2183 6.83843 10.9347 6.22559 10.9952L6.91612 8.69916Z" fill="#9F0D02"/>
<path d="M8.66016 7.1282L9.22984 9.42421C9.92037 8.69916 10.5418 7.90505 10.8526 6.93831L8.66016 7.1282ZM10.6402 10.6896L10.2832 8.06042L9.22984 9.42421L10.6402 10.6896Z" fill="#891102"/>
<path d="M10.8696 6.95558C11.094 6.24778 11.1458 5.21199 10.0409 5.02209L9.12598 5.52273L10.8696 6.95558Z" fill="#AA1401"/>
<path d="M5 9.78674C5.03453 10.9606 5.86316 10.9779 6.22569 10.9952L5.37979 9.04443L5 9.78674Z" fill="#9E1209"/>
<path d="M6.91602 8.69916L7.84823 10.4773C8.40065 10.1838 8.83223 9.82127 9.21203 9.42421L6.91602 8.69916Z" fill="#900E04"/>
<path d="M5.37932 9.04443L5.24121 10.6154C5.4829 10.9606 5.82816 10.9779 6.19069 10.9606C5.93174 10.3219 5.41384 9.02717 5.37932 9.04443Z" fill="#8B1104"/>
</svg>
