<svg width="16" height="16" viewBox="0 0 16 16" fill="none" xmlns="http://www.w3.org/2000/svg">
<rect x="2" y="2" width="12" height="12" rx="3" fill="#001D33"/>
<path d="M10.9523 9.93779L8.25237 5.73783C8.19715 5.65196 8.10209 5.60002 8 5.60002C7.89791 5.60002 7.80285 5.65196 7.74763 5.73783L5.04765 9.93779C4.9883 10.0301 4.9841 10.1475 5.03669 10.2438C5.0893 10.3401 5.19029 10.4 5.30003 10.4H10.7C10.8098 10.4 10.9107 10.3401 10.9633 10.2437C11.0159 10.1474 11.0117 10.0301 10.9523 9.93779ZM8 6.45483L8.80052 7.7H8L7.40001 8.29999L7.0432 7.94319L8 6.45483Z" fill="#31A8FF"/>
</svg>
