<svg width="16" height="16" viewBox="0 0 16 16" fill="none" xmlns="http://www.w3.org/2000/svg">
<rect x="2" y="2" width="12" height="12" rx="3" fill="#330009"/>
<path d="M9.72323 7.63657C9.72515 7.19383 9.64197 6.75485 9.47824 6.3435C9.44435 6.35739 9.41996 6.37027 9.40234 6.37908C9.36629 6.39777 9.33681 6.42703 9.31786 6.46294C9.2989 6.49886 9.29136 6.53971 9.29627 6.58002C9.31709 6.76 9.32774 6.94101 9.32813 7.12219C9.32813 7.95035 9.06077 8.74463 8.57519 9.35864C8.11604 9.9391 7.5 10.3125 6.83008 10.4193L6.83583 10.4227C7.02927 10.5325 7.24663 10.5934 7.46898 10.6001C7.69134 10.6068 7.91196 10.559 8.11164 10.4609C9.05704 9.99739 9.72323 8.90593 9.72323 7.63657Z" fill="#FD3456"/>
<path d="M9.90763 6.25913C9.84891 6.25752 9.79015 6.26126 9.73211 6.2703C9.90195 6.70571 9.98827 7.16922 9.98659 7.63657C9.98659 9.05977 9.19367 10.3227 8.03613 10.7832C8.09442 10.7869 8.15337 10.7893 8.21268 10.7893H8.22149C8.4973 10.7881 8.76938 10.7254 9.01795 10.6059C9.26653 10.4864 9.48537 10.313 9.65858 10.0984C10.1018 9.54976 10.3739 8.81072 10.3739 8.00051C10.3781 7.38866 10.217 6.78702 9.90763 6.25913Z" fill="#FD3456"/>
<path d="M11 8.00051C11.0005 7.63361 10.9283 7.27026 10.7876 6.93141C10.7264 6.77929 10.6352 6.64101 10.5195 6.52479C10.4575 6.46218 10.3866 6.40899 10.3091 6.36688C10.2895 6.35672 10.2695 6.34756 10.2502 6.3391C10.5059 6.85512 10.638 7.42358 10.6361 7.99949C10.6361 8.82291 10.3677 9.61617 9.89062 10.2248C10.2353 9.96535 10.5149 9.62938 10.7074 9.24336C10.9 8.85736 11.0001 8.43187 11 8.00051Z" fill="#FD3456"/>
<path d="M10.2132 6.05784C9.9539 5.78966 9.64325 5.57645 9.29976 5.4309C8.95628 5.28536 8.58701 5.21047 8.21396 5.2107C6.67284 5.2107 5.40992 6.48751 5.42551 8.02864C5.42884 8.394 5.50426 8.75512 5.64746 9.09128C5.60153 9.08518 5.55515 9.08314 5.50887 9.08518C5.38383 9.09095 5.20695 9.04588 5.12698 9.02352C5.04701 9.00115 4.97551 9.06519 5.00804 9.13974V9.14211C5.28489 9.77611 5.89855 10.1888 6.48443 10.1875C6.52337 10.1875 6.56228 10.1854 6.601 10.1814C7.97303 10.077 9.06178 8.74498 9.06178 7.12253C9.06178 7.02019 9.05737 6.91854 9.04856 6.81756C9.0475 6.80538 9.04277 6.79381 9.03498 6.78438C9.02719 6.77496 9.01673 6.76811 9.00497 6.76478C8.99321 6.76143 8.98072 6.76174 8.96914 6.76566C8.95756 6.76958 8.94744 6.77692 8.94012 6.78673C8.56061 7.28891 7.99845 8.17197 7.29532 7.7118C7.02424 7.53526 6.87988 7.1554 6.96154 6.76876C7.10793 6.07445 7.91712 5.61665 8.2736 5.76033C8.30139 5.77151 8.40168 5.81149 8.43591 5.90298C8.48809 6.04259 8.33086 6.15747 8.25056 6.40483C8.16414 6.67253 8.21294 6.95615 8.2736 6.96869C8.34137 6.98224 8.45488 6.73386 8.73479 6.50784C8.9381 6.34418 9.09126 6.29809 9.1875 6.12426C9.28034 5.95483 9.11498 5.77625 9.17123 5.76033C9.22748 5.7444 9.28 5.93958 9.4474 6.03649C9.58734 6.11782 9.71205 6.06699 9.89605 6.05954C9.96413 6.05905 10.0321 6.06426 10.0994 6.07512C10.0994 6.07512 10.1353 6.08021 10.1922 6.09207C10.1966 6.09319 10.2011 6.09288 10.2053 6.0912C10.2095 6.08951 10.213 6.08654 10.2153 6.08271C10.2177 6.07888 10.2188 6.0744 10.2184 6.06993C10.218 6.06545 10.2162 6.06121 10.2132 6.05784ZM8.13467 8.20754C8.1654 8.16636 8.21099 8.13876 8.26174 8.13063C8.28373 8.1275 8.30614 8.12889 8.32758 8.13471C8.34902 8.14054 8.36905 8.15068 8.38643 8.16451C8.45421 8.2272 8.43422 8.34851 8.37593 8.41832C8.32171 8.4827 8.21497 8.52506 8.14077 8.47727C8.1201 8.46128 8.10341 8.44073 8.092 8.41721C8.0806 8.3937 8.07479 8.36787 8.07503 8.34173C8.07717 8.29106 8.09848 8.24309 8.13467 8.20754Z" fill="#FD3456"/>
</svg>
