<svg width="16" height="16" viewBox="0 0 16 16" fill="none" xmlns="http://www.w3.org/2000/svg">
<rect x="2" y="2" width="12" height="12" rx="3" fill="#022331"/>
<path fill-rule="evenodd" clip-rule="evenodd" d="M8.00008 5.6144C6.93332 5.6144 6.26677 6.14457 5.99996 7.2049C6.40002 6.67474 6.86669 6.47596 7.4 6.60843C7.70427 6.68399 7.92185 6.90345 8.16248 7.14643C8.5547 7.5421 9.00868 8 10 8C11.0666 8 11.7333 7.46983 12 6.40965C11.6001 6.93982 11.1334 7.13859 10.6001 7.00597C10.2957 6.93041 10.0781 6.71095 9.83748 6.46812C9.44526 6.07215 8.99144 5.6144 8.00008 5.6144ZM5.99996 8C4.93336 8 4.26665 8.53016 4 9.5905C4.40005 9.06033 4.86673 8.86156 5.39988 8.99402C5.70431 9.06958 5.92189 9.28904 6.16252 9.53202C6.55474 9.92769 7.00856 10.3856 8.00008 10.3856C9.06668 10.3856 9.73339 9.85558 10 8.79525C9.59998 9.32541 9.13331 9.52419 8.6 9.39172C8.29573 9.31601 8.07815 9.09654 7.83752 8.85372C7.4453 8.45805 6.99132 8 5.99996 8Z" fill="#38BDF8"/>
</svg>
