<svg width="16" height="16" viewBox="0 0 16 16" fill="none" xmlns="http://www.w3.org/2000/svg">
<rect x="2" y="2" width="12" height="12" rx="3" fill="#332400"/>
<path d="M9.05113 7.18352C9.05113 7.33495 8.99097 7.48018 8.88389 7.58726C8.77682 7.69433 8.63159 7.75449 8.48015 7.75449C8.32872 7.75449 8.18349 7.69433 8.07641 7.58726C7.96934 7.48018 7.90918 7.33495 7.90918 7.18352C7.90918 7.03208 7.96934 6.88685 8.07641 6.77978C8.18349 6.6727 8.32872 6.61254 8.48015 6.61254C8.63159 6.61254 8.77682 6.6727 8.88389 6.77978C8.99097 6.88685 9.05113 7.03208 9.05113 7.18352Z" fill="#FFC131"/>
<path d="M7.51985 8.24761C7.2045 8.24761 6.94887 8.50324 6.94887 8.81858C6.94887 9.13392 7.2045 9.38956 7.51985 9.38956C7.83519 9.38956 8.09082 9.13392 8.09082 8.81858C8.09082 8.50324 7.83519 8.24761 7.51985 8.24761Z" fill="#FFC131"/>
<path fill-rule="evenodd" clip-rule="evenodd" d="M9.66371 9.01323C9.43424 9.16158 9.17892 9.26547 8.91106 9.31948C8.98869 9.09816 9.01444 8.86197 8.98633 8.62912C9.21343 8.54973 9.41864 8.41794 9.58531 8.24443C9.75197 8.07093 9.87541 7.8606 9.94562 7.63048C10.0158 7.40037 10.0308 7.15695 9.98939 6.91996C9.94796 6.68296 9.85127 6.45907 9.70716 6.26642C9.56304 6.07377 9.37557 5.91779 9.15992 5.81113C8.94427 5.70446 8.70653 5.6501 8.46595 5.65247C8.22538 5.65484 7.98875 5.71386 7.77524 5.82475C7.56173 5.93563 7.37736 6.09527 7.23707 6.29072C6.94655 6.32341 6.66384 6.40593 6.40137 6.53468C6.50513 6.1999 6.68808 5.89508 6.9347 5.64604C7.18133 5.39701 7.48436 5.2111 7.81812 5.1041C8.15187 4.99709 8.5065 4.97212 8.85196 5.03132C9.19741 5.09052 9.5235 5.23214 9.80258 5.44417C10.0817 5.6562 10.3055 5.93239 10.4551 6.24933C10.6048 6.56628 10.6758 6.91462 10.6622 7.26485C10.6485 7.61507 10.5507 7.95685 10.3769 8.2612C10.2031 8.56556 9.95842 8.82353 9.66371 9.01323ZM6.42732 6.93177L6.96196 6.99665C6.97409 6.8934 6.9967 6.79166 7.02944 6.693C6.81796 6.74216 6.61502 6.82264 6.42732 6.93177Z" fill="#FFC131"/>
<path fill-rule="evenodd" clip-rule="evenodd" d="M6.33377 6.98886C6.56463 6.839 6.82177 6.7342 7.09161 6.68002C7.00999 6.9013 6.98067 7.13847 7.00597 7.37297C6.77964 7.45349 6.57544 7.58612 6.40985 7.76016C6.24427 7.93419 6.12195 8.14474 6.05279 8.37479C5.98363 8.60484 5.96957 8.84793 6.01173 9.08442C6.0539 9.32091 6.15111 9.54416 6.29551 9.73614C6.43992 9.92811 6.62746 10.0834 6.84299 10.1895C7.05852 10.2956 7.29598 10.3495 7.53618 10.3468C7.77639 10.3441 8.0126 10.285 8.22572 10.1742C8.43884 10.0633 8.6229 9.9039 8.76301 9.70878C9.05337 9.67691 9.33607 9.59526 9.59871 9.46741C9.49469 9.80184 9.31162 10.1063 9.06501 10.355C8.8184 10.6037 8.51551 10.7893 8.18196 10.8961C7.84842 11.0029 7.49405 11.0278 7.14885 10.9687C6.80364 10.9095 6.47777 10.7681 6.19881 10.5563C5.91985 10.3446 5.69602 10.0687 5.54627 9.7521C5.39651 9.4355 5.32523 9.08748 5.33847 8.7375C5.35171 8.38751 5.44908 8.04587 5.62233 7.74149C5.79558 7.43711 6.03961 7.17895 6.33377 6.98886Z" fill="#FFC131"/>
</svg>
