<svg width="16" height="16" viewBox="0 0 16 16" fill="none" xmlns="http://www.w3.org/2000/svg">
<rect x="2" y="2" width="12" height="12" rx="3" fill="black"/>
<path d="M8.21484 9.59979C8.21484 8.83073 8.83828 8.20732 9.60731 8.20732C10.3763 8.20732 10.9998 8.83073 10.9998 9.59979C10.9998 10.3688 10.3763 10.9923 9.60731 10.9923C8.83828 10.9923 8.21484 10.3688 8.21484 9.59979Z" fill="white"/>
<path d="M8.21484 6.40022C8.21484 5.63118 8.83828 5.00775 9.60731 5.00775C10.3763 5.00775 10.9998 5.63118 10.9998 6.40022V7.65345C10.9998 7.73034 10.9374 7.79269 10.8605 7.79269H8.35409C8.2772 7.79269 8.21484 7.73034 8.21484 7.65345V6.40022Z" fill="white"/>
<path d="M7.78494 9.59979C7.78494 10.3688 7.16151 10.9923 6.39247 10.9923C5.62343 10.9923 5 10.3688 5 9.59979L5 8.34657C5 8.26965 5.06234 8.20732 5.13925 8.20732H7.64569C7.7226 8.20732 7.78494 8.26965 7.78494 8.34657V9.59979Z" fill="white"/>
</svg>
