<svg width="16" height="16" viewBox="0 0 16 16" fill="none" xmlns="http://www.w3.org/2000/svg">
<rect x="2" y="2" width="12" height="12" rx="3" fill="#061C2D"/>
<path d="M10.5385 9.62434L8.10682 11V9.9288L9.62197 9.09511L10.5385 9.62434ZM10.7051 9.4737V6.59724L9.81564 7.11132V8.96041L10.7051 9.4737ZM5.4615 9.62434L7.89322 11V9.9288L6.37728 9.09511L5.4615 9.62434ZM5.29492 9.4737V6.59724L6.1844 7.11132V8.96041L5.29492 9.4737ZM5.39933 6.41073L7.89322 5V6.03533L6.29519 6.91445L6.28243 6.92163L5.39933 6.41073ZM10.6007 6.41073L8.10682 5V6.03533L9.70486 6.91366L9.71761 6.92083L10.6007 6.41073Z" fill="#8ED6FB"/>
<path d="M7.89268 9.68491L6.39746 8.86238V7.23406L7.89268 8.09723V9.68491ZM8.10628 9.68491L9.6015 8.86317V7.23406L8.10628 8.09723V9.68491ZM6.49868 7.04596L7.99948 6.22104L9.50028 7.04596L7.99948 7.91232L6.49868 7.04596Z" fill="#1C78C0"/>
</svg>
