<svg width="16" height="16" viewBox="0 0 16 16" fill="none" xmlns="http://www.w3.org/2000/svg">
<rect x="2" y="2" width="12" height="12" rx="3" fill="#0A1F29"/>
<path fill-rule="evenodd" clip-rule="evenodd" d="M9.76808 10.1922C10.1507 9.94295 10.3072 9.87531 10.6164 9.80188C10.8715 9.74005 10.8541 9.34391 10.5159 9.3497C10.1662 9.35357 9.8589 9.53328 9.59996 9.69367C9.11494 9.99319 8.87339 9.97386 8.87339 9.97386C8.87339 9.97386 8.87145 9.97 8.86566 9.96034C8.85678 9.94571 8.86399 9.8996 8.87509 9.82867C8.90506 9.63723 8.96331 9.26502 8.80962 8.84342C8.64909 8.39857 8.42249 8.19124 8.31251 8.09062C8.26627 8.04831 8.24065 8.02486 8.24923 8.01056C8.27481 7.96739 8.30833 7.91894 8.3465 7.86375C8.49287 7.65213 8.70766 7.34159 8.80575 6.85113C8.87918 6.47625 8.85986 5.85982 8.69368 5.53711C8.66276 5.47721 8.38836 5.6376 8.38836 5.6376C8.38836 5.6376 8.13135 5.06561 8.05985 5.01924C7.82797 4.87044 7.57676 5.63373 7.57676 5.63373C7.57676 5.63373 7.04729 5.54871 6.63182 5.99702C6.54873 6.08784 6.43665 6.13615 6.32071 6.1806L6.31475 6.18259C6.28281 6.19293 6.24129 6.20638 6.1468 6.46079C5.99221 6.87432 6.40767 7.33423 6.40767 7.33423C6.40767 7.33423 5.91298 7.68399 5.7294 8.11878C5.5265 8.59608 5.58834 9.06178 5.58834 9.06178C5.58834 9.06178 5.23664 9.3671 5.21345 9.68207C5.1922 9.9584 5.27143 10.1826 5.35645 10.314C5.45114 10.457 5.56901 10.3874 5.56901 10.3874C5.56901 10.3874 5.33519 10.6599 5.55355 10.7758C5.75259 10.8802 6.08882 10.9401 6.2666 10.7603C6.35588 10.6711 6.39554 10.5064 6.4274 10.3742C6.44175 10.3146 6.45451 10.2617 6.4695 10.2251C6.47709 10.2074 6.49627 10.2327 6.51892 10.2626C6.53087 10.2784 6.54378 10.2955 6.55646 10.3082C6.59704 10.3468 6.66661 10.3893 6.66661 10.3893C6.66661 10.3893 6.35163 10.5246 6.4811 10.8338C6.52361 10.9362 6.67627 11.0019 6.92555 11C7.0183 10.998 8.03667 10.942 8.3072 10.8763C8.46372 10.8396 8.51783 10.7584 8.51783 10.7584C8.51783 10.7584 9.17097 10.5787 9.76808 10.1922Z" fill="#2C8EBB"/>
</svg>
