<svg width="16" height="16" viewBox="0 0 16 16" fill="none" xmlns="http://www.w3.org/2000/svg">
<rect x="2.5" y="2.5" width="11" height="11" rx="2.5" stroke="#9999FF"/>
<path d="M7.20929 8.98276H5.81883L5.53475 9.86488C5.52728 9.89852 5.49738 9.92095 5.46374 9.91721H4.76103C4.71992 9.91721 4.7087 9.89478 4.71992 9.84993L5.92348 6.39994C5.9347 6.36257 5.94591 6.32893 5.96086 6.28407C5.97581 6.20558 5.98329 6.12335 5.98329 6.04112C5.97955 6.02243 5.9945 6.00374 6.01319 6H6.02441H6.98128C7.00745 6 7.02613 6.01121 7.02987 6.0299L8.39417 9.84245C8.40538 9.88357 8.39417 9.90226 8.35679 9.90226H7.57559C7.54942 9.90599 7.52326 9.88731 7.51578 9.86114L7.20929 8.96407V8.98276ZM6.03562 8.23894H6.98502C6.96259 8.16044 6.93269 8.067 6.89905 7.96982C6.86541 7.8689 6.83177 7.7605 6.79813 7.64837C6.76075 7.5325 6.72711 7.42036 6.68973 7.30449C6.65235 7.18862 6.61871 7.08022 6.58881 6.97183C6.55891 6.86717 6.53275 6.76999 6.50658 6.68028H6.4991C6.46546 6.841 6.42435 7.00173 6.37202 7.16245C6.31595 7.34187 6.25989 7.52876 6.20008 7.71565C6.15149 7.90627 6.09169 8.08195 6.03562 8.23894Z" fill="#9999FF"/>
<path d="M10.596 8.64636H9.41115C9.4261 8.76223 9.46348 8.87811 9.52702 8.97903C9.5943 9.07995 9.68774 9.15844 9.79988 9.20329C9.94939 9.26684 10.1139 9.30048 10.2783 9.29674C10.4091 9.293 10.54 9.28179 10.667 9.25562C10.7829 9.24067 10.8951 9.21077 10.9997 9.16965C11.0184 9.1547 11.0296 9.16218 11.0296 9.19956V9.77144C11.0296 9.78639 11.0259 9.80134 11.0221 9.81629C11.0147 9.82751 11.0072 9.83498 10.996 9.84246C10.8764 9.89479 10.753 9.93216 10.6222 9.95459C10.4465 9.98823 10.2708 10.0032 10.0914 9.99944C9.80735 9.99944 9.56814 9.95459 9.37377 9.86862C9.19062 9.79013 9.02989 9.66678 8.90281 9.51353C8.7832 9.36776 8.69723 9.20329 8.6449 9.02388C8.59257 8.8482 8.56641 8.66505 8.56641 8.47816C8.56641 8.27632 8.59631 8.07822 8.65985 7.88385C8.71966 7.69696 8.8131 7.52502 8.94019 7.37177C9.06353 7.22226 9.21678 7.10265 9.39246 7.01668C9.56814 6.93072 9.77745 6.90081 10.0167 6.90081C10.2148 6.89708 10.4129 6.93445 10.596 7.01668C10.7493 7.08396 10.8838 7.18489 10.9885 7.31571C11.0857 7.44279 11.1642 7.58483 11.2128 7.74182C11.2614 7.89133 11.2838 8.04458 11.2838 8.19783C11.2838 8.28753 11.28 8.36603 11.2763 8.43705C11.2688 8.50806 11.2651 8.56039 11.2614 8.59403C11.2576 8.6202 11.2352 8.64262 11.209 8.64262C11.1866 8.64262 11.1455 8.64636 11.0857 8.6501C11.0259 8.65758 10.9549 8.66131 10.8689 8.66131C10.7829 8.66131 10.6932 8.64636 10.596 8.64636ZM9.41115 8.10064H10.1998C10.297 8.10064 10.368 8.10064 10.4129 8.09691C10.4428 8.09317 10.4727 8.08569 10.4988 8.067V8.02963C10.4988 7.98104 10.4914 7.93618 10.4764 7.89133C10.4091 7.68201 10.211 7.53998 9.99051 7.54745C9.78493 7.53624 9.59056 7.64463 9.49338 7.83152C9.44853 7.91749 9.42236 8.0072 9.41115 8.10064Z" fill="#9999FF"/>
</svg>
