<svg width="16" height="16" viewBox="0 0 16 16" fill="none" xmlns="http://www.w3.org/2000/svg">
<rect x="2.5" y="2.5" width="11" height="11" rx="2.5" stroke="#FF9A00"/>
<path d="M9.88921 5.36689L9.75276 7.50959L8.44813 4.7L9.88921 5.36689ZM8.98558 8.13752L7.99979 8.7L7.01399 8.13752L7.21449 7.65161H8.78508L8.98558 8.13752ZM7.99979 5.76647L8.51634 7.02231H7.48322L7.99979 5.76647ZM6.24541 7.50959L6.11035 5.36689L7.55144 4.7L6.24541 7.50959Z" fill="#FF9A00"/>
<path d="M4.01074 11.3V9.7H4.5674V10.2865H5.38791V9.7H5.94343V11.3H5.38791V10.6991H4.5674V11.3H4.01074Z" fill="#FF9A00"/>
<path d="M6.7423 11.3V10.1114H6.14355V9.7H7.89546V10.1114H7.29782V11.3H6.7423Z" fill="#FF9A00"/>
<path d="M8.0957 11.3V9.7H8.75214L9.22007 10.7245H9.23227L9.69909 9.7H10.3555V11.3H9.85322V10.353H9.64698L9.98296 10.0049L9.40302 11.3H9.0482L8.46827 10.0049L8.80426 10.353H8.59801V11.3H8.0957Z" fill="#FF9A00"/>
<path d="M10.5547 11.3V9.7H11.1113V10.8897H11.9884V11.3H10.5547Z" fill="#FF9A00"/>
</svg>
