<svg width="16" height="16" viewBox="0 0 16 16" fill="none" xmlns="http://www.w3.org/2000/svg">
<rect x="2.5" y="2.5" width="11" height="11" rx="2.5" stroke="#33FF66"/>
<path d="M9.88921 4.97695L9.75276 7.11965L8.44813 4.31006L9.88921 4.97695ZM8.98558 7.74758L7.99979 8.31006L7.01399 7.74758L7.21449 7.26167H8.78508L8.98558 7.74758ZM7.99979 5.37654L8.51634 6.63237H7.48322L7.99979 5.37654ZM6.24541 7.11965L6.11035 4.97695L7.55144 4.31006L6.24541 7.11965Z" fill="#33FF66"/>
<path d="M7.16487 9.53251V9.60211H8.83513V9.53251C8.83513 9.38959 8.91715 9.31006 9.06503 9.31006H9.2701C9.41923 9.31006 9.5 9.38959 9.5 9.53251V10.4174C9.5 10.5603 9.41923 10.6398 9.2701 10.6398H9.06503C8.91715 10.6398 8.83513 10.5603 8.83513 10.4174V10.3403H8.40952L8.27217 10.0868C8.21127 9.9712 8.11806 9.91031 8.00125 9.91031C7.88318 9.91031 7.79246 9.97245 7.72908 10.0868L7.59327 10.3403H7.16487V10.4174C7.16487 10.5603 7.08285 10.6398 6.93621 10.6398H6.72991C6.58202 10.6398 6.5 10.5603 6.5 10.4174V9.53251C6.5 9.38959 6.58202 9.31006 6.72991 9.31006H6.93621C7.08285 9.31006 7.16487 9.38959 7.16487 9.53251Z" fill="#33FF66"/>
<path d="M8.00154 11.6899C8.31098 11.6899 8.55704 11.4488 8.55704 11.1468C8.55704 10.9816 8.47378 10.8175 8.40418 10.6883L8.12457 10.1676C8.09226 10.1079 8.05622 10.0806 8.00154 10.0806C7.94685 10.0806 7.91081 10.1079 7.8785 10.1663L7.60012 10.6883C7.53053 10.8175 7.44727 10.9816 7.44727 11.1468C7.44727 11.4488 7.69333 11.6899 8.00154 11.6899Z" fill="#33FF66"/>
</svg>
