<svg width="16" height="16" viewBox="0 0 16 16" fill="none" xmlns="http://www.w3.org/2000/svg">
<rect x="2.5" y="2.5" width="11" height="11" rx="2.5" stroke="white"/>
<path d="M11 6.44657V9.55598C11 10.0802 10.7354 10.3422 10.201 10.3422H5.79898C5.26718 10.3422 5 10.0802 5 9.55598V6.44657C5 5.92239 5.26718 5.65776 5.79898 5.65776H10.201C10.7354 5.65776 11 5.92239 11 6.44657ZM8.60561 8.06489L7.38932 9.14377L6.90331 8.70611C6.79135 8.60178 6.66158 8.55089 6.5369 8.55089C6.42494 8.55089 6.3028 8.60178 6.19084 8.70103L5.40967 9.38297V9.53818C5.40967 9.78754 5.55725 9.93512 5.80407 9.93512H10.1985C10.4402 9.93512 10.5903 9.78754 10.5903 9.54326V9.15141L9.41986 8.06744C9.30026 7.95548 9.15523 7.90204 9.01529 7.90204C8.87023 7.90204 8.73029 7.95293 8.60561 8.06489ZM6.2799 7.43639C6.2799 7.78245 6.56234 8.06489 6.9084 8.06489C7.25191 8.06489 7.53436 7.78245 7.53436 7.43639C7.53436 7.09288 7.25191 6.80789 6.9084 6.80789C6.56234 6.80789 6.2799 7.09288 6.2799 7.43639Z" fill="white"/>
</svg>
