<svg width="16" height="16" viewBox="0 0 16 16" fill="none" xmlns="http://www.w3.org/2000/svg">
<rect x="2.5" y="2.5" width="11" height="11" rx="2.5" stroke="white"/>
<path d="M4.93139 8.8C4.81221 8.8 4.70357 8.78559 4.60546 8.75676C4.50735 8.72711 4.42254 8.68429 4.35103 8.62789C4.28036 8.57093 4.22548 8.50123 4.18654 8.41891C4.14746 8.33674 4.12765 8.24292 4.12695 8.13746V8.13206H4.64772L4.64883 8.13636C4.65022 8.19123 4.66255 8.23779 4.68555 8.27604C4.70939 8.31429 4.74181 8.34353 4.78297 8.36376C4.82413 8.3833 4.87138 8.393 4.92487 8.393C5.00927 8.393 5.07357 8.37055 5.11749 8.32593C5.16225 8.28117 5.1847 8.21756 5.1847 8.13539V7.2H5.72709V8.14079C5.72709 8.27646 5.69647 8.39369 5.63508 8.49264C5.57369 8.59075 5.48389 8.66655 5.36541 8.7199C5.24706 8.77339 5.10239 8.8 4.93139 8.8Z" fill="white"/>
<path d="M6.82565 8.8C6.64799 8.8 6.495 8.78105 6.36669 8.74301C6.23837 8.70484 6.13721 8.6492 6.06318 8.57583C5.98915 8.50179 5.94438 8.41191 5.92887 8.30619L5.92676 8.29035H6.43754L6.43965 8.29766C6.4467 8.32798 6.46609 8.35411 6.49782 8.37604C6.53025 8.39715 6.57431 8.41367 6.63001 8.42572C6.6857 8.43695 6.75338 8.44264 6.83306 8.44264C6.8958 8.44264 6.94974 8.43736 6.99486 8.4268C7.04068 8.41543 7.07593 8.39959 7.10061 8.37915C7.12528 8.35871 7.13763 8.33516 7.13763 8.30836V8.30727C7.13763 8.27343 7.12247 8.2488 7.09215 8.23323C7.06184 8.21766 7.00896 8.20575 6.93353 8.19722L6.54436 8.16866C6.34553 8.14971 6.19854 8.10274 6.10337 8.02802C6.00888 7.95262 5.96165 7.84825 5.96165 7.71506V7.71289C5.96165 7.60582 5.99409 7.51404 6.05894 7.43797C6.12451 7.36108 6.21793 7.3022 6.33918 7.26132C6.46046 7.22044 6.60498 7.2 6.77278 7.2C6.94128 7.2 7.08546 7.21935 7.20531 7.2582C7.32587 7.29624 7.42104 7.3512 7.49085 7.42321C7.56064 7.49509 7.604 7.58145 7.62092 7.6823L7.62409 7.69922H7.1186L7.11647 7.69069C7.10871 7.66105 7.09074 7.63682 7.06254 7.61773C7.03505 7.59797 6.99768 7.58321 6.95045 7.57333C6.90321 7.56277 6.84645 7.55749 6.78019 7.55749C6.71462 7.55749 6.66032 7.56237 6.61732 7.57225C6.57431 7.58145 6.54188 7.59512 6.52003 7.61353C6.49817 7.63113 6.48725 7.65225 6.48725 7.67702V7.67797C6.48725 7.71181 6.50346 7.73726 6.5359 7.75418C6.56903 7.7711 6.62367 7.78341 6.69981 7.79113L7.09638 7.82078C7.22399 7.8335 7.32974 7.85773 7.41364 7.89374C7.49753 7.92907 7.55994 7.97766 7.60082 8.03966C7.64241 8.10098 7.66322 8.17651 7.66322 8.26599V8.26707C7.66322 8.37699 7.63008 8.47228 7.56381 8.55255C7.49753 8.63228 7.40201 8.6936 7.27722 8.73665C7.15244 8.77888 7.00191 8.8 6.82565 8.8Z" fill="white"/>
<path d="M8.84743 8.8C8.64914 8.8 8.4759 8.76749 8.32786 8.7026C8.18036 8.63769 8.06604 8.54563 7.98491 8.42641C7.90378 8.30649 7.86328 8.16469 7.86328 8.00103V7.99892C7.86328 7.83525 7.90378 7.69382 7.98491 7.5746C8.06604 7.45466 8.18036 7.36225 8.32786 7.29735C8.4759 7.23245 8.64914 7.2 8.84743 7.2C9.04707 7.2 9.22058 7.23245 9.36794 7.29735C9.51544 7.36225 9.62976 7.45466 9.71089 7.5746C9.79202 7.69382 9.83252 7.83525 9.83252 7.99892V8.00103C9.83252 8.16469 9.79202 8.30649 9.71089 8.42641C9.62976 8.54563 9.51544 8.63769 9.36794 8.7026C9.22058 8.76749 9.04707 8.8 8.84743 8.8ZM8.84743 8.40102C8.93763 8.40102 9.01592 8.38479 9.08229 8.35234C9.14933 8.3199 9.2008 8.27368 9.23683 8.21372C9.2734 8.15376 9.29182 8.08287 9.29182 8.00103V7.99892C9.29182 7.91708 9.2734 7.84654 9.23683 7.78729C9.2008 7.72733 9.14933 7.68111 9.08229 7.64866C9.01592 7.6155 8.93763 7.59892 8.84743 7.59892C8.75776 7.59892 8.67947 7.6155 8.61243 7.64866C8.5462 7.68111 8.49459 7.72733 8.45802 7.78729C8.42199 7.84654 8.40398 7.91708 8.40398 7.99892V8.00103C8.40398 8.08287 8.42199 8.15376 8.45802 8.21372C8.49459 8.27368 8.5462 8.3199 8.61243 8.35234C8.67947 8.38479 8.75776 8.40102 8.84743 8.40102Z" fill="white"/>
<path d="M10.0322 8.8V7.2H10.4958L11.5691 8.27996L11.1013 8.05045H11.343V7.2H11.8729V8.8H11.4128L10.3372 7.70556L10.8052 7.93847H10.5623V8.8H10.0322Z" fill="white"/>
</svg>
