<svg width="16" height="16" viewBox="0 0 16 16" fill="none" xmlns="http://www.w3.org/2000/svg">
<rect x="1" y="4" width="14" height="10" rx="3" fill="black"/>
<path d="M5.09961 9.12015C5.09961 9.97782 5.34751 10.9238 5.76638 11.659C5.83762 11.7815 5.97154 11.8157 6.09976 11.7445C6.21944 11.6789 6.25363 11.545 6.17955 11.4111C5.79772 10.7158 5.58402 9.88664 5.58402 9.12015C5.58402 7.5387 6.54997 6.48441 8.00034 6.48441C9.44785 6.48441 10.4167 7.5387 10.4167 9.12015C10.4167 9.88664 10.2001 10.7158 9.81829 11.4111C9.74421 11.545 9.77841 11.6789 9.89807 11.7445C10.0263 11.8157 10.1631 11.7815 10.2315 11.659C10.6503 10.9238 10.9011 9.97782 10.9011 9.12015C10.9011 7.24521 9.74421 6 8.00034 6C6.25363 6 5.09961 7.24521 5.09961 9.12015ZM5.99148 11.5878C6.08552 11.9154 6.36476 12.0665 6.6953 11.9724C7.02298 11.8784 7.17685 11.5934 7.07997 11.2658L6.6725 9.87523C6.57847 9.55041 6.29923 9.39653 5.96869 9.49057C5.641 9.58744 5.48713 9.86954 5.58402 10.2001L5.99148 11.5878ZM10.0063 11.5878L10.4138 10.2001C10.5107 9.86671 10.3597 9.58744 10.0291 9.49057C9.6986 9.39653 9.42223 9.55041 9.32533 9.87523L8.91785 11.2658C8.82098 11.5963 8.97484 11.8784 9.30254 11.9724C9.63593 12.0665 9.91231 11.9154 10.0063 11.5878Z" fill="white"/>
</svg>
