<svg width="16" height="16" viewBox="0 0 16 16" fill="none" xmlns="http://www.w3.org/2000/svg">
<rect x="1" y="4" width="14" height="10" rx="3" fill="#331F00"/>
<path fill-rule="evenodd" clip-rule="evenodd" d="M10.4249 8.93326C9.76835 9.41821 8.81441 9.67566 7.99418 9.67566C6.84466 9.67566 5.8089 9.25058 5.02658 8.5441C4.96472 8.48822 5.0206 8.41238 5.09444 8.45629C5.94061 8.94723 6.98436 9.24459 8.06403 9.24459C8.79246 9.24459 9.59273 9.09292 10.3291 8.78159C10.4389 8.73169 10.5327 8.85343 10.4249 8.93326Z" fill="#FF9900"/>
<path fill-rule="evenodd" clip-rule="evenodd" d="M10.6975 8.62192C10.6137 8.51415 10.1427 8.57003 9.92915 8.59597C9.86529 8.60395 9.85531 8.54807 9.91318 8.50616C10.2884 8.24273 10.905 8.31857 10.9769 8.40638C11.0487 8.49619 10.9569 9.11286 10.6057 9.40822C10.5518 9.45412 10.4999 9.43017 10.5239 9.3703C10.6037 9.17273 10.7813 8.72769 10.6975 8.62192Z" fill="#FF9900"/>
</svg>
