<svg width="16" height="16" viewBox="0 0 16 16" fill="none" xmlns="http://www.w3.org/2000/svg">
<rect x="1" y="4" width="14" height="10" rx="3" fill="#002133"/>
<g clip-path="url(#clip0_129_2776)">
<path fill-rule="evenodd" clip-rule="evenodd" d="M10.5258 8.26601C10.6001 8.62718 10.593 8.98353 10.5317 9.32553C10.4697 9.6693 10.3449 9.99871 10.1636 10.2973C10.092 10.4158 10.0127 10.5295 9.9262 10.6376C9.83945 10.7454 9.74557 10.8473 9.64519 10.9425C9.34828 11.2233 8.98859 11.4469 8.57119 11.5739C8.24088 11.6776 7.90642 11.7164 7.58038 11.6946C7.24025 11.6715 6.90734 11.5855 6.59855 11.441L6.56861 11.4983C6.87626 11.6739 7.21381 11.7908 7.56411 11.8432C7.91032 11.8957 8.27075 11.885 8.63298 11.8046C9.10296 11.6948 9.52148 11.4797 9.86391 11.1848C9.9819 11.0829 10.0907 10.9709 10.1891 10.85C10.2875 10.729 10.375 10.5995 10.4504 10.4629C10.6364 10.1255 10.7551 9.74974 10.7887 9.35962C10.8206 8.98898 10.775 8.60733 10.6505 8.23261L10.5258 8.26601ZM5.77816 10.7658C5.64145 10.616 5.51923 10.4503 5.41785 10.2687C5.31906 10.0916 5.24032 9.90054 5.18168 9.69797C5.15914 9.59831 5.14249 9.49742 5.13183 9.3958C5.09063 8.98353 5.15737 8.58314 5.28844 8.21015C5.35877 8.01005 5.45236 7.82077 5.55956 7.63923C5.70183 7.39799 5.87088 7.1724 6.07556 6.97706C6.37661 6.68999 6.74187 6.46118 7.16626 6.33036C7.51172 6.22397 7.8617 6.18481 8.20123 6.2163C8.43708 6.23801 8.66836 6.28947 8.88535 6.37558C9.13079 6.47306 9.35694 6.61465 9.56051 6.78259C9.76073 6.94774 9.9351 7.14444 10.0819 7.36329C10.1012 7.39224 10.1141 7.42539 10.1381 7.45075C10.1566 7.46993 10.1779 7.47753 10.1996 7.49312L10.2874 7.43733C10.2821 7.4098 10.2824 7.38642 10.271 7.361C10.2558 7.3276 10.2272 7.30248 10.2045 7.27397C9.96473 6.9723 9.66851 6.7276 9.33789 6.54333C9.19698 6.46477 9.0497 6.39846 8.8989 6.34106C8.73232 6.27753 8.56098 6.2252 8.38482 6.18846C7.98232 6.10459 7.55737 6.09791 7.1302 6.19576C6.66715 6.30178 6.2542 6.51116 5.91597 6.80009C5.68073 7.00125 5.47791 7.23828 5.3271 7.50506C5.21391 7.70529 5.13102 7.92252 5.07597 8.147C4.97694 8.55129 4.97613 8.97908 5.06533 9.40601C5.08649 9.50708 5.1111 9.60778 5.14284 9.70842C5.19365 9.91252 5.26647 10.1105 5.36001 10.2989C5.45318 10.489 5.56691 10.6682 5.69917 10.8335L5.77816 10.7658Z" fill="#0090DD"/>
<path d="M10.036 7.72664C10.0012 7.95538 10.1607 8.17243 10.3894 8.20738C10.4471 8.21613 10.506 8.21277 10.5623 8.19752C10.6187 8.18227 10.6712 8.15546 10.7166 8.11881C10.7992 8.05294 10.854 7.95841 10.8701 7.854C10.9051 7.62526 10.7455 7.40821 10.5168 7.37326C10.288 7.33837 10.071 7.4979 10.036 7.72664Z" stroke="#0090DD" stroke-width="0.2" stroke-linecap="round" stroke-linejoin="round"/>
<path fill-rule="evenodd" clip-rule="evenodd" d="M9.54532 8.65645C9.54532 8.65645 9.61905 8.58773 9.71097 8.49749C9.83812 8.37168 9.9642 8.24481 10.0892 8.11689L10.0181 8.03363C10.0181 8.03363 9.76528 8.21326 9.58311 8.34786C9.47981 8.42474 9.40039 8.48691 9.40039 8.48691L9.54532 8.65645Z" fill="#0090DD"/>
<path d="M7.49885 10.6675H9.09503C9.13785 10.6675 9.17892 10.6505 9.20919 10.6202C9.23947 10.5899 9.25648 10.5488 9.25648 10.506V8.90259C9.25648 8.85978 9.23947 8.81871 9.20919 8.78844C9.17892 8.75816 9.13785 8.74115 9.09503 8.74115H6.72101C6.6782 8.74115 6.63713 8.75816 6.60686 8.78844C6.57658 8.81871 6.55957 8.85978 6.55957 8.90259V9.85041" stroke="#0090DD" stroke-width="0.2"/>
<path d="M7.1377 8.74115V7.97061C7.1377 7.54795 7.48557 7.20007 7.90823 7.20007C8.33083 7.20007 8.67877 7.54795 8.67877 7.97061V8.74115" stroke="#0090DD" stroke-width="0.2" stroke-linecap="round" stroke-linejoin="round"/>
<path d="M7.01071 10.9384C7.02497 10.83 7.0119 10.7198 6.97267 10.6177C6.88836 10.3975 6.68845 10.2279 6.4401 10.1952C6.07985 10.148 5.74434 10.4055 5.69702 10.7659C5.64964 11.1262 5.90733 11.4617 6.26758 11.509C6.62789 11.5564 6.9634 11.2987 7.01071 10.9384Z" stroke="#0090DD" stroke-width="0.2" stroke-linecap="round" stroke-linejoin="round"/>
<path fill-rule="evenodd" clip-rule="evenodd" d="M7.73132 9.62683C7.73132 9.62683 7.32468 9.86924 7.03266 10.0578C6.86726 10.1645 6.74219 10.2542 6.74219 10.2542L7.00149 10.5855C7.00149 10.5855 7.11808 10.4853 7.26165 10.3505C7.51483 10.1124 7.84848 9.77615 7.84848 9.77615L7.73132 9.62683Z" fill="#0090DD"/>
</g>
<defs>
<clipPath id="clip0_129_2776">
<rect width="6" height="5.75258" fill="white" transform="translate(5 6.12372)"/>
</clipPath>
</defs>
</svg>
