<svg width="16" height="16" viewBox="0 0 16 16" fill="none" xmlns="http://www.w3.org/2000/svg">
<rect x="1" y="4" width="14" height="10" rx="3" fill="black"/>
<path d="M5 7.8643L5.21862 7.88049C5.44534 7.62408 5.53441 6.86564 6.87045 7.01409C6.82186 10.2638 5.39676 10.6065 5.48583 11.2732C5.51822 11.6511 5.81781 11.8832 6.1417 11.8967C7.16464 11.8616 7.11876 10.4824 7.43725 7.006H8.75708C8.68691 8.23137 8.49528 9.45674 8.47368 10.6578C8.48988 11.4567 8.97571 11.8832 9.61538 11.8886C10.668 11.9237 11 10.6956 11 10.172H10.7733C10.7517 10.6038 10.5439 10.9142 10.1012 10.9331C8.89474 10.9493 9.5587 8.81166 9.5668 7.02219L11 7.03029L10.9919 6.11531C5.03498 6.08645 5.79108 5.96967 5 7.8643Z" fill="white"/>
</svg>
