<svg width="16" height="16" viewBox="0 0 16 16" fill="none" xmlns="http://www.w3.org/2000/svg">
<rect x="1" y="4" width="14" height="10" rx="3" fill="#001E36"/>
<path d="M5.10873 10.25C4.79891 10.25 4.53162 10.1992 4.30686 10.0978C4.08296 9.99519 3.91048 9.85086 3.78921 9.66463C3.66795 9.47839 3.60742 9.25681 3.60742 8.99989V8.99672C3.60742 8.74086 3.66795 8.51991 3.78921 8.33368C3.91048 8.14744 4.08296 8.00353 4.30686 7.90216C4.53162 7.80079 4.79891 7.75 5.10873 7.75C5.37539 7.75 5.61411 7.79254 5.82447 7.8774C6.0361 7.96121 6.20646 8.08014 6.33556 8.23442C6.46444 8.38765 6.54042 8.56838 6.5637 8.77683L6.56687 8.80646H5.75188L5.7485 8.78996C5.72754 8.70192 5.68797 8.62679 5.62956 8.5652C5.57221 8.5034 5.49941 8.456 5.41116 8.42299C5.32312 8.38997 5.22386 8.37325 5.1136 8.37325C4.97583 8.37325 4.85732 8.39865 4.75806 8.44944C4.66008 8.50002 4.58452 8.5724 4.53162 8.66594C4.47871 8.75863 4.45225 8.86889 4.45225 8.99672V8.99989C4.45225 9.12793 4.47871 9.23861 4.53162 9.33236C4.58452 9.42591 4.6605 9.49829 4.75975 9.54887C4.85901 9.59966 4.97752 9.62484 5.11529 9.62484C5.2245 9.62484 5.32248 9.60897 5.40967 9.57701C5.49665 9.544 5.56946 9.49659 5.62787 9.4348C5.68628 9.37194 5.72649 9.29639 5.7485 9.20835L5.75188 9.19015H6.56687L6.56518 9.2166C6.54105 9.42718 6.46444 9.6096 6.33556 9.76388C6.20646 9.91816 6.03674 10.0377 5.82616 10.1226C5.61686 10.2075 5.37772 10.25 5.10873 10.25Z" fill="#31A8FF"/>
<path d="M8.17113 10.25C7.89353 10.25 7.65448 10.2204 7.454 10.161C7.25349 10.1013 7.09543 10.0144 6.97976 9.89975C6.86408 9.78405 6.79414 9.64361 6.7699 9.47843L6.7666 9.45368H7.5647L7.568 9.4651C7.57902 9.51248 7.60931 9.5533 7.65888 9.58756C7.70956 9.62056 7.7784 9.64636 7.86544 9.66519C7.95245 9.68274 8.05821 9.69163 8.1827 9.69163C8.28073 9.69163 8.36502 9.68338 8.43551 9.66688C8.50711 9.64911 8.56218 9.62437 8.60074 9.59243C8.6393 9.56049 8.65859 9.52369 8.65859 9.48181V9.48012C8.65859 9.42724 8.6349 9.38875 8.58752 9.36442C8.54016 9.3401 8.45755 9.32149 8.33968 9.30816L7.7316 9.26354C7.42094 9.23393 7.19126 9.16053 7.04255 9.04378C6.89492 8.92597 6.82113 8.7629 6.82113 8.55478V8.5514C6.82113 8.38409 6.8718 8.24069 6.97314 8.12183C7.07559 8.00169 7.22155 7.90969 7.41102 7.84581C7.60051 7.78194 7.82633 7.75 8.08851 7.75C8.3518 7.75 8.57707 7.78025 8.76434 7.84095C8.95271 7.90038 9.10142 7.98625 9.21049 8.09877C9.31954 8.21108 9.38729 8.34602 9.41373 8.5036L9.41868 8.53003H8.62885L8.62553 8.51671C8.61341 8.47039 8.58532 8.43253 8.54126 8.40271C8.49831 8.37183 8.43991 8.34877 8.36612 8.33333C8.2923 8.31684 8.20362 8.30859 8.10008 8.30859C7.99763 8.30859 7.91279 8.3162 7.8456 8.33164C7.7784 8.34602 7.72773 8.36739 7.69359 8.39615C7.65943 8.42365 7.64236 8.45664 7.64236 8.49535V8.49683C7.64236 8.5497 7.6677 8.58947 7.71838 8.6159C7.77016 8.64234 7.85552 8.66159 7.97449 8.67365L8.59414 8.71997C8.79353 8.73985 8.95876 8.77771 9.08985 8.83397C9.22094 8.88917 9.31844 8.9651 9.38232 9.06197C9.44731 9.15778 9.47982 9.2758 9.47982 9.41561V9.4173C9.47982 9.58904 9.42805 9.73794 9.32449 9.86337C9.22094 9.98795 9.07168 10.0838 8.87669 10.151C8.68172 10.217 8.44653 10.25 8.17113 10.25Z" fill="#31A8FF"/>
<path d="M11.0842 10.25C10.8066 10.25 10.5676 10.2204 10.3671 10.161C10.1666 10.1013 10.0085 10.0144 9.89284 9.89975C9.77717 9.78405 9.70723 9.64361 9.68299 9.47843L9.67969 9.45368H10.4778L10.4811 9.4651C10.4921 9.51248 10.5224 9.5533 10.572 9.58756C10.6226 9.62056 10.6915 9.64636 10.7785 9.66519C10.8655 9.68274 10.9713 9.69163 11.0958 9.69163C11.1938 9.69163 11.2781 9.68338 11.3486 9.66688C11.4202 9.64911 11.4753 9.62437 11.5138 9.59243C11.5524 9.56049 11.5717 9.52369 11.5717 9.48181V9.48012C11.5717 9.42724 11.548 9.38875 11.5006 9.36442C11.4533 9.3401 11.3706 9.32149 11.2528 9.30816L10.6447 9.26354C10.334 9.23393 10.1043 9.16053 9.95564 9.04378C9.80801 8.92597 9.73421 8.7629 9.73421 8.55478V8.5514C9.73421 8.38409 9.78489 8.24069 9.88622 8.12183C9.98868 8.00169 10.1346 7.90969 10.3241 7.84581C10.5136 7.78194 10.7394 7.75 11.0016 7.75C11.2649 7.75 11.4902 7.78025 11.6774 7.84095C11.8658 7.90038 12.0145 7.98625 12.1236 8.09877C12.2326 8.21108 12.3004 8.34602 12.3268 8.5036L12.3318 8.53003H11.5419L11.5386 8.51671C11.5265 8.47039 11.4984 8.43253 11.4543 8.40271C11.4114 8.37183 11.353 8.34877 11.2792 8.33333C11.2054 8.31684 11.1167 8.30859 11.0132 8.30859C10.9107 8.30859 10.8259 8.3162 10.7587 8.33164C10.6915 8.34602 10.6408 8.36739 10.6067 8.39615C10.5725 8.42365 10.5554 8.45664 10.5554 8.49535V8.49683C10.5554 8.5497 10.5808 8.58947 10.6315 8.6159C10.6832 8.64234 10.7686 8.66159 10.8876 8.67365L11.5072 8.71997C11.7066 8.73985 11.8718 8.77771 12.0029 8.83397C12.134 8.88917 12.2315 8.9651 12.2954 9.06197C12.3604 9.15778 12.3929 9.2758 12.3929 9.41561V9.4173C12.3929 9.58904 12.3411 9.73794 12.2376 9.86337C12.134 9.98795 11.9848 10.0838 11.7898 10.151C11.5948 10.217 11.3596 10.25 11.0842 10.25Z" fill="#31A8FF"/>
</svg>
