<svg width="16" height="16" viewBox="0 0 16 16" fill="none" xmlns="http://www.w3.org/2000/svg">
<rect x="1" y="4" width="14" height="10" rx="3" fill="#001F33"/>
<g clip-path="url(#clip0_129_2652)">
<path d="M6.25788 7.93551L7.99981 8.7097M7.99981 8.7097V10.5484M7.99981 8.7097L9.74175 7.93551M8.14782 6.25482L10.5672 7.25593C10.7119 7.31581 10.8063 7.45699 10.8063 7.61361V10.2977C10.8063 10.4503 10.7167 10.5886 10.5775 10.651L8.15815 11.7355C8.05743 11.7807 7.94219 11.7807 7.84147 11.7355L5.42211 10.651C5.28293 10.5886 5.19336 10.4503 5.19336 10.2977V7.61361C5.19336 7.45699 5.28773 7.31581 5.43245 7.25593L7.8518 6.25482C7.94659 6.2156 8.05304 6.2156 8.14782 6.25482Z" stroke="#0097FB" stroke-width="0.4" stroke-linecap="round"/>
</g>
<defs>
<clipPath id="clip0_129_2652">
<rect width="6" height="6" fill="white" transform="translate(5 6)"/>
</clipPath>
</defs>
</svg>
