<svg width="16" height="16" viewBox="0 0 16 16" fill="none" xmlns="http://www.w3.org/2000/svg">
<rect x="1" y="4" width="14" height="10" rx="3" fill="black"/>
<path d="M11 9C11 10.6529 9.65588 12 8 12C6.34706 12 5 10.6529 5 9C5 7.34412 6.34706 6 8 6C9.65588 6 11 7.34412 11 9ZM7.76176 7.70588V9.40588L7.77941 9.86177L7.60294 9.67354L7.14118 9.1853C7.1 9.1353 7.03235 9.11175 6.97353 9.11175C6.84706 9.11175 6.75588 9.2 6.75588 9.32354C6.75588 9.38823 6.77941 9.44118 6.82647 9.4853L7.82647 10.45C7.88823 10.5118 7.94117 10.5294 8.00294 10.5294C8.06471 10.5294 8.11765 10.5118 8.1794 10.45L9.17647 9.4853C9.22646 9.44118 9.24999 9.38823 9.24999 9.32354C9.24999 9.2 9.15587 9.11175 9.0294 9.11175C8.97059 9.11175 8.90589 9.1353 8.86469 9.1853L8.40293 9.67354L8.22647 9.86177L8.24704 9.40588V7.70588C8.24704 7.57647 8.1353 7.47059 8.00294 7.47059C7.87058 7.47059 7.76176 7.57647 7.76176 7.70588Z" fill="white"/>
</svg>
