<svg width="16" height="16" viewBox="0 0 16 16" fill="none" xmlns="http://www.w3.org/2000/svg">
<rect x="1" y="4" width="14" height="10" rx="3" fill="black"/>
<path d="M10.0736 7.64653C9.82271 7.64653 9.59542 7.7463 9.42852 7.90814L8.36971 7.14995C8.38976 7.06637 8.38018 6.97843 8.3426 6.90113C8.30502 6.82383 8.24178 6.76197 8.16367 6.72611C8.08557 6.69025 7.99743 6.68261 7.91432 6.7045C7.8312 6.72638 7.75826 6.77644 7.70794 6.84611C7.65763 6.91579 7.63305 7.00078 7.63842 7.08656C7.64379 7.17234 7.67876 7.25359 7.73736 7.31646C7.79597 7.37933 7.87458 7.4199 7.95978 7.43126C8.04497 7.44262 8.13147 7.42405 8.2045 7.37874L9.50034 8.32202C9.60161 8.11124 9.82421 7.94715 10.0736 7.94715C10.2225 7.94704 10.3666 7.99991 10.48 8.09631C10.5935 8.19271 10.6689 8.32634 10.6929 8.47328C10.7168 8.62023 10.6877 8.77089 10.6107 8.89831C10.5337 9.02573 10.4138 9.12159 10.2726 9.16873L10.3577 9.45735C10.568 9.38937 10.747 9.24862 10.8627 9.06041C10.9784 8.8722 11.0232 8.64888 10.989 8.43062C10.9547 8.21235 10.8437 8.01347 10.6759 7.86974C10.5081 7.72601 10.2946 7.64686 10.0736 7.64653Z" fill="white"/>
<path d="M7.09948 6.74542C7.02645 6.97438 7.0457 7.22281 7.15312 7.43779L6.11288 8.2153C6.03952 8.17105 5.95308 8.15362 5.8683 8.166C5.78353 8.17838 5.70568 8.21979 5.64804 8.28317C5.59039 8.34655 5.55653 8.42797 5.55223 8.51353C5.54792 8.59909 5.57344 8.6835 5.62443 8.75234C5.67542 8.82119 5.74873 8.8702 5.83183 8.89103C5.91493 8.91185 6.00269 8.90319 6.08011 8.86652C6.15754 8.82986 6.21985 8.76746 6.2564 8.68997C6.29295 8.61249 6.30148 8.52472 6.28053 8.44165L7.5685 7.49443C7.3986 7.33465 7.30989 7.07323 7.38509 6.83619C7.42994 6.69458 7.52373 6.57356 7.64967 6.49479C7.7756 6.41602 7.92546 6.38464 8.07242 6.40628C8.21937 6.42791 8.35383 6.50115 8.45172 6.61287C8.54961 6.72459 8.60454 6.86751 8.60668 7.01603L8.90673 7.02222C8.90545 6.80193 8.82565 6.58932 8.68168 6.42259C8.5377 6.25587 8.33898 6.14595 8.12123 6.1126C7.90347 6.07925 7.68097 6.12465 7.49369 6.24064C7.30641 6.35664 7.16663 6.53562 7.09948 6.74542Z" fill="white"/>
<path d="M5.38121 9.25275C5.57451 9.39429 5.81521 9.45527 6.05258 9.42284L6.46309 10.6493C6.44171 10.6677 6.42183 10.6883 6.40458 10.7121C6.34742 10.7912 6.324 10.8898 6.33947 10.9861C6.35494 11.0825 6.40804 11.1687 6.48709 11.226C6.65193 11.3464 6.88222 11.3113 7.00168 11.1478C7.05884 11.0687 7.08226 10.9701 7.06679 10.8738C7.05132 10.7774 6.99822 10.6911 6.91917 10.6339C6.86366 10.5933 6.79794 10.569 6.72938 10.5638L6.2358 9.0504C6.03176 9.15917 5.75684 9.15917 5.55618 9.01289C5.2777 8.80961 5.21525 8.42085 5.41685 8.14443C5.49391 8.03936 5.60211 7.96124 5.72609 7.92115C5.85007 7.88106 5.98353 7.88103 6.10753 7.92108L6.20692 7.64091C5.83673 7.51732 5.41553 7.6381 5.17493 7.96796C4.87675 8.37678 4.96902 8.95195 5.38121 9.25275Z" fill="white"/>
<path d="M10.1298 10.6943C10.0565 10.4668 9.89697 10.2771 9.68539 10.1658L10.0815 8.93542C10.137 8.93125 10.1909 8.91454 10.2391 8.88654C10.2872 8.85855 10.3284 8.82 10.3596 8.7738C10.3907 8.7276 10.411 8.67494 10.4188 8.61978C10.4267 8.56462 10.4219 8.5084 10.405 8.45534C10.3747 8.36239 10.3087 8.28528 10.2215 8.24097C10.1344 8.19666 10.0332 8.18878 9.94025 8.21905C9.89413 8.23381 9.85137 8.25751 9.81442 8.2888C9.77746 8.32009 9.74703 8.35835 9.72486 8.40139C9.70269 8.44444 9.68922 8.49144 9.68522 8.53969C9.68121 8.58795 9.68675 8.63652 9.70152 8.68263C9.72346 8.75014 9.7634 8.80697 9.81404 8.84953L9.31502 10.3605C9.54568 10.3912 9.76884 10.5512 9.84498 10.7862C9.89538 10.9435 9.88122 11.1144 9.80561 11.2613C9.72999 11.4082 9.59913 11.5191 9.44179 11.5695C9.31745 11.6099 9.18356 11.6103 9.05901 11.5705C8.93446 11.5308 8.82551 11.453 8.74754 11.348L8.5 11.5166C8.61463 11.6746 8.77636 11.7923 8.962 11.8527C9.14763 11.9131 9.34763 11.9132 9.5333 11.8529C10.0188 11.6961 10.2859 11.1774 10.1298 10.6943Z" fill="white"/>
<path d="M7.25653 11.6867C7.44997 11.5455 7.58065 11.3344 7.62072 11.0983L8.91487 11.0851C8.94791 11.1639 9.00725 11.2288 9.08278 11.2687C9.1583 11.3085 9.24533 11.321 9.32901 11.3039C9.41269 11.2867 9.48784 11.2411 9.54162 11.1747C9.5954 11.1084 9.62449 11.0254 9.62392 10.94C9.62335 10.8546 9.59316 10.772 9.53849 10.7064C9.48383 10.6408 9.40808 10.5961 9.32418 10.5801C9.24028 10.5641 9.15342 10.5777 9.07843 10.6186C9.00345 10.6595 8.94497 10.7252 8.913 10.8044L7.31991 10.8085C7.36248 11.0369 7.28016 11.2993 7.08006 11.4456C6.96069 11.5331 6.81406 11.5753 6.66642 11.5646C6.51878 11.5539 6.37978 11.491 6.2743 11.3871C6.16882 11.2833 6.10375 11.1452 6.09075 10.9978C6.07775 10.8503 6.11767 10.7031 6.20335 10.5823L5.96574 10.4008C5.83719 10.5788 5.77631 10.7967 5.79403 11.0155C5.81175 11.2343 5.90692 11.4396 6.06244 11.5946C6.21795 11.7495 6.42362 11.8439 6.64249 11.8608C6.86136 11.8777 7.07908 11.816 7.25653 11.6867Z" fill="white"/>
</svg>
