<svg width="16" height="16" viewBox="0 0 16 16" fill="none" xmlns="http://www.w3.org/2000/svg">
<rect x="1" y="4" width="14" height="10" rx="3" fill="black"/>
<path d="M8.02398 10.9451C8.16096 10.9451 8.23206 10.8924 8.28212 10.7449L8.62187 9.81519H10.1759L10.5156 10.7449C10.5657 10.8924 10.6342 10.9451 10.7711 10.9451C10.9107 10.9451 11.0003 10.8608 11.0003 10.7291C11.0003 10.6844 10.9924 10.6422 10.9713 10.5869L9.73601 7.29719C9.67544 7.13652 9.56745 7.05487 9.39888 7.05487C9.23557 7.05487 9.12496 7.13389 9.067 7.29455L7.8317 10.5896C7.81064 10.6448 7.80273 10.687 7.80273 10.7318C7.80273 10.8635 7.88702 10.9451 8.02398 10.9451ZM8.75093 9.41483L9.39098 7.64223H9.40414L10.0442 9.41483H8.75093Z" fill="white"/>
<path d="M5.21861 10.9451C5.3266 10.9451 5.39772 10.8898 5.43986 10.7608L5.65847 10.1155H6.68832L6.90693 10.7608C6.94907 10.8951 7.02019 10.9451 7.13081 10.9451C7.26251 10.9451 7.35206 10.8635 7.35206 10.7449C7.35206 10.6923 7.33889 10.6422 7.31782 10.5869L6.49868 8.41134C6.4381 8.25067 6.32748 8.16638 6.17208 8.16638C6.01931 8.16638 5.90869 8.2454 5.84811 8.41134L5.02897 10.5869C5.0079 10.637 5 10.6897 5 10.7449C5 10.8661 5.08428 10.9451 5.21861 10.9451ZM5.77436 9.77305L6.14311 8.67472H6.20369L6.57243 9.77305H5.77436Z" fill="white"/>
</svg>
