<svg width="16" height="16" viewBox="0 0 16 16" fill="none" xmlns="http://www.w3.org/2000/svg">
<rect x="1" y="4" width="14" height="10" rx="3" fill="black"/>
<path d="M9.09838 7.45069C8.64618 7.45069 8.27592 7.72686 8.03919 7.72686C7.7873 7.72686 7.45953 7.45069 7.06499 7.45069C6.31537 7.45069 5.55664 8.08802 5.55664 9.25344C5.55664 9.9818 5.83585 10.7496 6.18487 11.2443C6.48229 11.6632 6.74329 12 7.11962 12C7.48988 12 7.65376 11.7603 8.11507 11.7603C8.58244 11.7603 8.68866 12 9.09838 12C9.50506 12 9.77516 11.6267 10.0331 11.2595C10.3184 10.8376 10.4398 10.4279 10.4429 10.4067C10.4186 10.4006 9.64162 10.082 9.64162 9.19271C9.64162 8.42186 10.2516 8.07588 10.2881 8.04856C9.88442 7.46889 9.26835 7.45069 9.09838 7.45069ZM8.88594 6.95903C9.07107 6.73445 9.20156 6.42792 9.20156 6.11836C9.20156 6.07587 9.19855 6.03338 9.19245 6C8.88898 6.01214 8.52478 6.2003 8.3093 6.45523C8.13631 6.64947 7.9785 6.95903 7.9785 7.26859C7.9785 7.31715 7.9876 7.36267 7.99064 7.37785C8.00884 7.38088 8.03919 7.38695 8.07258 7.38695C8.34268 7.38695 8.6826 7.20486 8.88594 6.95903Z" fill="white"/>
</svg>
