<svg width="16" height="16" viewBox="0 0 16 16" fill="none" xmlns="http://www.w3.org/2000/svg">
<rect x="1" y="4" width="14" height="10" rx="3" fill="#470137"/>
<path d="M5.04733 9.80001C4.86967 9.80001 4.71668 9.78106 4.58837 9.74303C4.46005 9.70485 4.35889 9.64922 4.28486 9.57585C4.21083 9.50181 4.16606 9.41192 4.15055 9.30621L4.14844 9.29037H4.65922L4.66133 9.29768C4.66838 9.328 4.68777 9.35412 4.7195 9.37605C4.75193 9.39717 4.79599 9.41368 4.85169 9.42573C4.90738 9.43697 4.97506 9.44265 5.05474 9.44265C5.11748 9.44265 5.17142 9.43737 5.21654 9.42681C5.26236 9.41544 5.29761 9.39961 5.32229 9.37917C5.34696 9.35873 5.35931 9.33517 5.35931 9.30837V9.30729C5.35931 9.27345 5.34415 9.24881 5.31383 9.23324C5.28352 9.21768 5.23064 9.20577 5.15521 9.19724L4.76604 9.16868C4.56721 9.14972 4.42022 9.10275 4.32505 9.02803C4.23056 8.95263 4.18333 8.84827 4.18333 8.71507V8.71291C4.18333 8.60583 4.21577 8.51406 4.28062 8.43798C4.34619 8.36109 4.43961 8.30221 4.56086 8.26133C4.68214 8.22045 4.82666 8.20001 4.99446 8.20001C5.16296 8.20001 5.30714 8.21937 5.42699 8.25822C5.54755 8.29626 5.64272 8.35121 5.71253 8.42323C5.78232 8.4951 5.82568 8.58147 5.8426 8.68231L5.84577 8.69923H5.34028L5.33815 8.69071C5.33039 8.66106 5.31242 8.63683 5.28422 8.61774C5.25673 8.59798 5.21936 8.58323 5.17213 8.57335C5.12488 8.56279 5.06813 8.55751 5.00187 8.55751C4.9363 8.55751 4.882 8.56238 4.839 8.57226C4.79599 8.58147 4.76356 8.59514 4.74171 8.61355C4.71985 8.63115 4.70892 8.65226 4.70892 8.67703V8.67798C4.70892 8.71182 4.72514 8.73727 4.75757 8.75419C4.79071 8.77111 4.84534 8.78343 4.92149 8.79115L5.31806 8.82079C5.44567 8.83351 5.55142 8.85775 5.63531 8.89375C5.71921 8.92908 5.78162 8.97768 5.8225 9.03967C5.86409 9.10099 5.8849 9.17653 5.8849 9.266V9.26709C5.8849 9.377 5.85176 9.4723 5.78549 9.55257C5.71921 9.6323 5.62369 9.69362 5.49889 9.73666C5.37412 9.7789 5.22359 9.80001 5.04733 9.80001Z" fill="#FF61F6"/>
<path d="M7.0458 9.80001C6.84751 9.80001 6.67644 9.7675 6.5326 9.70263C6.3893 9.63694 6.27892 9.54456 6.20131 9.42537C6.1237 9.30618 6.08496 9.16437 6.08496 8.99994V8.99791C6.08496 8.83416 6.1237 8.69276 6.20131 8.57357C6.27892 8.45438 6.3893 8.36227 6.5326 8.2974C6.67644 8.23252 6.84751 8.20001 7.0458 8.20001C7.21646 8.20001 7.36924 8.22724 7.50387 8.28155C7.63932 8.33518 7.74835 8.41131 7.83097 8.51004C7.91345 8.60811 7.96208 8.72377 7.97698 8.85718L7.97901 8.87615H7.45741L7.45525 8.86558C7.44184 8.80924 7.41651 8.76116 7.37913 8.72174C7.34242 8.68219 7.29583 8.65185 7.23935 8.63072C7.18301 8.60959 7.11948 8.59889 7.04892 8.59889C6.96074 8.59889 6.88489 8.61515 6.82137 8.64765C6.75866 8.68002 6.71031 8.72635 6.67645 8.78621C6.64258 8.84554 6.62565 8.9161 6.62565 8.99791V8.99994C6.62565 9.08189 6.64258 9.15272 6.67645 9.21273C6.71031 9.27259 6.75893 9.31891 6.82245 9.35129C6.88598 9.38379 6.96183 9.39991 7.05 9.39991C7.11989 9.39991 7.1826 9.38975 7.2384 9.3693C7.29407 9.34817 7.34066 9.31783 7.37804 9.27828C7.41543 9.23805 7.44116 9.1897 7.45525 9.13336L7.45741 9.12171H7.97901L7.97793 9.13864C7.96248 9.2734 7.91345 9.39016 7.83097 9.4889C7.74835 9.58763 7.63972 9.66416 7.50496 9.71847C7.371 9.77279 7.21795 9.80001 7.0458 9.80001Z" fill="#FF61F6"/>
<path d="M9.07761 9.80001C8.89994 9.80001 8.74695 9.78106 8.61864 9.74303C8.49032 9.70485 8.38916 9.64922 8.31513 9.57585C8.2411 9.50181 8.19634 9.41192 8.18082 9.30621L8.17871 9.29037H8.68949L8.6916 9.29768C8.69866 9.328 8.71804 9.35412 8.74977 9.37605C8.7822 9.39717 8.82626 9.41368 8.88197 9.42573C8.93766 9.43697 9.00534 9.44265 9.08501 9.44265C9.14775 9.44265 9.2017 9.43737 9.24681 9.42681C9.29263 9.41544 9.32788 9.39961 9.35256 9.37917C9.37724 9.35873 9.38958 9.33517 9.38958 9.30837V9.30729C9.38958 9.27345 9.37442 9.24881 9.3441 9.23324C9.31379 9.21768 9.26092 9.20577 9.18548 9.19724L8.79631 9.16868C8.59749 9.14972 8.45049 9.10275 8.35532 9.02803C8.26084 8.95263 8.21361 8.84827 8.21361 8.71507V8.71291C8.21361 8.60583 8.24604 8.51406 8.31089 8.43798C8.37646 8.36109 8.46988 8.30221 8.59114 8.26133C8.71241 8.22045 8.85694 8.20001 9.02474 8.20001C9.19324 8.20001 9.33741 8.21937 9.45726 8.25822C9.57782 8.29626 9.67299 8.35121 9.7428 8.42323C9.81259 8.4951 9.85595 8.58147 9.87287 8.68231L9.87604 8.69923H9.37055L9.36842 8.69071C9.36067 8.66106 9.34269 8.63683 9.31449 8.61774C9.287 8.59798 9.24963 8.58323 9.2024 8.57335C9.15516 8.56279 9.0984 8.55751 9.03214 8.55751C8.96657 8.55751 8.91227 8.56238 8.86927 8.57226C8.82626 8.58147 8.79383 8.59514 8.77198 8.61355C8.75012 8.63115 8.7392 8.65226 8.7392 8.67703V8.67798C8.7392 8.71182 8.75542 8.73727 8.78785 8.75419C8.82099 8.77111 8.87562 8.78343 8.95176 8.79115L9.34834 8.82079C9.47594 8.83351 9.58169 8.85775 9.66559 8.89375C9.74949 8.92908 9.81189 8.97768 9.85277 9.03967C9.89437 9.10099 9.91517 9.17653 9.91517 9.266V9.26709C9.91517 9.377 9.88203 9.4723 9.81576 9.55257C9.74949 9.6323 9.65396 9.69362 9.52917 9.73666C9.40439 9.7789 9.25387 9.80001 9.07761 9.80001Z" fill="#FF61F6"/>
<path d="M11.0141 9.80001C10.8365 9.80001 10.6835 9.78106 10.5552 9.74303C10.4268 9.70485 10.3257 9.64922 10.2517 9.57585C10.1776 9.50181 10.1329 9.41192 10.1173 9.30621L10.1152 9.29037H10.626L10.6281 9.29768C10.6352 9.328 10.6546 9.35412 10.6863 9.37605C10.7187 9.39717 10.7628 9.41368 10.8185 9.42573C10.8742 9.43697 10.9419 9.44265 11.0215 9.44265C11.0843 9.44265 11.1382 9.43737 11.1833 9.42681C11.2292 9.41544 11.2644 9.39961 11.2891 9.37917C11.3138 9.35873 11.3261 9.33517 11.3261 9.30837V9.30729C11.3261 9.27345 11.3109 9.24881 11.2806 9.23324C11.2503 9.21768 11.1974 9.20577 11.122 9.19724L10.7328 9.16868C10.534 9.14972 10.387 9.10275 10.2918 9.02803C10.1974 8.95263 10.1501 8.84827 10.1501 8.71507V8.71291C10.1501 8.60583 10.1826 8.51406 10.2474 8.43798C10.313 8.36109 10.4064 8.30221 10.5277 8.26133C10.6489 8.22045 10.7935 8.20001 10.9613 8.20001C11.1298 8.20001 11.2739 8.21937 11.3938 8.25822C11.5143 8.29626 11.6095 8.35121 11.6793 8.42323C11.7491 8.4951 11.7925 8.58147 11.8094 8.68231L11.8126 8.69923H11.3071L11.3049 8.69071C11.2972 8.66106 11.2792 8.63683 11.251 8.61774C11.2235 8.59798 11.1862 8.58323 11.1389 8.57335C11.0917 8.56279 11.0349 8.55751 10.9687 8.55751C10.9031 8.55751 10.8488 8.56238 10.8058 8.57226C10.7628 8.58147 10.7304 8.59514 10.7085 8.61355C10.6866 8.63115 10.6757 8.65226 10.6757 8.67703V8.67798C10.6757 8.71182 10.6919 8.73727 10.7244 8.75419C10.7575 8.77111 10.8121 8.78343 10.8883 8.79115L11.2849 8.82079C11.4125 8.83351 11.5182 8.85775 11.6021 8.89375C11.686 8.92908 11.7484 8.97768 11.7893 9.03967C11.8309 9.10099 11.8517 9.17653 11.8517 9.266V9.26709C11.8517 9.377 11.8186 9.4723 11.7523 9.55257C11.686 9.6323 11.5905 9.69362 11.4657 9.73666C11.3409 9.7789 11.1904 9.80001 11.0141 9.80001Z" fill="#FF61F6"/>
</svg>
