<svg width="16" height="16" viewBox="0 0 16 16" fill="none" xmlns="http://www.w3.org/2000/svg">
<rect x="1" y="4" width="14" height="10" rx="3" fill="black"/>
<path d="M5.53125 9.50793C5.53125 10.5921 6.11343 10.9901 7.80056 11.9406C7.87779 11.9822 7.95205 12 7.99957 12C8.0471 12 8.12432 11.9822 8.19858 11.9406C9.88869 10.9931 10.4679 10.5921 10.4679 9.50793V7.23565C10.4679 6.92377 10.3342 6.82574 10.0817 6.71881C9.73126 6.57327 8.59958 6.16634 8.24908 6.04455C8.16888 6.01782 8.08274 6 7.99957 6C7.9164 6 7.83026 6.02376 7.75304 6.04455C7.40254 6.14554 6.26789 6.57624 5.91739 6.71881C5.66788 6.82278 5.53125 6.92377 5.53125 7.23565V9.50793ZM8.06195 11.4505V6.48713C8.0768 6.4901 8.09462 6.49604 8.11838 6.50495C8.5669 6.68317 9.4372 6.99802 9.89761 7.15545C9.97778 7.18515 9.99561 7.22673 9.99561 7.32772V9.39804C9.99561 10.3158 9.556 10.5564 8.18373 11.3911C8.13918 11.4208 8.09759 11.4416 8.06195 11.4505Z" fill="white"/>
</svg>
