<svg width="16" height="16" viewBox="0 0 16 16" fill="none" xmlns="http://www.w3.org/2000/svg">
<rect x="1" y="4" width="14" height="10" rx="3" fill="black"/>
<path d="M5.62891 11.1718C5.62891 11.7248 5.9094 12 6.46773 12H9.53185C10.0902 12 10.3707 11.7222 10.3707 11.1718V8.53784C10.3707 7.98753 10.0902 7.70971 9.53185 7.70971H6.46773C5.9094 7.70971 5.62891 7.98486 5.62891 8.53784V11.1718ZM7.99845 9.90828C7.88358 9.90828 7.78741 9.81478 7.78741 9.70259V6.98308L7.80344 6.58504L7.65384 6.74265L7.23977 7.18344C7.20237 7.22618 7.1436 7.24755 7.09284 7.24755C6.98064 7.24755 6.9005 7.16741 6.9005 7.06055C6.9005 7.00178 6.92454 6.95904 6.96461 6.91897L7.84351 6.06946C7.89961 6.01603 7.94502 6 7.99845 6C8.05455 6 8.09996 6.01603 8.15339 6.06946L9.03497 6.91897C9.07504 6.95904 9.09641 7.00178 9.09641 7.06055C9.09641 7.16741 9.01358 7.24755 8.90139 7.24755C8.85062 7.24755 8.79454 7.22618 8.75712 7.18344L8.34574 6.74265L8.19614 6.58504L8.21216 6.98308V9.70259C8.21216 9.81478 8.11332 9.90828 7.99845 9.90828Z" fill="white"/>
</svg>
