<svg width="16" height="16" viewBox="0 0 16 16" fill="none" xmlns="http://www.w3.org/2000/svg">
<rect x="2.5" y="2.5" width="11" height="11" rx="2.5" stroke="#00DC82"/>
<path d="M6.83576 9.50992L6.47368 9.14783C6.37408 9.04823 6.33892 8.9041 6.38345 8.77052C6.4186 8.66623 6.46548 8.5303 6.52172 8.37446H5.28197C5.1812 8.37446 5.08746 8.32055 5.03707 8.23267C4.98668 8.14479 4.98785 8.03698 5.03941 7.95027L5.6546 6.91324C5.80693 6.65662 6.0823 6.4996 6.37994 6.4996H7.34432C7.37244 6.45273 7.40056 6.40937 7.42868 6.36719C8.38838 4.95167 9.81795 4.9048 10.671 5.06182C10.8069 5.08643 10.9124 5.19306 10.9382 5.32899C11.0952 6.18322 11.0472 7.61162 9.63281 8.57132C9.5918 8.59944 9.54727 8.62756 9.5004 8.65568V9.62006C9.5004 9.9177 9.34338 10.1942 9.08676 10.3454L8.04973 10.9606C7.96302 11.0121 7.85521 11.0133 7.76733 10.9629C7.67945 10.9125 7.62554 10.82 7.62554 10.718V9.46187C7.46032 9.51929 7.31619 9.56616 7.20722 9.60132C7.07598 9.6435 6.93302 9.60717 6.83459 9.50992H6.83576ZM9.5004 6.96831C9.62471 6.96831 9.74393 6.91893 9.83183 6.83103C9.91973 6.74313 9.96912 6.62391 9.96912 6.4996C9.96912 6.37529 9.91973 6.25607 9.83183 6.16817C9.74393 6.08027 9.62471 6.03089 9.5004 6.03089C9.37609 6.03089 9.25687 6.08027 9.16897 6.16817C9.08107 6.25607 9.03169 6.37529 9.03169 6.4996C9.03169 6.62391 9.08107 6.74313 9.16897 6.83103C9.25687 6.91893 9.37609 6.96831 9.5004 6.96831Z" fill="#00DC82"/>
</svg>
