<svg width="16" height="16" viewBox="0 0 16 16" fill="none" xmlns="http://www.w3.org/2000/svg">
<path d="M3 13.5C2.17157 13.5 1.5 12.8284 1.5 12V4C1.5 3.17157 2.17157 2.5 3 2.5H5.67157C6.0694 2.5 6.45093 2.65803 6.73223 2.93934L7.56066 3.76777C8.0295 4.23661 8.66539 4.5 9.32843 4.5H13C13.8284 4.5 14.5 5.17157 14.5 6V12C14.5 12.8284 13.8284 13.5 13 13.5H3Z" stroke="white"/>
<path d="M6.23013 10.9858H9.50125C10.3473 10.9858 11 10.3456 11 9.52719C11 8.69623 10.3222 8.08117 9.42094 8.08368C9.08955 7.41841 8.47448 7.01422 7.72638 7.01422C6.74477 7.01422 5.92636 7.78242 5.84351 8.76903C5.34393 8.90962 5 9.3364 5 9.86861C5 10.5238 5.48954 10.9858 6.23013 10.9858Z" fill="white"/>
</svg>
