<svg width="16" height="16" viewBox="0 0 16 16" fill="none" xmlns="http://www.w3.org/2000/svg">
<path d="M3 13.5C2.17157 13.5 1.5 12.8284 1.5 12V4C1.5 3.17157 2.17157 2.5 3 2.5H5.67157C6.0694 2.5 6.45093 2.65803 6.73223 2.93934L7.56066 3.76777C8.0295 4.23661 8.66539 4.5 9.32843 4.5H13C13.8284 4.5 14.5 5.17157 14.5 6V12C14.5 12.8284 13.8284 13.5 13 13.5H3Z" stroke="#0097FB"/>
<g clip-path="url(#clip0_129_2994)">
<path d="M6.25788 7.93548L7.99981 8.70967M7.99981 8.70967V10.5484M7.99981 8.70967L9.74175 7.93548M8.14782 6.25478L10.5672 7.2559C10.7119 7.31578 10.8063 7.45696 10.8063 7.61358V10.2977C10.8063 10.4502 10.7167 10.5885 10.5775 10.6509L8.15815 11.7355C8.05743 11.7806 7.94219 11.7806 7.84147 11.7355L5.42211 10.6509C5.28293 10.5885 5.19336 10.4502 5.19336 10.2977V7.61358C5.19336 7.45696 5.28773 7.31578 5.43245 7.2559L7.8518 6.25478C7.94659 6.21557 8.05304 6.21557 8.14782 6.25478Z" stroke="#0097FB" stroke-width="0.4" stroke-linecap="round"/>
</g>
<defs>
<clipPath id="clip0_129_2994">
<rect width="6" height="6" fill="white" transform="translate(5 6)"/>
</clipPath>
</defs>
</svg>
