<svg width="16" height="16" viewBox="0 0 16 16" fill="none" xmlns="http://www.w3.org/2000/svg">
<path d="M3 13.5C2.17157 13.5 1.5 12.8284 1.5 12V4C1.5 3.17157 2.17157 2.5 3 2.5H5.67157C6.0694 2.5 6.45093 2.65803 6.73223 2.93934L7.56066 3.76777C8.0295 4.23661 8.66539 4.5 9.32843 4.5H13C13.8284 4.5 14.5 5.17157 14.5 6V12C14.5 12.8284 13.8284 13.5 13 13.5H3Z" stroke="white"/>
<path fill-rule="evenodd" clip-rule="evenodd" d="M8.00248 6.04999C6.34219 6.04999 5 7.40207 5 9.07478C5 10.4119 5.85999 11.5437 7.05301 11.9443C7.20217 11.9744 7.25681 11.8792 7.25681 11.7991C7.25681 11.729 7.25189 11.4886 7.25189 11.2382C6.41667 11.4185 6.24275 10.8776 6.24275 10.8776C6.10852 10.527 5.90964 10.4369 5.90964 10.4369C5.63628 10.2516 5.92956 10.2516 5.92956 10.2516C6.23279 10.2717 6.39191 10.5621 6.39191 10.5621C6.6603 11.0228 7.09278 10.8927 7.26677 10.8125C7.29159 10.6172 7.37118 10.482 7.45569 10.4069C6.78954 10.3368 6.08867 10.0764 6.08867 8.9145C6.08867 8.58397 6.2079 8.31356 6.39682 8.10325C6.36702 8.02815 6.2626 7.7176 6.42669 7.30195C6.42669 7.30195 6.68021 7.22181 7.25183 7.61244C7.49656 7.54623 7.74895 7.51255 8.00248 7.51226C8.256 7.51226 8.51443 7.54736 8.75307 7.61244C9.32476 7.22181 9.57827 7.30195 9.57827 7.30195C9.74237 7.7176 9.63789 8.02815 9.60808 8.10325C9.80198 8.31356 9.91629 8.58397 9.91629 8.9145C9.91629 10.0764 9.21542 10.3317 8.5443 10.4069C8.65369 10.502 8.74809 10.6823 8.74809 10.9678C8.74809 11.3734 8.74318 11.6989 8.74318 11.799C8.74318 11.8792 8.79788 11.9744 8.94697 11.9443C10.14 11.5436 11 10.4119 11 9.07478C11.0049 7.40207 9.6578 6.04999 8.00248 6.04999Z" fill="white"/>
</svg>
