<svg width="16" height="16" viewBox="0 0 16 16" fill="none" xmlns="http://www.w3.org/2000/svg">
<path d="M3 13.5C2.17157 13.5 1.5 12.8284 1.5 12V4C1.5 3.17157 2.17157 2.5 3 2.5H5.67157C6.0694 2.5 6.45093 2.65803 6.73223 2.93934L7.56066 3.76777C8.0295 4.23661 8.66539 4.5 9.32843 4.5H13C13.8284 4.5 14.5 5.17157 14.5 6V12C14.5 12.8284 13.8284 13.5 13 13.5H3Z" stroke="#FC6D26"/>
<path d="M10.8999 8.39806L10.8918 8.37649L10.0752 6.24639C10.0587 6.20457 10.0293 6.16909 9.99125 6.14509C9.96287 6.12692 9.93063 6.11566 9.89711 6.11219C9.8636 6.10873 9.82973 6.11317 9.79824 6.12515C9.76675 6.13714 9.7385 6.15633 9.71576 6.1812C9.69303 6.20607 9.67643 6.23591 9.6673 6.26835L9.1161 7.95586H6.88393L6.33272 6.26835C6.32353 6.23596 6.30689 6.20617 6.28414 6.18135C6.26139 6.15653 6.23316 6.13737 6.20169 6.1254C6.17022 6.11343 6.1364 6.10897 6.1029 6.11239C6.06941 6.11581 6.03718 6.12701 6.00878 6.14509C5.97074 6.16909 5.94133 6.20457 5.92481 6.24639L5.10859 8.37688L5.10012 8.39806C4.9826 8.70517 4.96813 9.04217 5.05887 9.35823C5.14961 9.67429 5.34064 9.95228 5.60317 10.1503L5.60625 10.1526L5.61319 10.158L6.85542 11.089L7.47173 11.5547L7.84613 11.8378C7.89006 11.871 7.94361 11.8889 7.99867 11.8889C8.05372 11.8889 8.10727 11.871 8.1512 11.8378L8.5256 11.5547L9.14191 11.089L10.393 10.1526L10.3965 10.1499C10.659 9.95197 10.85 9.67407 10.9408 9.35809C11.0317 9.0421 11.0173 8.70517 10.8999 8.39806Z" fill="#FC6D26"/>
<path d="M10.8999 8.39807L10.8918 8.3765C10.494 8.45814 10.1191 8.62677 9.79403 8.87031L8.00098 10.2262L9.14268 11.089L10.3938 10.1526L10.3972 10.1499C10.6596 9.95187 10.8505 9.67393 10.9412 9.35795C11.0319 9.04197 11.0174 8.70509 10.8999 8.39807Z" fill="#FC6D26"/>
<path d="M6.85547 11.089L7.47177 11.5547L7.84618 11.8378C7.89011 11.871 7.94366 11.8889 7.99871 11.8889C8.05376 11.8889 8.10732 11.871 8.15125 11.8378L8.52565 11.5547L9.14195 11.089L8.00025 10.2262L6.85547 11.089Z" fill="#FC6D26"/>
<path d="M6.20599 8.87029C5.88107 8.62687 5.50631 8.45837 5.10859 8.37686L5.10012 8.39805C4.9826 8.70516 4.96813 9.04215 5.05887 9.35821C5.14961 9.67428 5.34064 9.95227 5.60317 10.1503L5.60625 10.1526L5.61319 10.158L6.85542 11.089L7.9979 10.2262L6.20599 8.87029Z" fill="#FC6D26"/>
</svg>
