<svg width="16" height="16" viewBox="0 0 16 16" fill="none" xmlns="http://www.w3.org/2000/svg">
<path d="M3 13.5C2.17157 13.5 1.5 12.8284 1.5 12V4C1.5 3.17157 2.17157 2.5 3 2.5H5.67157C6.0694 2.5 6.45093 2.65803 6.73223 2.93934L7.56066 3.76777C8.0295 4.23661 8.66539 4.5 9.32843 4.5H13C13.8284 4.5 14.5 5.17157 14.5 6V12C14.5 12.8284 13.8284 13.5 13 13.5H3Z" stroke="white"/>
<path d="M8.65244 6.87224C8.65244 6.94715 8.6619 7.0199 8.68073 7.08895H7.02715C6.41767 7.08895 6.03573 7.37608 6.03573 7.82845C6.03573 8.28894 6.44476 8.60046 7.2601 8.68443L8.80411 8.84697C9.85513 8.95259 10.3996 9.43476 10.3996 10.1716C10.3996 10.8921 9.84701 11.3472 8.97206 11.3472H7.31727C7.33687 11.2765 7.34678 11.2019 7.34678 11.1251C7.34678 11.0512 7.33752 10.9793 7.31908 10.9111H8.97206C9.58155 10.9111 9.96348 10.6239 9.96348 10.1716C9.96348 9.71106 9.55173 9.39956 8.73912 9.31557L7.18967 9.15306C6.14137 9.0474 5.59961 8.56524 5.59961 7.82845C5.59961 7.10791 6.1522 6.65283 7.02715 6.65283H8.6817C8.66226 6.72273 8.65244 6.7964 8.65244 6.87224Z" fill="white"/>
<path d="M6.47477 12C6.95694 12 7.34701 11.6072 7.34701 11.1251C7.34701 10.6456 6.95694 10.2528 6.47477 10.2528C5.99261 10.2528 5.60254 10.6456 5.60254 11.1251C5.60254 11.6072 5.99261 12 6.47477 12ZM9.52488 7.74718C10.0097 7.74718 10.3998 7.3544 10.3998 6.87223C10.3998 6.39278 10.0097 6 9.52488 6C9.04543 6 8.65266 6.39278 8.65266 6.87223C8.65266 7.3544 9.04543 7.74718 9.52488 7.74718Z" fill="white"/>
</svg>
