<svg width="16" height="16" viewBox="0 0 16 16" fill="none" xmlns="http://www.w3.org/2000/svg">
<path d="M3 13.5C2.17157 13.5 1.5 12.8284 1.5 12V4C1.5 3.17157 2.17157 2.5 3 2.5H5.67157C6.0694 2.5 6.45093 2.65803 6.73223 2.93934L7.56066 3.76777C8.0295 4.23661 8.66539 4.5 9.32843 4.5H13C13.8284 4.5 14.5 5.17157 14.5 6V12C14.5 12.8284 13.8284 13.5 13 13.5H3Z" stroke="white"/>
<path d="M8 11.8353C8.81765 11.8353 9.4853 10.6265 9.4853 9.00588C9.4853 7.37647 8.82057 6.16765 8 6.16765C7.17941 6.16765 6.51471 7.37647 6.51471 9.00588C6.51471 10.6265 7.18235 11.8353 8 11.8353ZM8 6.52353C8.57647 6.52353 9.09118 7.67059 9.09118 9.00588C9.09118 10.3176 8.57647 11.4765 8 11.4765C7.42353 11.4765 6.90882 10.3176 6.90882 9.00588C6.90882 7.67059 7.42353 6.52353 8 6.52353ZM7.80882 6.20882V11.7794H8.19412V6.20882H7.80882ZM8 10.1059C7.09411 10.1059 6.29118 10.3441 5.87941 10.7235L6.17647 10.9676C6.5647 10.6588 7.19706 10.4912 8 10.4912C8.80295 10.4912 9.4353 10.6588 9.82352 10.9676L10.1206 10.7235C9.70883 10.3441 8.90589 10.1059 8 10.1059ZM10.7147 8.80588H5.28529V9.19117H10.7147V8.80588ZM8 7.90882C8.90589 7.90882 9.70883 7.67059 10.1206 7.29118L9.82352 7.04706C9.4353 7.35294 8.80295 7.52353 8 7.52353C7.19706 7.52353 6.5647 7.35294 6.17647 7.04706L5.87941 7.29118C6.29118 7.67059 7.09411 7.90882 8 7.90882ZM8 12C9.65588 12 11 10.6559 11 9C11 7.34412 9.65588 6 8 6C6.34412 6 5 7.34412 5 9C5 10.6559 6.34412 12 8 12ZM8 11.6C6.5647 11.6 5.4 10.4353 5.4 9C5.4 7.5647 6.5647 6.4 8 6.4C9.4353 6.4 10.6 7.5647 10.6 9C10.6 10.4353 9.4353 11.6 8 11.6Z" fill="white"/>
</svg>
