<svg width="16" height="16" viewBox="0 0 16 16" fill="none" xmlns="http://www.w3.org/2000/svg">
<rect x="2" y="2" width="12" height="12" rx="3" fill="#FF3366"/>
<path d="M6.83863 6.35857V9.894C6.83773 9.90739 6.832 9.92 6.82251 9.92949C6.81302 9.93898 6.80041 9.94471 6.78702 9.94562H6.11607C6.10268 9.94471 6.09007 9.93898 6.08058 9.92949C6.07109 9.92 6.06536 9.90739 6.06445 9.894V6.35857C6.09026 6.30696 6.09026 6.30696 6.14187 6.30696H6.81283L6.83863 6.35857Z" fill="black"/>
<path d="M8.82595 9.99994C8.56844 10.0009 8.31355 9.94821 8.07757 9.8451C7.86586 9.74102 7.68718 9.58022 7.56145 9.38059C7.42951 9.1447 7.36689 8.87634 7.38081 8.60641C7.37535 8.34995 7.4397 8.09682 7.56697 7.87409C7.69424 7.65137 7.87965 7.46742 8.10338 7.34192C8.37416 7.20128 8.67571 7.13033 8.98079 7.13547H9.16143V6.05161C9.16143 6.02581 9.16143 6 9.18723 6H9.884L9.9098 6.02581V9.50962C9.90562 9.57944 9.91436 9.64943 9.93561 9.71607C9.93561 9.74188 9.93561 9.76768 9.9098 9.76768C9.72899 9.84633 9.53778 9.89848 9.34207 9.92252C9.17517 9.97531 9.00099 10.0014 8.82595 9.99994ZM9.16143 9.30318V7.78062C9.13562 7.78062 9.10982 7.75481 9.0582 7.75481H8.95498C8.82218 7.75556 8.69076 7.78184 8.56789 7.83223C8.45067 7.88953 8.3522 7.97905 8.28402 8.09029C8.20473 8.22219 8.16864 8.37558 8.1808 8.52899C8.18531 8.6509 8.20261 8.77199 8.23241 8.89028C8.25228 8.98471 8.30773 9.06787 8.38725 9.12253C8.45887 9.17524 8.53691 9.2186 8.6195 9.25156C8.71144 9.28118 8.80689 9.29854 8.90337 9.30318H9.0582C9.08401 9.32898 9.13562 9.30318 9.16143 9.30318Z" fill="black"/>
</svg>
