<svg width="16" height="16" viewBox="0 0 16 16" fill="none" xmlns="http://www.w3.org/2000/svg">
<rect x="2" y="2" width="12" height="12" rx="3" fill="#FF61F6"/>
<path d="M8.21336 6.3531L7.17637 8.06413L8.28249 9.87885C8.2894 9.89267 8.29286 9.9065 8.2894 9.92033C8.28595 9.93415 8.27212 9.92378 8.25138 9.92724H7.45982C7.40451 9.92724 7.36649 9.92378 7.34229 9.88922C7.2697 9.74404 7.19366 9.60232 7.12107 9.45714C7.04848 9.31542 6.96898 9.17024 6.88602 9.02161C6.80306 8.87297 6.7201 8.72434 6.63714 8.57225H6.63023C6.55764 8.72088 6.47814 8.86952 6.39864 9.01815C6.31913 9.16679 6.23963 9.31542 6.16359 9.4606C6.08408 9.60578 6.00458 9.75441 5.92508 9.89613C5.91125 9.9307 5.8836 9.93415 5.84558 9.93415H5.08512C5.0713 9.93415 5.06093 9.94107 5.06093 9.92378C5.05747 9.90996 5.06093 9.89613 5.06784 9.88576L6.14285 8.12289L5.09549 6.34965C5.08512 6.33582 5.08167 6.32199 5.08858 6.31508C5.09549 6.30471 5.10932 6.30125 5.12315 6.30125H5.9078C5.92508 6.30125 5.94236 6.30471 5.95619 6.30817C5.97002 6.31508 5.98039 6.32545 5.99076 6.33928C6.05643 6.48791 6.13248 6.63655 6.21198 6.78518C6.29494 6.93381 6.37444 7.07899 6.46085 7.22417C6.54381 7.36935 6.61986 7.51453 6.69245 7.66316H6.69936C6.77195 7.51107 6.848 7.36243 6.92404 7.21726C7.00009 7.07208 7.07959 6.9269 7.15909 6.78172C7.23859 6.63655 7.31464 6.48791 7.39068 6.34619C7.39414 6.33236 7.40105 6.31854 7.41142 6.31162C7.42525 6.30471 7.43908 6.30125 7.45636 6.30471H8.1857C8.20299 6.30125 8.22027 6.31162 8.22373 6.32891C8.22718 6.33236 8.22027 6.34619 8.21336 6.3531Z" fill="black"/>
<path d="M9.80986 9.99984C9.55407 10.0033 9.29828 9.95145 9.06668 9.84429C8.84892 9.74405 8.66917 9.57813 8.54474 9.37419C8.41684 9.16334 8.35462 8.90064 8.35462 8.58608C8.35117 8.33029 8.41684 8.07796 8.54474 7.85674C8.67609 7.63206 8.8662 7.4454 9.09434 7.32096C9.3363 7.18616 9.62666 7.12048 9.96886 7.12048C9.98614 7.12048 10.0103 7.12048 10.0414 7.12394C10.0726 7.12739 10.1071 7.12739 10.1486 7.13085V6.03856C10.1486 6.01436 10.159 6.00054 10.1832 6.00054H10.8849C10.9021 5.99708 10.916 6.01091 10.9194 6.02473C10.9194 6.02819 10.9194 6.03165 10.9194 6.03165V9.32234C10.9194 9.38456 10.9229 9.45369 10.9263 9.52974C10.9333 9.60233 10.9367 9.67146 10.9402 9.73022C10.9402 9.75442 10.9298 9.77516 10.9056 9.78553C10.7259 9.86157 10.5357 9.91688 10.3422 9.95145C10.1659 9.98256 9.9896 9.99984 9.80986 9.99984ZM10.1486 9.30852V7.78761C10.1175 7.78069 10.0864 7.77378 10.0553 7.77032C10.0173 7.76687 9.97923 7.76341 9.94121 7.76341C9.8064 7.76341 9.67159 7.79106 9.55061 7.85328C9.43308 7.91204 9.33284 7.99846 9.2568 8.10907C9.18075 8.21968 9.14273 8.36832 9.14273 8.54806C9.13927 8.66904 9.16001 8.79002 9.20149 8.90409C9.23606 8.99742 9.28791 9.08038 9.35704 9.14951C9.42272 9.21173 9.50222 9.26012 9.59209 9.28778C9.68542 9.31889 9.7822 9.33271 9.87899 9.33271C9.93084 9.33271 9.97923 9.32926 10.0242 9.3258C10.0691 9.32926 10.1071 9.32234 10.1486 9.30852Z" fill="black"/>
</svg>
