<svg width="16" height="16" viewBox="0 0 16 16" fill="none" xmlns="http://www.w3.org/2000/svg">
<rect x="2" y="2" width="12" height="12" rx="3" fill="#FF61F6"/>
<path d="M9.88921 4.66689L9.75276 6.8096L8.44813 4L9.88921 4.66689ZM8.98558 7.43752L7.99979 8L7.01399 7.43752L7.21449 6.95161H8.78508L8.98558 7.43752ZM7.99979 5.06648L8.51634 6.32231H7.48322L7.99979 5.06648ZM6.24541 6.8096L6.11035 4.66689L7.55144 4L6.24541 6.8096Z" fill="black"/>
<path d="M7.86794 12H8.13205C8.20669 12 8.25981 11.9555 8.27702 11.8823L8.35168 11.5665C8.40765 11.5478 8.4622 11.5263 8.50957 11.5033L8.78659 11.6727C8.84833 11.7115 8.91866 11.7057 8.97032 11.6541L9.1555 11.4703C9.20718 11.4187 9.21435 11.344 9.17272 11.2823L9.00334 11.0081C9.02775 10.9579 9.04928 10.9062 9.06507 10.8545L9.38372 10.7785C9.45693 10.7612 9.5 10.7081 9.5 10.6335V10.3737C9.5 10.3005 9.45693 10.2474 9.38372 10.2301L9.06794 10.1541C9.04928 10.0952 9.02631 10.0421 9.00622 9.99761L9.17559 9.71914C9.21435 9.65598 9.21148 9.58852 9.15836 9.53541L8.97032 9.35024C8.91722 9.30143 8.85263 9.28995 8.7909 9.32871L8.50957 9.50239C8.46364 9.47799 8.41052 9.45646 8.35168 9.4378L8.27702 9.1177C8.25981 9.0445 8.20669 9 8.13205 9H7.86794C7.7933 9 7.74019 9.0445 7.72153 9.1177L7.64689 9.43493C7.59091 9.45359 7.53636 9.47512 7.48756 9.50096L7.20909 9.32871C7.14737 9.28995 7.0799 9.29856 7.02823 9.35024L6.84163 9.53541C6.78852 9.58852 6.78421 9.65598 6.8244 9.71914L6.99234 9.99761C6.97368 10.0421 6.95072 10.0952 6.93206 10.1541L6.61627 10.2301C6.54306 10.2474 6.5 10.3005 6.5 10.3737V10.6335C6.5 10.7081 6.54306 10.7612 6.61627 10.7785L6.93493 10.8545C6.95072 10.9062 6.97225 10.9579 6.99521 11.0081L6.82727 11.2823C6.78421 11.344 6.79282 11.4187 6.8445 11.4703L7.02823 11.6541C7.0799 11.7057 7.15167 11.7115 7.2134 11.6727L7.48899 11.5033C7.5378 11.5263 7.59091 11.5478 7.64689 11.5665L7.72153 11.8823C7.74019 11.9555 7.7933 12 7.86794 12ZM8 11.0067C7.72009 11.0067 7.4933 10.7799 7.4933 10.5C7.4933 10.2201 7.72009 9.9933 8 9.9933C8.2799 9.9933 8.50669 10.2201 8.50669 10.5C8.50669 10.7799 8.2799 11.0067 8 11.0067Z" fill="black"/>
</svg>
