<svg width="16" height="16" viewBox="0 0 16 16" fill="none" xmlns="http://www.w3.org/2000/svg">
<rect x="2" y="2" width="12" height="12" rx="3" fill="#FF61F6"/>
<path d="M9.88921 5.36689L9.75276 7.50959L8.44813 4.7L9.88921 5.36689ZM8.98558 8.13752L7.99979 8.7L7.01399 8.13752L7.21449 7.65161H8.78508L8.98558 8.13752ZM7.99979 5.76647L8.51634 7.02231H7.48322L7.99979 5.76647ZM6.24541 7.50959L6.11035 5.36689L7.55144 4.7L6.24541 7.50959Z" fill="black"/>
<path d="M5.04733 11.3C4.86967 11.3 4.71668 11.281 4.58837 11.243C4.46005 11.2048 4.35889 11.1492 4.28486 11.0758C4.21083 11.0018 4.16606 10.9119 4.15055 10.8062L4.14844 10.7904H4.65922L4.66133 10.7977C4.66838 10.828 4.68777 10.8541 4.7195 10.876C4.75193 10.8972 4.79599 10.9137 4.85169 10.9257C4.90738 10.937 4.97506 10.9426 5.05474 10.9426C5.11748 10.9426 5.17142 10.9374 5.21654 10.9268C5.26236 10.9154 5.29761 10.8996 5.32229 10.8792C5.34696 10.8587 5.35931 10.8352 5.35931 10.8084V10.8073C5.35931 10.7734 5.34415 10.7488 5.31383 10.7332C5.28352 10.7177 5.23064 10.7058 5.15521 10.6972L4.76604 10.6687C4.56721 10.6497 4.42022 10.6027 4.32505 10.528C4.23056 10.4526 4.18333 10.3483 4.18333 10.2151V10.2129C4.18333 10.1058 4.21577 10.014 4.28062 9.93797C4.34619 9.86108 4.43961 9.8022 4.56086 9.76132C4.68214 9.72044 4.82666 9.7 4.99446 9.7C5.16296 9.7 5.30714 9.71935 5.42699 9.7582C5.54755 9.79624 5.64272 9.8512 5.71253 9.92321C5.78232 9.99509 5.82568 10.0815 5.8426 10.1823L5.84577 10.1992H5.34028L5.33815 10.1907C5.33039 10.161 5.31242 10.1368 5.28422 10.1177C5.25673 10.098 5.21936 10.0832 5.17213 10.0733C5.12488 10.0628 5.06813 10.0575 5.00187 10.0575C4.9363 10.0575 4.882 10.0624 4.839 10.0722C4.79599 10.0815 4.76356 10.0951 4.74171 10.1135C4.71985 10.1311 4.70892 10.1522 4.70892 10.177V10.178C4.70892 10.2118 4.72514 10.2373 4.75757 10.2542C4.79071 10.2711 4.84534 10.2834 4.92149 10.2911L5.31806 10.3208C5.44567 10.3335 5.55142 10.3577 5.63531 10.3937C5.71921 10.4291 5.78162 10.4777 5.8225 10.5397C5.86409 10.601 5.8849 10.6765 5.8849 10.766V10.7671C5.8849 10.877 5.85176 10.9723 5.78549 11.0526C5.71921 11.1323 5.62369 11.1936 5.49889 11.2366C5.37412 11.2789 5.22359 11.3 5.04733 11.3Z" fill="black"/>
<path d="M7.0458 11.3C6.84751 11.3 6.67644 11.2675 6.5326 11.2026C6.3893 11.1369 6.27892 11.0445 6.20131 10.9254C6.1237 10.8062 6.08496 10.6644 6.08496 10.4999V10.4979C6.08496 10.3341 6.1237 10.1927 6.20131 10.0736C6.27892 9.95436 6.3893 9.86226 6.5326 9.79738C6.67644 9.7325 6.84751 9.7 7.0458 9.7C7.21646 9.7 7.36924 9.72722 7.50387 9.78153C7.63932 9.83517 7.74835 9.91129 7.83097 10.01C7.91345 10.1081 7.96208 10.2238 7.97698 10.3572L7.97901 10.3761H7.45742L7.45525 10.3656C7.44184 10.3092 7.41651 10.2611 7.37913 10.2217C7.34242 10.1822 7.29583 10.1518 7.23935 10.1307C7.18301 10.1096 7.11948 10.0989 7.04892 10.0989C6.96074 10.0989 6.88489 10.1151 6.82137 10.1476C6.75866 10.18 6.71031 10.2263 6.67645 10.2862C6.64258 10.3455 6.62565 10.4161 6.62565 10.4979V10.4999C6.62565 10.5819 6.64258 10.6527 6.67645 10.7127C6.71031 10.7726 6.75893 10.8189 6.82245 10.8513C6.88598 10.8838 6.96183 10.8999 7.05 10.8999C7.11989 10.8999 7.1826 10.8897 7.2384 10.8693C7.29407 10.8482 7.34066 10.8178 7.37805 10.7783C7.41543 10.738 7.44116 10.6897 7.45525 10.6333L7.45742 10.6217H7.97901L7.97793 10.6386C7.96248 10.7734 7.91345 10.8901 7.83097 10.9889C7.74835 11.0876 7.63972 11.1641 7.50496 11.2185C7.371 11.2728 7.21795 11.3 7.0458 11.3Z" fill="black"/>
<path d="M9.07761 11.3C8.89994 11.3 8.74695 11.281 8.61864 11.243C8.49032 11.2048 8.38916 11.1492 8.31513 11.0758C8.2411 11.0018 8.19634 10.9119 8.18082 10.8062L8.17871 10.7904H8.68949L8.6916 10.7977C8.69866 10.828 8.71804 10.8541 8.74977 10.876C8.7822 10.8972 8.82626 10.9137 8.88197 10.9257C8.93766 10.937 9.00534 10.9426 9.08501 10.9426C9.14775 10.9426 9.2017 10.9374 9.24681 10.9268C9.29263 10.9154 9.32788 10.8996 9.35256 10.8792C9.37724 10.8587 9.38958 10.8352 9.38958 10.8084V10.8073C9.38958 10.7734 9.37442 10.7488 9.3441 10.7332C9.31379 10.7177 9.26092 10.7058 9.18548 10.6972L8.79631 10.6687C8.59749 10.6497 8.45049 10.6027 8.35532 10.528C8.26084 10.4526 8.21361 10.3483 8.21361 10.2151V10.2129C8.21361 10.1058 8.24604 10.014 8.31089 9.93797C8.37646 9.86108 8.46988 9.8022 8.59114 9.76132C8.71241 9.72044 8.85694 9.7 9.02474 9.7C9.19324 9.7 9.33741 9.71935 9.45726 9.7582C9.57782 9.79624 9.67299 9.8512 9.7428 9.92321C9.81259 9.99509 9.85595 10.0815 9.87287 10.1823L9.87604 10.1992H9.37055L9.36842 10.1907C9.36067 10.161 9.34269 10.1368 9.31449 10.1177C9.287 10.098 9.24963 10.0832 9.2024 10.0733C9.15516 10.0628 9.0984 10.0575 9.03214 10.0575C8.96657 10.0575 8.91227 10.0624 8.86927 10.0722C8.82626 10.0815 8.79383 10.0951 8.77198 10.1135C8.75012 10.1311 8.7392 10.1522 8.7392 10.177V10.178C8.7392 10.2118 8.75542 10.2373 8.78785 10.2542C8.82099 10.2711 8.87562 10.2834 8.95176 10.2911L9.34834 10.3208C9.47594 10.3335 9.58169 10.3577 9.66559 10.3937C9.74949 10.4291 9.81189 10.4777 9.85277 10.5397C9.89437 10.601 9.91517 10.6765 9.91517 10.766V10.7671C9.91517 10.877 9.88203 10.9723 9.81576 11.0526C9.74949 11.1323 9.65396 11.1936 9.52917 11.2366C9.40439 11.2789 9.25387 11.3 9.07761 11.3Z" fill="black"/>
<path d="M11.0141 11.3C10.8365 11.3 10.6835 11.281 10.5552 11.243C10.4268 11.2048 10.3257 11.1492 10.2517 11.0758C10.1776 11.0018 10.1329 10.9119 10.1173 10.8062L10.1152 10.7904H10.626L10.6281 10.7977C10.6352 10.828 10.6546 10.8541 10.6863 10.876C10.7187 10.8972 10.7628 10.9137 10.8185 10.9257C10.8742 10.937 10.9419 10.9426 11.0215 10.9426C11.0843 10.9426 11.1382 10.9374 11.1833 10.9268C11.2292 10.9154 11.2644 10.8996 11.2891 10.8792C11.3138 10.8587 11.3261 10.8352 11.3261 10.8084V10.8073C11.3261 10.7734 11.3109 10.7488 11.2806 10.7332C11.2503 10.7177 11.1974 10.7058 11.122 10.6972L10.7328 10.6687C10.534 10.6497 10.387 10.6027 10.2918 10.528C10.1974 10.4526 10.1501 10.3483 10.1501 10.2151V10.2129C10.1501 10.1058 10.1826 10.014 10.2474 9.93797C10.313 9.86108 10.4064 9.8022 10.5277 9.76132C10.6489 9.72044 10.7935 9.7 10.9613 9.7C11.1298 9.7 11.2739 9.71935 11.3938 9.7582C11.5143 9.79624 11.6095 9.8512 11.6793 9.92321C11.7491 9.99509 11.7925 10.0815 11.8094 10.1823L11.8126 10.1992H11.3071L11.3049 10.1907C11.2972 10.161 11.2792 10.1368 11.251 10.1177C11.2235 10.098 11.1862 10.0832 11.1389 10.0733C11.0917 10.0628 11.0349 10.0575 10.9687 10.0575C10.9031 10.0575 10.8488 10.0624 10.8058 10.0722C10.7628 10.0815 10.7304 10.0951 10.7085 10.1135C10.6866 10.1311 10.6757 10.1522 10.6757 10.177V10.178C10.6757 10.2118 10.6919 10.2373 10.7244 10.2542C10.7575 10.2711 10.8121 10.2834 10.8883 10.2911L11.2849 10.3208C11.4125 10.3335 11.5182 10.3577 11.6021 10.3937C11.686 10.4291 11.7484 10.4777 11.7893 10.5397C11.8309 10.601 11.8517 10.6765 11.8517 10.766V10.7671C11.8517 10.877 11.8186 10.9723 11.7523 11.0526C11.686 11.1323 11.5905 11.1936 11.4657 11.2366C11.3409 11.2789 11.1904 11.3 11.0141 11.3Z" fill="black"/>
</svg>
