<svg width="16" height="16" viewBox="0 0 16 16" fill="none" xmlns="http://www.w3.org/2000/svg">
<rect x="2" y="2" width="12" height="12" rx="3" fill="#31A8FF"/>
<path d="M5.64636 7.0887C5.3985 7.0887 5.18467 7.04806 5.00487 6.96697C4.82574 6.88485 4.68776 6.76939 4.59075 6.6204C4.49373 6.47141 4.44531 6.29415 4.44531 6.08861V6.08607C4.44531 5.88138 4.49373 5.70463 4.59075 5.55564C4.68776 5.40665 4.82574 5.29153 5.00487 5.21043C5.18467 5.12933 5.3985 5.0887 5.64636 5.0887C5.85969 5.0887 6.05066 5.12273 6.21895 5.19062C6.38826 5.25766 6.52455 5.35282 6.62782 5.47624C6.73093 5.59882 6.79171 5.7434 6.81033 5.91017L6.81287 5.93387H6.16088L6.15817 5.92066C6.14141 5.85023 6.10975 5.79013 6.06302 5.74086C6.01714 5.69142 5.9589 5.6535 5.8883 5.62709C5.81787 5.60068 5.73846 5.5873 5.65026 5.5873C5.54004 5.5873 5.44523 5.60762 5.36582 5.64825C5.28744 5.68871 5.22699 5.74662 5.18467 5.82145C5.14234 5.89561 5.12118 5.98381 5.12118 6.08607V6.08861C5.12118 6.19104 5.14234 6.27959 5.18467 6.35459C5.22699 6.42942 5.28777 6.48733 5.36718 6.52779C5.44658 6.56842 5.54139 6.58857 5.65161 6.58857C5.73897 6.58857 5.81736 6.57587 5.88711 6.55031C5.9567 6.5239 6.01494 6.48597 6.06167 6.43654C6.1084 6.38625 6.14056 6.32581 6.15817 6.25538L6.16088 6.24082H6.81287L6.81152 6.26198C6.79222 6.43044 6.73093 6.57638 6.62782 6.6998C6.52455 6.82323 6.38876 6.91889 6.22031 6.98678C6.05286 7.05467 5.86155 7.0887 5.64636 7.0887Z" fill="black"/>
<path d="M8.13632 7.0887C7.91424 7.0887 7.723 7.06501 7.56261 7.01747C7.4022 6.96975 7.27576 6.90021 7.18322 6.8085C7.09068 6.71594 7.03473 6.60359 7.01533 6.47144L7.0127 6.45164H7.65117L7.65381 6.46078C7.66263 6.49868 7.68686 6.53134 7.72652 6.55875C7.76706 6.58515 7.82214 6.60579 7.89177 6.62085C7.96138 6.63489 8.04598 6.642 8.14557 6.642C8.224 6.642 8.29143 6.6354 8.34782 6.6222C8.4051 6.60799 8.44916 6.58819 8.48001 6.56264C8.51085 6.53709 8.52628 6.50765 8.52628 6.47415V6.4728C8.52628 6.43049 8.50733 6.3997 8.46943 6.38024C8.43155 6.36078 8.36545 6.34589 8.27116 6.33523L7.78469 6.29953C7.53616 6.27584 7.35242 6.21713 7.23346 6.12372C7.11535 6.02948 7.05632 5.89902 7.05632 5.73252V5.72982C7.05632 5.59597 7.09686 5.48125 7.17792 5.38616C7.25989 5.29005 7.37665 5.21645 7.52823 5.16535C7.67982 5.11425 7.86048 5.0887 8.07023 5.0887C8.28085 5.0887 8.46107 5.1129 8.61089 5.16146C8.76158 5.209 8.88055 5.2777 8.96781 5.36772C9.05505 5.45756 9.10925 5.56552 9.1304 5.69158L9.13436 5.71273H8.50249L8.49984 5.70207C8.49014 5.66501 8.46767 5.63472 8.43243 5.61087C8.39806 5.58616 8.35134 5.56772 8.29231 5.55537C8.23325 5.54217 8.16231 5.53557 8.07948 5.53557C7.99752 5.53557 7.92965 5.54166 7.87589 5.55401C7.82214 5.56552 7.7816 5.58261 7.75429 5.60562C7.72696 5.62762 7.7133 5.65401 7.7133 5.68498V5.68616C7.7133 5.72846 7.73358 5.76027 7.77412 5.78142C7.81554 5.80257 7.88383 5.81797 7.97901 5.82762L8.47473 5.86467C8.63424 5.88058 8.76642 5.91087 8.87129 5.95587C8.97617 6.00004 9.05417 6.06078 9.10527 6.13828C9.15726 6.21493 9.18327 6.30934 9.18327 6.42119V6.42254C9.18327 6.55993 9.14185 6.67906 9.05901 6.77939C8.97616 6.87906 8.85676 6.9557 8.70077 7.00951C8.54479 7.0623 8.35664 7.0887 8.13632 7.0887Z" fill="black"/>
<path d="M10.5074 7.0887C10.2853 7.0887 10.0941 7.06501 9.9337 7.01747C9.7733 6.96975 9.64685 6.90021 9.55431 6.8085C9.46178 6.71594 9.40582 6.60359 9.38643 6.47144L9.38379 6.45164H10.0223L10.0249 6.46078C10.0337 6.49868 10.058 6.53134 10.0976 6.55875C10.1382 6.58515 10.1932 6.60579 10.2629 6.62085C10.3325 6.63489 10.4171 6.642 10.5167 6.642C10.5951 6.642 10.6625 6.6354 10.7189 6.6222C10.7762 6.60799 10.8203 6.58819 10.8511 6.56264C10.8819 6.53709 10.8974 6.50765 10.8974 6.47415V6.4728C10.8974 6.43049 10.8784 6.3997 10.8405 6.38024C10.8026 6.36078 10.7365 6.34589 10.6423 6.33523L10.1558 6.29953C9.90726 6.27584 9.72352 6.21713 9.60455 6.12372C9.48645 6.02948 9.42741 5.89902 9.42741 5.73252V5.72982C9.42741 5.59597 9.46795 5.48125 9.54902 5.38616C9.63098 5.29005 9.74775 5.21645 9.89932 5.16535C10.0509 5.11425 10.2316 5.0887 10.4413 5.0887C10.6519 5.0887 10.8322 5.1129 10.982 5.16146C11.1327 5.209 11.2516 5.2777 11.3389 5.36772C11.4261 5.45756 11.4803 5.56552 11.5015 5.69158L11.5054 5.71273H10.8736L10.8709 5.70207C10.8612 5.66501 10.8388 5.63472 10.8035 5.61087C10.7692 5.58616 10.7224 5.56772 10.6634 5.55537C10.6043 5.54217 10.5334 5.53557 10.4506 5.53557C10.3686 5.53557 10.3007 5.54166 10.247 5.55401C10.1932 5.56552 10.1527 5.58261 10.1254 5.60562C10.0981 5.62762 10.0844 5.65401 10.0844 5.68498V5.68616C10.0844 5.72846 10.1047 5.76027 10.1452 5.78142C10.1866 5.80257 10.2549 5.81797 10.3501 5.82762L10.8458 5.86467C11.0053 5.88058 11.1375 5.91087 11.2424 5.95587C11.3473 6.00004 11.4253 6.06078 11.4764 6.13828C11.5284 6.21493 11.5544 6.30934 11.5544 6.42119V6.42254C11.5544 6.55993 11.5129 6.67906 11.4301 6.77939C11.3473 6.87906 11.2279 6.9557 11.0719 7.00951C10.9159 7.0623 10.7277 7.0887 10.5074 7.0887Z" fill="black"/>
<path d="M6.5 10.7022C6.5 10.8074 6.56058 10.868 6.66442 10.868C6.70192 10.868 6.73798 10.8565 6.78558 10.8305L7.39135 10.5031V8.11322C7.36539 8.1262 7.33654 8.14062 7.31058 8.15505L6.62692 8.54735C6.54038 8.59495 6.5 8.66418 6.5 8.76081V10.7022ZM7.58894 10.4757L8.31586 10.8839C8.3375 10.8954 8.36058 10.9055 8.38221 10.9113V8.55745L7.66971 8.12187C7.64519 8.10601 7.61635 8.09447 7.58894 8.0887V10.4757ZM8.57837 10.907C8.59279 10.9026 8.60865 10.8969 8.62163 10.8882L9.37307 10.4613C9.45962 10.4137 9.5 10.3445 9.5 10.2478V8.30504C9.5 8.19831 9.43942 8.13918 9.33557 8.13918C9.29807 8.13918 9.26202 8.15072 9.21442 8.17668L8.57837 8.53005V10.907Z" fill="black"/>
</svg>
