<svg width="16" height="16" viewBox="0 0 16 16" fill="none" xmlns="http://www.w3.org/2000/svg">
<rect x="2" y="2" width="12" height="12" rx="3" fill="#FF9A00"/>
<path d="M4.01074 8.8V7.2H4.5674V7.78646H5.38791V7.2H5.94343V8.8H5.38791V8.19906H4.5674V8.8H4.01074Z" fill="black"/>
<path d="M6.7423 8.8V7.61136H6.14355V7.2H7.89546V7.61136H7.29782V8.8H6.7423Z" fill="black"/>
<path d="M8.0957 8.8V7.2H8.75214L9.22007 8.22446H9.23227L9.69909 7.2H10.3555V8.8H9.85322V7.85303H9.64698L9.98296 7.50487L9.40302 8.8H9.0482L8.46827 7.50487L8.80426 7.85303H8.59801V8.8H8.0957Z" fill="black"/>
<path d="M10.5547 8.8V7.2H11.1113V8.38967H11.9884V8.8H10.5547Z" fill="black"/>
</svg>
