<svg width="16" height="16" viewBox="0 0 16 16" fill="none" xmlns="http://www.w3.org/2000/svg">
<rect x="2" y="2" width="12" height="12" rx="3" fill="#F0DB4F"/>
<path d="M6.13038 7.5887C5.90693 7.5887 5.70322 7.56168 5.51927 7.50763C5.33531 7.45203 5.17629 7.37174 5.04222 7.26599C4.9097 7.1592 4.80681 7.02851 4.7338 6.87417C4.66052 6.72009 4.62337 6.54418 4.62207 6.34645V6.33632H5.59851L5.60059 6.34437C5.60319 6.44727 5.62632 6.53457 5.66945 6.60628C5.71414 6.67799 5.77494 6.73282 5.85211 6.77075C5.92927 6.80739 6.01788 6.82558 6.11817 6.82558C6.27641 6.82558 6.39697 6.78349 6.47934 6.69982C6.56326 6.6159 6.60535 6.49663 6.60535 6.34255V4.5887H7.62233V6.35269C7.62233 6.60706 7.56491 6.82688 7.4498 7.0124C7.3347 7.19636 7.16633 7.33849 6.94417 7.43852C6.72228 7.53882 6.45101 7.5887 6.13038 7.5887Z" fill="black"/>
<path d="M9.8075 7.5887C9.47438 7.5887 9.18753 7.55317 8.94694 7.48185C8.70633 7.41028 8.51666 7.30596 8.37786 7.1684C8.23905 7.02956 8.15512 6.86104 8.12603 6.66281L8.12207 6.63312H9.07979L9.08375 6.64682C9.09697 6.70367 9.13331 6.75266 9.19281 6.79378C9.25362 6.83337 9.33623 6.86434 9.44068 6.88692C9.54509 6.90799 9.672 6.91865 9.82139 6.91865C9.93903 6.91865 10.0402 6.90875 10.1248 6.88895C10.2107 6.86763 10.2768 6.83794 10.323 6.79961C10.3693 6.76129 10.3925 6.71713 10.3925 6.66687V6.66484C10.3925 6.60139 10.364 6.5552 10.3072 6.52601C10.2503 6.49682 10.1512 6.47449 10.0098 6.4585L9.28007 6.40494C8.90727 6.36941 8.63166 6.28134 8.45321 6.14124C8.27605 5.99987 8.1875 5.80418 8.1875 5.55444V5.55037C8.1875 5.34961 8.24831 5.17753 8.36991 5.03489C8.49286 4.89073 8.66801 4.78032 8.89537 4.70367C9.12276 4.62702 9.39375 4.5887 9.70837 4.5887C10.0243 4.5887 10.2946 4.62499 10.5194 4.69784C10.7454 4.76916 10.9238 4.8722 11.0547 5.00723C11.1856 5.142 11.2669 5.30393 11.2986 5.49301L11.3046 5.52474H10.3568L10.3528 5.50875C10.3382 5.45317 10.3045 5.40774 10.2517 5.37195C10.2001 5.33489 10.13 5.30723 10.0415 5.2887C9.95291 5.2689 9.84649 5.259 9.72225 5.259C9.5993 5.259 9.4975 5.26814 9.41687 5.28667C9.33623 5.30393 9.27542 5.32956 9.23446 5.36408C9.19347 5.39708 9.17298 5.43667 9.17298 5.48311V5.48489C9.17298 5.54834 9.20339 5.59606 9.2642 5.62778C9.32634 5.65951 9.42877 5.68261 9.57154 5.69707L10.3151 5.75266C10.5544 5.77652 10.7527 5.82195 10.91 5.88946C11.0673 5.95571 11.1843 6.04682 11.2609 6.16306C11.3389 6.27804 11.3779 6.41967 11.3779 6.58743V6.58946C11.3779 6.79555 11.3158 6.97423 11.1915 7.12474C11.0673 7.27423 10.8882 7.38921 10.6542 7.46992C10.4202 7.5491 10.138 7.5887 9.8075 7.5887Z" fill="black"/>
<path d="M6.5 11.2022C6.5 11.3074 6.56058 11.368 6.66442 11.368C6.70192 11.368 6.73798 11.3565 6.78558 11.3305L7.39135 11.0031V8.61322C7.36539 8.6262 7.33654 8.64062 7.31058 8.65505L6.62692 9.04735C6.54038 9.09495 6.5 9.16418 6.5 9.26081V11.2022ZM7.58894 10.9757L8.31586 11.3839C8.3375 11.3954 8.36058 11.4055 8.38221 11.4113V9.05745L7.66971 8.62187C7.64519 8.60601 7.61635 8.59447 7.58894 8.5887V10.9757ZM8.57837 11.407C8.59279 11.4026 8.60865 11.3969 8.62163 11.3882L9.37307 10.9613C9.45962 10.9137 9.5 10.8445 9.5 10.7478V8.80504C9.5 8.69831 9.43942 8.63918 9.33557 8.63918C9.29807 8.63918 9.26202 8.65072 9.21442 8.67668L8.57837 9.03005V11.407Z" fill="black"/>
</svg>
