<svg width="16" height="16" viewBox="0 0 16 16" fill="none" xmlns="http://www.w3.org/2000/svg">
<rect x="2" y="2" width="12" height="12" rx="3" fill="#31A8FF"/>
<path d="M4.48242 8.8V7.2H5.03907V8.38967H5.91616V8.8H4.48242Z" fill="black"/>
<path d="M6.11621 8.8V7.2H7.64526V7.58919H6.67283V7.82203H7.57651V8.16798H6.67283V8.4108H7.64526V8.8H6.11621Z" fill="black"/>
<path d="M8.74362 8.8C8.56596 8.8 8.41297 8.78105 8.28466 8.74301C8.15633 8.70484 8.05518 8.6492 7.98115 8.57583C7.90712 8.50179 7.86235 8.41191 7.84684 8.30619L7.84473 8.29035H8.35551L8.35762 8.29766C8.36467 8.32798 8.38406 8.35411 8.41579 8.37604C8.44822 8.39715 8.49228 8.41367 8.54798 8.42572C8.60367 8.43695 8.67135 8.44264 8.75103 8.44264C8.81377 8.44264 8.86771 8.43736 8.91283 8.4268C8.95865 8.41543 8.9939 8.39959 9.01857 8.37915C9.04325 8.35871 9.0556 8.33516 9.0556 8.30836V8.30727C9.0556 8.27343 9.04044 8.2488 9.01011 8.23323C8.97981 8.21766 8.92693 8.20575 8.8515 8.19722L8.46232 8.16866C8.2635 8.14971 8.11651 8.10274 8.02134 8.02802C7.92685 7.95262 7.87962 7.84825 7.87962 7.71506V7.71289C7.87962 7.60582 7.91206 7.51404 7.97691 7.43797C8.04248 7.36108 8.13589 7.3022 8.25715 7.26132C8.37843 7.22044 8.52295 7.2 8.69075 7.2C8.85925 7.2 9.00343 7.21935 9.12328 7.2582C9.24383 7.29624 9.33901 7.3512 9.40882 7.42321C9.47861 7.49509 9.52197 7.58145 9.53889 7.6823L9.54205 7.69922H9.03656L9.03444 7.69069C9.02668 7.66105 9.00871 7.63682 8.98051 7.61773C8.95302 7.59797 8.91564 7.58321 8.86842 7.57333C8.82117 7.56277 8.76442 7.55749 8.69816 7.55749C8.63258 7.55749 8.57829 7.56237 8.53529 7.57225C8.49228 7.58145 8.45985 7.59512 8.438 7.61353C8.41614 7.63113 8.40521 7.65225 8.40521 7.67702V7.67797C8.40521 7.71181 8.42143 7.73726 8.45386 7.75418C8.487 7.7711 8.54163 7.78341 8.61778 7.79113L9.01435 7.82078C9.14196 7.8335 9.24771 7.85773 9.3316 7.89374C9.4155 7.92907 9.4779 7.97766 9.51878 8.03966C9.56038 8.10098 9.58119 8.17651 9.58119 8.26599V8.26707C9.58119 8.37699 9.54805 8.47228 9.48178 8.55255C9.4155 8.63228 9.31998 8.6936 9.19518 8.73665C9.07041 8.77888 8.91988 8.8 8.74362 8.8Z" fill="black"/>
<path d="M10.6801 8.8C10.5025 8.8 10.3495 8.78105 10.2212 8.74301C10.0929 8.70484 9.9917 8.6492 9.91767 8.57583C9.84364 8.50179 9.79887 8.41191 9.78336 8.30619L9.78125 8.29035H10.292L10.2941 8.29766C10.3012 8.32798 10.3206 8.35411 10.3523 8.37604C10.3847 8.39715 10.4288 8.41367 10.4845 8.42572C10.5402 8.43695 10.6079 8.44264 10.6876 8.44264C10.7503 8.44264 10.8042 8.43736 10.8494 8.4268C10.8952 8.41543 10.9304 8.39959 10.9551 8.37915C10.9798 8.35871 10.9921 8.33516 10.9921 8.30836V8.30727C10.9921 8.27343 10.977 8.2488 10.9466 8.23323C10.9163 8.21766 10.8635 8.20575 10.788 8.19722L10.3988 8.16866C10.2 8.14971 10.053 8.10274 9.95786 8.02802C9.86338 7.95262 9.81615 7.84825 9.81615 7.71506V7.71289C9.81615 7.60582 9.84858 7.51404 9.91343 7.43797C9.979 7.36108 10.0724 7.3022 10.1937 7.26132C10.3149 7.22044 10.4595 7.2 10.6273 7.2C10.7958 7.2 10.94 7.21935 11.0598 7.2582C11.1804 7.29624 11.2755 7.3512 11.3453 7.42321C11.4151 7.49509 11.4585 7.58145 11.4754 7.6823L11.4786 7.69922H10.9731L10.971 7.69069C10.9632 7.66105 10.9452 7.63682 10.917 7.61773C10.8895 7.59797 10.8522 7.58321 10.8049 7.57333C10.7577 7.56277 10.7009 7.55749 10.6347 7.55749C10.5691 7.55749 10.5148 7.56237 10.4718 7.57225C10.4288 7.58145 10.3964 7.59512 10.3745 7.61353C10.3527 7.63113 10.3417 7.65225 10.3417 7.67702V7.67797C10.3417 7.71181 10.358 7.73726 10.3904 7.75418C10.4235 7.7711 10.4782 7.78341 10.5543 7.79113L10.9509 7.82078C11.0785 7.8335 11.1842 7.85773 11.2681 7.89374C11.352 7.92907 11.4144 7.97766 11.4553 8.03966C11.4969 8.10098 11.5177 8.17651 11.5177 8.26599V8.26707C11.5177 8.37699 11.4846 8.47228 11.4183 8.55255C11.352 8.63228 11.2565 8.6936 11.1317 8.73665C11.0069 8.77888 10.8564 8.8 10.6801 8.8Z" fill="black"/>
</svg>
