<svg width="16" height="16" viewBox="0 0 16 16" fill="none" xmlns="http://www.w3.org/2000/svg">
<rect x="2" y="2" width="12" height="12" rx="3" fill="#FF3E00"/>
<path fill-rule="evenodd" clip-rule="evenodd" d="M6.79599 4.78801L6.88899 7.2645C6.89042 7.30233 6.90602 7.3381 6.9327 7.36497C6.95937 7.39183 6.99517 7.40769 7.03299 7.4094L9.04629 7.49985C9.06664 7.50076 9.08697 7.49754 9.10604 7.49039C9.12511 7.48323 9.14254 7.47229 9.15727 7.45821C9.172 7.44414 9.18373 7.42723 9.19175 7.40851C9.19977 7.38978 9.20392 7.36962 9.20394 7.34925V4.65091C9.20396 4.63029 9.19975 4.60988 9.19157 4.59096C9.1834 4.57203 9.17142 4.55498 9.15639 4.54087C9.14136 4.52675 9.1236 4.51587 9.1042 4.50889C9.08479 4.50191 9.06417 4.49899 9.04359 4.50031L8.87794 4.51066L8.89009 4.85686C8.89025 4.86115 8.88917 4.8654 8.88698 4.8691C8.8848 4.8728 8.8816 4.8758 8.87777 4.87774C8.87394 4.87968 8.86963 4.88048 8.86535 4.88005C8.86108 4.87962 8.85701 4.87797 8.85364 4.87531L8.74204 4.78741L8.61004 4.88761C8.60664 4.89017 8.60258 4.89171 8.59834 4.89205C8.59409 4.89239 8.58984 4.89152 8.58607 4.88954C8.5823 4.88756 8.57917 4.88455 8.57704 4.88087C8.57491 4.87718 8.57387 4.87296 8.57404 4.86871L8.58814 4.52879L6.93759 4.63201C6.89831 4.63441 6.86152 4.65206 6.83506 4.6812C6.80861 4.71035 6.79459 4.74867 6.79599 4.78801ZM8.20399 5.65981C8.20399 5.71846 8.59939 5.69041 8.65234 5.64916C8.65234 5.24956 8.43799 5.03956 8.0453 5.03956C7.65275 5.03956 7.4327 5.25286 7.4327 5.57266C7.4327 5.8932 7.6814 6.03285 7.89275 6.1515C8.0489 6.2391 8.18449 6.3153 8.18449 6.44445C8.18449 6.52965 8.1428 6.58035 8.05085 6.58035C7.93115 6.58035 7.88375 6.51915 7.88945 6.31125C7.88945 6.26625 7.4327 6.25215 7.41875 6.31125C7.38335 6.8151 7.6973 6.96045 8.05655 6.96045C8.40454 6.96045 8.67754 6.77505 8.67754 6.43905C8.67754 6.08868 8.41464 5.94933 8.1976 5.83428L8.19754 5.83426C8.0447 5.75326 7.9145 5.68426 7.9145 5.56201C7.9145 5.44201 8.0036 5.42611 8.0564 5.42611C8.1122 5.42611 8.21239 5.43586 8.20399 5.65981Z" fill="black"/>
<g clip-path="url(#clip0_131_321)">
<path d="M9.08813 8.89693C8.80956 8.49823 8.25936 8.38005 7.86156 8.6335L7.16307 9.07878C7.06866 9.13814 6.98768 9.21655 6.9253 9.30899C6.86293 9.40144 6.82053 9.50588 6.80082 9.61565C6.7675 9.80051 6.7968 9.99121 6.88407 10.1575C6.82426 10.2483 6.78347 10.3502 6.76415 10.4571C6.74426 10.5691 6.74692 10.6839 6.77197 10.7948C6.79703 10.9057 6.84399 11.0105 6.91008 11.1031C7.18865 11.5018 7.73889 11.62 8.13663 11.3665L8.83528 10.9212C8.92966 10.8618 9.01062 10.7834 9.07297 10.691C9.13532 10.5985 9.17769 10.4941 9.19737 10.3843C9.23074 10.1995 9.20152 10.0088 9.11433 9.84242C9.1741 9.7517 9.21487 9.64981 9.23417 9.5429C9.25409 9.43094 9.25145 9.31612 9.22639 9.2052C9.20134 9.09427 9.15438 8.98946 9.08827 8.89693" fill="black"/>
<path d="M7.79384 11.1406C7.6839 11.1692 7.56783 11.1633 7.46131 11.1238C7.3548 11.0844 7.26296 11.0131 7.19821 10.9198C7.15847 10.8642 7.13024 10.8011 7.11517 10.7345C7.1001 10.6678 7.0985 10.5987 7.11046 10.5314C7.11451 10.5093 7.12008 10.4875 7.12715 10.4662L7.1403 10.426L7.17611 10.4523C7.25874 10.513 7.35114 10.5592 7.44932 10.5889L7.47528 10.5968L7.4729 10.6227C7.46974 10.6595 7.47974 10.6963 7.5011 10.7265C7.5206 10.7546 7.54827 10.7761 7.58036 10.788C7.61246 10.7999 7.64744 10.8017 7.68057 10.7931C7.69572 10.789 7.71018 10.7827 7.72342 10.7743L8.42205 10.329C8.43915 10.3182 8.45381 10.304 8.46512 10.2872C8.47642 10.2705 8.48411 10.2516 8.4877 10.2317C8.49128 10.2114 8.49079 10.1906 8.48625 10.1705C8.4817 10.1504 8.4732 10.1314 8.46124 10.1146C8.44173 10.0865 8.41407 10.065 8.38198 10.0531C8.34988 10.0412 8.31491 10.0394 8.28177 10.048C8.26661 10.052 8.25216 10.0584 8.23891 10.0668L7.97232 10.2367C7.92844 10.2646 7.88057 10.2856 7.83035 10.299C7.72041 10.3276 7.60434 10.3218 7.49782 10.2823C7.3913 10.2428 7.29947 10.1716 7.23472 10.0782C7.19497 10.0226 7.16672 9.95957 7.15165 9.89288C7.13658 9.82618 7.13498 9.75715 7.14694 9.68983C7.15881 9.62382 7.18433 9.56103 7.22186 9.50545C7.25939 9.44987 7.30811 9.40274 7.3649 9.36706L8.0636 8.9218C8.10746 8.89389 8.15534 8.87285 8.20557 8.85942C8.31551 8.83084 8.43158 8.83669 8.5381 8.87617C8.64461 8.91566 8.73645 8.98688 8.8012 9.08021C8.84095 9.13585 8.86918 9.19886 8.88426 9.26556C8.89933 9.33225 8.90093 9.40128 8.88898 9.46861C8.88489 9.4907 8.87931 9.51249 8.87226 9.53383L8.85911 9.57401L8.82332 9.54778C8.7407 9.48702 8.6483 9.44082 8.55011 9.41118L8.52413 9.4033L8.52654 9.37737C8.52968 9.34051 8.5197 9.30372 8.49836 9.2735C8.47886 9.24536 8.45119 9.22389 8.4191 9.21199C8.387 9.20009 8.35203 9.19832 8.3189 9.20694C8.30374 9.21097 8.28929 9.21729 8.27604 9.22569L7.57723 9.67105C7.56013 9.68181 7.54547 9.69601 7.53417 9.71275C7.52288 9.72949 7.5152 9.74841 7.51163 9.76828C7.50803 9.78858 7.50851 9.80939 7.51304 9.8295C7.51758 9.8496 7.52608 9.86861 7.53804 9.88539C7.55754 9.91352 7.58521 9.935 7.6173 9.94691C7.64939 9.95882 7.68437 9.9606 7.7175 9.95201C7.73266 9.94797 7.74711 9.94164 7.76036 9.93326L8.02693 9.76338C8.07079 9.73546 8.11866 9.71443 8.1689 9.70103C8.27884 9.67244 8.3949 9.67829 8.50142 9.71778C8.60793 9.75726 8.69976 9.82848 8.7645 9.92182C8.80426 9.97745 8.8325 10.0405 8.84757 10.1072C8.86264 10.1739 8.86424 10.2429 8.85228 10.3102C8.84043 10.3762 8.81494 10.439 8.77745 10.4946C8.73995 10.5502 8.69127 10.5974 8.63451 10.6331L7.93581 11.0782C7.89195 11.1061 7.84407 11.1272 7.79384 11.1406Z" fill="#FF3E00"/>
</g>
<defs>
<clipPath id="clip0_131_321">
<rect width="2.49707" height="3" fill="white" transform="translate(6.75098 8.5)"/>
</clipPath>
</defs>
</svg>
