<svg width="16" height="16" viewBox="0 0 16 16" fill="none" xmlns="http://www.w3.org/2000/svg">
<rect x="2" y="2" width="12" height="12" rx="3" fill="#31A8FF"/>
<path fill-rule="evenodd" clip-rule="evenodd" d="M6.79599 5.28801L6.88899 7.7645C6.89042 7.80233 6.90602 7.8381 6.9327 7.86497C6.95937 7.89183 6.99517 7.90769 7.03299 7.9094L9.04629 7.99985C9.06664 8.00076 9.08697 7.99754 9.10604 7.99039C9.12511 7.98323 9.14254 7.97229 9.15727 7.95821C9.172 7.94414 9.18373 7.92723 9.19175 7.90851C9.19977 7.88978 9.20392 7.86962 9.20394 7.84925V5.15091C9.20396 5.13029 9.19975 5.10988 9.19157 5.09096C9.1834 5.07203 9.17142 5.05498 9.15639 5.04087C9.14136 5.02675 9.1236 5.01587 9.1042 5.00889C9.08479 5.00191 9.06417 4.99899 9.04359 5.00031L8.87794 5.01066L8.89009 5.35686C8.89025 5.36115 8.88917 5.3654 8.88698 5.3691C8.8848 5.3728 8.8816 5.3758 8.87777 5.37774C8.87394 5.37968 8.86963 5.38048 8.86535 5.38005C8.86108 5.37962 8.85701 5.37797 8.85364 5.37531L8.74204 5.28741L8.61004 5.38761C8.60664 5.39017 8.60258 5.39171 8.59834 5.39205C8.59409 5.39239 8.58984 5.39152 8.58607 5.38954C8.5823 5.38756 8.57917 5.38455 8.57704 5.38087C8.57491 5.37718 8.57387 5.37296 8.57404 5.36871L8.58814 5.02879L6.93759 5.13201C6.89831 5.13441 6.86152 5.15206 6.83506 5.1812C6.80861 5.21035 6.79459 5.24867 6.79599 5.28801ZM8.20399 6.15981C8.20399 6.21846 8.59939 6.19041 8.65234 6.14916C8.65234 5.74956 8.43799 5.53956 8.0453 5.53956C7.65275 5.53956 7.4327 5.75286 7.4327 6.07266C7.4327 6.3932 7.6814 6.53285 7.89275 6.6515C8.0489 6.7391 8.18449 6.8153 8.18449 6.94445C8.18449 7.02965 8.1428 7.08035 8.05085 7.08035C7.93115 7.08035 7.88375 7.01915 7.88945 6.81125C7.88945 6.76625 7.4327 6.75215 7.41875 6.81125C7.38335 7.3151 7.6973 7.46045 8.05655 7.46045C8.40454 7.46045 8.67754 7.27505 8.67754 6.93905C8.67754 6.58868 8.41464 6.44933 8.1976 6.33428L8.19754 6.33426C8.0447 6.25326 7.9145 6.18426 7.9145 6.06201C7.9145 5.94201 8.0036 5.92611 8.0564 5.92611C8.1122 5.92611 8.21239 5.93586 8.20399 6.15981Z" fill="black"/>
<path d="M6.31777 11V9.5142H5.56934V9H7.75922V9.5142H7.01217V11H6.31777Z" fill="black"/>
<path d="M9.38241 11C9.16033 11 8.96909 10.9763 8.8087 10.9288C8.6483 10.8811 8.52185 10.8115 8.42931 10.7198C8.33678 10.6272 8.28082 10.5149 8.26143 10.3827L8.25879 10.3629H8.89727L8.89991 10.3721C8.90872 10.41 8.93295 10.4426 8.97261 10.4701C9.01316 10.4964 9.06823 10.5171 9.13786 10.5322C9.20747 10.5462 9.29207 10.5533 9.39167 10.5533C9.47009 10.5533 9.53752 10.5467 9.59392 10.5335C9.65119 10.5193 9.69525 10.4995 9.7261 10.4739C9.75695 10.4484 9.77238 10.419 9.77238 10.3854V10.3841C9.77238 10.3418 9.75343 10.311 9.71552 10.2915C9.67764 10.2721 9.61155 10.2572 9.51725 10.2465L9.03079 10.2108C8.78226 10.1871 8.59852 10.1284 8.47955 10.035C8.36145 9.94078 8.30241 9.81032 8.30241 9.64382V9.64112C8.30241 9.50728 8.34295 9.39255 8.42402 9.29746C8.50598 9.20135 8.62275 9.12775 8.77432 9.07665C8.92591 9.02555 9.10657 9 9.31632 9C9.52695 9 9.70717 9.0242 9.85698 9.07276C10.0077 9.1203 10.1266 9.189 10.2139 9.27902C10.3011 9.36887 10.3553 9.47682 10.3765 9.60288L10.3804 9.62403H9.74859L9.74593 9.61337C9.73623 9.57631 9.71376 9.54602 9.67852 9.52217C9.64415 9.49746 9.59744 9.47902 9.5384 9.46667C9.47935 9.45347 9.4084 9.44687 9.32557 9.44687C9.24361 9.44687 9.17574 9.45296 9.12199 9.46531C9.06823 9.47682 9.02769 9.49391 9.00038 9.51692C8.97305 9.53892 8.9594 9.56531 8.9594 9.59628V9.59746C8.9594 9.63976 8.97967 9.67157 9.02021 9.69272C9.06163 9.71387 9.12992 9.72927 9.2251 9.73892L9.72082 9.77597C9.88033 9.79188 10.0125 9.82217 10.1174 9.86717C10.2223 9.91134 10.3003 9.97208 10.3514 10.0496C10.4034 10.1262 10.4294 10.2206 10.4294 10.3325V10.3338C10.4294 10.4712 10.3879 10.5904 10.3051 10.6907C10.2223 10.7904 10.1029 10.867 9.94686 10.9208C9.79089 10.9736 9.60273 11 9.38241 11Z" fill="black"/>
</svg>
