<svg width="16" height="16" viewBox="0 0 16 16" fill="none" xmlns="http://www.w3.org/2000/svg">
<rect x="2" y="2" width="12" height="12" rx="3" fill="white"/>
<path fill-rule="evenodd" clip-rule="evenodd" d="M6.71046 5.84384L5.28203 9.08958C5.21736 9.24737 5.16188 9.45115 5.16188 9.62733C5.16188 10.4341 5.72751 11 6.53428 11C6.79786 11 7.01735 10.9307 7.24004 10.8603L7.2418 10.8598L7.24298 10.8594C7.47343 10.7865 7.70785 10.7123 7.9995 10.7123C8.2946 10.7123 8.52338 10.7858 8.74924 10.8584L8.75079 10.8589L8.75264 10.8595C8.97279 10.9301 9.19062 11 9.46472 11C10.2715 11 10.8371 10.4341 10.8371 9.62761C10.8371 9.45115 10.7816 9.24737 10.7167 9.08958L9.28854 5.84384C9.0474 5.29689 8.5838 5 7.9995 5C7.41519 5 6.9516 5.29689 6.71046 5.84384ZM6.59003 9.59973L7.9995 6.40975L9.39057 9.59973C8.99193 9.40487 8.49097 9.31204 7.9995 9.31204C7.48963 9.31204 7.00735 9.40487 6.59003 9.59973Z" fill="black"/>
</svg>
