<svg width="16" height="16" viewBox="0 0 16 16" fill="none" xmlns="http://www.w3.org/2000/svg">
<rect x="2" y="2" width="12" height="12" rx="3" fill="#76D275"/>
<path d="M7.99967 9.51412V10.9862L6.5 9.48658V8.01446L7.99967 9.51412Z" fill="#C3C3C3"/>
<path d="M7.99902 9.51412L9.50007 8.01446V9.48658L7.99902 10.9862V9.51412Z" fill="#B9B9B9"/>
<path d="M6.49967 8.01446V9.48658L5 7.98554V6.51342L6.49967 8.01446Z" fill="#E1E1E1"/>
<path d="M10.9997 6.51342V7.98554L9.5 9.48658V8.01446L10.9997 6.51342Z" fill="#E1E1E1"/>
<path d="M7.99967 9.51413L6.5 8.01446L7.99967 6.51342L9.50071 8.01446L7.99967 9.51413Z" fill="#E1E1E1"/>
<path d="M6.49967 8.01446L5 6.51341L6.49967 5.01375L7.99933 6.51341L6.49967 8.01446Z" fill="white"/>
<path d="M9.50007 8.01446L7.99902 6.51341L9.50007 5.01375L10.9997 6.51341L9.50007 8.01446Z" fill="white"/>
</svg>
