<svg width="16" height="16" viewBox="0 0 16 16" fill="none" xmlns="http://www.w3.org/2000/svg">
<rect x="2" y="2" width="12" height="12" rx="3" fill="white"/>
<path d="M6.04785 7.99912H7.03999C7.22621 7.99912 7.40989 8.04241 7.57652 8.12555C7.74314 8.2087 7.88817 8.32943 8.00015 8.47823L8.97879 9.77883C8.99728 9.80333 9.00005 9.83633 8.986 9.86369L8.42185 10.9567C8.41563 10.9687 8.40645 10.979 8.39519 10.9865C8.38393 10.994 8.37094 10.9986 8.35744 10.9997C8.34394 11.0009 8.33038 10.9986 8.31801 10.993C8.30564 10.9875 8.29487 10.979 8.28671 10.9681L6.04785 7.99912ZM9.9517 8.00079H8.95956C8.77335 8.00079 8.58968 7.95752 8.42305 7.87439C8.25642 7.79127 8.11139 7.67055 7.99941 7.52177L7.02076 6.22117C7.01174 6.20911 7.00628 6.19477 7.005 6.17977C7.00373 6.16477 7.00669 6.14971 7.01355 6.13631L7.5777 5.04332C7.58393 5.03129 7.5931 5.02103 7.60436 5.0135C7.61563 5.00598 7.62862 5.00143 7.64211 5.00029C7.65561 4.99914 7.66918 5.00144 7.68155 5.00696C7.69392 5.01248 7.70469 5.02104 7.71285 5.03186L9.9517 8.00079Z" fill="black"/>
</svg>
