<svg width="16" height="16" viewBox="0 0 16 16" fill="none" xmlns="http://www.w3.org/2000/svg">
<rect x="2" y="2" width="12" height="12" rx="3" fill="#EF5734"/>
<path d="M10.8853 7.93903C10.5767 7.6425 9.03356 7.45738 8.54664 7.4035C8.57022 7.34779 8.5903 7.29019 8.60688 7.23086C8.67326 7.20179 8.74492 7.17475 8.819 7.15216C8.82803 7.17879 8.87055 7.28083 8.89479 7.32926C9.87391 7.35627 9.92418 6.60164 9.964 6.3949C10.0029 6.19275 10.001 5.99743 10.3368 5.64036C9.83646 5.49455 9.11692 5.86635 8.87591 6.41973C8.78534 6.38579 8.69457 6.36073 8.60479 6.34523C8.54045 6.08571 8.20543 5.36268 7.32628 5.36268C6.21318 5.36268 5 6.28096 5 7.83544C5 9.14213 5.89212 10.2873 6.39617 10.2873C6.61629 10.2873 6.80565 10.1224 6.8501 9.97467C6.88737 10.076 7.00172 10.3909 7.03927 10.4711C7.09478 10.5897 7.35149 10.6923 7.46383 10.5692C7.60827 10.6495 7.87331 10.6978 8.01776 10.4838C8.29595 10.5427 8.54189 10.3768 8.54726 10.1788C8.68377 10.1715 8.75073 9.97988 8.72092 9.82724C8.69895 9.71486 8.46421 9.31162 8.37266 9.17243C8.5539 9.31986 9.013 9.36159 9.06876 9.17252C9.36098 9.4019 9.81638 9.2815 9.85249 9.09496C10.2076 9.18722 10.6148 8.9846 10.548 8.73919C11.1184 8.69974 11.0454 8.09282 10.8853 7.93903Z" fill="#543729"/>
<path d="M9.29727 6.64465C9.42013 6.40089 9.57451 6.13473 9.7695 5.97006C9.55488 6.05656 9.34298 6.31513 9.2177 6.59151C9.15383 6.55092 9.089 6.51471 9.02362 6.48305C9.19839 6.10999 9.6045 5.79844 10.0521 5.77411C9.75228 6.04598 9.85869 6.61104 9.61222 6.91018C9.54169 6.83934 9.37974 6.70263 9.29727 6.64465ZM9.10349 7.04159C9.10362 7.03226 9.10711 6.9603 9.11366 6.92746C9.09647 6.92341 8.98963 6.90251 8.93393 6.90382C8.92987 6.97378 8.96332 7.0928 8.99639 7.16445C9.22412 7.15967 9.3886 7.09148 9.48541 7.02878C9.40299 6.99036 9.26235 6.95621 9.1554 6.93577C9.14347 6.96046 9.1141 7.02336 9.10349 7.04159Z" fill="#00ACEE"/>
<path d="M8.25702 8.97011C8.25707 8.97043 8.25722 8.97087 8.25726 8.9712C8.22839 8.90909 8.19774 8.83364 8.16113 8.73502C8.30367 8.9425 8.75041 8.83549 8.72698 8.64958C8.94564 8.8141 9.39573 8.62217 9.29341 8.39147C9.51244 8.49354 9.76244 8.28817 9.70638 8.19869C10.0798 8.27071 10.4377 8.3425 10.55 8.37125C10.4754 8.49293 10.3054 8.57885 10.0492 8.51914C10.1877 8.70773 9.91887 8.93398 9.5445 8.80937C9.62691 8.99451 9.29358 9.16119 8.91472 8.96821C8.91954 9.15343 8.44473 9.17475 8.25702 8.97011ZM8.9978 8.03394C9.43121 8.06722 10.1479 8.13185 10.5917 8.19394C10.5636 8.04954 10.4871 8.00829 10.2462 7.94358C9.98712 7.97121 9.32986 8.03577 8.9978 8.03394Z" fill="#2BAF2B"/>
<path d="M8.72708 8.64958C8.94574 8.8141 9.39583 8.62217 9.29351 8.39147C9.51254 8.49353 9.76254 8.28817 9.70648 8.19869C9.26498 8.11357 8.80171 8.02813 8.69662 8.0132C8.76037 8.01659 8.86602 8.02383 8.9979 8.03396C9.32997 8.03579 9.98723 7.97122 10.2463 7.94359C9.82682 7.83723 8.9704 7.68202 8.37894 7.64378C8.35153 7.68384 8.30115 7.75177 8.21339 7.82396C7.95463 8.37148 7.48577 8.73541 6.96702 8.73541C6.81584 8.73541 6.64669 8.70991 6.45711 8.6493C6.33888 8.77596 5.83479 8.87194 5.42578 8.67119C5.75021 9.43086 6.5026 9.93797 7.33543 9.93797C8.03683 9.93797 8.34785 9.22173 8.27979 9.03222C8.26327 8.9862 8.19783 8.83364 8.16121 8.73504C8.30377 8.9425 8.75049 8.83549 8.72708 8.64958Z" fill="#FFCC2F"/>
<path d="M8.30148 7.20807C8.36341 7.17438 8.57742 7.04466 8.78136 6.99591C8.77814 6.97333 8.77572 6.95055 8.77421 6.92764C8.64042 6.95968 8.38817 7.06779 8.24362 6.91881C8.54859 7.01083 8.70085 6.83681 8.925 6.83681C9.05856 6.83681 9.24915 6.87412 9.39938 6.9331C9.27854 6.82148 8.8823 6.48459 8.39169 6.48342C8.28215 6.61622 8.16375 6.90387 8.30148 7.20807Z" fill="#CECECE"/>
<path d="M6.45711 8.6493C6.6467 8.70991 6.81584 8.73541 6.96702 8.73541C7.48578 8.73541 7.95462 8.37146 8.2134 7.82396C8.02201 7.98373 7.68937 8.12043 7.1699 8.12043C7.63261 8.01551 8.03093 7.78493 8.23356 7.44789C8.09112 7.22118 7.93664 6.71966 8.32785 6.32317C8.26767 6.12984 7.97476 5.61946 7.32632 5.61946C6.19468 5.61946 5.25684 6.56639 5.25684 7.83543C5.25684 8.13584 5.31748 8.41758 5.4258 8.67117C5.8348 8.87194 6.33888 8.77596 6.45711 8.6493Z" fill="#EF5734"/>
<path d="M6.79688 6.71706C6.79688 7.00572 7.03088 7.23975 7.31955 7.23975C7.60822 7.23975 7.84225 7.00572 7.84225 6.71706C7.84225 6.42839 7.60822 6.19437 7.31955 6.19437C7.03088 6.19437 6.79688 6.42839 6.79688 6.71706Z" fill="#FFCC2F"/>
<path d="M7.00586 6.71706C7.00586 6.88988 7.14598 7.02999 7.31879 7.02999C7.49163 7.02999 7.63173 6.88988 7.63173 6.71706C7.63173 6.54423 7.49164 6.40412 7.31879 6.40412C7.14598 6.40412 7.00586 6.54423 7.00586 6.71706Z" fill="#543729"/>
<path d="M7.31907 6.69159C7.41978 6.69159 7.50142 6.64083 7.50142 6.57821C7.50142 6.51559 7.41978 6.46483 7.31907 6.46483C7.21836 6.46483 7.13672 6.51559 7.13672 6.57821C7.13672 6.64083 7.21836 6.69159 7.31907 6.69159Z" fill="white"/>
</svg>
