<svg width="16" height="16" viewBox="0 0 16 16" fill="none" xmlns="http://www.w3.org/2000/svg">
<rect x="2" y="2" width="12" height="12" rx="3" fill="white"/>
<path d="M5.76204 11H10.237C10.5941 11 10.8076 10.8331 10.8076 10.5562C10.8076 9.6952 9.72976 8.50724 7.99786 8.50724C6.26927 8.50724 5.19141 9.6952 5.19141 10.5562C5.19141 10.8331 5.40498 11 5.76204 11ZM8.0012 7.9099C8.71532 7.9099 9.33601 7.26919 9.33601 6.43493C9.33601 5.61068 8.71532 5 8.0012 5C7.28707 5 6.66638 5.62403 6.66638 6.4416C6.66638 7.26919 7.28373 7.9099 8.0012 7.9099Z" fill="black"/>
</svg>
