<svg width="16" height="16" viewBox="0 0 16 16" fill="none" xmlns="http://www.w3.org/2000/svg">
<rect x="2" y="2" width="12" height="12" rx="3" fill="white"/>
<g clip-path="url(#clip0_132_267)">
<path d="M6.4375 8.49268C6.56418 8.43657 6.66883 8.2963 6.60549 8.19718C6.43199 8.24768 6.44025 8.36363 6.4375 8.49268Z" fill="#E3E3F8"/>
<path d="M7.76953 8.81437C7.88823 8.78444 8.00218 8.67971 7.93808 8.57123C7.8455 8.62173 7.78615 8.69093 7.76953 8.81437Z" fill="#E3E3F8"/>
<path d="M5.15322 10.3629C5.15322 10.4808 5.18315 10.608 5.26544 10.6528C5.56842 10.823 6.63074 10.6902 6.9917 10.6098C7.18059 10.5668 7.33396 10.4265 7.51163 10.3499C7.91187 10.1759 8.20176 10.0357 8.52158 9.80187C8.75349 9.63167 9.12193 9.15289 9.16121 8.86674L8.84513 8.79566C8.83765 9.11735 8.76471 9.19029 8.47856 9.2651C8.28592 9.31747 7.91 9.32869 7.71362 9.29503C7.45365 9.25201 7.33583 9.11548 7.218 8.96025C6.98983 8.65727 7.2685 8.44593 6.90754 8.42535C6.52787 8.89105 5.85832 8.55627 5.56468 8.50951C5.43938 8.69093 5.14574 9.8692 5.14945 10.1385C5.3309 10.0768 5.44499 10.1441 5.6077 10.2077C6.18374 10.4303 5.68064 10.6267 5.4506 10.5687C5.29349 10.5313 5.24487 10.4284 5.15322 10.3629Z" fill="#FDFDFD"/>
<path d="M5.90625 7.67538C6.14003 7.72026 6.34763 7.81752 6.54588 7.91664C6.86944 8.07748 6.92742 8.05504 6.95734 8.27947C6.96108 8.32062 6.9536 8.34306 7.07143 8.38047C7.26967 8.44218 6.95734 8.33184 7.4885 8.33371C7.80457 8.33558 8.52836 8.46276 8.76215 8.61051C8.8594 8.67223 8.8407 8.75078 9.16987 8.74143C9.16613 8.35428 9.06326 7.77637 8.91177 7.42102C8.72661 6.99086 8.48161 6.9254 7.98225 6.76456C7.69048 6.67104 6.8339 6.56818 6.56832 6.73276C6.31958 6.88799 6.27282 7.07315 6.04091 7.39858C5.97358 7.49396 5.94927 7.5669 5.90625 7.67538Z" fill="#FDFDFD"/>
<path d="M7.96613 8.47024C8.15316 8.54692 7.95678 9.04254 7.69681 8.92284C7.61265 8.68532 7.81277 8.55066 7.86701 8.44406C7.75479 8.42722 7.43497 8.37673 7.33959 8.41226C7.21615 8.45902 7.1881 8.72273 7.25169 8.84616C7.55093 9.43343 8.87321 9.30812 8.73294 8.85177C8.67683 8.66662 8.62446 8.63669 8.43557 8.5731C8.28408 8.52261 8.13258 8.47024 7.96613 8.47024Z" fill="#FDFDFD"/>
<path d="M5.61523 8.40478C5.76486 8.54879 6.10337 8.57123 6.3222 8.58245C6.35025 8.29256 6.37456 8.07561 6.60648 8.09244C6.72056 8.24768 6.66071 8.43096 6.54102 8.54879C6.74488 8.54692 6.8627 8.39356 6.83278 8.171C6.66071 8.04756 6.13891 7.80068 5.87707 7.76515C5.80413 7.8437 5.62459 8.27386 5.61523 8.40478Z" fill="#FDFDFD"/>
<path d="M5.26318 10.2563C5.38662 10.2451 5.70831 10.3386 5.73449 10.4434C5.53437 10.4677 5.28002 10.449 5.26318 10.2563ZM5.15284 10.3629C5.24448 10.4284 5.29311 10.5313 5.45021 10.5687C5.68025 10.6267 6.18335 10.4303 5.60731 10.2077C5.4446 10.1441 5.33051 10.0768 5.14906 10.1385C5.14536 9.8692 5.43899 8.69093 5.5643 8.50951C5.85793 8.55627 6.52748 8.89105 6.90715 8.42535C7.26811 8.44593 6.98944 8.65727 7.21761 8.96025C7.33544 9.11548 7.45327 9.25201 7.71323 9.29503C7.90961 9.32869 8.28553 9.31747 8.47817 9.2651C8.76432 9.19029 8.83726 9.11735 8.84474 8.79567L9.16082 8.86674C9.12154 9.15289 8.7531 9.63167 8.52119 9.80187C8.20137 10.0357 7.91148 10.1759 7.51124 10.3499C7.33357 10.4265 7.18021 10.5668 6.99131 10.6098C6.63035 10.6902 5.56804 10.823 5.26505 10.6528C5.18276 10.608 5.15284 10.4808 5.15284 10.3629ZM7.76934 8.81437C7.78596 8.69093 7.84531 8.62173 7.93789 8.57123C8.00198 8.67971 7.88804 8.78444 7.76934 8.81437ZM7.96572 8.47024C8.13217 8.47024 8.28366 8.52261 8.43516 8.5731C8.62405 8.63669 8.67642 8.66662 8.73253 8.85177C8.8728 9.30812 7.55052 9.43343 7.25128 8.84616C7.18769 8.72272 7.21574 8.45902 7.33918 8.41226C7.43456 8.37673 7.75438 8.42722 7.86659 8.44406C7.81236 8.55066 7.61224 8.68532 7.6964 8.92284C7.95637 9.04254 8.15275 8.54692 7.96572 8.47024ZM6.43771 8.49268C6.44046 8.36363 6.4322 8.24768 6.6057 8.19718C6.66904 8.2963 6.56439 8.43657 6.43771 8.49268ZM5.61479 8.40478C5.62414 8.27386 5.80369 7.8437 5.87663 7.76515C6.13847 7.80068 6.66027 8.04756 6.83234 8.171C6.86226 8.39356 6.74443 8.54692 6.54057 8.54879C6.66027 8.43096 6.72012 8.24768 6.60603 8.09244C6.37412 8.07561 6.34981 8.29256 6.32175 8.58245C6.10293 8.57123 5.76441 8.54879 5.61479 8.40478ZM5.42777 8.25516C5.35857 8.06439 5.35857 7.76702 5.6522 7.7427L5.50258 8.15977C5.4633 8.24955 5.4633 8.22897 5.42777 8.25516ZM5.90655 7.67538C5.94957 7.5669 5.97388 7.49396 6.04121 7.39858C6.27313 7.07315 6.31988 6.88799 6.56863 6.73276C6.83421 6.56818 7.69079 6.67104 7.98255 6.76456C8.48191 6.9254 8.72692 6.99086 8.91207 7.42102C9.06357 7.77637 9.16643 8.35428 9.17017 8.74143C8.841 8.75078 8.85971 8.67223 8.76245 8.61051C8.52867 8.46276 7.80488 8.33558 7.4888 8.33371C6.95764 8.33184 7.26998 8.44218 7.07173 8.38047C6.9539 8.34306 6.96139 8.32062 6.95764 8.27947C6.92772 8.05504 6.86974 8.07748 6.54619 7.91664C6.34794 7.81752 6.14034 7.72026 5.90655 7.67538ZM9.21693 7.58373C9.18139 7.46591 9.24685 7.47339 9.36094 7.39297C9.4264 7.34621 9.47876 7.29758 9.55919 7.2527C9.8603 7.08437 10.4214 7.05632 10.6608 7.25644C10.758 7.33686 10.917 7.49396 10.8927 7.69969C10.8422 8.10928 10.5616 8.33371 10.3316 8.52074C10.0978 8.7115 9.70881 8.90788 9.3067 8.77696C9.27304 8.69467 9.29922 8.17287 9.25994 7.98023C9.22441 7.80816 9.24311 7.78946 9.34223 7.6866C9.634 7.38361 10.2661 7.16292 10.6252 7.42289C10.7767 7.53511 10.7337 7.57812 10.8123 7.66415C10.9095 7.55942 10.7281 7.20781 10.0585 7.23025C9.60407 7.24521 9.40769 7.60056 9.21693 7.58373ZM6.49382 6.51955C6.50317 6.25958 6.74256 5.72095 6.98196 5.53392C7.27185 5.30949 7.57483 5.09815 8.01996 5.35063C8.1303 5.41235 8.12469 5.44415 8.13591 5.59751C8.14526 5.74526 8.13217 5.7995 8.09477 5.91919C7.79926 6.87303 7.55239 6.32504 6.60603 6.55135C6.64157 6.24088 6.91089 5.96408 7.06051 5.82007C7.31674 5.57133 7.50189 5.41048 7.88717 5.46285C7.99377 5.64053 8.00499 5.75274 7.87595 5.96034C7.70388 6.23714 7.66086 6.22031 7.68705 6.4092C7.82171 6.37554 7.86285 6.24462 7.92457 6.1137C8.3005 5.32819 7.75438 5.23281 7.4196 5.37682C7.19517 5.4722 6.79493 5.91358 6.66401 6.17916C6.63783 6.23153 6.60977 6.29886 6.58546 6.35684L6.49382 6.51955ZM7.97507 6.55883C8.01435 6.32504 8.24626 6.26706 8.24626 5.54701C8.24626 5.23655 7.86472 4.95788 7.36536 5.16548C6.93707 5.34128 6.87161 5.47594 6.64344 5.82007C6.42836 6.1455 6.43584 6.50272 6.25068 6.80383C6.19645 6.88986 6.14782 6.91979 6.08797 7.00582C6.04495 7.06941 6.01316 7.14983 5.97014 7.22464C5.88224 7.36865 5.79247 7.47339 5.7214 7.64545C5.49697 7.65106 5.30807 7.6548 5.28563 7.88672C5.2557 8.20466 5.40532 8.28321 5.40532 8.40291C5.40345 8.53196 4.87978 9.83366 5.02566 10.6098C5.0668 10.823 5.20707 10.8249 5.43151 10.8511C5.97201 10.9165 6.67336 10.8941 7.15776 10.6996L8.03679 10.2788C8.25935 10.1535 8.6334 9.91596 8.79986 9.74202C8.91768 9.62045 8.9794 9.51759 9.0804 9.37358C9.2188 9.17159 9.22254 9.17533 9.25246 8.9004C9.43575 8.93406 9.77801 9.01449 9.89209 9.11361C9.879 9.24266 9.81541 9.18094 9.81541 9.2969C9.88835 9.29877 10.0099 9.20712 10.0398 9.10613C9.96316 8.99391 9.88274 9.01262 9.7724 8.92284C9.8603 8.85364 10.0193 8.82185 10.1408 8.77135C10.4027 8.66288 10.8497 8.33371 10.96 8.03447C11.0479 7.7932 10.9825 7.39109 10.8403 7.23399C10.6907 7.06941 10.3428 6.98525 10.0585 6.98525C9.72003 6.98525 9.37029 7.22838 9.09723 7.33312C8.99249 7.24147 8.98501 7.13674 8.90833 7.03574C8.82043 6.91605 8.24813 6.6168 7.97507 6.55883Z" fill="#020202"/>
<path d="M9.21672 7.58373C9.40748 7.60056 9.60386 7.24521 10.0583 7.23025C10.7279 7.20781 10.9093 7.55942 10.8121 7.66415C10.7335 7.57812 10.7765 7.53511 10.625 7.42289C10.2659 7.16292 9.63378 7.38361 9.34202 7.6866C9.2429 7.78946 9.2242 7.80816 9.25973 7.98023C9.29901 8.17287 9.27282 8.69467 9.30649 8.77696C9.7086 8.90788 10.0976 8.7115 10.3314 8.52074C10.5614 8.33371 10.842 8.10928 10.8925 7.69969C10.9168 7.49396 10.7578 7.33686 10.6606 7.25644C10.4212 7.05632 9.86009 7.08437 9.55897 7.25269C9.47855 7.29758 9.42619 7.34621 9.36073 7.39296C9.24664 7.47339 9.18118 7.46591 9.21672 7.58373Z" fill="#FDF2F2"/>
<path d="M6.49414 6.51955L6.58578 6.35684C6.6101 6.29886 6.63815 6.23153 6.66433 6.17916C6.79525 5.91358 7.19549 5.4722 7.41992 5.37682C7.7547 5.23281 8.30082 5.32819 7.92489 6.1137C7.86318 6.24462 7.82203 6.37554 7.68737 6.4092C7.66119 6.22031 7.7042 6.23714 7.87627 5.96034C8.00532 5.75274 7.99409 5.64052 7.88749 5.46285C7.50221 5.41048 7.31706 5.57133 7.06083 5.82007C6.91121 5.96408 6.64189 6.24088 6.60636 6.55134C7.55271 6.32504 7.79959 6.87303 8.09509 5.91919C8.13249 5.7995 8.14559 5.74526 8.13624 5.59751C8.12501 5.44415 8.13062 5.41235 8.02028 5.35063C7.57516 5.09815 7.27217 5.30949 6.98228 5.53392C6.74289 5.72095 6.50349 6.25958 6.49414 6.51955Z" fill="#FEF3F3"/>
<path d="M5.42749 8.25516C5.46302 8.22897 5.46302 8.24955 5.5023 8.15978L5.65192 7.74271C5.35829 7.76702 5.35829 8.06439 5.42749 8.25516Z" fill="#EFEFEF"/>
<path d="M5.734 10.4434C5.70782 10.3386 5.38613 10.2451 5.2627 10.2563C5.27953 10.449 5.53388 10.4677 5.734 10.4434Z" fill="#FAF1F1"/>
</g>
<defs>
<clipPath id="clip0_132_267">
<rect width="6" height="6" fill="white" transform="translate(5 5)"/>
</clipPath>
</defs>
</svg>
