<svg width="16" height="16" viewBox="0 0 16 16" fill="none" xmlns="http://www.w3.org/2000/svg">
<rect x="2" y="2" width="12" height="12" rx="3" fill="#EA4335"/>
<path d="M8.80716 6.91533H8.99016L9.51171 6.39379L9.53733 6.17236C9.23855 5.90865 8.87748 5.72546 8.48822 5.64009C8.09897 5.55473 7.69437 5.57001 7.31266 5.68448C6.93095 5.79896 6.58472 6.00886 6.30668 6.29435C6.02864 6.57984 5.82798 6.93149 5.72363 7.3161C5.78174 7.29229 5.8461 7.28842 5.90663 7.30512L6.94973 7.1331C6.94973 7.1331 7.00279 7.04526 7.03024 7.05075C7.25375 6.80529 7.56262 6.65454 7.89364 6.62937C8.22465 6.60419 8.55277 6.7065 8.81082 6.91533H8.80716Z" fill="black"/>
<path d="M10.2548 7.3161C10.1349 6.87464 9.88882 6.47777 9.54662 6.17419L8.81463 6.90618C8.96718 7.03083 9.08944 7.1885 9.17218 7.36729C9.25492 7.54608 9.29598 7.74132 9.29226 7.9383V8.06822C9.37781 8.06822 9.46252 8.08508 9.54156 8.11782C9.62061 8.15056 9.69242 8.19854 9.75292 8.25904C9.81341 8.31953 9.8614 8.39135 9.89414 8.47039C9.92688 8.54943 9.94373 8.63415 9.94373 8.7197C9.94373 8.80525 9.92688 8.88997 9.89414 8.96901C9.8614 9.04805 9.81341 9.11987 9.75292 9.18036C9.69242 9.24086 9.62061 9.28885 9.54156 9.32159C9.46252 9.35433 9.37781 9.37118 9.29226 9.37118H7.9893L7.85938 9.50294V10.2843L7.9893 10.4143H9.29226C9.6561 10.4171 10.0112 10.3027 10.305 10.0881C10.5988 9.8735 10.8158 9.57 10.9237 9.22253C11.0317 8.87506 11.0249 8.50207 10.9045 8.15873C10.784 7.8154 10.5562 7.51995 10.2548 7.3161Z" fill="black"/>
<path d="M6.6841 10.407H7.98705V9.36386H6.6841C6.59127 9.36384 6.49953 9.34387 6.41509 9.3053L6.23209 9.36203L5.70688 9.88358L5.66113 10.0666C5.95566 10.289 6.31504 10.4086 6.6841 10.407Z" fill="black"/>
<path d="M6.68445 7.0233C6.33141 7.02541 5.98785 7.13773 5.70174 7.34458C5.41564 7.55142 5.20128 7.84246 5.08861 8.17704C4.97594 8.51162 4.97059 8.87304 5.07329 9.21082C5.176 9.54859 5.38163 9.84585 5.66148 10.0611L6.41727 9.3053C6.32122 9.26191 6.23714 9.19586 6.17223 9.11283C6.10733 9.02979 6.06353 8.93225 6.04461 8.82857C6.02569 8.7249 6.0322 8.61817 6.06359 8.51756C6.09498 8.41696 6.15031 8.32546 6.22484 8.25094C6.29936 8.17642 6.39085 8.12109 6.49146 8.0897C6.59207 8.05831 6.69879 8.05179 6.80247 8.07071C6.90615 8.08964 7.00369 8.13343 7.08672 8.19834C7.16975 8.26325 7.2358 8.34733 7.27919 8.44337L8.03498 7.68759C7.87635 7.48021 7.67189 7.31233 7.4376 7.19709C7.20331 7.08185 6.94554 7.02237 6.68445 7.0233Z" fill="black"/>
</svg>
