<svg width="16" height="16" viewBox="0 0 16 16" fill="none" xmlns="http://www.w3.org/2000/svg">
<rect x="2" y="2" width="12" height="12" rx="3" fill="#FF61F6"/>
<path d="M10.1526 5H5.84762C5.54762 5 5.30762 5.24 5.30762 5.54V10.46C5.30762 10.76 5.54762 11 5.84762 11H10.1526C10.4526 11 10.6926 10.76 10.6926 10.46V5.54C10.6926 5.24 10.4526 5 10.1526 5ZM10.3926 10.46C10.3926 10.595 10.2876 10.7 10.1526 10.7H5.84762C5.71262 10.7 5.60762 10.595 5.60762 10.46V5.54C5.60762 5.405 5.71262 5.3 5.84762 5.3H10.1526C10.2876 5.3 10.3926 5.405 10.3926 5.54V10.46ZM6.65762 10.1L7.33262 9.5L6.65762 8.9V10.1ZM9.08762 7.67C8.96762 7.55 8.74262 7.4 8.36762 7.4C7.96262 7.4 7.54262 7.505 7.24262 7.61V5.9H6.64262V8.495L7.06262 8.3C7.06262 8.3 7.75262 7.985 8.35262 7.985C8.65262 7.985 8.72762 8.15 8.72762 8.3V10.1H9.32762V8.3C9.34262 8.255 9.34262 7.925 9.08762 7.67ZM8.29262 6.875H8.89262C9.16262 6.56 9.29762 6.245 9.34262 5.9H8.74262C8.68262 6.245 8.53262 6.56 8.29262 6.875Z" fill="black"/>
</svg>
