<svg width="16" height="16" viewBox="0 0 16 16" fill="none" xmlns="http://www.w3.org/2000/svg">
<rect x="2" y="2" width="12" height="12" rx="3" fill="#03BDBA"/>
<path d="M6.16155 10.3582H6.08602L5.70898 9.98112V9.9056L6.28537 9.32922H6.68469L6.73793 9.38246V9.78177L6.16155 10.3582Z" fill="black"/>
<path d="M5.70898 6.09381V6.01828L6.08602 5.64124H6.16155L6.73793 6.21762V6.61694L6.68469 6.67019H6.28537L5.70898 6.09381Z" fill="black"/>
<path d="M6.2399 8.3207H4.04581L4 8.27489V7.72513L4.04581 7.67931H6.2399L6.28572 7.72513V8.27489L6.2399 8.3207Z" fill="black"/>
<path d="M11.9538 8.3207H9.75968L9.71387 8.27489V7.72513L9.75968 7.67931H11.9538L11.9996 7.72513V8.27489L11.9538 8.3207Z" fill="black"/>
<path d="M7.68359 6.17181V4.52624L7.72941 4.48043H8.27917L8.32498 4.52624V6.17181L8.27917 6.21762H7.72941L7.68359 6.17181Z" fill="black"/>
<path d="M7.68359 11.4738V9.82821L7.72941 9.78239H8.27917L8.32498 9.82821V11.4738L8.27917 11.5196H7.72941L7.68359 11.4738Z" fill="black"/>
<path d="M9.02788 9.14286H8.47937L8.43355 9.09706V7.81304C8.43355 7.5846 8.34378 7.40753 8.06828 7.40134C7.92651 7.39763 7.7643 7.40134 7.59096 7.40815L7.56496 7.43477V9.09644L7.51914 9.14225H6.97062L6.9248 9.09644V6.90297L6.97062 6.85715H8.20511C8.68491 6.85715 9.0737 7.24595 9.0737 7.72575V9.09706L9.02788 9.14286Z" fill="black"/>
</svg>
