<svg width="16" height="16" viewBox="0 0 16 16" fill="none" xmlns="http://www.w3.org/2000/svg">
<rect x="2" y="2" width="12" height="12" rx="3" fill="#009438"/>
<path fill-rule="evenodd" clip-rule="evenodd" d="M5.38594 8.00395V8.00451V9.43597C5.38594 9.49147 5.40807 9.52485 5.45251 9.5526L7.92803 10.9792C7.97809 11.0069 8.02816 11.0069 8.07803 10.9792C8.1921 10.9165 8.30501 10.8518 8.41668 10.7849L10.5481 9.55298C10.5694 9.54074 10.5869 9.52286 10.5986 9.50132C10.6103 9.47978 10.6159 9.45541 10.6147 9.43091V6.5723C10.6159 6.5478 10.6103 6.52343 10.5986 6.50189C10.5869 6.48035 10.5694 6.46247 10.5481 6.45023L8.06697 5.01821C8.02253 4.99046 7.97265 4.99609 7.92821 5.02384L5.45813 6.45042C5.43537 6.46134 5.41635 6.47876 5.4035 6.50049C5.39065 6.52223 5.38454 6.54728 5.38594 6.57249V8.00395ZM7.1344 9.14026V7.47142L7.13402 7.46936C7.13965 7.47498 7.14527 7.48061 7.14527 7.48623L8.54973 9.1682C8.56877 9.18931 8.58617 9.21122 8.60349 9.23302C8.63172 9.26856 8.65971 9.3038 8.69411 9.33471C8.79525 9.42632 8.92435 9.4811 9.06051 9.49016C9.15464 9.49579 9.24352 9.48472 9.32678 9.44028C9.43778 9.37915 9.49891 9.28277 9.49891 9.15152V6.78888C9.47679 6.62762 9.3324 6.47236 9.11601 6.50011C8.9435 6.5168 8.82162 6.65556 8.82162 6.83313V8.52073C8.8153 8.5144 8.81075 8.50795 8.80694 8.50255C8.8042 8.49867 8.80185 8.49533 8.7995 8.49298L7.32303 6.72231C7.24709 6.63343 7.1584 6.56143 7.04177 6.52805C6.91951 6.48923 6.79744 6.47798 6.67537 6.52805C6.5533 6.57811 6.45898 6.68875 6.45898 6.84438V9.16258C6.45898 9.22371 6.47005 9.27921 6.50342 9.32909C6.5683 9.43447 6.66281 9.48435 6.78469 9.48997C6.98439 9.49541 7.1344 9.3289 7.1344 9.14026Z" fill="white"/>
</svg>
