<svg width="16" height="16" viewBox="0 0 16 16" fill="none" xmlns="http://www.w3.org/2000/svg">
<rect x="2" y="2" width="12" height="12" rx="3" fill="#76D04A"/>
<path d="M10.4955 6.96272L10.3226 6.86319C10.5884 6.47104 10.7473 5.88146 10.5481 5C10.5481 5 10.0995 6.25737 9.1976 6.21569L8.14159 5.60802C8.10176 5.58439 8.05712 5.57222 8.012 5.5704C8.00794 5.5704 7.99096 5.5704 7.98765 5.5704C7.94263 5.57225 7.89805 5.58442 7.85767 5.60802L6.8016 6.21569C5.89975 6.25754 5.45099 5 5.45099 5C5.25164 5.88142 5.4108 6.47101 5.67657 6.86319L5.50374 6.96272C5.41593 7.01327 5.36133 7.10728 5.36133 7.2098L5.36652 10.8574C5.36652 10.9083 5.39288 10.9555 5.43755 10.9802C5.48118 11.0066 5.5352 11.0066 5.57876 10.9802L6.97771 10.1792C7.06623 10.1266 7.12006 10.0338 7.12006 9.93243V8.22837C7.12006 8.1268 7.17388 8.03259 7.26201 7.98224L7.8577 7.63918C7.90208 7.61337 7.95064 7.60081 8.00025 7.60081C8.04868 7.60081 8.09851 7.61337 8.14165 7.63918L8.73715 7.98224C8.82528 8.03259 8.8793 8.1268 8.8793 8.22837V9.93247C8.8793 10.0338 8.93384 10.1273 9.02185 10.1792L10.4204 10.9802C10.4643 11.0066 10.5191 11.0066 10.5626 10.9802C10.6059 10.9555 10.6332 10.9083 10.6332 10.8574L10.6378 7.20983C10.6376 7.10728 10.5839 7.01327 10.4955 6.96272Z" fill="black"/>
</svg>
