<svg width="16" height="16" viewBox="0 0 16 16" fill="none" xmlns="http://www.w3.org/2000/svg">
<rect x="2" y="2" width="12" height="12" rx="3" fill="#31A8FF"/>
<path d="M10.5446 6.6053C10.2483 6.30897 9.85644 6.14489 9.43766 6.14244H7.79441C7.58869 6.14244 7.38787 6.18162 7.19685 6.25999C7.00584 6.33836 6.83195 6.45346 6.68501 6.6004C6.53808 6.74734 6.42297 6.91877 6.34461 7.11224C6.26379 7.30325 6.22461 7.50652 6.22461 7.71468V9.3506C6.22461 9.76937 6.3887 10.1637 6.68501 10.46C6.98134 10.7563 7.37562 10.9204 7.79441 10.9204H9.43031C9.63847 10.9204 9.83929 10.8788 10.0328 10.8004C10.2238 10.722 10.3952 10.6069 10.5422 10.46C10.6866 10.313 10.8017 10.1416 10.8801 9.95059C10.9609 9.75712 11.0001 9.55631 11.0001 9.34814V7.71468C11.0001 7.29591 10.8385 6.90163 10.5446 6.6053ZM8.0442 7.56284C8.03195 7.70244 7.97072 7.83468 7.87277 7.93508C7.78216 8.02571 7.66951 8.08447 7.54461 8.10897C7.50787 8.11632 7.47114 8.11876 7.4344 8.11876C7.34624 8.11876 7.25807 8.09917 7.17726 8.06244C7.06216 8.00856 6.9691 7.92285 6.90542 7.81264C6.84176 7.70244 6.81481 7.57754 6.82461 7.45019C6.83685 7.32284 6.88583 7.20529 6.9691 7.10978C7.04991 7.01182 7.16011 6.9457 7.28257 6.91387C7.40501 6.88203 7.53236 6.88938 7.65236 6.93346C7.76991 6.97999 7.87032 7.05836 7.94134 7.16367C8.02215 7.28122 8.05644 7.4208 8.0442 7.56284ZM10.1013 10.0584C9.91522 10.242 9.67032 10.3449 9.40827 10.3449C9.2148 10.3449 9.02623 10.2886 8.8646 10.1784C8.70298 10.0706 8.57807 9.91876 8.50216 9.73998C8.42869 9.56121 8.40909 9.3653 8.44827 9.17427C8.48501 8.98325 8.57807 8.80937 8.71521 8.67222C8.85236 8.53509 9.02623 8.44203 9.21726 8.4053C9.40827 8.36611 9.6042 8.3857 9.78297 8.45917C9.96175 8.53509 10.116 8.65999 10.2238 8.82162C10.3315 8.98325 10.3879 9.16937 10.3879 9.3653C10.3879 9.62733 10.285 9.87223 10.1013 10.0584Z" fill="white"/>
<path d="M5.55102 6.18165C5.85534 6.18165 6.10204 5.93495 6.10204 5.63063C6.10204 5.32631 5.85534 5.07961 5.55102 5.07961C5.2467 5.07961 5 5.32631 5 5.63063C5 5.93495 5.2467 6.18165 5.55102 6.18165Z" fill="white"/>
</svg>
