<svg width="16" height="16" viewBox="0 0 16 16" fill="none" xmlns="http://www.w3.org/2000/svg">
<rect x="2" y="2" width="12" height="12" rx="3" fill="#F6E458"/>
<path d="M9.30432 5.21552C8.75445 5.05757 8.19357 5.0361 7.62202 5.08722C7.30216 5.12045 6.99467 5.18394 6.69806 5.29536C6.05696 5.53617 5.57562 5.95323 5.28859 6.58121C5.08281 7.03141 5.00844 7.50963 5.00069 8.00033C4.9925 8.51887 5.05749 9.03026 5.16075 9.53728C5.25434 9.99683 5.37898 10.4474 5.557 10.8823C5.57391 10.9236 5.59497 10.9376 5.64011 10.9375C6.20311 10.9363 6.76613 10.9363 7.32915 10.9363C7.4958 10.9363 7.66249 10.9363 7.82917 10.9363C7.84193 10.9363 7.85468 10.9356 7.86937 10.9347C7.87685 10.9344 7.88484 10.9339 7.89359 10.9335C7.89021 10.9255 7.8872 10.9181 7.88433 10.9111C7.87878 10.8975 7.87393 10.8856 7.8685 10.874C7.82778 10.7869 7.78623 10.7002 7.74467 10.6135C7.65453 10.4254 7.56441 10.2372 7.4829 10.0454C7.23563 9.46378 7.0463 8.86487 6.98851 8.23092C6.96303 7.95121 6.96656 7.67309 7.04419 7.40052C7.13288 7.08896 7.32324 6.86901 7.63884 6.77706C7.92866 6.69265 8.22252 6.69319 8.51074 6.78641C8.76799 6.86959 8.9357 7.04532 9.00705 7.30842C9.06185 7.51048 9.06182 7.71471 9.02038 7.91842C8.98845 8.07525 8.92421 8.21838 8.80855 8.33286C8.60107 8.53823 8.34198 8.58546 8.06395 8.56972C8.01449 8.56691 7.96518 8.56151 7.91437 8.5559C7.89057 8.55331 7.86645 8.55066 7.84181 8.54821C7.8425 8.55609 7.84289 8.56332 7.84328 8.57011C7.84398 8.58347 7.84461 8.59505 7.84736 8.60612C7.85921 8.65374 7.87052 8.70154 7.8818 8.74934C7.909 8.86448 7.9362 8.97963 7.97115 9.09236C8.03986 9.31372 8.11968 9.52977 8.21022 9.74069C8.85554 9.69033 9.4499 9.52992 10.0807 9.15123C10.0902 9.14525 10.0988 9.13986 10.1075 9.13449C10.3784 8.96578 10.5977 8.74696 10.749 8.46438C10.9939 8.00676 11.0417 7.51738 10.9689 7.01226C10.8938 6.49095 10.6599 6.05339 10.2571 5.71017C9.97784 5.47211 9.65485 5.31621 9.30432 5.21552Z" fill="black"/>
</svg>
