<svg width="16" height="16" viewBox="0 0 16 16" fill="none" xmlns="http://www.w3.org/2000/svg">
<rect x="2" y="2" width="12" height="12" rx="3" fill="#E2574C"/>
<path d="M7.41559 8.99961V8.60969L6.33222 8.91689C6.33222 8.91689 6.41227 8.45176 6.97728 8.29148C7.14862 8.24292 7.29482 8.24325 7.41559 8.26658V6.66725H7.95803C7.89897 6.48475 7.84183 6.34424 7.79384 6.2466C7.71446 6.08501 7.63308 6.19213 7.44833 6.34665C7.31822 6.45536 6.98936 6.68726 6.49449 6.82061C5.99961 6.95405 5.59953 6.91866 5.4326 6.88975C5.19595 6.84892 5.07217 6.79695 5.08375 6.97696C5.09383 7.13572 5.13165 7.38188 5.21828 7.70698C5.4057 8.41102 6.0251 9.76761 7.19569 9.45233C7.50147 9.36994 7.7173 9.20709 7.8669 8.99952H7.41559V8.99961ZM5.66742 7.71664L6.49932 7.4975C6.49932 7.4975 6.47507 7.81753 6.16321 7.89974C5.85126 7.98187 5.66742 7.71664 5.66742 7.71664Z" fill="black"/>
<path d="M10.5473 6.68575C10.331 6.72366 9.81224 6.77088 9.17111 6.59903C8.5298 6.42729 8.1043 6.12691 7.93572 5.98572C7.69674 5.78555 7.59161 5.64644 7.48816 5.85685C7.3967 6.04244 7.27974 6.34448 7.16653 6.7673C6.92123 7.68291 6.73789 9.61509 8.25432 10.0217C9.77044 10.4279 10.5776 8.66282 10.8229 7.74713C10.9361 7.3244 10.9858 7.00428 10.9994 6.79788C11.015 6.56406 10.8544 6.63194 10.5473 6.68575ZM7.50048 7.44327C7.50048 7.44327 7.73946 7.07158 8.14478 7.18679C8.55036 7.30199 8.58177 7.75038 8.58177 7.75038L7.50048 7.44327ZM8.48989 9.11115C7.77695 8.90231 7.667 8.33379 7.667 8.33379L9.58218 8.86925C9.58218 8.86916 9.1956 9.31738 8.48989 9.11115ZM9.16702 7.9428C9.16702 7.9428 9.40567 7.57137 9.81092 7.68691C10.2162 7.80228 10.2481 8.25067 10.2481 8.25067L9.16702 7.9428Z" fill="black"/>
<path d="M7.03708 8.71705L6.33231 8.9168C6.33231 8.9168 6.40886 8.48066 6.92805 8.30782L6.52897 6.81013L6.49449 6.82061C5.99961 6.95406 5.59953 6.91866 5.4326 6.88975C5.19596 6.84894 5.07217 6.79695 5.08375 6.97697C5.09383 7.13573 5.13165 7.38187 5.21828 7.707C5.4057 8.41102 6.0251 9.76761 7.19569 9.45232L7.23017 9.4415L7.03708 8.71705ZM5.6675 7.71666L6.4994 7.4975C6.4994 7.4975 6.47516 7.81752 6.16329 7.89974C5.85134 7.98187 5.6675 7.71666 5.6675 7.71666Z" fill="black"/>
<path d="M8.52205 9.11897L8.4898 9.11113C7.77687 8.90231 7.66691 8.33379 7.66691 8.33379L8.65449 8.60985L9.17735 6.6007L9.17102 6.59903C8.52971 6.42729 8.10423 6.12691 7.93563 5.98572C7.69665 5.78555 7.59153 5.64644 7.48807 5.85685C7.3967 6.04244 7.27974 6.34448 7.16653 6.7673C6.92123 7.68291 6.73789 9.61509 8.25432 10.0217L8.2854 10.0287L8.52205 9.11897ZM7.50048 7.44327C7.50048 7.44327 7.73946 7.07158 8.14478 7.18679C8.55036 7.30199 8.58177 7.75038 8.58177 7.75038L7.50048 7.44327Z" fill="black"/>
</svg>
