<svg width="16" height="16" viewBox="0 0 16 16" fill="none" xmlns="http://www.w3.org/2000/svg">
<rect x="2" y="2" width="12" height="12" rx="3" fill="#EFCCA3"/>
<path d="M10.6948 7.07521C10.6823 6.80048 10.7198 6.55696 10.5949 6.35091C10.2952 5.83891 9.54591 5.5392 8.04736 5.5392C6.54882 5.5392 5.76208 5.83891 5.46237 6.35716C5.34373 6.56945 5.35622 6.80672 5.33749 7.08146C5.325 7.3 5.2251 7.53102 5.2688 7.78078C5.31876 8.10547 5.33749 8.43015 5.38744 8.72986C5.4249 8.97338 5.76208 9.17943 5.7933 9.41045C5.88071 10.0473 6.54257 10.3408 8.04112 10.3408V10.3908H8.00366H8.0099H8.04736V10.3408C9.54591 10.3408 10.1828 10.0473 10.264 9.41045C10.2952 9.17318 10.6074 8.97338 10.6448 8.72986C10.6948 8.43015 10.7135 8.10547 10.7635 7.78078C10.8072 7.53102 10.7073 7.29375 10.6948 7.07521Z" fill="#EFCCA3"/>
<path d="M8.02128 7.3C8.28977 7.30625 8.47709 7.47483 8.65192 7.63093C8.85797 7.81201 9.20763 7.93689 9.35124 8.09299C9.49485 8.24908 9.68217 8.40518 9.75085 8.6487C9.81954 8.89221 9.83827 9.20441 9.83827 9.28558C9.83827 9.36675 9.88198 9.34802 10.0069 9.28558C10.3003 9.14197 10.625 8.75484 10.625 8.75484C10.5875 8.99836 10.2691 9.2169 10.2379 9.44792C10.163 10.0848 9.5448 10.3908 8.01503 10.3908H8.00879H8.04625" fill="#CCAC8D"/>
<path d="M9.00905 6.81296C9.06525 7.00652 9.26505 7.66213 8.87793 7.4436C8.87793 7.4436 9.04027 7.53726 9.14018 7.89316C9.24632 8.24907 9.50233 8.29277 9.50233 8.29277C9.50233 8.29277 9.92067 8.37395 10.2329 8.10546C10.4951 7.88067 10.5388 7.48106 10.4264 7.17511C10.314 6.8754 10.1142 6.78174 9.82077 6.7193C9.5273 6.65061 8.94037 6.59442 9.00905 6.81296Z" fill="#CCAC8D"/>
<path d="M9.75064 8.07426C10.0541 8.07426 10.3001 7.82825 10.3001 7.52479C10.3001 7.22132 10.0541 6.97532 9.75064 6.97532C9.44718 6.97532 9.20117 7.22132 9.20117 7.52479C9.20117 7.82825 9.44718 8.07426 9.75064 8.07426Z" fill="black"/>
<path d="M9.6065 7.42487C9.68582 7.42487 9.75011 7.36057 9.75011 7.28126C9.75011 7.20195 9.68582 7.13765 9.6065 7.13765C9.52719 7.13765 9.46289 7.20195 9.46289 7.28126C9.46289 7.36057 9.52719 7.42487 9.6065 7.42487Z" fill="white"/>
<path d="M8.91527 7.49979C8.91527 7.49979 9.40854 7.83697 9.67703 8.1679C9.94552 8.49883 9.93928 8.56127 9.93928 8.56127L9.74572 8.64868C9.74572 8.64868 9.47098 8.13043 9.13381 7.93687C8.79039 7.74331 8.75293 7.58097 8.75293 7.58097L8.91527 7.49979Z" fill="#EFCCA3"/>
<path d="M8.04099 7.3C7.7725 7.30625 7.57269 7.47483 7.39162 7.63093C7.18557 7.81201 6.82342 7.93689 6.67981 8.09299C6.5362 8.24908 6.34264 8.40518 6.27395 8.6487C6.20527 8.89221 6.18029 9.20441 6.18029 9.28558C6.18029 9.36675 6.19278 9.373 6.01171 9.28558C5.71824 9.14821 5.39355 8.75484 5.39355 8.75484C5.43102 8.99836 5.74946 9.2169 5.78068 9.44792C5.8681 10.0848 6.48625 10.3908 8.01602 10.3908H8.02226H8.04724" fill="#CCAC8D"/>
<path d="M9.48899 8.35522C9.18928 7.98683 8.70849 7.64341 8.04039 7.64341H8.03415C7.36604 7.64341 6.88526 7.98683 6.58555 8.35522C6.27335 8.7361 6.29833 8.88596 6.29833 9.24811C6.29833 10.5593 6.76038 10.1847 7.06633 10.347C7.37853 10.5031 7.70322 10.4532 8.03415 10.4532H8.04039C8.37756 10.4532 8.69601 10.4969 9.0082 10.3408C9.31416 10.1847 9.77621 10.5718 9.77621 9.26059C9.78245 8.89844 9.80119 8.7361 9.48899 8.35522Z" fill="#56332B"/>
<path d="M8.01003 7.96809C8.01003 7.96809 7.96632 8.57376 7.87891 8.69239L8.04125 8.65493L8.01003 7.96809Z" fill="#442823"/>
<path d="M8.05368 7.96809C8.05368 7.96809 8.09739 8.57376 8.1848 8.69239L8.02246 8.65493L8.05368 7.96809Z" fill="#442823"/>
<path d="M7.52894 7.82448C7.46651 7.68087 7.69129 7.44984 8.04719 7.4436C8.4031 7.4436 8.62788 7.67462 8.56544 7.82448C8.503 7.97433 8.27822 8.01804 8.04719 8.02428C7.82241 8.01804 7.59138 7.97433 7.52894 7.82448Z" fill="#56332B"/>
<path d="M8.04592 7.96811C8.04592 7.94313 8.25821 7.93689 8.37061 7.86196C8.37061 7.86196 8.13958 7.93689 8.08963 7.90567C8.03968 7.88069 8.02719 7.80576 8.02719 7.80576C8.02719 7.80576 8.00846 7.88069 7.97099 7.90567C7.92729 7.93064 7.66504 7.86196 7.66504 7.86196C7.66504 7.86196 8.0147 7.94937 8.0147 7.96811C8.0147 7.98684 8.00846 8.04928 8.00846 8.09299C8.00846 8.24908 8.00846 8.63621 8.03343 8.66743C8.0709 8.72362 8.05841 8.24908 8.05841 8.09299C8.05216 8.04303 8.05216 7.99308 8.04592 7.96811Z" fill="black"/>
<path d="M8.06024 8.80479C8.16639 8.80479 8.35371 8.87972 8.52229 8.99835C8.35995 8.81728 8.16639 8.6924 8.06024 8.6924C7.94785 8.6924 7.71058 8.82976 7.54199 9.02957C7.71682 8.8922 7.94161 8.80479 8.06024 8.80479Z" fill="#7F4A41"/>
<path d="M8.01494 9.90998C7.77767 9.90998 7.54664 9.83505 7.33435 9.77885C7.29064 9.76637 7.24693 9.79759 7.20322 9.7851C6.80986 9.66022 6.49141 9.44792 6.29785 9.17943C6.29785 9.19817 6.29785 9.22314 6.29785 9.24187C6.29785 10.5531 6.7599 10.1847 7.06586 10.3408C7.37806 10.4969 7.70274 10.447 8.03367 10.447H8.03991C8.37709 10.447 8.69553 10.4907 9.00773 10.3346C9.31368 10.1785 9.77573 10.5593 9.77573 9.24812C9.77573 9.19817 9.77573 9.14822 9.78198 9.10451C9.6009 9.39797 9.26997 9.629 8.85787 9.76637C8.82041 9.77885 8.73299 9.74763 8.69553 9.75388C8.47075 9.82881 8.27094 9.90998 8.01494 9.90998Z" fill="#442823"/>
<path d="M7.42305 9.2044C7.42305 9.2044 7.26696 9.6727 7.3731 9.87875L7.22949 9.81631C7.22949 9.81631 7.33564 9.34177 7.42305 9.2044Z" fill="#442823"/>
<path d="M8.65918 9.2044C8.65918 9.2044 8.81528 9.6727 8.70913 9.87875L8.85274 9.81631C8.85274 9.81631 8.74035 9.34177 8.65918 9.2044Z" fill="#442823"/>
<path d="M7.02231 6.81296C6.96611 7.00652 6.7663 7.66213 7.15343 7.4436C7.15343 7.4436 6.99109 7.53726 6.89118 7.89316C6.79128 8.24907 6.52903 8.29277 6.52903 8.29277C6.52903 8.29277 6.11069 8.37395 5.79849 8.10546C5.53625 7.88067 5.49254 7.48106 5.60493 7.17511C5.71732 6.86915 5.91713 6.78174 6.21059 6.7193C6.50406 6.65061 7.08475 6.59442 7.02231 6.81296Z" fill="#CCAC8D"/>
<path d="M8.04014 8.6924C8.20873 8.6924 8.73322 9.05455 8.73947 9.49787C8.73947 9.49163 8.73947 9.48538 8.73947 9.47289C8.73947 9.01084 8.31488 8.64245 8.04014 8.64245C7.76541 8.64245 7.34082 9.01709 7.34082 9.47289C7.34082 9.47914 7.34082 9.48538 7.34082 9.49787C7.34706 9.05455 7.87156 8.6924 8.04014 8.6924Z" fill="black"/>
<path d="M8.1762 7.8279C8.20291 7.82101 8.21409 7.77482 8.20118 7.72473C8.18826 7.67465 8.15614 7.63963 8.12942 7.64652C8.10271 7.6534 8.09153 7.69959 8.10444 7.74968C8.11736 7.79977 8.14948 7.83479 8.1762 7.8279Z" fill="#331712"/>
<path d="M7.85549 7.82696C7.88184 7.83514 7.91562 7.80171 7.93095 7.75231C7.94627 7.70291 7.93734 7.65623 7.91099 7.64806C7.88464 7.63988 7.85086 7.6733 7.83553 7.72271C7.8202 7.77211 7.82914 7.81879 7.85549 7.82696Z" fill="#331712"/>
<path d="M6.31119 8.07426C6.61465 8.07426 6.86065 7.82825 6.86065 7.52479C6.86065 7.22132 6.61465 6.97532 6.31119 6.97532C6.00772 6.97532 5.76172 7.22132 5.76172 7.52479C5.76172 7.82825 6.00772 8.07426 6.31119 8.07426Z" fill="black"/>
<path d="M6.45513 7.42488C6.53445 7.42488 6.59875 7.36058 6.59875 7.28127C6.59875 7.20195 6.53445 7.13766 6.45513 7.13766C6.37582 7.13766 6.31152 7.20195 6.31152 7.28127C6.31152 7.36058 6.37582 7.42488 6.45513 7.42488Z" fill="white"/>
<path d="M8.20199 7.53103C8.20199 7.52479 8.05838 7.59347 8.02092 7.59972C7.98345 7.59347 7.83984 7.52479 7.83984 7.53103C7.83984 7.53103 7.95848 7.53103 8.02092 7.53103C8.08336 7.53103 8.20199 7.53103 8.20199 7.53103Z" fill="#7F4A41"/>
<path d="M7.10996 7.49979C7.10996 7.49979 6.61669 7.83697 6.3482 8.1679C6.07971 8.49883 6.08595 8.56127 6.08595 8.56127L6.27951 8.64868C6.27951 8.64868 6.55425 8.13043 6.89142 7.93687C7.22859 7.74331 7.2723 7.58097 7.2723 7.58097L7.10996 7.49979Z" fill="#EFCCA3"/>
<path d="M6.03053 6.50077C6.03053 6.50077 5.86194 6.96282 5.4873 7.15639C5.4873 7.15639 6.07424 7.0877 6.03053 6.50077Z" fill="#CCAC8D"/>
<path d="M9.9701 6.50077C9.9701 6.50077 10.1387 6.96282 10.5133 7.15639C10.5133 7.15639 9.92639 7.0877 9.9701 6.50077Z" fill="#CCAC8D"/>
<path d="M8.90225 7.36244C8.90225 7.36244 8.53386 6.97531 8.04058 6.96282C8.03434 6.96282 8.05307 6.96282 8.04683 6.96282C8.04058 6.96282 8.05307 6.96282 8.05307 6.96282C7.55356 6.97531 7.19141 7.36244 7.19141 7.36244C7.62224 7.06273 7.99063 7.06897 8.05307 7.06897C8.04683 7.06897 8.47142 7.06273 8.90225 7.36244Z" fill="#CCAC8D"/>
<path d="M8.47163 6.55071C8.47163 6.55071 8.28431 6.28846 8.03456 6.28222H8.0408H8.04704C7.85973 6.28846 7.61621 6.55071 7.61621 6.55071C7.82851 6.34466 8.04704 6.3509 8.04704 6.3509C8.04704 6.3509 8.25309 6.34466 8.47163 6.55071Z" fill="#CCAC8D"/>
<path d="M6.31154 8.46761C6.31154 8.46761 6.01807 8.61122 5.80578 8.52381H5.79953C5.61221 8.41766 5.51855 8.09922 5.51855 8.09922C5.51855 8.09922 5.70587 8.66118 6.31154 8.46761Z" fill="#CCAC8D"/>
<path d="M9.7334 8.46761C9.7334 8.46761 10.0269 8.61122 10.2392 8.52381C10.4889 8.41766 10.5264 8.09922 10.5264 8.09922C10.5264 8.09922 10.3391 8.66118 9.7334 8.46761Z" fill="#CCAC8D"/>
<path d="M6.64844 6.46954C6.81078 6.43832 7.07927 6.43208 7.29157 6.50076C7.56006 6.59442 7.34152 6.93784 7.39771 6.95657C7.45391 6.9753 7.52883 6.7193 8.02835 6.74428C8.53411 6.76925 8.59031 6.99404 8.65899 6.95657C8.72767 6.91911 8.59031 6.33218 9.34583 6.46954C9.34583 6.46954 8.55284 6.25725 8.59031 6.83169C8.59031 6.83169 8.1345 6.48203 7.49762 6.79423C7.50386 6.79423 7.6662 6.25725 6.64844 6.46954Z" fill="#CCAC8D"/>
<path d="M9.41406 6.46956C9.42655 6.46956 9.43279 6.4758 9.43904 6.4758C9.44528 6.4758 9.43279 6.46956 9.41406 6.46956Z" fill="#CCAC8D"/>
<path d="M6.42975 5.70153C6.42975 5.70153 5.7554 6.55071 5.6555 6.87539C5.5556 7.20632 5.48067 8.56126 5.39325 8.75482L5.08105 7.41862L5.6555 6.02622L6.42975 5.70153Z" fill="#CCAC8D"/>
<path d="M9.60156 5.70153C9.60156 5.70153 10.2759 6.55071 10.3758 6.87539C10.4757 7.20632 10.5506 8.56126 10.6381 8.75482L10.9503 7.41862L10.3758 6.02622L9.60156 5.70153Z" fill="#CCAC8D"/>
<path d="M9.56956 5.70155C9.56956 5.70155 10.2939 6.30721 10.5061 7.00653C10.7184 7.70586 10.631 8.55503 10.7934 8.66118C11.0244 8.81104 11.2866 7.91815 11.3741 7.82449C11.5114 7.67464 11.9672 7.29376 11.9985 7.22507C12.0297 7.15639 11.0743 6.11365 10.656 5.9076C10.1502 5.67033 9.52585 5.6516 9.56956 5.70155Z" fill="#56332B"/>
<path d="M10.1885 6.07619C10.1885 6.07619 11.0439 7.16888 11.0314 8.53006L11.3748 7.83074C11.3686 7.83074 11.0689 6.93785 10.1885 6.07619Z" fill="#442823"/>
<path d="M6.42965 5.70155C6.42965 5.70155 5.70535 6.30721 5.49305 7.00653C5.28076 7.70586 5.36817 8.55503 5.20583 8.66118C4.9748 8.81104 4.71256 7.91815 4.62514 7.82449C4.48778 7.67464 4.03197 7.29376 4.00075 7.22507C3.96953 7.15639 4.92485 6.11365 5.3432 5.9076C5.84896 5.67033 6.47335 5.6516 6.42965 5.70155Z" fill="#56332B"/>
<path d="M5.81194 6.07619C5.81194 6.07619 4.95652 7.16888 4.96901 8.53006L4.63184 7.83074C4.63184 7.83074 4.93155 6.93785 5.81194 6.07619Z" fill="#442823"/>
<path d="M5.34863 8.55503C5.34863 8.55503 5.41107 8.89221 5.51098 8.99835C5.61088 9.1045 5.5422 8.91718 5.5422 8.91718C5.5422 8.91718 5.43605 8.86099 5.45478 8.43015C5.47351 7.99932 5.34863 8.55503 5.34863 8.55503Z" fill="#CCAC8D"/>
<path d="M10.6746 8.55503C10.6746 8.55503 10.6122 8.89221 10.5122 8.99835C10.4123 9.1045 10.481 8.91718 10.481 8.91718C10.481 8.91718 10.5872 8.86099 10.5684 8.43015C10.5497 7.99932 10.6746 8.55503 10.6746 8.55503Z" fill="#CCAC8D"/>
<path d="M7.38882 8.34898C7.41641 8.34898 7.43877 8.32662 7.43877 8.29903C7.43877 8.27144 7.41641 8.24908 7.38882 8.24908C7.36123 8.24908 7.33887 8.27144 7.33887 8.29903C7.33887 8.32662 7.36123 8.34898 7.38882 8.34898Z" fill="#442823"/>
<path d="M7.10269 8.64869C7.13027 8.64869 7.15264 8.62632 7.15264 8.59873C7.15264 8.57115 7.13027 8.54878 7.10269 8.54878C7.0751 8.54878 7.05273 8.57115 7.05273 8.59873C7.05273 8.62632 7.0751 8.64869 7.10269 8.64869Z" fill="#442823"/>
<path d="M7.00894 8.34898C7.03652 8.34898 7.05889 8.32662 7.05889 8.29903C7.05889 8.27144 7.03652 8.24908 7.00894 8.24908C6.98135 8.24908 6.95898 8.27144 6.95898 8.29903C6.95898 8.32662 6.98135 8.34898 7.00894 8.34898Z" fill="#442823"/>
<path d="M8.60855 8.34898C8.63613 8.34898 8.6585 8.32662 8.6585 8.29903C8.6585 8.27144 8.63613 8.24908 8.60855 8.24908C8.58096 8.24908 8.55859 8.27144 8.55859 8.29903C8.55859 8.32662 8.58096 8.34898 8.60855 8.34898Z" fill="#442823"/>
<path d="M8.89663 8.64868C8.92422 8.64868 8.94658 8.62631 8.94658 8.59873C8.94658 8.57114 8.92422 8.54877 8.89663 8.54877C8.86904 8.54877 8.84668 8.57114 8.84668 8.59873C8.84668 8.62631 8.86904 8.64868 8.89663 8.64868Z" fill="#442823"/>
<path d="M8.99038 8.34897C9.01797 8.34897 9.04033 8.32661 9.04033 8.29902C9.04033 8.27143 9.01797 8.24907 8.99038 8.24907C8.96279 8.24907 8.94043 8.27143 8.94043 8.29902C8.94043 8.32661 8.96279 8.34897 8.99038 8.34897Z" fill="#442823"/>
</svg>
