<svg width="16" height="16" viewBox="0 0 16 16" fill="none" xmlns="http://www.w3.org/2000/svg">
<rect x="2" y="2" width="12" height="12" rx="3" fill="white"/>
<path fill-rule="evenodd" clip-rule="evenodd" d="M10.3798 9.62708C10.4338 10.3203 10.4338 10.6453 10.4338 11H8.82868C8.82868 10.9227 8.83006 10.852 8.83146 10.7804C8.83581 10.5576 8.84034 10.3252 8.80421 9.85605C8.75646 9.16914 8.46044 9.0165 7.91614 9.0165H7.43392H5.3916V7.76671H7.99254C8.68007 7.76671 9.02384 7.55771 9.02384 7.00437C9.02384 6.51781 8.68007 6.22296 7.99254 6.22296H5.3916V5H8.27901C9.83551 5 10.609 5.73461 10.609 6.90807C10.609 7.78579 10.0647 8.35821 9.32943 8.45361C9.95011 8.57764 10.313 8.93063 10.3798 9.62708Z" fill="black"/>
<path d="M5.3916 11V10.0683H7.0888C7.37229 10.0683 7.43385 10.2784 7.43385 10.4037V11H5.3916Z" fill="black"/>
</svg>
