<svg width="16" height="16" viewBox="0 0 16 16" fill="none" xmlns="http://www.w3.org/2000/svg">
<rect x="2" y="2" width="12" height="12" rx="3" fill="#FF3E00"/>
<g clip-path="url(#clip0_132_694)">
<path fill-rule="evenodd" clip-rule="evenodd" d="M7.72508 5.267C8.52067 4.76011 9.62108 4.99646 10.1782 5.79388H10.1785C10.3107 5.97894 10.4046 6.18855 10.4547 6.4104C10.5048 6.63225 10.5101 6.86188 10.4703 7.0858C10.4317 7.29962 10.3502 7.5034 10.2306 7.68484C10.405 8.01759 10.4634 8.399 10.3967 8.7687C10.3573 8.98821 10.2726 9.19709 10.1479 9.38198C10.0232 9.56686 9.86128 9.72369 9.67251 9.84243L8.27521 10.733C7.47972 11.2401 6.37926 11.0036 5.82212 10.2061C5.68993 10.021 5.59602 9.81144 5.5459 9.58959C5.49578 9.36775 5.49047 9.13813 5.53026 8.9142C5.56889 8.70034 5.65048 8.49654 5.7701 8.31511C5.59555 7.98243 5.53696 7.60103 5.6036 7.2313C5.64301 7.01177 5.72781 6.80288 5.85256 6.618C5.97731 6.43311 6.13928 6.27629 6.3281 6.15757L7.72508 5.267ZM6.9236 10.2477C7.13664 10.3266 7.36877 10.3383 7.58866 10.2812C7.68912 10.2543 7.78487 10.2122 7.87259 10.1564L9.27 9.26616C9.38351 9.19473 9.48088 9.10041 9.55587 8.98922C9.63086 8.87803 9.68184 8.75242 9.70554 8.62041C9.72947 8.48577 9.72626 8.3477 9.69612 8.21431C9.66597 8.08092 9.60949 7.95489 9.52998 7.84362C9.40049 7.65695 9.21683 7.51451 9.00381 7.43554C8.79078 7.35657 8.55865 7.34487 8.33877 7.40204C8.23831 7.42884 8.14255 7.4709 8.05484 7.52675L7.5217 7.8665C7.49519 7.88327 7.46629 7.89592 7.43598 7.904C7.36971 7.92119 7.29976 7.91763 7.23558 7.8938C7.17139 7.86998 7.11606 7.82703 7.07705 7.77077C7.05313 7.7372 7.03613 7.69919 7.02706 7.65898C7.01799 7.61876 7.01703 7.57714 7.02423 7.53655C7.03138 7.4968 7.04673 7.45897 7.06932 7.42548C7.09191 7.392 7.12124 7.3636 7.15543 7.34209L8.55305 6.45136C8.57955 6.43456 8.60845 6.42192 8.63877 6.41386C8.70503 6.39663 8.77498 6.40016 8.83917 6.42396C8.90336 6.44777 8.9587 6.49071 8.9977 6.54698C9.04038 6.60742 9.06034 6.681 9.05405 6.75473L9.04923 6.80659L9.1012 6.82234C9.29757 6.88163 9.48237 6.97403 9.64763 7.09555L9.7192 7.148L9.7455 7.06764C9.7596 7.02497 9.77077 6.98139 9.77893 6.9372C9.80284 6.80255 9.79963 6.66449 9.76949 6.5311C9.73934 6.39771 9.68287 6.27169 9.60338 6.16041C9.47387 5.97374 9.2902 5.8313 9.07717 5.75233C8.86414 5.67336 8.632 5.66166 8.41211 5.71882C8.31166 5.74569 8.21591 5.78776 8.12818 5.84359L6.73077 6.73411C6.61719 6.80546 6.51976 6.89972 6.4447 7.01088C6.36964 7.12204 6.3186 7.24763 6.29486 7.37964C6.27093 7.51429 6.27413 7.65235 6.30428 7.78574C6.33442 7.91913 6.39091 8.04516 6.47041 8.15643C6.59991 8.34311 6.78358 8.48555 6.99662 8.56452C7.20965 8.64349 7.44179 8.65518 7.66168 8.59802C7.76211 8.57118 7.85786 8.52916 7.94561 8.47341L8.4788 8.1335C8.5053 8.11671 8.53421 8.10407 8.56452 8.096C8.63079 8.07881 8.70074 8.08236 8.76493 8.10619C8.82912 8.13001 8.88445 8.17296 8.92345 8.22923C8.94738 8.26279 8.96438 8.30078 8.97347 8.34099C8.98255 8.38119 8.98354 8.4228 8.97638 8.46339C8.9692 8.50316 8.95382 8.54099 8.93121 8.57448C8.9086 8.60797 8.87927 8.63638 8.84507 8.65791L7.44782 9.54859C7.42133 9.56538 7.39242 9.57803 7.36211 9.58609C7.29585 9.60333 7.22589 9.5998 7.1617 9.57599C7.09751 9.55219 7.04217 9.50924 7.00318 9.45296C6.96045 9.3926 6.94046 9.31906 6.94677 9.24538L6.95154 9.19352L6.89963 9.17777C6.70326 9.11847 6.51846 9.02607 6.3532 8.90455L6.28157 8.852L6.25527 8.93236C6.24114 8.97502 6.22999 9.0186 6.22189 9.0628C6.19797 9.19744 6.20117 9.33551 6.23131 9.46889C6.26145 9.60228 6.31791 9.72831 6.39739 9.83959C6.5269 10.0263 6.71057 10.1687 6.9236 10.2477Z" fill="black"/>
</g>
<defs>
<clipPath id="clip0_132_694">
<rect width="4.99414" height="6" fill="white" transform="translate(5.50293 5)"/>
</clipPath>
</defs>
</svg>
