<svg width="16" height="16" viewBox="0 0 16 16" fill="none" xmlns="http://www.w3.org/2000/svg">
<rect x="2" y="2" width="12" height="12" rx="3" fill="#FFCE26"/>
<path d="M10.9765 5.88805L8.16158 10.9217C8.10346 11.0256 7.95414 11.0262 7.89515 10.9228L5.02437 5.88853C4.96011 5.77583 5.05648 5.63932 5.18419 5.66215L8.00216 6.16584C8.02014 6.16906 8.03855 6.16903 8.05652 6.16575L10.8156 5.66287C10.9428 5.63967 11.0397 5.77513 10.9765 5.88805Z" fill="url(#paint0_linear_132_728)"/>
<path d="M7.27084 5.45873L7.27084 5.45873C7.25898 5.46105 7.2502 5.4711 7.24948 5.48316L7.27084 5.45873ZM7.27084 5.45873L9.35399 5.05054C9.37344 5.04673 9.39004 5.06483 9.38455 5.08389C9.38455 5.08389 9.38455 5.08389 9.38455 5.0839L8.9949 6.43464C8.96872 6.52542 9.04766 6.6118 9.14041 6.59392L9.14042 6.59391L9.73741 6.4787C9.759 6.47453 9.77596 6.49694 9.76612 6.51657L9.76612 6.51658L8.06989 9.90171L8.04066 9.94688L8.04066 9.94688C8.02473 9.9715 7.98654 9.95585 7.99247 9.92713L7.94672 9.91767L7.99247 9.92713L8.26631 8.60175C8.26631 8.60174 8.26631 8.60174 8.26631 8.60174C8.28574 8.50773 8.19748 8.42724 8.10567 8.45511L8.10566 8.45511L7.74744 8.56395C7.72824 8.56978 7.70976 8.55296 7.71378 8.53329L7.88609 7.68952C7.88609 7.68951 7.88609 7.68951 7.88609 7.68951C7.90453 7.59926 7.82344 7.52024 7.73372 7.54093L7.73372 7.54094L7.15374 7.67478C7.15374 7.67478 7.15374 7.67478 7.15374 7.67478C7.13652 7.67875 7.1203 7.66506 7.12134 7.6474C7.12134 7.64739 7.12134 7.64739 7.12134 7.64739L7.24948 5.48317L7.27084 5.45873Z" fill="white" stroke="black" stroke-width="0.1"/>
<defs>
<linearGradient id="paint0_linear_132_728" x1="4.95428" y1="5.48225" x2="8.45772" y2="10.2402" gradientUnits="userSpaceOnUse">
<stop stop-color="#41D1FF"/>
<stop offset="1" stop-color="#BD34FE"/>
</linearGradient>
</defs>
</svg>
