<svg width="16" height="16" viewBox="0 0 16 16" fill="none" xmlns="http://www.w3.org/2000/svg">
<rect x="2" y="2" width="12" height="12" rx="3" fill="#FCC72B"/>
<path d="M9.50259 6.92281L8.0682 8.99675C8.05299 9.01874 8.031 9.03521 8.00556 9.04367C7.98011 9.05212 7.95261 9.05204 7.92722 9.04355C7.90183 9.03501 7.87994 9.01846 7.86486 8.99643C7.84979 8.97436 7.84236 8.94801 7.8437 8.92137L7.90111 7.77634L6.97433 7.57979C6.95453 7.5756 6.93607 7.5666 6.92061 7.5536C6.90514 7.54061 6.89313 7.52401 6.88565 7.50528C6.87818 7.48655 6.87546 7.46626 6.87774 7.44622C6.88001 7.42619 6.88722 7.40701 6.89871 7.39039L8.33312 5.31644C8.34833 5.29444 8.37033 5.27797 8.39577 5.26953C8.42122 5.26109 8.44872 5.26113 8.47411 5.26966C8.49951 5.27819 8.5214 5.29473 8.53647 5.31678C8.55154 5.33883 8.55897 5.36518 8.55763 5.39184L8.50022 6.53688L9.42698 6.73342C9.44679 6.73761 9.46524 6.74661 9.48072 6.7596C9.4962 6.7726 9.50819 6.7892 9.51565 6.80793C9.52315 6.82666 9.52585 6.84695 9.52359 6.86698C9.52133 6.88702 9.5141 6.90619 9.50259 6.92281Z" fill="black"/>
<path d="M8.00071 10.7368C7.96256 10.7368 7.92477 10.7293 7.88953 10.7147C7.85428 10.7001 7.82227 10.6787 7.79533 10.6517L6.43998 9.29646C6.38576 9.24196 6.35537 9.16818 6.35547 9.09129C6.35557 9.01441 6.38616 8.94066 6.44053 8.88632C6.4949 8.83194 6.56861 8.80134 6.6455 8.80122C6.72239 8.80114 6.79618 8.83151 6.8507 8.88573L8.00071 10.0356L10.506 7.53042C10.5606 7.47669 10.6343 7.44671 10.7109 7.44702C10.7875 7.44733 10.8609 7.47791 10.915 7.53208C10.9692 7.58626 10.9998 7.65965 11.0001 7.73627C11.0004 7.81289 10.9705 7.88652 10.9167 7.94114L8.20604 10.6517C8.17911 10.6787 8.1471 10.7001 8.11186 10.7147C8.07662 10.7293 8.03885 10.7368 8.00071 10.7368Z" fill="#729B1B"/>
<path d="M7.99942 10.7368C8.03757 10.7368 8.07535 10.7293 8.1106 10.7147C8.14585 10.7001 8.17786 10.6787 8.2048 10.6517L9.56015 9.29646C9.61436 9.24196 9.64477 9.16818 9.64465 9.09129C9.64457 9.01441 9.61397 8.94066 9.55959 8.88632C9.50521 8.83194 9.4315 8.80134 9.35462 8.80122C9.27774 8.80114 9.20395 8.83151 9.14941 8.88573L7.99942 10.0356L5.49412 7.53042C5.4395 7.47669 5.36586 7.44671 5.28925 7.44702C5.21263 7.44733 5.13924 7.47791 5.08507 7.53208C5.03089 7.58626 5.00031 7.65965 5 7.73627C4.99969 7.81289 5.02967 7.88652 5.0834 7.94114L7.79408 10.6517C7.82102 10.6787 7.85303 10.7001 7.88826 10.7147C7.9235 10.7293 7.96128 10.7368 7.99942 10.7368Z" fill="#729B1B" fill-opacity="0.5"/>
</svg>
