<svg width="16" height="16" viewBox="0 0 16 16" fill="none" xmlns="http://www.w3.org/2000/svg">
<rect x="2" y="2" width="12" height="12" rx="3" fill="#470137"/>
<path d="M9.88921 5.36689L9.75276 7.50959L8.44813 4.7L9.88921 5.36689ZM8.98558 8.13752L7.99979 8.7L7.01399 8.13752L7.21449 7.65161H8.78508L8.98558 8.13752ZM7.99979 5.76647L8.51634 7.02231H7.48322L7.99979 5.76647ZM6.24541 7.50959L6.11035 5.36689L7.55144 4.7L6.24541 7.50959Z" fill="#FF61F6"/>
<path d="M4.93894 11.3C4.76127 11.3 4.60828 11.281 4.47997 11.243C4.35165 11.2048 4.25049 11.1492 4.17646 11.0758C4.10243 11.0018 4.05766 10.9119 4.04215 10.8062L4.04004 10.7904H4.55082L4.55293 10.7977C4.55998 10.828 4.57937 10.8541 4.6111 10.876C4.64353 10.8972 4.68759 10.9137 4.7433 10.9257C4.79898 10.937 4.86667 10.9426 4.94634 10.9426C5.00908 10.9426 5.06302 10.9374 5.10814 10.9268C5.15396 10.9154 5.18921 10.8996 5.21389 10.8792C5.23856 10.8587 5.25091 10.8352 5.25091 10.8084V10.8073C5.25091 10.7734 5.23575 10.7488 5.20543 10.7332C5.17512 10.7177 5.12225 10.7058 5.04681 10.6972L4.65764 10.6687C4.45881 10.6497 4.31182 10.6027 4.21665 10.528C4.12216 10.4526 4.07494 10.3483 4.07494 10.2151V10.2129C4.07494 10.1058 4.10737 10.014 4.17222 9.93797C4.23779 9.86108 4.33121 9.8022 4.45247 9.76132C4.57374 9.72044 4.71827 9.7 4.88606 9.7C5.05456 9.7 5.19874 9.71935 5.31859 9.7582C5.43915 9.79624 5.53432 9.8512 5.60413 9.92321C5.67392 9.99509 5.71728 10.0815 5.7342 10.1823L5.73737 10.1992H5.23188L5.22975 10.1907C5.222 10.161 5.20402 10.1368 5.17582 10.1177C5.14833 10.098 5.11096 10.0832 5.06373 10.0733C5.01649 10.0628 4.95973 10.0575 4.89347 10.0575C4.8279 10.0575 4.7736 10.0624 4.7306 10.0722C4.68759 10.0815 4.65516 10.0951 4.63331 10.1135C4.61145 10.1311 4.60053 10.1522 4.60053 10.177V10.178C4.60053 10.2118 4.61674 10.2373 4.64918 10.2542C4.68231 10.2711 4.73695 10.2834 4.81309 10.2911L5.20966 10.3208C5.33727 10.3335 5.44302 10.3577 5.52692 10.3937C5.61081 10.4291 5.67322 10.4777 5.7141 10.5397C5.75569 10.601 5.7765 10.6765 5.7765 10.766V10.7671C5.7765 10.877 5.74336 10.9723 5.67709 11.0526C5.61081 11.1323 5.51529 11.1936 5.3905 11.2366C5.26572 11.2789 5.11519 11.3 4.93894 11.3Z" fill="#FF61F6"/>
<path d="M5.97656 11.3L6.66848 9.7H7.20515V10.1069H7.02553L6.56203 11.3H5.97656ZM6.38572 10.9917L6.53098 10.638H7.50897L7.65203 10.9917H6.38572ZM7.50121 11.3L7.03772 10.1069V9.7H7.39365L8.08668 11.3H7.50121Z" fill="#FF61F6"/>
<path d="M9.18503 11.3C9.00736 11.3 8.85438 11.281 8.72607 11.243C8.59774 11.2048 8.49658 11.1492 8.42255 11.0758C8.34852 11.0018 8.30376 10.9119 8.28824 10.8062L8.28613 10.7904H8.79691L8.79903 10.7977C8.80608 10.828 8.82546 10.8541 8.85719 10.876C8.88963 10.8972 8.93369 10.9137 8.98939 10.9257C9.04508 10.937 9.11276 10.9426 9.19243 10.9426C9.25518 10.9426 9.30912 10.9374 9.35423 10.9268C9.40006 10.9154 9.4353 10.8996 9.45998 10.8792C9.48466 10.8587 9.497 10.8352 9.497 10.8084V10.8073C9.497 10.7734 9.48184 10.7488 9.45152 10.7332C9.42121 10.7177 9.36834 10.7058 9.2929 10.6972L8.90373 10.6687C8.70491 10.6497 8.55792 10.6027 8.46274 10.528C8.36826 10.4526 8.32103 10.3483 8.32103 10.2151V10.2129C8.32103 10.1058 8.35346 10.014 8.41832 9.93797C8.48389 9.86108 8.5773 9.8022 8.69856 9.76132C8.81983 9.72044 8.96436 9.7 9.13216 9.7C9.30066 9.7 9.44483 9.71935 9.56469 9.7582C9.68524 9.79624 9.78042 9.8512 9.85022 9.92321C9.92002 9.99509 9.96337 10.0815 9.98029 10.1823L9.98346 10.1992H9.47797L9.47585 10.1907C9.46809 10.161 9.45011 10.1368 9.42192 10.1177C9.39442 10.098 9.35705 10.0832 9.30982 10.0733C9.26258 10.0628 9.20582 10.0575 9.13956 10.0575C9.07399 10.0575 9.0197 10.0624 8.97669 10.0722C8.93369 10.0815 8.90125 10.0951 8.87941 10.1135C8.85754 10.1311 8.84662 10.1522 8.84662 10.177V10.178C8.84662 10.2118 8.86284 10.2373 8.89527 10.2542C8.92841 10.2711 8.98304 10.2834 9.05918 10.2911L9.45576 10.3208C9.58337 10.3335 9.68911 10.3577 9.77301 10.3937C9.85691 10.4291 9.91931 10.4777 9.96019 10.5397C10.0018 10.601 10.0226 10.6765 10.0226 10.766V10.7671C10.0226 10.877 9.98946 10.9723 9.92318 11.0526C9.85691 11.1323 9.76138 11.1936 9.63659 11.2366C9.51181 11.2789 9.36129 11.3 9.18503 11.3Z" fill="#FF61F6"/>
<path d="M11.1216 11.3C10.9439 11.3 10.7909 11.281 10.6626 11.243C10.5343 11.2048 10.4331 11.1492 10.3591 11.0758C10.285 11.0018 10.2403 10.9119 10.2248 10.8062L10.2227 10.7904H10.7334L10.7355 10.7977C10.7426 10.828 10.762 10.8541 10.7937 10.876C10.8261 10.8972 10.8702 10.9137 10.9259 10.9257C10.9816 10.937 11.0493 10.9426 11.129 10.9426C11.1917 10.9426 11.2456 10.9374 11.2908 10.9268C11.3366 10.9154 11.3718 10.8996 11.3965 10.8792C11.4212 10.8587 11.4335 10.8352 11.4335 10.8084V10.8073C11.4335 10.7734 11.4184 10.7488 11.388 10.7332C11.3577 10.7177 11.3049 10.7058 11.2294 10.6972L10.8403 10.6687C10.6414 10.6497 10.4944 10.6027 10.3993 10.528C10.3048 10.4526 10.2576 10.3483 10.2576 10.2151V10.2129C10.2576 10.1058 10.29 10.014 10.3548 9.93797C10.4204 9.86108 10.5138 9.8022 10.6351 9.76132C10.7564 9.72044 10.9009 9.7 11.0687 9.7C11.2372 9.7 11.3814 9.71935 11.5012 9.7582C11.6218 9.79624 11.7169 9.8512 11.7867 9.92321C11.8565 9.99509 11.8999 10.0815 11.9168 10.1823L11.92 10.1992H11.4145L11.4124 10.1907C11.4046 10.161 11.3866 10.1368 11.3584 10.1177C11.3309 10.098 11.2936 10.0832 11.2463 10.0733C11.1991 10.0628 11.1423 10.0575 11.0761 10.0575C11.0105 10.0575 10.9562 10.0624 10.9132 10.0722C10.8702 10.0815 10.8378 10.0951 10.8159 10.1135C10.7941 10.1311 10.7831 10.1522 10.7831 10.177V10.178C10.7831 10.2118 10.7994 10.2373 10.8318 10.2542C10.8649 10.2711 10.9196 10.2834 10.9957 10.2911L11.3923 10.3208C11.5199 10.3335 11.6256 10.3577 11.7095 10.3937C11.7934 10.4291 11.8558 10.4777 11.8967 10.5397C11.9383 10.601 11.9591 10.6765 11.9591 10.766V10.7671C11.9591 10.877 11.926 10.9723 11.8597 11.0526C11.7934 11.1323 11.6979 11.1936 11.5731 11.2366C11.4483 11.2789 11.2978 11.3 11.1216 11.3Z" fill="#FF61F6"/>
</svg>
