<svg width="16" height="16" viewBox="0 0 16 16" fill="none" xmlns="http://www.w3.org/2000/svg">
<rect x="2" y="2" width="12" height="12" rx="3" fill="#013301"/>
<path d="M9.88921 5.16689L9.75276 7.3096L8.44813 4.5L9.88921 5.16689ZM8.98558 7.93752L7.99979 8.5L7.01399 7.93752L7.21449 7.45161H8.78508L8.98558 7.93752ZM7.99979 5.56648L8.51634 6.82231H7.48322L7.99979 5.56648ZM6.24541 7.3096L6.11035 5.16689L7.55144 4.5L6.24541 7.3096Z" fill="#33FF66"/>
<path d="M6.46816 11.5V10.0142H5.71973V9.5H7.90961V10.0142H7.16256V11.5H6.46816Z" fill="#33FF66"/>
<path d="M9.233 11.5C9.01092 11.5 8.81968 11.4763 8.65929 11.4288C8.49888 11.3811 8.37244 11.3115 8.2799 11.2198C8.18736 11.1272 8.13141 11.0149 8.11201 10.8827L8.10938 10.8629H8.74785L8.75049 10.8721C8.75931 10.91 8.78354 10.9426 8.8232 10.9701C8.86374 10.9964 8.91882 11.0171 8.98845 11.0321C9.05806 11.0462 9.14266 11.0533 9.24225 11.0533C9.32068 11.0533 9.38811 11.0467 9.4445 11.0335C9.50178 11.0193 9.54584 10.9995 9.57669 10.9739C9.60753 10.9484 9.62296 10.919 9.62296 10.8854V10.8841C9.62296 10.8418 9.60401 10.811 9.56611 10.7915C9.52823 10.7721 9.46213 10.7572 9.36784 10.7465L8.88137 10.7108C8.63284 10.6871 8.4491 10.6284 8.33014 10.535C8.21203 10.4408 8.153 10.3103 8.153 10.1438V10.1411C8.153 10.0073 8.19354 9.89255 8.2746 9.79746C8.35657 9.70135 8.47333 9.62775 8.62491 9.57665C8.7765 9.52555 8.95716 9.5 9.16691 9.5C9.37753 9.5 9.55775 9.5242 9.70757 9.57276C9.85826 9.6203 9.97723 9.689 10.0645 9.77902C10.1517 9.86887 10.2059 9.97682 10.2271 10.1029L10.231 10.124H9.59917L9.59652 10.1134C9.58682 10.0763 9.56435 10.046 9.5291 10.0222C9.49474 9.99746 9.44802 9.97902 9.38899 9.96667C9.32993 9.95347 9.25899 9.94687 9.17616 9.94687C9.0942 9.94687 9.02633 9.95296 8.97257 9.96531C8.91882 9.97682 8.87828 9.99391 8.85097 10.0169C8.82364 10.0389 8.80998 10.0653 8.80998 10.0963V10.0975C8.80998 10.1398 8.83026 10.1716 8.8708 10.1927C8.91222 10.2139 8.98051 10.2293 9.07569 10.2389L9.57141 10.276C9.73092 10.2919 9.8631 10.3222 9.96797 10.3672C10.0728 10.4113 10.1508 10.4721 10.2019 10.5496C10.2539 10.6262 10.28 10.7206 10.28 10.8325V10.8338C10.28 10.9712 10.2385 11.0904 10.1557 11.1907C10.0728 11.2904 9.95344 11.367 9.79745 11.4208C9.64147 11.4736 9.45332 11.5 9.233 11.5Z" fill="#33FF66"/>
</svg>
