<svg width="16" height="16" viewBox="0 0 16 16" fill="none" xmlns="http://www.w3.org/2000/svg">
<rect x="2" y="2" width="12" height="12" rx="3" fill="#470137"/>
<path d="M9.88921 4.66689L9.75276 6.8096L8.44813 4L9.88921 4.66689ZM8.98558 7.43752L7.99979 8L7.01399 7.43752L7.21449 6.95161H8.78508L8.98558 7.43752ZM7.99979 5.06648L8.51634 6.32231H7.48322L7.99979 5.06648ZM6.24541 6.8096L6.11035 4.66689L7.55144 4L6.24541 6.8096Z" fill="#FF61F6"/>
<path fill-rule="evenodd" clip-rule="evenodd" d="M8 9L9.3125 9.76034V11.2397L8 12L6.6875 11.2397V9.76034L8 9ZM6.96875 10.0856L7.85938 10.6016V11.5932L6.96875 11.0773V10.0856ZM8.14062 11.5932L9.03125 11.0773V10.0856L8.14062 10.6016V11.5932ZM8 10.3577L8.89111 9.84152L8 9.32529L7.10889 9.84152L8 10.3577Z" fill="#FF61F6"/>
</svg>
