<svg width="16" height="16" viewBox="0 0 16 16" fill="none" xmlns="http://www.w3.org/2000/svg">
<rect x="2" y="2" width="12" height="12" rx="3" fill="#470137"/>
<path d="M9.88921 4.66689L9.75276 6.8096L8.44813 4L9.88921 4.66689ZM8.98558 7.43752L7.99979 8L7.01399 7.43752L7.21449 6.95161H8.78508L8.98558 7.43752ZM7.99979 5.06648L8.51634 6.32231H7.48322L7.99979 5.06648ZM6.24541 6.8096L6.11035 4.66689L7.55144 4L6.24541 6.8096Z" fill="#FF61F6"/>
<path d="M8.31059 10.0127C8.30595 10.0945 8.29025 10.1753 8.26392 10.2529L9.38309 11.4313C9.44585 11.4975 9.48068 11.5852 9.48033 11.6764C9.48388 11.722 9.47595 11.7678 9.45727 11.8096C9.43859 11.8514 9.40974 11.8878 9.37337 11.9156C9.30086 11.9724 9.21085 12.0022 9.11877 11.9999C9.0267 11.9976 8.93829 11.9633 8.86872 11.9029L7.7476 10.7244C7.66845 10.7466 7.5867 10.758 7.50452 10.7585C7.37793 10.7644 7.25146 10.7446 7.13269 10.7005C7.01391 10.6563 6.90528 10.5886 6.8133 10.5015C6.72132 10.4143 6.64789 10.3094 6.59741 10.1932C6.54693 10.077 6.52044 9.95175 6.51953 9.82503C6.52313 9.74311 6.53886 9.66217 6.5662 9.58486C6.5662 9.54402 6.60704 9.54499 6.64691 9.56639L7.13794 10.1031C7.1449 10.1126 7.15398 10.1202 7.16445 10.1255C7.17493 10.1308 7.1865 10.1336 7.19823 10.1336C7.20996 10.1336 7.22153 10.1308 7.232 10.1255C7.24248 10.1202 7.25156 10.1126 7.25851 10.1031L7.6105 9.76961C7.62007 9.76052 7.62768 9.74959 7.63288 9.73747C7.63809 9.72535 7.64077 9.7123 7.64077 9.69911C7.64077 9.68592 7.63809 9.67287 7.63288 9.66075C7.62768 9.64863 7.62007 9.6377 7.6105 9.62862L7.12239 9.11424C7.10294 9.09383 7.10488 9.03354 7.14475 9.03451C7.22435 9.01461 7.30583 9.0032 7.38784 9.00048C7.51797 8.99623 7.64747 9.02025 7.76742 9.07089C7.88737 9.12153 7.99491 9.19758 8.08263 9.2938C8.17034 9.39002 8.23615 9.50412 8.27551 9.62823C8.31486 9.75234 8.32683 9.88351 8.31059 10.0127Z" fill="#FF61F6"/>
</svg>
