<svg width="16" height="16" viewBox="0 0 16 16" fill="none" xmlns="http://www.w3.org/2000/svg">
<rect x="2" y="2" width="12" height="12" rx="3" fill="#001E36"/>
<path d="M5.64636 9C5.3985 9 5.18467 8.95937 5.00487 8.87827C4.82574 8.79616 4.68776 8.68069 4.59075 8.5317C4.49373 8.38271 4.44531 8.20545 4.44531 7.99991V7.99737C4.44531 7.79268 4.49373 7.61593 4.59075 7.46694C4.68776 7.31795 4.82574 7.20283 5.00487 7.12173C5.18467 7.04063 5.3985 7 5.64636 7C5.85969 7 6.05066 7.03403 6.21895 7.10192C6.38826 7.16896 6.52455 7.26412 6.62782 7.38754C6.73093 7.51012 6.79171 7.6547 6.81033 7.82147L6.81287 7.84517H6.16088L6.15817 7.83196C6.14141 7.76153 6.10975 7.70143 6.06302 7.65216C6.01714 7.60272 5.9589 7.5648 5.8883 7.53839C5.81787 7.51198 5.73846 7.4986 5.65026 7.4986C5.54004 7.4986 5.44523 7.51892 5.36582 7.55955C5.28744 7.60002 5.22699 7.65792 5.18467 7.73275C5.14234 7.80691 5.12118 7.89511 5.12118 7.99737V7.99991C5.12118 8.10234 5.14234 8.19089 5.18467 8.26589C5.22699 8.34072 5.28777 8.39863 5.36718 8.43909C5.44658 8.47973 5.54139 8.49987 5.65161 8.49987C5.73897 8.49987 5.81736 8.48717 5.88711 8.46161C5.9567 8.4352 6.01494 8.39727 6.06167 8.34784C6.1084 8.29755 6.14056 8.23711 6.15817 8.16668L6.16088 8.15212H6.81287L6.81152 8.17328C6.79222 8.34174 6.73093 8.48768 6.62782 8.6111C6.52455 8.73453 6.38876 8.83019 6.22031 8.89808C6.05286 8.96597 5.86155 9 5.64636 9Z" fill="#31A8FF"/>
<path d="M8.13632 9C7.91424 9 7.723 8.97631 7.56261 8.92877C7.4022 8.88105 7.27576 8.81151 7.18322 8.7198C7.09068 8.62724 7.03473 8.51489 7.01533 8.38274L7.0127 8.36295H7.65117L7.65381 8.37208C7.66263 8.40998 7.68686 8.44264 7.72652 8.47005C7.76706 8.49645 7.82214 8.51709 7.89177 8.53215C7.96138 8.54619 8.04598 8.5533 8.14557 8.5533C8.224 8.5533 8.29143 8.5467 8.34782 8.5335C8.4051 8.51929 8.44916 8.49949 8.48001 8.47394C8.51085 8.44839 8.52628 8.41895 8.52628 8.38545V8.3841C8.52628 8.34179 8.50733 8.311 8.46943 8.29154C8.43155 8.27208 8.36545 8.25719 8.27116 8.24653L7.78469 8.21083C7.53616 8.18714 7.35242 8.12843 7.23346 8.03503C7.11535 7.94078 7.05632 7.81032 7.05632 7.64382V7.64112C7.05632 7.50728 7.09686 7.39255 7.17792 7.29746C7.25989 7.20135 7.37665 7.12775 7.52823 7.07665C7.67982 7.02555 7.86048 7 8.07023 7C8.28085 7 8.46107 7.0242 8.61089 7.07276C8.76158 7.1203 8.88055 7.189 8.96781 7.27902C9.05505 7.36887 9.10925 7.47682 9.1304 7.60288L9.13436 7.62403H8.50249L8.49984 7.61337C8.49014 7.57631 8.46767 7.54602 8.43243 7.52217C8.39806 7.49746 8.35134 7.47902 8.29231 7.46667C8.23325 7.45347 8.16231 7.44687 8.07948 7.44687C7.99752 7.44687 7.92965 7.45296 7.87589 7.46531C7.82214 7.47682 7.7816 7.49391 7.75429 7.51692C7.72696 7.53892 7.7133 7.56531 7.7133 7.59628V7.59746C7.7133 7.63976 7.73358 7.67157 7.77412 7.69272C7.81554 7.71387 7.88383 7.72927 7.97901 7.73892L8.47473 7.77597C8.63424 7.79188 8.76642 7.82217 8.87129 7.86717C8.97617 7.91134 9.05417 7.97208 9.10527 8.04958C9.15726 8.12623 9.18327 8.22064 9.18327 8.33249V8.33384C9.18327 8.47124 9.14185 8.59036 9.05901 8.69069C8.97616 8.79036 8.85676 8.867 8.70077 8.92081C8.54479 8.9736 8.35664 9 8.13632 9Z" fill="#31A8FF"/>
<path d="M10.5074 9C10.2853 9 10.0941 8.97631 9.9337 8.92877C9.7733 8.88105 9.64685 8.81151 9.55431 8.7198C9.46178 8.62724 9.40582 8.51489 9.38643 8.38274L9.38379 8.36295H10.0223L10.0249 8.37208C10.0337 8.40998 10.058 8.44264 10.0976 8.47005C10.1382 8.49645 10.1932 8.51709 10.2629 8.53215C10.3325 8.54619 10.4171 8.5533 10.5167 8.5533C10.5951 8.5533 10.6625 8.5467 10.7189 8.5335C10.7762 8.51929 10.8203 8.49949 10.8511 8.47394C10.8819 8.44839 10.8974 8.41895 10.8974 8.38545V8.3841C10.8974 8.34179 10.8784 8.311 10.8405 8.29154C10.8026 8.27208 10.7365 8.25719 10.6423 8.24653L10.1558 8.21083C9.90726 8.18714 9.72352 8.12843 9.60455 8.03503C9.48645 7.94078 9.42741 7.81032 9.42741 7.64382V7.64112C9.42741 7.50728 9.46795 7.39255 9.54902 7.29746C9.63098 7.20135 9.74775 7.12775 9.89932 7.07665C10.0509 7.02555 10.2316 7 10.4413 7C10.6519 7 10.8322 7.0242 10.982 7.07276C11.1327 7.1203 11.2516 7.189 11.3389 7.27902C11.4261 7.36887 11.4803 7.47682 11.5015 7.60288L11.5054 7.62403H10.8736L10.8709 7.61337C10.8612 7.57631 10.8388 7.54602 10.8035 7.52217C10.7692 7.49746 10.7224 7.47902 10.6634 7.46667C10.6043 7.45347 10.5334 7.44687 10.4506 7.44687C10.3686 7.44687 10.3007 7.45296 10.247 7.46531C10.1932 7.47682 10.1527 7.49391 10.1254 7.51692C10.0981 7.53892 10.0844 7.56531 10.0844 7.59628V7.59746C10.0844 7.63976 10.1047 7.67157 10.1452 7.69272C10.1866 7.71387 10.2549 7.72927 10.3501 7.73892L10.8458 7.77597C11.0053 7.79188 11.1375 7.82217 11.2424 7.86717C11.3473 7.91134 11.4253 7.97208 11.4764 8.04958C11.5284 8.12623 11.5544 8.22064 11.5544 8.33249V8.33384C11.5544 8.47124 11.5129 8.59036 11.4301 8.69069C11.3473 8.79036 11.2279 8.867 11.0719 8.92081C10.9159 8.9736 10.7277 9 10.5074 9Z" fill="#31A8FF"/>
</svg>
