<svg width="16" height="16" viewBox="0 0 16 16" fill="none" xmlns="http://www.w3.org/2000/svg">
<rect x="2" y="2" width="12" height="12" rx="3" fill="black"/>
<path d="M8.3087 6.80544L8.30868 8.44717L8.91173 7.84425L9.21611 8.14866L8.10141 9.26328L6.97266 8.13452L7.27706 7.83012L7.87819 8.43125L7.87821 6.80544H8.3087Z" fill="#F9AC00"/>
<path d="M4.43049 9.17971V7.90827L5.20894 8.68678L5.9933 7.90247V9.16687H6.42379V6.86324L5.20897 8.07798L4 6.86892V9.17971H4.43049Z" fill="#F9AC00"/>
<path d="M11.6954 6.73674L11.9998 7.04115L11.088 7.9529L11.9718 8.83666L11.6674 9.14107L10.7836 8.25732L9.89983 9.14107L9.59544 8.83666L10.4791 7.9529L9.56738 7.04115L9.87178 6.73674L10.7836 7.64847L11.6954 6.73674Z" fill="#F9AC00"/>
</svg>
