<svg width="16" height="16" viewBox="0 0 16 16" fill="none" xmlns="http://www.w3.org/2000/svg">
<rect x="2" y="2" width="12" height="12" rx="3" fill="#013301"/>
<path d="M8.01024 7.42003C7.69285 7.42003 7.43555 7.67733 7.43555 7.99472C7.43555 8.31211 7.69285 8.56941 8.01024 8.56941C8.32763 8.56941 8.58493 8.31211 8.58493 7.99472C8.58493 7.67733 8.32763 7.42003 8.01024 7.42003Z" fill="#33FF66"/>
<path d="M10.9996 7.99994C10.9996 7.54876 10.5818 7.15305 9.91654 6.89263C9.92543 6.83399 9.93347 6.77597 9.93918 6.71902C10.0048 6.07073 9.8486 5.60283 9.49958 5.40127C9.10907 5.17579 8.5575 5.33945 7.99979 5.78575C7.44208 5.33945 6.8905 5.17579 6.5 5.40127C6.15098 5.60283 5.99478 6.07073 6.06039 6.71902C6.06611 6.77597 6.07394 6.8342 6.08304 6.89306C6.02759 6.91423 5.97319 6.93667 5.92091 6.96017C5.32701 7.22715 5 7.59682 5 7.99994C5 8.45111 5.41781 8.84682 6.08304 9.10724C6.07394 9.16588 6.06611 9.2239 6.06039 9.28085C5.99478 9.92914 6.15098 10.397 6.5 10.5986C6.62 10.6666 6.75597 10.7014 6.89389 10.6994C7.2245 10.6994 7.61055 10.5253 7.99979 10.2141C8.38881 10.5253 8.77508 10.6994 9.10611 10.6994C9.24403 10.7014 9.37999 10.6666 9.5 10.5986C9.84902 10.397 10.0052 9.92914 9.93961 9.28085C9.93389 9.2239 9.92585 9.16588 9.91696 9.10724C10.5822 8.84724 11 8.4509 11 7.99994M9.10357 5.58631C9.19225 5.58417 9.27991 5.60566 9.35756 5.64856C9.5999 5.78851 9.70869 6.16812 9.65578 6.69002C9.65218 6.72558 9.64795 6.76158 9.64287 6.79778C9.36626 6.71446 9.08301 6.65503 8.79625 6.62015C8.62241 6.389 8.4291 6.17317 8.21843 5.97503C8.54924 5.71927 8.85974 5.58631 9.10336 5.58631M8.9897 8.57158C8.88265 8.75744 8.76609 8.93764 8.64047 9.11147C8.42754 9.13335 8.21363 9.14423 7.99958 9.14408C7.7856 9.14423 7.57175 9.13334 7.3589 9.11147C7.23361 8.93763 7.1174 8.75743 7.01072 8.57158C6.90368 8.38624 6.8064 8.19543 6.71927 7.99994C6.8064 7.80444 6.90368 7.61363 7.01072 7.42829C7.11723 7.24319 7.23309 7.06363 7.35784 6.8903C7.57109 6.86788 7.78537 6.85672 7.99979 6.85685C8.21377 6.85672 8.42761 6.86761 8.64047 6.88946C8.76565 7.06305 8.88193 7.24289 8.98885 7.42829C9.09581 7.61367 9.19309 7.80448 9.2803 7.99994C9.19309 8.19539 9.09581 8.3862 8.98885 8.57158M9.42592 8.35986C9.49309 8.54309 9.54824 8.73051 9.59101 8.92092C9.40541 8.9788 9.21621 9.02442 9.02462 9.05748C9.09743 8.94767 9.16798 8.83341 9.23628 8.71471C9.3038 8.59741 9.36708 8.47906 9.42677 8.36071M7.59786 9.41699C7.7295 9.42503 7.86391 9.42969 8 9.42969C8.13609 9.42969 8.27134 9.42503 8.4032 9.41699C8.27818 9.56678 8.14349 9.70823 8 9.84043C7.85682 9.70825 7.72248 9.5668 7.59786 9.41699ZM6.97517 9.05706C6.78352 9.02415 6.59425 8.97867 6.40857 8.92092C6.45116 8.73081 6.5061 8.54368 6.57302 8.36071C6.63186 8.47906 6.69493 8.59741 6.76351 8.71471C6.83209 8.832 6.90299 8.9476 6.97517 9.05748M6.57302 7.63895C6.50634 7.45666 6.45154 7.27024 6.40899 7.08085C6.59421 7.02304 6.78298 6.97729 6.97411 6.94387C6.90172 7.05333 6.83082 7.16681 6.76245 7.28516C6.69409 7.40352 6.63165 7.52039 6.57196 7.63895M8.40193 6.58267C8.27028 6.57463 8.13588 6.56997 7.99873 6.56997C7.86271 6.56997 7.72866 6.5742 7.59659 6.58267C7.72121 6.43286 7.85555 6.29141 7.99873 6.15923C8.14227 6.29137 8.27697 6.43283 8.40193 6.58267ZM9.23585 7.28516C9.16728 7.16632 9.09637 7.05199 9.02314 6.94218C9.21523 6.97524 9.40493 7.02093 9.59101 7.07895C9.54832 7.26903 9.49338 7.45616 9.42656 7.63916C9.36772 7.52081 9.30443 7.40246 9.23607 7.28538M6.34465 6.69023C6.2911 6.16855 6.40052 5.78872 6.64266 5.64877C6.72033 5.60593 6.80797 5.58446 6.89664 5.58652C7.14026 5.58652 7.45075 5.71949 7.78157 5.97524C7.57076 6.17353 7.37731 6.38949 7.20333 6.62078C6.91664 6.65583 6.63343 6.71504 6.35671 6.79778C6.35184 6.76158 6.3474 6.7258 6.34401 6.69023M6.03817 7.2208C6.07076 7.20669 6.10399 7.19257 6.13786 7.17846C6.20443 7.45942 6.29471 7.73423 6.40772 7.99994C6.2945 8.26616 6.20415 8.54155 6.13765 8.82311C5.59835 8.60186 5.28573 8.29529 5.28573 7.99994C5.28573 7.72004 5.56089 7.43612 6.03817 7.2208ZM6.64266 10.3511C6.40052 10.2112 6.2911 9.83132 6.34465 9.30964C6.34803 9.27407 6.35248 9.23829 6.35734 9.20188C6.63396 9.28518 6.9172 9.34461 7.20396 9.37951C7.37786 9.61074 7.57117 9.82671 7.78178 10.025C7.32059 10.3814 6.89918 10.4989 6.64329 10.3511M9.65557 9.30964C9.70848 9.83154 9.59969 10.2112 9.35734 10.3511C9.10167 10.4993 8.68005 10.3814 8.21906 10.025C8.42961 9.8267 8.62285 9.61074 8.79667 9.37951C9.08344 9.34463 9.36668 9.2852 9.64329 9.20188C9.64837 9.23829 9.6526 9.27407 9.6562 9.30964M9.8632 8.82268C9.79651 8.54129 9.70609 8.26605 9.59292 7.99994C9.70604 7.73368 9.79639 7.4583 9.86299 7.17676C10.4012 7.39801 10.7147 7.70458 10.7147 7.99994C10.7147 8.29529 10.4021 8.60186 9.86278 8.82311" fill="#33FF66"/>
</svg>
