<svg width="16" height="16" viewBox="0 0 16 16" fill="none" xmlns="http://www.w3.org/2000/svg">
<rect x="2" y="2" width="12" height="12" rx="3" fill="black"/>
<path fill-rule="evenodd" clip-rule="evenodd" d="M6.79599 5.34056L6.88899 7.81705C6.89042 7.85488 6.90602 7.89065 6.9327 7.91752C6.95937 7.94439 6.99517 7.96025 7.03299 7.96195L9.04629 8.0524C9.06664 8.05331 9.08697 8.05009 9.10604 8.04294C9.12511 8.03578 9.14254 8.02484 9.15727 8.01077C9.172 7.99669 9.18373 7.97978 9.19175 7.96106C9.19977 7.94233 9.20392 7.92217 9.20394 7.9018V5.20346C9.20396 5.18284 9.19975 5.16243 9.19157 5.14351C9.1834 5.12458 9.17142 5.10753 9.15639 5.09342C9.14136 5.0793 9.1236 5.06842 9.1042 5.06144C9.08479 5.05447 9.06417 5.05154 9.04359 5.05286L8.87794 5.06322L8.89009 5.40941C8.89025 5.4137 8.88917 5.41795 8.88698 5.42165C8.8848 5.42535 8.8816 5.42835 8.87777 5.43029C8.87394 5.43223 8.86963 5.43303 8.86535 5.4326C8.86108 5.43217 8.85701 5.43053 8.85364 5.42786L8.74204 5.33996L8.61004 5.44016C8.60664 5.44272 8.60258 5.44426 8.59834 5.4446C8.59409 5.44494 8.58984 5.44407 8.58607 5.44209C8.5823 5.44011 8.57917 5.43711 8.57704 5.43342C8.57491 5.42973 8.57387 5.42551 8.57404 5.42126L8.58814 5.08134L6.93759 5.18456C6.89831 5.18696 6.86152 5.20461 6.83506 5.23376C6.80861 5.2629 6.79459 5.30122 6.79599 5.34056ZM8.20399 6.21236C8.20399 6.27101 8.59939 6.24296 8.65234 6.20171C8.65234 5.80211 8.43799 5.59211 8.0453 5.59211C7.65275 5.59211 7.4327 5.80541 7.4327 6.12521C7.4327 6.44576 7.6814 6.58541 7.89275 6.70406C8.0489 6.79166 8.18449 6.86786 8.18449 6.997C8.18449 7.0822 8.1428 7.1329 8.05085 7.1329C7.93115 7.1329 7.88375 7.0717 7.88945 6.86381C7.88945 6.81881 7.4327 6.80471 7.41875 6.86381C7.38335 7.36765 7.6973 7.513 8.05655 7.513C8.40454 7.513 8.67754 7.3276 8.67754 6.9916C8.67754 6.64124 8.41464 6.50188 8.1976 6.38684L8.19754 6.38681C8.0447 6.30581 7.9145 6.23681 7.9145 6.11456C7.9145 5.99456 8.0036 5.97866 8.0564 5.97866C8.1122 5.97866 8.21239 5.98841 8.20399 6.21236Z" fill="#F9AC00"/>
<path d="M8.23152 9.10406L8.23151 10.3354L8.68379 9.88317L8.91209 10.1115L8.07606 10.9474L7.22949 10.1009L7.45779 9.87258L7.90864 10.3234L7.90866 9.10406H8.23152Z" fill="#F9AC00"/>
<path d="M5.32287 10.8848V9.9312L5.90671 10.5151L6.49498 9.92686V10.8752H6.81784V9.14743L5.90672 10.0585L5 9.1517V10.8848H5.32287Z" fill="#F9AC00"/>
<path d="M10.7718 9.05255L11.0001 9.28086L10.3163 9.96467L10.9791 10.6275L10.7508 10.8558L10.0879 10.193L9.42512 10.8558L9.19682 10.6275L9.85957 9.96467L9.17578 9.28086L9.40408 9.05255L10.0879 9.73635L10.7718 9.05255Z" fill="#F9AC00"/>
</svg>
