<svg width="16" height="16" viewBox="0 0 16 16" fill="none" xmlns="http://www.w3.org/2000/svg">
<rect x="2" y="2" width="12" height="12" rx="3" fill="#291F0A"/>
<path fill-rule="evenodd" clip-rule="evenodd" d="M6.79599 5.28801L6.88899 7.7645C6.89042 7.80233 6.90602 7.8381 6.9327 7.86497C6.95937 7.89183 6.99517 7.90769 7.03299 7.9094L9.04629 7.99985C9.06664 8.00076 9.08697 7.99754 9.10604 7.99039C9.12511 7.98323 9.14254 7.97229 9.15727 7.95821C9.172 7.94414 9.18373 7.92723 9.19175 7.90851C9.19977 7.88978 9.20392 7.86962 9.20394 7.84925V5.15091C9.20396 5.13029 9.19975 5.10988 9.19157 5.09096C9.1834 5.07203 9.17142 5.05498 9.15639 5.04087C9.14136 5.02675 9.1236 5.01587 9.1042 5.00889C9.08479 5.00191 9.06417 4.99899 9.04359 5.00031L8.87794 5.01066L8.89009 5.35686C8.89025 5.36115 8.88917 5.3654 8.88698 5.3691C8.8848 5.3728 8.8816 5.3758 8.87777 5.37774C8.87394 5.37968 8.86963 5.38048 8.86535 5.38005C8.86108 5.37962 8.85701 5.37797 8.85364 5.37531L8.74204 5.28741L8.61004 5.38761C8.60664 5.39017 8.60258 5.39171 8.59834 5.39205C8.59409 5.39239 8.58984 5.39152 8.58607 5.38954C8.5823 5.38756 8.57917 5.38455 8.57704 5.38087C8.57491 5.37718 8.57387 5.37296 8.57404 5.36871L8.58814 5.02879L6.93759 5.13201C6.89831 5.13441 6.86152 5.15206 6.83506 5.1812C6.80861 5.21035 6.79459 5.24867 6.79599 5.28801ZM8.20399 6.15981C8.20399 6.21846 8.59939 6.19041 8.65234 6.14916C8.65234 5.74956 8.43799 5.53956 8.0453 5.53956C7.65275 5.53956 7.4327 5.75286 7.4327 6.07266C7.4327 6.3932 7.6814 6.53285 7.89275 6.6515C8.0489 6.7391 8.18449 6.8153 8.18449 6.94445C8.18449 7.02965 8.1428 7.08035 8.05085 7.08035C7.93115 7.08035 7.88375 7.01915 7.88945 6.81125C7.88945 6.76625 7.4327 6.75215 7.41875 6.81125C7.38335 7.3151 7.6973 7.46045 8.05655 7.46045C8.40454 7.46045 8.67754 7.27505 8.67754 6.93905C8.67754 6.58868 8.41464 6.44933 8.1976 6.33428L8.19754 6.33426C8.0447 6.25326 7.9145 6.18426 7.9145 6.06201C7.9145 5.94201 8.0036 5.92611 8.0564 5.92611C8.1122 5.92611 8.21239 5.93586 8.20399 6.15981Z" fill="#F0DB4F"/>
<path d="M6.67058 11C6.52161 11 6.38581 10.982 6.26317 10.946C6.14053 10.9089 6.03452 10.8554 5.94514 10.7849C5.85679 10.7137 5.7882 10.6265 5.73952 10.5236C5.69067 10.4209 5.66591 10.3037 5.66504 10.1718V10.1651H6.316L6.31739 10.1704C6.31912 10.239 6.33454 10.2972 6.36329 10.3451C6.39308 10.3929 6.43362 10.4294 6.48506 10.4547C6.53651 10.4791 6.59558 10.4913 6.66244 10.4913C6.76793 10.4913 6.84831 10.4632 6.90322 10.4074C6.95917 10.3515 6.98723 10.272 6.98723 10.1692V9H7.66521V10.176C7.66521 10.3456 7.62693 10.4921 7.55019 10.6158C7.47346 10.7384 7.36121 10.8332 7.21311 10.8999C7.06518 10.9667 6.88433 11 6.67058 11Z" fill="#F0DB4F"/>
<path d="M9.28866 11C9.06658 11 8.87534 10.9763 8.71495 10.9288C8.55455 10.8811 8.4281 10.8115 8.33556 10.7198C8.24303 10.6272 8.18707 10.5149 8.16768 10.3827L8.16504 10.3629H8.80352L8.80616 10.3721C8.81497 10.41 8.8392 10.4426 8.87886 10.4701C8.91941 10.4964 8.97448 10.5171 9.04411 10.5322C9.11372 10.5462 9.19832 10.5533 9.29792 10.5533C9.37634 10.5533 9.44377 10.5467 9.50017 10.5335C9.55744 10.5193 9.6015 10.4995 9.63235 10.4739C9.6632 10.4484 9.67863 10.419 9.67863 10.3854V10.3841C9.67863 10.3418 9.65968 10.311 9.62177 10.2915C9.58389 10.2721 9.5178 10.2572 9.4235 10.2465L8.93704 10.2108C8.68851 10.1871 8.50477 10.1284 8.3858 10.035C8.2677 9.94078 8.20866 9.81032 8.20866 9.64382V9.64112C8.20866 9.50728 8.2492 9.39255 8.33027 9.29746C8.41223 9.20135 8.529 9.12775 8.68057 9.07665C8.83216 9.02555 9.01282 9 9.22257 9C9.4332 9 9.61342 9.0242 9.76323 9.07276C9.91392 9.1203 10.0329 9.189 10.1202 9.27902C10.2074 9.36887 10.2616 9.47682 10.2827 9.60288L10.2867 9.62403H9.65484L9.65218 9.61337C9.64248 9.57631 9.62001 9.54602 9.58477 9.52217C9.5504 9.49746 9.50369 9.47902 9.44465 9.46667C9.3856 9.45347 9.31465 9.44687 9.23182 9.44687C9.14986 9.44687 9.08199 9.45296 9.02824 9.46531C8.97448 9.47682 8.93394 9.49391 8.90663 9.51692C8.8793 9.53892 8.86565 9.56531 8.86565 9.59628V9.59746C8.86565 9.63976 8.88592 9.67157 8.92646 9.69272C8.96788 9.71387 9.03617 9.72927 9.13135 9.73892L9.62707 9.77597C9.78658 9.79188 9.91876 9.82217 10.0236 9.86717C10.1285 9.91134 10.2065 9.97208 10.2576 10.0496C10.3096 10.1262 10.3356 10.2206 10.3356 10.3325V10.3338C10.3356 10.4712 10.2942 10.5904 10.2114 10.6907C10.1285 10.7904 10.0091 10.867 9.85311 10.9208C9.69714 10.9736 9.50898 11 9.28866 11Z" fill="#F0DB4F"/>
</svg>
