<svg width="16" height="16" viewBox="0 0 16 16" fill="none" xmlns="http://www.w3.org/2000/svg">
<rect x="2.5" y="2.5" width="11" height="11" rx="2.5" fill="#160D26"/>
<rect x="2.5" y="2.5" width="11" height="11" rx="2.5" stroke="#6F42C1"/>
<path d="M7.43163 8.2C7.18056 8.2 6.96214 8.1656 6.77641 8.09682C6.5924 8.02632 6.45053 7.924 6.35081 7.78985C6.25106 7.65573 6.20117 7.49235 6.20117 7.29973V7.29458C6.20117 7.12605 6.24674 6.97816 6.3379 6.85091C6.43075 6.72363 6.57778 6.62391 6.77899 6.55167C6.98192 6.47946 7.24676 6.4399 7.57351 6.433L9.17281 6.40721V6.95409L7.79536 6.98245C7.66292 6.98589 7.56403 7.00738 7.49869 7.04694C7.43506 7.0865 7.40323 7.14154 7.40323 7.21203V7.21718C7.40323 7.30834 7.4454 7.37626 7.52966 7.42097C7.61564 7.46568 7.72826 7.48806 7.86757 7.48806C8.00859 7.48806 8.13069 7.46914 8.23387 7.4313C8.33705 7.39347 8.41616 7.34014 8.47117 7.27136C8.52793 7.20087 8.55629 7.11832 8.55629 7.02373V6.32209C8.55629 6.21204 8.50987 6.12692 8.41702 6.06673C8.32414 6.00482 8.1926 5.97385 8.02232 5.97385C7.87272 5.97385 7.7558 5.99448 7.67154 6.03576C7.58724 6.07531 7.53138 6.13121 7.50384 6.20342L7.49869 6.21891H6.3379L6.34305 6.18794C6.38089 5.99191 6.46859 5.81995 6.60617 5.67206C6.74376 5.52414 6.93292 5.40894 7.17366 5.32639C7.41614 5.24213 7.70934 5.2 8.05329 5.2C8.42132 5.2 8.73515 5.24471 8.99484 5.33412C9.2545 5.42182 9.45313 5.55168 9.59069 5.72364C9.72999 5.89559 9.79966 6.10539 9.79966 6.35303V8.15873H8.55629V7.7357H8.52536C8.46516 7.83198 8.38262 7.91538 8.27772 7.98591C8.17282 8.05469 8.049 8.10801 7.90626 8.14582C7.76353 8.18194 7.6053 8.2 7.43163 8.2Z" fill="#6F42C1"/>
<rect x="6" y="9" width="4" height="0.5" fill="#6F42C1"/>
<rect x="6" y="10.3" width="4" height="0.5" fill="#6F42C1"/>
</svg>
