<svg width="16" height="16" viewBox="0 0 16 16" fill="none" xmlns="http://www.w3.org/2000/svg">
<rect x="2.5" y="2.5" width="11" height="11" rx="2.5" fill="black"/>
<rect x="2.5" y="2.5" width="11" height="11" rx="2.5" stroke="white"/>
<path fill-rule="evenodd" clip-rule="evenodd" d="M8 5C9.65574 5 11 6.34426 11 8C11 9.65574 9.65574 11 8 11C6.34426 11 5 9.65574 5 8C5 6.34426 6.34426 5 8 5ZM9.43189 9.18795L8.23442 6.31152C8.20592 6.23548 8.13305 6.18163 8.0507 6.18479C7.96515 6.18163 7.88912 6.23548 7.86062 6.31152L6.55227 9.46358H7.0021L7.51848 8.16474L9.06758 9.41605C9.11192 9.46039 9.17213 9.48575 9.23232 9.48891C9.34953 9.49208 9.44773 9.4002 9.4509 9.27983V9.2735C9.4476 9.24439 9.44123 9.21572 9.43189 9.18795ZM8.05386 6.83105L8.82999 8.74763L7.65786 7.8226L8.05386 6.83105Z" fill="white"/>
</svg>
