<svg width="16" height="16" viewBox="0 0 16 16" fill="none" xmlns="http://www.w3.org/2000/svg">
<rect x="2.5" y="2.5" width="11" height="11" rx="2.5" fill="#2F042C"/>
<rect x="2.5" y="2.5" width="11" height="11" rx="2.5" stroke="#ED40E1"/>
<path d="M7.1689 10.1105C6.89784 9.8627 6.81871 9.34208 6.93164 8.96492C7.12746 9.2027 7.39877 9.27806 7.67981 9.32054C8.11365 9.38618 8.53973 9.36164 8.94276 9.16334C8.98887 9.14066 9.03147 9.11042 9.08186 9.07988C9.11967 9.18956 9.12951 9.30032 9.1163 9.41306C9.08418 9.68762 8.94755 9.89972 8.73024 10.0605C8.64334 10.1248 8.55139 10.1823 8.46164 10.2429C8.18592 10.4292 8.11133 10.6477 8.21493 10.9656C8.21739 10.9734 8.21959 10.9811 8.22516 11C8.08439 10.937 7.98156 10.8453 7.9032 10.7247C7.82045 10.5973 7.78108 10.4565 7.77901 10.3042C7.77797 10.23 7.77797 10.1552 7.768 10.0821C7.74365 9.90392 7.65999 9.82412 7.50238 9.8195C7.34063 9.81482 7.21267 9.91478 7.17874 10.0723C7.17615 10.0843 7.17239 10.0963 7.16864 10.1103L7.1689 10.1105Z" fill="white"/>
<path d="M7.1689 10.1105C6.89784 9.8627 6.81871 9.34208 6.93164 8.96492C7.12746 9.2027 7.39877 9.27806 7.67981 9.32054C8.11365 9.38618 8.53973 9.36164 8.94276 9.16334C8.98887 9.14066 9.03147 9.11042 9.08186 9.07988C9.11967 9.18956 9.12951 9.30032 9.1163 9.41306C9.08418 9.68762 8.94755 9.89972 8.73024 10.0605C8.64334 10.1248 8.55139 10.1823 8.46164 10.2429C8.18592 10.4292 8.11133 10.6477 8.21493 10.9656C8.21739 10.9734 8.21959 10.9811 8.22516 11C8.08439 10.937 7.98156 10.8453 7.9032 10.7247C7.82045 10.5973 7.78108 10.4565 7.77901 10.3042C7.77797 10.23 7.77797 10.1552 7.768 10.0821C7.74365 9.90392 7.65999 9.82412 7.50238 9.8195C7.34063 9.81482 7.21267 9.91478 7.17874 10.0723C7.17615 10.0843 7.17239 10.0963 7.16864 10.1103L7.1689 10.1105Z" fill="url(#paint0_linear_73_243)"/>
<path d="M5.62207 8.90204C5.62207 8.90204 6.42472 8.51106 7.22961 8.51106L7.83648 6.63293C7.8592 6.5421 7.92554 6.48037 8.00043 6.48037C8.07532 6.48037 8.14166 6.5421 8.16438 6.63293L8.77124 8.51106C9.72451 8.51106 10.3788 8.90204 10.3788 8.90204C10.3788 8.90204 9.01542 5.18798 9.01275 5.18053C8.97362 5.07072 8.90757 5 8.81851 5H7.18249C7.09343 5 7.03004 5.07072 6.98825 5.18053C6.9853 5.18784 5.62207 8.90204 5.62207 8.90204Z" fill="white"/>
<defs>
<linearGradient id="paint0_linear_73_243" x1="6.88184" y1="11" x2="9.49914" y2="9.7634" gradientUnits="userSpaceOnUse">
<stop stop-color="#D83333"/>
<stop offset="1" stop-color="#F041FF"/>
</linearGradient>
</defs>
</svg>
