<svg width="16" height="16" viewBox="0 0 16 16" fill="none" xmlns="http://www.w3.org/2000/svg">
<rect x="2.5" y="2.5" width="11" height="11" rx="2.5" fill="#302903"/>
<rect x="2.5" y="2.5" width="11" height="11" rx="2.5" stroke="#F5DC5E"/>
<path d="M9.74157 7.02893L10.2629 6.57045C10.3793 6.42036 10.4489 6.17979 10.4715 5.84874L10.4649 5.77136C10.4602 5.71589 10.4464 5.66156 10.4242 5.61051C10.3545 5.45003 10.199 5.3151 9.95777 5.20573C9.7703 5.0785 9.43235 5.00992 8.9439 5C8.53912 5.03492 8.01131 5.17799 7.36048 5.42919C7.165 5.56984 6.96125 5.69861 6.75032 5.81481L6.7533 5.85481C6.77488 5.8511 6.79546 5.843 6.81378 5.831C6.84021 5.82878 6.85449 5.84009 6.85664 5.86493L6.89735 5.84267L6.91712 5.84088V5.84517L6.91843 5.85957C6.91914 5.86862 6.88942 5.89692 6.82926 5.94446C6.7587 6.00002 6.64611 6.08249 6.4915 6.19186L6.51447 6.22757L6.49471 6.22924L6.45066 6.21424C6.45169 6.22678 6.43153 6.23472 6.39018 6.23805L6.39197 6.25936L6.43959 6.31174C6.41763 6.31171 6.39591 6.30717 6.37578 6.29841C6.28339 6.30635 6.19235 6.37326 6.10266 6.49914L6.12564 6.53485C6.20303 6.46342 6.24831 6.42727 6.26148 6.42639L6.26541 6.47104L6.2666 6.48509C6.25841 6.48608 6.2504 6.4882 6.24279 6.4914C6.23004 6.49651 6.21764 6.50244 6.20565 6.50914L6.21398 6.52104L6.24624 6.5695L6.2547 6.58224C6.27422 6.56128 6.29406 6.54093 6.31422 6.52116C6.33327 6.50271 6.35256 6.48473 6.37232 6.46723C6.38482 6.45628 6.39732 6.44556 6.41006 6.43497C6.4228 6.42437 6.4384 6.41199 6.4528 6.40092L6.4734 6.38532C6.50293 6.36334 6.53321 6.34234 6.56424 6.32234H6.56507H6.56626C6.62182 6.3371 6.6504 6.35417 6.65198 6.37353L6.69449 6.36984C7.00133 6.14293 7.30512 5.97891 7.60585 5.87779L7.61049 5.91791C7.58775 5.95381 7.56215 5.98781 7.53394 6.01958C7.51799 6.03637 7.50537 6.04518 7.4962 6.04601C7.49826 6.07349 7.50846 6.09972 7.52549 6.12138C7.52985 6.17297 7.39349 6.51779 7.11642 7.15584C6.48685 8.63942 5.95781 9.73612 5.5293 10.4459C5.53317 10.4665 5.54164 10.486 5.55406 10.5028C5.5762 10.4976 5.59644 10.4924 5.61514 10.487C5.68657 10.467 5.73312 10.4468 5.75538 10.4264L5.778 10.4245L5.78145 10.4645L5.82098 10.461L5.8617 10.4387C5.86192 10.4417 5.86313 10.4445 5.86515 10.4468C5.87075 10.4533 5.88337 10.4557 5.90289 10.454L5.90349 10.4609L5.90634 10.494C5.90709 10.5101 5.90511 10.5262 5.90051 10.5416C5.88599 10.5882 5.86542 10.6327 5.83932 10.6739C5.79606 10.7225 5.74987 10.825 5.70074 10.9814L5.70228 11L5.74193 10.9967C5.76574 10.9698 5.78884 10.9431 5.81122 10.9164C5.94877 10.7524 6.05564 10.5917 6.13183 10.4343C6.19771 10.4149 6.26144 10.3956 6.32303 10.3764C6.44614 10.338 6.56122 10.2998 6.66829 10.2619L6.71032 10.2467C6.93771 10.1644 7.1265 10.083 7.27666 10.0026C7.54239 9.9797 7.74427 9.91037 7.88229 9.79457L7.88051 9.77326L7.7805 9.80338L7.758 9.80529L7.7561 9.78398C7.95103 9.75469 8.08596 9.71084 8.16088 9.65242C8.54011 9.36018 8.82691 9.15283 9.02129 9.03036C9.61998 8.59097 9.90245 8.16896 9.86872 7.76433C9.86878 7.76362 9.86878 7.7629 9.86872 7.76219C9.86539 7.7229 9.75324 7.5798 9.53227 7.33288C9.51338 7.31169 9.49354 7.28974 9.47275 7.26704C9.46751 7.21204 9.55712 7.13267 9.74157 7.02893ZM8.82592 8.4589L8.30101 8.87487C7.91122 9.13044 7.70125 9.25954 7.67109 9.26216C7.13741 9.55583 6.77731 9.7281 6.59079 9.77898C6.5652 9.78634 6.53903 9.79152 6.51257 9.79445L6.48995 9.79636C6.50868 9.72667 6.7854 9.16029 7.32012 8.09721C7.55561 8.07689 7.9267 7.967 8.4334 7.76755L8.55781 7.75683C8.81402 7.73485 9.00518 7.78374 9.1313 7.90351L9.13606 7.95827L9.13796 7.98077C9.04351 8.25222 8.9395 8.41159 8.82592 8.4589ZM9.15475 6.72498C9.09975 6.79062 8.9501 6.90218 8.7058 7.05965C8.62476 7.06671 8.32355 7.18398 7.80217 7.41145C7.79211 7.40673 7.78157 7.4031 7.77074 7.40062C7.75356 7.39675 7.73589 7.39559 7.71836 7.39717L7.71514 7.3599C7.70871 7.28522 7.74237 7.191 7.8161 7.07727C7.8565 6.86249 7.90103 6.74046 7.94968 6.71117L8.38363 5.73373C8.37855 5.67325 8.47138 5.62674 8.6621 5.5942L8.72425 5.58884L8.72901 5.6448C8.9164 5.61623 9.03268 5.59996 9.07784 5.59599C9.40127 5.56781 9.57926 5.6271 9.6118 5.77386C9.61399 5.78383 9.61554 5.79393 9.61644 5.8041L9.63645 5.80243L9.65597 5.80064L9.64752 5.70242L9.6899 5.69873C9.77832 5.74731 9.83086 5.80505 9.84753 5.87196C9.85003 5.88193 9.85174 5.89208 9.85265 5.90232C9.85741 5.95748 9.82812 6.02534 9.76479 6.1059C9.73848 6.10816 9.72359 6.08983 9.72026 6.05066L9.67776 6.05435L9.66811 6.1734C9.4935 6.43532 9.36651 6.56982 9.28714 6.57688C9.21594 6.67411 9.17181 6.72348 9.15475 6.72498Z" fill="#F5DC5E"/>
</svg>
