<svg width="16" height="16" viewBox="0 0 16 16" fill="none" xmlns="http://www.w3.org/2000/svg">
<rect x="2.5" y="2.5" width="11" height="11" rx="2.5" fill="#2A3137"/>
<rect x="2.5" y="2.5" width="11" height="11" rx="2.5" stroke="white"/>
<path d="M10.2573 6.22542L8.36581 5.10169C8.25394 5.03559 8.12682 5 7.99971 5C7.87259 5 7.74547 5.03559 7.6336 5.10169L5.74208 6.22542C5.51835 6.35763 5.37598 6.60678 5.37598 6.87627V9.12373C5.37598 9.39322 5.51326 9.63729 5.74208 9.77458L7.6336 10.8983C7.74547 10.9644 7.87259 11 7.99971 11C8.12682 11 8.25394 10.9644 8.36581 10.8983L10.2573 9.77458C10.4811 9.64237 10.6234 9.39322 10.6234 9.12373V6.87119C10.6234 6.60678 10.4861 6.35763 10.2573 6.22542ZM7.69971 10.7763L5.80818 9.65254C5.62513 9.54068 5.50818 9.33729 5.50818 9.11864V6.87119C5.50818 6.65254 5.62513 6.44407 5.80818 6.33729L7.69971 5.21356C7.79123 5.15763 7.89293 5.1322 7.99971 5.1322C8.10649 5.1322 8.20818 5.16271 8.29971 5.21356L10.1912 6.33729C10.3489 6.42881 10.4506 6.59153 10.4811 6.76949C10.42 6.63729 10.2777 6.59661 10.1099 6.69322L8.32513 7.80169C8.1014 7.9339 7.93869 8.07627 7.93869 8.34576V10.5525C7.93869 10.7153 8.00479 10.8169 8.1014 10.8475C8.07089 10.8525 8.0353 10.8576 7.99971 10.8576C7.89801 10.8627 7.79123 10.8322 7.69971 10.7763Z" fill="white"/>
<path d="M9.76373 9.33729L9.29085 9.61695C9.28068 9.62203 9.27051 9.6322 9.27051 9.64746V9.76949C9.27051 9.78474 9.28068 9.78983 9.29085 9.78475L9.76881 9.49491C9.77898 9.48983 9.78407 9.47458 9.78407 9.45932V9.35254C9.78407 9.33729 9.7739 9.3322 9.76373 9.33729Z" fill="#4DA925"/>
<path d="M8.75771 8.3C8.77297 8.28983 8.78314 8.3 8.78822 8.32034V8.48305C8.85432 8.45763 8.91534 8.44746 8.97127 8.46271C8.98144 8.4678 8.98653 8.48305 8.98144 8.4983L8.94585 8.64068C8.94076 8.65085 8.93568 8.66102 8.93059 8.67119C8.92551 8.67627 8.92551 8.67627 8.92042 8.67627C8.91534 8.67627 8.91025 8.68135 8.90517 8.67627C8.87975 8.67119 8.82381 8.65593 8.73229 8.70678C8.63568 8.75763 8.60008 8.83898 8.60517 8.9C8.60517 8.97627 8.64585 8.99661 8.77297 8.99661C8.94585 9.00169 9.02212 9.07796 9.0272 9.25085C9.0272 9.42373 8.93568 9.61186 8.79331 9.72373L8.79839 9.88644C8.79839 9.90678 8.78822 9.92712 8.77297 9.93729L8.67636 9.99322C8.6611 10.0034 8.65093 9.99322 8.64585 9.97288V9.81525C8.56449 9.85085 8.48314 9.85593 8.4272 9.83559C8.41703 9.83051 8.41195 9.81525 8.41703 9.8L8.45263 9.65254C8.45771 9.64237 8.4628 9.62712 8.46788 9.62203C8.47297 9.61695 8.47297 9.61695 8.47805 9.61695C8.48314 9.61186 8.48822 9.61186 8.4933 9.61695C8.54924 9.63729 8.62551 9.62712 8.69161 9.59152C8.78314 9.54576 8.83907 9.45424 8.83907 9.36271C8.83907 9.28135 8.79331 9.24576 8.68653 9.24576C8.54924 9.24576 8.42212 9.22034 8.41703 9.01695C8.41703 8.84915 8.50347 8.67627 8.64076 8.56949V8.40678C8.64076 8.38644 8.65093 8.3661 8.66619 8.35593L8.75771 8.3Z" fill="#2A3238"/>
</svg>
