<svg width="16" height="16" viewBox="0 0 16 16" fill="none" xmlns="http://www.w3.org/2000/svg">
<rect x="2.5" y="2.5" width="11" height="11" rx="2.5" fill="#021731"/>
<rect x="2.5" y="2.5" width="11" height="11" rx="2.5" stroke="#60A5FA"/>
<path d="M7.99996 5.40203L6.66354 7.71667C7.17062 7.56034 7.71616 7.53717 8.24496 7.66189L8.69662 7.7685L8.27169 9.57035L7.81938 9.46374C7.47193 9.38178 7.10975 9.46299 6.82964 9.68443C6.68952 9.79525 6.57914 9.93438 6.50348 10.0905L6.08541 9.8882C6.19118 9.66976 6.34581 9.4749 6.54113 9.32028C6.93185 9.01102 7.44127 8.89743 7.92628 9.01187L8.1381 8.11384C7.37931 7.93496 6.57961 8.11308 5.96833 8.59693C5.35704 9.08074 5 9.81828 5 10.5978L11 10.598L7.99996 5.40203Z" fill="#60A5FA"/>
</svg>
