<svg width="16" height="16" viewBox="0 0 16 16" fill="none" xmlns="http://www.w3.org/2000/svg">
<rect x="2.5" y="2.5" width="11" height="11" rx="2.5" fill="#002133"/>
<rect x="2.5" y="2.5" width="11" height="11" rx="2.5" stroke="#0090DD"/>
<g clip-path="url(#clip0_74_157)">
<path fill-rule="evenodd" clip-rule="evenodd" d="M10.5258 7.26601C10.6001 7.62718 10.593 7.98353 10.5317 8.32553C10.4697 8.6693 10.3449 8.99871 10.1636 9.29728C10.092 9.41579 10.0127 9.52946 9.9262 9.63755C9.83945 9.74537 9.74557 9.84725 9.64519 9.9425C9.34828 10.2233 8.98859 10.4469 8.57119 10.5739C8.24088 10.6776 7.90642 10.7164 7.58038 10.6946C7.24025 10.6715 6.90734 10.5855 6.59855 10.441L6.56861 10.4983C6.87626 10.6739 7.21381 10.7908 7.56411 10.8432C7.91032 10.8957 8.27075 10.885 8.63298 10.8046C9.10296 10.6948 9.52148 10.4797 9.86391 10.1848C9.9819 10.0829 10.0907 9.97089 10.1891 9.84996C10.2875 9.72898 10.375 9.59946 10.4504 9.46293C10.6364 9.12551 10.7551 8.74974 10.7887 8.35961C10.8206 7.98897 10.775 7.60732 10.6505 7.2326L10.5258 7.26601ZM5.77816 9.76578C5.64145 9.61596 5.51923 9.45031 5.41785 9.26871C5.31906 9.09161 5.24032 8.90054 5.18168 8.69796C5.15914 8.59831 5.14249 8.49741 5.13183 8.3958C5.09063 7.98353 5.15737 7.58314 5.28844 7.21015C5.35877 7.01005 5.45236 6.82077 5.55956 6.63922C5.70183 6.39798 5.87088 6.1724 6.07556 5.97706C6.37661 5.68998 6.74187 5.46118 7.16626 5.33036C7.51172 5.22396 7.8617 5.18481 8.20123 5.21629C8.43708 5.23801 8.66836 5.28947 8.88535 5.37557C9.13079 5.47306 9.35694 5.61464 9.56051 5.78258C9.76073 5.94774 9.9351 6.14444 10.0819 6.36328C10.1012 6.39223 10.1141 6.42539 10.1381 6.45075C10.1566 6.46992 10.1779 6.47753 10.1996 6.49312L10.2874 6.43732C10.2821 6.4098 10.2824 6.38642 10.271 6.36099C10.2558 6.32759 10.2272 6.30248 10.2045 6.27396C9.96473 5.97229 9.66851 5.72759 9.33789 5.54332C9.19698 5.46477 9.0497 5.39846 8.8989 5.34106C8.73232 5.27753 8.56098 5.2252 8.38482 5.18846C7.98232 5.10458 7.55737 5.0979 7.1302 5.19576C6.66715 5.30178 6.2542 5.51116 5.91597 5.80009C5.68073 6.00124 5.47791 6.23827 5.3271 6.50506C5.21391 6.70528 5.13102 6.92252 5.07597 7.14699C4.97694 7.55128 4.97613 7.97908 5.06533 8.406C5.08649 8.50708 5.1111 8.60778 5.14284 8.70842C5.19365 8.91252 5.26647 9.1105 5.36001 9.29889C5.45318 9.48896 5.56691 9.66824 5.69917 9.83351L5.77816 9.76578Z" fill="#0090DD"/>
<path d="M10.036 6.72664C10.0012 6.95538 10.1607 7.17243 10.3894 7.20738C10.4471 7.21612 10.506 7.21276 10.5623 7.19751C10.6187 7.18226 10.6712 7.15546 10.7166 7.1188C10.7992 7.05294 10.854 6.95841 10.8701 6.854C10.9051 6.62526 10.7455 6.4082 10.5168 6.37326C10.288 6.33837 10.071 6.49789 10.036 6.72664Z" stroke="#0090DD" stroke-width="0.2" stroke-linecap="round" stroke-linejoin="round"/>
<path fill-rule="evenodd" clip-rule="evenodd" d="M9.54532 7.65645C9.54532 7.65645 9.61905 7.58773 9.71097 7.49748C9.83812 7.37168 9.9642 7.24481 10.0892 7.11688L10.0181 7.03363C10.0181 7.03363 9.76528 7.21326 9.58311 7.34785C9.47981 7.42474 9.40039 7.4869 9.40039 7.4869L9.54532 7.65645Z" fill="#0090DD"/>
<path d="M7.49885 9.66744H9.09503C9.13785 9.66744 9.17892 9.65043 9.20919 9.62016C9.23947 9.58988 9.25648 9.54882 9.25648 9.506V7.90258C9.25648 7.85976 9.23947 7.8187 9.20919 7.78842C9.17892 7.75814 9.13785 7.74113 9.09503 7.74113H6.72101C6.6782 7.74113 6.63713 7.75814 6.60686 7.78842C6.57658 7.8187 6.55957 7.85976 6.55957 7.90258V8.85039" stroke="#0090DD" stroke-width="0.2"/>
<path d="M7.1377 7.74113V6.9706C7.1377 6.54794 7.48557 6.20006 7.90823 6.20006C8.33083 6.20006 8.67877 6.54794 8.67877 6.9706V7.74113" stroke="#0090DD" stroke-width="0.2" stroke-linecap="round" stroke-linejoin="round"/>
<path d="M7.01071 9.93843C7.02497 9.83003 7.0119 9.71977 6.97267 9.61771C6.88836 9.3975 6.68845 9.2279 6.4401 9.19524C6.07985 9.14798 5.74434 9.40555 5.69702 9.76592C5.64964 10.1262 5.90733 10.4617 6.26758 10.5091C6.62789 10.5564 6.9634 10.2987 7.01071 9.93843Z" stroke="#0090DD" stroke-width="0.2" stroke-linecap="round" stroke-linejoin="round"/>
<path fill-rule="evenodd" clip-rule="evenodd" d="M7.73132 8.62685C7.73132 8.62685 7.32468 8.86926 7.03266 9.05786C6.86726 9.16456 6.74219 9.25419 6.74219 9.25419L7.00149 9.58555C7.00149 9.58555 7.11808 9.48528 7.26165 9.35056C7.51483 9.11241 7.84848 8.77617 7.84848 8.77617L7.73132 8.62685Z" fill="#0090DD"/>
</g>
<defs>
<clipPath id="clip0_74_157">
<rect width="6" height="5.75258" fill="white" transform="translate(5 5.12371)"/>
</clipPath>
</defs>
</svg>
