<svg width="16" height="16" viewBox="0 0 16 16" fill="none" xmlns="http://www.w3.org/2000/svg">
<rect x="2.5" y="2.5" width="11" height="11" rx="2.5" fill="black"/>
<rect x="2.5" y="2.5" width="11" height="11" rx="2.5" stroke="white"/>
<path d="M8.00034 5.20572C6.45985 5.20572 5.20605 6.4601 5.20605 8C5.20605 9.5399 6.46044 10.7943 8.00034 10.7943C9.54024 10.7943 10.7946 9.5399 10.7946 8C10.7946 6.4601 9.54024 5.20572 8.00034 5.20572ZM7.9962 5.45399C8.04398 5.45523 8.08938 5.47514 8.12273 5.50949C8.15608 5.54383 8.17474 5.58989 8.17472 5.63783C8.17472 5.68659 8.15536 5.73335 8.12088 5.76783C8.0864 5.80231 8.03964 5.82168 7.99088 5.82168C7.94212 5.82168 7.89536 5.80231 7.86089 5.76783C7.82641 5.73335 7.80704 5.68659 7.80704 5.63783C7.80703 5.61324 7.81196 5.58889 7.82153 5.56623C7.83109 5.54357 7.84511 5.52306 7.86275 5.50592C7.88039 5.48878 7.90129 5.47535 7.92421 5.46643C7.94714 5.45751 7.97162 5.45328 7.9962 5.45399ZM8.41709 5.75665C8.73983 5.8171 9.04554 5.94708 9.31299 6.13756C9.58044 6.32805 9.80322 6.57446 9.96586 6.85971L9.74891 7.34916C9.71167 7.4337 9.75009 7.53301 9.83403 7.57084L10.2514 7.75586C10.2643 7.88632 10.2659 8.01765 10.2561 8.14838H10.0238C10.0007 8.14838 9.99128 8.16374 9.99128 8.18621V8.29261C9.99128 8.54325 9.85 8.59823 9.72586 8.61182C9.60763 8.62542 9.47699 8.56217 9.46044 8.49005C9.39069 8.09813 9.27482 8.01478 9.09157 7.86995C9.31916 7.72572 9.55561 7.51232 9.55561 7.22739C9.55561 6.91941 9.34458 6.72552 9.20093 6.63035C8.99876 6.49734 8.77532 6.47074 8.71502 6.47074H6.31502C6.64688 6.10001 7.09171 5.84902 7.58064 5.75665L7.86379 6.0534C7.92763 6.1202 8.03344 6.12315 8.10024 6.05872L8.41709 5.75665ZM5.80428 7.11744C5.85211 7.11882 5.89752 7.1388 5.93085 7.17313C5.96419 7.20746 5.98282 7.25343 5.9828 7.30128C5.9828 7.35004 5.96343 7.3968 5.92896 7.43128C5.89448 7.46575 5.84772 7.48512 5.79896 7.48512C5.7502 7.48512 5.70344 7.46575 5.66896 7.43128C5.63449 7.3968 5.61512 7.35004 5.61512 7.30128C5.61511 7.27668 5.62003 7.25234 5.6296 7.22968C5.63917 7.20702 5.65319 7.18651 5.67083 7.16937C5.68847 7.15223 5.70937 7.1388 5.73229 7.12988C5.75522 7.12096 5.77969 7.11673 5.80428 7.11744ZM10.1875 7.12572C10.2354 7.1271 10.2808 7.14708 10.3141 7.18141C10.3474 7.21573 10.3661 7.26171 10.3661 7.30956C10.3661 7.35832 10.3467 7.40508 10.3122 7.43955C10.2777 7.47403 10.231 7.4934 10.1822 7.4934C10.1335 7.4934 10.0867 7.47403 10.0522 7.43955C10.0177 7.40508 9.99837 7.35832 9.99837 7.30956C9.99836 7.28496 10.0033 7.26061 10.0129 7.23795C10.0224 7.21529 10.0364 7.19479 10.0541 7.17764C10.0717 7.1605 10.0926 7.14707 10.1155 7.13815C10.1385 7.12923 10.1629 7.125 10.1875 7.12572ZM6.15069 7.15527H6.47108V8.6H5.82438C5.74451 8.31953 5.71962 8.02627 5.75108 7.73636L6.14714 7.5602C6.23167 7.52237 6.27009 7.42365 6.23226 7.33911L6.15069 7.15527ZM7.48783 7.17064H8.25098C8.29059 7.17064 8.5294 7.21616 8.5294 7.39527C8.5294 7.54365 8.34615 7.59685 8.19541 7.59685H7.48724L7.48783 7.17064ZM7.48783 8.20867H8.07246C8.12566 8.20867 8.35798 8.22404 8.43187 8.52079C8.45492 8.61182 8.50635 8.90857 8.54123 9.00374C8.5761 9.11015 8.71739 9.32296 8.86812 9.32296H9.82221C9.75827 9.40859 9.68834 9.48958 9.61295 9.56532L9.22458 9.48197C9.13413 9.46246 9.04487 9.52039 9.02537 9.61084L8.93315 10.0412C8.63661 10.1755 8.31457 10.2443 7.98903 10.2427C7.66348 10.2412 7.34211 10.1694 7.04684 10.0323L6.95463 9.60197C6.93512 9.51153 6.84645 9.4536 6.75601 9.4731L6.37591 9.55468C6.30537 9.48192 6.23981 9.40451 6.17965 9.32296H8.02812C8.04881 9.32296 8.063 9.31941 8.063 9.2999V8.64611C8.063 8.62719 8.04881 8.62305 8.02812 8.62305H7.48724L7.48783 8.20867ZM6.63482 9.70601C6.68265 9.7074 6.72806 9.72737 6.76139 9.7617C6.79473 9.79603 6.81337 9.842 6.81335 9.88985C6.81335 9.93861 6.79398 9.98537 6.7595 10.0198C6.72502 10.0543 6.67826 10.0737 6.6295 10.0737C6.58074 10.0737 6.53398 10.0543 6.49951 10.0198C6.46503 9.98537 6.44566 9.93861 6.44566 9.88985C6.44565 9.86526 6.45058 9.84091 6.46015 9.81825C6.46972 9.79559 6.48374 9.77508 6.50137 9.75794C6.51901 9.7408 6.53991 9.72737 6.56283 9.71845C6.58576 9.70953 6.61024 9.7053 6.63482 9.70601ZM9.35699 9.71429C9.40482 9.71567 9.45023 9.73565 9.48356 9.76998C9.5169 9.80431 9.53553 9.85028 9.53551 9.89813C9.53551 9.94689 9.51614 9.99365 9.48167 10.0281C9.44719 10.0626 9.40043 10.082 9.35167 10.082C9.30291 10.082 9.25615 10.0626 9.22167 10.0281C9.1872 9.99365 9.16783 9.94689 9.16783 9.89813C9.16782 9.87353 9.17274 9.84918 9.18231 9.82652C9.19188 9.80387 9.2059 9.78336 9.22354 9.76621C9.24118 9.74907 9.26208 9.73564 9.285 9.72672C9.30792 9.7178 9.3324 9.71357 9.35699 9.71429Z" fill="white"/>
<path fill-rule="evenodd" clip-rule="evenodd" d="M10.6382 8C10.6382 8.6997 10.3603 9.37074 9.86551 9.86551C9.37074 10.3603 8.6997 10.6382 8 10.6382C7.3003 10.6382 6.62926 10.3603 6.13449 9.86551C5.63973 9.37074 5.36177 8.6997 5.36177 8C5.36177 7.3003 5.63973 6.62926 6.13449 6.13449C6.62926 5.63973 7.3003 5.36177 8 5.36177C8.6997 5.36177 9.37074 5.63973 9.86551 6.13449C10.3603 6.62926 10.6382 7.3003 10.6382 8ZM10.5886 7.74522L11 8L10.5886 8.25478L10.9421 8.58522L10.4893 8.75488L10.7718 9.14798L10.2936 9.22601L10.4946 9.667L10.0104 9.64985L10.1216 10.1216L9.64985 10.0104L9.667 10.4946L9.22601 10.2936L9.14798 10.7718L8.75488 10.4893L8.58522 10.9421L8.25478 10.5886L8 11L7.74522 10.5886L7.41478 10.9421L7.24512 10.4893L6.85202 10.7718L6.77399 10.2936L6.333 10.4946L6.35015 10.0104L5.87842 10.1216L5.98956 9.64985L5.50542 9.667L5.7064 9.22601L5.22818 9.14798L5.51074 8.75488L5.05793 8.58522L5.41143 8.25478L5 8L5.41143 7.74522L5.05793 7.41478L5.51074 7.24512L5.22818 6.85202L5.7064 6.77399L5.50542 6.333L5.98956 6.35015L5.87842 5.87842L6.35015 5.98956L6.333 5.50542L6.77399 5.7064L6.85202 5.22818L7.24512 5.51074L7.41478 5.05793L7.74522 5.41143L8 5L8.25478 5.41143L8.58522 5.05793L8.75488 5.51074L9.14798 5.22818L9.22601 5.7064L9.667 5.50542L9.64985 5.98956L10.1216 5.87842L10.0104 6.35015L10.4946 6.333L10.2936 6.77399L10.7718 6.85202L10.4893 7.24512L10.9421 7.41478L10.5886 7.74522Z" fill="white" stroke="white" stroke-width="0.5" stroke-linecap="round" stroke-linejoin="round"/>
</svg>
