<svg width="16" height="16" viewBox="0 0 16 16" fill="none" xmlns="http://www.w3.org/2000/svg">
<rect x="2.5" y="2.5" width="11" height="11" rx="2.5" fill="#300D03"/>
<rect x="2.5" y="2.5" width="11" height="11" rx="2.5" stroke="#F25D30"/>
<path d="M6.92972 5.09505C6.40953 5.19916 5.99344 5.45706 5.69262 5.86131C5.30797 6.3788 5.09164 7.01797 5.01221 7.87313C4.98111 8.21113 5.01424 8.55083 5.0575 8.92703C5.10709 9.40401 5.29323 9.85655 5.59358 10.2304C5.82681 10.5197 6.09451 10.7097 6.41156 10.8114C6.68131 10.8986 6.96207 10.9469 7.24542 10.9551C7.31178 10.9566 7.37817 10.9537 7.44417 10.9466L7.54827 10.9361C7.69159 10.9216 7.83524 10.9071 7.97856 10.8898C8.62378 10.8154 9.25005 10.6241 9.82678 10.3254C10.3284 10.0634 10.6792 9.67707 10.8692 9.17614C10.9577 8.9436 11 8.74789 11 8.56503C11 8.50115 10.9947 8.43738 10.9841 8.37439C10.8827 7.77984 10.6752 7.26742 10.3453 6.80841C9.93663 6.23954 9.52325 5.839 9.04463 5.5473C8.31623 5.10384 7.62433 4.95579 6.92972 5.09505ZM7.93462 5.36985C8.61705 5.51925 9.21904 5.87044 9.72335 6.41328C10.2953 7.02845 10.6211 7.67438 10.7201 8.38791C10.738 8.52007 10.7171 8.66643 10.6961 8.79352C10.5991 9.37523 10.2804 9.80923 9.74971 10.0834C9.19009 10.3711 8.58329 10.5559 7.95828 10.6289C7.81868 10.6455 7.67841 10.6597 7.51887 10.6759L7.4969 10.6782C7.35896 10.6925 7.21981 10.6899 7.0825 10.6705C6.90978 10.6461 6.71441 10.6181 6.52648 10.5735C6.08471 10.4683 5.7592 10.1679 5.53206 9.65882C5.36103 9.2745 5.27247 8.8476 5.26166 8.35073C5.24651 7.77098 5.34409 7.19379 5.54896 6.65123C5.70411 6.24089 5.92821 5.78796 6.4146 5.54663C6.89288 5.30867 7.3911 5.25087 7.93495 5.36985H7.93462Z" fill="#F25D30"/>
<path d="M6.17745 6.39029C5.8026 6.91961 5.60858 7.53546 5.59979 8.22161C5.58434 8.5976 5.65293 8.97231 5.80057 9.31844C6.07097 9.96066 6.56379 10.3345 7.22729 10.4001C7.92629 10.4677 8.61312 10.3047 9.2719 9.9157C9.55171 9.75516 9.78924 9.53026 9.96481 9.25963C10.1533 8.97303 10.2547 8.63797 10.2568 8.29496C10.2568 7.75415 10.003 7.17717 9.49464 6.57924C9.44063 6.51582 9.38175 6.45671 9.31854 6.40246C8.54113 5.73388 7.80698 5.53006 7.05829 5.78053C6.65809 5.91201 6.37856 6.1067 6.17745 6.39029ZM9.8482 8.96523C9.69002 9.28408 9.43586 9.54533 9.12148 9.71222C8.55803 10.0201 8.04257 10.1564 7.50683 10.1405H7.50142C7.11372 10.1557 6.77876 10.0607 6.47692 9.84979C6.30183 9.72777 6.16663 9.5493 6.0632 9.30391C5.91959 8.96611 5.84544 8.60286 5.84518 8.23581C5.84955 7.8184 5.93652 7.40599 6.10106 7.02236C6.16358 6.88182 6.23669 6.74623 6.31975 6.61676L6.36031 6.54915C6.52796 6.27233 6.7916 6.13949 7.13603 6.02457C7.67684 5.84644 8.20819 5.93838 8.81086 6.3139C9.25669 6.59309 9.60112 7.00479 9.83367 7.5412C10.0554 8.04619 10.0598 8.52582 9.8482 8.96523Z" fill="#F25D30"/>
<path d="M8.3734 6.49778C7.79676 6.2436 7.27657 6.29903 6.82803 6.66272C6.47921 6.9453 6.27032 7.34279 6.17061 7.91098C6.09827 8.30353 6.15768 8.70898 6.33961 9.06426C6.60495 9.5777 7.03929 9.84168 7.59599 9.82681H7.59801C8.33757 9.78794 8.87534 9.51449 9.2414 8.9899C9.41192 8.75362 9.50455 8.47006 9.5064 8.17868C9.50589 8.03994 9.48551 7.90199 9.4459 7.76902C9.26574 7.16027 8.90542 6.73269 8.3734 6.49778ZM7.58923 9.55843H7.57942C7.32828 9.57837 7.08086 9.50198 6.84358 9.33095C6.69557 9.22306 6.58326 9.07331 6.52112 8.90101C6.43705 8.6835 6.39352 8.45243 6.39268 8.21925C6.39607 7.92774 6.45959 7.64006 6.57926 7.37423C6.74826 6.98518 7.01022 6.74858 7.38304 6.65089C7.68961 6.57112 7.99483 6.60188 8.3156 6.74554C8.78138 6.95375 9.08389 7.3286 9.21538 7.86096C9.34686 8.39332 9.14778 8.91216 8.6989 9.2167C8.32912 9.46649 7.9661 9.57837 7.58923 9.55843Z" fill="#F25D30"/>
<path d="M7.65194 8.43287V8.91013H7.36328V7.18934H7.65194V8.12967L7.95986 7.79538H8.33708L7.86928 8.28482L8.43747 8.91013H8.07208L7.65194 8.43287Z" fill="#F25D30"/>
</svg>
