<svg width="16" height="16" viewBox="0 0 16 16" fill="none" xmlns="http://www.w3.org/2000/svg">
<rect x="2.5" y="2.5" width="11" height="11" rx="2.5" fill="black"/>
<rect x="2.5" y="2.5" width="11" height="11" rx="2.5" stroke="white"/>
<path d="M8 5C9.6568 5 11 6.3432 11 8C11 9.6568 9.6568 11 8 11C6.3432 11 5 9.6568 5 8C5 6.3432 6.3432 5 8 5Z" fill="black"/>
<path d="M7.93324 9.468C7.89636 9.45807 7.85706 9.46292 7.82371 9.48152C7.79035 9.50012 7.76557 9.531 7.75464 9.5676L7.75344 9.5712L7.55424 10.3094L7.55344 10.313C7.54844 10.3316 7.54714 10.3509 7.54963 10.37C7.55211 10.3891 7.55832 10.4075 7.56792 10.4241C7.57751 10.4408 7.59029 10.4554 7.60553 10.4672C7.62077 10.4789 7.63817 10.4875 7.65674 10.4925C7.67531 10.4975 7.69468 10.4988 7.71375 10.4963C7.73282 10.4938 7.75122 10.4876 7.76789 10.478C7.78455 10.4684 7.79917 10.4557 7.8109 10.4404C7.82263 10.4252 7.83124 10.4078 7.83624 10.3892L7.83724 10.3858L8.03644 9.6476L8.03724 9.644L8.04044 9.6272L8.04104 9.6216L8.03624 9.5976L8.02944 9.5634L8.02504 9.5418C8.01571 9.52374 8.0027 9.50783 7.98686 9.49509C7.97101 9.48234 7.95268 9.47305 7.93304 9.4678M6.54464 8.7074C6.54118 8.71481 6.53817 8.72242 6.53564 8.7302L6.53424 8.735L6.33504 9.4734L6.33404 9.477C6.32394 9.5145 6.32914 9.55448 6.34852 9.58814C6.36789 9.62181 6.39984 9.64639 6.43734 9.6565C6.47484 9.6666 6.51482 9.6614 6.54849 9.64203C6.58215 9.62265 6.60674 9.5907 6.61684 9.5532L6.61784 9.5496L6.79844 8.8802C6.70741 8.83267 6.62223 8.77468 6.54464 8.7074ZM6.06964 7.8584C6.03276 7.84831 5.99339 7.85308 5.95999 7.87171C5.9266 7.89033 5.90184 7.92132 5.89104 7.958L5.89004 7.9616L5.69084 8.7L5.68984 8.7034C5.67971 8.7409 5.68489 8.78089 5.70425 8.81457C5.7236 8.84825 5.75554 8.87287 5.79304 8.883C5.83054 8.89313 5.87053 8.88795 5.90422 8.8686C5.9379 8.84924 5.96251 8.8173 5.97264 8.7798L5.97364 8.7762L6.17284 8.038L6.17384 8.0344C6.183 7.99729 6.17723 7.95807 6.15779 7.92516C6.13834 7.89225 6.10657 7.86828 6.06964 7.8584ZM10.5368 7.6908C10.5 7.68071 10.4606 7.68548 10.4272 7.70411C10.3938 7.72273 10.369 7.75372 10.3582 7.7904L10.3572 7.794L10.158 8.5322L10.157 8.5358C10.1469 8.5733 10.1521 8.61329 10.1714 8.64697C10.1908 8.68065 10.2227 8.70527 10.2602 8.7154C10.2977 8.72553 10.3377 8.72035 10.3714 8.701C10.4051 8.68164 10.4297 8.6497 10.4398 8.6122L10.4408 8.6086L10.64 7.8702L10.641 7.8668C10.6502 7.82966 10.6444 7.79042 10.6249 7.7575C10.6054 7.72459 10.5738 7.70064 10.5368 7.6908ZM5.63604 6.705C5.46927 7.00889 5.36305 7.34225 5.32324 7.6866C5.34051 7.70628 5.36274 7.72096 5.38762 7.72912C5.4125 7.73729 5.43911 7.73863 5.46468 7.73301C5.49025 7.7274 5.51385 7.71503 5.53301 7.69719C5.55218 7.67935 5.56621 7.6567 5.57364 7.6316L5.57464 7.628L5.77384 6.8898L5.77484 6.8862C5.78005 6.86493 5.78043 6.84275 5.77593 6.82132C5.77144 6.79988 5.76219 6.77972 5.74887 6.76233C5.73555 6.74495 5.7185 6.73077 5.69897 6.72085C5.67944 6.71092 5.65794 6.70551 5.63604 6.705ZM10.0322 6.7102C9.99536 6.70011 9.95599 6.70488 9.92259 6.72351C9.8892 6.74213 9.86444 6.77312 9.85364 6.8098L9.85264 6.8134L9.65344 7.5516L9.65244 7.5552C9.64231 7.5927 9.64749 7.63269 9.66685 7.66637C9.6862 7.70005 9.71814 7.72467 9.75564 7.7348C9.79314 7.74493 9.83313 7.73975 9.86682 7.7204C9.9005 7.70104 9.92511 7.6691 9.93524 7.6316L9.93624 7.628L10.1354 6.8898L10.1364 6.8862C10.1456 6.84906 10.1398 6.80982 10.1203 6.7769C10.1008 6.74399 10.0692 6.72004 10.0322 6.7102ZM6.50304 6.008C6.46611 5.99792 6.42669 6.00276 6.39328 6.02146C6.35988 6.04016 6.33515 6.07124 6.32444 6.108L6.32344 6.1114L6.12424 6.8496L6.12324 6.8532C6.11311 6.8907 6.11829 6.93069 6.13765 6.96437C6.157 6.99805 6.18894 7.02267 6.22644 7.0328C6.26394 7.04293 6.30393 7.03775 6.33762 7.0184C6.3713 6.99904 6.39591 6.9671 6.40604 6.9296L6.40704 6.926L6.60624 6.1878L6.60724 6.1842C6.61639 6.14706 6.6106 6.10782 6.59111 6.0749C6.57163 6.04199 6.54 6.01784 6.50304 6.008ZM9.06284 6.1478C9.02591 6.13772 8.98649 6.14256 8.95308 6.16126C8.91968 6.17996 8.89495 6.21104 8.88424 6.2478L8.88324 6.2512L8.74924 6.7472C8.83618 6.79013 8.91864 6.84033 8.99664 6.8978L9.00944 6.9074L9.16604 6.3274L9.16684 6.324C9.176 6.28689 9.17023 6.24767 9.15079 6.21476C9.13134 6.18185 9.09977 6.15768 9.06284 6.1478ZM7.75984 5.3156C7.66637 5.32406 7.57339 5.33721 7.48124 5.355L7.46184 5.359L7.27604 6.0472L7.27524 6.0508C7.26631 6.08788 7.2722 6.12699 7.29167 6.15979C7.31113 6.19259 7.34263 6.2165 7.37946 6.22643C7.41629 6.23636 7.45553 6.23153 7.48885 6.21296C7.52217 6.19438 7.54692 6.16354 7.55784 6.127L7.55884 6.1236L7.75824 5.3852L7.75904 5.3818C7.76457 5.36018 7.76484 5.33755 7.75984 5.3158M9.59304 5.8258L9.55384 5.971L9.55284 5.9744C9.54271 6.0119 9.54789 6.05189 9.56725 6.08557C9.5866 6.11925 9.61854 6.14387 9.65604 6.154C9.69354 6.16413 9.73353 6.15895 9.76722 6.1396C9.8009 6.12024 9.82551 6.0883 9.83564 6.0508L9.83664 6.0472L9.84084 6.0316C9.76749 5.96318 9.69051 5.89876 9.61024 5.8386L9.59304 5.8258ZM8.43384 5.3398L8.36324 5.6018L8.36224 5.6054C8.35214 5.6429 8.35734 5.68288 8.37672 5.71654C8.39609 5.75021 8.42804 5.77479 8.46554 5.7849C8.50304 5.795 8.54302 5.7898 8.57669 5.77043C8.61035 5.75105 8.63494 5.7191 8.64504 5.6816L8.64604 5.6782L8.72044 5.4026C8.63284 5.37833 8.54424 5.3586 8.45464 5.3434L8.43384 5.3398ZM6.93844 9.925C6.94923 9.88822 6.974 9.85713 7.00743 9.83838C7.04087 9.81964 7.08032 9.81474 7.11732 9.82473C7.15433 9.83472 7.18595 9.85881 7.20541 9.89183C7.22488 9.92485 7.23063 9.96419 7.22144 10.0014L7.22044 10.005L7.07784 10.5332L7.05784 10.526C6.97198 10.494 6.88798 10.4576 6.80584 10.4168L6.93764 9.9286L6.93844 9.925Z" fill="white"/>
<path d="M7.88303 6.698C7.01063 6.698 6.33203 7.2474 6.33203 7.9304C6.33203 8.5754 6.95643 8.9872 7.92443 8.9666C8.00683 8.9648 8.03043 9.0202 8.05743 9.0946C8.08423 9.1692 8.15623 9.562 8.21343 9.8624C8.26483 10.1312 8.31703 10.401 8.35683 10.672C8.98883 10.5884 9.57343 10.276 10.0018 9.8052L9.54503 8.1018C9.43103 7.6904 9.29803 7.3112 8.94583 7.0358C8.66263 6.8144 8.30263 6.6982 7.88303 6.6982" fill="white"/>
<path d="M8.07031 7.1914C8.12004 7.1914 8.16773 7.21115 8.2029 7.24632C8.23806 7.28148 8.25781 7.32917 8.25781 7.3789C8.25781 7.42863 8.23806 7.47632 8.2029 7.51148C8.16773 7.54665 8.12004 7.5664 8.07031 7.5664C8.02058 7.5664 7.97289 7.54665 7.93773 7.51148C7.90257 7.47632 7.88281 7.42863 7.88281 7.3789C7.88281 7.32917 7.90257 7.28148 7.93773 7.24632C7.97289 7.21115 8.02058 7.1914 8.07031 7.1914Z" fill="black"/>
</svg>
