<svg width="16" height="16" viewBox="0 0 16 16" fill="none" xmlns="http://www.w3.org/2000/svg">
<rect x="2.5" y="2.5" width="11" height="11" rx="2.5" fill="#04122F"/>
<rect x="2.5" y="2.5" width="11" height="11" rx="2.5" stroke="#1D63ED"/>
<path d="M10.9024 7.59764C10.7553 7.49861 10.3688 7.45639 10.0878 7.53204C10.0727 7.25212 9.92834 7.0162 9.66424 6.81051L9.56655 6.74491L9.5014 6.84331C9.37339 7.03763 9.31944 7.29665 9.33846 7.53212C9.35357 7.67719 9.40397 7.84022 9.5014 7.95853C9.13561 8.17071 8.79854 8.12253 7.30554 8.12253H5.00052C4.99376 8.4597 5.04799 9.10815 5.46035 9.63607C5.50586 9.69438 5.55582 9.75083 5.61004 9.80514C5.94534 10.1409 6.45192 10.3871 7.20945 10.3877C8.36502 10.3888 9.35517 9.76407 9.95749 8.25374C10.1557 8.25703 10.6788 8.2892 10.9348 7.79453C10.9411 7.78617 11 7.66333 11 7.66333L10.9024 7.59773V7.59764ZM6.50481 7.24972H5.85662V7.89791H6.50481V7.24972ZM7.34225 7.24972H6.69406V7.89791H7.34225V7.24972ZM8.17969 7.24972H7.5315V7.89791H8.17969V7.24972ZM9.01712 7.24972H8.36893V7.89791H9.01712V7.24972ZM5.66755 7.24972H5.01919V7.89791H5.66737V7.24972H5.66755ZM6.50499 6.43095H5.8568V7.07914H6.50499V6.43095ZM7.34243 6.43095H6.69424V7.07914H7.34243V6.43095ZM8.17986 6.43095H7.53167V7.07914H8.17986V6.43095ZM8.1796 5.61227H7.53141V6.26046H8.1796V5.61227Z" fill="#1D63ED"/>
</svg>
