<svg width="16" height="16" viewBox="0 0 16 16" fill="none" xmlns="http://www.w3.org/2000/svg">
<rect x="2.5" y="2.5" width="11" height="11" rx="2.5" fill="black"/>
<rect x="2.5" y="2.5" width="11" height="11" rx="2.5" stroke="white"/>
<path d="M4.7373 9V7H5.4331V9H4.7373Z" fill="white"/>
<path d="M7.13464 9C6.88678 9 6.67295 8.95937 6.49315 8.87827C6.31402 8.79616 6.17604 8.68069 6.07903 8.5317C5.98202 8.38271 5.93359 8.20545 5.93359 7.99991V7.99737C5.93359 7.79268 5.98202 7.61593 6.07903 7.46694C6.17604 7.31795 6.31402 7.20283 6.49315 7.12173C6.67295 7.04063 6.88678 7 7.13464 7C7.34797 7 7.53894 7.03403 7.70723 7.10192C7.87654 7.16896 8.01283 7.26412 8.1161 7.38754C8.21921 7.51012 8.27999 7.6547 8.29861 7.82147L8.30115 7.84517H7.64916L7.64645 7.83196C7.62969 7.76153 7.59803 7.70143 7.5513 7.65216C7.50542 7.60272 7.44718 7.5648 7.37658 7.53839C7.30615 7.51198 7.22675 7.4986 7.13854 7.4986C7.02832 7.4986 6.93351 7.51892 6.85411 7.55955C6.77572 7.60002 6.71528 7.65792 6.67295 7.73275C6.63062 7.80691 6.60946 7.89511 6.60946 7.99737V7.99991C6.60946 8.10234 6.63062 8.19089 6.67295 8.26589C6.71528 8.34072 6.77606 8.39863 6.85546 8.43909C6.93486 8.47973 7.02967 8.49987 7.13989 8.49987C7.22725 8.49987 7.30564 8.48717 7.37539 8.46161C7.44498 8.4352 7.50322 8.39727 7.54995 8.34784C7.59668 8.29755 7.62884 8.23711 7.64645 8.16668L7.64916 8.15212H8.30115L8.2998 8.17328C8.2805 8.34174 8.21921 8.48768 8.1161 8.6111C8.01283 8.73453 7.87705 8.83019 7.70859 8.89808C7.54114 8.96597 7.34983 9 7.13464 9Z" fill="white"/>
<path d="M10.031 9C9.7831 9 9.56656 8.95937 9.3815 8.87825C9.19713 8.79712 9.05423 8.68204 8.95282 8.53302C8.8514 8.38311 8.80078 8.20587 8.80078 8.0013V7.99865C8.80078 7.79406 8.8514 7.61727 8.95282 7.46825C9.05423 7.31833 9.19713 7.20281 9.3815 7.1217C9.56656 7.04057 9.7831 7 10.031 7C10.2805 7 10.4974 7.04057 10.6816 7.1217C10.866 7.20281 11.0089 7.31833 11.1103 7.46825C11.2117 7.61727 11.2623 7.79406 11.2623 7.99865V8.0013C11.2623 8.20587 11.2117 8.38311 11.1103 8.53302C11.0089 8.68204 10.866 8.79712 10.6816 8.87825C10.4974 8.95937 10.2805 9 10.031 9ZM10.031 8.50127C10.1437 8.50127 10.2416 8.48099 10.3245 8.44043C10.4083 8.39988 10.4727 8.34211 10.5177 8.26716C10.5634 8.19221 10.5865 8.10359 10.5865 8.0013V7.99865C10.5865 7.89636 10.5634 7.80818 10.5177 7.73411C10.4727 7.65916 10.4083 7.60139 10.3245 7.56083C10.2416 7.51938 10.1437 7.49866 10.031 7.49866C9.91888 7.49866 9.82102 7.51938 9.73722 7.56083C9.65443 7.60139 9.58992 7.65916 9.54421 7.73411C9.49917 7.80818 9.47665 7.89636 9.47665 7.99865V8.0013C9.47665 8.10359 9.49917 8.19221 9.54421 8.26716C9.58992 8.34211 9.65443 8.39988 9.73722 8.44043C9.82102 8.48099 9.91888 8.50127 10.031 8.50127Z" fill="white"/>
</svg>
