<svg width="16" height="16" viewBox="0 0 16 16" fill="none" xmlns="http://www.w3.org/2000/svg">
<rect x="2.5" y="2.5" width="11" height="11" rx="2.5" fill="#330A00"/>
<rect x="2.5" y="2.5" width="11" height="11" rx="2.5" stroke="#DD2C00"/>
<path d="M7.10742 10.8275C7.35848 10.9286 7.63084 10.9885 7.91683 10.9985C8.30386 11.012 8.67191 10.932 9.00095 10.78C8.60638 10.625 8.24904 10.3983 7.94407 10.1164C7.74638 10.433 7.45399 10.683 7.10742 10.8275Z" fill="#FF9100"/>
<path d="M7.94412 10.1165C7.24796 9.47268 6.82564 8.54079 6.86133 7.51868C6.86249 7.48548 6.86424 7.45231 6.86629 7.41915C6.74161 7.38691 6.61145 7.36723 6.47749 7.36255C6.28575 7.35585 6.10007 7.37963 5.92477 7.429C5.73893 7.75453 5.62678 8.12805 5.61281 8.52811C5.57676 9.56063 6.20159 10.4628 7.10748 10.8276C7.45405 10.6831 7.74643 10.4333 7.94412 10.1165Z" fill="#FFC400"/>
<path d="M7.94426 10.1165C8.10612 9.85749 8.20425 9.55382 8.21568 9.22665C8.24573 8.36604 7.66717 7.62571 6.86643 7.41912C6.86438 7.45228 6.86263 7.48545 6.86147 7.51864C6.82578 8.54076 7.2481 9.47265 7.94426 10.1165Z" fill="#FF9100"/>
<path d="M8.12628 5C7.67023 5.36535 7.31011 5.84711 7.09223 6.40207C6.96749 6.71995 6.8891 7.0614 6.86621 7.41933C7.66696 7.62592 8.24551 8.36625 8.21546 9.22687C8.20403 9.55403 8.10561 9.85739 7.94404 10.1167C8.24901 10.3989 8.60635 10.6253 9.00092 10.7803C9.79288 10.4142 10.3548 9.62647 10.3873 8.69473C10.4084 8.09105 10.1764 7.55303 9.8487 7.09888C9.50259 6.61858 8.12628 5 8.12628 5Z" fill="#DD2C00"/>
</svg>
