<svg width="16" height="16" viewBox="0 0 16 16" fill="none" xmlns="http://www.w3.org/2000/svg">
<rect x="2.5" y="2.5" width="11" height="11" rx="2.5" fill="#2F042C"/>
<rect x="2.5" y="2.5" width="11" height="11" rx="2.5" stroke="#ED40E1"/>
<path d="M8 5C6.35 5 5 6.35 5 8C5 9.65 6.35 11 8 11C9.65 11 11 9.65 11 8C11 6.35 9.65 5 8 5ZM6.32857 9.67143C5.87857 9.22143 5.64286 8.62143 5.64286 8.04286L7.97857 10.3571C7.37857 10.3357 6.77857 10.1214 6.32857 9.67143ZM8.51429 10.2929L5.70714 7.48571C5.94286 6.43571 6.88571 5.64286 8 5.64286C8.79286 5.64286 9.47857 6.02857 9.90714 6.60714L9.58571 6.88571C9.22143 6.39286 8.64286 6.07143 8 6.07143C7.16429 6.07143 6.45714 6.60714 6.17857 7.35714L8.64286 9.82143C9.26429 9.60714 9.73571 9.07143 9.88571 8.42857H8.85714V8H10.3571C10.3571 9.11429 9.56429 10.0571 8.51429 10.2929Z" fill="#ED40E1"/>
</svg>
