<svg width="16" height="16" viewBox="0 0 16 16" fill="none" xmlns="http://www.w3.org/2000/svg">
<rect x="2.5" y="2.5" width="11" height="11" rx="2.5" fill="#300703"/>
<rect x="2.5" y="2.5" width="11" height="11" rx="2.5" stroke="#F03C2E"/>
<path d="M10.8871 7.73268L8.26735 5.1132C8.23148 5.07731 8.18889 5.04884 8.14201 5.02942C8.09513 5.01 8.04488 5 7.99414 5C7.9434 5 7.89315 5.01 7.84627 5.02942C7.7994 5.04884 7.7568 5.07731 7.72093 5.1132L7.17694 5.65712L7.86688 6.34733C7.94799 6.31967 8.03523 6.31531 8.1187 6.33472C8.20217 6.35413 8.27852 6.39654 8.33911 6.45714C8.39999 6.51813 8.4425 6.595 8.46178 6.67899C8.48106 6.76298 8.47633 6.8507 8.44813 6.93213L9.11319 7.59739C9.19461 7.56908 9.28235 7.5643 9.36635 7.5836C9.45036 7.6029 9.52722 7.64548 9.58812 7.70648C9.63086 7.74914 9.66477 7.7998 9.6879 7.85558C9.71104 7.91136 9.72295 7.97115 9.72295 8.03153C9.72295 8.09192 9.71104 8.15171 9.6879 8.20749C9.66477 8.26327 9.63086 8.31393 9.58812 8.35659C9.54544 8.39934 9.49475 8.43325 9.43895 8.45639C9.38315 8.47953 9.32334 8.49144 9.26293 8.49144C9.20253 8.49144 9.14271 8.47953 9.08691 8.45639C9.03111 8.43325 8.98042 8.39934 8.93774 8.35659C8.87363 8.29241 8.82993 8.2107 8.81214 8.12174C8.79435 8.03278 8.80325 7.94055 8.83774 7.85665L8.21745 7.23635V8.86859C8.26248 8.89072 8.30358 8.92007 8.33911 8.95549C8.42534 9.04176 8.47378 9.15874 8.47378 9.28071C8.47378 9.40268 8.42534 9.51966 8.33911 9.60593C8.15938 9.7854 7.8682 9.7854 7.689 9.60593C7.64624 9.56325 7.61232 9.51256 7.58917 9.45675C7.56603 9.40095 7.55412 9.34112 7.55412 9.28071C7.55412 9.22029 7.56603 9.16047 7.58917 9.10467C7.61232 9.04886 7.64624 8.99817 7.689 8.95549C7.73191 8.91231 7.78307 8.87822 7.83943 8.85522V7.20778C7.78307 7.18479 7.73191 7.15069 7.689 7.10752C7.62445 7.04301 7.58055 6.96076 7.56287 6.87123C7.54519 6.7817 7.55454 6.68894 7.58972 6.60474L6.90952 5.92427L5.11323 7.72057C5.07733 7.75644 5.04886 7.79904 5.02943 7.84592C5.01 7.89281 5 7.94306 5 7.99381C5 8.04456 5.01 8.09482 5.02943 8.1417C5.04886 8.18858 5.07733 8.23118 5.11323 8.26706L7.73298 10.8868C7.76885 10.9227 7.81144 10.9512 7.85832 10.9706C7.9052 10.99 7.95545 11 8.00619 11C8.05693 11 8.10718 10.99 8.15405 10.9706C8.20093 10.9512 8.24353 10.9227 8.2794 10.8868L10.8871 8.27943C10.9596 8.20693 11.0003 8.10859 11.0003 8.00606C11.0003 7.90352 10.9596 7.80519 10.8871 7.73268Z" fill="#F03C2E"/>
</svg>
