<svg width="16" height="16" viewBox="0 0 16 16" fill="none" xmlns="http://www.w3.org/2000/svg">
<rect x="2.5" y="2.5" width="11" height="11" rx="2.5" fill="black"/>
<rect x="2.5" y="2.5" width="11" height="11" rx="2.5" stroke="white"/>
<g clip-path="url(#clip0_77_722)">
<path d="M7.98477 10.9695C9.63322 10.9695 10.9695 9.63322 10.9695 7.98477C10.9695 6.33633 9.63322 5 7.98477 5C6.33633 5 5 6.33633 5 7.98477C5 9.63322 6.33633 10.9695 7.98477 10.9695Z" fill="white"/>
<path d="M7.98501 10.3604C9.29704 10.3604 10.3606 9.2968 10.3606 7.98477C10.3606 6.67275 9.29704 5.60914 7.98501 5.60914C6.67298 5.60914 5.60938 6.67275 5.60938 7.98477C5.60938 9.2968 6.67298 10.3604 7.98501 10.3604Z" fill="black"/>
<path d="M7.9847 9.6599C8.90984 9.6599 9.65982 8.90992 9.65982 7.98477C9.65982 7.05963 8.90984 6.30965 7.9847 6.30965C7.05955 6.30965 6.30957 7.05963 6.30957 7.98477C6.30957 8.90992 7.05955 9.6599 7.9847 9.6599Z" fill="white"/>
<path d="M7.98499 8.89848C8.48962 8.89848 8.8987 8.4894 8.8987 7.98477C8.8987 7.48015 8.48962 7.07107 7.98499 7.07107C7.48037 7.07107 7.07129 7.48015 7.07129 7.98477C7.07129 8.4894 7.48037 8.89848 7.98499 8.89848Z" fill="black"/>
<path d="M9.87349 7.58883H8.50293V8.35025H9.87349V7.58883Z" fill="black"/>
</g>
<defs>
<clipPath id="clip0_77_722">
<rect width="6" height="6" fill="white" transform="translate(5 5)"/>
</clipPath>
</defs>
</svg>
