<svg width="16" height="16" viewBox="0 0 16 16" fill="none" xmlns="http://www.w3.org/2000/svg">
<rect x="2.5" y="2.5" width="11" height="11" rx="2.5" fill="#310218"/>
<rect x="2.5" y="2.5" width="11" height="11" rx="2.5" stroke="#F64F9C"/>
<path d="M8.22754 6.73562V9.27207C8.22892 9.30281 8.24242 9.33174 8.26509 9.35255C8.28775 9.37335 8.31773 9.38433 8.34847 9.38308H10.8849C10.9004 9.38304 10.9157 9.3799 10.9299 9.37385C10.9441 9.36779 10.957 9.35895 10.9677 9.34784C10.9785 9.33673 10.9869 9.32358 10.9925 9.30917C10.998 9.29475 11.0007 9.27936 11.0002 9.26391C11.0009 7.99995 9.61847 6.62143 8.35167 6.6193C8.31983 6.61844 8.28893 6.63017 8.26569 6.65195C8.24245 6.67373 8.22874 6.7038 8.22754 6.73562Z" fill="#F64F9C"/>
<path d="M5 8.57944V9.27207C5.00009 9.28701 5.00317 9.30179 5.00907 9.31552C5.01497 9.32925 5.02356 9.34166 5.03434 9.35201C5.04512 9.36236 5.05787 9.37045 5.07183 9.37578C5.08579 9.38112 5.10068 9.3836 5.11562 9.38307H7.65526C7.67001 9.38373 7.68473 9.3813 7.6985 9.37596C7.71226 9.37061 7.72476 9.36246 7.7352 9.35202C7.74564 9.34157 7.7538 9.32907 7.75914 9.31531C7.76449 9.30155 7.76691 9.28682 7.76626 9.27207V6.73243C7.76678 6.71749 7.7643 6.7026 7.75897 6.68864C7.75363 6.67468 7.74555 6.66194 7.7352 6.65116C7.72485 6.64038 7.71244 6.63178 7.69871 6.62588C7.68498 6.61998 7.6702 6.6169 7.65526 6.61681H6.96263C6.93167 6.61671 6.90191 6.62877 6.87976 6.6504C6.8576 6.67202 6.84482 6.70148 6.84417 6.73243V7.42506C6.84446 7.43997 6.84176 7.45478 6.83622 7.46863C6.83069 7.48248 6.82245 7.49508 6.81197 7.50569C6.80149 7.5163 6.78899 7.5247 6.77522 7.53041C6.76144 7.53611 6.74666 7.539 6.73175 7.5389H6.03912C6.00817 7.53918 5.97856 7.5516 5.95667 7.57349C5.93478 7.59537 5.92236 7.62498 5.92209 7.65593V8.34856C5.92218 8.36347 5.9193 8.37825 5.91359 8.39203C5.90789 8.40581 5.89948 8.4183 5.88887 8.42878C5.87826 8.43926 5.86566 8.44751 5.85182 8.45304C5.83797 8.45857 5.82315 8.46127 5.80825 8.46099H5.11562C5.08467 8.46164 5.05521 8.47442 5.03358 8.49657C5.01196 8.51872 4.9999 8.54848 5 8.57944Z" fill="#F64F9C"/>
<path opacity="0.8" d="M7.65504 6.61681H6.96241C6.93146 6.61671 6.9017 6.62877 6.87954 6.6504C6.85739 6.67202 6.84461 6.70148 6.84396 6.73243V7.42506C6.84425 7.43997 6.84154 7.45478 6.83601 7.46863C6.83048 7.48248 6.82223 7.49508 6.81176 7.50569C6.80128 7.5163 6.78878 7.5247 6.77501 7.53041C6.76123 7.53611 6.74645 7.539 6.73154 7.5389H6.03891C6.00796 7.53918 5.97835 7.5516 5.95646 7.57349C5.93457 7.59537 5.92215 7.62498 5.92188 7.65593V9.38307H7.65504C7.66979 9.38373 7.68452 9.3813 7.69828 9.37596C7.71205 9.37061 7.72455 9.36246 7.73499 9.35202C7.74543 9.34157 7.75358 9.32907 7.75893 9.31531C7.76428 9.30155 7.7667 9.28682 7.76605 9.27207V6.73243C7.76657 6.71749 7.76409 6.7026 7.75875 6.68864C7.75342 6.67468 7.74534 6.66194 7.73499 6.65116C7.72464 6.64038 7.71223 6.63178 7.6985 6.62588C7.68476 6.61998 7.66999 6.6169 7.65504 6.61681Z" fill="#F64F9C"/>
<path opacity="0.8" d="M7.65483 6.61681H6.9622C6.93125 6.61671 6.90149 6.62877 6.87933 6.6504C6.85718 6.67202 6.8444 6.70148 6.84375 6.73243V9.38307H7.65483C7.66958 9.38373 7.68431 9.3813 7.69807 9.37596C7.71184 9.37061 7.72434 9.36246 7.73478 9.35202C7.74522 9.34157 7.75337 9.32907 7.75872 9.31531C7.76407 9.30155 7.76649 9.28682 7.76584 9.27207V6.73243C7.76636 6.71749 7.76388 6.7026 7.75854 6.68864C7.75321 6.67468 7.74513 6.66194 7.73477 6.65116C7.72442 6.64038 7.71202 6.63178 7.69828 6.62588C7.68455 6.61998 7.66978 6.6169 7.65483 6.61681Z" fill="#F64F9C"/>
</svg>
