<svg width="16" height="16" viewBox="0 0 16 16" fill="none" xmlns="http://www.w3.org/2000/svg">
<rect x="2.5" y="2.5" width="11" height="11" rx="2.5" fill="#102323"/>
<rect x="2.5" y="2.5" width="11" height="11" rx="2.5" stroke="#56B3B4"/>
<path d="M6.17737 9.17959V7.99135H8.20101C8.43895 7.99135 8.62145 7.93813 8.7485 7.83168C8.87555 7.72346 8.93908 7.566 8.93908 7.36064V7.35354C8.93908 7.14819 8.87555 6.99206 8.7485 6.88605C8.62145 6.77961 8.43895 6.72638 8.20101 6.72638H6.17737V5.5H8.50248C8.95756 5.5 9.34797 5.57718 9.67371 5.73197C10.0017 5.88455 10.2535 6.09833 10.4291 6.37288C10.6046 6.64788 10.6924 6.969 10.6924 7.33625V7.34334C10.6924 7.70128 10.6046 8.01885 10.4291 8.29606C10.2535 8.57105 10.0017 8.78706 9.67371 8.94407C9.34797 9.10108 8.95756 9.17959 8.50248 9.17959H6.17737ZM5.30762 10.5V5.5H7.04019V10.5H5.30762Z" fill="#56B3B4"/>
</svg>
