<svg width="16" height="16" viewBox="0 0 16 16" fill="none" xmlns="http://www.w3.org/2000/svg">
<rect x="2.5" y="2.5" width="11" height="11" rx="2.5" fill="black"/>
<rect x="2.5" y="2.5" width="11" height="11" rx="2.5" stroke="white"/>
<path fill-rule="evenodd" clip-rule="evenodd" d="M5.60112 9.11836C5.54008 9.02208 5.53916 8.89945 5.59874 8.80224L7.84224 5.14263C7.96703 4.93909 8.26834 4.95689 8.3683 5.1737L10.4178 9.61965C10.4939 9.78462 10.4063 9.97871 10.2323 10.0309L7.04413 10.9874C6.91585 11.0258 6.77764 10.9743 6.70593 10.8612L5.60112 9.11836ZM8.10109 6.21267C8.12271 6.10501 8.27022 6.08949 8.31379 6.19029L9.72753 9.46162C9.75414 9.52322 9.72102 9.59425 9.65673 9.61343L7.45392 10.271C7.37295 10.2952 7.29538 10.2244 7.31202 10.1416L8.10109 6.21267Z" fill="white"/>
</svg>
