<svg width="16" height="16" viewBox="0 0 16 16" fill="none" xmlns="http://www.w3.org/2000/svg">
<rect x="2.5" y="2.5" width="11" height="11" rx="2.5" fill="#003326"/>
<rect x="2.5" y="2.5" width="11" height="11" rx="2.5" stroke="#01D8A2"/>
<path d="M5.7563 9.70168L5 9.29832V8.90756L6.84034 8.00282L5.03782 7.07983V6.65126L5.78151 6.28571L8.03782 7.42017L10.2689 6.28571L10.9496 6.63865V7.10504L9.2605 7.98665L11 8.90756V9.29832L10.2815 9.71428L8.03782 8.56723L5.7563 9.70168Z" fill="#01D8A2"/>
<path d="M5.7563 9.70168L5 9.29832V8.90756M5.7563 9.70168V9.29832M5.7563 9.70168L8.03782 8.56723M5.7563 9.29832L5 8.90756M5.7563 9.29832L8.03782 8.18907M5 8.90756L6.84034 8.00282M5.03782 6.65126L7.2563 7.79832L6.84034 8.00282M5.03782 6.65126L5.78151 6.28571L8.03782 7.42017L10.2689 6.28571L10.9496 6.63865M5.03782 6.65126V7.07983L6.84034 8.00282M10.9496 6.63865L8.85714 7.77311L9.2605 7.98665M10.9496 6.63865V7.10504L9.2605 7.98665M11 8.90756L10.2815 9.29832M11 8.90756V9.29832L10.2815 9.71428M11 8.90756L9.2605 7.98665M10.2815 9.29832L8.03782 8.18907M10.2815 9.29832V9.71428M8.03782 8.18907V8.56723M8.03782 8.56723L10.2815 9.71428" stroke="black" stroke-width="0.1"/>
</svg>
