<svg width="16" height="16" viewBox="0 0 16 16" fill="none" xmlns="http://www.w3.org/2000/svg">
<rect x="2.5" y="2.5" width="11" height="11" rx="2.5" fill="#052E24"/>
<rect x="2.5" y="2.5" width="11" height="11" rx="2.5" stroke="#13BF95"/>
<path d="M10.4375 6.4375C11.3004 6.4375 12 7.13706 12 8C12 8.86294 11.3004 9.5625 10.4375 9.5625C9.57456 9.5625 8.875 8.86294 8.875 8C8.87502 7.64445 8.9963 7.29953 9.21881 7.02222C9.30935 7.1263 9.3421 7.18794 9.4375 7.34375H9.49219C9.44387 7.22443 9.37283 7.10836 9.27713 6.95374C9.57339 6.62513 9.99507 6.43753 10.4375 6.4375ZM10.4375 7.125C9.95425 7.125 9.5625 7.51675 9.5625 8C9.5625 8.48325 9.95425 8.875 10.4375 8.875C10.9207 8.875 11.3125 8.48325 11.3125 8C11.3125 7.51675 10.9207 7.125 10.4375 7.125Z" fill="#13BF95"/>
<path d="M8 6.4375C7.13706 6.4375 6.4375 7.13706 6.4375 8C6.43763 8.35535 6.55888 8.70003 6.78125 8.9772C6.7819 8.97639 6.78234 8.97575 6.78299 8.97495C6.78319 8.97519 6.78337 8.97543 6.78357 8.97568C6.79857 8.95682 6.813 8.93751 6.82712 8.91797C6.8927 8.8321 6.93806 8.7601 6.98224 8.65112C6.98621 8.64243 6.99024 8.63378 6.99405 8.625H7.04688C7.03556 8.67168 7.01968 8.71745 7.00009 8.76382C6.95642 8.85749 6.90213 8.95725 6.84695 9.04678C6.84606 9.04823 6.84538 9.04949 6.84448 9.05093C7.14044 9.37655 7.55998 9.56229 8 9.5625C8.44002 9.56229 8.85956 9.37655 9.15552 9.05093C9.15462 9.04949 9.15394 9.04823 9.15305 9.04678C9.09787 8.95725 9.04358 8.85749 8.99991 8.76382C8.98032 8.71745 8.96444 8.67168 8.95312 8.625H9.00595C9.00976 8.63378 9.01379 8.64243 9.01776 8.65112C9.06194 8.7601 9.1073 8.8321 9.17288 8.91797C9.187 8.93751 9.20143 8.95682 9.21643 8.97568C9.21663 8.97543 9.21681 8.97519 9.21701 8.97495C9.21766 8.97575 9.2181 8.97639 9.21875 8.9772C9.44112 8.70003 9.56238 8.35535 9.5625 8C9.5625 7.13706 8.86294 6.4375 8 6.4375ZM8 7.125C8.48325 7.125 8.875 7.51675 8.875 8C8.875 8.48325 8.48325 8.875 8 8.875C7.51675 8.875 7.125 8.48325 7.125 8C7.125 7.9849 7.12537 7.9699 7.12613 7.95499C7.14956 7.49266 7.53185 7.125 8 7.125Z" fill="#13BF95"/>
<path d="M5.5625 6.4375C4.69955 6.4375 4 7.13705 4 8C4 8.86294 4.69955 9.5625 5.5625 9.5625C6.42544 9.5625 7.125 8.86294 7.125 8C7.12498 7.64445 7.0037 7.29953 6.78119 7.02222C6.69065 7.1263 6.6579 7.18794 6.5625 7.34375H6.50781C6.55613 7.22443 6.62717 7.10836 6.72287 6.95374C6.42661 6.62513 6.00493 6.43753 5.5625 6.4375ZM5.5625 7.125C6.04575 7.125 6.4375 7.51675 6.4375 8C6.4375 8.48325 6.04575 8.875 5.5625 8.875C5.07925 8.875 4.6875 8.48325 4.6875 8C4.6875 7.51675 5.07925 7.125 5.5625 7.125Z" fill="#13BF95"/>
</svg>
