<svg width="16" height="16" viewBox="0 0 16 16" fill="none" xmlns="http://www.w3.org/2000/svg">
<rect x="2.5" y="2.5" width="11" height="11" rx="2.5" fill="black"/>
<rect x="2.5" y="2.5" width="11" height="11" rx="2.5" stroke="white"/>
<path d="M8.47737 5.62631C8.42746 5.54349 8.357 5.47497 8.27281 5.42741C8.18862 5.37985 8.09356 5.35485 7.99687 5.35485C7.90017 5.35485 7.80512 5.37985 7.72093 5.42741C7.63674 5.47497 7.56627 5.54349 7.51637 5.62631L6.72594 6.98012C7.32979 7.2816 7.84428 7.73579 8.21832 8.29758C8.59236 8.85938 8.81294 9.50925 8.85816 10.1827H8.30319C8.25805 9.60542 8.06297 9.04998 7.73724 8.57129C7.41151 8.0926 6.96644 7.70727 6.44605 7.45342L5.71449 8.71833C6.00703 8.84954 6.2619 9.05218 6.45564 9.30764C6.64939 9.5631 6.7758 9.86317 6.82324 10.1803H5.54872C5.5336 10.1792 5.51899 10.1744 5.5062 10.1662C5.49341 10.1581 5.48284 10.1469 5.47545 10.1337C5.46807 10.1205 5.46409 10.1056 5.46387 10.0905C5.46366 10.0753 5.46722 10.0603 5.47424 10.0469L5.82741 9.44629C5.70776 9.34646 5.57101 9.26913 5.42379 9.21805L5.07422 9.81868C5.03783 9.8811 5.01421 9.95013 5.00472 10.0218C4.99523 10.0934 5.00008 10.1662 5.01896 10.2359C5.03785 10.3057 5.07041 10.371 5.11475 10.428C5.15909 10.4851 5.21432 10.5327 5.27723 10.5683C5.36013 10.615 5.45357 10.6398 5.54872 10.6403H7.29414C7.32655 10.2403 7.25512 9.83872 7.08676 9.47443C6.91839 9.11013 6.6588 8.79549 6.33313 8.56097L6.61062 8.08047C7.02162 8.36275 7.35191 8.74733 7.56889 9.19625C7.78587 9.64516 7.88204 10.1429 7.84791 10.6403H9.32665C9.36109 9.88679 9.19715 9.1374 8.85123 8.46706C8.50531 7.79672 7.98952 7.2289 7.3554 6.82036L7.91638 5.85936C7.92888 5.83841 7.94915 5.82325 7.97277 5.81718C7.9964 5.8111 8.02146 5.81461 8.04251 5.82692C8.10618 5.86176 10.4799 10.0037 10.5243 10.0517C10.5321 10.0658 10.5361 10.0816 10.5358 10.0977C10.5356 10.1138 10.5311 10.1295 10.5228 10.1433C10.5145 10.157 10.5027 10.1684 10.4886 10.1761C10.4746 10.1839 10.4587 10.1878 10.4426 10.1875H9.87082C9.87803 10.3404 9.87803 10.493 9.87082 10.6451H10.445C10.5179 10.6456 10.5902 10.6316 10.6577 10.604C10.7252 10.5763 10.7865 10.5356 10.8381 10.4841C10.8897 10.4326 10.9306 10.3713 10.9584 10.3039C10.9862 10.2365 11.0003 10.1643 11 10.0914C11.0001 9.99506 10.9743 9.90049 10.9255 9.81748L8.47737 5.62631Z" fill="white"/>
</svg>
