<svg width="16" height="16" viewBox="0 0 16 16" fill="none" xmlns="http://www.w3.org/2000/svg">
<rect x="2.5" y="2.5" width="11" height="11" rx="2.5" fill="#041B2F"/>
<rect x="2.5" y="2.5" width="11" height="11" rx="2.5" stroke="#3F9DEF" stroke-linecap="round"/>
<path d="M8.12496 6.05488C8.12496 5.47318 7.65177 5 7.07008 5C6.45705 5 6.09056 5.45962 6.09056 5.90418H6.69334C6.69334 5.7791 6.81028 5.60278 7.07008 5.60278C7.31934 5.60278 7.52217 5.80563 7.52217 6.05488C7.52217 6.30413 7.34023 6.50697 6.88143 6.50697H5.24023V7.10975H6.88143C7.65577 7.10975 8.12496 6.63657 8.12496 6.05488ZM8.12496 6.05488C8.12496 5.47318 7.65177 5 7.07008 5C6.45705 5 6.09056 5.45962 6.09056 5.90418H6.69334C6.69334 5.7791 6.81028 5.60278 7.07008 5.60278C7.31934 5.60278 7.52217 5.80563 7.52217 6.05488C7.52217 6.30413 7.34023 6.50697 6.88143 6.50697H5.24023V7.10975H6.88143C7.65577 7.10975 8.12496 6.63657 8.12496 6.05488Z" fill="#3F9DEF"/>
<path d="M9.46219 9.94512C9.46219 10.5268 8.989 11 8.40731 11C7.79428 11 7.42778 10.5404 7.42778 10.0958H8.03057C8.03057 10.2209 8.14751 10.3972 8.40731 10.3972C8.65656 10.3972 8.8594 10.1944 8.8594 9.94512C8.8594 9.69586 8.63019 9.49303 8.21866 9.49303H6.39746V8.89024H8.21866C8.993 8.89024 9.46219 9.36343 9.46219 9.94512ZM9.46219 9.94512C9.46219 10.5268 8.989 11 8.40731 11C7.79428 11 7.42778 10.5404 7.42778 10.0958H8.03057C8.03057 10.2209 8.14751 10.3972 8.40731 10.3972C8.65656 10.3972 8.8594 10.1944 8.8594 9.94512C8.8594 9.69586 8.63019 9.49303 8.21866 9.49303H6.39746V8.89024H8.21866C8.993 8.89024 9.46219 9.36343 9.46219 9.94512Z" fill="#3F9DEF"/>
<path d="M9.62023 5.92999C8.95536 5.92999 8.48635 6.43561 8.48635 7.10048H9.02023C9.02023 6.76999 9.26023 6.52999 9.62023 6.52999C9.98023 6.52999 10.1602 6.76999 10.1602 7.10048C10.1602 7.43096 9.92645 7.70326 9.29023 7.70326H5.24023V8.30605H9.38023C10.3224 8.30605 10.7602 7.70048 10.7602 7.10048C10.7602 6.43561 10.3102 5.92999 9.62023 5.92999Z" fill="#3F9DEF"/>
<path d="M6.03044 8.89024H5.24023V9.49809H6.03044V8.89024Z" fill="#3F9DEF"/>
</svg>
