<svg width="16" height="16" viewBox="0 0 16 16" fill="none" xmlns="http://www.w3.org/2000/svg">
<path d="M13 14H3C1.89543 14 1 13.1046 1 12V4C1 2.89543 1.89543 2 3 2H5.67157C6.20201 2 6.71071 2.21071 7.08579 2.58579L7.91421 3.41421C8.28929 3.78929 8.79799 4 9.32843 4H13C14.1046 4 15 4.89543 15 6V12C15 13.1046 14.1046 14 13 14Z" fill="#4FAF53"/>
<mask id="mask0_133_213" style="mask-type:alpha" maskUnits="userSpaceOnUse" x="5" y="7" width="6" height="4">
<path d="M10.9907 10.382C10.8983 10.0039 10.7345 9.64686 10.5082 9.33021C10.3647 9.12895 10.1975 8.94572 10.0102 8.78449C9.89011 8.68095 9.76223 8.58683 9.62768 8.50296L9.63101 8.49678L9.81632 8.17723L9.9976 7.86481L10.1276 7.64054C10.1611 7.57627 10.1685 7.50155 10.1483 7.43193C10.1282 7.36231 10.0819 7.30316 10.0192 7.26679C9.95651 7.23042 9.8822 7.21963 9.81175 7.23668C9.74129 7.25372 9.68013 7.29728 9.64099 7.35829L9.51103 7.58257L9.32976 7.89475L9.14444 8.21453L9.12401 8.24969L9.09598 8.23853C8.74588 8.10533 8.37437 8.03729 7.99978 8.03777H7.96818C7.59626 8.04128 7.22805 8.11228 6.88149 8.24732L6.86248 8.21477L6.67717 7.89499L6.49613 7.58257L6.36594 7.35829C6.33806 7.31018 6.29652 7.27142 6.2466 7.24692C6.19668 7.22242 6.14061 7.21328 6.08549 7.22065C6.03037 7.22803 5.97868 7.25159 5.93696 7.28836C5.89524 7.32512 5.86536 7.37344 5.8511 7.42719C5.832 7.49928 5.84225 7.576 5.87961 7.64054L6.00957 7.86505L6.19084 8.17723L6.37616 8.49702L6.37782 8.49963C5.90774 8.79154 5.52458 9.20423 5.26832 9.69466C5.15472 9.91262 5.06777 10.1435 5.00936 10.3822C4.95756 10.5927 5.12791 10.7818 5.34482 10.7818H10.6545C10.8712 10.7818 11.0425 10.5925 10.9907 10.382Z" fill="#34A853"/>
</mask>
<g mask="url(#mask0_133_213)">
<path d="M11.0952 7.10574H4.56055V10.7825H11.0952V7.10574Z" fill="black"/>
<g filter="url(#filter0_f_133_213)">
<path d="M7.87613 8.49036C8.49574 8.98215 6.74976 9.0368 6.07479 10.1095C5.40007 11.1819 5.93985 13.0467 5.32024 12.5551C4.9375 11.9666 4.87763 10.7699 5.55259 9.69703C6.22732 8.6246 7.34728 8.27203 7.87375 8.49036H7.87613Z" fill="black"/>
</g>
<g filter="url(#filter1_f_133_213)">
<path d="M8.14424 8.48704C7.49327 8.95175 9.3281 9.0033 10.0373 10.0171C10.7465 11.0306 10.1791 12.7927 10.8303 12.3282C11.2325 11.7721 11.2953 10.6412 10.5861 9.62743C9.87691 8.61367 8.70018 8.28058 8.14662 8.48704H8.14424Z" fill="black"/>
</g>
<g opacity="0.6" filter="url(#filter2_f_133_213)">
<path d="M4.60917 9.99021C4.36042 10.773 4.23236 11.4309 4.32312 11.4596C4.41388 11.4884 4.68899 10.8776 4.93798 10.0947C5.18672 9.31216 6.21283 8.45877 6.12208 8.43002C6.03132 8.40103 4.85815 9.20762 4.60917 9.99021Z" fill="black"/>
</g>
<g opacity="0.5" filter="url(#filter3_f_133_213)">
<path d="M11.1084 9.91893C11.3572 10.7015 11.4852 11.3594 11.3945 11.3881C11.3037 11.4171 11.0286 10.8061 10.7798 10.0232C10.5311 9.24064 9.50475 8.38725 9.59551 8.3585C9.68626 8.32976 10.8594 9.13634 11.1084 9.91893Z" fill="black"/>
</g>
<g opacity="0.7" filter="url(#filter4_f_133_213)">
<path d="M6.10398 7.83202C6.35011 8.23662 6.45797 8.42954 6.42233 8.45139C6.3867 8.47301 6.22063 8.3155 5.97426 7.9109C5.60221 7.58375 5.99564 7.1409 6.03151 7.11904C6.06715 7.09719 5.73763 7.2958 6.10398 7.83202Z" fill="black"/>
</g>
<g opacity="0.1" filter="url(#filter5_f_133_213)">
<path d="M6.37549 8.49346C6.40495 8.47445 6.24958 8.18413 6.02791 7.84557C5.80673 7.50702 5.60336 7.24806 5.5739 7.2673C5.54444 7.28631 5.69981 7.57663 5.92148 7.91519C6.14266 8.25397 6.34603 8.51294 6.37549 8.49346Z" fill="black"/>
</g>
<g opacity="0.3" filter="url(#filter6_f_133_213)">
<path d="M6.41025 7.62557C6.66803 8.0487 6.79371 8.24281 6.82221 8.22522C6.85072 8.20788 6.77161 7.98574 6.51384 7.56238C6.26533 6.99693 5.81725 7.3343 5.86144 7.39607C5.94744 7.56166 6.08073 7.0321 6.41025 7.62557Z" fill="black"/>
</g>
<path opacity="0.15" d="M5.6139 7.47376C5.65904 7.63009 5.83842 7.71538 6.01446 7.6643C6.19051 7.61346 6.29671 7.44572 6.25133 7.2894C6.20619 7.13307 6.02682 7.04778 5.85077 7.09886C5.67496 7.1497 5.56876 7.31743 5.6139 7.47376Z" fill="black"/>
<path opacity="0.15" d="M9.72019 7.43289C9.76675 7.59349 9.95777 7.6795 10.1466 7.62462C10.3358 7.56997 10.4512 7.39535 10.4049 7.23475C10.3583 7.07414 10.1673 6.98814 9.97844 7.04302C9.78932 7.09766 9.67386 7.27228 9.72019 7.43289Z" fill="black"/>
<g opacity="0.1" filter="url(#filter7_f_133_213)">
<path d="M9.60925 8.51556C9.57931 8.4968 9.73042 8.20433 9.94614 7.86222C10.1621 7.5201 10.3612 7.25781 10.3909 7.27658C10.4206 7.29535 10.2697 7.58781 10.0538 7.92993C9.83804 8.27204 9.63918 8.53433 9.60925 8.51556Z" fill="black"/>
</g>
<mask id="mask1_133_213" style="mask-type:alpha" maskUnits="userSpaceOnUse" x="9" y="7" width="2" height="2">
<path d="M9.65588 8.52078C9.51095 8.4305 9.17976 8.27512 9.03223 8.20883L9.12963 7.86411L10.0819 8.24708C10.0001 8.37609 9.8008 8.6113 9.65588 8.52078Z" fill="black"/>
</mask>
<g mask="url(#mask1_133_213)">
<g style="mix-blend-mode:multiply" opacity="0.3" filter="url(#filter8_f_133_213)">
<path d="M9.75266 8.47042C9.49346 8.36089 9.27204 8.29817 9.25849 8.33048C9.24471 8.36303 9.44143 8.45403 9.70063 8.56379C9.96007 8.67331 10.1839 8.76003 10.1976 8.72772C10.2112 8.69517 10.0121 8.58018 9.75266 8.47042Z" fill="black"/>
</g>
<g style="mix-blend-mode:screen" opacity="0.3" filter="url(#filter9_f_133_213)">
<path d="M9.22124 8.26346C9.14901 8.22806 9.08463 8.21072 9.07774 8.22474C9.07085 8.23899 9.12525 8.26917 9.19724 8.3048C9.26946 8.34044 9.33266 8.36752 9.33955 8.35351C9.34644 8.33925 9.29346 8.29886 9.22124 8.26346Z" fill="black"/>
</g>
</g>
<mask id="mask2_133_213" style="mask-type:alpha" maskUnits="userSpaceOnUse" x="5" y="7" width="2" height="2">
<path d="M6.31133 8.5495C6.45411 8.45614 6.78198 8.29434 6.92833 8.22473L6.82379 7.88214L5.87988 8.2846C5.96399 8.41195 6.16831 8.64287 6.31133 8.5495Z" fill="black"/>
</mask>
<g mask="url(#mask2_133_213)">
<g style="mix-blend-mode:multiply" opacity="0.3" filter="url(#filter10_f_133_213)">
<path d="M6.21248 8.49912C6.46954 8.38414 6.68954 8.3169 6.70403 8.34897C6.71829 8.38105 6.52347 8.47632 6.26641 8.59131C6.00935 8.70629 5.78744 8.79753 5.77319 8.76545C5.75894 8.73338 5.95518 8.61411 6.21248 8.49912Z" fill="black"/>
</g>
<g style="mix-blend-mode:screen" opacity="0.3" filter="url(#filter11_f_133_213)">
<path d="M6.73914 8.28197C6.81041 8.24491 6.87456 8.22638 6.88169 8.2404C6.88881 8.25441 6.83536 8.28554 6.76385 8.3226C6.69233 8.35966 6.62985 8.38817 6.62272 8.37415C6.6156 8.36037 6.66763 8.31904 6.73914 8.28197Z" fill="black"/>
</g>
</g>
<g opacity="0.7" filter="url(#filter12_f_133_213)">
<path d="M9.91172 7.84889C9.67485 8.25896 9.5715 8.45449 9.60761 8.47539C9.6442 8.4963 9.80623 8.33498 10.0431 7.92468C10.4075 7.58898 10.0037 7.15516 9.96731 7.13425C9.9312 7.11334 10.2652 7.30436 9.91172 7.84889Z" fill="black"/>
</g>
<g opacity="0.3" filter="url(#filter13_f_133_213)">
<path d="M9.5863 7.64838C9.34516 8.06629 9.22684 8.2573 9.1962 8.23972C9.16579 8.22214 9.23468 8.00214 9.47583 7.58471C9.75047 6.85938 10.295 6.95513 10.2057 7.35188C10.1354 7.51463 9.89136 7.06275 9.5863 7.64838Z" fill="black"/>
</g>
<path d="M6.82397 9.5148C6.86341 9.47014 6.83014 9.37534 6.7496 9.30288C6.66883 9.23042 6.57166 9.20785 6.53222 9.25275C6.49278 9.29742 6.52604 9.39221 6.60658 9.46467C6.68736 9.53713 6.78453 9.5597 6.82397 9.5148Z" fill="black"/>
<path d="M9.50635 9.4692C9.58713 9.39674 9.62039 9.30194 9.58071 9.25728C9.54127 9.21237 9.4441 9.23494 9.36356 9.30717C9.28278 9.37987 9.24952 9.47466 9.2892 9.51933C9.32864 9.56423 9.42581 9.54142 9.50635 9.4692Z" fill="black"/>
<path opacity="0.09" d="M6.79133 9.81226C6.88922 9.56827 6.78658 9.41788 6.72315 9.37131C6.53997 9.14466 6.29313 9.31952 6.22019 9.41812C6.14678 9.5141 6.03939 9.68658 6.1444 9.92321C6.24941 10.1596 6.66945 10.1178 6.79133 9.81226ZM9.32323 9.81773C9.22558 9.57635 9.32798 9.42334 9.39165 9.37915C9.57459 9.1525 9.8212 9.32736 9.89461 9.42596C9.96778 9.52194 10.0752 9.69442 9.97016 9.92868C9.86515 10.1627 9.44511 10.1233 9.32323 9.8201V9.81773Z" fill="black"/>
<path d="M9.87514 9.98452C10.0265 9.88355 10.0509 9.64954 9.92883 9.4647C9.80671 9.27986 9.58434 9.21334 9.43324 9.31431C9.2819 9.41552 9.25743 9.6493 9.37954 9.83414C9.50142 10.019 9.7238 10.0855 9.87514 9.98452Z" fill="black"/>
<path d="M6.73328 9.82675C6.8554 9.64191 6.83354 9.41265 6.68458 9.31168C6.53561 9.21332 6.31823 9.28222 6.19611 9.46444C6.074 9.64928 6.09609 9.8783 6.24505 9.97951C6.39402 10.0779 6.61116 10.009 6.73328 9.82675ZM9.3804 9.82936C9.25829 9.64476 9.28014 9.4155 9.42911 9.31453C9.57807 9.21593 9.79546 9.28507 9.91757 9.46729C10.0397 9.65213 10.0176 9.88116 9.86863 9.98213C9.71967 10.0807 9.50252 10.0118 9.3804 9.82936Z" fill="white"/>
</g>
<defs>
<filter id="filter0_f_133_213" x="4.03711" y="7.42874" width="4.96973" height="6.20731" filterUnits="userSpaceOnUse" color-interpolation-filters="sRGB">
<feFlood flood-opacity="0" result="BackgroundImageFix"/>
<feBlend mode="normal" in="SourceGraphic" in2="BackgroundImageFix" result="shape"/>
<feGaussianBlur stdDeviation="0.5" result="effect1_foregroundBlur_133_213"/>
</filter>
<filter id="filter1_f_133_213" x="7.00684" y="7.42874" width="5.12109" height="5.97595" filterUnits="userSpaceOnUse" color-interpolation-filters="sRGB">
<feFlood flood-opacity="0" result="BackgroundImageFix"/>
<feBlend mode="normal" in="SourceGraphic" in2="BackgroundImageFix" result="shape"/>
<feGaussianBlur stdDeviation="0.5" result="effect1_foregroundBlur_133_213"/>
</filter>
<filter id="filter2_f_133_213" x="-14.5221" y="-10.3867" width="39.466" height="40.6634" filterUnits="userSpaceOnUse" color-interpolation-filters="sRGB">
<feFlood flood-opacity="0" result="BackgroundImageFix"/>
<feBlend mode="normal" in="SourceGraphic" in2="BackgroundImageFix" result="shape"/>
<feGaussianBlur stdDeviation="9.408" result="effect1_foregroundBlur_133_213"/>
</filter>
<filter id="filter3_f_133_213" x="-9.22616" y="-10.4582" width="39.466" height="40.6634" filterUnits="userSpaceOnUse" color-interpolation-filters="sRGB">
<feFlood flood-opacity="0" result="BackgroundImageFix"/>
<feBlend mode="normal" in="SourceGraphic" in2="BackgroundImageFix" result="shape"/>
<feGaussianBlur stdDeviation="9.408" result="effect1_foregroundBlur_133_213"/>
</filter>
<filter id="filter4_f_133_213" x="-19.2726" y="-17.9706" width="50.7893" height="51.5119" filterUnits="userSpaceOnUse" color-interpolation-filters="sRGB">
<feFlood flood-opacity="0" result="BackgroundImageFix"/>
<feBlend mode="normal" in="SourceGraphic" in2="BackgroundImageFix" result="shape"/>
<feGaussianBlur stdDeviation="12.544" result="effect1_foregroundBlur_133_213"/>
</filter>
<filter id="filter5_f_133_213" x="-0.701687" y="0.994297" width="13.3526" height="13.7722" filterUnits="userSpaceOnUse" color-interpolation-filters="sRGB">
<feFlood flood-opacity="0" result="BackgroundImageFix"/>
<feBlend mode="normal" in="SourceGraphic" in2="BackgroundImageFix" result="shape"/>
<feGaussianBlur stdDeviation="3.136" result="effect1_foregroundBlur_133_213"/>
</filter>
<filter id="filter6_f_133_213" x="-12.9576" y="-11.576" width="38.6017" height="38.6184" filterUnits="userSpaceOnUse" color-interpolation-filters="sRGB">
<feFlood flood-opacity="0" result="BackgroundImageFix"/>
<feBlend mode="normal" in="SourceGraphic" in2="BackgroundImageFix" result="shape"/>
<feGaussianBlur stdDeviation="9.408" result="effect1_foregroundBlur_133_213"/>
</filter>
<filter id="filter7_f_133_213" x="3.33347" y="1.00363" width="13.3331" height="13.7849" filterUnits="userSpaceOnUse" color-interpolation-filters="sRGB">
<feFlood flood-opacity="0" result="BackgroundImageFix"/>
<feBlend mode="normal" in="SourceGraphic" in2="BackgroundImageFix" result="shape"/>
<feGaussianBlur stdDeviation="3.136" result="effect1_foregroundBlur_133_213"/>
</filter>
<filter id="filter8_f_133_213" x="-3.28619" y="-4.22201" width="26.0284" height="25.5006" filterUnits="userSpaceOnUse" color-interpolation-filters="sRGB">
<feFlood flood-opacity="0" result="BackgroundImageFix"/>
<feBlend mode="normal" in="SourceGraphic" in2="BackgroundImageFix" result="shape"/>
<feGaussianBlur stdDeviation="6.272" result="effect1_foregroundBlur_133_213"/>
</filter>
<filter id="filter9_f_133_213" x="1.55115" y="0.693879" width="15.3147" height="15.1894" filterUnits="userSpaceOnUse" color-interpolation-filters="sRGB">
<feFlood flood-opacity="0" result="BackgroundImageFix"/>
<feBlend mode="normal" in="SourceGraphic" in2="BackgroundImageFix" result="shape"/>
<feGaussianBlur stdDeviation="3.763" result="effect1_foregroundBlur_133_213"/>
</filter>
<filter id="filter10_f_133_213" x="-6.77154" y="-4.20303" width="26.0206" height="25.519" filterUnits="userSpaceOnUse" color-interpolation-filters="sRGB">
<feFlood flood-opacity="0" result="BackgroundImageFix"/>
<feBlend mode="normal" in="SourceGraphic" in2="BackgroundImageFix" result="shape"/>
<feGaussianBlur stdDeviation="6.272" result="effect1_foregroundBlur_133_213"/>
</filter>
<filter id="filter11_f_133_213" x="-0.90393" y="0.709718" width="15.3118" height="15.1941" filterUnits="userSpaceOnUse" color-interpolation-filters="sRGB">
<feFlood flood-opacity="0" result="BackgroundImageFix"/>
<feBlend mode="normal" in="SourceGraphic" in2="BackgroundImageFix" result="shape"/>
<feGaussianBlur stdDeviation="3.763" result="effect1_foregroundBlur_133_213"/>
</filter>
<filter id="filter12_f_133_213" x="-15.4874" y="-17.9553" width="50.7697" height="51.5205" filterUnits="userSpaceOnUse" color-interpolation-filters="sRGB">
<feFlood flood-opacity="0" result="BackgroundImageFix"/>
<feBlend mode="normal" in="SourceGraphic" in2="BackgroundImageFix" result="shape"/>
<feGaussianBlur stdDeviation="12.544" result="effect1_foregroundBlur_133_213"/>
</filter>
<filter id="filter13_f_133_213" x="-9.62655" y="-11.7701" width="38.6584" height="38.8269" filterUnits="userSpaceOnUse" color-interpolation-filters="sRGB">
<feFlood flood-opacity="0" result="BackgroundImageFix"/>
<feBlend mode="normal" in="SourceGraphic" in2="BackgroundImageFix" result="shape"/>
<feGaussianBlur stdDeviation="9.408" result="effect1_foregroundBlur_133_213"/>
</filter>
</defs>
</svg>
