<svg width="16" height="16" viewBox="0 0 16 16" fill="none" xmlns="http://www.w3.org/2000/svg">
<path d="M13 14H3C1.89543 14 1 13.1046 1 12V4C1 2.89543 1.89543 2 3 2H5.67157C6.20201 2 6.71071 2.21071 7.08579 2.58579L7.91421 3.41421C8.28929 3.78929 8.79799 4 9.32843 4H13C14.1046 4 15 4.89543 15 6V12C15 13.1046 14.1046 14 13 14Z" fill="#FF9900"/>
<path fill-rule="evenodd" clip-rule="evenodd" d="M11.2332 8.91095C10.3578 9.55756 9.08588 9.90082 7.99224 9.90082C6.45955 9.90082 5.07853 9.33404 4.03544 8.39207C3.95296 8.31757 4.02746 8.21645 4.12592 8.27499C5.25415 8.92958 6.64581 9.32606 8.08537 9.32606C9.05661 9.32606 10.1236 9.12383 11.1055 8.70872C11.2519 8.6422 11.3769 8.80451 11.2332 8.91095Z" fill="black"/>
<path fill-rule="evenodd" clip-rule="evenodd" d="M11.5976 8.49587C11.4859 8.35218 10.8579 8.42668 10.5732 8.46127C10.488 8.47192 10.4747 8.39741 10.5519 8.34153C11.0521 7.99029 11.8744 8.09141 11.9702 8.20849C12.066 8.32823 11.9436 9.15045 11.4752 9.54427C11.4034 9.60547 11.3342 9.57354 11.3661 9.49371C11.4726 9.23028 11.7094 8.6369 11.5976 8.49587Z" fill="black"/>
</svg>
