<svg width="16" height="16" viewBox="0 0 16 16" fill="none" xmlns="http://www.w3.org/2000/svg">
<path d="M13 14H3C1.89543 14 1 13.1046 1 12V4C1 2.89543 1.89543 2 3 2H5.67157C6.20201 2 6.71071 2.21071 7.08579 2.58579L7.91421 3.41421C8.28929 3.78929 8.79799 4 9.32843 4H13C14.1046 4 15 4.89543 15 6V12C15 13.1046 14.1046 14 13 14Z" fill="white"/>
<path d="M8.00069 6.4791C6.78473 6.4791 5.75166 7.36635 5.52676 8.52299H5.17581C4.99786 8.52299 4.95338 8.64409 5.04976 8.78249L5.60337 9.56841C5.68493 9.68209 5.80356 9.67964 5.88265 9.56841L6.43625 8.78002C6.53017 8.64409 6.48568 8.52299 6.31021 8.52299H5.95432C6.16686 7.58878 6.99727 6.90171 8.00069 6.90171C8.70505 6.90419 9.32292 7.24278 9.70104 7.7692C9.77519 7.87053 9.89383 7.90266 9.99514 7.8384C10.0965 7.77908 10.1237 7.64315 10.0396 7.53441C9.57501 6.89924 8.83357 6.4791 8.00069 6.4791ZM8.00069 11.5209C9.21665 11.5209 10.2497 10.6311 10.4746 9.47698H10.8231C11.001 9.47698 11.048 9.35588 10.9491 9.21747L10.398 8.43155C10.3164 8.31786 10.1978 8.32033 10.1187 8.43155L9.56511 9.21995C9.46874 9.35588 9.51569 9.47698 9.69117 9.47698H10.0495C9.83451 10.4087 9.00164 11.1007 8.00069 11.1007C7.29632 11.0983 6.67846 10.7572 6.30032 10.2308C6.22371 10.1294 6.10755 10.0973 6.00375 10.1591C5.90489 10.2209 5.8777 10.3568 5.96173 10.4656C6.42636 11.1007 7.1678 11.5209 8.00069 11.5209Z" fill="black"/>
<path d="M8.00104 7.55417C7.88736 7.55417 7.7959 7.64314 7.7959 7.75683V9.1532C7.7959 9.21252 7.81569 9.26195 7.8577 9.31879L8.4558 10.1072C8.5423 10.2209 8.6634 10.2382 8.76718 10.1665C8.85865 10.1022 8.86852 9.97866 8.79191 9.8724L7.9788 8.7726L8.20371 9.46213V7.75683C8.20371 7.64314 8.11225 7.55417 8.00104 7.55417Z" fill="black"/>
</svg>
