<svg width="16" height="16" viewBox="0 0 16 16" fill="none" xmlns="http://www.w3.org/2000/svg">
<path d="M13 14H3C1.89543 14 1 13.1046 1 12V4C1 2.89543 1.89543 2 3 2H5.67157C6.20201 2 6.71071 2.21071 7.08579 2.58579L7.91421 3.41421C8.28929 3.78929 8.79799 4 9.32843 4H13C14.1046 4 15 4.89543 15 6V12C15 13.1046 14.1046 14 13 14Z" fill="white"/>
<path d="M6.23013 10.9858H9.50125C10.3473 10.9858 11 10.3456 11 9.52719C11 8.69623 10.3222 8.08117 9.42094 8.08368C9.08955 7.41841 8.47448 7.01422 7.72638 7.01422C6.74477 7.01422 5.92636 7.78242 5.84351 8.76903C5.34393 8.90962 5 9.3364 5 9.86861C5 10.5238 5.48954 10.9858 6.23013 10.9858Z" fill="black"/>
</svg>
