<svg width="16" height="16" viewBox="0 0 16 16" fill="none" xmlns="http://www.w3.org/2000/svg">
<path d="M13 14H3C1.89543 14 1 13.1046 1 12V4C1 2.89543 1.89543 2 3 2H5.67157C6.20201 2 6.71071 2.21071 7.08579 2.58579L7.91421 3.41421C8.28929 3.78929 8.79799 4 9.32843 4H13C14.1046 4 15 4.89543 15 6V12C15 13.1046 14.1046 14 13 14Z" fill="white"/>
<path d="M9.24264 7.24264L8 6L6.75736 7.24264L8 8.48528L9.24264 7.24264Z" fill="black"/>
<path d="M9.24264 10.7574L8 9.51471L6.75736 10.7574L8 12L9.24264 10.7574Z" fill="black"/>
<path d="M10.9995 9L9.75684 7.75735L8.5142 9L9.75684 10.2426L10.9995 9Z" fill="black"/>
<path d="M7.48483 9L6.24219 7.75735L4.99955 9L6.24219 10.2426L7.48483 9Z" fill="black"/>
</svg>
