<svg width="16" height="16" viewBox="0 0 16 16" fill="none" xmlns="http://www.w3.org/2000/svg">
<path d="M13 14H3C1.89543 14 1 13.1046 1 12V4C1 2.89543 1.89543 2 3 2H5.67157C6.20201 2 6.71071 2.21071 7.08579 2.58579L7.91421 3.41421C8.28929 3.78929 8.79799 4 9.32843 4H13C14.1046 4 15 4.89543 15 6V12C15 13.1046 14.1046 14 13 14Z" fill="white"/>
<path d="M5 7.86433L5.21862 7.88052C5.44534 7.62411 5.53441 6.86568 6.87045 7.01412C6.82186 10.2638 5.39676 10.6066 5.48583 11.2732C5.51822 11.6511 5.81781 11.8832 6.1417 11.8967C7.16464 11.8616 7.11876 10.4824 7.43725 7.00603H8.75708C8.68691 8.2314 8.49528 9.45677 8.47368 10.6578C8.48988 11.4568 8.97571 11.8832 9.61538 11.8886C10.668 11.9237 11 10.6956 11 10.172H10.7733C10.7517 10.6039 10.5439 10.9143 10.1012 10.9332C8.89474 10.9493 9.5587 8.81169 9.5668 7.02222L11 7.03032L10.9919 6.11534C5.03498 6.08648 5.79108 5.9697 5 7.86433Z" fill="black"/>
</svg>
