<svg width="16" height="16" viewBox="0 0 16 16" fill="none" xmlns="http://www.w3.org/2000/svg">
<path d="M13 14H3C1.89543 14 1 13.1046 1 12V4C1 2.89543 1.89543 2 3 2H5.67157C6.20201 2 6.71071 2.21071 7.08579 2.58579L7.91421 3.41421C8.28929 3.78929 8.79799 4 9.32843 4H13C14.1046 4 15 4.89543 15 6V12C15 13.1046 14.1046 14 13 14Z" fill="#EE342F"/>
<path d="M8.78628 10.729C9.67353 10.6322 10.51 10.1675 10.9705 9.39205C10.7524 11.3101 8.61831 12.5225 6.87633 11.7781C6.71581 11.7097 6.57765 11.5959 6.48283 11.4496C6.09136 10.8455 5.96267 10.0768 6.14757 9.37918C6.67585 10.2752 7.75003 10.8245 8.78628 10.729Z" fill="black"/>
<path d="M6.11458 8.81634C5.75494 9.63315 5.73936 10.5895 6.18028 11.3765C4.62861 10.2292 4.64554 7.77399 6.16131 6.63818C6.30151 6.5332 6.46812 6.47089 6.64287 6.46141C7.36147 6.42416 8.09158 6.69711 8.60361 7.20575C7.5633 7.21591 6.55008 7.87084 6.11458 8.81634Z" fill="black"/>
<path d="M9.10594 7.45704C8.58104 6.73776 7.75949 6.24808 6.85938 6.23318C8.59933 5.45701 10.7396 6.71541 10.9725 8.57592C10.9942 8.74862 10.9658 8.92472 10.8879 9.0805C10.5628 9.72934 9.96 10.2326 9.25562 10.4188C9.77171 9.47806 9.70805 8.32871 9.10594 7.45704Z" fill="black"/>
</svg>
