<svg width="16" height="16" viewBox="0 0 16 16" fill="none" xmlns="http://www.w3.org/2000/svg">
<path d="M13 14H3C1.89543 14 1 13.1046 1 12V4C1 2.89543 1.89543 2 3 2H5.67157C6.20201 2 6.71071 2.21071 7.08579 2.58579L7.91421 3.41421C8.28929 3.78929 8.79799 4 9.32843 4H13C14.1046 4 15 4.89543 15 6V12C15 13.1046 14.1046 14 13 14Z" fill="#31A8FF"/>
<path d="M4.80795 10.25C4.49812 10.25 4.23083 10.1992 4.00608 10.0978C3.78218 9.99519 3.6097 9.85086 3.48843 9.66463C3.36717 9.47839 3.30664 9.25681 3.30664 8.99989V8.99672C3.30664 8.74086 3.36717 8.51991 3.48843 8.33368C3.6097 8.14744 3.78218 8.00353 4.00608 7.90216C4.23083 7.80079 4.49812 7.75 4.80795 7.75C5.07461 7.75 5.31333 7.79254 5.52369 7.8774C5.73532 7.96121 5.90568 8.08014 6.03478 8.23442C6.16366 8.38765 6.23964 8.56838 6.26292 8.77683L6.26609 8.80646H5.4511L5.44771 8.78996C5.42676 8.70192 5.38719 8.62679 5.32878 8.5652C5.27142 8.5034 5.19862 8.456 5.11037 8.42299C5.02234 8.38997 4.92308 8.37325 4.81282 8.37325C4.67505 8.37325 4.55654 8.39865 4.45728 8.44944C4.3593 8.50002 4.28374 8.5724 4.23083 8.66594C4.17793 8.75863 4.15147 8.86889 4.15147 8.99672V8.99989C4.15147 9.12793 4.17793 9.23861 4.23083 9.33236C4.28374 9.42591 4.35972 9.49829 4.45897 9.54887C4.55823 9.59966 4.67674 9.62484 4.81451 9.62484C4.92371 9.62484 5.0217 9.60897 5.10889 9.57701C5.19587 9.544 5.26867 9.49659 5.32708 9.4348C5.38549 9.37194 5.4257 9.29639 5.44771 9.20835L5.4511 9.19015H6.26609L6.2644 9.2166C6.24027 9.42718 6.16366 9.6096 6.03478 9.76388C5.90568 9.91816 5.73596 10.0377 5.52538 10.1226C5.31608 10.2075 5.07694 10.25 4.80795 10.25Z" fill="black"/>
<path d="M8.17113 10.25C7.89353 10.25 7.65448 10.2204 7.454 10.161C7.25349 10.1013 7.09543 10.0144 6.97976 9.89975C6.86408 9.78405 6.79414 9.64361 6.7699 9.47843L6.7666 9.45368H7.5647L7.568 9.4651C7.57902 9.51248 7.60931 9.5533 7.65888 9.58756C7.70956 9.62056 7.7784 9.64636 7.86544 9.66519C7.95245 9.68274 8.05821 9.69163 8.1827 9.69163C8.28073 9.69163 8.36502 9.68338 8.43551 9.66688C8.50711 9.64911 8.56218 9.62437 8.60074 9.59243C8.6393 9.56049 8.65859 9.52369 8.65859 9.48181V9.48012C8.65859 9.42724 8.6349 9.38875 8.58752 9.36442C8.54016 9.3401 8.45755 9.32149 8.33968 9.30816L7.7316 9.26354C7.42094 9.23393 7.19126 9.16053 7.04255 9.04378C6.89492 8.92597 6.82113 8.7629 6.82113 8.55478V8.5514C6.82113 8.38409 6.8718 8.24069 6.97314 8.12183C7.07559 8.00169 7.22155 7.90969 7.41102 7.84581C7.60051 7.78194 7.82633 7.75 8.08851 7.75C8.3518 7.75 8.57707 7.78025 8.76434 7.84095C8.95271 7.90038 9.10142 7.98625 9.21049 8.09877C9.31954 8.21108 9.38729 8.34602 9.41373 8.5036L9.41868 8.53003H8.62885L8.62553 8.51671C8.61341 8.47039 8.58532 8.43253 8.54126 8.40271C8.49831 8.37183 8.43991 8.34877 8.36612 8.33333C8.2923 8.31684 8.20362 8.30859 8.10008 8.30859C7.99763 8.30859 7.91279 8.3162 7.8456 8.33164C7.7784 8.34602 7.72773 8.36739 7.69359 8.39615C7.65943 8.42365 7.64236 8.45664 7.64236 8.49535V8.49683C7.64236 8.5497 7.6677 8.58947 7.71838 8.6159C7.77016 8.64234 7.85552 8.66159 7.97449 8.67365L8.59414 8.71997C8.79353 8.73985 8.95876 8.77771 9.08985 8.83397C9.22094 8.88917 9.31844 8.9651 9.38232 9.06197C9.44731 9.15778 9.47982 9.2758 9.47982 9.41561V9.4173C9.47982 9.58904 9.42804 9.73794 9.32449 9.86337C9.22094 9.98795 9.07168 10.0838 8.87669 10.151C8.68172 10.217 8.44653 10.25 8.17113 10.25Z" fill="black"/>
<path d="M11.384 10.25C11.1064 10.25 10.8674 10.2204 10.6669 10.161C10.4664 10.1013 10.3083 10.0144 10.1926 9.89975C10.077 9.78405 10.007 9.64361 9.98279 9.47843L9.97949 9.45368H10.7776L10.7809 9.4651C10.7919 9.51248 10.8222 9.5533 10.8718 9.58756C10.9224 9.62056 10.9913 9.64636 11.0783 9.66519C11.1653 9.68274 11.2711 9.69163 11.3956 9.69163C11.4936 9.69163 11.5779 9.68338 11.6484 9.66688C11.72 9.64911 11.7751 9.62437 11.8136 9.59243C11.8522 9.56049 11.8715 9.52369 11.8715 9.48181V9.48012C11.8715 9.42724 11.8478 9.38875 11.8004 9.36442C11.7531 9.3401 11.6704 9.32149 11.5526 9.30816L10.9445 9.26354C10.6338 9.23393 10.4042 9.16053 10.2554 9.04378C10.1078 8.92597 10.034 8.7629 10.034 8.55478V8.5514C10.034 8.38409 10.0847 8.24069 10.186 8.12183C10.2885 8.00169 10.4344 7.90969 10.6239 7.84581C10.8134 7.78194 11.0392 7.75 11.3014 7.75C11.5647 7.75 11.79 7.78025 11.9772 7.84095C12.1656 7.90038 12.3143 7.98625 12.4234 8.09877C12.5324 8.21108 12.6002 8.34602 12.6266 8.5036L12.6316 8.53003H11.8417L11.8384 8.51671C11.8263 8.47039 11.7982 8.43253 11.7542 8.40271C11.7112 8.37183 11.6528 8.34877 11.579 8.33333C11.5052 8.31684 11.4165 8.30859 11.313 8.30859C11.2105 8.30859 11.1257 8.3162 11.0585 8.33164C10.9913 8.34602 10.9406 8.36739 10.9065 8.39615C10.8723 8.42365 10.8553 8.45664 10.8553 8.49535V8.49683C10.8553 8.5497 10.8806 8.58947 10.9313 8.6159C10.983 8.64234 11.0684 8.66159 11.1874 8.67365L11.807 8.71997C12.0064 8.73985 12.1716 8.77771 12.3027 8.83397C12.4338 8.88917 12.5313 8.9651 12.5952 9.06197C12.6602 9.15778 12.6927 9.2758 12.6927 9.41561V9.4173C12.6927 9.58904 12.6409 9.73794 12.5374 9.86337C12.4338 9.98795 12.2846 10.0838 12.0896 10.151C11.8946 10.217 11.6594 10.25 11.384 10.25Z" fill="black"/>
</svg>
