<svg width="16" height="16" viewBox="0 0 16 16" fill="none" xmlns="http://www.w3.org/2000/svg">
<path d="M13 14H3C1.89543 14 1 13.1046 1 12V4C1 2.89543 1.89543 2 3 2H5.67157C6.20201 2 6.71071 2.21071 7.08579 2.58579L7.91421 3.41421C8.28929 3.78929 8.79799 4 9.32843 4H13C14.1046 4 15 4.89543 15 6V12C15 13.1046 14.1046 14 13 14Z" fill="#0097FB"/>
<g clip-path="url(#clip0_133_144)">
<path d="M6.25788 7.93548L7.99981 8.70967M7.99981 8.70967V10.5484M7.99981 8.70967L9.74175 7.93548M8.14782 6.25478L10.5672 7.2559C10.7119 7.31578 10.8063 7.45696 10.8063 7.61358V10.2977C10.8063 10.4502 10.7167 10.5885 10.5775 10.6509L8.15815 11.7355C8.05743 11.7806 7.94219 11.7806 7.84147 11.7355L5.42211 10.6509C5.28293 10.5885 5.19336 10.4502 5.19336 10.2977V7.61358C5.19336 7.45696 5.28773 7.31578 5.43245 7.2559L7.8518 6.25478C7.94659 6.21557 8.05304 6.21557 8.14782 6.25478Z" stroke="black" stroke-width="0.4" stroke-linecap="round"/>
</g>
<defs>
<clipPath id="clip0_133_144">
<rect width="6" height="6" fill="white" transform="translate(5 6)"/>
</clipPath>
</defs>
</svg>
