<svg width="16" height="16" viewBox="0 0 16 16" fill="none" xmlns="http://www.w3.org/2000/svg">
<path d="M13 14H3C1.89543 14 1 13.1046 1 12V4C1 2.89543 1.89543 2 3 2H5.67157C6.20201 2 6.71071 2.21071 7.08579 2.58579L7.91421 3.41421C8.28929 3.78929 8.79799 4 9.32843 4H13C14.1046 4 15 4.89543 15 6V12C15 13.1046 14.1046 14 13 14Z" fill="white"/>
<path d="M8 12C9.65588 12 11 10.6559 11 9C11 7.34412 9.65588 6 8 6C6.34412 6 5 7.34412 5 9C5 10.6559 6.34412 12 8 12ZM8 11.5C6.61764 11.5 5.5 10.3824 5.5 9C5.5 7.61764 6.61764 6.5 8 6.5C9.38235 6.5 10.5 7.61764 10.5 9C10.5 10.3824 9.38235 11.5 8 11.5Z" fill="black"/>
<path d="M8.00045 10.8647C9.02985 10.8647 9.86514 10.0294 9.86514 8.99999C9.86514 7.97058 9.02985 7.13528 8.00045 7.13528C6.97104 7.13528 6.13574 7.97058 6.13574 8.99999C6.13574 10.0294 6.97104 10.8647 8.00045 10.8647ZM8.00045 10.3912C7.22986 10.3912 6.60927 9.77057 6.60927 8.99999C6.60927 8.2294 7.22986 7.60881 8.00045 7.60881C8.77102 7.60881 9.39163 8.2294 9.39163 8.99999C9.39163 9.77057 8.77102 10.3912 8.00045 10.3912Z" fill="black"/>
<path d="M8.00005 9.75883C8.42063 9.75883 8.7618 9.42058 8.7618 8.99705C8.7618 8.57647 8.42063 8.23529 8.00005 8.23529C7.57946 8.23529 7.23828 8.57647 7.23828 8.99705C7.23828 9.42058 7.57946 9.75883 8.00005 9.75883Z" fill="black"/>
</svg>
