<svg width="16" height="16" viewBox="0 0 16 16" fill="none" xmlns="http://www.w3.org/2000/svg">
<path d="M13 14H3C1.89543 14 1 13.1046 1 12V4C1 2.89543 1.89543 2 3 2H5.67157C6.20201 2 6.71071 2.21071 7.08579 2.58579L7.91421 3.41421C8.28929 3.78929 8.79799 4 9.32843 4H13C14.1046 4 15 4.89543 15 6V12C15 13.1046 14.1046 14 13 14Z" fill="#F03C2E"/>
<path d="M10.8871 8.73268L8.26735 6.1132C8.23148 6.07731 8.18889 6.04884 8.14201 6.02942C8.09513 6.01 8.04488 6 7.99414 6C7.9434 6 7.89315 6.01 7.84627 6.02942C7.7994 6.04884 7.7568 6.07731 7.72093 6.1132L7.17694 6.65712L7.86688 7.34733C7.94799 7.31967 8.03523 7.31531 8.1187 7.33472C8.20217 7.35413 8.27852 7.39654 8.33911 7.45714C8.39999 7.51813 8.4425 7.595 8.46178 7.67899C8.48106 7.76298 8.47633 7.8507 8.44813 7.93213L9.11319 8.59739C9.19461 8.56908 9.28235 8.5643 9.36635 8.5836C9.45036 8.6029 9.52722 8.64548 9.58812 8.70648C9.63086 8.74914 9.66477 8.7998 9.6879 8.85558C9.71104 8.91136 9.72295 8.97115 9.72295 9.03153C9.72295 9.09192 9.71104 9.15171 9.6879 9.20749C9.66477 9.26327 9.63086 9.31393 9.58812 9.35659C9.54544 9.39934 9.49475 9.43325 9.43895 9.45639C9.38315 9.47953 9.32334 9.49144 9.26293 9.49144C9.20253 9.49144 9.14271 9.47953 9.08691 9.45639C9.03111 9.43325 8.98042 9.39934 8.93774 9.35659C8.87363 9.29241 8.82993 9.2107 8.81214 9.12174C8.79435 9.03278 8.80325 8.94055 8.83774 8.85665L8.21745 8.23635V9.86859C8.26248 9.89072 8.30358 9.92007 8.33911 9.95549C8.42534 10.0418 8.47378 10.1587 8.47378 10.2807C8.47378 10.4027 8.42534 10.5197 8.33911 10.6059C8.15938 10.7854 7.8682 10.7854 7.689 10.6059C7.64624 10.5632 7.61232 10.5126 7.58917 10.4568C7.56603 10.4009 7.55412 10.3411 7.55412 10.2807C7.55412 10.2203 7.56603 10.1605 7.58917 10.1047C7.61232 10.0489 7.64624 9.99817 7.689 9.95549C7.73191 9.91231 7.78307 9.87822 7.83943 9.85522V8.20778C7.78307 8.18479 7.73191 8.15069 7.689 8.10752C7.62445 8.04301 7.58055 7.96076 7.56287 7.87123C7.54519 7.7817 7.55454 7.68894 7.58972 7.60474L6.90952 6.92427L5.11323 8.72057C5.07733 8.75644 5.04886 8.79904 5.02943 8.84592C5.01 8.89281 5 8.94306 5 8.99381C5 9.04456 5.01 9.09482 5.02943 9.1417C5.04886 9.18858 5.07733 9.23118 5.11323 9.26706L7.73298 11.8868C7.76885 11.9227 7.81144 11.9512 7.85832 11.9706C7.9052 11.99 7.95545 12 8.00619 12C8.05693 12 8.10718 11.99 8.15405 11.9706C8.20093 11.9512 8.24353 11.9227 8.2794 11.8868L10.8871 9.27943C10.9596 9.20693 11.0003 9.10859 11.0003 9.00606C11.0003 8.90352 10.9596 8.80519 10.8871 8.73268Z" fill="black"/>
</svg>
