<svg width="16" height="16" viewBox="0 0 16 16" fill="none" xmlns="http://www.w3.org/2000/svg">
<path d="M13 14H3C1.89543 14 1 13.1046 1 12V4C1 2.89543 1.89543 2 3 2H5.67157C6.20201 2 6.71071 2.21071 7.08579 2.58579L7.91421 3.41421C8.28929 3.78929 8.79799 4 9.32843 4H13C14.1046 4 15 4.89543 15 6V12C15 13.1046 14.1046 14 13 14Z" fill="white"/>
<path d="M3.09277 10V8H3.67221L5.01382 9.34995L4.42906 9.06307H4.7312V8H5.39367V10H4.81849L3.47404 8.63195L4.05898 8.92309H3.75542V10H3.09277Z" fill="black"/>
<path d="M5.59375 10V8H7.50506V8.48649H6.28953V8.77755H7.41913V9.20998H6.28953V9.51351H7.50506V10H5.59375Z" fill="black"/>
<path d="M7.70508 10L8.5502 9.00986L7.70508 8H8.68984L9.12316 8.56939H9.14642L9.5672 8H10.5179L9.66926 8.99196L10.5162 10H9.54034L9.09808 9.43061H9.07659L8.64865 10H7.70508Z" fill="black"/>
<path d="M11.4662 10V8.5142H10.7178V8H12.9077V8.5142H12.1606V10H11.4662Z" fill="black"/>
</svg>
