<svg width="16" height="16" viewBox="0 0 16 16" fill="none" xmlns="http://www.w3.org/2000/svg">
<path d="M13 14H3C1.89543 14 1 13.1046 1 12V4C1 2.89543 1.89543 2 3 2H5.67157C6.20201 2 6.71071 2.21071 7.08579 2.58579L7.91421 3.41421C8.28929 3.78929 8.79799 4 9.32843 4H13C14.1046 4 15 4.89543 15 6V12C15 13.1046 14.1046 14 13 14Z" fill="#FF61F6"/>
<path d="M3.7994 10C3.57732 10 3.38609 9.97631 3.2257 9.92877C3.06529 9.88105 2.93884 9.81151 2.84631 9.7198C2.75377 9.62724 2.69781 9.51489 2.67842 9.38274L2.67578 9.36295H3.31426L3.3169 9.37208C3.32571 9.40998 3.34994 9.44264 3.38961 9.47005C3.43015 9.49645 3.48522 9.51709 3.55485 9.53215C3.62446 9.54619 3.70906 9.5533 3.80866 9.5533C3.88709 9.5533 3.95451 9.5467 4.01091 9.5335C4.06818 9.51929 4.11225 9.49949 4.14309 9.47394C4.17394 9.44839 4.18937 9.41895 4.18937 9.38545V9.3841C4.18937 9.34179 4.17042 9.311 4.13252 9.29154C4.09463 9.27208 4.02854 9.25719 3.93424 9.24653L3.44778 9.21083C3.19925 9.18714 3.01551 9.12843 2.89654 9.03503C2.77844 8.94078 2.7194 8.81032 2.7194 8.64382V8.64112C2.7194 8.50728 2.75994 8.39255 2.84101 8.29746C2.92297 8.20135 3.03974 8.12775 3.19131 8.07665C3.3429 8.02555 3.52357 8 3.73331 8C3.94394 8 4.12416 8.0242 4.27397 8.07276C4.42467 8.1203 4.54363 8.189 4.63089 8.27902C4.71813 8.36887 4.77233 8.47682 4.79348 8.60288L4.79744 8.62403H4.16558L4.16292 8.61337C4.15323 8.57631 4.13076 8.54602 4.09551 8.52217C4.06115 8.49746 4.01443 8.47902 3.95539 8.46667C3.89634 8.45347 3.82539 8.44687 3.74257 8.44687C3.6606 8.44687 3.59274 8.45296 3.53898 8.46531C3.48522 8.47682 3.44468 8.49391 3.41737 8.51692C3.39005 8.53892 3.37639 8.56531 3.37639 8.59628V8.59746C3.37639 8.63976 3.39666 8.67157 3.4372 8.69272C3.47862 8.71387 3.54692 8.72927 3.64209 8.73892L4.13781 8.77597C4.29732 8.79188 4.4295 8.82217 4.53438 8.86717C4.63925 8.91134 4.71725 8.97208 4.76835 9.04958C4.82035 9.12623 4.84636 9.22064 4.84636 9.33249V9.33384C4.84636 9.47124 4.80494 9.59036 4.72209 9.69069C4.63925 9.79036 4.51984 9.867 4.36385 9.92081C4.20788 9.9736 4.01972 10 3.7994 10Z" fill="black"/>
<path d="M5.3457 10L6.2106 8H6.88144V8.50865H6.65691L6.07754 10H5.3457ZM5.85716 9.61466L6.03872 9.17254H7.26122L7.44003 9.61466H5.85716ZM7.25151 10L6.67215 8.50865V8H7.11707L7.98335 10H7.25151Z" fill="black"/>
<path d="M9.60702 10C9.38494 10 9.1937 9.97631 9.03331 9.92877C8.87291 9.88105 8.74646 9.81151 8.65392 9.7198C8.56139 9.62724 8.50543 9.51489 8.48604 9.38274L8.4834 9.36295H9.12188L9.12452 9.37208C9.13333 9.40998 9.15756 9.44264 9.19722 9.47005C9.23776 9.49645 9.29284 9.51709 9.36247 9.53215C9.43208 9.54619 9.51668 9.5533 9.61628 9.5533C9.6947 9.5533 9.76213 9.5467 9.81853 9.5335C9.8758 9.51929 9.91986 9.49949 9.95071 9.47394C9.98155 9.44839 9.99699 9.41895 9.99699 9.38545V9.3841C9.99699 9.34179 9.97804 9.311 9.94013 9.29154C9.90225 9.27208 9.83616 9.25719 9.74186 9.24653L9.2554 9.21083C9.00687 9.18714 8.82313 9.12843 8.70416 9.03503C8.58605 8.94078 8.52702 8.81032 8.52702 8.64382V8.64112C8.52702 8.50728 8.56756 8.39255 8.64863 8.29746C8.73059 8.20135 8.84736 8.12775 8.99893 8.07665C9.15052 8.02555 9.33118 8 9.54093 8C9.75155 8 9.93178 8.0242 10.0816 8.07276C10.2323 8.1203 10.3513 8.189 10.4385 8.27902C10.5258 8.36887 10.5799 8.47682 10.6011 8.60288L10.6051 8.62403H9.9732L9.97054 8.61337C9.96084 8.57631 9.93837 8.54602 9.90313 8.52217C9.86876 8.49746 9.82205 8.47902 9.76301 8.46667C9.70396 8.45347 9.63301 8.44687 9.55018 8.44687C9.46822 8.44687 9.40035 8.45296 9.3466 8.46531C9.29284 8.47682 9.2523 8.49391 9.22499 8.51692C9.19766 8.53892 9.18401 8.56531 9.18401 8.59628V8.59746C9.18401 8.63976 9.20428 8.67157 9.24482 8.69272C9.28624 8.71387 9.35453 8.72927 9.44971 8.73892L9.94543 8.77597C10.1049 8.79188 10.2371 8.82217 10.342 8.86717C10.4469 8.91134 10.5249 8.97208 10.576 9.04958C10.628 9.12623 10.654 9.22064 10.654 9.33249V9.33384C10.654 9.47124 10.6126 9.59036 10.5297 9.69069C10.4469 9.79036 10.3275 9.867 10.1715 9.92081C10.0155 9.9736 9.82734 10 9.60702 10Z" fill="black"/>
<path d="M12.2779 10C12.0558 10 11.8646 9.97631 11.7042 9.92877C11.5438 9.88105 11.4174 9.81151 11.3248 9.7198C11.2323 9.62724 11.1763 9.51489 11.1569 9.38274L11.1543 9.36295H11.7928L11.7954 9.37208C11.8042 9.40998 11.8285 9.44264 11.8681 9.47005C11.9087 9.49645 11.9637 9.51709 12.0334 9.53215C12.103 9.54619 12.1876 9.5533 12.2872 9.5533C12.3656 9.5533 12.433 9.5467 12.4894 9.5335C12.5467 9.51929 12.5908 9.49949 12.6216 9.47394C12.6525 9.44839 12.6679 9.41895 12.6679 9.38545V9.3841C12.6679 9.34179 12.6489 9.311 12.611 9.29154C12.5731 9.27208 12.5071 9.25719 12.4128 9.24653L11.9263 9.21083C11.6778 9.18714 11.494 9.12843 11.3751 9.03503C11.257 8.94078 11.1979 8.81032 11.1979 8.64382V8.64112C11.1979 8.50728 11.2385 8.39255 11.3195 8.29746C11.4015 8.20135 11.5183 8.12775 11.6698 8.07665C11.8214 8.02555 12.0021 8 12.2118 8C12.4225 8 12.6027 8.0242 12.7525 8.07276C12.9032 8.1203 13.0221 8.189 13.1094 8.27902C13.1967 8.36887 13.2508 8.47682 13.272 8.60288L13.276 8.62403H12.6441L12.6414 8.61337C12.6317 8.57631 12.6093 8.54602 12.574 8.52217C12.5397 8.49746 12.4929 8.47902 12.4339 8.46667C12.3749 8.45347 12.3039 8.44687 12.2211 8.44687C12.1391 8.44687 12.0713 8.45296 12.0175 8.46531C11.9637 8.47682 11.9232 8.49391 11.8959 8.51692C11.8686 8.53892 11.8549 8.56531 11.8549 8.59628V8.59746C11.8549 8.63976 11.8752 8.67157 11.9157 8.69272C11.9571 8.71387 12.0254 8.72927 12.1206 8.73892L12.6163 8.77597C12.7758 8.79188 12.908 8.82217 13.0129 8.86717C13.1178 8.91134 13.1958 8.97208 13.2469 9.04958C13.2989 9.12623 13.3249 9.22064 13.3249 9.33249V9.33384C13.3249 9.47124 13.2835 9.59036 13.2006 9.69069C13.1178 9.79036 12.9984 9.867 12.8424 9.92081C12.6864 9.9736 12.4982 10 12.2779 10Z" fill="black"/>
</svg>
