<svg width="16" height="16" viewBox="0 0 16 16" fill="none" xmlns="http://www.w3.org/2000/svg">
<path d="M13 14H3C1.89543 14 1 13.1046 1 12V4C1 2.89543 1.89543 2 3 2H5.67157C6.20201 2 6.71071 2.21071 7.08579 2.58579L7.91421 3.41421C8.28929 3.78929 8.79799 4 9.32843 4H13C14.1046 4 15 4.89543 15 6V12C15 13.1046 14.1046 14 13 14Z" fill="white"/>
<path d="M7.99739 7.05045C6.92242 7.05045 6.04785 7.92501 6.04785 8.99998C6.04785 10.075 6.92242 10.9495 7.99739 10.9495C9.07236 10.9495 9.94693 10.075 9.94693 8.99998C9.94693 7.92501 9.07236 7.05045 7.99739 7.05045ZM7.99739 10.0089C7.44012 10.0089 6.98849 9.55725 6.98849 8.99998C6.98849 8.44271 7.44012 7.99109 7.99739 7.99109C8.55466 7.99109 9.00628 8.44271 9.00628 8.99998C9.00628 9.55725 8.55466 10.0089 7.99739 10.0089Z" fill="black"/>
<path fill-rule="evenodd" clip-rule="evenodd" d="M8.16101 6.73025V6.00235C9.74315 6.08694 11 7.3968 11 8.99999C11 10.6032 9.74315 11.9127 8.16101 11.9976V11.2697C9.34017 11.1855 10.2739 10.2002 10.2739 8.99999C10.2739 7.79977 9.34017 6.81448 8.16101 6.73025ZM6.27827 10.4885C5.96569 10.1276 5.7642 9.66799 5.72826 9.16336H5C5.03776 9.86948 5.3202 10.5102 5.76275 11.0036L6.27791 10.4885H6.27827ZM7.83429 11.9976V11.2697C7.32929 11.2338 6.86968 11.0327 6.50882 10.7197L5.99366 11.2349C6.4874 11.6778 7.12817 11.9599 7.83392 11.9976H7.83429Z" fill="black"/>
</svg>
