<svg width="16" height="16" viewBox="0 0 16 16" fill="none" xmlns="http://www.w3.org/2000/svg">
<path d="M13 14H3C1.89543 14 1 13.1046 1 12V4C1 2.89543 1.89543 2 3 2H5.67157C6.20201 2 6.71071 2.21071 7.08579 2.58579L7.91421 3.41421C8.28929 3.78929 8.79799 4 9.32843 4H13C14.1046 4 15 4.89543 15 6V12C15 13.1046 14.1046 14 13 14Z" fill="white"/>
<path d="M5.78452 10.9845H8.40936C8.9006 10.9845 9.19389 10.701 9.19389 10.2098V7.78777C9.19389 7.29897 8.92505 7.01547 8.43381 7.01547H5.78452C5.31528 7.01547 5 7.29897 5 7.78777V10.2098C5 10.701 5.29328 10.9845 5.78452 10.9845ZM9.52626 9.72096L10.4159 10.4908C10.499 10.5642 10.5967 10.6106 10.6847 10.6106C10.8754 10.6106 11 10.4713 11 10.2709V7.72912C11 7.52871 10.8754 7.3894 10.6847 7.3894C10.5967 7.3894 10.499 7.43584 10.4159 7.50916L9.52626 8.27657V9.72096Z" fill="black"/>
</svg>
