<svg width="16" height="16" viewBox="0 0 16 16" fill="none" xmlns="http://www.w3.org/2000/svg">
<path d="M13 14H3C1.89543 14 1 13.1046 1 12V4C1 2.89543 1.89543 2 3 2H5.67157C6.20201 2 6.71071 2.21071 7.08579 2.58579L7.91421 3.41421C8.28929 3.78929 8.79799 4 9.32843 4H13C14.1046 4 15 4.89543 15 6V12C15 13.1046 14.1046 14 13 14Z" fill="#23A8F2"/>
<path fill-rule="evenodd" clip-rule="evenodd" d="M9.25471 11.959C9.34921 11.9958 9.45697 11.9935 9.55235 11.9476L10.7876 11.3532C10.9175 11.2907 11 11.1594 11 11.0152V6.9848C11 6.84068 10.9175 6.70931 10.7877 6.64685L9.55235 6.05243C9.42718 5.99219 9.28067 6.00695 9.17081 6.08682C9.15512 6.09823 9.14017 6.11097 9.12614 6.125L6.7613 8.28249L5.73123 7.50058C5.63534 7.42779 5.50122 7.43376 5.41216 7.51476L5.08178 7.81529C4.97285 7.91439 4.97272 8.08577 5.08151 8.18502L5.97482 9L5.08151 9.815C4.97272 9.91425 4.97285 10.0856 5.08178 10.1847L5.41216 10.4852C5.50122 10.5663 5.63534 10.5722 5.73123 10.4994L6.7613 9.71752L9.12614 11.875C9.16355 11.9124 9.20747 11.9406 9.25471 11.959ZM9.50091 7.63794L7.70655 9L9.50091 10.3621V7.63794Z" fill="black"/>
</svg>
