<svg width="16" height="16" viewBox="0 0 16 16" fill="none" xmlns="http://www.w3.org/2000/svg">
<rect x="2.5" y="2.5" width="11" height="11" rx="2.5" stroke="white"/>
<path fill-rule="evenodd" clip-rule="evenodd" d="M6.71069 5.84384L5.28226 9.08958C5.21758 9.24736 5.16211 9.45115 5.16211 9.62733C5.16211 10.4341 5.72774 11 6.5345 11C6.79808 11 7.01757 10.9307 7.24026 10.8603L7.24202 10.8598L7.24321 10.8594C7.47365 10.7865 7.70807 10.7123 7.99973 10.7123C8.29483 10.7123 8.5236 10.7858 8.74946 10.8584L8.75101 10.8589L8.75286 10.8595C8.97302 10.9301 9.19085 11 9.46495 11C10.2717 11 10.8373 10.4341 10.8373 9.62761C10.8373 9.45115 10.7819 9.24736 10.7169 9.08958L9.28876 5.84384C9.04763 5.29689 8.58403 5 7.99973 5C7.41542 5 6.95182 5.29689 6.71069 5.84384ZM6.59026 9.59973L7.99973 6.40975L9.3908 9.59973C8.99215 9.40487 8.4912 9.31204 7.99973 9.31204C7.48985 9.31204 7.00758 9.40487 6.59026 9.59973Z" fill="white"/>
</svg>
