<svg width="16" height="16" viewBox="0 0 16 16" fill="none" xmlns="http://www.w3.org/2000/svg">
<rect x="2.5" y="2.5" width="11" height="11" rx="2.5" stroke="#FFEADB"/>
<g clip-path="url(#clip0_129_433)">
<path d="M9.29379 8.82415L9.15694 8.43527L8.97674 7.9232L8.84638 7.55262L8.67572 7.06762L8.47747 6.50431H7.51588L7.3624 6.94051L7.22555 7.3294L6.5459 9.26079H7.1801L7.37906 8.69704H8.34082L8.17015 8.21204H7.54902L7.67937 7.84146L7.95165 7.06762L7.99667 6.93954L8.04168 7.06762L8.81306 9.26035L8.81324 9.26079H9.44743L9.29379 8.82415Z" fill="#FFEADB"/>
<path d="M10.6107 6.528C10.5948 6.49974 10.5683 6.47897 10.537 6.47026C10.5057 6.46155 10.4723 6.46561 10.4441 6.48155C10.4158 6.49748 10.395 6.52399 10.3864 6.55524C10.3776 6.58649 10.3817 6.61992 10.3976 6.64818C10.722 7.22492 10.8278 7.89919 10.6956 8.54756C10.5635 9.19593 10.2023 9.77502 9.67808 10.1788C9.15388 10.5826 8.50178 10.7842 7.84115 10.7465C7.18053 10.7088 6.55557 10.4344 6.0807 9.97362C5.60582 9.51282 5.31278 8.89641 5.25523 8.23722C5.19768 7.57803 5.37947 6.92016 5.76732 6.38405C6.15516 5.84793 6.72312 5.46944 7.36723 5.31785C8.01132 5.16626 8.68848 5.25171 9.27472 5.55857C9.25593 5.64505 9.2684 5.73539 9.30991 5.81355C9.35141 5.89171 9.41926 5.95264 9.50143 5.98552C9.58359 6.01839 9.67474 6.0211 9.75871 5.99314C9.84267 5.96519 9.91402 5.90839 9.96008 5.83283C10.0061 5.75726 10.0239 5.66782 10.0103 5.58038C9.99668 5.49294 9.95251 5.41316 9.88564 5.35519C9.81877 5.29722 9.73353 5.26483 9.64504 5.26375C9.55655 5.26267 9.47054 5.29298 9.40228 5.3493C8.76509 5.01144 8.02746 4.91461 7.32466 5.07658C6.62186 5.23854 6.001 5.64844 5.57596 6.2311C5.15091 6.81376 4.95016 7.53012 5.01052 8.24882C5.07089 8.9675 5.38833 9.64034 5.90462 10.1439C6.4209 10.6475 7.10144 10.9481 7.8214 10.9906C8.54137 11.033 9.25252 10.8145 9.82442 10.3751C10.3963 9.93568 10.7906 9.30482 10.9351 8.5982C11.0795 7.89158 10.9643 7.15658 10.6107 6.528Z" fill="#FFEADB"/>
</g>
<defs>
<clipPath id="clip0_129_433">
<rect width="6" height="6" fill="white" transform="translate(5 5)"/>
</clipPath>
</defs>
</svg>
