<svg width="16" height="16" viewBox="0 0 16 16" fill="none" xmlns="http://www.w3.org/2000/svg">
<rect x="2.5" y="2.5" width="11" height="11" rx="2.5" stroke="white"/>
<path d="M9.09838 6.45069C8.64618 6.45069 8.27592 6.72686 8.03919 6.72686C7.7873 6.72686 7.45953 6.45069 7.06499 6.45069C6.31537 6.45069 5.55664 7.08802 5.55664 8.25344C5.55664 8.9818 5.83585 9.74963 6.18487 10.2443C6.48229 10.6632 6.74329 11 7.11962 11C7.48988 11 7.65376 10.7603 8.11507 10.7603C8.58244 10.7603 8.68866 11 9.09838 11C9.50506 11 9.77516 10.6267 10.0331 10.2595C10.3184 9.83764 10.4398 9.42792 10.4429 9.40669C10.4186 9.40063 9.64162 9.08196 9.64162 8.19271C9.64162 7.42186 10.2516 7.07588 10.2881 7.04856C9.88442 6.46889 9.26835 6.45069 9.09838 6.45069ZM8.88594 5.95903C9.07107 5.73445 9.20156 5.42792 9.20156 5.11836C9.20156 5.07587 9.19855 5.03338 9.19245 5C8.88898 5.01214 8.52478 5.2003 8.3093 5.45523C8.13631 5.64947 7.9785 5.95903 7.9785 6.26859C7.9785 6.31715 7.9876 6.36267 7.99064 6.37785C8.00884 6.38088 8.03919 6.38695 8.07258 6.38695C8.34268 6.38695 8.6826 6.20486 8.88594 5.95903Z" fill="white"/>
</svg>
