<svg width="16" height="16" viewBox="0 0 16 16" fill="none" xmlns="http://www.w3.org/2000/svg">
<rect x="2.5" y="2.5" width="11" height="11" rx="2.5" stroke="#3BC8F3"/>
<path d="M7.00023 5.17327H8.77569L6.93259 10.6342C6.91365 10.6903 6.87759 10.739 6.82948 10.7736C6.78137 10.8081 6.72364 10.8267 6.66441 10.8267H5.28267C5.2378 10.8267 5.19357 10.8161 5.15364 10.7956C5.11371 10.7751 5.07923 10.7454 5.05306 10.709C5.02689 10.6725 5.00977 10.6303 5.00312 10.586C4.99647 10.5416 5.00049 10.4963 5.01483 10.4537L6.73199 5.36583C6.75092 5.30969 6.78699 5.26091 6.83511 5.22635C6.88324 5.19179 6.94099 5.17327 7.00023 5.17327Z" fill="#3BC8F3"/>
<path d="M9.58066 8.83607H6.76522C6.73904 8.83605 6.71346 8.8439 6.69182 8.85862C6.67017 8.87333 6.65346 8.89422 6.64385 8.91857C6.63425 8.94292 6.6322 8.9696 6.63798 8.99513C6.64375 9.02066 6.65708 9.04386 6.67623 9.06171L8.48537 10.7503C8.53805 10.7994 8.6074 10.8267 8.67943 10.8267H10.2736L9.58066 8.83607Z" fill="#3BC8F3"/>
<path d="M6.99987 5.17327C6.93998 5.17304 6.88158 5.19196 6.83321 5.22728C6.78484 5.2626 6.74903 5.31246 6.73101 5.36958L5.01658 10.4491C5.00127 10.4918 4.99647 10.5375 5.00257 10.5824C5.00867 10.6274 5.02551 10.6702 5.05165 10.7072C5.07779 10.7442 5.11246 10.7744 5.15274 10.7952C5.19302 10.8161 5.23772 10.8269 5.28306 10.8267H6.70046C6.75325 10.8173 6.80259 10.794 6.84345 10.7593C6.8843 10.7245 6.91519 10.6796 6.93298 10.629L7.27487 9.62138L8.4961 10.7605C8.54728 10.8028 8.61148 10.8262 8.67789 10.8267H10.2662L9.56957 8.83607L7.53889 8.83655L8.78174 5.17327H6.99987Z" fill="#3BC8F3"/>
<path d="M9.26805 5.36556C9.24914 5.30951 9.21312 5.2608 9.16507 5.22631C9.11702 5.19181 9.05936 5.17326 9.00021 5.17327H7.02148C7.08063 5.17327 7.13829 5.19183 7.18634 5.22632C7.23439 5.26082 7.27041 5.30951 7.28932 5.36556L9.00655 10.4537C9.0209 10.4962 9.02493 10.5415 9.01828 10.5859C9.01164 10.6303 8.99453 10.6725 8.96835 10.709C8.94218 10.7454 8.9077 10.7751 8.86777 10.7956C8.82783 10.8161 8.78359 10.8268 8.73871 10.8268H10.7175C10.7624 10.8268 10.8066 10.8161 10.8465 10.7956C10.8865 10.7751 10.9209 10.7454 10.9471 10.7089C10.9733 10.6725 10.9904 10.6303 10.997 10.5859C11.0036 10.5415 10.9996 10.4962 10.9853 10.4537L9.26805 5.36556Z" fill="#3BC8F3"/>
</svg>
