<svg width="16" height="16" viewBox="0 0 16 16" fill="none" xmlns="http://www.w3.org/2000/svg">
<rect x="2.5" y="2.5" width="11" height="11" rx="2.5" stroke="#2684FF"/>
<path d="M5.1946 5.39396C5.07932 5.39396 4.98325 5.49615 5.00246 5.60764L5.81907 10.3923C5.83828 10.5131 5.94396 10.606 6.07846 10.606H9.98857C10.0846 10.606 10.1615 10.541 10.1807 10.4481L10.9973 5.60764C11.0165 5.49615 10.9301 5.39396 10.8052 5.39396H5.1946ZM8.63396 8.8501H7.38503L7.04878 7.1406H8.9414L8.63396 8.8501Z" fill="#2684FF"/>
<path d="M10.7377 7.1406H8.93152L8.6337 8.8501H7.38478L5.90527 10.541C5.90527 10.541 5.97252 10.606 6.0782 10.606H9.98831C10.0844 10.606 10.1612 10.541 10.1805 10.4481L10.7377 7.1406Z" fill="#2684FF"/>
</svg>
