<svg width="16" height="16" viewBox="0 0 16 16" fill="none" xmlns="http://www.w3.org/2000/svg">
<rect x="2.5" y="2.5" width="11" height="11" rx="2.5" stroke="#FFD539"/>
<g clip-path="url(#clip0_129_497)">
<path d="M8 11C9.65685 11 11 9.65685 11 8C11 6.34315 9.65685 5 8 5C6.34315 5 5 6.34315 5 8C5 9.65685 6.34315 11 8 11Z" fill="#FFD539"/>
<path d="M9.85773 7.9625C9.40961 8.33375 8.52086 8.45938 8.10273 8.48938L7.52148 7.21438C7.92836 6.74375 8.77211 5.96563 8.89023 6.63313C9.01023 7.3025 9.59711 7.60813 9.87648 7.66438L9.85773 7.96063V7.9625Z" fill="white"/>
<path fill-rule="evenodd" clip-rule="evenodd" d="M8.96375 6.62188C8.9526 6.54114 8.92025 6.4648 8.87 6.40063C8.82312 6.34438 8.76313 6.31438 8.69375 6.305C8.56625 6.28625 8.41812 6.34813 8.2775 6.43625C7.97512 6.64155 7.70255 6.88762 7.4675 7.1675L7.4375 7.20313L8.05812 8.56625L8.10875 8.5625C8.74121 8.52101 9.35571 8.33499 9.905 8.01875L9.9275 8C10.0944 7.87813 10.2706 7.625 10.0344 7.49C9.92938 7.43 9.81313 7.47875 9.73813 7.54625C9.5416 7.46993 9.36755 7.34517 9.23217 7.18356C9.09678 7.02195 9.00445 6.82874 8.96375 6.62188ZM9.65938 7.67188C9.44499 7.58445 9.25586 7.44483 9.10916 7.26571C8.96246 7.08659 8.86285 6.87366 8.81938 6.64625C8.81259 6.59193 8.79192 6.54027 8.75937 6.49625C8.73848 6.47017 8.70818 6.45334 8.675 6.44938C8.6 6.44 8.48937 6.47563 8.3525 6.56C8.09937 6.71563 7.80875 6.99875 7.60812 7.2275L8.14813 8.4125C8.66375 8.36938 9.21312 8.27 9.7025 7.9775C9.73438 7.95875 9.75875 7.93063 9.77375 7.9025C9.78371 7.88426 9.78988 7.86419 9.79186 7.8435C9.79385 7.82281 9.79162 7.80193 9.78531 7.78213C9.779 7.76232 9.76874 7.744 9.75515 7.72828C9.74157 7.71255 9.72493 7.69974 9.70625 7.69063C9.6905 7.68469 9.67487 7.67844 9.65938 7.67188Z" fill="#1E1E1E"/>
<path d="M8.85524 7.62715C8.98475 7.57183 9.04523 7.42276 8.99031 7.2942C8.9354 7.16565 8.78589 7.10627 8.65638 7.1616C8.52687 7.21692 8.46639 7.36598 8.52131 7.49454C8.57622 7.6231 8.72573 7.68247 8.85524 7.62715Z" fill="#1E1E1E"/>
<path d="M8.84098 7.33583C8.89335 7.31345 8.91438 7.24514 8.88794 7.18324C8.8615 7.12134 8.7976 7.0893 8.74523 7.11167C8.69285 7.13404 8.67182 7.20236 8.69827 7.26426C8.72471 7.32616 8.7886 7.3582 8.84098 7.33583Z" fill="white"/>
<path d="M8.2473 7.69438C8.2473 8.87188 9.4023 9.14375 10.0154 8.8475C9.94605 9.12688 9.6948 9.36313 9.28793 9.44188C9.28043 9.56375 9.41918 9.8375 9.54293 9.94625C9.26168 10.0512 8.93918 9.90875 8.76105 9.79625C8.69355 9.89375 8.66355 10.1881 8.66355 10.3719C8.45168 10.3719 8.17605 10.0663 8.10668 9.95C8.00918 10.0063 7.83855 10.3063 7.80668 10.4806C7.70121 10.4154 7.61416 10.3244 7.55378 10.2161C7.4934 10.1078 7.46169 9.98586 7.46168 9.86188C7.34168 9.94625 7.00043 10.1544 6.84293 10.2256C6.76418 10.0456 6.79605 9.8225 6.84293 9.59188C6.77543 9.6275 6.28418 9.6725 6.0873 9.6275C6.18668 9.515 6.3198 9.26188 6.3798 9.14375C6.10073 9.11393 5.83726 9.00017 5.62418 8.8175C5.77418 8.75 5.92418 8.6525 6.0873 8.48938C5.87918 8.37688 5.5623 8.21188 5.4873 7.92313C5.68043 7.91 5.91855 7.88188 6.0423 7.82563C5.8848 7.73375 5.62418 7.445 5.67668 7.09625C5.80793 7.16 6.08168 7.20875 6.2148 7.18438C6.09855 6.92938 6.02168 6.68188 6.13605 6.34063C6.26738 6.47378 6.42428 6.57902 6.5973 6.65C6.57105 6.39875 6.6873 5.93563 6.84293 5.81188C6.90855 5.95438 7.07168 6.18688 7.18043 6.24313C7.20855 6.05563 7.4523 5.61125 7.66793 5.55125C7.66793 5.705 7.7523 5.9825 7.82168 6.06688C7.98293 5.89813 8.5248 5.6225 8.95418 5.71813C8.82105 5.85688 8.72355 5.90563 8.68793 6.01813C9.01418 6.01813 9.55043 6.12313 10.0154 6.6125C9.28793 6.34063 8.2473 6.785 8.2473 7.69438Z" fill="#1E1E1E"/>
</g>
<defs>
<clipPath id="clip0_129_497">
<rect width="6" height="6" fill="white" transform="translate(5 5)"/>
</clipPath>
</defs>
</svg>
