<svg width="16" height="16" viewBox="0 0 16 16" fill="none" xmlns="http://www.w3.org/2000/svg">
<rect x="2.5" y="2.5" width="11" height="11" rx="2.5" stroke="#FBF0DF"/>
<path d="M10.625 8.19312C10.625 9.33387 9.44975 10.2586 8 10.2586C6.55025 10.2586 5.375 9.33387 5.375 8.19312C5.375 7.48587 5.825 6.86112 6.5165 6.49062C7.208 6.12012 7.6385 5.74062 8 5.74062C8.3615 5.74062 8.6705 6.05037 9.4835 6.49062C10.175 6.86112 10.625 7.48587 10.625 8.19312Z" fill="#FBF0DF"/>
<path d="M10.6252 8.19312C10.6248 8.04658 10.6047 7.90076 10.5652 7.75962C10.3605 10.2571 7.31396 10.3771 6.11621 9.63012C6.65464 10.0475 7.31907 10.2691 8.00021 10.2586C9.44771 10.2586 10.6252 9.33237 10.6252 8.19312Z" fill="#F6DECE"/>
<path d="M6.98975 6.35337C7.325 6.15237 7.7705 5.77512 8.2085 5.77437C8.14112 5.75259 8.07081 5.74121 8 5.74062C7.8185 5.74062 7.625 5.83437 7.38125 5.97537C7.2965 6.02487 7.20875 6.07962 7.11575 6.13662C6.941 6.24462 6.74075 6.36687 6.51575 6.48912C5.80175 6.87537 5.375 7.51212 5.375 8.19312C5.375 8.22312 5.375 8.25312 5.375 8.28237C5.8295 6.67662 6.65525 6.55437 6.98975 6.35337Z" fill="#FFFEFC"/>
<path fill-rule="evenodd" clip-rule="evenodd" d="M7.78355 5.93037C7.7846 6.10746 7.74741 6.2827 7.67454 6.4441C7.60167 6.60551 7.49482 6.74929 7.3613 6.86562C7.3403 6.88437 7.3568 6.92037 7.3838 6.90987C7.63655 6.81162 7.9778 6.51762 7.8338 5.92437C7.8278 5.89062 7.78355 5.89962 7.78355 5.93037ZM7.9538 5.93037C8.04557 6.0801 8.10387 6.24791 8.12471 6.42228C8.14555 6.59666 8.12844 6.77348 8.07455 6.94062C8.06555 6.96687 8.0978 6.98937 8.1158 6.96762C8.28005 6.75762 8.4233 6.34062 7.9943 5.89062C7.97255 5.87112 7.9388 5.90112 7.9538 5.92737V5.93037ZM8.1608 5.91762C8.30451 6.01936 8.42473 6.15074 8.51335 6.30289C8.60198 6.45504 8.65694 6.62442 8.67455 6.79962C8.67379 6.80594 8.67549 6.8123 8.67929 6.81739C8.6831 6.82249 8.68872 6.82592 8.69499 6.82698C8.70126 6.82804 8.7077 6.82665 8.71297 6.82309C8.71824 6.81953 8.72194 6.81408 8.7233 6.80787C8.7923 6.54612 8.7533 6.09987 8.18555 5.86812C8.15555 5.85612 8.13605 5.89662 8.1608 5.91462V5.91762ZM6.7763 6.69762C6.94724 6.64655 7.10551 6.56005 7.24081 6.44375C7.3761 6.32745 7.48539 6.18396 7.56155 6.02262C7.57505 5.99562 7.6178 6.00612 7.61105 6.03612C7.4813 6.63612 7.04705 6.76137 6.77705 6.74487C6.74855 6.74562 6.7493 6.70587 6.7763 6.69762Z" fill="#CCBEA7"/>
<path d="M8 10.4469C6.449 10.4469 5.1875 9.43587 5.1875 8.19312C5.1875 7.44312 5.651 6.74337 6.42725 6.32412C6.65225 6.20412 6.845 6.08337 7.01675 5.97762C7.11125 5.91912 7.2005 5.86437 7.28675 5.81337C7.55 5.65737 7.775 5.55312 8 5.55312C8.225 5.55312 8.4215 5.64312 8.6675 5.78862C8.7425 5.83137 8.8175 5.87787 8.89775 5.92887C9.0845 6.04437 9.29525 6.17487 9.57275 6.32412C10.349 6.74337 10.8125 7.44237 10.8125 8.19312C10.8125 9.43587 9.551 10.4469 8 10.4469ZM8 5.74062C7.8185 5.74062 7.625 5.83437 7.38125 5.97537C7.2965 6.02487 7.20875 6.07962 7.11575 6.13662C6.941 6.24462 6.74075 6.36687 6.51575 6.48912C5.80175 6.87537 5.375 7.51212 5.375 8.19312C5.375 9.33237 6.5525 10.2594 8 10.2594C9.4475 10.2594 10.625 9.33237 10.625 8.19312C10.625 7.51212 10.1983 6.87537 9.4835 6.49062C9.2 6.34062 8.97875 6.19962 8.7995 6.08862C8.71775 6.03837 8.64275 5.99187 8.5745 5.95062C8.34725 5.81562 8.1815 5.74062 8 5.74062Z" fill="black"/>
<path d="M8.52862 8.74062C8.49493 8.87862 8.41824 9.00233 8.30962 9.09387C8.22808 9.17292 8.12252 9.22254 8.00962 9.23487C7.89334 9.22449 7.78407 9.17475 7.69987 9.09387C7.59237 9.0019 7.51675 8.87823 7.48387 8.74062C7.48278 8.73246 7.48358 8.72415 7.4862 8.71633C7.48881 8.70852 7.49319 8.7014 7.49898 8.69554C7.50477 8.68968 7.51183 8.68522 7.51961 8.6825C7.52739 8.67978 7.53569 8.67889 7.54387 8.67987H8.46937C8.4775 8.67901 8.48571 8.68 8.4934 8.68277C8.50108 8.68554 8.50804 8.69002 8.51374 8.69587C8.51945 8.70172 8.52375 8.70878 8.52633 8.71654C8.5289 8.72429 8.52969 8.73253 8.52862 8.74062Z" fill="#B71422"/>
<path d="M7.70064 9.09987C7.78467 9.1808 7.89354 9.23101 8.00964 9.24237C8.12548 9.23084 8.23406 9.18065 8.31789 9.09987C8.34471 9.07488 8.36977 9.04807 8.39289 9.01962C8.34669 8.96721 8.29025 8.9248 8.22705 8.89501C8.16385 8.86521 8.09522 8.84866 8.02539 8.84637C7.95067 8.84814 7.8775 8.86805 7.81217 8.90437C7.74685 8.94069 7.69133 8.99234 7.65039 9.05487C7.66764 9.07062 7.68264 9.08562 7.70064 9.09987Z" fill="#FF6164"/>
<path d="M7.7125 9.04063C7.74968 8.99256 7.79728 8.95355 7.85171 8.92654C7.90614 8.89952 7.96599 8.88519 8.02675 8.88463C8.13907 8.88794 8.24608 8.93315 8.32675 9.01138C8.344 8.99263 8.3605 8.97313 8.37625 8.95363C8.28084 8.86276 8.15474 8.81109 8.023 8.80888C7.95259 8.80948 7.8832 8.82567 7.81979 8.85627C7.75638 8.88687 7.70053 8.93113 7.65625 8.98588C7.67398 9.00514 7.69276 9.02342 7.7125 9.04063Z" fill="black"/>
<path d="M8.00711 9.27988C7.88213 9.26893 7.76452 9.21607 7.67336 9.12988C7.55726 9.03168 7.47555 8.89899 7.44011 8.75113C7.43757 8.73796 7.438 8.7244 7.44137 8.71142C7.44475 8.69844 7.45098 8.68639 7.45961 8.67613C7.46989 8.66371 7.48287 8.65382 7.49755 8.64719C7.51224 8.64056 7.52825 8.63737 7.54436 8.63788H8.46986C8.48594 8.63754 8.5019 8.6408 8.51656 8.64741C8.53122 8.65403 8.54422 8.66384 8.55461 8.67613C8.56316 8.68642 8.56928 8.69851 8.57252 8.71149C8.57577 8.72447 8.57606 8.73802 8.57336 8.75113C8.53792 8.89899 8.4562 9.03168 8.34011 9.12988C8.24914 9.21591 8.13182 9.26876 8.00711 9.27988ZM7.54436 8.72488C7.53236 8.72488 7.52936 8.73013 7.52861 8.73163C7.56031 8.85985 7.63203 8.97465 7.73336 9.05938C7.80746 9.13238 7.90379 9.17857 8.00711 9.19063C8.11016 9.1787 8.20639 9.13309 8.28086 9.06088C8.38187 8.97601 8.45331 8.86123 8.48486 8.73313C8.48322 8.73073 8.48096 8.72883 8.47831 8.72764C8.47566 8.72645 8.47274 8.72601 8.46986 8.72638L7.54436 8.72488Z" fill="black"/>
<path d="M9.14188 8.78713C9.38419 8.78713 9.58063 8.67162 9.58063 8.52913C9.58063 8.38664 9.38419 8.27113 9.14188 8.27113C8.89956 8.27113 8.70312 8.38664 8.70312 8.52913C8.70312 8.67162 8.89956 8.78713 9.14188 8.78713Z" fill="#FEBBD0"/>
<path d="M6.87137 8.78713C7.11368 8.78713 7.31012 8.67162 7.31012 8.52913C7.31012 8.38664 7.11368 8.27113 6.87137 8.27113C6.62905 8.27113 6.43262 8.38664 6.43262 8.52913C6.43262 8.67162 6.62905 8.78713 6.87137 8.78713Z" fill="#FEBBD0"/>
<path fill-rule="evenodd" clip-rule="evenodd" d="M7.07754 8.42562C7.1593 8.42577 7.23928 8.40166 7.30733 8.35634C7.37539 8.31103 7.42847 8.24654 7.45987 8.17104C7.49126 8.09554 7.49955 8.01243 7.48369 7.93221C7.46783 7.852 7.42853 7.7783 7.37077 7.72043C7.313 7.66256 7.23937 7.62313 7.15919 7.60712C7.079 7.59111 6.99587 7.59925 6.92032 7.63051C6.84476 7.66177 6.78018 7.71473 6.73474 7.78271C6.68929 7.85068 6.66504 7.93061 6.66504 8.01237C6.66504 8.12185 6.70847 8.22684 6.78581 8.30432C6.86315 8.3818 6.96807 8.42543 7.07754 8.42562ZM8.93529 8.42562C9.01715 8.42622 9.09734 8.40249 9.16569 8.35744C9.23404 8.3124 9.28748 8.24807 9.31921 8.17261C9.35095 8.09715 9.35957 8.01397 9.34396 7.93361C9.32836 7.85325 9.28924 7.77933 9.23156 7.72124C9.17389 7.66315 9.10026 7.62349 9.02002 7.6073C8.93978 7.59111 8.85653 7.59911 8.78085 7.6303C8.70516 7.66149 8.64044 7.71445 8.5949 7.78248C8.54936 7.8505 8.52504 7.93051 8.52504 8.01237C8.52484 8.12152 8.5679 8.22629 8.6448 8.30375C8.72169 8.3812 8.82615 8.42503 8.93529 8.42562Z" fill="black"/>
<path fill-rule="evenodd" clip-rule="evenodd" d="M6.9504 8.03862C6.98114 8.03877 7.01122 8.02979 7.03685 8.01283C7.06248 7.99586 7.0825 7.97166 7.09436 7.94331C7.10623 7.91495 7.10941 7.88371 7.10351 7.85355C7.0976 7.82338 7.08287 7.79565 7.06119 7.77386C7.03951 7.75208 7.01185 7.73722 6.98171 7.73117C6.95158 7.72511 6.92032 7.72814 6.89191 7.73987C6.8635 7.7516 6.83921 7.7715 6.82212 7.79705C6.80502 7.82259 6.7959 7.85264 6.7959 7.88337C6.7959 7.92442 6.81215 7.9638 6.8411 7.99289C6.87006 8.02198 6.90935 8.03843 6.9504 8.03862ZM8.80815 8.03862C8.83889 8.03877 8.86897 8.02979 8.8946 8.01283C8.92023 7.99586 8.94025 7.97166 8.95211 7.94331C8.96398 7.91495 8.96716 7.88371 8.96126 7.85355C8.95535 7.82338 8.94062 7.79565 8.91894 7.77386C8.89726 7.75208 8.8696 7.73722 8.83946 7.73117C8.80933 7.72511 8.77807 7.72814 8.74966 7.73987C8.72125 7.7516 8.69696 7.7715 8.67987 7.79705C8.66277 7.82259 8.65365 7.85264 8.65365 7.88337C8.65364 7.92416 8.66969 7.96331 8.69832 7.99237C8.72695 8.02142 8.76586 8.03803 8.80665 8.03862H8.80815Z" fill="white"/>
</svg>
