<svg width="16" height="16" viewBox="0 0 16 16" fill="none" xmlns="http://www.w3.org/2000/svg">
<rect x="2.5" y="2.5" width="11" height="11" rx="2.5" stroke="#53B9FF"/>
<path d="M5.93426 6.26829L5.00728 7.19644L6.43684 8.63029L5 10.0714L5.92408 11L7.36382 9.55845L8.79576 10.9897L9.72275 10.0615L5.93426 6.26829Z" fill="#53B9FF"/>
<path d="M8.29372 8.63031L7.36426 9.55845L8.79619 10.9897L9.72318 10.0616L8.29372 8.63031Z" fill="#53B9FF"/>
<path d="M8.29372 8.63031L7.36426 9.55845L7.72206 9.91427L8.29372 8.63031Z" fill="#53B9FF"/>
<path d="M9.56041 7.3668L11.0002 5.92525L10.0728 5L8.63345 6.43865L7.2014 5.00729L6.27441 5.93544L10.0629 9.7287L10.9899 8.80054L9.56041 7.3668Z" fill="#53B9FF"/>
<path d="M7.70397 7.36684L8.63345 6.43869L7.2014 5.00732L6.27441 5.93548L7.70397 7.36684Z" fill="#53B9FF"/>
<path d="M7.7041 7.36681L8.63359 6.43866L8.27569 6.08274L7.7041 7.36681Z" fill="#53B9FF"/>
</svg>
