<svg width="16" height="16" viewBox="0 0 16 16" fill="none" xmlns="http://www.w3.org/2000/svg">
<rect x="2.5" y="2.5" width="11" height="11" rx="2.5" stroke="white"/>
<path d="M7.95555 8.71434C8.35006 8.71434 8.66988 8.39452 8.66988 8C8.66988 7.60548 8.35006 7.28566 7.95555 7.28566C7.56103 7.28566 7.24121 7.60548 7.24121 8C7.24121 8.39452 7.56103 8.71434 7.95555 8.71434Z" fill="white"/>
<path d="M7.95543 5C6.55764 5 5.38311 5.95614 5.04989 7.25C5.04703 7.26138 5.04492 7.27333 5.04492 7.28566C5.04492 7.36455 5.10889 7.42851 5.18777 7.42851H6.39739C6.45504 7.42851 6.50429 7.39428 6.52685 7.34504C6.52685 7.34504 6.52867 7.34169 6.52924 7.34007C6.7786 6.80195 7.32322 6.42858 7.95524 6.42858C8.82313 6.42858 9.52676 7.13201 9.52676 8C9.52676 8.86799 8.82332 9.57142 7.95543 9.57142C7.32342 9.57142 6.77889 9.19805 6.52943 8.66003C6.52876 8.65831 6.52695 8.65496 6.52695 8.65496C6.51564 8.6301 6.49742 8.60902 6.47447 8.59422C6.45152 8.57942 6.42479 8.57153 6.39748 8.57149H5.18787C5.10889 8.57149 5.04492 8.63545 5.04492 8.71434C5.04492 8.72667 5.04693 8.73862 5.04989 8.75C5.38311 10.0439 6.55764 11 7.95543 11C9.61233 11 10.9554 9.65681 10.9554 8C10.9554 6.34319 9.61233 5 7.95543 5Z" fill="white"/>
</svg>
