<svg width="16" height="16" viewBox="0 0 16 16" fill="none" xmlns="http://www.w3.org/2000/svg">
<rect x="2.5" y="2.5" width="11" height="11" rx="2.5" stroke="#CE3D40"/>
<path fill-rule="evenodd" clip-rule="evenodd" d="M11.5 8.7633H9.26596V8.46543H11.5V8.7633Z" fill="#CE3D40"/>
<path fill-rule="evenodd" clip-rule="evenodd" d="M7.32979 6.19415H6.80851V5.89628H7.62766V8.09309C7.62766 8.29872 7.79436 8.46543 8 8.46543H8.37234V8.7633H8C7.62985 8.7633 7.32979 8.46323 7.32979 8.09309V6.19415Z" fill="#CE3D40"/>
<path fill-rule="evenodd" clip-rule="evenodd" d="M5.49475 6.98009C5.3765 6.96514 5.2556 6.99184 5.14644 7.06003C5.03673 7.12857 4.94263 7.23691 4.87954 7.37486C4.81645 7.51284 4.78851 7.67171 4.80064 7.83082C4.81278 7.98995 4.8642 8.13899 4.94589 8.25936C5.02749 8.37958 5.13427 8.46409 5.24998 8.50703C5.3651 8.54974 5.48728 8.55082 5.60276 8.51026C5.71881 8.4695 5.82648 8.3871 5.90947 8.26856L6.15348 8.4394C6.03844 8.6037 5.88207 8.72787 5.70147 8.79131C5.52029 8.85494 5.32652 8.85315 5.14636 8.78629C4.96678 8.71966 4.81221 8.59281 4.69942 8.42664C4.58673 8.2606 4.51946 8.06104 4.50363 7.85347C4.4878 7.64588 4.52386 7.43642 4.60865 7.25099C4.69344 7.06555 4.82446 6.90996 4.98862 6.8074C5.15334 6.7045 5.34279 6.66064 5.53211 6.68457C5.72114 6.70847 5.89626 6.79817 6.0364 6.93723L5.82658 7.14867C5.72913 7.05197 5.61328 6.99508 5.49475 6.98009Z" fill="#CE3D40"/>
<path d="M9.93617 10.1037H9.48936L10.234 9.06117H10.5691L11.2766 10.1037H10.8298L10.383 9.50798L9.93617 10.1037Z" fill="#CE3D40"/>
</svg>
