<svg width="16" height="16" viewBox="0 0 16 16" fill="none" xmlns="http://www.w3.org/2000/svg">
<rect x="2.5" y="2.5" width="11" height="11" rx="2.5" stroke="white"/>
<path d="M11 8C11 9.65293 9.65588 11 8 11C6.34706 11 5 9.65293 5 8C5 6.34412 6.34706 5 8 5C9.65588 5 11 6.34412 11 8ZM8.91469 6.83235L7.65882 8.84999L7.06176 8.07941C6.98823 7.98235 6.92353 7.95588 6.83823 7.95588C6.70588 7.95588 6.60294 8.06471 6.60294 8.19704C6.60294 8.26469 6.62941 8.32941 6.67353 8.38823L7.41176 9.29411C7.48823 9.39705 7.57059 9.43822 7.67059 9.43822C7.77059 9.43822 7.85588 9.39118 7.91764 9.29411L9.29998 7.11764C9.33528 7.05588 9.37353 6.98823 9.37353 6.92353C9.37353 6.78529 9.25294 6.69706 9.12352 6.69706C9.04705 6.69706 8.97059 6.74412 8.91469 6.83235Z" fill="white"/>
</svg>
