<svg width="16" height="16" viewBox="0 0 16 16" fill="none" xmlns="http://www.w3.org/2000/svg">
<rect x="2.5" y="2.5" width="11" height="11" rx="2.5" stroke="#0366D6"/>
<path d="M5.40406 6.608L7.73724 5.07847C7.89684 4.97384 8.1033 4.97384 8.2629 5.07847L10.5961 6.608C10.7312 6.6966 10.8126 6.84732 10.8126 7.00892V8.99108C10.8126 9.15268 10.7312 9.3034 10.5961 9.392L8.2629 10.9215C8.1033 11.0262 7.89684 11.0262 7.73724 10.9215L5.40406 9.392C5.26892 9.3034 5.1875 9.15268 5.1875 8.99108V7.00892C5.1875 6.84732 5.26892 6.6966 5.40406 6.608Z" fill="#0366D6"/>
<path d="M8.18755 7.06255V6.87505H7.87504C7.84052 6.87505 7.81254 6.84706 7.81254 6.81254V6.37503C7.81254 6.34051 7.84052 6.31253 7.87504 6.31253H8.31255C8.34707 6.31253 8.37505 6.34051 8.37505 6.37503V7.06255H9.31257C9.41613 7.06255 9.50008 7.1465 9.50008 7.25006V8.00007H9.62508C9.6596 8.00007 9.68758 8.02806 9.68758 8.06258V8.68759C9.68758 8.72211 9.6596 8.75009 9.62508 8.75009H9.50008V9.1251C9.50008 9.22866 9.41613 9.31261 9.31257 9.31261H6.68751C6.58395 9.31261 6.5 9.22866 6.5 9.1251V8.75009H6.375C6.34048 8.75009 6.3125 8.72211 6.3125 8.68759V8.06258C6.3125 8.02806 6.34048 8.00007 6.375 8.00007H6.5V7.25006C6.5 7.1465 6.58395 7.06255 6.68751 7.06255H8.18755Z" fill="#011832"/>
<path d="M8.50895 8.5403C8.53849 8.56984 8.58638 8.56984 8.61591 8.5403L9.00897 8.14724C9.0385 8.11771 9.0385 8.06983 9.00897 8.04029L8.92842 7.95974C8.89888 7.9302 8.85099 7.9302 8.82146 7.95974L8.56243 8.21877L8.45965 8.11599C8.43012 8.08646 8.38223 8.08646 8.3527 8.11599L8.27215 8.19654C8.24262 8.22608 8.24262 8.27396 8.27215 8.3035L8.50895 8.5403Z" fill="#0366D6"/>
<path d="M7.25895 8.5403C7.28849 8.56984 7.33638 8.56984 7.36591 8.5403L7.75897 8.14724C7.7885 8.11771 7.7885 8.06983 7.75897 8.04029L7.67842 7.95974C7.64888 7.9302 7.60099 7.9302 7.57146 7.95974L7.31243 8.21877L7.20965 8.11599C7.18012 8.08646 7.13223 8.08646 7.1027 8.11599L7.02215 8.19654C6.99262 8.22608 6.99262 8.27396 7.02215 8.3035L7.25895 8.5403Z" fill="#0366D6"/>
</svg>
