<svg width="16" height="16" viewBox="0 0 16 16" fill="none" xmlns="http://www.w3.org/2000/svg">
<rect x="2.5" y="2.5" width="11" height="11" rx="2.5" stroke="#0097FB"/>
<g clip-path="url(#clip0_129_610)">
<path d="M6.25788 6.93548L7.99981 7.70968M7.99981 7.70968V9.54839M7.99981 7.70968L9.74175 6.93548M8.14782 5.25479L10.5672 6.2559C10.7119 6.31579 10.8063 6.45697 10.8063 6.61359V9.2977C10.8063 9.45024 10.7167 9.58855 10.5775 9.65093L8.15815 10.7355C8.05743 10.7806 7.94219 10.7806 7.84147 10.7355L5.42211 9.65093C5.28293 9.58855 5.19336 9.45024 5.19336 9.2977V6.61359C5.19336 6.45697 5.28773 6.31579 5.43245 6.2559L7.8518 5.25479C7.94659 5.21558 8.05304 5.21558 8.14782 5.25479Z" stroke="#0097FB" stroke-width="0.4" stroke-linecap="round"/>
</g>
<defs>
<clipPath id="clip0_129_610">
<rect width="6" height="6" fill="white" transform="translate(5 5)"/>
</clipPath>
</defs>
</svg>
