<svg width="16" height="16" viewBox="0 0 16 16" fill="none" xmlns="http://www.w3.org/2000/svg">
<rect x="2.5" y="2.5" width="11" height="11" rx="2.5" stroke="white"/>
<path d="M6.8388 9.72972C6.79103 9.72972 6.76714 9.66602 6.76714 9.53809V6.3791C6.76714 6.31806 6.75493 6.28939 6.72998 6.29311C6.57923 6.33133 6.50332 6.35044 6.50119 6.35044C6.45926 6.35415 6.43856 6.31222 6.43856 6.22463V5.95019C6.43856 5.87428 6.46138 5.83128 6.50703 5.82173L7.26188 5.62744C7.26772 5.62585 7.27621 5.62479 7.28736 5.62479C7.32929 5.62479 7.35 5.66938 7.35 5.75909V9.53862C7.35 9.66655 7.32505 9.73025 7.27568 9.73025L6.8388 9.72972ZM8.79386 9.73556C8.71742 9.73556 8.6516 9.73025 8.59533 9.71963C8.53906 9.70902 8.48067 9.68513 8.41962 9.64797C8.35858 9.61081 8.30868 9.55985 8.2694 9.49509C8.23012 9.43033 8.19827 9.33956 8.17385 9.2233C8.14943 9.10705 8.13669 8.96903 8.13669 8.80872V7.34256C8.13669 7.30434 8.12607 7.28523 8.10537 7.28523H7.92807C7.8803 7.28523 7.85641 7.23958 7.85641 7.14828V6.99381C7.85641 6.90038 7.8803 6.85367 7.92807 6.85367H8.10537C8.12607 6.85367 8.13669 6.82819 8.13669 6.7767L8.18818 5.6646C8.19402 5.56374 8.21844 5.51332 8.2625 5.51332H8.54862C8.59639 5.51332 8.62028 5.56374 8.62028 5.6646V6.7767C8.62028 6.82819 8.63143 6.85367 8.65478 6.85367H9.01946C9.06724 6.85367 9.09113 6.90038 9.09113 6.99381V7.14828C9.09113 7.23958 9.06724 7.28523 9.01946 7.28523H8.65372C8.64045 7.28523 8.63143 7.28842 8.62665 7.29532C8.62187 7.30169 8.61975 7.31762 8.61975 7.34256V8.81775C8.61975 8.92816 8.62665 9.02053 8.64098 9.09378C8.65531 9.16704 8.67602 9.22118 8.70362 9.25515C8.73122 9.28913 8.75883 9.31248 8.78643 9.32363C8.81403 9.33531 8.84801 9.34062 8.88782 9.34062H9.0906C9.14209 9.34062 9.16757 9.37618 9.16757 9.44625V9.61771C9.16757 9.69574 9.13996 9.73503 9.08476 9.73503L8.79386 9.73556ZM9.89109 10.0785C9.93462 10.0785 9.97284 10.0429 10.0052 9.97125C10.0376 9.89958 10.0541 9.7982 10.0541 9.66655C10.0541 9.63576 10.0349 9.53013 9.99673 9.34911L9.43617 7.01929C9.43245 6.99275 9.43033 6.97151 9.43033 6.95612C9.43033 6.88764 9.44466 6.85314 9.47333 6.85314H9.81943C9.84597 6.85314 9.86773 6.86216 9.88525 6.88021C9.90277 6.89826 9.91604 6.93488 9.92506 6.99009L10.2966 8.95683C10.3041 8.97965 10.3089 8.99133 10.311 8.99133C10.3184 8.99133 10.3227 8.98071 10.3227 8.96001L10.6141 6.99858C10.6215 6.94125 10.6337 6.90303 10.6497 6.88286C10.6656 6.86269 10.6863 6.85261 10.7112 6.85261H10.9512C10.9835 6.85261 11 6.88976 11 6.96408C11 6.98107 10.9979 7.00336 10.9942 7.0299L10.4851 9.68035C10.4453 9.89958 10.4012 10.0673 10.3534 10.1836C10.3057 10.2998 10.2526 10.3789 10.1931 10.4209C10.1342 10.4628 10.0562 10.4846 9.95851 10.4867H9.92984C9.77537 10.4867 9.6708 10.4458 9.61559 10.3635C9.60019 10.3465 9.59276 10.3025 9.59276 10.2319C9.59276 10.0907 9.61559 10.0201 9.66124 10.0201C9.66496 10.0201 9.69946 10.0296 9.76422 10.0487C9.83005 10.0689 9.87198 10.0785 9.89109 10.0785ZM5.40025 9.73503C5.35247 9.73503 5.32859 9.67133 5.32859 9.5434V6.38441C5.32859 6.32337 5.31638 6.2947 5.29143 6.29842C5.14067 6.33664 5.06476 6.35575 5.06264 6.35575C5.0207 6.35946 5 6.31753 5 6.22994V5.9555C5 5.87959 5.02283 5.83659 5.06848 5.82704L5.82385 5.63222C5.82969 5.63063 5.83818 5.62957 5.84933 5.62957C5.89127 5.62957 5.91197 5.67416 5.91197 5.76387V9.5434C5.91197 9.67133 5.88702 9.73503 5.83765 9.73503H5.40025Z" fill="white"/>
</svg>
