<svg width="16" height="16" viewBox="0 0 16 16" fill="none" xmlns="http://www.w3.org/2000/svg">
<rect x="2.5" y="2.5" width="11" height="11" rx="2.5" stroke="#FFCF00"/>
<path fill-rule="evenodd" clip-rule="evenodd" d="M11 8C11 9.65685 9.65685 11 8 11C6.34315 11 5 9.65685 5 8C5 6.34315 6.34315 5 8 5C9.65685 5 11 6.34315 11 8ZM8.24818 8L6.62431 6.37613L6.22656 6.77387L7.45268 8L6.22656 9.22613L6.62431 9.62387L8.24818 8ZM10.0482 8L8.42431 6.37613L8.02656 6.77387L9.25268 8L8.02656 9.22613L8.42431 9.62387L10.0482 8Z" fill="#FFCF00"/>
</svg>
