<svg width="16" height="16" viewBox="0 0 16 16" fill="none" xmlns="http://www.w3.org/2000/svg">
<rect x="2.5" y="2.5" width="11" height="11" rx="2.5" stroke="white"/>
<path d="M10.0736 6.64653C9.82271 6.64653 9.59542 6.7463 9.42852 6.90814L8.36971 6.14994C8.38976 6.06637 8.38018 5.97842 8.3426 5.90112C8.30502 5.82383 8.24178 5.76197 8.16367 5.7261C8.08557 5.69024 7.99743 5.6826 7.91432 5.70449C7.8312 5.72638 7.75826 5.77643 7.70794 5.84611C7.65763 5.91579 7.63305 6.00077 7.63842 6.08655C7.64379 6.17233 7.67876 6.25359 7.73736 6.31645C7.79597 6.37932 7.87458 6.41989 7.95978 6.43125C8.04497 6.44261 8.13147 6.42405 8.2045 6.37873L9.50034 7.32202C9.60161 7.11123 9.82421 6.94714 10.0736 6.94714C10.2225 6.94703 10.3666 6.99991 10.48 7.09631C10.5935 7.1927 10.6689 7.32633 10.6929 7.47328C10.7168 7.62022 10.6877 7.77089 10.6107 7.89831C10.5337 8.02573 10.4138 8.12159 10.2726 8.16873L10.3577 8.45734C10.568 8.38937 10.747 8.24862 10.8627 8.06041C10.9784 7.87219 11.0232 7.64887 10.989 7.43061C10.9547 7.21235 10.8437 7.01346 10.6759 6.86973C10.5081 6.726 10.2946 6.64685 10.0736 6.64653Z" fill="white"/>
<path d="M7.09948 5.74544C7.02645 5.9744 7.0457 6.22282 7.15312 6.43781L6.11288 7.21531C6.03952 7.17106 5.95308 7.15364 5.8683 7.16602C5.78353 7.17839 5.70568 7.2198 5.64804 7.28318C5.59039 7.34656 5.55653 7.42798 5.55223 7.51354C5.54792 7.59911 5.57344 7.68351 5.62443 7.75236C5.67542 7.8212 5.74873 7.87022 5.83183 7.89104C5.91493 7.91186 6.00269 7.9032 6.08011 7.86654C6.15754 7.82987 6.21985 7.76747 6.2564 7.68999C6.29295 7.6125 6.30148 7.52474 6.28053 7.44167L7.5685 6.49444C7.3986 6.33466 7.30989 6.07324 7.38509 5.8362C7.42994 5.69459 7.52373 5.57357 7.64967 5.4948C7.7756 5.41603 7.92546 5.38466 8.07242 5.40629C8.21937 5.42793 8.35383 5.50116 8.45172 5.61288C8.54961 5.7246 8.60454 5.86752 8.60668 6.01605L8.90673 6.02223C8.90545 5.80195 8.82565 5.58934 8.68168 5.42261C8.5377 5.25588 8.33898 5.14597 8.12123 5.11261C7.90347 5.07926 7.68097 5.12466 7.49369 5.24066C7.30641 5.35665 7.16663 5.53563 7.09948 5.74544Z" fill="white"/>
<path d="M5.38121 8.25274C5.57451 8.39428 5.81521 8.45526 6.05258 8.42283L6.46309 9.64929C6.44171 9.66767 6.42183 9.6883 6.40458 9.71212C6.34742 9.79121 6.324 9.88976 6.33947 9.98612C6.35494 10.0825 6.40804 10.1687 6.48709 10.226C6.65193 10.3464 6.88222 10.3113 7.00168 10.1478C7.05884 10.0687 7.08226 9.97011 7.06679 9.87375C7.05132 9.7774 6.99822 9.69114 6.91917 9.63392C6.86366 9.59333 6.79794 9.56904 6.72938 9.56378L6.2358 8.05039C6.03176 8.15916 5.75684 8.15916 5.55618 8.01289C5.2777 7.8096 5.21525 7.42085 5.41685 7.14443C5.49391 7.03936 5.60211 6.96124 5.72609 6.92114C5.85007 6.88105 5.98353 6.88103 6.10753 6.92108L6.20692 6.6409C5.83673 6.51732 5.41553 6.63809 5.17493 6.96796C4.87675 7.37678 4.96902 7.95194 5.38121 8.25274Z" fill="white"/>
<path d="M10.1298 9.6943C10.0565 9.46679 9.89697 9.27707 9.68539 9.16584L10.0815 7.93544C10.137 7.93126 10.1909 7.91455 10.2391 7.88656C10.2872 7.85856 10.3284 7.82002 10.3596 7.77381C10.3907 7.72761 10.411 7.67495 10.4188 7.61979C10.4267 7.56464 10.4219 7.50842 10.405 7.45536C10.3747 7.36241 10.3087 7.2853 10.2215 7.24099C10.1344 7.19668 10.0332 7.18879 9.94025 7.21907C9.89413 7.23383 9.85137 7.25753 9.81442 7.28881C9.77746 7.3201 9.74703 7.35836 9.72486 7.40141C9.70269 7.44446 9.68922 7.49145 9.68522 7.5397C9.68121 7.58796 9.68675 7.63653 9.70152 7.68264C9.72346 7.75016 9.7634 7.80698 9.81404 7.84955L9.31502 9.3605C9.54568 9.39125 9.76884 9.55122 9.84498 9.78619C9.89538 9.94354 9.88122 10.1145 9.80561 10.2614C9.72999 10.4083 9.59913 10.5191 9.44179 10.5695C9.31745 10.6099 9.18356 10.6103 9.05901 10.5705C8.93446 10.5308 8.82551 10.453 8.74754 10.348L8.5 10.5166C8.61463 10.6746 8.77636 10.7923 8.962 10.8527C9.14763 10.9131 9.34763 10.9132 9.5333 10.8529C10.0188 10.6961 10.2859 10.1774 10.1298 9.6943Z" fill="white"/>
<path d="M7.25653 10.6867C7.44997 10.5455 7.58065 10.3344 7.62072 10.0982L8.91487 10.0851C8.94791 10.1639 9.00725 10.2288 9.08278 10.2686C9.1583 10.3085 9.24533 10.321 9.32901 10.3039C9.41269 10.2867 9.48784 10.2411 9.54162 10.1747C9.5954 10.1084 9.62449 10.0254 9.62392 9.94001C9.62335 9.8546 9.59316 9.77203 9.53849 9.7064C9.48383 9.64077 9.40808 9.59614 9.32418 9.58013C9.24028 9.56413 9.15342 9.57773 9.07843 9.61863C9.00345 9.65953 8.94497 9.72518 8.913 9.80438L7.31991 9.80851C7.36248 10.0369 7.28016 10.2993 7.08006 10.4456C6.96069 10.5331 6.81406 10.5753 6.66642 10.5646C6.51878 10.5539 6.37978 10.491 6.2743 10.3871C6.16882 10.2832 6.10375 10.1452 6.09075 9.99778C6.07775 9.85032 6.11767 9.70306 6.20335 9.58235L5.96574 9.40081C5.83719 9.57875 5.77631 9.7967 5.79403 10.0155C5.81175 10.2343 5.90692 10.4396 6.06244 10.5945C6.21795 10.7495 6.42362 10.8439 6.64249 10.8608C6.86136 10.8777 7.07908 10.8159 7.25653 10.6867Z" fill="white"/>
</svg>
