<svg width="16" height="16" viewBox="0 0 16 16" fill="none" xmlns="http://www.w3.org/2000/svg">
<rect x="2.5" y="2.5" width="11" height="11" rx="2.5" stroke="#FFB154"/>
<path fill-rule="evenodd" clip-rule="evenodd" d="M8.50801 5.2988C8.66839 5.58307 8.57087 5.94519 8.29021 6.10763L6.54504 7.11764C6.49891 7.14434 6.47044 7.19407 6.47044 7.24792V8.83345C6.47044 8.8873 6.49891 8.93701 6.54504 8.96371L7.92646 9.76322C7.97192 9.78952 8.02769 9.78952 8.07316 9.76322L9.45458 8.96371C9.50071 8.93701 9.52918 8.8873 9.52918 8.83345V7.84738L8.28743 8.55698C8.0059 8.71787 7.64888 8.61713 7.49003 8.332C7.33118 8.04685 7.43065 7.68526 7.71218 7.52438L9.48896 6.50903C10.0302 6.19974 10.6998 6.59579 10.6998 7.22519V8.95382C10.6998 9.35872 10.4856 9.73256 10.1385 9.93344L8.5525 10.8514C8.21002 11.0495 7.7896 11.0495 7.44712 10.8514L5.8611 9.93344C5.51401 9.73256 5.2998 9.35872 5.2998 8.95382V7.12753C5.2998 6.72265 5.51401 6.3488 5.8611 6.14792L7.70941 5.07821C7.99007 4.91577 8.34763 5.01453 8.50801 5.2988Z" fill="#FFB154"/>
</svg>
