<svg width="16" height="16" viewBox="0 0 16 16" fill="none" xmlns="http://www.w3.org/2000/svg">
<rect x="2.5" y="2.5" width="11" height="11" rx="2.5" stroke="#42BEC2"/>
<path d="M10.6738 6.08833C10.4993 5.91511 10.2639 5.81593 10.0171 5.81173C9.7704 5.80753 9.53168 5.89864 9.35132 6.06582C9.34229 6.07436 9.33509 6.08463 9.33017 6.09601C9.32526 6.10739 9.32271 6.11964 9.32271 6.13203C9.32271 6.14441 9.32526 6.15667 9.33017 6.16805C9.33509 6.17943 9.34229 6.1897 9.35132 6.19823L9.46603 6.31475C9.48153 6.33006 9.50208 6.33929 9.52389 6.34075C9.5457 6.34221 9.56731 6.3358 9.58474 6.3227C9.69474 6.23547 9.83445 6.19384 9.97466 6.20651C10.1149 6.21918 10.2447 6.28517 10.337 6.39067C10.4294 6.49618 10.477 6.63304 10.4701 6.77263C10.4631 6.91222 10.402 7.04373 10.2997 7.13966C9.54406 7.88909 8.53571 5.78776 6.24693 6.87087C6.2083 6.88929 6.17393 6.91546 6.14601 6.94773C6.11808 6.97999 6.09719 7.01765 6.08465 7.05834C6.07212 7.09902 6.06821 7.14184 6.07319 7.18409C6.07816 7.22636 6.0919 7.26713 6.11356 7.30384L6.50636 7.97715C6.54702 8.04737 6.61399 8.09881 6.69268 8.12026C6.77136 8.14171 6.8554 8.13144 6.92649 8.09168L6.93584 8.08638L6.92849 8.09168L7.10056 7.99635C7.29456 7.87677 7.47795 7.74099 7.64874 7.59051C7.66565 7.57522 7.6875 7.5664 7.71036 7.56568C7.73323 7.56495 7.75559 7.57235 7.77345 7.58654C7.78311 7.59458 7.79095 7.60455 7.79644 7.6158C7.80194 7.62706 7.80498 7.63935 7.80535 7.65185C7.80573 7.66436 7.80344 7.6768 7.79863 7.68836C7.79383 7.69993 7.78661 7.71035 7.77746 7.71894C7.5977 7.87969 7.40399 8.02436 7.19859 8.15126H7.19259L7.01853 8.24792C6.94501 8.2889 6.86209 8.31034 6.77778 8.31015C6.69046 8.31046 6.6046 8.28792 6.52885 8.2448C6.4531 8.20168 6.39014 8.1395 6.3463 8.06454L5.97484 7.42831C5.26459 7.93014 4.82844 8.89407 5.06453 10.1149C5.0684 10.1355 5.07938 10.1541 5.09556 10.1675C5.11175 10.1809 5.13214 10.1883 5.15322 10.1884H5.57203C5.59511 10.189 5.61754 10.1808 5.63476 10.1656C5.65198 10.1503 5.6627 10.1291 5.66473 10.1063C5.68441 9.95839 5.75755 9.82265 5.87055 9.72433C5.98354 9.626 6.12868 9.57178 6.27894 9.57178C6.4292 9.57178 6.57434 9.626 6.68733 9.72433C6.80033 9.82265 6.87348 9.95839 6.89315 10.1063C6.89576 10.128 6.9063 10.148 6.92276 10.1625C6.93924 10.177 6.96049 10.1851 6.98251 10.1851H7.39199C7.41397 10.1849 7.43515 10.1768 7.45159 10.1623C7.46803 10.1479 7.47861 10.1279 7.48135 10.1063C7.50103 9.95839 7.57417 9.82265 7.68717 9.72433C7.80016 9.626 7.9453 9.57178 8.09556 9.57178C8.24583 9.57178 8.39097 9.626 8.50396 9.72433C8.61695 9.82265 8.6901 9.95839 8.70978 10.1063C8.71252 10.1279 8.7231 10.1479 8.73954 10.1623C8.75597 10.1768 8.77715 10.1849 8.79914 10.1851H9.20594C9.22977 10.1851 9.25264 10.1758 9.26961 10.1592C9.28658 10.1426 9.29629 10.12 9.29664 10.0963C9.30598 9.52699 9.4607 8.87289 9.90152 8.54518C11.4287 7.4111 11.0272 6.43922 10.6738 6.08833ZM9.11658 7.80104L8.82515 7.65606C8.82512 7.62508 8.83308 7.59461 8.84828 7.56755C8.86347 7.5405 8.88539 7.51776 8.91195 7.5015C8.93851 7.48523 8.96882 7.476 9 7.47466C9.03117 7.47332 9.06217 7.47994 9.09004 7.49386C9.11791 7.50779 9.14173 7.52858 9.15922 7.55423C9.1767 7.57989 9.18727 7.60956 9.18994 7.64042C9.1926 7.67129 9.18726 7.70232 9.17441 7.73055C9.16157 7.75878 9.14166 7.78327 9.11658 7.80171V7.80104Z" fill="#42BEC2"/>
</svg>
