<svg width="16" height="16" viewBox="0 0 16 16" fill="none" xmlns="http://www.w3.org/2000/svg">
<rect x="2.5" y="2.5" width="11" height="11" rx="2.5" stroke="#EB4A4B"/>
<path fill-rule="evenodd" clip-rule="evenodd" d="M9.15826 8.30357L9.35475 6.53877C9.35475 6.53877 9.16864 6.6929 7.9839 6.6929C6.79907 6.6929 6.63214 6.54197 6.63214 6.54197L6.78782 8.04223C6.87119 7.80503 7.0699 7.32249 7.38349 7.33868C7.52598 7.34595 7.71597 7.62018 7.55312 7.62948C7.4843 7.63336 7.47751 7.49261 7.39609 7.47196C7.33725 7.45703 7.25524 7.50492 7.20222 7.55678C7.09656 7.66021 6.86925 8.06821 6.8993 8.27167C6.93768 8.53097 7.25728 8.18152 7.31127 8.0778C7.34946 8.00472 7.37525 7.78816 7.45861 7.81085C7.54178 7.83353 7.45124 8.05706 7.39076 8.25461C7.3229 8.47659 7.28733 8.71098 7.20231 8.68403C7.1173 8.65689 7.25563 8.37074 7.25078 8.32053C7.17081 8.3942 7.02328 8.58128 6.83464 8.48823L6.93448 9.45118C6.93448 9.45118 7.19456 9.65668 7.97799 9.65668C8.76122 9.65668 9.03118 9.45447 9.03118 9.45447L9.14198 8.45944C9.03341 8.55734 8.73679 8.71341 8.71721 8.52535C8.70112 8.36977 9.05803 8.1442 8.96633 8.13664C8.76927 8.14828 8.67107 8.36803 8.57181 8.59805C8.53556 8.68239 8.41119 9.0424 8.32947 8.9981C8.24805 8.95371 8.43532 8.65786 8.48777 8.48241C8.42718 8.52661 8.20501 8.69916 8.14782 8.53766C8.05573 8.6157 7.85895 8.65806 7.88125 8.45275C7.83239 8.5396 7.72227 8.66067 7.59044 8.61036C7.41732 8.54425 7.69096 7.9924 7.75911 8.02023C7.82696 8.04805 7.74525 8.17377 7.72382 8.22263C7.67671 8.33003 7.62233 8.46516 7.65888 8.49278C7.72092 8.54009 7.89055 8.31345 7.89414 8.30861C7.92584 8.26673 8.01628 7.9926 8.08898 8.0242C8.16168 8.05561 7.90742 8.41737 8.00251 8.4892C8.0219 8.50374 8.10022 8.48028 8.14791 8.42861C8.17893 8.39527 8.16827 8.3213 8.27102 8.07577C8.37416 7.83023 8.46586 7.5245 8.53662 7.54777C8.60709 7.57103 8.54893 7.72806 8.52363 7.78652C8.40498 8.06123 8.19939 8.51488 8.29632 8.48057C8.39326 8.44616 8.44366 8.44422 8.53866 8.33323C8.63365 8.22204 8.62919 8.03903 8.69249 8.043C8.75589 8.04688 8.74523 8.10543 8.72991 8.15012C8.79214 8.07897 9.02508 7.92882 9.0813 8.07742C9.14818 8.25345 8.74823 8.50761 8.84798 8.49472C8.94055 8.48251 9.08818 8.39139 9.16011 8.30434L9.15826 8.30357ZM8.34692 6.25417C8.23622 6.2501 8.12009 6.24797 8.00048 6.24797C7.23857 6.24797 6.62109 6.33482 6.62109 6.44184C6.62109 6.54885 7.23857 6.63571 8.00028 6.63571C8.762 6.63571 9.37947 6.54885 9.37947 6.44184C9.37947 6.36429 9.05542 6.2974 8.58732 6.26638L8.6828 5.88902L9.3659 5.17025L9.3627 5.16753C9.36464 5.16627 9.36677 5.16462 9.36852 5.16269C9.38596 5.14281 9.35979 5.09212 9.31036 5.04927C9.26092 5.00662 9.20693 4.9882 9.18977 5.00788C9.18744 5.0105 9.18589 5.0137 9.18512 5.01709L8.46227 5.78268L8.34653 6.25417H8.34692ZM8.74939 10.8153C8.74939 10.9173 8.41303 11 7.99815 11C7.58327 11 7.2469 10.9173 7.2469 10.8153L7.18254 9.86402L7.0005 9.56178C7.0005 9.56178 7.3642 9.71009 7.98245 9.71009C8.60089 9.71009 8.97021 9.55887 8.97021 9.55887L8.80794 9.8361L8.7492 10.8153H8.74939ZM8.5214 6.49457C8.54467 6.49147 8.58053 6.48711 8.58053 6.45899C8.58053 6.44252 8.56657 6.43282 8.55068 6.42797L8.53885 6.44639C8.54854 6.44882 8.55436 6.45182 8.55436 6.45492C8.55417 6.46539 8.47972 6.47043 8.41826 6.47121C8.35681 6.47198 8.27635 6.46471 8.27645 6.45415C8.27645 6.45192 8.27936 6.44979 8.28469 6.44804L8.27277 6.42933C8.26016 6.43495 8.25028 6.4429 8.25028 6.45706C8.25028 6.46442 8.25348 6.47518 8.25949 6.48061C8.28178 6.50097 8.33752 6.50165 8.41613 6.50126C8.49465 6.50097 8.5215 6.49496 8.5215 6.49496L8.5214 6.49457Z" fill="#EB4A4B"/>
</svg>
