<svg width="16" height="16" viewBox="0 0 16 16" fill="none" xmlns="http://www.w3.org/2000/svg">
<rect x="2.5" y="2.5" width="11" height="11" rx="2.5" stroke="#31A8FF"/>
<path d="M6.41442 6.18069C6.40635 6.17304 6.39758 6.16481 6.3889 6.15648C6.21103 5.9856 6.07338 5.78802 5.99023 5.55448C5.96696 5.48912 5.94939 5.42245 5.95251 5.35205C5.9528 5.34537 5.95278 5.33867 5.95324 5.332C5.95952 5.24113 6.02034 5.19521 6.10914 5.21673C6.13715 5.22399 6.16426 5.23437 6.18994 5.2477C6.28708 5.29641 6.36625 5.36843 6.43906 5.4474C6.56837 5.58502 6.67207 5.74462 6.74529 5.91868C6.74688 5.92283 6.74872 5.92688 6.75078 5.93082C6.75178 5.93263 6.75391 5.93382 6.75866 5.93814C7.10525 5.73021 7.4973 5.60991 7.90086 5.58766C7.89837 5.57531 7.89688 5.56587 7.89455 5.55664C7.85337 5.38624 7.84073 5.21018 7.85715 5.03564C7.86437 4.93105 7.88544 4.82787 7.9198 4.72882C7.93643 4.67665 7.96261 4.62803 7.99701 4.58543C8.01001 4.57021 8.02501 4.55683 8.04161 4.54565C8.05814 4.53396 8.07785 4.52762 8.0981 4.52748C8.11835 4.52734 8.13815 4.53341 8.15485 4.54486C8.19012 4.56875 8.21851 4.60148 8.23718 4.63977C8.27196 4.70471 8.29696 4.77443 8.31136 4.84667C8.3442 4.99944 8.35429 5.15623 8.34129 5.31195C8.33485 5.40699 8.31836 5.50108 8.29208 5.59264C8.39248 5.61114 8.4924 5.62547 8.59021 5.64871C8.6878 5.67141 8.78401 5.69966 8.87837 5.73335C8.97351 5.76826 9.06657 5.8086 9.15709 5.85415C9.24654 5.89876 9.3317 5.952 9.42096 6.00272C9.42386 5.99661 9.42807 5.98933 9.43092 5.98154C9.5239 5.72433 9.68405 5.4967 9.89474 5.3223C9.94393 5.28008 10.0004 5.24719 10.0614 5.22527C10.0782 5.21941 10.0956 5.21541 10.1133 5.21335C10.2016 5.20324 10.2386 5.25881 10.2452 5.32517C10.2501 5.3741 10.2464 5.4235 10.2343 5.47115C10.202 5.59424 10.151 5.71163 10.083 5.81919C9.98726 5.97387 9.87364 6.1132 9.72923 6.22563C9.72497 6.22895 9.72123 6.23294 9.71401 6.23959C9.85525 6.36987 9.98105 6.51595 10.0889 6.67496C10.0811 6.67698 10.0731 6.67838 10.0651 6.67916C9.91573 6.67937 9.76635 6.6789 9.61699 6.67981C9.60819 6.6796 9.59957 6.67733 9.5918 6.6732C9.58403 6.66906 9.57734 6.66317 9.57226 6.65598C9.24636 6.29992 8.807 6.06799 8.32916 5.99976C8.18785 5.9792 8.04476 5.97367 7.90229 5.98327C7.47746 6.00921 7.07105 6.16585 6.7387 6.43173C6.65288 6.49942 6.57283 6.57412 6.49938 6.65506C6.49286 6.66315 6.48454 6.6696 6.47508 6.67391C6.46562 6.67821 6.45529 6.68024 6.44491 6.67984C6.30224 6.67885 6.15955 6.67935 6.01686 6.67935H5.98652C5.99524 6.6454 6.08296 6.52515 6.18225 6.41779C6.2563 6.33774 6.33474 6.26174 6.41442 6.18069Z" fill="#31A8FF"/>
<path d="M10.0513 9.37773C9.9521 9.51663 9.83885 9.64495 9.71337 9.76067C9.72337 9.769 9.7315 9.77577 9.73962 9.78253C9.95742 9.96071 10.1218 10.1956 10.2145 10.4613C10.2391 10.5261 10.2497 10.5954 10.2455 10.6646C10.2442 10.6823 10.2407 10.6998 10.235 10.7166C10.2278 10.7405 10.2121 10.7608 10.1909 10.7739C10.1697 10.787 10.1445 10.7918 10.12 10.7874C10.0869 10.7831 10.0547 10.7736 10.0246 10.7592C9.9787 10.7365 9.93531 10.709 9.89519 10.6772C9.68389 10.5036 9.52345 10.276 9.43087 10.0187C9.42823 10.0115 9.42534 10.0043 9.42068 9.99225C9.30816 10.0666 9.1903 10.1327 9.06807 10.1897C8.94643 10.2452 8.82064 10.291 8.69185 10.3268C8.56098 10.3623 8.42758 10.3877 8.29282 10.4028C8.29519 10.4146 8.29655 10.4241 8.29898 10.4332C8.34173 10.6009 8.35589 10.7746 8.34087 10.947C8.33524 11.055 8.31424 11.1617 8.27851 11.2639C8.26151 11.3061 8.2419 11.3473 8.2198 11.3871C8.21085 11.4026 8.19975 11.4167 8.18683 11.429C8.13072 11.4869 8.06373 11.4874 8.00904 11.428C7.98742 11.404 7.96892 11.3774 7.95396 11.3488C7.91058 11.2674 7.88826 11.1788 7.87232 11.0885C7.85181 10.9653 7.84538 10.8401 7.85316 10.7154C7.8574 10.6241 7.87102 10.5335 7.89383 10.445C7.8958 10.4375 7.8976 10.4299 7.89906 10.4223C7.89943 10.4203 7.89817 10.4181 7.89665 10.4119C7.49316 10.3891 7.10133 10.2681 6.75518 10.0595C6.74941 10.0723 6.74444 10.0831 6.73965 10.094C6.64265 10.3203 6.49335 10.5205 6.30402 10.6779C6.2539 10.7208 6.19633 10.754 6.13418 10.776C6.10506 10.7877 6.07327 10.7911 6.04233 10.7859C6.02525 10.7828 6.00925 10.7754 5.9959 10.7643C5.98255 10.7532 5.9723 10.7388 5.96616 10.7226C5.9462 10.6743 5.94973 10.6241 5.95651 10.5743C5.96763 10.505 5.98806 10.4374 6.01724 10.3734C6.1037 10.1721 6.23096 9.99081 6.39099 9.84108C6.39746 9.83495 6.40409 9.829 6.41045 9.82276C6.41247 9.81986 6.4142 9.81676 6.4156 9.81352C6.26482 9.68275 6.1301 9.53455 6.01426 9.37203C6.02814 9.3709 6.03742 9.36949 6.04671 9.36948C6.19494 9.36934 6.34317 9.36987 6.49139 9.36887C6.50125 9.36856 6.51105 9.37047 6.52009 9.37443C6.52912 9.3784 6.53715 9.38433 6.5436 9.39179C6.70474 9.55757 6.8925 9.69521 7.09909 9.799C7.31765 9.91147 7.5553 9.98211 7.7998 10.0073C8.46409 10.0719 9.03552 9.87047 9.51408 9.40313C9.52478 9.39156 9.5379 9.38248 9.55249 9.37652C9.56709 9.37057 9.58282 9.36789 9.59856 9.36868C9.73674 9.37039 9.87495 9.36938 10.0131 9.36938H10.0489L10.0513 9.37773Z" fill="#31A8FF"/>
<path d="M9.43382 7.26096C9.47311 7.26096 9.51094 7.26362 9.54822 7.26025C9.59044 7.25643 9.62067 7.27153 9.65147 7.29991C9.82928 7.46375 10.0089 7.62558 10.188 7.78807C10.197 7.79624 10.2062 7.80421 10.2178 7.81444C10.2285 7.80517 10.2386 7.79691 10.2483 7.78814C10.4328 7.62012 10.6173 7.45195 10.8016 7.28363C10.8092 7.27575 10.8185 7.26961 10.8287 7.2656C10.8389 7.2616 10.8499 7.25984 10.8608 7.26043C10.9062 7.26227 10.9517 7.26096 10.9996 7.26096V8.74641C10.9753 8.75351 10.6489 8.75492 10.6099 8.74728V7.99499L10.6024 7.99141C10.4753 8.10726 10.3483 8.22311 10.2184 8.34161C10.0883 8.22444 9.9598 8.10866 9.83128 7.99289L9.82389 7.9956C9.82356 8.05838 9.82378 8.12118 9.82374 8.18397C9.8237 8.24637 9.8237 8.30877 9.82373 8.37117V8.75001H9.43706C9.42981 8.72501 9.42645 7.345 9.43382 7.26096Z" fill="#31A8FF"/>
<path d="M5.86609 7.26266H6.25044C6.2582 7.28736 6.25972 8.71432 6.25178 8.75032H5.86709C5.86497 8.65581 5.86642 8.56163 5.86615 8.4675C5.86589 8.37414 5.86609 8.28077 5.86609 8.18499H5.38977V8.74524C5.36073 8.75391 5.03262 8.75474 5 8.74697V7.26283H5.38823V7.7871C5.41597 7.79512 5.82417 7.7966 5.86574 7.78893C5.86586 7.74696 5.86602 7.70397 5.86608 7.66098C5.86614 7.6164 5.86614 7.57182 5.86609 7.52724C5.86609 7.48377 5.86609 7.4403 5.86609 7.39684C5.86609 7.35344 5.86609 7.31004 5.86609 7.26266Z" fill="#31A8FF"/>
<path d="M6.71094 8.74977V7.26706C6.73373 7.2596 7.57858 7.25669 7.6338 7.26418V7.58017C7.62142 7.58106 7.60863 7.58275 7.59584 7.58277C7.44539 7.58296 7.29493 7.583 7.14447 7.58289H7.10263V7.82867H7.57274V8.15562H7.10684C7.09904 8.1836 7.0969 8.3786 7.10323 8.43258C7.11514 8.43338 7.1279 8.43497 7.14066 8.43498C7.29112 8.43516 7.44157 8.4352 7.59203 8.4351H7.63389V8.74977H6.71094Z" fill="#31A8FF"/>
<path d="M8.07495 8.75033C8.06789 8.71055 8.06932 7.28979 8.07633 7.26278H8.45925V8.35908C8.47577 8.35994 8.48873 8.36119 8.50169 8.3612C8.65327 8.36134 8.80485 8.36137 8.95643 8.36129C8.96948 8.36129 8.98253 8.36129 8.99742 8.36129V8.75034L8.07495 8.75033Z" fill="#31A8FF"/>
</svg>
