<svg width="16" height="16" viewBox="0 0 16 16" fill="none" xmlns="http://www.w3.org/2000/svg">
<rect x="2.5" y="2.5" width="11" height="11" rx="2.5" stroke="#34D399"/>
<path opacity="0.5" d="M8.65309 5.03886L5.37122 6.48779C5.32261 6.50925 5.3006 6.56605 5.32206 6.61466L7.21931 10.912C7.24077 10.9606 7.29757 10.9826 7.34618 10.9611L10.6281 9.51221C10.6767 9.49075 10.6987 9.43394 10.6772 9.38534L8.77996 5.08801C8.7585 5.0394 8.7017 5.0174 8.65309 5.03886Z" fill="#34D399"/>
<path fill-rule="evenodd" clip-rule="evenodd" d="M6.01725 5.70589L9.59332 5.41977C9.64629 5.41553 9.69266 5.45503 9.6969 5.508L10.0715 10.1905C10.0758 10.2435 10.0363 10.2899 9.98332 10.2941L6.40724 10.5802C6.35428 10.5845 6.30791 10.545 6.30367 10.492L5.92902 5.80946C5.92478 5.7565 5.96429 5.71012 6.01725 5.70589ZM8.77828 7.03811L9.24321 9.19585L7.78753 7.78868L8.77828 7.03811ZM6.75631 6.79189L8.21199 8.19907L7.22124 8.94964L6.75631 6.79189Z" fill="#34D399"/>
</svg>
