<svg width="16" height="16" viewBox="0 0 16 16" fill="none" xmlns="http://www.w3.org/2000/svg">
<rect x="2.5" y="2.5" width="11" height="11" rx="2.5" stroke="#FF3366" stroke-linecap="round"/>
<path d="M10.8239 7.95479C10.8239 7.59349 10.5502 7.28945 10.1827 7.20269L11.0057 5H6.92681L7.75175 7.20965C7.39581 7.3034 7.13343 7.60213 7.13343 7.95662C7.13343 8.21712 7.27707 8.44812 7.49525 8.59054C7.4092 8.70172 7.30957 8.80426 7.1967 8.90149C6.98425 9.08223 6.74865 9.22112 6.49416 9.31323C6.26447 9.17251 6.16499 8.92408 6.25489 8.70167C6.60515 8.60444 6.85987 8.3074 6.85987 7.95827C6.85987 7.52928 6.47509 7.18175 6.00407 7.18175C5.53126 7.18175 5.14671 7.53093 5.14671 7.96005C5.14671 8.17203 5.24229 8.36649 5.39551 8.50538C5.38208 8.52981 5.36874 8.554 5.35531 8.58007C5.22707 8.8199 5.08156 9.09087 5.02595 9.39491C4.91495 10.0028 5.09678 10.491 5.53511 10.7672C5.78208 10.9218 6.054 11 6.34686 11C6.8501 11 7.36129 10.7706 7.85504 10.5482C8.20732 10.3903 8.57097 10.2251 8.92894 10.1453C9.06106 10.1158 9.19883 10.0983 9.34435 10.0793C9.63899 10.0411 9.94341 10.0011 10.2172 9.85692C10.5368 9.68848 10.755 9.40699 10.8182 9.08392C10.8659 8.83545 10.8182 8.58537 10.6956 8.36649C10.7794 8.24555 10.8242 8.10189 10.8239 7.95479ZM10.4507 7.95479C10.4507 8.19622 10.2344 8.39256 9.96835 8.39256C9.70231 8.39256 9.48596 8.19622 9.48596 7.95479C9.48596 7.87658 9.50893 7.80195 9.54909 7.73769C9.56436 7.71327 9.58361 7.68908 9.60264 7.66817C9.6228 7.64668 9.64528 7.62748 9.66966 7.61092L9.67168 7.60909C9.6869 7.59866 9.70414 7.58818 9.72138 7.5779C9.72138 7.5779 9.72326 7.5779 9.72326 7.57607C9.73091 7.57259 9.73862 7.56742 9.74637 7.56395C9.7482 7.56395 9.75003 7.56211 9.752 7.56211C9.75975 7.55883 9.76929 7.55535 9.77878 7.55183C9.78784 7.54867 9.79678 7.54519 9.8056 7.5414C9.80748 7.5414 9.80945 7.53952 9.81128 7.53952C9.81898 7.53793 9.82669 7.5344 9.83425 7.53276C9.83627 7.53276 9.84012 7.53093 9.84195 7.53093C9.85149 7.52928 9.85919 7.52745 9.86873 7.52576H9.87075L9.8994 7.52045C9.90137 7.52045 9.90504 7.52045 9.90706 7.51881C9.91476 7.51881 9.92232 7.51698 9.93002 7.51698H9.93956C9.94909 7.51698 9.95882 7.51533 9.97018 7.51533H9.99513C10.0026 7.51533 10.0086 7.51533 10.0161 7.51698H10.0199C10.0353 7.51886 10.0506 7.52045 10.066 7.52397C10.2841 7.56559 10.4507 7.74286 10.4507 7.95479ZM7.46072 5.34735H10.4716L9.78066 7.19739C9.752 7.20269 9.72321 7.21129 9.69461 7.21993L8.96731 5.87375L8.23795 7.21124C8.20916 7.20265 8.17853 7.19734 8.14805 7.19217L7.46072 5.34735ZM8.82931 7.80354C8.793 7.64023 8.70108 7.49438 8.57097 7.38668L8.96731 6.66065L9.36727 7.40227C9.24857 7.50998 9.16247 7.64723 9.128 7.80354H8.82931ZM7.87045 7.52924C7.87998 7.52736 7.88769 7.52576 7.89722 7.52393H7.90291C7.91061 7.52228 7.91836 7.52228 7.92587 7.52041H7.93358C7.94128 7.52041 7.94696 7.51876 7.95467 7.51876H8.02935C8.03687 7.51876 8.04274 7.52041 8.04842 7.52041C8.05227 7.52041 8.0541 7.52041 8.05796 7.52228C8.06566 7.52393 8.07134 7.52393 8.07909 7.52576C8.08088 7.52576 8.0829 7.52576 8.08675 7.5274C8.09633 7.52924 8.10587 7.53088 8.11352 7.53271H8.1154C8.1231 7.53436 8.13081 7.536 8.13832 7.53952C8.14034 7.53952 8.14217 7.54135 8.14603 7.54135C8.15171 7.543 8.15941 7.54483 8.1651 7.54831C8.16712 7.54831 8.16895 7.54995 8.17097 7.54995C8.17848 7.55347 8.18623 7.5553 8.19394 7.55878H8.19577C8.2053 7.56207 8.21301 7.56554 8.22071 7.5709H8.22259C8.23025 7.57437 8.23795 7.57949 8.24565 7.58297C8.24753 7.58297 8.24753 7.58485 8.24932 7.58485C8.25702 7.58814 8.26275 7.59344 8.27045 7.59692L8.27247 7.59856C8.29539 7.61421 8.31648 7.63163 8.33739 7.64906L8.33941 7.6507C8.35852 7.66977 8.37759 7.69067 8.393 7.71327C8.44274 7.78278 8.47153 7.86447 8.47153 7.95305C8.47153 8.19453 8.25519 8.39068 7.98914 8.39068C7.7231 8.39068 7.50675 8.19453 7.50675 7.95305C7.50478 7.74976 7.65983 7.57785 7.87045 7.52924ZM5.98683 7.51693C6.25292 7.51693 6.46922 7.71327 6.46922 7.9547C6.46922 8.19617 6.25292 8.39246 5.98683 8.39246C5.72078 8.39246 5.50444 8.19617 5.50444 7.9547C5.50444 7.71327 5.72078 7.51693 5.98683 7.51693ZM10.4392 9.02314C10.3971 9.24531 10.2458 9.44001 10.0238 9.55631C9.81513 9.66584 9.55863 9.70051 9.28873 9.73522C9.14143 9.75429 8.98638 9.77519 8.83701 9.80821C8.43889 9.89684 8.05612 10.0706 7.68477 10.2372C7.21009 10.451 6.76203 10.6524 6.34686 10.6524C6.13051 10.6524 5.93713 10.5968 5.75348 10.4805C5.33238 10.2165 5.35329 9.72146 5.40322 9.45043C5.44906 9.1967 5.57734 8.95874 5.69988 8.73122C5.7074 8.71727 5.71327 8.70515 5.72078 8.6912C5.76301 8.70515 5.80702 8.71562 5.85291 8.72257C5.78025 9.09083 5.98683 9.4712 6.38885 9.65889L6.46165 9.69355L6.54005 9.66749C6.87509 9.55978 7.18515 9.38439 7.45889 9.14987C7.61394 9.01779 7.74607 8.87542 7.85706 8.72074C7.90107 8.72774 7.94513 8.72957 7.98914 8.72957C8.38732 8.72957 8.72217 8.4811 8.81794 8.14756H9.13941C9.23519 8.48279 9.57018 8.72953 9.96835 8.72953C10.1273 8.72953 10.2746 8.6896 10.4008 8.62187C10.4507 8.75212 10.466 8.88754 10.4392 9.02314Z" fill="#FF3366"/>
</svg>
