<svg width="16" height="16" viewBox="0 0 16 16" fill="none" xmlns="http://www.w3.org/2000/svg">
<rect x="2.5" y="2.5" width="11" height="11" rx="2.5" stroke="white" stroke-linecap="round"/>
<path d="M4.59346 8.9C4.45939 8.9 4.33717 8.88379 4.22679 8.85136C4.11642 8.818 4.02101 8.76983 3.94056 8.70637C3.86106 8.6423 3.79932 8.56388 3.75551 8.47128C3.71155 8.37883 3.68926 8.27329 3.68848 8.15465V8.14857H4.27434L4.27559 8.1534C4.27715 8.21514 4.29102 8.26752 4.3169 8.31055C4.34372 8.35358 4.3802 8.38647 4.4265 8.40923C4.4728 8.43121 4.52596 8.44213 4.58614 8.44213C4.68108 8.44213 4.75342 8.41687 4.80284 8.36667C4.85319 8.31632 4.87845 8.24476 4.87845 8.15231V7.1H5.48863V8.15839C5.48863 8.31102 5.45418 8.44291 5.38512 8.55422C5.31605 8.66459 5.21503 8.74987 5.08174 8.80989C4.9486 8.87007 4.78584 8.9 4.59346 8.9Z" fill="white"/>
<path d="M6.78805 8.9C6.5886 8.9 6.414 8.86905 6.26409 8.80721C6.11435 8.74453 5.99758 8.65212 5.91364 8.53001C5.83064 8.4079 5.78906 8.25605 5.78906 8.0745V7.1H6.40087V8.06351C6.40087 8.14493 6.41525 8.21372 6.4437 8.26989C6.47293 8.32525 6.51607 8.36718 6.57312 8.39567C6.63096 8.42336 6.70255 8.43719 6.78805 8.43719C6.87356 8.43719 6.94484 8.42336 7.00173 8.39567C7.05957 8.36718 7.10271 8.32525 7.13116 8.26989C7.16055 8.21372 7.17508 8.14493 7.17508 8.06351V7.1H7.78705V8.0745C7.78705 8.25605 7.74547 8.4079 7.66247 8.53001C7.57931 8.65212 7.46301 8.74453 7.31311 8.80721C7.16336 8.86905 6.98829 8.9 6.78805 8.9Z" fill="white"/>
<path d="M9.09817 8.9C8.8983 8.9 8.72619 8.87868 8.58184 8.83589C8.43747 8.79294 8.32367 8.73035 8.24039 8.64782C8.1571 8.56452 8.10674 8.4634 8.08929 8.34447L8.08691 8.32665H8.66154L8.66392 8.33487C8.67185 8.36898 8.69366 8.39837 8.72936 8.42304C8.76584 8.4468 8.81541 8.46538 8.87808 8.47893C8.94073 8.49157 9.01687 8.49797 9.1065 8.49797C9.17709 8.49797 9.23777 8.49203 9.28853 8.48015C9.34008 8.46736 9.37973 8.44954 9.40749 8.42655C9.43525 8.40355 9.44914 8.37705 9.44914 8.3469V8.34568C9.44914 8.30761 9.43209 8.2799 9.39798 8.26238C9.36388 8.24487 9.3044 8.23147 9.21953 8.22188L8.78171 8.18975C8.55804 8.16843 8.39267 8.11558 8.2856 8.03152C8.1793 7.9467 8.12617 7.82929 8.12617 7.67944V7.677C8.12617 7.55655 8.16266 7.4533 8.23562 7.36771C8.30939 7.28122 8.41448 7.21497 8.55089 7.16898C8.68733 7.12299 8.84992 7.1 9.03869 7.1C9.22825 7.1 9.39045 7.12178 9.52529 7.16548C9.66091 7.20827 9.76798 7.2701 9.84651 7.35111C9.92503 7.43198 9.97381 7.52914 9.99284 7.64259L9.99641 7.66162H9.42773L9.42534 7.65203C9.41662 7.61868 9.39639 7.59142 9.36467 7.56995C9.33374 7.54771 9.2917 7.53111 9.23856 7.52C9.18542 7.50812 9.12156 7.50218 9.04702 7.50218C8.97325 7.50218 8.91217 7.50766 8.86379 7.51878C8.81541 7.52914 8.77892 7.54452 8.75435 7.56523C8.72975 7.58502 8.71746 7.60878 8.71746 7.63665V7.63771C8.71746 7.67579 8.73571 7.70441 8.77219 7.72345C8.80947 7.74249 8.87093 7.75634 8.95659 7.76502L9.40274 7.79837C9.5463 7.81269 9.66527 7.83995 9.75965 7.88046C9.85404 7.9202 9.92424 7.97487 9.97023 8.04462C10.017 8.1136 10.0404 8.19858 10.0404 8.29924V8.30046C10.0404 8.42411 10.0032 8.53132 9.9286 8.62162C9.85404 8.71132 9.74657 8.7803 9.60618 8.82873C9.4658 8.87624 9.29646 8.9 9.09817 8.9Z" fill="white"/>
<path d="M11.0144 8.9V7.56278H10.3408V7.1H12.3117V7.56278H11.6394V8.9H11.0144Z" fill="white"/>
</svg>
