<svg width="16" height="16" viewBox="0 0 16 16" fill="none" xmlns="http://www.w3.org/2000/svg">
<rect x="2.5" y="2.5" width="11" height="11" rx="2.5" stroke="#FF2D20" stroke-linecap="round"/>
<path fill-rule="evenodd" clip-rule="evenodd" d="M10.911 6.35736C10.9132 6.36536 10.9143 6.3736 10.9143 6.38189V7.66977C10.9143 7.6863 10.9099 7.70254 10.9016 7.71684C10.8933 7.73115 10.8814 7.74301 10.8671 7.75123L9.78615 8.37358V9.60712C9.78615 9.64069 9.76831 9.67167 9.7392 9.68858L7.48282 10.9875C7.47765 10.9904 7.47202 10.9923 7.46639 10.9943C7.46427 10.995 7.46228 10.9963 7.46005 10.9969C7.44427 11.001 7.4277 11.001 7.41192 10.9969C7.40934 10.9962 7.40699 10.9948 7.40453 10.9938C7.39936 10.992 7.39396 10.9903 7.38903 10.9875L5.13312 9.68858C5.11879 9.68034 5.10689 9.66848 5.0986 9.65418C5.09032 9.63988 5.08595 9.62364 5.08594 9.60712V5.74346C5.08594 5.73501 5.08711 5.7268 5.08922 5.71881C5.08993 5.71611 5.09157 5.71365 5.09251 5.71095C5.09427 5.70602 5.09591 5.70097 5.0985 5.6964C5.10026 5.69334 5.10284 5.69088 5.10495 5.68806C5.10765 5.68431 5.11012 5.68043 5.11329 5.67715C5.11599 5.67445 5.11951 5.67245 5.12256 5.6701C5.12596 5.66729 5.12902 5.66423 5.13289 5.662L6.26102 5.01254C6.2753 5.00433 6.29149 5 6.30797 5C6.32445 5 6.34064 5.00433 6.35492 5.01254L7.48294 5.662H7.48317C7.48693 5.66435 7.4901 5.66729 7.4935 5.66998C7.49655 5.67233 7.49996 5.67445 7.50266 5.67703C7.50594 5.68043 7.50829 5.68431 7.51111 5.68806C7.5131 5.69088 7.5158 5.69334 7.51745 5.6964C7.52015 5.70109 7.52167 5.70602 7.52355 5.71095C7.52449 5.71365 7.52613 5.71611 7.52684 5.71893C7.529 5.72693 7.5301 5.73518 7.53012 5.74346V8.15666L8.47009 7.61543V6.38177C8.47009 6.37356 8.47127 6.36522 8.47338 6.35736C8.4742 6.35454 8.47573 6.35208 8.47667 6.34938C8.47855 6.34445 8.48019 6.3394 8.48277 6.33482C8.48453 6.33177 8.48711 6.3293 8.48911 6.32649C8.49193 6.32273 8.49428 6.31886 8.49756 6.31557C8.50026 6.31287 8.50367 6.31087 8.50672 6.30853C8.51024 6.30571 8.51329 6.30266 8.51705 6.30043L9.64529 5.65097C9.65957 5.64274 9.67577 5.63841 9.69225 5.63841C9.70873 5.63841 9.72492 5.64274 9.7392 5.65097L10.8672 6.30043C10.8712 6.30278 10.8743 6.30571 10.8778 6.30841C10.8807 6.31076 10.8841 6.31287 10.8868 6.31545C10.8901 6.31886 10.8924 6.32273 10.8953 6.32649C10.8974 6.3293 10.9 6.33177 10.9016 6.33482C10.9043 6.3394 10.9058 6.34445 10.9077 6.34938C10.9088 6.35208 10.9103 6.35454 10.911 6.35736ZM10.7262 7.61543V6.54446L10.3315 6.77171L9.78615 7.08569V8.15666L10.7264 7.61543H10.7262ZM9.59823 9.55277V8.4811L9.0618 8.78746L7.53001 9.6617V10.7435L9.59823 9.55277ZM5.27398 5.90603V9.55277L7.34196 10.7433V9.66181L6.26161 9.05039L6.26125 9.05015L6.26079 9.04992C6.25715 9.0478 6.25409 9.04475 6.25069 9.04217C6.24776 9.03982 6.24435 9.03794 6.24177 9.03536L6.24153 9.03501C6.23848 9.03208 6.23637 9.02844 6.23379 9.02515C6.23144 9.02198 6.22862 9.01928 6.22675 9.01599L6.22663 9.01564C6.22452 9.01212 6.22322 9.00789 6.2217 9.0039C6.22017 9.00038 6.21818 8.9971 6.21724 8.99334C6.21606 8.98888 6.21583 8.98407 6.21536 8.97949C6.21489 8.97597 6.21395 8.97245 6.21395 8.96893V8.96869V6.44727L5.66872 6.13316L5.27398 5.90603ZM6.30809 5.20246L5.36823 5.74346L6.30785 6.28446L7.24759 5.74335L6.30785 5.20246H6.30809ZM6.79686 8.57876L7.34208 8.26489V5.90603L6.94734 6.13328L6.40199 6.44727V8.80612L6.79686 8.57876ZM9.69225 5.84089L8.75251 6.38189L9.69225 6.92289L10.6319 6.38177L9.69225 5.84089ZM9.59823 7.08569L9.05288 6.77171L8.65814 6.54446V7.61543L9.20336 7.9293L9.59823 8.15666V7.08569ZM7.43587 9.49913L8.81425 8.71222L9.50327 8.319L8.56423 7.77835L7.48305 8.40081L6.49766 8.9681L7.43587 9.49913Z" fill="#FF2D20"/>
</svg>
