<svg width="16" height="16" viewBox="0 0 16 16" fill="none" xmlns="http://www.w3.org/2000/svg">
<rect x="2.5" y="2.5" width="11" height="11" rx="2.5" stroke="#65ADF1"/>
<mask id="mask0_129_821" style="mask-type:luminance" maskUnits="userSpaceOnUse" x="5" y="5" width="6" height="6">
<path d="M11 6.5C11 5.67213 10.3279 5 9.5 5H6.5C5.67213 5 5 5.67213 5 6.5V9.5C5 10.3279 5.67213 11 6.5 11H9.5C10.3279 11 11 10.3279 11 9.5V6.5Z" fill="white"/>
</mask>
<g mask="url(#mask0_129_821)">
<path fill-rule="evenodd" clip-rule="evenodd" d="M11 5H5V11H11V5ZM9.93945 7.99918V8.00563C9.93945 8.00715 9.93834 8.00838 9.93682 8.0085C9.74135 8.02684 9.5883 8.18568 9.5883 8.3859V9.18834C9.5883 9.24436 9.57652 9.2985 9.55525 9.34789C9.49461 9.48893 9.35697 9.59146 9.19689 9.59146H8.79143L8.78861 9.58795L7.21139 7.61141V9.59146H6.80311C6.58695 9.59146 6.4117 9.41621 6.4117 9.20006V8.3859C6.4117 8.18568 6.25871 8.02684 6.06318 8.0085C6.06172 8.00838 6.06055 8.00715 6.06055 8.00563V7.99918C6.06055 7.99771 6.06166 7.99648 6.06318 7.99631C6.25795 7.97732 6.41018 7.81455 6.41018 7.6148V6.79994C6.41018 6.74551 6.42131 6.69365 6.44141 6.64654C6.50105 6.50662 6.63986 6.40854 6.80158 6.40854H7.20975L7.21139 6.41059L8.78861 8.38719V6.40854H9.19842C9.41457 6.40854 9.58982 6.58379 9.58982 6.79994V7.6148C9.58982 7.81455 9.74205 7.97732 9.93682 7.99631C9.93834 7.99648 9.93945 7.99771 9.93945 7.99918Z" fill="#65ADF1"/>
</g>
</svg>
