<svg width="16" height="16" viewBox="0 0 16 16" fill="none" xmlns="http://www.w3.org/2000/svg">
<rect x="2.5" y="2.5" width="11" height="11" rx="2.5" stroke="#E0234E"/>
<path fill-rule="evenodd" clip-rule="evenodd" d="M8.53287 5.01176C8.48948 5.01176 8.4492 5.02106 8.41201 5.03346C8.49103 5.08614 8.53442 5.15587 8.55611 5.23489C8.55767 5.24574 8.56076 5.25349 8.56231 5.26433C8.56387 5.27363 8.56541 5.28293 8.56541 5.29223C8.57161 5.42858 8.52977 5.44563 8.50033 5.5262C8.45539 5.63002 8.46779 5.74158 8.52202 5.83146C8.52667 5.8423 8.53287 5.8547 8.54062 5.86554C8.48173 5.47352 8.80868 5.41464 8.86911 5.29223C8.87376 5.18531 8.78544 5.11403 8.71571 5.06445C8.64908 5.02416 8.58865 5.01176 8.53287 5.01176ZM9.02561 5.10009C9.01941 5.13573 9.02406 5.12643 9.02252 5.14502C9.02097 5.15742 9.02097 5.17291 9.01942 5.18531C9.01632 5.19771 9.01322 5.2101 9.00857 5.2225C9.00548 5.23489 9.00083 5.24729 8.99618 5.25969C8.98998 5.27208 8.98533 5.28293 8.97913 5.29532C8.97448 5.30153 8.97139 5.30772 8.96674 5.31392C8.96364 5.31857 8.96054 5.32322 8.95744 5.32786C8.94969 5.33871 8.94194 5.34956 8.9342 5.35885C8.9249 5.36815 8.91715 5.379 8.90631 5.38675V5.3883C8.89701 5.39605 8.88771 5.40534 8.87686 5.41309C8.84433 5.43788 8.80714 5.45648 8.77305 5.47972C8.7622 5.48747 8.75135 5.49366 8.74206 5.50296C8.73121 5.51071 8.72191 5.51846 8.71262 5.52775C8.70177 5.53705 8.69402 5.54635 8.68473 5.55719C8.67698 5.56649 8.66768 5.57734 8.66148 5.58818C8.65374 5.59903 8.64599 5.60988 8.63979 5.62072C8.63359 5.63312 8.62894 5.64397 8.62275 5.65636C8.6181 5.66876 8.61345 5.67961 8.61035 5.692C8.6057 5.70595 8.6026 5.71834 8.5995 5.73074C8.59795 5.73694 8.59795 5.74468 8.59641 5.75088C8.59485 5.75708 8.59485 5.76328 8.59331 5.76948C8.59331 5.78187 8.59176 5.79582 8.59176 5.80821C8.59176 5.81751 8.59176 5.82681 8.59331 5.83611C8.59331 5.8485 8.59486 5.8609 8.59796 5.87484C8.59951 5.88724 8.60261 5.89964 8.60571 5.91203C8.61035 5.92443 8.61345 5.93682 8.6181 5.94922C8.6212 5.95697 8.62585 5.96471 8.62895 5.97091L8.27256 5.83301C8.21213 5.81596 8.15325 5.80047 8.09282 5.78652C8.06028 5.77877 8.02774 5.77103 7.9952 5.76328C7.90223 5.74468 7.80771 5.73074 7.71319 5.72144C7.71009 5.72144 7.70854 5.71989 7.70544 5.71989C7.61247 5.71059 7.52105 5.70595 7.42808 5.70595C7.3599 5.70595 7.29172 5.70904 7.22509 5.71369C7.13057 5.71989 7.03605 5.73229 6.94153 5.74778C6.91829 5.75088 6.89505 5.75553 6.8718 5.76018C6.82377 5.76947 6.77728 5.78032 6.73235 5.79117C6.70911 5.79737 6.68586 5.80356 6.66262 5.80976C6.63938 5.81906 6.61769 5.82991 6.59599 5.8392C6.57895 5.84695 6.5619 5.8547 6.54486 5.86245C6.54176 5.864 6.53866 5.864 6.53711 5.86554C6.52162 5.87329 6.50767 5.87949 6.49372 5.88724C6.48908 5.88879 6.48598 5.89033 6.48288 5.89188C6.46583 5.89963 6.44879 5.90893 6.43484 5.91668C6.424 5.92132 6.41315 5.92752 6.40385 5.93217C6.3992 5.93527 6.39301 5.93837 6.38991 5.93992C6.37596 5.94767 6.36202 5.95541 6.34962 5.96316C6.33567 5.97091 6.32328 5.97866 6.31243 5.9864C6.30159 5.99415 6.29074 6.00035 6.28144 6.0081C6.27989 6.00965 6.27834 6.00965 6.27679 6.01119C6.2675 6.01739 6.25665 6.02514 6.24735 6.03289C6.24735 6.03289 6.2458 6.03444 6.24426 6.03598C6.23651 6.04218 6.22876 6.04838 6.22101 6.05458C6.21792 6.05613 6.21481 6.05923 6.21172 6.06078C6.20397 6.06698 6.19622 6.07472 6.18847 6.08092C6.18692 6.08402 6.18383 6.08557 6.18227 6.08712C6.17298 6.09642 6.16368 6.10417 6.15438 6.11346C6.15283 6.11346 6.15283 6.11502 6.15129 6.11656C6.14199 6.12431 6.13269 6.1336 6.12339 6.1429C6.12184 6.14445 6.12184 6.146 6.1203 6.146C6.11255 6.15375 6.1048 6.16149 6.09705 6.17079C6.09396 6.17389 6.08931 6.17699 6.08621 6.18009C6.07846 6.18938 6.06916 6.19868 6.05987 6.20798C6.05831 6.21108 6.05522 6.21263 6.05367 6.21573C6.04127 6.22812 6.03042 6.24052 6.01803 6.25291C6.01648 6.25447 6.01493 6.25601 6.01338 6.25756C5.98859 6.2839 5.96224 6.31025 5.93435 6.33349C5.90646 6.35828 5.87702 6.38152 5.84758 6.40167C5.81659 6.42336 5.78715 6.44195 5.75461 6.46055C5.72362 6.47759 5.69108 6.49309 5.65699 6.50703C5.62445 6.52098 5.59036 6.53338 5.55627 6.54422C5.49119 6.55817 5.42457 6.58451 5.36723 6.58916C5.35484 6.58916 5.34089 6.59225 5.3285 6.59381C5.31455 6.5969 5.30215 6.60001 5.28976 6.6031C5.27736 6.60775 5.26497 6.6124 5.25257 6.61705C5.24017 6.6217 5.22778 6.6279 5.21538 6.63409C5.20454 6.64184 5.19214 6.64804 5.18129 6.65579C5.17045 6.66353 5.1596 6.67283 5.1503 6.68213C5.13946 6.68988 5.12861 6.70072 5.11931 6.71002C5.11001 6.72087 5.10072 6.73016 5.09297 6.74101C5.08522 6.75341 5.07593 6.76425 5.06973 6.77665C5.06198 6.7875 5.05423 6.79989 5.04803 6.81229C5.04183 6.82623 5.03564 6.83863 5.03099 6.85257C5.02634 6.86497 5.02169 6.87892 5.01704 6.89286C5.01395 6.90526 5.01084 6.91765 5.0093 6.93005C5.0093 6.9316 5.00775 6.93315 5.00775 6.9347C5.00465 6.94864 5.00465 6.96724 5.0031 6.97654C5.00154 6.98738 5 6.99668 5 7.00753C5 7.01373 5 7.02147 5.00155 7.02767C5.0031 7.03852 5.00465 7.04781 5.00775 7.05711C5.01085 7.06641 5.01395 7.0757 5.0186 7.085V7.08655C5.02325 7.09585 5.02945 7.10515 5.03564 7.11444C5.04184 7.12374 5.04804 7.13304 5.05579 7.14234C5.06353 7.15008 5.07283 7.15938 5.08213 7.16713C5.09143 7.17642 5.10072 7.18417 5.11157 7.19192C5.14876 7.22446 5.15805 7.23531 5.20609 7.2601C5.21384 7.26475 5.22158 7.26785 5.23088 7.27249C5.23243 7.27249 5.23398 7.27405 5.23553 7.27405C5.23553 7.27714 5.23553 7.27869 5.23708 7.28179C5.23863 7.29419 5.24173 7.30659 5.24483 7.31898C5.24793 7.33293 5.25258 7.34532 5.25723 7.35617C5.26188 7.36547 5.26497 7.37476 5.26962 7.38406C5.27117 7.38716 5.27272 7.39026 5.27427 7.39181C5.28047 7.4042 5.28667 7.41505 5.29286 7.4259C5.30061 7.43674 5.30836 7.44759 5.31611 7.45844C5.32385 7.46774 5.33315 7.47858 5.34245 7.48788C5.35175 7.49718 5.36104 7.50492 5.37189 7.51422C5.37189 7.51422 5.37344 7.51577 5.37499 7.51577C5.38428 7.52352 5.39358 7.53127 5.40288 7.53747C5.41372 7.54521 5.42457 7.55141 5.43697 7.55761C5.44781 7.56381 5.46021 7.57001 5.47261 7.57466C5.4819 7.5793 5.49275 7.5824 5.5036 7.5855C5.50515 7.58706 5.50669 7.58706 5.5098 7.5886C5.516 7.59015 5.52374 7.5917 5.52994 7.59325C5.52529 7.67692 5.52374 7.75595 5.53614 7.78384C5.55009 7.81483 5.61826 7.72031 5.68644 7.61184C5.67715 7.71876 5.67095 7.84427 5.68644 7.88146C5.70349 7.92019 5.79646 7.79933 5.87703 7.66607C6.97563 7.41196 7.97817 8.17121 8.08353 9.24347C8.06339 9.07613 7.8573 8.98316 7.76279 9.0064C7.7163 9.12106 7.63727 9.26827 7.51022 9.35969C7.52106 9.25742 7.51642 9.15205 7.49472 9.04979C7.46063 9.19234 7.394 9.3256 7.30258 9.44026C7.15538 9.45111 7.00817 9.37983 6.9307 9.27292C6.9245 9.26827 6.92295 9.25897 6.9183 9.25277C6.91365 9.24192 6.909 9.23108 6.90591 9.22023C6.90126 9.20939 6.89816 9.19854 6.89661 9.18769C6.89506 9.17685 6.89506 9.166 6.89506 9.1536C6.89506 9.14585 6.89506 9.13811 6.89506 9.13036C6.89661 9.11951 6.89971 9.10867 6.9028 9.09782C6.9059 9.08697 6.909 9.07613 6.91365 9.06528C6.91985 9.05443 6.9245 9.04359 6.93225 9.03274C6.95859 8.95836 6.95859 8.89793 6.91055 8.8623C6.90125 8.85609 6.89196 8.85145 6.88111 8.8468C6.87491 8.84525 6.86717 8.84215 6.86097 8.8406C6.85632 8.83905 6.85322 8.8375 6.84857 8.83595C6.83772 8.83285 6.82688 8.82975 6.81603 8.8282C6.80518 8.82511 6.79434 8.82355 6.78349 8.82355C6.77265 8.822 6.76025 8.82046 6.7494 8.82046C6.74166 8.82046 6.73391 8.82201 6.72616 8.82201C6.71376 8.82201 6.70292 8.82356 6.69207 8.82666C6.68122 8.82821 6.67038 8.82975 6.65953 8.83286C6.64869 8.83595 6.63784 8.83906 6.62699 8.84371C6.61615 8.84835 6.60685 8.853 6.596 8.85765C6.5867 8.8623 6.57741 8.8685 6.56656 8.87315C6.20552 9.10867 6.42091 9.6603 6.66728 9.8199C6.57431 9.83694 6.47979 9.85708 6.45345 9.87723C6.45189 9.87878 6.45035 9.88032 6.45035 9.88032C6.51698 9.92061 6.58671 9.9547 6.65953 9.98414C6.7587 10.0167 6.86407 10.0461 6.91055 10.0585V10.0601C7.03916 10.0864 7.16932 10.0957 7.30103 10.088C7.98746 10.0399 8.54994 9.51774 8.6522 8.82976C8.6553 8.84371 8.6584 8.8561 8.6615 8.87005C8.66615 8.89794 8.67235 8.92738 8.67545 8.95682V8.95837C8.67854 8.97232 8.68009 8.98626 8.68165 8.99866V9.00486C8.6832 9.01881 8.68474 9.03275 8.68474 9.04515C8.68629 9.06219 8.68784 9.07924 8.68784 9.09628V9.12107C8.68784 9.12882 8.68939 9.13812 8.68939 9.14587C8.68939 9.15516 8.68784 9.16446 8.68784 9.17376V9.19545C8.68784 9.2063 8.68629 9.21559 8.68629 9.22644C8.68629 9.23264 8.68629 9.23884 8.68473 9.24658C8.68473 9.25743 8.68318 9.26828 8.68318 9.28067C8.68163 9.28532 8.68163 9.28997 8.68163 9.29462C8.68008 9.30701 8.67853 9.31786 8.67698 9.33026C8.67698 9.33491 8.67698 9.33955 8.67543 9.3442C8.67387 9.3597 8.67078 9.37364 8.66923 9.38914V9.39069V9.39224C8.66613 9.40619 8.66303 9.42168 8.65993 9.43563V9.44028C8.65683 9.45422 8.65373 9.46817 8.65063 9.48211C8.65063 9.48367 8.64908 9.48676 8.64908 9.48831C8.64599 9.50226 8.64288 9.51621 8.63824 9.53015V9.5348C8.63359 9.5503 8.62894 9.56424 8.62584 9.57819C8.62429 9.57974 8.62429 9.58128 8.62429 9.58128C8.61964 9.59678 8.61499 9.61227 8.61034 9.62777C8.60414 9.64326 8.5995 9.65721 8.5933 9.6727C8.5871 9.6882 8.58245 9.70369 8.57625 9.71764C8.57005 9.73314 8.56386 9.74708 8.55766 9.76258H8.55611C8.54991 9.77652 8.54371 9.79202 8.53596 9.80596C8.53441 9.81061 8.53287 9.81371 8.53131 9.81681C8.52976 9.81836 8.52976 9.81991 8.52822 9.82146C8.4275 10.0244 8.27875 10.2026 8.09281 10.3421C8.08041 10.3498 8.06801 10.3591 8.05562 10.3684C8.05252 10.3715 8.04787 10.3731 8.04477 10.3762C8.03392 10.3839 8.02308 10.3917 8.01068 10.3994L8.01533 10.4087H8.01688C8.03857 10.4056 8.06027 10.4025 8.08196 10.3994H8.08351C8.1238 10.3932 8.16409 10.3855 8.20437 10.3777C8.21522 10.3762 8.22762 10.3731 8.23846 10.37C8.24621 10.3684 8.25241 10.3669 8.26016 10.3653C8.271 10.3638 8.28185 10.3607 8.2927 10.3591C8.30199 10.356 8.31129 10.3545 8.32059 10.3514C8.47554 10.3142 8.62584 10.2631 8.76994 10.2026C8.52357 10.5389 8.19353 10.81 7.8077 10.9882C7.98589 10.9758 8.16409 10.9464 8.33608 10.8968C8.96053 10.7124 9.48582 10.2925 9.80037 9.72693C9.73684 10.0849 9.59428 10.4258 9.38355 10.7233C9.53385 10.6241 9.67176 10.5094 9.79727 10.3793C10.1444 10.0167 10.3721 9.55649 10.4496 9.06219C10.5023 9.30702 10.5178 9.55959 10.4945 9.80906C11.6133 8.2487 10.5875 6.63102 10.1583 6.2049C10.1568 6.2018 10.1552 6.20025 10.1552 6.19715C10.1537 6.1987 10.1537 6.1987 10.1537 6.20025C10.1537 6.1987 10.1537 6.1987 10.1521 6.19715C10.1521 6.21575 10.1506 6.23434 10.149 6.25293C10.1444 6.28857 10.1397 6.32266 10.1335 6.35675C10.1258 6.39084 10.1165 6.42493 10.1072 6.45902C10.0963 6.49156 10.0839 6.52565 10.07 6.55819C10.056 6.58918 10.0405 6.62172 10.0235 6.65271C10.0065 6.68215 9.98786 6.71314 9.96771 6.74103C9.94757 6.77047 9.92588 6.79836 9.90418 6.8247C9.88094 6.85259 9.85615 6.87739 9.83136 6.90218C9.81586 6.91612 9.80192 6.92852 9.78642 6.94092C9.77402 6.95176 9.76318 6.96106 9.75078 6.97191C9.72289 6.9936 9.695 7.01374 9.66401 7.03234C9.63457 7.05093 9.60358 7.06953 9.57259 7.08502C9.54005 7.10052 9.50751 7.11446 9.47497 7.12841C9.44243 7.1408 9.40834 7.15165 9.37425 7.16095C9.34016 7.17024 9.30452 7.17799 9.27043 7.18419C9.2348 7.19039 9.19916 7.19349 9.16507 7.19659C9.14028 7.19814 9.11548 7.19968 9.09069 7.19968C9.05505 7.19968 9.01941 7.19659 8.98533 7.19348C8.94969 7.19039 8.91405 7.18573 8.87996 7.17799C8.84432 7.17179 8.81023 7.16249 8.77614 7.15165H8.77459C8.80868 7.14855 8.84277 7.14544 8.87686 7.13925C8.9125 7.13305 8.94659 7.1253 8.98067 7.11601C9.01476 7.10671 9.04885 7.09586 9.08139 7.08347C9.11548 7.07107 9.14802 7.05558 9.17901 7.04008C9.21155 7.02458 9.24099 7.00754 9.27198 6.98895C9.30142 6.9688 9.33086 6.94866 9.35875 6.92697C9.38665 6.90527 9.41299 6.88203 9.43778 6.85724C9.46412 6.834 9.48736 6.80765 9.51061 6.78131C9.53385 6.75342 9.55554 6.72553 9.57569 6.69764C9.57878 6.69299 9.58189 6.68679 9.58498 6.68214C9.60048 6.65735 9.61597 6.63256 9.62992 6.60777C9.64696 6.57678 9.66246 6.54579 9.6764 6.51325C9.69035 6.48071 9.70275 6.44817 9.71359 6.41408C9.72444 6.38154 9.73219 6.34745 9.73993 6.31336C9.74614 6.27772 9.75233 6.24363 9.75543 6.20954C9.75853 6.17391 9.76163 6.13827 9.76163 6.10418C9.76163 6.07938 9.76008 6.05459 9.75853 6.0298C9.75544 5.99416 9.75079 5.96007 9.74614 5.92598C9.73994 5.89034 9.73219 5.85626 9.72289 5.82217C9.71205 5.78963 9.7012 5.75554 9.68881 5.723C9.67641 5.69046 9.66091 5.65792 9.64542 5.62693C9.62837 5.59594 9.61133 5.56495 9.59274 5.53551C9.57259 5.50607 9.55245 5.47818 9.53076 5.45028C9.50751 5.42394 9.48427 5.3976 9.45948 5.37126C9.44708 5.35886 9.43314 5.34492 9.41919 5.33252C9.34946 5.27829 9.27664 5.22715 9.20381 5.18067C9.19296 5.17447 9.18367 5.16982 9.17282 5.16517C9.12168 5.13263 9.07365 5.11558 9.02561 5.10009Z" fill="#E0234E"/>
</svg>
