<svg width="16" height="16" viewBox="0 0 16 16" fill="none" xmlns="http://www.w3.org/2000/svg">
<rect x="2.5" y="2.5" width="11" height="11" rx="2.5" stroke="white"/>
<path d="M4.01367 8.8V7.2H4.47722L5.55051 8.27996L5.0827 8.05045H5.32441V7.2H5.85439V8.8H5.39424L4.31868 7.70556L4.78663 7.93847H4.54379V8.8H4.01367Z" fill="white"/>
<path d="M6.05469 8.8V7.2H7.58374V7.58919H6.61131V7.82203H7.51499V8.16798H6.61131V8.4108H7.58374V8.8H6.05469Z" fill="white"/>
<path d="M7.78418 8.8L8.46027 8.00788L7.78418 7.2H8.57199L8.91864 7.6555H8.93725L9.27388 7.2H10.0345L9.35552 7.99356L10.033 8.8H9.25239L8.89858 8.34449H8.88139L8.53904 8.8H7.78418Z" fill="white"/>
<path d="M10.8331 8.8V7.61136H10.2344V7.2H11.9863V7.61136H11.3886V8.8H10.8331Z" fill="white"/>
</svg>
