<svg width="16" height="16" viewBox="0 0 16 16" fill="none" xmlns="http://www.w3.org/2000/svg">
<rect x="2.5" y="2.5" width="11" height="11" rx="2.5" stroke="#00DC82"/>
<path d="M8.36 10H10.58C10.6508 10 10.7186 9.97512 10.78 9.94C10.8414 9.90488 10.9046 9.86082 10.94 9.8C10.9754 9.73918 11 9.6702 11 9.59998C11 9.52976 10.9755 9.4608 10.94 9.40002L9.44 6.82C9.4046 6.7592 9.36134 6.7151 9.3 6.68C9.23866 6.6449 9.15084 6.62 9.08 6.62C9.00916 6.62 8.94134 6.6449 8.88 6.68C8.81866 6.7151 8.7754 6.7592 8.74 6.82L8.36 7.48L7.6 6.19995C7.56456 6.13916 7.52136 6.0751 7.46 6.04C7.39864 6.0049 7.33084 6 7.26 6C7.18916 6 7.12136 6.0049 7.06 6.04C6.99865 6.0751 6.93543 6.13916 6.9 6.19995L5.04 9.40002C5.00454 9.4608 5.00003 9.52976 5 9.59998C4.99997 9.6702 5.00459 9.73918 5.04 9.8C5.07541 9.8608 5.13865 9.90488 5.2 9.94C5.26135 9.97512 5.32916 10 5.4 10H6.8C7.35474 10 7.7585 9.75116 8.04 9.28L8.72 8.1L9.08 7.48L10.18 9.36H8.72L8.36 10ZM6.78 9.36H5.8L7.26 6.84L8 8.1L7.50982 8.9545C7.32288 9.2602 7.10976 9.36 6.78 9.36Z" fill="#00DC82"/>
</svg>
