<svg width="16" height="16" viewBox="0 0 16 16" fill="none" xmlns="http://www.w3.org/2000/svg">
<rect x="2.5" y="2.5" width="11" height="11" rx="2.5" stroke="#03EAB3"/>
<path d="M8.87993 5H6.29308C6.11226 5 5.96582 5.14663 5.96582 5.32744V9.3989C5.96582 9.57972 6.11226 9.72635 6.29308 9.72635H8.00034V9.11237H6.57943V5.61398H8.87974C9.02625 5.61398 9.16676 5.67217 9.27037 5.77574C9.37399 5.87932 9.43222 6.01981 9.43227 6.16632V8.56022C9.43222 8.70672 9.37399 8.84721 9.27037 8.95079C9.16676 9.05437 9.02625 9.11256 8.87974 9.11256H8.38867C8.37791 9.11256 8.36726 9.11468 8.35732 9.1188C8.34738 9.12292 8.33836 9.12897 8.33076 9.13658C8.32316 9.1442 8.31713 9.15324 8.31303 9.16319C8.30893 9.17314 8.30683 9.1838 8.30686 9.19456V9.64472C8.30686 9.68992 8.34347 9.72653 8.38867 9.72653H8.87993C9.18923 9.72648 9.48583 9.60358 9.70452 9.38486C9.92321 9.16614 10.0461 8.86951 10.0461 8.56022V6.16632C10.0461 5.85702 9.92321 5.56039 9.70452 5.34167C9.48583 5.12295 9.18923 5.00005 8.87993 5Z" fill="white"/>
<path d="M7.47345 10.9315L6.21019 9.96208C6.13057 9.90097 6.06607 9.82238 6.02166 9.73237C5.97726 9.64237 5.95414 9.54336 5.9541 9.44299V5.32782C5.9541 5.05679 6.26548 4.90325 6.48085 5.06837L7.74411 6.03781C7.82375 6.09894 7.88827 6.17756 7.93268 6.2676C7.97708 6.35764 8.00019 6.45669 8.0002 6.55709V10.6721C8.0002 10.9435 7.68882 11.097 7.47345 10.9317V10.9315Z" fill="#03EAB3"/>
</svg>
