<svg width="16" height="16" viewBox="0 0 16 16" fill="none" xmlns="http://www.w3.org/2000/svg">
<rect x="2.5" y="2.5" width="11" height="11" rx="2.5" stroke="#DD3A0A"/>
<path fill-rule="evenodd" clip-rule="evenodd" d="M6.1179 7.50645C6.12606 7.51261 6.14023 7.51661 6.12606 7.52877C6.1159 7.54293 6.10374 7.55509 6.09566 7.57133C6.08758 7.58557 6.0815 7.58958 6.06934 7.57949C6.0855 7.55309 6.10166 7.52869 6.11783 7.50637L6.1179 7.50645ZM10.1893 9.63216C10.1893 9.63816 10.1913 9.64216 10.1913 9.64832C10.1954 9.64024 10.1954 9.63616 10.1974 9.63216H10.1893ZM9.77611 10.4414L9.42358 8.48613C9.41758 8.48421 9.40949 8.48021 9.39525 8.47613C9.39933 8.48421 9.40141 8.49029 9.40341 8.49637C9.41342 8.49437 9.41758 8.49437 9.42158 8.49237C9.42158 8.49037 9.42158 8.48837 9.42366 8.48621L9.77618 10.4416L9.77611 10.4414ZM9.4115 8.04601C9.40949 8.05202 9.40949 8.05818 9.40949 8.06426C9.40949 8.0581 9.40949 8.05194 9.41165 8.04594L9.4115 8.04601ZM9.4135 8.0865C9.4115 8.0865 9.4115 8.0865 9.40949 8.08435V8.08635C9.41165 8.08835 9.41165 8.08835 9.41365 8.08635L9.4135 8.0865ZM9.40949 8.10267V8.08843C9.40357 8.09043 9.39749 8.09043 9.38933 8.0925C9.39949 8.09635 9.40965 8.09851 9.40965 8.10251L9.40949 8.10267Z" fill="#DD3A0A"/>
<path fill-rule="evenodd" clip-rule="evenodd" d="M10.9874 7.6099C10.9834 7.53077 10.9814 7.45164 10.9733 7.3726C10.9591 7.26507 10.945 7.15554 10.9206 7.05009C10.9024 6.96288 10.8721 6.87967 10.8417 6.79654C10.8032 6.69918 10.7647 6.59981 10.716 6.50652C10.6371 6.35642 10.5338 6.22249 10.4386 6.08256C10.3756 5.99327 10.2946 5.92031 10.2338 5.82902C10.1994 5.77629 10.1488 5.73173 10.0981 5.69124C10.0171 5.6262 9.93202 5.56732 9.84697 5.51059C9.78278 5.46558 9.71651 5.42361 9.64838 5.38482C9.59373 5.35426 9.535 5.32994 9.47827 5.30354C9.41347 5.27313 9.35066 5.23657 9.27776 5.22241C9.25945 5.21856 9.24328 5.2124 9.22504 5.20625C9.17847 5.19008 9.13391 5.17184 9.08726 5.1576C9.01645 5.13528 8.94756 5.10895 8.87459 5.09064C8.80393 5.07239 8.73096 5.06031 8.65799 5.05007C8.57702 5.03814 8.49405 5.03391 8.41292 5.02598C8.36114 5.01929 8.30912 5.01456 8.25698 5.01182C8.18 5.00781 8.10103 5.00781 8.02406 5.00581C7.98558 5.00373 7.94509 4.99966 7.9066 5.00173C7.84787 5.00373 7.78915 5.00982 7.73034 5.0179C7.67369 5.02406 7.61696 5.03406 7.56231 5.0423C7.49558 5.05038 7.42877 5.05446 7.36188 5.06262C7.29907 5.07078 7.23426 5.08294 7.17153 5.0931C7.14921 5.09718 7.12689 5.10526 7.10456 5.10926C7.05607 5.11942 7.00543 5.1235 6.95678 5.13974C6.8698 5.16622 6.78259 5.1967 6.69754 5.22903C6.61849 5.26151 6.54152 5.29599 6.46663 5.33656C6.38966 5.37905 6.31669 5.42969 6.2438 5.47849C6.17379 5.52534 6.10549 5.57471 6.03905 5.62651C5.9744 5.67731 5.91359 5.73404 5.85479 5.79084C5.82246 5.82317 5.79606 5.86181 5.76565 5.89829C5.71508 5.95717 5.66444 6.0139 5.61579 6.07479C5.57546 6.12559 5.53882 6.17824 5.50033 6.23104C5.4316 6.32417 5.37287 6.42362 5.31822 6.52307C5.2959 6.56363 5.27566 6.60419 5.25541 6.64468C5.22501 6.70549 5.1926 6.76437 5.16428 6.82726C5.14396 6.8699 5.12779 6.91654 5.11563 6.96319C5.08738 7.06263 5.05898 7.16408 5.03266 7.26337C5.00834 7.35266 5.00225 7.44595 5.00033 7.53724C4.99825 7.61836 5.00633 7.69749 5.01442 7.77862C5.01649 7.79894 5.00441 7.82326 5.02858 7.83943C5.0205 7.86175 5.02658 7.87406 5.03859 7.87791C5.02458 7.90023 5.04474 7.91455 5.03674 7.93487C5.03466 7.93887 5.0429 7.94695 5.04674 7.95303C5.04674 7.95919 5.04482 7.96727 5.04674 7.97335C5.0489 7.9916 5.05698 8.00984 5.05698 8.03016C5.05698 8.04432 5.06907 8.06056 5.07315 8.0748C5.07515 8.08081 5.07315 8.09097 5.06907 8.09505C5.0569 8.10921 5.05891 8.12137 5.07715 8.12953C5.08738 8.15585 5.08331 8.16801 5.0813 8.18033C5.08531 8.19849 5.07923 8.20458 5.0813 8.20865C5.09747 8.24114 5.10363 8.27762 5.10555 8.31411C5.10555 8.32226 5.10963 8.33042 5.11371 8.34051C5.11571 8.34051 5.11371 8.37899 5.11371 8.37899C5.12372 8.37299 5.13195 8.37099 5.14203 8.36691C5.14819 8.39323 5.1542 8.41771 5.16228 8.44003C5.17244 8.45619 5.17244 8.4642 5.16844 8.4662C5.17652 8.50268 5.18052 8.53717 5.19461 8.57165C5.19461 8.53316 5.19076 8.49468 5.1846 8.45812C5.21292 8.46828 5.23725 8.47836 5.25349 8.47836C5.25557 8.4722 5.25757 8.4642 5.25965 8.46012C5.24748 8.44804 5.23732 8.42979 5.22516 8.41763C5.22924 8.4338 5.22516 8.43995 5.22516 8.44611C5.21708 8.44195 5.20692 8.43787 5.19684 8.4338C5.20492 8.42379 5.213 8.41355 5.22516 8.40147C5.22516 8.38315 5.21516 8.36683 5.18668 8.36891C5.19884 8.36491 5.211 8.3589 5.22516 8.35475C5.24748 8.34266 5.22316 8.32034 5.22316 8.29194C5.22516 8.25753 5.20492 8.22305 5.19884 8.18649C5.18868 8.12976 5.19076 8.04455 5.18468 7.98775C5.17251 7.97759 5.16235 8.00391 5.16035 8.00599C5.16651 8.05464 5.17251 8.10328 5.17652 8.152C5.16443 8.11144 5.15627 8.0668 5.14619 8.01807C5.14411 8.03231 5.14211 8.03839 5.14211 8.04655C5.13211 8.05656 5.14011 8.06888 5.14619 8.08304C5.13203 8.07688 5.11579 8.07904 5.11579 8.07904V8.13584C5.09562 8.11552 5.08962 8.09936 5.07938 8.08504C5.07538 8.06888 5.07322 8.05271 5.06937 8.03655C5.07322 8.02631 5.06937 8.02023 5.06937 8.01423C5.067 7.998 5.06494 7.98173 5.06322 7.96543C5.06522 7.96343 5.06121 7.9331 5.06121 7.9331C5.07738 7.93502 5.08762 7.93695 5.0977 7.93695C5.07746 7.91078 5.09154 7.89446 5.09978 7.87822C5.10386 7.87006 5.11802 7.86821 5.1221 7.8599C5.13826 7.8295 5.16466 7.80525 5.16466 7.76661C5.16466 7.74837 5.17082 7.72812 5.17275 7.70981C5.17683 7.67532 5.18083 7.64084 5.18275 7.60636C5.18691 7.56171 5.18275 7.51707 5.19299 7.47451C5.20931 7.40369 5.22955 7.33265 5.25179 7.2616C5.26796 7.2108 5.28628 7.16231 5.30644 7.11151C5.33685 7.03238 5.36525 6.95326 5.40374 6.87829C5.45839 6.76868 5.52119 6.66323 5.582 6.55578C5.62049 6.48881 5.66097 6.42593 5.70361 6.36104C5.74402 6.29816 5.78443 6.23327 5.83116 6.17439C5.89529 6.09133 5.9672 6.01458 6.04591 5.94517C6.12696 5.8722 6.20393 5.79715 6.29098 5.73019C6.40416 5.64274 6.52474 5.56532 6.65136 5.49881C6.75473 5.44416 6.86203 5.40137 6.9694 5.3608C7.03829 5.33448 7.11319 5.32232 7.18415 5.3C7.26513 5.2736 7.34618 5.26151 7.43123 5.25943C7.48588 5.25735 7.5386 5.25127 7.59325 5.24519C7.6419 5.24134 7.69047 5.23719 7.74319 5.23111C7.73704 5.23919 7.73503 5.24327 7.73303 5.24727C7.71087 5.27975 7.68654 5.31223 7.66422 5.34464C7.64598 5.37104 7.62574 5.39944 7.60749 5.42577C7.57501 5.46849 7.54053 5.51105 7.5102 5.55569C7.46363 5.62266 7.42107 5.69162 7.37242 5.75851C7.32393 5.8234 7.27121 5.88428 7.22056 5.94709C7.15375 6.03438 7.09094 6.12359 7.02413 6.21079C6.96332 6.29392 6.89867 6.3732 6.83986 6.45633C6.78721 6.52922 6.74057 6.60643 6.68992 6.68132C6.61503 6.79293 6.54006 6.90238 6.46517 7.01399C6.40637 7.09894 6.34695 7.18346 6.2869 7.26753C6.28282 7.27369 6.27674 7.27554 6.27074 7.27961C6.25457 7.30594 6.25457 7.32018 6.24842 7.33234C6.23225 7.36274 6.21609 7.39315 6.19777 7.42163C6.18761 7.43779 6.17345 7.45195 6.16128 7.46819C6.15928 7.44387 6.19361 7.43171 6.17745 7.40123C6.16744 7.41755 6.15721 7.43171 6.14712 7.44795L6.1228 7.49644C6.13088 7.5026 6.14512 7.50668 6.13088 7.51876C6.12472 7.529 6.11872 7.54109 6.11264 7.55132C6.12141 7.54617 6.12901 7.53925 6.13496 7.531C6.13496 7.55332 6.1228 7.57149 6.11264 7.58973C6.10456 7.6059 6.08431 7.61821 6.07015 7.63029C6.07215 7.63237 6.08631 7.63845 6.08839 7.64045C6.10664 7.6343 6.11272 7.62429 6.11479 7.63029C6.12095 7.62221 6.12696 7.61613 6.12896 7.61005C6.13696 7.58973 6.14912 7.57357 6.16937 7.56541C6.17753 7.56133 6.18353 7.55525 6.18961 7.54924C6.25042 7.48628 6.31323 7.42547 6.36787 7.35851C6.453 7.25498 6.52998 7.14761 6.6111 7.04216C6.64543 6.99752 6.686 6.95287 6.7224 6.91023C6.72841 6.95687 6.7244 7.00144 6.7224 7.04416C6.71625 7.11913 6.71224 7.19425 6.70624 7.27122C6.70416 7.30163 6.70624 7.33203 6.70416 7.36251C6.70416 7.37059 6.698 7.37667 6.698 7.38483C6.698 7.40508 6.70416 7.4274 6.70416 7.44772C6.698 7.52277 6.68984 7.59573 6.68376 7.67078C6.68169 7.68695 6.68977 7.70326 6.69377 7.7175C6.68376 7.82696 6.70609 7.94264 6.68777 8.05825C6.70193 8.03593 6.70601 8.02177 6.70601 8.00761C6.70793 7.99545 6.70601 7.98328 6.70601 7.96912V7.9488C6.70793 7.91224 6.71601 7.87375 6.71201 7.83719C6.70793 7.79663 6.70793 7.75814 6.71609 7.71958C6.72017 7.70342 6.71409 7.6831 6.72425 7.66278V7.69318C6.72225 7.80864 6.72633 7.92432 6.71017 8.03993C6.70809 8.05009 6.71632 8.06841 6.694 8.06634C6.67568 8.10282 6.698 8.12922 6.67784 8.14946C6.67368 8.15354 6.68169 8.17179 6.68376 8.18395C6.67561 8.20835 6.67561 8.20835 6.68777 8.21035C6.68977 8.25499 6.69392 8.29548 6.69585 8.33812C6.72818 8.26115 6.71201 8.18187 6.72633 8.10274C6.72833 8.13522 6.73041 8.16771 6.72833 8.20204C6.72833 8.25491 6.72633 8.30556 6.72433 8.35829C6.72433 8.36845 6.72225 8.37861 6.72025 8.38877C6.71409 8.41725 6.71217 8.44557 6.70201 8.4719C6.69392 8.49222 6.698 8.5227 6.698 8.54694V8.62414C6.70609 8.65863 6.69593 8.67687 6.70201 8.69711C6.69585 8.71751 6.69392 8.72359 6.69585 8.72967L6.70201 8.76008C6.74257 8.756 6.72433 8.78648 6.74049 8.80264C6.72833 8.81896 6.73241 8.82496 6.73241 8.8332C6.73241 8.85144 6.73049 8.86768 6.72841 8.88592C6.72841 8.93257 6.72641 8.97921 6.72641 9.02386C6.72641 9.03001 6.72841 9.03594 6.72841 9.04202C6.72841 9.04618 6.72641 9.09898 6.72641 9.09898C6.73049 9.10498 6.72641 9.11106 6.72025 9.11714C6.71832 9.11714 6.71224 8.85952 6.71224 8.85952H6.68184C6.67784 8.98114 6.688 9.09067 6.66568 9.20435C6.64135 9.20628 6.63335 9.21036 6.60687 9.21036C6.54406 9.21036 6.48125 9.21036 6.41844 9.21236C6.34348 9.21236 6.27066 9.21436 6.19561 9.21436C6.15928 9.21436 6.1208 9.21851 6.08431 9.21851C6.03567 9.21851 5.98502 9.21236 5.93653 9.21236C5.86148 9.21236 5.78859 9.21851 5.71362 9.22052C5.65897 9.22252 5.60432 9.22252 5.54967 9.2246C5.51311 9.22652 5.47655 9.22844 5.44022 9.2326C5.42406 9.2346 5.40982 9.24068 5.38957 9.24676C5.38342 9.24676 5.36933 9.24476 5.35725 9.24676C5.33685 9.25084 5.31876 9.26293 5.29836 9.26708C5.26796 9.27324 5.25988 9.28125 5.26388 9.31173V9.33197C5.26188 9.33597 5.30852 9.32581 5.30852 9.32581C5.30437 9.32581 5.30236 9.33797 5.29621 9.34813C5.31253 9.34198 5.32261 9.33797 5.33277 9.33397C5.36317 9.34821 5.3895 9.34013 5.41374 9.34629C5.49271 9.36645 5.57369 9.37477 5.65466 9.38269C5.70739 9.38677 5.75803 9.38885 5.81068 9.39078C5.88557 9.39486 5.96054 9.39894 6.03544 9.39894C6.09825 9.39894 6.15905 9.39278 6.22171 9.39278C6.30868 9.39278 6.39597 9.39678 6.48302 9.39894C6.50127 9.39894 6.52151 9.39678 6.54175 9.39678H6.68954C6.82131 9.39278 6.95293 9.39062 7.08463 9.38677C7.15968 9.38462 7.23665 9.38062 7.31154 9.37854L7.54245 9.37238C7.63159 9.37038 7.72072 9.37038 7.80785 9.36853C7.87466 9.36853 7.93947 9.36622 8.00643 9.3643C8.08125 9.3623 8.15822 9.35622 8.23319 9.35221C8.27375 9.35014 8.31432 9.34606 8.35481 9.34205C8.40345 9.33805 8.4541 9.33205 8.50259 9.32997C8.57556 9.32581 8.65053 9.32381 8.7235 9.31973C8.81463 9.31373 8.90576 9.30565 8.9989 9.30357C9.08403 9.29957 9.17108 9.30157 9.25621 9.29957C9.33118 9.29749 9.40615 9.29341 9.48312 9.29141L9.6109 9.28525C9.6109 9.28525 9.69587 9.28325 9.73844 9.27909C9.81133 9.27509 9.88422 9.26701 9.95719 9.26501C10.0037 9.26293 10.0503 9.26501 10.0969 9.26293C10.1718 9.26093 10.2488 9.25677 10.3237 9.25677C10.352 9.25677 10.3824 9.26093 10.4189 9.26293C10.4027 9.27717 10.3925 9.28525 10.3804 9.29541C10.3885 9.29741 10.3965 9.30157 10.4047 9.30557C10.3953 9.31224 10.3839 9.31574 10.3724 9.31558C10.3682 9.32581 10.3641 9.32989 10.3601 9.35021H10.3965C10.3824 9.35021 10.3702 9.36845 10.3561 9.38062C10.3399 9.37646 10.3256 9.38062 10.3176 9.40294C10.3317 9.41094 10.3297 9.41702 10.3277 9.42526C10.3034 9.43326 10.2852 9.44142 10.2954 9.46775C10.2872 9.47175 10.2771 9.47583 10.2669 9.48191C10.2569 9.49807 10.2386 9.50215 10.2426 9.52448C10.2508 9.5264 10.2588 9.53063 10.2649 9.53248C10.2548 9.53656 10.2447 9.54264 10.2345 9.54664C10.1981 9.56896 10.2143 9.57912 10.2224 9.58928C10.2163 9.59336 10.2103 9.59737 10.2042 9.59944C10.2082 9.61769 10.2142 9.62177 10.2163 9.62177C10.2059 9.6296 10.1958 9.63771 10.1859 9.64609C10.1797 9.66433 10.1716 9.67241 10.1635 9.68457C10.1555 9.69674 10.1514 9.71305 10.1412 9.72514C10.0987 9.77186 10.0683 9.82674 10.0137 9.86315C9.99336 9.87739 9.9752 9.89563 9.95696 9.91395C9.92047 9.94835 9.88807 9.98692 9.84958 10.0194C9.79869 10.0615 9.746 10.1014 9.69164 10.139C9.6249 10.1857 9.55809 10.2323 9.49121 10.2769C9.45472 10.3012 9.41423 10.3194 9.37575 10.3418C9.33726 10.3641 9.30078 10.3844 9.26229 10.4066C9.23797 10.4228 9.21565 10.4451 9.18933 10.4574C9.12251 10.4859 9.05155 10.5102 8.98273 10.5366C8.91577 10.565 8.86728 10.5893 8.81663 10.6075C8.77006 10.6237 8.72142 10.636 8.67285 10.646C8.65669 10.6502 8.63837 10.646 8.62012 10.6481C8.58564 10.6543 8.55124 10.6624 8.51675 10.6664C8.42762 10.6786 8.33849 10.6867 8.24943 10.6989C8.19671 10.7051 8.14606 10.7151 8.09341 10.7212C8.057 10.7232 8.01852 10.7192 7.98203 10.7192C7.95571 10.7192 7.92739 10.7254 7.90098 10.7213C7.8585 10.7151 7.81593 10.7051 7.77337 10.697C7.76336 10.695 7.74904 10.6908 7.74104 10.695C7.72487 10.7031 7.71056 10.691 7.69432 10.695C7.68431 10.6971 7.67415 10.6888 7.66399 10.6888C7.65583 10.6869 7.64567 10.691 7.63551 10.6888C7.61319 10.6828 7.59302 10.6747 7.56855 10.6767C7.54445 10.6787 7.52005 10.6666 7.49388 10.6606C7.45732 10.6524 7.42307 10.6444 7.38643 10.6362C7.37227 10.6317 7.3587 10.6256 7.34602 10.6179C7.2933 10.6179 7.25881 10.6159 7.22641 10.6037C7.19808 10.5937 7.17176 10.5794 7.14136 10.5835C7.13335 10.5855 7.12727 10.5815 7.11904 10.5815C7.11288 10.5734 7.10695 10.5571 7.10095 10.5571C7.06046 10.5592 7.03614 10.5248 7.00165 10.5146C6.98349 10.5084 6.96933 10.4882 6.95108 10.4821C6.90644 10.4638 6.87011 10.4253 6.81946 10.4193C6.8033 10.4172 6.78714 10.4091 6.76882 10.4031C6.77497 10.4111 6.77882 10.4172 6.78498 10.4233C6.72625 10.3948 6.6716 10.3625 6.61688 10.332C6.60887 10.33 6.60279 10.322 6.59671 10.3178L6.54206 10.2813C6.51166 10.2875 6.4995 10.2752 6.49126 10.2712C6.43661 10.2327 6.37388 10.2083 6.32115 10.1657C6.29883 10.1474 6.27266 10.1352 6.2565 10.1129C6.22802 10.0784 6.19361 10.0541 6.15513 10.0339C6.1248 10.0177 6.09648 9.99939 6.06815 9.98114C6.05391 9.97098 6.03967 9.95882 6.03967 9.9365C6.03967 9.92226 6.03367 9.90802 6.01542 9.91618C6.00734 9.90402 5.99926 9.88986 5.9891 9.88578C5.96478 9.87577 5.94861 9.8573 5.93037 9.84113C5.91213 9.82497 5.89804 9.80265 5.87572 9.79457C5.83516 9.7784 5.81084 9.74392 5.78659 9.71552C5.72979 9.64855 5.67914 9.57543 5.62649 9.50462C5.62241 9.49846 5.61433 9.49438 5.60825 9.4883C5.61633 9.51062 5.62649 9.52886 5.63657 9.54911C5.61641 9.54102 5.60224 9.52678 5.59008 9.51262C5.588 9.5147 5.72979 9.74792 5.72979 9.74792C5.7421 9.76616 5.75211 9.78448 5.76427 9.80273C5.75207 9.80386 5.7398 9.80139 5.72899 9.79561C5.71818 9.78984 5.7093 9.78102 5.70346 9.77024C5.6853 9.73792 5.66498 9.7176 5.62449 9.72175C5.62019 9.7071 5.61685 9.69219 5.61448 9.67711C5.60625 9.67711 5.60024 9.67711 5.586 9.67503C5.61448 9.71967 5.63873 9.75816 5.66505 9.8028C5.65482 9.79664 5.64889 9.79264 5.64466 9.79064C5.68106 9.82913 5.70739 9.87785 5.75395 9.90225C5.76411 9.94882 5.81676 9.97114 5.82892 10.0158C5.81892 10.0137 5.8106 10.0117 5.80044 10.0096C5.78428 9.98938 5.76604 9.96914 5.74787 9.94682C5.75188 9.96098 5.75788 9.97314 5.76604 9.9833C5.79036 10.0137 5.81268 10.0441 5.84101 10.0705C5.85117 10.0808 5.86533 10.0849 5.86533 10.1031C5.88149 10.1112 5.88765 10.1131 5.89366 10.1131C5.89781 10.1255 5.89173 10.1437 5.91598 10.1396C5.93214 10.17 5.94831 10.17 5.97063 10.1599C5.99703 10.1863 6.01127 10.1884 6.02943 10.1723C6.02943 10.1823 6.03143 10.1924 6.03143 10.2006C6.03952 10.1965 6.03759 10.1904 6.03759 10.1803C6.0476 10.1883 6.05376 10.1924 6.05776 10.1964C6.078 10.2249 6.09624 10.2512 6.12457 10.2736C6.16306 10.306 6.19754 10.3405 6.23387 10.3709C6.30484 10.4298 6.38396 10.4785 6.46286 10.5231C6.56015 10.5779 6.65336 10.6367 6.75258 10.6894C6.87204 10.7523 6.99965 10.795 7.13127 10.8254C7.17992 10.8355 7.22649 10.8456 7.27521 10.8577C7.31754 10.87 7.36019 10.8882 7.40275 10.8983C7.46756 10.9126 7.53437 10.9247 7.59918 10.9368C7.61327 10.9389 7.62766 10.941 7.64382 10.943C7.66191 10.9471 7.68416 10.9389 7.68824 10.9451C7.6984 10.9612 7.70648 10.9531 7.71864 10.9511C7.7328 10.947 7.74904 10.947 7.76521 10.947C7.82193 10.949 7.87658 10.9611 7.93331 10.9571C7.94563 10.9571 7.96379 10.9469 7.97395 10.9671C7.99212 10.9591 8.00228 10.9591 8.01036 10.9571C8.01252 10.9753 8.01036 10.9753 8.00651 10.9773C8.00235 10.9793 7.99627 10.9814 7.98819 10.9875C8.06108 11.0016 8.12997 11.0036 8.19063 10.9875C8.29608 10.9955 8.38721 10.9834 8.47434 10.953C8.48242 10.9631 8.4885 10.9773 8.50067 10.9571C8.50467 10.9509 8.51483 10.9488 8.52299 10.9468C8.54115 10.9427 8.56347 10.9347 8.57964 10.9407C8.59796 10.9468 8.60404 10.9307 8.61812 10.9307C8.64252 10.9307 8.66477 10.9286 8.68709 10.9245C8.69925 10.9225 8.71141 10.9164 8.72557 10.9123C8.71171 10.9055 8.69641 10.9019 8.68093 10.9021C8.70533 10.8899 8.72758 10.8798 8.7499 10.8698C8.74582 10.8758 8.74174 10.8839 8.73373 10.8839H8.76198C8.75582 10.8839 8.74774 10.9021 8.73766 10.9143C8.81047 10.896 8.87728 10.8798 8.94217 10.8635C8.91985 10.821 8.96642 10.8352 8.98266 10.8108C8.96241 10.817 8.94217 10.823 8.92185 10.827C8.99074 10.7926 9.06163 10.7622 9.13044 10.7318C9.12044 10.7439 9.10812 10.75 9.09003 10.7602C9.10219 10.7622 9.11028 10.7622 9.11636 10.7641C9.14868 10.7743 9.14068 10.7439 9.15076 10.7256C9.18925 10.7256 9.20541 10.7196 9.22365 10.7134C9.2439 10.7073 9.26414 10.7013 9.28446 10.6932C9.31679 10.679 9.34719 10.6609 9.3796 10.6447C9.38576 10.6426 9.39576 10.6447 9.40392 10.6447C9.42624 10.6304 9.43425 10.6182 9.44033 10.6202C9.46881 10.6243 9.48882 10.6141 9.49698 10.5879C9.51114 10.5777 9.5213 10.5696 9.53138 10.5634C9.57587 10.5391 9.61836 10.5148 9.663 10.4905C9.67917 10.4905 9.68733 10.4905 9.69133 10.4884C9.71781 10.4761 9.74213 10.4621 9.76638 10.4478C9.75942 10.4449 9.75266 10.4416 9.74613 10.4378C9.7663 10.4337 9.7723 10.4317 9.78462 10.4276C9.83311 10.3706 9.90008 10.3321 9.95064 10.2875C9.97297 10.2855 9.97297 10.2794 9.97297 10.2754C9.98097 10.2652 9.98913 10.2531 9.99914 10.2449C10.0438 10.2044 10.0923 10.1699 10.1328 10.1273C10.1916 10.0684 10.2483 10.0075 10.3009 9.94458C10.3494 9.88778 10.3982 9.83105 10.4387 9.76817C10.4954 9.68096 10.544 9.59167 10.5947 9.50031C10.6311 9.4355 10.6636 9.37061 10.7001 9.30572C10.704 9.29957 10.7122 9.29148 10.7183 9.29148C10.7729 9.28533 10.8277 9.28148 10.8804 9.27532C10.8925 9.27332 10.9067 9.26531 10.9189 9.25916C10.9127 9.249 10.9087 9.23683 10.9027 9.22667C10.8945 9.21436 10.8824 9.20435 10.8742 9.19204C10.8662 9.18203 10.8601 9.16972 10.8541 9.15763C10.8479 9.14762 10.8419 9.13947 10.8358 9.12915C10.8235 9.10683 10.8114 9.08451 10.8012 9.06034C10.7992 9.05418 10.795 9.04418 10.7972 9.03802C10.8337 8.95897 10.8478 8.87376 10.8822 8.79464C10.9166 8.71351 10.9269 8.62222 10.943 8.53501C10.9572 8.45188 10.9654 8.36875 10.9754 8.28563C10.9815 8.22682 10.9896 8.17002 10.9915 8.11121C11.0038 8.01792 10.9997 7.93064 10.9977 7.84335C10.9957 7.76638 10.9915 7.68725 10.9877 7.61013L10.9874 7.6099ZM5.90543 10.1067C5.89127 10.0905 5.87911 10.0722 5.86495 10.056L5.8711 10.0499C5.89319 10.0743 5.91552 10.0986 5.93776 10.125C5.9256 10.1188 5.91144 10.1148 5.90543 10.1067ZM5.93776 10.125C5.94392 10.1229 5.95008 10.1229 5.95608 10.1209C5.96224 10.1311 5.96624 10.1432 5.97224 10.1554C5.94392 10.1533 5.92976 10.1412 5.93784 10.125H5.93776ZM8.04446 10.9627V10.9565C8.08294 10.9525 8.11935 10.9484 8.15784 10.9444V10.9504C8.11935 10.9565 8.08294 10.9604 8.04446 10.9625V10.9627ZM8.55478 10.91C8.52653 10.9161 8.49612 10.9202 8.4678 10.9243C8.45764 10.9263 8.44548 10.9364 8.44147 10.9181C8.4374 10.9202 8.43332 10.9202 8.42931 10.9223C8.43932 10.9526 8.46372 10.9283 8.48396 10.9404C8.43932 10.9466 8.39699 10.9506 8.35434 10.9566V10.9526C8.36666 10.9506 8.38074 10.9485 8.39283 10.9464V10.9404C8.37264 10.938 8.35235 10.9367 8.33202 10.9364C8.32609 10.9364 8.31794 10.9445 8.31186 10.9465C8.30377 10.9485 8.29569 10.9506 8.28553 10.9506C8.25113 10.9526 8.21672 10.9526 8.18424 10.9546C8.18216 10.9546 8.17808 10.9526 8.17608 10.9526V10.9464C8.31178 10.9283 8.44548 10.91 8.58118 10.8918C8.58326 10.8958 8.58326 10.8999 8.58526 10.9039C8.5731 10.9039 8.56501 10.9081 8.55485 10.91L8.55478 10.91ZM8.58526 10.8898C8.6319 10.8836 8.67454 10.8796 8.71903 10.8736C8.6259 10.8999 8.59542 10.9039 8.58526 10.8898ZM6.821 6.79454C6.88566 6.70526 6.95262 6.61597 7.01743 6.52476C7.03768 6.4982 7.05384 6.4698 7.07408 6.44348C7.08024 6.43532 7.08832 6.43132 7.09841 6.42316L7.09641 6.41931C7.10449 6.40907 7.11257 6.40084 7.11665 6.39283C7.12696 6.37667 7.13304 6.35835 7.14113 6.34011C7.14329 6.33697 7.14603 6.33428 7.14921 6.33218C7.17769 6.34634 7.17769 6.31601 7.18769 6.30578C7.20594 6.28546 7.22418 6.26321 7.24034 6.24289C7.2525 6.22673 7.26466 6.21249 7.27482 6.19425C7.27683 6.18809 7.27075 6.17808 7.26867 6.16985H7.26266C7.26882 6.16584 7.27482 6.15984 7.28091 6.15568C7.28291 6.15568 7.28291 6.15568 7.28491 6.15368C7.29707 6.13536 7.30923 6.11712 7.32139 6.10088C7.34564 6.06855 7.37196 6.03607 7.40029 6.00775C7.39628 6.01775 7.39221 6.02799 7.38813 6.03607C7.3902 6.03607 7.3902 6.03815 7.39221 6.03815C7.41653 6.00567 7.44285 5.97526 7.46718 5.9427C7.4651 5.94078 7.4631 5.9387 7.46102 5.9387C7.45101 5.94886 7.44285 5.95902 7.43269 5.96918C7.43069 5.9671 7.42869 5.9651 7.42653 5.9651C7.44693 5.9387 7.46718 5.91238 7.48734 5.88197C7.49142 5.88813 7.4955 5.89614 7.50351 5.91238C7.51174 5.89213 7.51982 5.87797 7.52583 5.86373C7.51982 5.86989 7.51174 5.87589 7.50566 5.88205L7.4995 5.87589L7.53599 5.82124C7.57447 5.76644 7.61296 5.70964 7.65144 5.65483C7.66568 5.63459 7.68377 5.61835 7.69609 5.59803C7.73457 5.52106 7.79538 5.4601 7.84187 5.38913C7.85203 5.37497 7.86619 5.3628 7.87835 5.35064C7.88836 5.33833 7.8966 5.34248 7.90468 5.35264C7.95933 5.42161 8.01398 5.49258 8.06863 5.56154C8.10927 5.61234 8.14975 5.66084 8.18824 5.71364C8.23481 5.7786 8.27937 5.84349 8.32602 5.90838C8.37867 5.98342 8.43131 6.05847 8.48196 6.13544C8.55893 6.24913 8.63182 6.36274 8.70879 6.47627C8.76552 6.5594 8.82225 6.6406 8.8769 6.72373H8.77345C8.67831 6.72181 8.58102 6.71372 8.48589 6.71773C8.35627 6.72388 8.22465 6.73805 8.09503 6.74821C7.93093 6.76245 7.76482 6.76437 7.60087 6.76437C7.54199 6.76437 7.48326 6.77261 7.42461 6.77669C7.35364 6.78069 7.28475 6.78477 7.21386 6.78669C7.13073 6.79085 7.04992 6.79285 6.96679 6.79493C6.92014 6.79693 6.87157 6.79493 6.82093 6.79493L6.821 6.79454ZM9.14422 7.72743V7.74575C9.14222 7.74575 9.14022 7.74783 9.13614 7.74783C9.12806 7.71935 9.11997 7.68887 9.10981 7.66047C9.08957 7.60158 9.06725 7.5427 9.03077 7.49005C8.99012 7.43333 8.95379 7.3746 8.91315 7.31571C8.90315 7.30147 8.88883 7.28931 8.87667 7.27723C8.8341 7.23051 8.79154 7.18178 8.73689 7.14738C8.65637 7.09687 8.57164 7.0534 8.48365 7.01745C8.45922 7.00696 8.43556 6.99477 8.41284 6.98097H8.46133L8.8077 6.97481C8.88267 6.97288 8.95564 6.97288 9.03053 6.96881C9.0487 6.96881 9.05886 6.97496 9.06902 6.99113C9.08718 7.02153 9.10543 7.05193 9.12567 7.08241C9.12775 7.08642 9.13183 7.09242 9.13183 7.09858C9.13183 7.14322 9.13183 7.18987 9.13383 7.23451C9.13575 7.28115 9.13999 7.3258 9.14183 7.37244C9.14183 7.41909 9.13775 7.46773 9.13983 7.51638C9.14191 7.58542 9.14391 7.65646 9.14391 7.72728L9.14422 7.72743ZM6.96471 7.04824C7.05992 7.04416 7.15098 7.03808 7.24427 7.034C7.317 7.02992 7.39205 7.02784 7.46487 7.02384C7.49527 7.02192 7.52367 7.01999 7.554 7.02384C7.52167 7.04016 7.48919 7.0564 7.46086 7.07664C7.42438 7.10096 7.39005 7.13337 7.35349 7.15977C7.31693 7.18609 7.28452 7.21858 7.2542 7.25306C7.21571 7.29963 7.17315 7.34019 7.13258 7.38483C7.1041 7.41732 7.07177 7.44772 7.04753 7.4822C7.01312 7.52685 6.98272 7.57534 6.95031 7.62614C6.96047 7.4334 6.97264 7.24282 6.96448 7.04809L6.96471 7.04824ZM8.28746 8.99946C8.22257 9.01562 8.15583 9.03394 8.08887 9.04202C8.03222 9.05018 7.97341 9.04818 7.91469 9.04818C7.86259 9.0482 7.81052 9.04615 7.75859 9.04202C7.69986 9.03602 7.64113 9.02994 7.5844 9.00354C7.53568 8.98121 7.48511 8.96097 7.43662 8.93657C7.38782 8.91225 7.33925 8.88392 7.30269 8.83928C7.27652 8.80672 7.23996 8.7804 7.20755 8.75199C7.21371 8.77632 7.2278 8.79664 7.25012 8.8108C7.23996 8.82296 7.22579 8.81696 7.20547 8.7844C7.19947 8.78848 7.19339 8.79056 7.18931 8.79256C7.19547 8.77832 7.20147 8.76408 7.20755 8.75199C7.19947 8.73583 7.18931 8.71751 7.18123 8.70119C7.16506 8.67487 7.1489 8.64654 7.13466 8.62014C7.13058 8.61398 7.13058 8.60798 7.12658 8.6019C7.11647 8.59021 7.10696 8.578 7.0981 8.56534C7.08194 8.54109 7.06777 8.51477 7.04753 8.49037C7.04753 8.49653 7.04961 8.50253 7.04961 8.51069C7.04753 8.51069 7.04553 8.51269 7.04553 8.51269L7.00289 8.40924C7.00088 8.40924 7.00088 8.40924 6.99888 8.41124L7.03529 8.54517C7.03329 8.54517 7.03129 8.5471 7.02913 8.5471C7.02321 8.53909 7.01713 8.53093 7.01297 8.52093C7.00897 8.50461 6.99681 8.50461 6.9868 8.51069C6.98064 8.51477 6.97656 8.52893 6.97864 8.53501C6.99288 8.5695 7.00904 8.60398 7.02528 8.63846C7.02929 8.65062 7.03337 8.66078 7.03945 8.67294C7.04153 8.67702 7.04761 8.68103 7.04761 8.68711C7.05576 8.70327 7.06185 8.71943 7.07193 8.73375C7.09017 8.75807 7.11041 8.7824 7.12866 8.80672C7.14674 8.83104 7.16291 8.85752 7.17915 8.88177C7.18115 8.88585 7.18723 8.88585 7.18916 8.88792C7.19939 8.91833 7.2338 8.94057 7.25812 8.92841C7.26428 8.97506 7.31485 8.9913 7.33509 9.03594C7.31521 9.02783 7.29563 9.01902 7.27636 9.00954C7.27429 9.01154 7.27429 9.01354 7.27221 9.01762C7.29653 9.02978 7.32085 9.04194 7.34302 9.05611C7.36342 9.06842 7.38366 9.08051 7.4019 9.09459C7.42623 9.11691 7.45463 9.12923 7.48888 9.13723C7.48819 9.13425 7.48688 9.13144 7.48503 9.129C7.54168 9.1554 7.60049 9.1838 7.64498 9.20597C7.43431 9.21012 7.20948 9.2142 6.97648 9.21828C6.97648 9.1798 6.97448 9.14324 6.97448 9.10467C6.97448 9.08851 6.97849 9.07427 6.97641 9.05803C6.97025 8.9649 6.97025 8.87145 6.95817 8.78017C6.94608 8.68287 6.94608 8.58751 6.94816 8.48998C6.95008 8.43741 6.94608 8.38269 6.944 8.32988C6.944 8.25892 6.944 8.1898 6.94616 8.11898C6.94616 8.10882 6.95024 8.10074 6.95432 8.0905H6.96047C6.9624 8.09466 6.96047 8.10074 6.96432 8.10282C6.97048 8.10898 6.98064 8.11898 6.98472 8.11698C6.99681 8.10882 7.01505 8.10082 7.01913 8.0885C7.02913 8.06426 7.03329 8.03786 7.03329 8.01353C7.03329 7.99537 7.04145 7.98321 7.04945 7.97097C7.05361 7.96481 7.05561 7.95881 7.05969 7.95073C7.05161 7.94457 7.04353 7.94056 7.03337 7.93248C7.04153 7.91016 7.03952 7.88376 7.06993 7.87168C7.07393 7.8696 7.07393 7.85936 7.07609 7.85336C7.07801 7.83696 7.07993 7.81872 7.08209 7.80256C7.08609 7.80871 7.08825 7.81064 7.0921 7.81464C7.09324 7.81243 7.09463 7.81037 7.09625 7.80848C7.09625 7.80048 7.09425 7.78424 7.09625 7.78424C7.12057 7.78016 7.11041 7.75383 7.12258 7.74167C7.1245 7.73952 7.1205 7.73344 7.1205 7.72936C7.1205 7.72535 7.1205 7.71935 7.1225 7.71935C7.15075 7.71319 7.14674 7.68279 7.16499 7.66855C7.17114 7.66447 7.17307 7.65854 7.18115 7.64831C7.19731 7.67663 7.16899 7.69087 7.16699 7.71111C7.20132 7.69087 7.21148 7.64223 7.19123 7.62799C7.19932 7.62183 7.2074 7.61382 7.21356 7.60566C7.23588 7.58134 7.26005 7.55902 7.28037 7.5347C7.29461 7.51653 7.30269 7.49421 7.31685 7.47597C7.32501 7.46581 7.34117 7.45773 7.35334 7.45157C7.38982 7.4314 7.42415 7.40908 7.44647 7.3746C7.45055 7.37052 7.45663 7.36651 7.46263 7.36244C7.46879 7.35836 7.48095 7.35836 7.48295 7.35228C7.48503 7.34827 7.47895 7.33811 7.47487 7.33203C7.48288 7.32795 7.49104 7.31987 7.5072 7.31171C7.50104 7.32387 7.49912 7.33203 7.49504 7.34019L7.50504 7.3502C7.52336 7.33603 7.55169 7.31987 7.56993 7.30771C7.56993 7.30578 7.55977 7.2977 7.55977 7.2977C7.54769 7.30386 7.52944 7.31387 7.51128 7.32203C7.51513 7.31587 7.51513 7.31187 7.51744 7.30986C7.54569 7.29162 7.57401 7.27338 7.60441 7.25906C7.67523 7.22674 7.7462 7.19425 7.81709 7.16385C7.82925 7.15769 7.84557 7.16185 7.85965 7.16185C7.86565 7.16185 7.86966 7.16185 7.87581 7.15985C7.90814 7.14969 7.94062 7.13953 7.97303 7.13137C7.98711 7.12737 8.00328 7.12536 8.01767 7.12536C8.07825 7.12729 8.13906 7.12729 8.19979 7.13137C8.22611 7.13337 8.25043 7.13945 8.27476 7.14753C8.30594 7.15837 8.33638 7.17122 8.36589 7.18602C8.4003 7.20449 8.4327 7.22466 8.46518 7.24698C8.52391 7.28546 8.57856 7.32811 8.63729 7.36259C8.69402 7.39707 8.73858 7.44372 8.77507 7.49652C8.81971 7.55933 8.87028 7.61613 8.89052 7.69318L8.92085 7.82711C8.92701 7.85143 8.94117 7.87576 8.93509 7.90408C8.92485 7.95488 8.91677 8.00761 8.90869 8.05833C8.90469 8.07873 8.90061 8.09913 8.90269 8.11914C8.90653 8.18225 8.88229 8.2369 8.85804 8.29371C8.84988 8.31195 8.83772 8.33027 8.82764 8.35051C8.83259 8.35402 8.83804 8.35677 8.8438 8.35867L8.86204 8.32219C8.86412 8.32219 8.86412 8.32219 8.86612 8.32427C8.85596 8.35259 8.84788 8.38307 8.83764 8.41147C8.81348 8.47436 8.78915 8.53925 8.75875 8.60005C8.74259 8.63454 8.71411 8.66294 8.69394 8.6955C8.67377 8.72382 8.65753 8.75423 8.63729 8.78063C8.61905 8.80295 8.60088 8.82527 8.57648 8.84143C8.52183 8.882 8.4651 8.92256 8.40638 8.95504C8.36997 8.97736 8.3274 8.98953 8.28692 8.99969L8.28746 8.99946ZM7.20778 8.8917L7.20578 8.89377C7.20155 8.89177 7.19547 8.88977 7.19146 8.88569L7.14282 8.81257C7.13882 8.80657 7.13666 8.80049 7.13882 8.7924C7.16114 8.82689 7.18354 8.85937 7.20778 8.8917ZM8.4678 9.16956C8.55886 9.13108 8.63383 9.07643 8.70256 9.01346C8.7128 9.0033 8.72288 8.99322 8.73504 8.98498C8.82017 8.93234 8.88283 8.85929 8.93963 8.77816C9.00444 8.68487 9.04701 8.57942 9.09973 8.48005C9.10331 8.47238 9.10734 8.46492 9.11182 8.45773C9.10774 8.68895 9.13414 8.9161 9.16446 9.14532C8.93563 9.1534 8.70264 9.16148 8.46772 9.16964L8.4678 9.16956ZM10.5216 9.10875C10.5196 9.11283 10.5155 9.11691 10.5135 9.12107C10.5115 9.11691 10.5115 9.11083 10.5095 9.1026C10.4973 9.13516 10.471 9.11891 10.4527 9.11891C10.3434 9.12099 10.232 9.12099 10.1225 9.12099C10.0172 9.12099 9.90993 9.12099 9.80463 9.12284C9.77015 9.12284 9.73366 9.13092 9.69918 9.133C9.61621 9.137 9.53315 9.13916 9.4501 9.14108C9.44395 9.14108 9.43794 9.13108 9.42778 9.12292C9.42421 9.12931 9.42015 9.13541 9.41562 9.14116C9.41347 9.13716 9.40946 9.13315 9.40538 9.12707C9.40338 9.13323 9.4013 9.13924 9.39923 9.14324H9.39338C9.3893 9.11491 9.38121 9.08859 9.38121 9.06011C9.38121 8.9993 9.38737 8.93849 9.3893 8.87753C9.39137 8.84921 9.3893 8.82288 9.3893 8.79641C9.39745 8.80256 9.40354 8.80664 9.41162 8.81257C9.41562 8.80464 9.4197 8.79856 9.42378 8.79256C9.42378 8.79256 9.4197 8.7904 9.41562 8.7864C9.41947 8.78432 9.42362 8.78024 9.42362 8.77824C9.42563 8.77208 9.42978 8.76608 9.42978 8.76208C9.42978 8.74784 9.42563 8.73568 9.42362 8.72359C9.42563 8.72359 9.42763 8.72359 9.42978 8.72144L9.44187 8.78224H9.44802C9.43987 8.76816 9.46619 8.75592 9.44395 8.73976C9.44194 8.73768 9.44595 8.72552 9.44595 8.71943C9.43979 8.70735 9.43594 8.69519 9.42978 8.67895C9.43178 8.67695 9.43786 8.67487 9.44395 8.67279C9.43586 8.66879 9.42978 8.66479 9.4237 8.66278C9.44395 8.64446 9.44395 8.63431 9.4257 8.61406C9.42986 8.61214 9.43386 8.61214 9.43386 8.61021C9.43386 8.59189 9.43386 8.57365 9.42986 8.55556C9.42578 8.53509 9.43602 8.51092 9.40554 8.49861C9.40754 8.50476 9.40962 8.50876 9.41362 8.51477C9.41362 8.51477 9.40746 8.51685 9.40146 8.52093C9.37513 8.49653 9.39145 8.46397 9.38529 8.42756C9.39946 8.43164 9.40962 8.43572 9.4197 8.43988C9.41562 8.42556 9.40554 8.40932 9.39946 8.39108H9.39122V8.25715C9.39122 8.25922 9.40538 8.25923 9.41354 8.2613C9.41354 8.25923 9.41547 8.25722 9.41547 8.25515C9.40931 8.24706 9.40123 8.23898 9.39314 8.22882L9.39722 8.22474C9.38106 8.20458 9.38914 8.17625 9.38914 8.17009V8.02808C9.40946 8.0484 9.37914 8.07473 9.40946 8.08689V8.06664H9.40738C9.40538 8.03624 9.40538 8.00584 9.40338 7.97536H9.39938C9.3973 7.97951 9.3973 7.98151 9.39522 7.98559H9.39122L9.40338 7.50083C9.42362 7.52715 9.44587 7.55163 9.46003 7.5778C9.50668 7.66308 9.56741 7.73613 9.62413 7.81318C9.67278 7.88014 9.71727 7.95311 9.76191 8.02208C9.81656 8.10521 9.86921 8.18833 9.92394 8.27146C9.96442 8.33443 10.0071 8.39731 10.0494 8.45819C10.0879 8.51284 10.1285 8.56565 10.169 8.61845C10.2033 8.66509 10.2398 8.71174 10.2742 8.75838C10.3148 8.81519 10.3553 8.87191 10.3958 8.92672C10.416 8.95504 10.4383 8.98345 10.4605 9.01185C10.4728 9.02801 10.491 9.04033 10.5031 9.05033C10.5012 9.05033 10.4991 9.05033 10.4951 9.04833C10.5013 9.05641 10.5051 9.06249 10.5093 9.06657C10.5316 9.07874 10.5336 9.0909 10.5215 9.10922L10.5216 9.10875ZM10.6249 8.60182V8.58758C10.6249 8.59159 10.6269 8.59767 10.6249 8.60182ZM10.6938 7.70742C10.6917 7.70742 10.6796 7.6951 10.6776 7.6931C10.6756 7.69926 10.6776 7.70526 10.6736 7.71342C10.6715 7.70742 10.6574 7.70942 10.6574 7.70342C10.6553 7.73174 10.6695 7.76014 10.6674 7.78855C10.6736 7.78447 10.6978 7.78239 10.7039 7.77639C10.706 7.77839 10.71 7.78039 10.712 7.78039C10.6715 7.81087 10.6816 7.8412 10.6999 7.87583C10.7039 7.88384 10.716 7.90008 10.7039 7.91632C10.6999 7.9204 10.706 7.93248 10.708 7.94272H10.7139V7.94657L10.6956 7.95273C10.6916 7.94657 10.6674 7.93456 10.6674 7.92425V8.02785C10.6876 8.03401 10.6876 8.06233 10.6957 8.07657C10.6993 8.07163 10.702 8.06618 10.704 8.06041L10.706 8.06226C10.704 8.07442 10.702 8.08658 10.6979 8.09882C10.6939 8.11698 10.6898 8.13322 10.6879 8.15147C10.6879 8.15347 10.6917 8.15762 10.6917 8.15955C10.6696 8.21035 10.6817 8.267 10.6736 8.31965C10.6675 8.35813 10.6736 8.39893 10.6696 8.43941C10.6654 8.4739 10.6572 8.51038 10.6492 8.54486C10.6472 8.55102 10.6431 8.55295 10.6331 8.55703C10.6371 8.5327 10.6351 8.51646 10.631 8.49414C10.6288 8.49414 10.6025 8.47998 10.6004 8.47998C10.6004 8.50846 10.6166 8.54694 10.6228 8.57927C10.6166 8.57727 10.5924 8.56311 10.5904 8.56311C10.5863 8.58743 10.5863 8.61991 10.5843 8.64624C10.5822 8.66656 10.564 8.68472 10.5619 8.70704C10.5619 8.71936 10.5761 8.72736 10.5741 8.74768H10.5903C10.5903 8.7072 10.6086 8.67071 10.6086 8.62807H10.6146C10.6167 8.63215 10.6228 8.63623 10.6208 8.63823C10.6167 8.66055 10.6084 8.68487 10.6106 8.7072C10.6106 8.71936 10.6206 8.73152 10.6168 8.74568C10.6126 8.758 10.6106 8.77008 10.6085 8.78832C10.6064 8.77816 10.6044 8.77416 10.6044 8.76808C10.6024 8.76808 10.5842 8.766 10.5821 8.766C10.5801 8.77816 10.5964 8.79033 10.5943 8.80049C10.5923 8.80249 10.5903 8.80249 10.5862 8.80456L10.5194 8.70712C10.4666 8.63015 10.4139 8.55295 10.3613 8.4739C10.3476 8.45455 10.3354 8.43422 10.3247 8.41309C10.2621 8.30515 10.1924 8.20145 10.1161 8.10267C10.0575 8.0277 10.0107 7.94641 9.95603 7.86752C9.90554 7.79247 9.85489 7.71943 9.80425 7.6443C9.786 7.62006 9.76376 7.59774 9.74752 7.57133C9.69495 7.48821 9.64823 7.403 9.59573 7.31987C9.55109 7.25083 9.5026 7.18386 9.45595 7.11697C9.43979 7.09465 9.42362 7.07025 9.40731 7.04593C9.40477 7.04169 9.40339 7.03686 9.4033 7.03192C9.39923 6.98728 9.39515 6.94264 9.39314 6.90007C9.39314 6.85951 9.39722 6.81894 9.39722 6.7763V6.73982C9.39722 6.72966 9.39915 6.72157 9.39915 6.71134C9.40107 6.70941 9.40315 6.70533 9.40515 6.70333C9.34642 6.70333 9.28562 6.70118 9.22689 6.70333C9.1884 6.70526 9.16816 6.68902 9.14183 6.66061C9.06486 6.57341 9.00814 6.47404 8.94132 6.38075C8.87833 6.29199 8.81418 6.20405 8.7489 6.11697C8.69617 6.046 8.64345 5.97703 8.59088 5.90607C8.53207 5.82494 8.47542 5.74381 8.41461 5.66268C8.34094 5.56488 8.26666 5.46753 8.19178 5.37066C8.15714 5.32601 8.11866 5.28345 8.08017 5.23673C8.10657 5.24088 8.13097 5.24489 8.15522 5.24696L8.25251 5.25312C8.3254 5.25905 8.39829 5.26313 8.47111 5.27313C8.53192 5.28137 8.59272 5.29353 8.65553 5.30361C8.78931 5.32594 8.92093 5.3625 9.04855 5.40506C9.12352 5.42938 9.19633 5.46187 9.26945 5.49227C9.4334 5.55923 9.58942 5.64036 9.74336 5.72549C9.79185 5.75189 9.82033 5.79446 9.85666 5.83302C9.90939 5.88782 9.96211 5.94255 10.0127 5.99928C10.0713 6.06624 10.126 6.13521 10.1828 6.20418C10.2334 6.26498 10.2859 6.32579 10.3367 6.38675C10.3529 6.40499 10.3652 6.42731 10.3792 6.44756C10.4115 6.49628 10.4481 6.543 10.4764 6.59565C10.4966 6.63429 10.5088 6.67893 10.5229 6.7215C10.5431 6.78438 10.5634 6.84519 10.5837 6.90808C10.5978 6.95472 10.6099 7.00352 10.6201 7.05201C10.6282 7.08457 10.6262 7.11898 10.6362 7.1513C10.6485 7.1941 10.6362 7.24059 10.6485 7.28331C10.6505 7.28739 10.6524 7.29347 10.6545 7.29755C10.6626 7.30555 10.6687 7.31371 10.6565 7.32587C10.6546 7.32788 10.6546 7.33588 10.6565 7.34204C10.6607 7.33804 10.6627 7.33396 10.6668 7.32788C10.6668 7.33195 10.6687 7.33403 10.6687 7.33596C10.6687 7.34396 10.6666 7.35212 10.6687 7.3602C10.6687 7.36421 10.6727 7.37021 10.6747 7.37437C10.6788 7.37021 10.6828 7.36821 10.6909 7.36205C10.7091 7.43109 10.7112 7.50006 10.7112 7.57103C10.7112 7.63799 10.7233 7.70496 10.695 7.76984C10.701 7.74752 10.6869 7.72712 10.693 7.70688L10.6938 7.70742Z" fill="#DD3A0A"/>
<path fill-rule="evenodd" clip-rule="evenodd" d="M9.39964 8.49622C9.40156 8.49622 9.40364 8.4983 9.40364 8.4983L9.40156 8.49599C9.40156 8.49406 9.40156 8.49406 9.39956 8.49599L9.39964 8.49622ZM9.71961 10.5002C9.69728 10.5164 9.67496 10.5306 9.64664 10.5367C9.64448 10.5347 9.64448 10.5326 9.64248 10.5306C9.6648 10.5164 9.68905 10.5022 9.71137 10.488C9.71345 10.4918 9.71753 10.496 9.71953 10.5001L9.71961 10.5002ZM5.9217 7.75176C5.94402 7.72351 5.96634 7.6951 5.99051 7.6667C5.99244 7.6687 6.0086 7.67286 6.01068 7.67478C5.98836 7.70326 5.95796 7.74175 5.93571 7.77215C5.93155 7.76807 5.92547 7.75391 5.92147 7.75183L5.9217 7.75176ZM5.34634 8.74584C5.33018 8.71135 5.31402 8.67479 5.29785 8.64039C5.30349 8.63681 5.3096 8.63407 5.31602 8.63223C5.33834 8.66455 5.34834 8.70304 5.36466 8.73768C5.36466 8.73768 5.3485 8.74576 5.34642 8.74576L5.34634 8.74584ZM5.86297 7.77215C5.85081 7.79047 5.83865 7.81079 5.82649 7.82911C5.82449 7.82696 5.80217 7.83712 5.80016 7.83511C5.81233 7.81687 5.84265 7.78431 5.85481 7.76615C5.85689 7.76815 5.85889 7.77023 5.86297 7.77231V7.77215ZM9.50293 10.5835C9.50486 10.5835 9.50486 10.5815 9.50694 10.5815C9.5211 10.5835 9.53726 10.5855 9.5535 10.5855C9.52702 10.6038 9.51078 10.6017 9.5027 10.5835H9.50293ZM5.86682 7.85736C5.86898 7.8512 5.87298 7.8452 5.87706 7.83912C5.88106 7.83912 5.88706 7.83704 5.88706 7.83704C5.8953 7.82288 5.8953 7.81272 5.90338 7.80055C5.90138 7.79855 5.8993 7.79855 5.89722 7.79648C5.88514 7.80479 5.87298 7.81495 5.86082 7.82303C5.8649 7.82703 5.8649 7.82919 5.8649 7.83319C5.84873 7.83111 5.84258 7.83935 5.83449 7.86152C5.83249 7.86767 5.82233 7.86967 5.81217 7.87768C5.81017 7.88184 5.80817 7.892 5.80409 7.90208L5.80617 7.90423C5.80209 7.90831 5.79601 7.91039 5.79601 7.91039C5.78385 7.92248 5.76968 7.93271 5.75752 7.9448C5.75552 7.95096 5.75352 7.95696 5.75352 7.96304C5.76776 7.94888 5.79201 7.92248 5.81025 7.90624L5.81233 7.90831C5.82041 7.89615 5.82649 7.88399 5.83465 7.87183C5.83657 7.87383 5.83657 7.87583 5.83865 7.87799C5.83249 7.89415 5.82649 7.91232 5.82041 7.92856C5.81617 7.93056 5.81009 7.93472 5.81009 7.93264C5.80201 7.93879 5.79593 7.9468 5.78777 7.95288L5.75136 7.9772C5.73112 7.99545 5.71088 8.01161 5.68856 8.02993C5.67439 8.05225 5.66023 8.07249 5.64391 8.09889C5.66831 8.09274 5.67439 8.10297 5.67239 8.12329C5.70072 8.1273 5.7028 8.10505 5.71088 8.08881C5.71288 8.08465 5.71496 8.0765 5.71896 8.07449C5.7372 8.05833 5.75745 8.04417 5.77769 8.02793C5.78177 8.02385 5.78177 8.01561 5.78177 8.00961C5.78177 8.00761 5.77153 8.00761 5.76545 8.00553C5.78369 7.98521 5.81009 7.95088 5.82826 7.92856C5.83842 7.9224 5.8485 7.91424 5.8485 7.90816C5.8465 7.88584 5.86066 7.87983 5.87698 7.87168C5.86882 7.86552 5.86674 7.85959 5.86674 7.85759L5.86682 7.85736Z" fill="#DD3A0A"/>
<path fill-rule="evenodd" clip-rule="evenodd" d="M5.90736 7.83504C5.89928 7.8492 5.8912 7.86136 5.88311 7.8756L5.87095 7.86944C5.86287 7.91601 5.83447 7.95657 5.80614 7.96466C5.81422 7.96874 5.82231 7.97282 5.82846 7.97081C5.83447 7.96874 5.83847 7.9585 5.84255 7.9525L5.8972 7.87337L5.91552 7.84289L5.90744 7.83481L5.90736 7.83504ZM5.23294 8.72544C5.2431 8.72544 5.25326 8.72744 5.26527 8.72744C5.26527 8.71936 5.2755 8.72128 5.2755 8.71328H5.28166C5.28166 8.72344 5.28366 8.73152 5.28366 8.74176H5.24117C5.2391 8.73968 5.23094 8.72744 5.23294 8.72544ZM5.21678 8.63215C5.21062 8.62599 5.20061 8.61999 5.20061 8.61391C5.19853 8.6059 5.20461 8.59582 5.21062 8.58566C5.21477 8.59982 5.21678 8.61198 5.22078 8.62622C5.2187 8.62815 5.2167 8.63023 5.2167 8.63223L5.21678 8.63215ZM5.26742 8.5023C5.2755 8.52277 5.28359 8.5451 5.29174 8.56542C5.286 8.56733 5.28056 8.57005 5.27558 8.5735C5.2675 8.55318 5.25734 8.53086 5.24926 8.51061C5.25473 8.5067 5.26093 8.50392 5.2675 8.50245L5.26742 8.5023ZM9.77639 10.4415C9.78639 10.4375 9.79855 10.4353 9.81487 10.4315C9.79655 10.4456 9.78239 10.4557 9.77023 10.4679C9.76815 10.4659 9.76615 10.4638 9.76407 10.4638C9.76815 10.4557 9.77223 10.4497 9.77639 10.4415ZM7.28668 6.15568C7.29876 6.14752 7.309 6.14144 7.32109 6.13336L7.32509 6.13736C7.31277 6.15353 7.30277 6.16969 7.28853 6.19009C7.28653 6.176 7.28653 6.16777 7.28445 6.15776C7.28245 6.15776 7.28445 6.15776 7.28653 6.15576L7.28668 6.15568ZM7.88013 7.18194C7.89837 7.17378 7.91661 7.16577 7.93886 7.15554C7.93685 7.1677 7.93685 7.17586 7.93685 7.18402C7.93032 7.18165 7.92347 7.18025 7.91653 7.17986C7.90437 7.18194 7.88205 7.19818 7.87189 7.20018C7.86997 7.20018 7.88013 7.18402 7.88013 7.18194ZM9.39954 8.90193C9.40354 8.92218 9.44202 8.93234 9.40354 8.95258C9.4097 8.95681 9.41562 8.95874 9.4217 8.96289C9.4217 8.96497 9.4197 8.96905 9.4177 8.97105C9.41362 8.97298 9.40554 8.97706 9.40154 8.9749C9.39946 8.9749 9.39538 8.9669 9.39538 8.96282C9.39538 8.94457 9.39746 8.92633 9.39946 8.90201L9.39954 8.90193Z" fill="#DD3A0A"/>
</svg>
