<svg width="16" height="16" viewBox="0 0 16 16" fill="none" xmlns="http://www.w3.org/2000/svg">
<rect x="2.5" y="2.5" width="11" height="11" rx="2.5" stroke="#BF4722"/>
<path fill-rule="evenodd" clip-rule="evenodd" d="M7.66303 5.08513C7.43845 5.19863 6.96514 5.41947 6.7088 5.59573C6.45244 5.77199 6.48422 5.93623 6.37202 6.04974C6.25981 6.16324 5.92287 6.44683 5.69846 6.61692C5.47388 6.78718 5.52999 7.24119 5.47388 7.41145C5.41778 7.58154 5.30558 7.97863 5.24947 8.14889C5.19321 8.31914 5.36168 8.54615 5.47388 8.77315C5.58625 8.99999 5.86677 9.6241 5.97913 9.85094C6.09134 10.0779 6.42828 9.96445 6.7088 10.1915C6.98931 10.4185 7.38235 10.7022 7.66303 10.8723C7.94354 11.0426 8.05591 11.0426 8.33658 10.8723C8.61711 10.7021 9.01015 10.4183 9.29082 10.1913C9.57133 9.96445 9.90827 10.0779 10.0205 9.85094C10.1327 9.62394 10.4134 8.99999 10.5257 8.77299C10.6379 8.54599 10.8062 8.31898 10.7501 8.14889C10.694 7.97863 10.5818 7.58138 10.5257 7.41128C10.4696 7.24103 10.5257 6.78718 10.3012 6.61692C10.0766 6.44667 9.81601 6.23004 9.6276 6.04958C9.43919 5.86911 9.51539 5.76582 9.29082 5.59557C9.06625 5.42547 8.56115 5.19863 8.33658 5.08513C8.11201 4.97162 7.88744 4.97162 7.66303 5.08513Z" fill="white"/>
<path fill-rule="evenodd" clip-rule="evenodd" d="M6.8698 6.06952L7.92034 6.79027C7.94396 6.80614 7.97166 6.81487 8.00012 6.8154C8.02862 6.81514 8.0564 6.80639 8.0799 6.79027L9.13125 6.06709C9.15143 6.05256 9.16751 6.03305 9.17794 6.01047C9.18836 5.9879 9.1928 5.96302 9.19078 5.93823C9.18878 5.91345 9.18041 5.88961 9.16649 5.869C9.15256 5.8484 9.13356 5.83174 9.11131 5.82063L8.06077 5.29787C8.04112 5.28827 8.01955 5.28328 7.99769 5.28328C7.97582 5.28328 7.95425 5.28827 7.93462 5.29787L6.88715 5.82063C6.86448 5.83176 6.84512 5.84865 6.83103 5.8696C6.81692 5.89056 6.80856 5.91485 6.8068 5.94004C6.80502 5.96523 6.8099 5.99046 6.82092 6.01318C6.83195 6.0359 6.84875 6.05532 6.86963 6.06952H6.8698ZM8.35701 7.01646C8.35698 7.03995 8.36264 7.06309 8.37348 7.08392C8.38432 7.10475 8.40003 7.12266 8.41927 7.13613L9.26147 7.71466C9.2876 7.7328 9.3191 7.74155 9.35083 7.73949C9.38258 7.73743 9.41269 7.72469 9.43626 7.70331L10.1427 7.06819C10.1583 7.05415 10.1707 7.03687 10.179 7.01757C10.1872 6.99827 10.1912 6.9774 10.1905 6.95642C10.1899 6.93544 10.1848 6.91484 10.1754 6.89606C10.166 6.87728 10.1526 6.86077 10.1362 6.84767L9.46171 6.30544C9.43793 6.28641 9.40866 6.27551 9.37822 6.27435C9.34778 6.27318 9.31776 6.28181 9.2926 6.29896L8.41927 6.89939C8.40036 6.91262 8.38486 6.93014 8.37404 6.95052C8.36321 6.97089 8.35738 6.99339 8.35701 7.01646ZM6.26223 7.80352C6.29628 7.83433 6.31379 7.87973 6.30925 7.92562C6.30714 7.94831 6.29958 7.97015 6.28721 7.98929C6.27485 8.00843 6.25805 8.0243 6.23823 8.03555L5.73542 8.33861C5.68434 8.36909 5.61997 8.36471 5.57359 8.32742C5.52722 8.29012 5.50825 8.22769 5.52625 8.17046L5.71223 7.5822C5.7193 7.55936 5.73199 7.53867 5.74912 7.52201C5.76626 7.50535 5.78731 7.49326 5.81033 7.48685C5.83327 7.48012 5.85756 7.47949 5.88081 7.48501C5.90407 7.49052 5.92549 7.502 5.94296 7.5183L6.26223 7.80352ZM8.99003 7.86514L8.08071 7.23957C8.05716 7.22362 8.02938 7.21509 8.00093 7.21509C7.97249 7.21509 7.9447 7.22362 7.92115 7.23957L7.01183 7.86498C6.99393 7.8775 6.97904 7.89387 6.96827 7.9129C6.9575 7.93192 6.9511 7.95311 6.94957 7.97492C6.94837 7.9969 6.95204 8.01886 6.9603 8.03928C6.96858 8.05968 6.98125 8.078 6.99741 8.09296L7.90592 8.90985C7.93198 8.93335 7.96583 8.94636 8.00093 8.94636C8.03603 8.94636 8.06988 8.93335 8.09595 8.90985L9.0043 8.0928C9.02048 8.07794 9.03312 8.05963 9.04125 8.03921C9.0494 8.0188 9.05284 7.99683 9.05132 7.97492C9.05015 7.95313 9.04401 7.93191 9.03339 7.91285C9.02277 7.8938 9.00794 7.87742 8.99003 7.86498V7.86514ZM6.5648 7.70331L5.85897 7.06819C5.84324 7.05379 5.8308 7.03617 5.82252 7.01652C5.81424 6.99687 5.8103 6.97567 5.81098 6.95436C5.81131 6.93335 5.81628 6.91268 5.82553 6.89381C5.83478 6.87495 5.84808 6.85836 5.86449 6.84523L6.53902 6.29977C6.56299 6.28073 6.5924 6.26983 6.623 6.26867C6.65359 6.2675 6.68376 6.27613 6.70911 6.29329L7.58162 6.89371C7.62216 6.92047 7.64647 6.96603 7.64647 7.015C7.64647 7.06396 7.62216 7.10937 7.58162 7.13613L6.74024 7.71466C6.68592 7.75196 6.61393 7.7471 6.5648 7.70331ZM10.1883 8.61572L9.46982 8.18343C9.44387 8.16769 9.41351 8.16076 9.3833 8.16369C9.35308 8.16662 9.32462 8.17922 9.30215 8.19965L8.42398 8.98735C8.40576 9.0038 8.39202 9.02458 8.38399 9.04777C8.37596 9.07095 8.37393 9.09579 8.37806 9.11997C8.3822 9.14416 8.39239 9.1669 8.40768 9.1861C8.42295 9.20529 8.44284 9.22032 8.46548 9.22976L9.68369 9.72593C9.71808 9.73961 9.75642 9.7394 9.79065 9.72537C9.82489 9.71133 9.85234 9.68457 9.86724 9.6507L10.245 8.80072C10.2599 8.76829 10.2623 8.73154 10.2518 8.69743C10.2414 8.66332 10.2188 8.63424 10.1883 8.61572ZM10.288 7.5822L10.474 8.17046H10.4724C10.4792 8.19215 10.4808 8.21513 10.4771 8.23757C10.4735 8.26001 10.4646 8.28127 10.4513 8.2997C10.4305 8.32852 10.3996 8.3485 10.3648 8.3557C10.33 8.36291 10.2937 8.35681 10.2632 8.33861L9.75957 8.03539C9.74016 8.02394 9.72378 8.00799 9.71182 7.98888C9.69985 7.96978 9.69265 7.94808 9.69082 7.92562C9.68847 7.903 9.69149 7.88014 9.69967 7.85891C9.70784 7.8377 9.72092 7.81871 9.73785 7.80352L10.0573 7.51749C10.0934 7.48506 10.1432 7.47323 10.1898 7.48604C10.2128 7.49271 10.2338 7.50498 10.251 7.52176C10.2681 7.53853 10.2809 7.5593 10.288 7.5822ZM7.62314 9.11982C7.62738 9.09571 7.62544 9.07091 7.6175 9.04773C7.60956 9.02457 7.59588 9.0038 7.57773 8.98735L6.6997 8.19949C6.67725 8.17906 6.64879 8.16644 6.61857 8.16353C6.58835 8.1606 6.558 8.16753 6.53204 8.18327L5.81373 8.61572C5.78357 8.63434 5.76114 8.66322 5.75057 8.69707C5.73999 8.73091 5.74198 8.76742 5.75617 8.79991L6.13446 9.65004C6.14926 9.68404 6.17674 9.71091 6.21105 9.72493C6.24537 9.73896 6.28381 9.73903 6.31818 9.72512L7.53557 9.22895C7.55823 9.21972 7.57817 9.20487 7.59351 9.18581C7.60886 9.16675 7.61911 9.1441 7.6233 9.11998L7.62314 9.11982ZM8.05427 9.36224L9.03138 9.75982C9.05494 9.77006 9.07534 9.78639 9.09046 9.80714C9.1056 9.82789 9.11493 9.8523 9.11747 9.87786C9.12054 9.90373 9.11653 9.92996 9.10585 9.95372C9.09517 9.97748 9.07823 9.99789 9.05683 10.0128L8.07908 10.6956C8.0557 10.7121 8.02781 10.7212 7.99915 10.7215C7.97056 10.721 7.94278 10.712 7.91938 10.6956L6.94227 10.0129C6.92079 9.99813 6.9037 9.97778 6.89284 9.95404C6.88199 9.9303 6.87776 9.90407 6.88063 9.87812C6.88349 9.85218 6.89332 9.82749 6.90909 9.8067C6.92485 9.78589 6.94597 9.76975 6.97017 9.75998L7.94726 9.3624C7.9816 9.34862 8.01993 9.34846 8.05427 9.36224Z" fill="#BF4722"/>
</svg>
