<svg width="16" height="16" viewBox="0 0 16 16" fill="none" xmlns="http://www.w3.org/2000/svg">
<rect x="2.5" y="2.5" width="11" height="11" rx="2.5" stroke="#D7FF64"/>
<g clip-path="url(#clip0_129_1010)">
<path d="M5 5.42857V11H7.57143V9.5C7.57143 9.2633 7.7633 9.07143 8 9.07143C8.2367 9.07143 8.42857 9.2633 8.42857 9.5V11H11V5.42857C11 5.19188 10.8081 5 10.5714 5H5.42857C5.19188 5 5 5.19188 5 5.42857Z" fill="#D7FF64"/>
<path d="M7.14258 7.57143V7.35715C7.14258 7.2388 7.23851 7.14286 7.35686 7.14286H8.64258C8.76093 7.14286 8.85686 7.2388 8.85686 7.35715V7.57143C8.85686 7.68978 8.76093 7.78572 8.64258 7.78572H7.35686C7.23851 7.78572 7.14258 7.68978 7.14258 7.57143Z" fill="#263300"/>
</g>
<defs>
<clipPath id="clip0_129_1010">
<rect width="6" height="6" fill="white" transform="translate(5 5)"/>
</clipPath>
</defs>
</svg>
