<svg width="16" height="16" viewBox="0 0 16 16" fill="none" xmlns="http://www.w3.org/2000/svg">
<rect x="2.5" y="2.5" width="11" height="11" rx="2.5" stroke="white"/>
<path fill-rule="evenodd" clip-rule="evenodd" d="M8.04106 10.8663C8.69746 8.50459 8.67846 8.49404 9.15271 6.81042L9.26668 6.87669C9.32873 6.91257 9.37939 6.88302 9.37939 6.81126V6.0086C9.50518 5.56496 9.60396 5.2222 9.63266 5.11899H10.1466L11.0003 5.9151L10.4398 6.40265L10.864 6.86403L8.06913 10.8663C8.05541 10.8889 8.03642 10.8839 8.04064 10.8663H8.04106Z" fill="white"/>
<path fill-rule="evenodd" clip-rule="evenodd" d="M8.34562 5.77644C8.37095 5.77644 8.39142 5.79037 8.39142 5.8081V6.21966C8.39142 6.23655 8.37242 6.2509 8.3471 6.2509H7.65693C7.6316 6.2509 7.6105 6.23676 7.6105 6.21924V5.80768C7.6105 5.79037 7.6316 5.77644 7.65693 5.77644H8.3471H8.34562ZM9.19745 5.32055L8.43806 5.76166C8.44693 5.77538 8.4522 5.79121 8.4522 5.8081V6.21966C8.4522 6.24077 8.44376 6.25976 8.42899 6.27559L9.19513 6.72093C9.24579 6.75153 9.29011 6.72663 9.29011 6.66605V5.37606C9.29011 5.31527 9.24579 5.29037 9.19513 5.32076L9.19745 5.32055ZM7.54845 6.21966V5.8081C7.54845 5.79121 7.55372 5.77538 7.56238 5.76166L6.80298 5.32055C6.75085 5.29037 6.70801 5.31527 6.70801 5.37585V6.66542C6.70801 6.72663 6.75064 6.74984 6.80298 6.7203L7.57019 6.27496C7.55647 6.25808 7.54824 6.23908 7.54824 6.21797L7.54845 6.21966Z" fill="white"/>
<path fill-rule="evenodd" clip-rule="evenodd" d="M7.93077 10.8663H7.95905C7.30266 8.50459 7.32165 8.49404 6.84762 6.81041L6.73364 6.87669C6.67159 6.91257 6.62073 6.88302 6.62073 6.81126V6.0086C6.4943 5.56474 6.3951 5.22198 6.36556 5.11856H5.85268L5 5.91489L5.56036 6.40244L5.13613 6.86381L7.93056 10.8655L7.93077 10.8663Z" fill="white"/>
<path d="M7.97874 7.1099C8.09321 7.1099 8.18601 7.01654 8.18601 6.90137C8.18601 6.78621 8.09321 6.69285 7.97874 6.69285C7.86428 6.69285 7.77148 6.78621 7.77148 6.90137C7.77148 7.01654 7.86428 7.1099 7.97874 7.1099Z" fill="white"/>
<path d="M7.97874 8.3503C8.09321 8.3503 8.18601 8.25694 8.18601 8.14178C8.18601 8.02661 8.09321 7.93325 7.97874 7.93325C7.86428 7.93325 7.77148 8.02661 7.77148 8.14178C7.77148 8.25694 7.86428 8.3503 7.97874 8.3503Z" fill="white"/>
<path d="M7.97874 9.59071C8.09321 9.59071 8.18601 9.49735 8.18601 9.38218C8.18601 9.26701 8.09321 9.17365 7.97874 9.17365C7.86428 9.17365 7.77148 9.26701 7.77148 9.38218C7.77148 9.49735 7.86428 9.59071 7.97874 9.59071Z" fill="white"/>
</svg>
