<svg width="16" height="16" viewBox="0 0 16 16" fill="none" xmlns="http://www.w3.org/2000/svg">
<rect x="2.5" y="2.5" width="11" height="11" rx="2.5" stroke="white"/>
<path d="M7.99739 6.05048C6.92242 6.05048 6.04785 6.92504 6.04785 8.00001C6.04785 9.07498 6.92242 9.94955 7.99739 9.94955C9.07236 9.94955 9.94693 9.07498 9.94693 8.00001C9.94693 6.92504 9.07236 6.05048 7.99739 6.05048ZM7.99739 9.00891C7.44012 9.00891 6.98849 8.55728 6.98849 8.00001C6.98849 7.44274 7.44012 6.99112 7.99739 6.99112C8.55466 6.99112 9.00628 7.44274 9.00628 8.00001C9.00628 8.55728 8.55466 9.00891 7.99739 9.00891Z" fill="white"/>
<path fill-rule="evenodd" clip-rule="evenodd" d="M8.16101 5.73026V5.00237C9.74315 5.08695 11 6.39681 11 8.00001C11 9.6032 9.74315 10.9127 8.16101 10.9976V10.2697C9.34017 10.1855 10.2739 9.20022 10.2739 8.00001C10.2739 6.79979 9.34017 5.81449 8.16101 5.73026ZM6.27827 9.48848C5.96569 9.12761 5.7642 8.668 5.72826 8.16337H5C5.03776 8.86949 5.3202 9.51026 5.76275 10.0036L6.27791 9.48848H6.27827ZM7.83429 10.9976V10.2697C7.32929 10.2338 6.86968 10.0327 6.50882 9.71974L5.99366 10.2349C6.4874 10.6778 7.12817 10.9599 7.83392 10.9976H7.83429Z" fill="white"/>
</svg>
