<svg width="16" height="16" viewBox="0 0 16 16" fill="none" xmlns="http://www.w3.org/2000/svg">
<rect x="2.5" y="2.5" width="11" height="11" rx="2.5" stroke="#FFD72F" stroke-linecap="round"/>
<path d="M10.9765 5.88805L8.16158 10.9217C8.10346 11.0256 7.95414 11.0262 7.89515 10.9228L5.02437 5.88853C4.96011 5.77583 5.05648 5.63932 5.18419 5.66215L8.00216 6.16584C8.02014 6.16906 8.03855 6.16903 8.05652 6.16575L10.8156 5.66287C10.9428 5.63967 11.0397 5.77513 10.9765 5.88805Z" fill="url(#paint0_linear_129_1083)"/>
<path d="M9.34438 5.00148L7.26122 5.40966C7.22699 5.41637 7.20164 5.44539 7.19957 5.48021L7.07143 7.64444C7.06841 7.69542 7.11523 7.73498 7.16498 7.72351L7.74496 7.58966C7.79922 7.57714 7.84826 7.62493 7.8371 7.67951L7.66479 8.52328C7.6532 8.58007 7.70651 8.62863 7.76197 8.61179L8.12019 8.50295C8.17573 8.48609 8.22909 8.53479 8.21734 8.59162L7.94351 9.91701C7.92637 9.99991 8.03665 10.0451 8.08264 9.97404L8.11336 9.92657L9.81083 6.53898C9.83925 6.48226 9.79023 6.41758 9.72794 6.4296L9.13094 6.54482C9.07484 6.55564 9.02711 6.50339 9.04294 6.4485L9.43259 5.09775C9.44844 5.04276 9.40054 4.99047 9.34438 5.00148Z" fill="url(#paint1_linear_129_1083)"/>
<defs>
<linearGradient id="paint0_linear_129_1083" x1="4.95428" y1="5.48225" x2="8.45772" y2="10.2402" gradientUnits="userSpaceOnUse">
<stop stop-color="#41D1FF"/>
<stop offset="1" stop-color="#BD34FE"/>
</linearGradient>
<linearGradient id="paint1_linear_129_1083" x1="7.84029" y1="5.1123" x2="8.47404" y2="9.45979" gradientUnits="userSpaceOnUse">
<stop stop-color="#FFEA83"/>
<stop offset="0.0833333" stop-color="#FFDD35"/>
<stop offset="1" stop-color="#FFA800"/>
</linearGradient>
</defs>
</svg>
