<svg width="16" height="16" viewBox="0 0 16 16" fill="none" xmlns="http://www.w3.org/2000/svg">
<rect x="2.5" y="2.5" width="11" height="11" rx="2.5" stroke="#67D55E" stroke-linecap="round"/>
<path fill-rule="evenodd" clip-rule="evenodd" d="M6.54472 5.91021C6.59228 5.39965 7.02192 5 7.5449 5C8.06789 5 8.49752 5.39965 8.54507 5.91021H9.08525C9.64005 5.91021 10.0898 6.35995 10.0898 6.91475V7.45493C10.6004 7.50248 11 7.93211 11 8.4551C11 8.97808 10.6004 9.40773 10.0898 9.45528V9.99546C10.0898 10.5503 9.64005 11 9.08525 11H8.0807V10.6256C8.0807 10.3297 7.84081 10.0898 7.5449 10.0898C7.24899 10.0898 7.0091 10.3297 7.0091 10.6256V11H5V8.9909H5.37441C5.67032 8.9909 5.91021 8.75101 5.91021 8.4551C5.91021 8.15919 5.67032 7.9193 5.37441 7.9193H5V6.91475C5 6.35995 5.44975 5.91021 6.00455 5.91021H6.54472ZM7.5449 5.46875C7.24899 5.46875 7.0091 5.70864 7.0091 6.00455V6.37896H6.00455C5.70863 6.37896 5.46875 6.61884 5.46875 6.91475V7.45493C5.97931 7.50248 6.37896 7.93211 6.37896 8.4551C6.37896 8.97808 5.97931 9.40772 5.46875 9.45528V10.5312H6.54472C6.59228 10.0207 7.02192 9.62104 7.5449 9.62104C8.06789 9.62104 8.49752 10.0207 8.54507 10.5312H9.08525C9.38116 10.5312 9.62104 10.2914 9.62104 9.99546V8.9909H9.99546C10.2914 8.9909 10.5312 8.75102 10.5312 8.4551C10.5312 8.15918 10.2914 7.9193 9.99546 7.9193H9.62104V6.91475C9.62104 6.61884 9.38116 6.37896 9.08525 6.37896H8.0807V6.00455C8.0807 5.70863 7.84081 5.46875 7.5449 5.46875Z" fill="#67D55E"/>
</svg>
