<svg width="16" height="16" viewBox="0 0 16 16" fill="none" xmlns="http://www.w3.org/2000/svg">
<rect x="1" y="4" width="14" height="10" rx="3" fill="white"/>
<path d="M8.14419 11.0016C8.28438 11.0016 8.40855 10.9355 8.6709 10.9355C8.93526 10.9355 9.00734 11.0016 9.2036 11.0016C9.50001 11.0016 9.65621 10.8795 9.65621 10.6712C9.65621 10.3187 9.27369 10.0824 8.66889 10.0824C8.3725 10.0824 8.24033 10.1105 8.0721 10.1525L7.85581 9.65985C7.64352 9.18722 7.30107 8.87881 6.81642 8.87881H6.58011C6.502 8.87881 6.44993 8.84476 6.44993 8.76866C6.44993 8.64449 6.61616 8.61445 6.7984 8.61445C7.38519 8.61445 7.81775 8.93688 8.08211 9.58576L8.22029 9.92019C8.35447 9.89216 8.50067 9.87815 8.64887 9.87815C8.76702 9.87815 8.87517 9.88615 8.98932 9.90216C9.11148 9.81205 9.24968 9.71793 9.45194 9.62981C9.67623 9.78201 9.93257 9.88014 10.1989 9.88014C10.7517 9.88014 11 9.75999 11 9.23729C11 8.60644 10.5434 8.13381 9.93659 8.13582L9.39987 7.42086C9.10147 7.02634 8.73898 6.84009 8.3825 6.84009C8.09013 6.84009 7.65554 7.00831 7.65554 7.24463C7.65554 7.40484 7.97996 7.62914 8.23032 7.78335L9.38386 8.48829C9.29373 8.5744 9.21362 8.62046 9.11349 8.62046C8.95927 8.62046 8.79706 8.52634 8.55474 8.38615C7.93792 8.02967 7.46129 7.69523 6.82043 7.69523C6.15354 7.69523 5.64686 8.07774 5.3765 8.82273C5.16222 8.82273 5 8.96293 5 9.16919C5 9.4015 5.18425 9.54769 5.43658 9.54769C5.72897 9.95624 6.20761 10.1205 6.77437 10.1205C6.80441 10.1205 6.83445 10.1185 6.86449 10.1185L7.67557 10.7914C7.87784 10.9716 7.99198 11.0016 8.14419 11.0016ZM6.69626 11.1599C7.08277 11.1599 7.31909 11.0857 7.51135 10.9536L6.89052 10.4369C6.86248 10.4389 6.82844 10.4429 6.78638 10.4429C6.68625 10.4429 6.53805 10.4129 6.36182 10.4129C6.13752 10.4129 5.99933 10.533 5.99933 10.7132C5.99933 10.9816 6.2717 11.1599 6.69626 11.1599ZM10.1529 9.14116C10.0628 9.14116 9.99065 9.06505 9.99065 8.97693C9.99065 8.88682 10.0648 8.80671 10.1549 8.80671C10.247 8.80671 10.3191 8.87881 10.3191 8.96894C10.3191 9.05905 10.245 9.14116 10.1529 9.14116Z" fill="black"/>
</svg>
