<svg width="16" height="16" viewBox="0 0 16 16" fill="none" xmlns="http://www.w3.org/2000/svg">
<rect x="1" y="4" width="14" height="10" rx="3" fill="#69D3A7"/>
<path d="M5.26789 9.79486C5.19715 9.53724 5.16113 9.26968 5.16113 9.00017C5.16113 7.76991 5.93379 6.64501 7.08392 6.20142L7.23473 6.59169C6.24471 6.97362 5.57977 7.94145 5.57977 9.00017C5.57977 9.2324 5.61064 9.46241 5.67141 9.68403L5.26789 9.79486Z" fill="black"/>
<path d="M10.468 7.81166C10.0204 6.95241 9.13939 6.41854 8.16931 6.41854C7.82558 6.41854 7.49151 6.48472 7.17704 6.61481L7.0166 6.22838C7.38218 6.07709 7.76997 6 8.16931 6C9.29631 6 10.3194 6.61995 10.8394 7.61829L10.468 7.81166Z" fill="black"/>
<path d="M7.27086 8.38119C7.51361 8.38119 7.71137 8.51064 7.81297 8.73644L7.821 8.75411L8.22872 8.61568L8.22004 8.59479C8.06216 8.2103 7.6985 7.97131 7.27086 7.97131C6.97022 7.97131 6.72585 8.06767 6.52392 8.26554C6.32328 8.46213 6.22168 8.70946 6.22168 9.0008C6.22168 9.28959 6.32328 9.53562 6.52392 9.73222C6.72585 9.93009 6.97022 10.0264 7.27086 10.0264C7.6985 10.0264 8.06216 9.78746 8.22004 9.40329L8.22872 9.38242L7.82036 9.24365L7.81265 9.26195C7.72164 9.48391 7.51909 9.61657 7.27086 9.61657C7.10173 9.61657 6.95896 9.55747 6.84578 9.4412C6.73131 9.3233 6.67344 9.17523 6.67344 9.00112C6.67344 8.82575 6.73003 8.68055 6.84578 8.55721C6.95864 8.44029 7.10173 8.38119 7.27086 8.38119Z" fill="black"/>
<path d="M9.82404 8.00922L9.24302 9.47942L8.65813 8.00922H8.17969L8.99992 10.0159L8.41633 11.4311L8.83466 11.5143L10.2761 8.00922H9.82404Z" fill="black"/>
<path d="M8.49156 11.2487L8.38962 11.4954C8.36937 11.5442 8.32307 11.5773 8.27099 11.5795C8.23658 11.5808 8.20186 11.5818 8.16679 11.5818C6.96714 11.5811 5.90575 10.7354 5.64273 9.57001L5.23438 9.6622C5.38196 10.3159 5.75237 10.9092 6.27744 11.3332C6.80863 11.762 7.47775 11.9987 8.16229 12C8.16327 12 8.16841 12 8.16841 12C8.20861 12 8.24847 11.999 8.28833 11.9974C8.50313 11.9885 8.69509 11.8539 8.77709 11.6544L8.91019 11.3319L8.49156 11.2487Z" fill="black"/>
</svg>
