<svg width="16" height="16" viewBox="0 0 16 16" fill="none" xmlns="http://www.w3.org/2000/svg">
<rect x="1" y="4" width="14" height="10" rx="3" fill="white"/>
<path d="M6.51402 12H9.48603C10.0653 12 10.3536 11.7062 10.3536 11.1241V8.58302H8.32746C7.96925 8.58302 7.79854 8.41231 7.79854 8.0541V6H6.51402C5.93753 6 5.64648 6.29664 5.64648 6.87873V11.1241C5.64648 11.709 5.93473 12 6.51402 12ZM8.33585 8.19963H10.32C10.3032 8.08489 10.222 7.97295 10.0877 7.83582L8.54574 6.26586C8.41421 6.13153 8.29947 6.05037 8.18193 6.03078V8.04851C8.18193 8.14925 8.23231 8.19963 8.33585 8.19963Z" fill="black"/>
</svg>
