<svg width="16" height="16" viewBox="0 0 16 16" fill="none" xmlns="http://www.w3.org/2000/svg">
<rect x="1" y="4" width="14" height="10" rx="3" fill="#326CE5"/>
<path d="M7.99982 6.06934C7.90577 6.06935 7.82951 6.15406 7.82952 6.25856C7.82952 6.26017 7.82985 6.2617 7.82988 6.26329C7.82974 6.27749 7.82906 6.2946 7.82952 6.30696C7.83176 6.36723 7.8449 6.41336 7.85281 6.46889C7.86714 6.58774 7.87914 6.68627 7.87173 6.77784C7.86453 6.81237 7.83909 6.84395 7.81642 6.8659L7.81242 6.93795C7.71021 6.94642 7.60733 6.96192 7.50456 6.98526C7.06236 7.08566 6.68164 7.31344 6.39178 7.62098C6.37297 7.60815 6.34006 7.58454 6.33028 7.57731C6.29987 7.58142 6.26914 7.5908 6.22912 7.56749C6.1529 7.51618 6.08349 7.44537 5.9995 7.36007C5.96101 7.31926 5.93314 7.28041 5.88742 7.24107C5.87704 7.23214 5.86119 7.22006 5.84957 7.21087C5.81383 7.18237 5.77166 7.16751 5.73095 7.16611C5.67859 7.16432 5.62819 7.18479 5.59521 7.22615C5.53658 7.29969 5.55535 7.4121 5.63706 7.47724C5.63789 7.4779 5.63877 7.47841 5.63961 7.47906C5.65084 7.48816 5.66459 7.49982 5.67491 7.50744C5.72343 7.54327 5.76775 7.56161 5.8161 7.59005C5.91795 7.65295 6.00239 7.70511 6.06937 7.76799C6.09552 7.79587 6.10009 7.845 6.10357 7.86624L6.15816 7.915C5.86595 8.35475 5.73072 8.89792 5.81064 9.45136L5.73932 9.4721C5.72052 9.49638 5.69395 9.53457 5.66617 9.54597C5.57854 9.57358 5.47993 9.58371 5.36087 9.59619C5.30497 9.60084 5.25674 9.59807 5.19748 9.60929C5.18443 9.61176 5.16626 9.6165 5.15199 9.61985C5.15149 9.61995 5.15103 9.6201 5.15053 9.62021C5.14976 9.62039 5.14874 9.62077 5.14799 9.62094C5.04761 9.64519 4.98313 9.73745 5.00389 9.82836C5.02465 9.91928 5.1227 9.97457 5.22368 9.95281C5.22441 9.95264 5.22546 9.95261 5.22622 9.95244C5.22736 9.95218 5.22837 9.95163 5.2295 9.95135C5.24358 9.94826 5.26122 9.94482 5.27353 9.94153C5.33179 9.92593 5.37399 9.90301 5.42637 9.88294C5.53905 9.84253 5.63238 9.80876 5.7233 9.79561C5.76128 9.79263 5.80129 9.81904 5.82119 9.83018L5.89542 9.81744C6.06625 10.3471 6.42425 10.7751 6.87757 11.0438L6.84664 11.118C6.85779 11.1468 6.87009 11.1858 6.86178 11.2143C6.82873 11.3 6.77211 11.3905 6.70764 11.4913C6.67642 11.538 6.64447 11.5741 6.6163 11.6274C6.60956 11.6402 6.60097 11.6598 6.59446 11.6733C6.55069 11.7669 6.5828 11.8748 6.66688 11.9153C6.75149 11.956 6.85651 11.9131 6.90195 11.8192C6.90202 11.8191 6.90225 11.819 6.90232 11.8189C6.90236 11.8188 6.90227 11.8186 6.90232 11.8185C6.90879 11.8052 6.91796 11.7877 6.92342 11.7752C6.94755 11.7199 6.95558 11.6725 6.97255 11.6191C7.01761 11.5059 7.04237 11.3871 7.1044 11.3131C7.12138 11.2929 7.14907 11.2851 7.17779 11.2774L7.21636 11.2075C7.61156 11.3592 8.05392 11.3999 8.49581 11.2996C8.59661 11.2767 8.69393 11.2471 8.78801 11.2115C8.79886 11.2307 8.819 11.2677 8.8244 11.277C8.85358 11.2865 8.88543 11.2914 8.91137 11.3298C8.95778 11.4091 8.98952 11.5029 9.02818 11.6162C9.04515 11.6696 9.05354 11.717 9.07767 11.7723C9.08317 11.7849 9.0923 11.8026 9.09878 11.8159C9.14413 11.9101 9.24949 11.9532 9.33422 11.9124C9.41829 11.8719 9.45043 11.764 9.40663 11.6704C9.40013 11.6569 9.39118 11.6373 9.38444 11.6245C9.35626 11.5712 9.32432 11.5354 9.2931 11.4888C9.22862 11.3879 9.17514 11.3041 9.14208 11.2184C9.12826 11.1742 9.14441 11.1467 9.15518 11.118C9.14873 11.1106 9.13493 11.0689 9.1268 11.0492C9.59791 10.7711 9.9454 10.327 10.1086 9.81417C10.1306 9.81763 10.1689 9.82441 10.1814 9.8269C10.207 9.81001 10.2305 9.78797 10.2767 9.7916C10.3676 9.80475 10.461 9.83853 10.5736 9.87894C10.626 9.899 10.6682 9.92229 10.7265 9.93789C10.7388 9.94119 10.7564 9.94426 10.7705 9.94735C10.7716 9.94763 10.7726 9.94818 10.7738 9.94844C10.7745 9.94861 10.7756 9.94864 10.7763 9.94881C10.8773 9.97055 10.9754 9.91528 10.9961 9.82435C11.0169 9.73344 10.9524 9.64116 10.852 9.61693C10.8374 9.61361 10.8167 9.60798 10.8025 9.60529C10.7433 9.59407 10.695 9.59683 10.6391 9.59219C10.5201 9.57971 10.4215 9.56957 10.3338 9.54197C10.2981 9.52811 10.2727 9.4856 10.2603 9.4681L10.1916 9.44809C10.2272 9.19011 10.2176 8.92162 10.1559 8.65298C10.0936 8.38184 9.98354 8.13385 9.83675 7.91537C9.8544 7.89933 9.88771 7.86983 9.89716 7.86115C9.89992 7.83059 9.89755 7.79855 9.92918 7.76472C9.99616 7.70183 10.0806 7.64968 10.1825 7.58677C10.2308 7.55833 10.2755 7.54 10.324 7.50417C10.335 7.49607 10.35 7.48324 10.3615 7.47397C10.4432 7.4088 10.462 7.2964 10.4033 7.22288C10.3447 7.14935 10.231 7.14243 10.1493 7.2076C10.1377 7.2168 10.1219 7.22882 10.1115 7.2378C10.0658 7.27713 10.0375 7.31598 9.99905 7.35679C9.91507 7.4421 9.84564 7.51327 9.76943 7.56457C9.73641 7.5838 9.68804 7.57715 9.66609 7.57586L9.60132 7.62207C9.23196 7.23476 8.72908 6.98714 8.18759 6.93904C8.18608 6.91635 8.18409 6.87533 8.18359 6.86299C8.16142 6.84178 8.13464 6.82367 8.12791 6.77784C8.1205 6.68626 8.13287 6.58774 8.1472 6.46889C8.15511 6.41336 8.16825 6.36723 8.17049 6.30696C8.171 6.29326 8.17018 6.27338 8.17012 6.25856C8.17011 6.15406 8.09387 6.06933 7.99982 6.06934ZM7.78658 7.39027L7.736 8.28363L7.73236 8.28545C7.72897 8.36537 7.66319 8.42919 7.58244 8.42919C7.54936 8.42919 7.51882 8.41856 7.49401 8.40044L7.49255 8.40117L6.76004 7.88189C6.98517 7.66051 7.27313 7.49691 7.605 7.42156C7.66562 7.4078 7.72621 7.39759 7.78658 7.39027ZM8.21343 7.39027C8.60088 7.43792 8.95921 7.61337 9.23378 7.88225L8.506 8.39826L8.50345 8.39716C8.43885 8.44434 8.34784 8.43264 8.29749 8.36951C8.27686 8.34365 8.26604 8.31324 8.26474 8.28254L8.26401 8.28217L8.21343 7.39027ZM6.49439 8.21558L7.16323 8.81382L7.1625 8.81746C7.22287 8.86994 7.23178 8.96101 7.18143 9.02415C7.1608 9.05001 7.13319 9.06736 7.10355 9.07546L7.10283 9.07837L6.24549 9.32582C6.20186 8.92682 6.2959 8.53895 6.49439 8.21558ZM9.50052 8.21594C9.59989 8.37702 9.67515 8.55692 9.71995 8.75196C9.76421 8.94466 9.77532 9.13701 9.75706 9.32291L8.89536 9.07473L8.89464 9.07109C8.81747 9.05 8.77005 8.97151 8.78802 8.89279C8.79538 8.86053 8.8125 8.83325 8.83569 8.81309L8.83532 8.81127L9.50052 8.21594ZM7.86263 8.86004H8.13665L8.30695 9.07291L8.24581 9.33855L7.99982 9.45682L7.7531 9.33819L7.69197 9.07255L7.86263 8.86004ZM8.74107 9.58855C8.75272 9.58796 8.76431 9.58901 8.77564 9.5911L8.7771 9.58928L9.66391 9.7392C9.53412 10.1038 9.28577 10.4197 8.95395 10.6311L8.60971 9.79961L8.6108 9.79815C8.57918 9.72468 8.61082 9.63851 8.68358 9.60347C8.7022 9.5945 8.72167 9.58953 8.74107 9.58855ZM7.25166 9.59219C7.31933 9.59314 7.38003 9.64011 7.39576 9.709C7.40312 9.74125 7.39954 9.7732 7.38739 9.80143L7.38994 9.8047L7.04933 10.6278C6.73089 10.4235 6.47724 10.1175 6.34156 9.74211L7.22073 9.59292L7.22218 9.59474C7.23202 9.59293 7.24199 9.59205 7.25166 9.59219ZM7.99436 9.95281C8.01794 9.95194 8.04186 9.95678 8.06459 9.96773C8.0944 9.98208 8.11742 10.0047 8.13192 10.0318H8.13519L8.56859 10.8149C8.51234 10.8337 8.45452 10.8498 8.39537 10.8633C8.06392 10.9385 7.73351 10.9157 7.43433 10.8138L7.86664 10.0321H7.86736C7.8933 9.98364 7.9425 9.95471 7.99436 9.95281Z" fill="white"/>
</svg>
