<svg width="16" height="16" viewBox="0 0 16 16" fill="none" xmlns="http://www.w3.org/2000/svg">
<rect x="1" y="4" width="14" height="10" rx="3" fill="white"/>
<path d="M7.99669 9.53501L7.2356 8.34395L7.23445 9.34469L5.92277 7.13385H5V10.8661H5.91245L5.91543 8.65802L7.21358 10.7672L7.99669 9.53501Z" fill="black"/>
<path d="M7.23559 8.09326H8.14688L8.14895 8.08269V7.13385H7.2365L7.23535 8.08269L7.23559 8.09326Z" fill="black"/>
<path d="M9.55582 9.12796C9.33751 9.12382 9.14027 9.25783 9.06348 9.46246C9.19131 9.27106 9.43473 9.19415 9.64915 9.27743C9.74821 9.31783 9.87847 9.38302 9.98166 9.34814C9.88351 9.21025 9.72494 9.12825 9.55582 9.12796Z" fill="black"/>
<path d="M10.5899 9.57705C10.5899 9.46525 10.5291 9.4393 10.403 9.39338C10.3094 9.36079 10.2033 9.32406 10.126 9.22304C10.1108 9.20307 10.0969 9.18057 10.0819 9.15669C10.0486 9.09486 10.0033 9.04024 9.94872 8.99598C9.87511 8.9418 9.77857 8.91541 9.65336 8.91541C9.40213 8.91558 9.17579 9.0674 9.08008 9.29994C9.20109 9.13184 9.40219 9.04076 9.60819 9.06076C9.81419 9.08076 9.99407 9.20882 10.0806 9.39706C10.1238 9.46846 10.209 9.50254 10.2895 9.48063C10.4126 9.45423 10.4041 9.57085 10.5901 9.61034L10.5899 9.57705Z" fill="black"/>
<path d="M10.9952 9.55317V9.55064C10.9924 8.81048 10.3923 8.17731 9.65256 8.17731C9.20074 8.177 8.77914 8.40447 8.53098 8.78247L8.52617 8.7742L8.14642 8.17731H7.23535L8.10101 9.53457L7.25622 10.8661H8.14114L8.52617 10.274L8.91806 10.8661H9.80322L9.00062 9.60161C8.98729 9.57697 8.98006 9.5495 8.97952 9.52148C8.97945 9.34288 9.0503 9.17158 9.17644 9.04529C9.30259 8.91899 9.4737 8.84807 9.6521 8.84814C10.024 8.84814 10.0862 9.07083 10.1665 9.17551C10.3249 9.38213 10.6414 9.29168 10.6414 9.5612C10.6423 9.62436 10.6768 9.68222 10.7319 9.71298C10.787 9.74373 10.8544 9.74273 10.9085 9.71033C10.9627 9.67794 10.9955 9.61908 10.9945 9.55592V9.55317H10.9952Z" fill="black"/>
<path d="M10.9969 9.74371C11.0059 9.80667 10.997 9.87087 10.9712 9.92898C10.9207 10.0458 10.8366 10.0068 10.8366 10.0068C10.8366 10.0068 10.7641 9.97146 10.8081 9.90374C10.857 9.8282 10.9535 9.83693 10.9969 9.74371Z" fill="black"/>
</svg>
