<svg width="16" height="16" viewBox="0 0 16 16" fill="none" xmlns="http://www.w3.org/2000/svg">
<rect x="1" y="4" width="14" height="10" rx="3" fill="#E2574C"/>
<path d="M7.41559 9.99961V9.6097L6.33222 9.9169C6.33222 9.9169 6.41227 9.45177 6.97728 9.29149C7.14862 9.24293 7.29482 9.24326 7.41559 9.26658V7.66726H7.95803C7.89897 7.48475 7.84183 7.34424 7.79384 7.24661C7.71446 7.08502 7.63308 7.19214 7.44833 7.34666C7.31822 7.45536 6.98936 7.68727 6.49449 7.82062C5.99961 7.95406 5.59953 7.91867 5.4326 7.88976C5.19595 7.84893 5.07217 7.79696 5.08375 7.97696C5.09383 8.13573 5.13165 8.38188 5.21828 8.70699C5.4057 9.41102 6.0251 10.7676 7.19569 10.4523C7.50147 10.3699 7.7173 10.2071 7.8669 9.99953H7.41559V9.99961ZM5.66742 8.71665L6.49932 8.49751C6.49932 8.49751 6.47507 8.81753 6.16321 8.89975C5.85126 8.98188 5.66742 8.71665 5.66742 8.71665Z" fill="black"/>
<path d="M10.5473 7.68576C10.331 7.72367 9.81224 7.7709 9.17111 7.59905C8.5298 7.4273 8.1043 7.12692 7.93572 6.98573C7.69674 6.78557 7.59161 6.64646 7.48816 6.85687C7.3967 7.04246 7.27974 7.3445 7.16653 7.76732C6.92123 8.68292 6.73789 10.6151 8.25432 11.0217C9.77044 11.4279 10.5776 9.66284 10.8229 8.74715C10.9361 8.32441 10.9858 8.0043 10.9994 7.79789C11.015 7.56408 10.8544 7.63195 10.5473 7.68576ZM7.50048 8.44328C7.50048 8.44328 7.73946 8.0716 8.14478 8.1868C8.55036 8.30201 8.58177 8.7504 8.58177 8.7504L7.50048 8.44328ZM8.48989 10.1112C7.77695 9.90232 7.667 9.33381 7.667 9.33381L9.58218 9.86926C9.58218 9.86918 9.1956 10.3174 8.48989 10.1112ZM9.16702 8.94281C9.16702 8.94281 9.40567 8.57139 9.81092 8.68692C10.2162 8.8023 10.2481 9.25069 10.2481 9.25069L9.16702 8.94281Z" fill="black"/>
<path d="M7.03708 9.71704L6.33231 9.91679C6.33231 9.91679 6.40886 9.48066 6.92805 9.30781L6.52897 7.81012L6.49449 7.8206C5.99961 7.95406 5.59953 7.91865 5.4326 7.88974C5.19596 7.84893 5.07217 7.79694 5.08375 7.97696C5.09383 8.13573 5.13165 8.38187 5.21828 8.70699C5.4057 9.41101 6.0251 10.7676 7.19569 10.4523L7.23017 10.4415L7.03708 9.71704ZM5.6675 8.71665L6.4994 8.49749C6.4994 8.49749 6.47516 8.81752 6.16329 8.89973C5.85134 8.98186 5.6675 8.71665 5.6675 8.71665Z" fill="black"/>
<path d="M8.52205 10.119L8.4898 10.1111C7.77687 9.90232 7.66691 9.33381 7.66691 9.33381L8.65449 9.60986L9.17735 7.60072L9.17102 7.59905C8.52971 7.4273 8.10423 7.12692 7.93563 6.98573C7.69665 6.78557 7.59153 6.64646 7.48807 6.85687C7.3967 7.04246 7.27974 7.3445 7.16653 7.76732C6.92123 8.68292 6.73789 10.6151 8.25432 11.0217L8.2854 11.0287L8.52205 10.119ZM7.50048 8.44328C7.50048 8.44328 7.73946 8.0716 8.14478 8.1868C8.55036 8.30201 8.58177 8.7504 8.58177 8.7504L7.50048 8.44328Z" fill="black"/>
</svg>
