<svg width="16" height="16" viewBox="0 0 16 16" fill="none" xmlns="http://www.w3.org/2000/svg">
<rect x="1" y="4" width="14" height="10" rx="3" fill="#9999FF"/>
<path d="M9.41602 9.7249L9.58935 9.28658H10.0898L9.85231 8.62168L10.1494 7.87048L11.0002 10.1295H10.3727L10.2273 9.7249H9.41602Z" fill="black"/>
<path d="M8.88008 10.1295L9.7909 7.87048L9.18706 7.87049L8.564 9.33031L8.12095 7.87049H7.65681L7.18109 9.33031L6.8456 8.6651L6.54199 9.60045L6.85024 10.1295H7.4445L7.87439 8.82035L8.28426 10.1295H8.88008Z" fill="black"/>
<path d="M5.57318 9.35402H5.94512C6.05779 9.35402 6.15811 9.34144 6.24609 9.31629L6.34228 9.01996L6.61111 8.19174C6.59063 8.15927 6.56724 8.12858 6.54095 8.09965C6.40293 7.94687 6.20098 7.87048 5.93511 7.87048H5V10.1295H5.57318V9.35402ZM6.0655 8.39019C6.11941 8.44445 6.14637 8.51707 6.14637 8.60803C6.14637 8.6997 6.12266 8.7724 6.07524 8.82614C6.02327 8.88584 5.92756 8.9157 5.78813 8.9157H5.57318V8.3088H5.78971C5.91966 8.3088 6.01159 8.33593 6.0655 8.39019Z" fill="black"/>
</svg>
