<svg width="16" height="16" viewBox="0 0 16 16" fill="none" xmlns="http://www.w3.org/2000/svg">
<rect x="1" y="4" width="14" height="10" rx="3" fill="white"/>
<path d="M9.69467 7.91223C9.87024 7.90714 10.0178 7.7621 10.0178 7.58653C10.0178 7.40841 9.87024 7.25829 9.69467 7.25829C9.52163 7.25829 9.3715 7.40841 9.3715 7.58653C9.3715 7.7621 9.52163 7.91478 9.69467 7.91223ZM9.69467 9.3219C9.87024 9.31682 10.0178 9.17178 10.0178 8.9962C10.0178 8.81809 9.87024 8.66796 9.69467 8.66796C9.52163 8.66796 9.3715 8.81809 9.3715 8.9962C9.3715 9.17178 9.52163 9.32445 9.69467 9.3219ZM9.69467 10.7316C9.87024 10.7265 10.0178 10.5814 10.0178 10.4059C10.0178 10.2278 9.87024 10.0776 9.69467 10.0776C9.52163 10.0776 9.3715 10.2278 9.3715 10.4059C9.3715 10.5814 9.52163 10.7341 9.69467 10.7316ZM10.7786 8.48729V8.10307H5.22901V8.48729H10.7786ZM10.7786 9.90206V9.51784H5.22901V9.90206H10.7786ZM5.79898 11.3423H10.201C10.7354 11.3423 11 11.0802 11 10.556V7.44658C11 6.92241 10.7354 6.65778 10.201 6.65778H5.79898C5.26718 6.65778 5 6.92241 5 7.44658V10.556C5 11.0802 5.26718 11.3423 5.79898 11.3423ZM5.80407 10.9326C5.54962 10.9326 5.40967 10.7977 5.40967 10.5331V7.46948C5.40967 7.20485 5.54962 7.06745 5.80407 7.06745H10.1959C10.4478 7.06745 10.5903 7.20485 10.5903 7.46948V10.5331C10.5903 10.7977 10.4478 10.9326 10.1959 10.9326H5.80407Z" fill="black"/>
</svg>
