<svg width="16" height="16" viewBox="0 0 16 16" fill="none" xmlns="http://www.w3.org/2000/svg">
<rect x="1" y="4" width="14" height="10" rx="3" fill="#FF4785"/>
<path d="M5.77799 11.529L5.59199 6.57601C5.58918 6.49734 5.61722 6.42069 5.67013 6.36241C5.72303 6.30412 5.79662 6.26881 5.87519 6.26401L10.0872 6.00061C10.1283 5.99799 10.1696 6.00383 10.2084 6.01778C10.2472 6.03174 10.2827 6.0535 10.3128 6.08173C10.3428 6.10996 10.3668 6.14406 10.3831 6.18191C10.3995 6.21977 10.4079 6.26057 10.4079 6.30181V11.6985C10.4078 11.7392 10.3995 11.7796 10.3835 11.817C10.3675 11.8545 10.344 11.8883 10.3145 11.9164C10.2851 11.9446 10.2502 11.9665 10.2121 11.9808C10.1739 11.9951 10.1333 12.0015 10.0926 11.9997L6.06599 11.8188C5.99034 11.8154 5.91874 11.7837 5.86539 11.7299C5.81205 11.6762 5.78085 11.6047 5.77799 11.529Z" fill="black"/>
<path fill-rule="evenodd" clip-rule="evenodd" d="M9.75589 6.0213L9.17629 6.0573L9.14809 6.7374C9.14774 6.74591 9.14982 6.75434 9.15407 6.76172C9.15833 6.76909 9.16459 6.77511 9.17213 6.77907C9.17967 6.78303 9.18818 6.78477 9.19667 6.78408C9.20516 6.7834 9.21328 6.78032 9.22009 6.7752L9.48409 6.5748L9.70729 6.7506C9.71403 6.75593 9.72215 6.75923 9.7307 6.76009C9.73925 6.76095 9.74787 6.75935 9.75554 6.75547C9.76321 6.75158 9.7696 6.74559 9.77397 6.73819C9.77834 6.73079 9.7805 6.72229 9.78019 6.7137L9.75589 6.0213ZM9.30469 8.2983C9.19879 8.3808 8.40799 8.4369 8.40799 8.3196C8.42479 7.8717 8.22439 7.8522 8.11279 7.8522C8.00719 7.8522 7.82899 7.884 7.82899 8.124C7.82899 8.3685 8.08939 8.5065 8.39509 8.6685C8.82919 8.89859 9.35509 9.17729 9.35509 9.87809C9.35509 10.5501 8.80909 10.9209 8.11309 10.9209C7.39459 10.9209 6.76669 10.6302 6.83749 9.62249C6.86539 9.50429 7.77889 9.53249 7.77889 9.62249C7.76749 10.0383 7.86229 10.1607 8.10169 10.1607C8.28559 10.1607 8.36899 10.0593 8.36899 9.88889C8.36899 9.63059 8.09779 9.47819 7.78549 9.30299C7.36279 9.06569 6.86539 8.78639 6.86539 8.1453C6.86539 7.5057 7.30549 7.0791 8.09059 7.0791C8.87599 7.0791 9.30469 7.4991 9.30469 8.2983Z" fill="#FF4785"/>
</svg>
