<svg width="16" height="16" viewBox="0 0 16 16" fill="none" xmlns="http://www.w3.org/2000/svg">
<rect x="1" y="4" width="14" height="10" rx="3" fill="#31A8FF"/>
<path d="M5.75253 10.5V8.2713H4.62988V7.5H7.9147V8.2713H6.79413V10.5H5.75253Z" fill="black"/>
<path d="M9.79969 10.5C9.46657 10.5 9.17972 10.4645 8.93913 10.3931C8.69852 10.3216 8.50885 10.2173 8.37005 10.0797C8.23124 9.94086 8.1473 9.77234 8.11822 9.57411L8.11426 9.54442H9.07197L9.07593 9.55812C9.08916 9.61497 9.1255 9.66396 9.18499 9.70508C9.24581 9.74467 9.32842 9.77564 9.43286 9.79822C9.53728 9.81929 9.66418 9.82995 9.81357 9.82995C9.93121 9.82995 10.0324 9.82005 10.1169 9.80025C10.2029 9.77893 10.269 9.74924 10.3152 9.71091C10.3615 9.67259 10.3846 9.62843 10.3846 9.57817V9.57614C10.3846 9.51269 10.3562 9.4665 10.2994 9.43731C10.2425 9.40812 10.1434 9.38579 10.0019 9.3698L9.27225 9.31624C8.89946 9.28071 8.62385 9.19264 8.4454 9.05254C8.26824 8.91117 8.17969 8.71548 8.17969 8.46574V8.46167C8.17969 8.26091 8.2405 8.08883 8.3621 7.94619C8.48504 7.80203 8.6602 7.69162 8.88756 7.61497C9.11494 7.53832 9.38593 7.5 9.70055 7.5C10.0165 7.5 10.2868 7.53629 10.5115 7.60914C10.7376 7.68046 10.916 7.7835 11.0469 7.91853C11.1778 8.0533 11.2591 8.21523 11.2908 8.40431L11.2967 8.43604H10.349L10.345 8.42005C10.3304 8.36447 10.2967 8.31904 10.2439 8.28325C10.1923 8.24619 10.1222 8.21853 10.0337 8.2C9.9451 8.1802 9.83867 8.1703 9.71444 8.1703C9.59149 8.1703 9.48969 8.17944 9.40905 8.19797C9.32842 8.21523 9.26761 8.24086 9.22664 8.27538C9.18565 8.30838 9.16517 8.34797 9.16517 8.39442V8.39619C9.16517 8.45964 9.19558 8.50736 9.25639 8.53909C9.31852 8.57081 9.42096 8.59391 9.56373 8.60838L10.3073 8.66396C10.5466 8.68782 10.7448 8.73325 10.9022 8.80076C11.0595 8.86701 11.1765 8.95812 11.2531 9.07437C11.3311 9.18934 11.3701 9.33097 11.3701 9.49873V9.50076C11.3701 9.70685 11.308 9.88553 11.1837 10.036C11.0595 10.1855 10.8804 10.3005 10.6464 10.3812C10.4124 10.4604 10.1302 10.5 9.79969 10.5Z" fill="black"/>
</svg>
