<svg width="16" height="16" viewBox="0 0 16 16" fill="none" xmlns="http://www.w3.org/2000/svg">
<rect x="1" y="4" width="14" height="10" rx="3" fill="white"/>
<path d="M7.99864 11.5943C8.0665 11.5943 8.13161 11.5916 8.19674 11.5862L8.34599 11.8657C8.38128 11.9362 8.4437 11.9634 8.51967 11.9552C8.59837 11.9417 8.64449 11.8901 8.65264 11.8141L8.69877 11.4993C8.82904 11.4641 8.95117 11.4179 9.07055 11.3636L9.30394 11.5753C9.36093 11.6296 9.43149 11.6323 9.49932 11.597C9.56715 11.559 9.5943 11.4939 9.57802 11.4179L9.51018 11.1086C9.61873 11.0326 9.71912 10.9457 9.81411 10.8562L10.1045 10.9756C10.1777 11.0027 10.2456 10.9864 10.2971 10.9267C10.3487 10.867 10.3541 10.7992 10.3107 10.7313L10.1425 10.4654C10.2157 10.3541 10.2809 10.2402 10.3406 10.1235L10.6526 10.1343C10.7313 10.1371 10.791 10.099 10.8182 10.0231C10.8453 9.95251 10.8263 9.88468 10.7639 9.83852L10.5115 9.64587C10.5468 9.51832 10.5685 9.38805 10.5821 9.25238L10.8806 9.1574C10.9566 9.13298 11 9.07871 11 9.00001C11 8.92131 10.9566 8.86432 10.8806 8.84262L10.5821 8.74763C10.5685 8.61194 10.5468 8.48168 10.5115 8.35414L10.7612 8.16147C10.8263 8.11533 10.8426 8.04749 10.8182 7.97422C10.791 7.89824 10.7313 7.86296 10.6526 7.86567L10.3406 7.87381C10.2809 7.75712 10.2157 7.64044 10.1425 7.53189L10.308 7.26866C10.3514 7.20081 10.346 7.13026 10.2999 7.07056C10.2456 7.01085 10.1777 6.99729 10.1072 7.02442L9.81411 7.14383C9.71912 7.04885 9.616 6.96472 9.51018 6.88874L9.57802 6.58209C9.5943 6.50339 9.56715 6.44098 9.50204 6.40299C9.43149 6.36228 9.36093 6.37313 9.30394 6.4247L9.06785 6.63365C8.95117 6.57938 8.82631 6.53596 8.69607 6.49797L8.65264 6.18589C8.64449 6.10991 8.59567 6.06106 8.52239 6.04478C8.4437 6.03121 8.38128 6.06377 8.34599 6.13161L8.19674 6.41113C8.13161 6.40841 8.0665 6.4057 7.99864 6.4057C7.9335 6.4057 7.86839 6.40841 7.80054 6.41113L7.654 6.13433C7.61601 6.06377 7.55359 6.03392 7.48032 6.04478C7.40163 6.05835 7.35549 6.10991 7.34464 6.18589L7.29851 6.49797C7.17096 6.53596 7.04613 6.58209 6.92673 6.63636L6.69607 6.4247C6.63908 6.37042 6.56852 6.36499 6.49796 6.40299C6.43012 6.44098 6.4057 6.5061 6.42198 6.58209L6.48711 6.89145C6.37856 6.96744 6.27815 7.05156 6.18317 7.14383L5.89281 7.02442C5.82225 6.99457 5.7517 7.01357 5.70014 7.07327C5.64857 7.13026 5.64586 7.20081 5.68928 7.26866L5.85753 7.5346C5.78155 7.64315 5.71642 7.75984 5.65943 7.87653L5.34735 7.86567C5.26594 7.86024 5.20896 7.90095 5.18182 7.97422C5.15197 8.04749 5.17368 8.11533 5.23609 8.16147L5.48575 8.35414C5.45319 8.48168 5.42877 8.61194 5.41791 8.74763L5.11669 8.84262C5.04071 8.86432 5 8.92131 5 9.00001C5 9.07871 5.04071 9.13298 5.11669 9.1574L5.41791 9.25238C5.42877 9.38805 5.45319 9.51832 5.48575 9.64587L5.23609 9.83852C5.17368 9.88468 5.15739 9.95251 5.1791 10.0258C5.20896 10.1018 5.26594 10.1371 5.34464 10.1343L5.65943 10.1235C5.71642 10.2429 5.78155 10.3569 5.85753 10.4681L5.68928 10.7313C5.64586 10.7992 5.654 10.8697 5.70014 10.9267C5.75441 10.9892 5.82225 11.0027 5.89281 10.9756L6.18317 10.8535C6.27815 10.9484 6.38127 11.0326 6.48711 11.1113L6.42198 11.4179C6.4057 11.4939 6.43284 11.559 6.49796 11.597C6.56852 11.6377 6.63908 11.6296 6.69335 11.5753L6.92944 11.3636C7.04885 11.4206 7.17368 11.4641 7.30122 11.4993L7.34464 11.8114C7.35549 11.8901 7.40434 11.9389 7.47761 11.9552C7.55631 11.9688 7.61601 11.9362 7.654 11.8657L7.80054 11.5862C7.86839 11.5916 7.9335 11.5943 7.99864 11.5943ZM7.99864 11.1438C6.81547 11.1438 5.85482 10.1832 5.85482 9.00001C5.85482 7.81411 6.81547 6.85617 7.99864 6.85617C9.18453 6.85617 10.1425 7.81411 10.1425 9.00001C10.1425 10.1832 9.18453 11.1438 7.99864 11.1438ZM7.52646 8.5848L7.84666 8.38127L6.9403 6.82632L6.60651 7.01357L7.52646 8.5848ZM8.60381 9.18452H10.4084V8.81004H8.60381V9.18452ZM7.85211 9.62686L7.5346 9.42061L6.57937 10.9783L6.91045 11.1737L7.85211 9.62686ZM8.00136 9.711C8.39484 9.711 8.71235 9.39349 8.71235 9.00001C8.71235 8.60651 8.39484 8.28901 8.00136 8.28901C7.60787 8.28901 7.29037 8.60651 7.29037 9.00001C7.29037 9.39349 7.60787 9.711 8.00136 9.711ZM8.00136 9.30393C7.8331 9.30393 7.69742 9.16824 7.69742 9.00001C7.69742 8.83175 7.8331 8.69606 8.00136 8.69606C8.16959 8.69606 8.30528 8.83175 8.30528 9.00001C8.30528 9.16824 8.16959 9.30393 8.00136 9.30393Z" fill="black"/>
</svg>
