<svg width="16" height="16" viewBox="0 0 16 16" fill="none" xmlns="http://www.w3.org/2000/svg">
<rect x="1" y="4" width="14" height="10" rx="3" fill="white"/>
<path d="M5.24332 7.94992C5.40581 7.94992 5.49166 7.85794 5.49166 7.69852V6.97496C5.49166 6.65611 5.66029 6.49361 5.96688 6.49361H6.70883C6.87132 6.49361 6.96023 6.4047 6.96023 6.24527C6.96023 6.08585 6.87132 6 6.70883 6H5.96074C5.31997 6 4.99805 6.31579 4.99805 6.94737V7.69852C4.99805 7.85794 5.08696 7.94992 5.24332 7.94992ZM10.7528 7.94992C10.9153 7.94992 11.0011 7.85794 11.0011 7.69852V6.94737C11.0011 6.31579 10.6792 6 10.0384 6H9.28725C9.12783 6 9.03892 6.08585 9.03892 6.24527C9.03892 6.4047 9.12783 6.49361 9.28725 6.49361H10.0292C10.3327 6.49361 10.5075 6.65611 10.5075 6.97496V7.69852C10.5075 7.85794 10.5964 7.94992 10.7528 7.94992ZM5.96074 12H6.70883C6.87132 12 6.96023 11.9111 6.96023 11.7547C6.96023 11.5953 6.87132 11.5064 6.70883 11.5064H5.96688C5.66029 11.5064 5.49166 11.3439 5.49166 11.025V10.3015C5.49166 10.139 5.40275 10.0501 5.24332 10.0501C5.08389 10.0501 4.99805 10.139 4.99805 10.3015V11.0496C4.99805 11.6842 5.31997 12 5.96074 12ZM9.28725 12H10.0384C10.6792 12 11.0011 11.6811 11.0011 11.0496V10.3015C11.0011 10.139 10.9122 10.0501 10.7528 10.0501C10.5933 10.0501 10.5075 10.139 10.5075 10.3015V11.025C10.5075 11.3439 10.3327 11.5064 10.0292 11.5064H9.28725C9.12783 11.5064 9.03892 11.5953 9.03892 11.7547C9.03892 11.9111 9.12783 12 9.28725 12Z" fill="black"/>
</svg>
