<svg width="16" height="16" viewBox="0 0 16 16" fill="none" xmlns="http://www.w3.org/2000/svg">
<rect x="1" y="4" width="14" height="10" rx="3" fill="#31A8FF"/>
<path fill-rule="evenodd" clip-rule="evenodd" d="M9.76808 11.1922C10.1507 10.9429 10.3072 10.8753 10.6164 10.8019C10.8715 10.74 10.8541 10.3439 10.5159 10.3497C10.1662 10.3536 9.8589 10.5333 9.59996 10.6937C9.11494 10.9932 8.87339 10.9739 8.87339 10.9739C8.87339 10.9739 8.87145 10.97 8.86566 10.9603C8.85678 10.9457 8.86399 10.8996 8.87509 10.8287C8.90506 10.6372 8.96331 10.265 8.80962 9.84342C8.64909 9.39857 8.42249 9.19124 8.31251 9.09062C8.26627 9.04831 8.24065 9.02486 8.24923 9.01056C8.27481 8.96739 8.30833 8.91894 8.3465 8.86375C8.49287 8.65213 8.70766 8.34159 8.80575 7.85113C8.87918 7.47625 8.85986 6.85982 8.69368 6.53711C8.66276 6.47721 8.38836 6.6376 8.38836 6.6376C8.38836 6.6376 8.13135 6.06561 8.05985 6.01924C7.82797 5.87044 7.57676 6.63373 7.57676 6.63373C7.57676 6.63373 7.04729 6.54871 6.63182 6.99702C6.54873 7.08784 6.43665 7.13615 6.32071 7.1806L6.31475 7.18259C6.28281 7.19293 6.24129 7.20638 6.1468 7.46079C5.99221 7.87432 6.40767 8.33423 6.40767 8.33423C6.40767 8.33423 5.91298 8.68399 5.7294 9.11878C5.5265 9.59608 5.58834 10.0618 5.58834 10.0618C5.58834 10.0618 5.23664 10.3671 5.21345 10.6821C5.1922 10.9584 5.27143 11.1826 5.35645 11.314C5.45114 11.457 5.56901 11.3874 5.56901 11.3874C5.56901 11.3874 5.33519 11.6599 5.55355 11.7758C5.75259 11.8802 6.08882 11.9401 6.2666 11.7603C6.35588 11.6711 6.39554 11.5064 6.4274 11.3742C6.44175 11.3146 6.45451 11.2617 6.4695 11.2251C6.47709 11.2074 6.49627 11.2327 6.51892 11.2626C6.53087 11.2784 6.54378 11.2955 6.55646 11.3082C6.59704 11.3468 6.66661 11.3893 6.66661 11.3893C6.66661 11.3893 6.35163 11.5246 6.4811 11.8338C6.52361 11.9362 6.67627 12.0019 6.92555 12C7.0183 11.998 8.03667 11.942 8.3072 11.8763C8.46372 11.8396 8.51783 11.7584 8.51783 11.7584C8.51783 11.7584 9.17097 11.5787 9.76808 11.1922Z" fill="black"/>
</svg>
