<svg width="16" height="16" viewBox="0 0 16 16" fill="none" xmlns="http://www.w3.org/2000/svg">
<path d="M3 13.5C2.17157 13.5 1.5 12.8284 1.5 12V4C1.5 3.17157 2.17157 2.5 3 2.5H5.67157C6.0694 2.5 6.45093 2.65803 6.73223 2.93934L7.56066 3.76777C8.0295 4.23661 8.66539 4.5 9.32843 4.5H13C13.8284 4.5 14.5 5.17157 14.5 6V12C14.5 12.8284 13.8284 13.5 13 13.5H3Z" fill="#102311" stroke="#50AF54"/>
<path d="M10.9832 10.6151C10.9813 10.6028 10.9794 10.5907 10.9774 10.5785C10.965 10.5032 10.9495 10.4288 10.9316 10.3553C10.9002 10.227 10.8606 10.1018 10.8133 9.98059C10.7734 9.8779 10.7279 9.778 10.6775 9.68117C10.6126 9.55684 10.5394 9.43749 10.4586 9.32398C10.3595 9.18488 10.2487 9.05456 10.1279 8.93447C10.0771 8.884 10.0246 8.83529 9.97045 8.78863C9.85306 8.68727 9.72764 8.59498 9.59553 8.51248C9.59669 8.51057 9.59767 8.50853 9.59883 8.50662C9.65936 8.40204 9.72006 8.2976 9.78058 8.19302C9.83977 8.09092 9.89896 7.98883 9.95815 7.88674C10.0008 7.81345 10.0433 7.74002 10.0856 7.66674C10.0957 7.64933 10.1036 7.63134 10.1096 7.61292C10.1262 7.56158 10.1269 7.5076 10.1136 7.45743C10.1102 7.445 10.1061 7.43286 10.1011 7.42101C10.0961 7.40916 10.0903 7.39761 10.0837 7.38649C10.0611 7.34846 10.0287 7.3154 9.9881 7.29126C9.95218 7.26991 9.91198 7.25719 9.87079 7.25353C9.8535 7.25207 9.83612 7.25221 9.81883 7.25397C9.80456 7.25543 9.79039 7.25807 9.77631 7.26172C9.72621 7.27503 9.67968 7.30253 9.64349 7.34231C9.63048 7.35665 9.61871 7.37245 9.60864 7.38985C9.56612 7.46313 9.5236 7.53656 9.48117 7.60984L9.30361 7.91613C9.24308 8.02072 9.18238 8.12515 9.12185 8.22974C9.11526 8.24114 9.10857 8.25255 9.10197 8.26411C9.09279 8.26045 9.0837 8.25679 9.07452 8.25328C8.74079 8.12603 8.3787 8.05641 8.00022 8.05641C7.98988 8.05641 7.97963 8.05641 7.9692 8.05655C7.6327 8.05991 7.3094 8.11842 7.00775 8.22345C6.9729 8.23559 6.93841 8.24846 6.90418 8.26192C6.89803 8.25124 6.8917 8.24056 6.88563 8.22988C6.82511 8.1253 6.76441 8.02086 6.70388 7.91628C6.64469 7.81419 6.58551 7.71209 6.52632 7.60999C6.48371 7.53671 6.44119 7.46328 6.39885 7.39C6.38869 7.37259 6.37701 7.3568 6.364 7.34246C6.32781 7.30267 6.28128 7.27517 6.23118 7.26187C6.2171 7.25821 6.20292 7.25558 6.18857 7.25412C6.17137 7.25236 6.15399 7.25221 6.13669 7.25367C6.09551 7.25719 6.05531 7.26991 6.0193 7.29141C5.97865 7.31554 5.94656 7.34861 5.92374 7.38663C5.91715 7.39775 5.91126 7.40931 5.90636 7.42116C5.90137 7.433 5.89709 7.44514 5.89388 7.45758C5.8806 7.50775 5.88131 7.56172 5.8978 7.61306C5.90386 7.6315 5.91171 7.64948 5.92178 7.66689C5.96439 7.74017 6.00691 7.8136 6.04925 7.88688C6.10853 7.98898 6.16771 8.09108 6.2269 8.19317C6.28743 8.29775 6.34804 8.40219 6.40857 8.50677C6.40901 8.50765 6.40964 8.50853 6.41008 8.5094C6.28796 8.58532 6.17181 8.66942 6.06217 8.76142C5.99648 8.81657 5.93319 8.87434 5.87258 8.93475C5.75179 9.05484 5.64117 9.18517 5.54187 9.32427C5.46093 9.43778 5.38766 9.55699 5.32295 9.68147C5.2725 9.7783 5.22704 9.8782 5.1871 9.98088C5.13986 10.1021 5.10028 10.2273 5.06881 10.3556C5.0509 10.4291 5.03566 10.5034 5.02309 10.5788C5.02104 10.591 5.01916 10.6033 5.01729 10.6154C5.01052 10.6591 5.00481 10.7032 5 10.7475H11C10.9952 10.7032 10.9895 10.6591 10.9828 10.6154L10.9832 10.6151Z" fill="#34A853"/>
<path d="M9.56113 9.91766C9.6812 9.83774 9.69867 9.65283 9.60008 9.50467C9.50158 9.3565 9.32438 9.30119 9.2044 9.38112C9.08433 9.46105 9.06686 9.64595 9.16544 9.7941C9.26394 9.94227 9.44115 9.99759 9.56113 9.91766Z" fill="#202124"/>
<path d="M6.84034 9.79463C6.93893 9.64646 6.92146 9.46156 6.80139 9.38164C6.68132 9.30171 6.5042 9.35703 6.40561 9.50518C6.30711 9.65335 6.32459 9.83825 6.44457 9.91817C6.56464 9.9981 6.74184 9.94278 6.84034 9.79463Z" fill="#202124"/>
</svg>
