<svg width="16" height="16" viewBox="0 0 16 16" fill="none" xmlns="http://www.w3.org/2000/svg">
<path d="M3 13.5C2.17157 13.5 1.5 12.8284 1.5 12V4C1.5 3.17157 2.17157 2.5 3 2.5H5.67157C6.0694 2.5 6.45093 2.65803 6.73223 2.93934L7.56066 3.76777C8.0295 4.23661 8.66539 4.5 9.32843 4.5H13C13.8284 4.5 14.5 5.17157 14.5 6V12C14.5 12.8284 13.8284 13.5 13 13.5H3Z" fill="#470137" stroke="#FF61F6"/>
<path d="M10.8343 7.00034L10.6296 10.2144L8.67268 6L10.8343 7.00034ZM9.47885 11.1563L8.00017 12L6.52147 11.1563L6.82222 10.4274H9.17811L9.47885 11.1563ZM8.00017 7.59972L8.77501 9.48346H7.22532L8.00017 7.59972ZM5.3686 10.2144L5.16602 7.00034L7.32764 6L5.3686 10.2144Z" fill="#FF61F6"/>
</svg>
