<svg width="16" height="16" viewBox="0 0 16 16" fill="none" xmlns="http://www.w3.org/2000/svg">
<path d="M3 13.5C2.17157 13.5 1.5 12.8284 1.5 12V4C1.5 3.17157 2.17157 2.5 3 2.5H5.67157C6.0694 2.5 6.45093 2.65803 6.73223 2.93934L7.56066 3.76777C8.0295 4.23661 8.66539 4.5 9.32843 4.5H13C13.8284 4.5 14.5 5.17157 14.5 6V12C14.5 12.8284 13.8284 13.5 13 13.5H3Z" fill="#032630" stroke="#3CC9F4"/>
<path d="M7.00023 6.17326H8.77569L6.93259 11.6342C6.91365 11.6903 6.87759 11.739 6.82948 11.7736C6.78137 11.8081 6.72364 11.8267 6.66441 11.8267H5.28267C5.2378 11.8267 5.19357 11.816 5.15364 11.7956C5.11371 11.7751 5.07923 11.7454 5.05306 11.7089C5.02689 11.6725 5.00977 11.6303 5.00312 11.586C4.99647 11.5416 5.00049 11.4963 5.01483 11.4537L6.73199 6.36582C6.75092 6.30968 6.78699 6.26089 6.83511 6.22634C6.88324 6.19178 6.94099 6.17326 7.00023 6.17326Z" fill="#3CC9F4"/>
<path d="M9.58066 9.83606H6.76522C6.73904 9.83603 6.71346 9.84389 6.69182 9.8586C6.67017 9.87332 6.65346 9.89421 6.64385 9.91856C6.63425 9.94291 6.6322 9.96959 6.63798 9.99512C6.64375 10.0206 6.65708 10.0438 6.67623 10.0617L8.48537 11.7503C8.53805 11.7994 8.6074 11.8267 8.67943 11.8267H10.2736L9.58066 9.83606Z" fill="#3CC9F4"/>
<path d="M6.99987 6.17325C6.93998 6.17302 6.88158 6.19195 6.83321 6.22727C6.78484 6.26258 6.74903 6.31244 6.73101 6.36956L5.01658 11.4491C5.00127 11.4918 4.99647 11.5375 5.00257 11.5824C5.00867 11.6273 5.02551 11.6701 5.05165 11.7072C5.07779 11.7442 5.11246 11.7744 5.15274 11.7952C5.19302 11.816 5.23772 11.8268 5.28306 11.8267H6.70046C6.75325 11.8173 6.80259 11.794 6.84345 11.7593C6.8843 11.7245 6.91519 11.6796 6.93298 11.629L7.27487 10.6214L8.4961 11.7604C8.54728 11.8028 8.61148 11.8262 8.67789 11.8267H10.2662L9.56957 9.83606L7.53889 9.83654L8.78174 6.17325H6.99987Z" fill="#3CC9F4"/>
<path d="M9.26805 6.36554C9.24914 6.30949 9.21312 6.26079 9.16507 6.22629C9.11702 6.19179 9.05936 6.17324 9.00021 6.17325H7.02148C7.08063 6.17325 7.13829 6.19181 7.18634 6.2263C7.23439 6.2608 7.27041 6.30949 7.28932 6.36554L9.00655 11.4537C9.0209 11.4962 9.02493 11.5415 9.01828 11.5859C9.01164 11.6303 8.99453 11.6725 8.96835 11.7089C8.94218 11.7454 8.9077 11.7751 8.86777 11.7956C8.82783 11.8161 8.78359 11.8268 8.73871 11.8268H10.7175C10.7624 11.8268 10.8066 11.8161 10.8465 11.7956C10.8865 11.7751 10.9209 11.7454 10.9471 11.7089C10.9733 11.6724 10.9904 11.6303 10.997 11.5859C11.0036 11.5415 10.9996 11.4962 10.9853 11.4537L9.26805 6.36554Z" fill="#3CC9F4"/>
</svg>
