<svg width="16" height="16" viewBox="0 0 16 16" fill="none" xmlns="http://www.w3.org/2000/svg">
<path d="M3 13.5C2.17157 13.5 1.5 12.8284 1.5 12V4C1.5 3.17157 2.17157 2.5 3 2.5H5.67157C6.0694 2.5 6.45093 2.65803 6.73223 2.93934L7.56066 3.76777C8.0295 4.23661 8.66539 4.5 9.32843 4.5H13C13.8284 4.5 14.5 5.17157 14.5 6V12C14.5 12.8284 13.8284 13.5 13 13.5H3Z" fill="black" stroke="white"/>
<path d="M8.14419 11.0017C8.28438 11.0017 8.40855 10.9356 8.6709 10.9356C8.93526 10.9356 9.00734 11.0017 9.2036 11.0017C9.50001 11.0017 9.65621 10.8795 9.65621 10.6712C9.65621 10.3188 9.27369 10.0824 8.66889 10.0824C8.3725 10.0824 8.24033 10.1105 8.0721 10.1525L7.85581 9.65988C7.64352 9.18725 7.30107 8.87884 6.81642 8.87884H6.58011C6.502 8.87884 6.44993 8.84479 6.44993 8.76869C6.44993 8.64453 6.61616 8.61448 6.7984 8.61448C7.38519 8.61448 7.81775 8.93691 8.08211 9.58579L8.22029 9.92022C8.35447 9.89219 8.50067 9.87818 8.64887 9.87818C8.76702 9.87818 8.87517 9.88618 8.98932 9.90219C9.11148 9.81208 9.24968 9.71796 9.45194 9.62984C9.67623 9.78204 9.93257 9.88017 10.1989 9.88017C10.7517 9.88017 11 9.76002 11 9.23733C11 8.60647 10.5434 8.13384 9.93659 8.13585L9.39987 7.42089C9.10147 7.02637 8.73898 6.84012 8.3825 6.84012C8.09013 6.84012 7.65554 7.00834 7.65554 7.24466C7.65554 7.40487 7.97996 7.62917 8.23032 7.78338L9.38386 8.48832C9.29373 8.57443 9.21362 8.62049 9.11349 8.62049C8.95927 8.62049 8.79706 8.52637 8.55474 8.38618C7.93792 8.0297 7.46129 7.69526 6.82043 7.69526C6.15354 7.69526 5.64686 8.07777 5.3765 8.82276C5.16222 8.82276 5 8.96296 5 9.16922C5 9.40153 5.18425 9.54772 5.43658 9.54772C5.72897 9.95627 6.20761 10.1205 6.77437 10.1205C6.80441 10.1205 6.83445 10.1185 6.86449 10.1185L7.67557 10.7914C7.87784 10.9716 7.99198 11.0017 8.14419 11.0017ZM6.69626 11.1599C7.08277 11.1599 7.31909 11.0858 7.51135 10.9536L6.89052 10.4369C6.86248 10.4389 6.82844 10.4429 6.78638 10.4429C6.68625 10.4429 6.53805 10.4129 6.36182 10.4129C6.13752 10.4129 5.99933 10.533 5.99933 10.7133C5.99933 10.9816 6.2717 11.1599 6.69626 11.1599ZM10.1529 9.14119C10.0628 9.14119 9.99065 9.06508 9.99065 8.97696C9.99065 8.88685 10.0648 8.80674 10.1549 8.80674C10.247 8.80674 10.3191 8.87884 10.3191 8.96897C10.3191 9.05908 10.245 9.14119 10.1529 9.14119Z" fill="white"/>
</svg>
