<svg width="16" height="16" viewBox="0 0 16 16" fill="none" xmlns="http://www.w3.org/2000/svg">
<path d="M3 13.5C2.17157 13.5 1.5 12.8284 1.5 12V4C1.5 3.17157 2.17157 2.5 3 2.5H5.67157C6.0694 2.5 6.45093 2.65803 6.73223 2.93934L7.56066 3.76777C8.0295 4.23661 8.66539 4.5 9.32843 4.5H13C13.8284 4.5 14.5 5.17157 14.5 6V12C14.5 12.8284 13.8284 13.5 13 13.5H3Z" fill="black" stroke="white"/>
<path d="M9.24264 7.24264L8 6L6.75736 7.24264L8 8.48528L9.24264 7.24264Z" fill="white"/>
<path d="M9.24264 10.7574L8 9.51471L6.75736 10.7574L8 12L9.24264 10.7574Z" fill="white"/>
<path d="M10.9995 9L9.75684 7.75735L8.5142 9L9.75684 10.2426L10.9995 9Z" fill="white"/>
<path d="M7.48483 9L6.24219 7.75735L4.99955 9L6.24219 10.2426L7.48483 9Z" fill="white"/>
</svg>
