<svg width="16" height="16" viewBox="0 0 16 16" fill="none" xmlns="http://www.w3.org/2000/svg">
<path d="M3 13.5C2.17157 13.5 1.5 12.8284 1.5 12V4C1.5 3.17157 2.17157 2.5 3 2.5H5.67157C6.0694 2.5 6.45093 2.65803 6.73223 2.93934L7.56066 3.76777C8.0295 4.23661 8.66539 4.5 9.32843 4.5H13C13.8284 4.5 14.5 5.17157 14.5 6V12C14.5 12.8284 13.8284 13.5 13 13.5H3Z" fill="black" stroke="white"/>
<path d="M7.73588 12H8.2641C8.41338 12 8.51962 11.911 8.55405 11.7646L8.70335 11.133C8.8153 11.0957 8.92439 11.0526 9.01914 11.0067L9.57318 11.3454C9.69665 11.423 9.83732 11.4115 9.94065 11.3081L10.311 10.9406C10.4144 10.8373 10.4287 10.688 10.3454 10.5646L10.0067 10.0163C10.0555 9.91578 10.0986 9.81245 10.1301 9.70909L10.7674 9.55693C10.9139 9.52247 11 9.41626 11 9.26698V8.74736C11 8.60095 10.9139 8.49473 10.7674 8.46028L10.1359 8.30813C10.0986 8.19043 10.0526 8.0842 10.0124 7.99521L10.3512 7.43828C10.4287 7.31196 10.423 7.17703 10.3167 7.07081L9.94065 6.70048C9.83444 6.60287 9.70527 6.5799 9.5818 6.65742L9.01914 7.00478C8.92727 6.95598 8.82103 6.91292 8.70335 6.8756L8.55405 6.23541C8.51962 6.08899 8.41338 6 8.2641 6H7.73588C7.5866 6 7.48038 6.08899 7.44306 6.23541L7.29377 6.86985C7.18182 6.90718 7.07272 6.95024 6.97512 7.00191L6.41818 6.65742C6.29474 6.5799 6.15981 6.59713 6.05646 6.70048L5.68325 7.07081C5.57703 7.17703 5.56842 7.31196 5.6488 7.43828L5.98469 7.99521C5.94737 8.0842 5.90143 8.19043 5.86411 8.30813L5.23254 8.46028C5.08612 8.49473 5 8.60095 5 8.74736V9.26698C5 9.41626 5.08612 9.52247 5.23254 9.55693L5.86985 9.70909C5.90143 9.81245 5.9445 9.91578 5.99043 10.0163L5.65454 10.5646C5.56842 10.688 5.58565 10.8373 5.68899 10.9406L6.05646 11.3081C6.15981 11.4115 6.30335 11.423 6.42679 11.3454L6.97799 11.0067C7.07559 11.0526 7.18182 11.0957 7.29377 11.133L7.44306 11.7646C7.48038 11.911 7.5866 12 7.73588 12ZM8 10.0134C7.44019 10.0134 6.9866 9.55981 6.9866 9C6.9866 8.44019 7.44019 7.9866 8 7.9866C8.55981 7.9866 9.01338 8.44019 9.01338 9C9.01338 9.55981 8.55981 10.0134 8 10.0134Z" fill="white"/>
</svg>
