<svg width="16" height="16" viewBox="0 0 16 16" fill="none" xmlns="http://www.w3.org/2000/svg">
<path d="M3 13.5C2.17157 13.5 1.5 12.8284 1.5 12V4C1.5 3.17157 2.17157 2.5 3 2.5H5.67157C6.0694 2.5 6.45093 2.65803 6.73223 2.93934L7.56066 3.76777C8.0295 4.23661 8.66539 4.5 9.32843 4.5H13C13.8284 4.5 14.5 5.17157 14.5 6V12C14.5 12.8284 13.8284 13.5 13 13.5H3Z" fill="black" stroke="white"/>
<path d="M8.0356 7.83673L7.66013 8.21784C8.03276 8.2489 8.27556 8.359 8.45904 8.54249C8.95307 9.03654 8.95027 9.73663 8.46187 10.225L7.53874 11.1453C7.04754 11.6365 6.35307 11.6394 5.85904 11.1481C5.36501 10.6513 5.36783 9.95682 5.85904 9.46562L6.41235 8.91232C6.33331 8.73446 6.31355 8.52273 6.3446 8.33923L5.51463 9.16639C4.83992 9.8439 4.83428 10.8037 5.51745 11.4869C6.20345 12.1729 7.16328 12.1673 7.83798 11.4925L8.80345 10.5243C9.48099 9.84674 9.48663 8.8869 8.80064 8.20373C8.62277 8.02588 8.39695 7.89884 8.0356 7.83673ZM7.96503 10.1629L8.34049 9.78181C7.96784 9.75357 7.72506 9.64065 7.54157 9.45715C7.04754 8.96311 7.05036 8.26301 7.53874 7.77463L8.45904 6.85432C8.95307 6.36311 9.64756 6.36029 10.1416 6.85432C10.6356 7.34835 10.63 8.04564 10.1416 8.53402L9.58827 9.08733C9.6673 9.268 9.68424 9.47692 9.65603 9.66043L10.486 8.83327C11.1607 8.15574 11.1663 7.19873 10.4832 6.51273C9.79715 5.82674 8.83733 5.83238 8.15981 6.50991L7.19716 7.47539C6.51963 8.15291 6.51398 9.11274 7.19998 9.79592C7.37783 9.97376 7.60367 10.1008 7.96503 10.1629Z" fill="white"/>
</svg>
