<svg width="16" height="16" viewBox="0 0 16 16" fill="none" xmlns="http://www.w3.org/2000/svg">
<path d="M3 13.5C2.17157 13.5 1.5 12.8284 1.5 12V4C1.5 3.17157 2.17157 2.5 3 2.5H5.67157C6.0694 2.5 6.45093 2.65803 6.73223 2.93934L7.56066 3.76777C8.0295 4.23661 8.66539 4.5 9.32843 4.5H13C13.8284 4.5 14.5 5.17157 14.5 6V12C14.5 12.8284 13.8284 13.5 13 13.5H3Z" fill="#04122F" stroke="#1D63ED"/>
<path d="M10.9025 8.57791C10.7554 8.4789 10.3689 8.43661 10.0878 8.5123C10.0727 8.23239 9.92838 7.99652 9.66434 7.79072L9.5666 7.72511L9.50146 7.82348C9.37341 8.01786 9.31946 8.27682 9.33858 8.51222C9.35365 8.65725 9.40411 8.82029 9.50146 8.93858C9.13571 9.15074 8.7986 9.10258 7.30561 9.10258H5.00052C4.99377 9.43969 5.04796 10.0882 5.46036 10.6161C5.5059 10.6744 5.55589 10.7308 5.61007 10.7852C5.94536 11.1209 6.45193 11.3671 7.20945 11.3678C8.3651 11.3689 9.35524 10.7442 9.95749 9.23388C10.1557 9.23713 10.6788 9.26943 10.9349 8.77467C10.9411 8.76634 11 8.64345 11 8.64345L10.9024 8.57783L10.9025 8.57791ZM6.50485 8.2696H5.85666V8.9178H6.50485V8.2696ZM7.34227 8.2696H6.69407V8.9178H7.34227V8.2696ZM8.17968 8.2696H7.53149V8.9178H8.17968V8.2696ZM9.0171 8.2696H8.3689V8.9178H9.0171V8.2696ZM5.66744 8.2696H5.01924V8.9178H5.66744V8.2696ZM6.50485 7.45091H5.85666V8.09911H6.50485V7.45091ZM7.34227 7.45091H6.69407V8.09911H7.34227V7.45091ZM8.17968 7.45091H7.53149V8.09911H8.17968V7.45091ZM8.17968 6.63214H7.53149V7.28033H8.17968V6.63214Z" fill="#1D63ED"/>
</svg>
