<svg width="16" height="16" viewBox="0 0 16 16" fill="none" xmlns="http://www.w3.org/2000/svg">
<path d="M3 13.5C2.17157 13.5 1.5 12.8284 1.5 12V4C1.5 3.17157 2.17157 2.5 3 2.5H5.67157C6.0694 2.5 6.45093 2.65803 6.73223 2.93934L7.56066 3.76777C8.0295 4.23661 8.66539 4.5 9.32843 4.5H13C13.8284 4.5 14.5 5.17157 14.5 6V12C14.5 12.8284 13.8284 13.5 13 13.5H3Z" fill="black" stroke="white"/>
<path d="M7.98997 10.6624C8.0664 10.6624 8.12036 10.6197 8.12036 10.5433C8.12036 10.5096 8.11361 10.4916 8.08889 10.4444C7.81463 10.0195 7.65727 9.53166 7.65727 9.00338C7.65727 8.49307 7.80563 7.98277 8.08889 7.55564C8.11361 7.50844 8.12036 7.49045 8.12036 7.45673C8.12036 7.38479 8.0664 7.33759 7.98997 7.33759C7.91578 7.33759 7.85733 7.37131 7.7854 7.47022C7.44595 7.89959 7.27734 8.43462 7.27734 9.00113C7.27734 9.56763 7.44146 10.0869 7.7854 10.5298C7.85733 10.6287 7.91578 10.6624 7.98997 10.6624ZM8.46206 10.0667C8.534 10.0667 8.5857 10.042 8.64189 9.96104L9.13422 9.25965H9.1432L9.64675 9.97227C9.70297 10.051 9.75693 10.0667 9.81086 10.0667C9.91878 10.0667 9.98846 9.99025 9.98846 9.89808C9.98846 9.85538 9.97723 9.81491 9.94799 9.7767L9.3725 8.99438L9.94799 8.22331C9.97497 8.18509 9.99072 8.14463 9.99072 8.09742C9.99072 8.00075 9.90978 7.93331 9.81761 7.93331C9.73669 7.93331 9.69174 7.97378 9.64901 8.03897L9.17469 8.73361H9.16343L8.68685 8.03672C8.64189 7.97153 8.59019 7.93331 8.50477 7.93331C8.3991 7.93331 8.32042 8.01649 8.32042 8.10641C8.32042 8.1716 8.34066 8.21207 8.36989 8.25028L8.91841 8.98314L8.33617 9.7857C8.3047 9.8284 8.29795 9.86661 8.29795 9.91157C8.29795 9.99925 8.37212 10.0667 8.46206 10.0667ZM10.2875 10.6624C10.3616 10.6624 10.4201 10.6287 10.492 10.5298C10.836 10.0869 11.0001 9.56763 11.0001 9.00113C11.0001 8.43462 10.8315 7.89959 10.492 7.47022C10.4201 7.37131 10.3616 7.33759 10.2875 7.33759C10.211 7.33759 10.1571 7.38479 10.1571 7.45673C10.1571 7.49045 10.1638 7.50844 10.1885 7.55564C10.4718 7.98277 10.6202 8.49307 10.6202 9.00338C10.6202 9.53166 10.4628 10.0195 10.1885 10.4444C10.1638 10.4916 10.1571 10.5096 10.1571 10.5433C10.1571 10.6152 10.211 10.6624 10.2875 10.6624Z" fill="white"/>
<path d="M5.30348 10.6579C5.7441 10.6579 5.94642 10.4691 6.05433 9.96328L6.3106 8.73362H6.71749C6.84788 8.73362 6.93106 8.66393 6.93106 8.55153C6.93106 8.45487 6.86811 8.39417 6.7647 8.39417H6.38254L6.44548 8.08844C6.50618 7.80294 6.5961 7.68604 6.84338 7.68604C6.8816 7.68604 6.91757 7.68379 6.9423 7.68154C7.05245 7.6703 7.10415 7.6186 7.10415 7.52193C7.10415 7.39604 6.9985 7.33984 6.78269 7.33984C6.35331 7.33984 6.13301 7.55341 6.03184 8.03448L5.95766 8.39417H5.67891C5.54627 8.39417 5.46309 8.46386 5.46309 8.57626C5.46309 8.67292 5.52604 8.73362 5.6317 8.73362H5.88572L5.63844 9.90935C5.5755 10.2038 5.48333 10.3117 5.24279 10.3117C5.21131 10.3117 5.17984 10.314 5.15961 10.3162C5.0562 10.3297 5 10.3859 5 10.4803C5 10.6017 5.10341 10.6579 5.30348 10.6579Z" fill="white"/>
</svg>
