<svg width="16" height="16" viewBox="0 0 16 16" fill="none" xmlns="http://www.w3.org/2000/svg">
<path d="M3 13.5C2.17157 13.5 1.5 12.8284 1.5 12V4C1.5 3.17157 2.17157 2.5 3 2.5H5.67157C6.0694 2.5 6.45093 2.65803 6.73223 2.93934L7.56066 3.76777C8.0295 4.23661 8.66539 4.5 9.32843 4.5H13C13.8284 4.5 14.5 5.17157 14.5 6V12C14.5 12.8284 13.8284 13.5 13 13.5H3Z" fill="black" stroke="#E701F7"/>
<path d="M6.90688 6.34313L5.34313 7.90688C5.12375 8.12625 5 8.42438 5 8.73563V11.5312C5 11.79 5.21 12 5.46875 12H8.26437C8.57562 12 8.87281 11.8762 9.09312 11.6569L10.6569 10.0931C10.8762 9.87375 11 9.57562 11 9.26437V6.46875C11 6.21 10.79 6 10.5312 6H7.73563C7.42438 6 7.12719 6.12375 6.90688 6.34313Z" fill="#E701F7"/>
<path d="M9.5 7.5H5.75V11.25H9.5V7.5Z" fill="black"/>
<path d="M7.8125 10.4062H6.21875V10.7812H7.8125V10.4062Z" fill="white"/>
</svg>
