<svg width="16" height="16" viewBox="0 0 16 16" fill="none" xmlns="http://www.w3.org/2000/svg">
<path d="M3 13.5C2.17157 13.5 1.5 12.8284 1.5 12V4C1.5 3.17157 2.17157 2.5 3 2.5H5.67157C6.0694 2.5 6.45093 2.65803 6.73223 2.93934L7.56066 3.76777C8.0295 4.23661 8.66539 4.5 9.32843 4.5H13C13.8284 4.5 14.5 5.17157 14.5 6V12C14.5 12.8284 13.8284 13.5 13 13.5H3Z" fill="black" stroke="white"/>
<path d="M8.44328 7.6082V7.7817H8.35367C8.27594 7.7817 8.20318 7.78866 8.13633 7.8031V7.61774C8.13633 7.28218 7.94758 7.10677 7.62917 7.10677H5.81411C5.49571 7.10677 5.30696 7.28218 5.30696 7.61774V8.72546C5.30696 9.06291 5.49762 9.23642 5.81411 9.23642H6.0143C6.09628 9.23642 6.16111 9.28409 6.16111 9.39085V9.87321L6.77503 9.32412C6.84938 9.25739 6.89705 9.23642 6.99999 9.23642H7.55672V9.52242H6.98855L6.35176 10.0677C6.23737 10.1668 6.17445 10.2183 6.08103 10.2183C5.94948 10.2183 5.87512 10.1249 5.87512 9.97998V9.52242H5.79695C5.3184 9.52242 5 9.2345 5 8.73499V7.6082C5 7.10868 5.3184 6.81888 5.79695 6.81888H7.64633C8.12489 6.81888 8.44328 7.10868 8.44328 7.6082Z" fill="white"/>
<path d="M6.92412 7.47666L7.39504 8.74072C7.43317 8.84559 7.37788 8.94282 7.26541 8.94282C7.19296 8.94282 7.14911 8.90277 7.1205 8.82271L7.0042 8.48714H6.44366L6.32736 8.82271C6.30067 8.90277 6.25491 8.94282 6.18246 8.94282C6.07188 8.94282 6.01468 8.84559 6.05281 8.74072L6.52183 7.47666C6.55615 7.38323 6.6267 7.33176 6.72203 7.33176C6.82117 7.33176 6.8898 7.38323 6.92412 7.47666ZM6.52183 8.25263H6.92412L6.72298 7.66597L6.52183 8.25263Z" fill="white"/>
<path d="M10.9999 8.57103V9.69782C10.9999 10.1954 10.6815 10.4852 10.203 10.4852H10.1229V10.9428C10.1229 11.0877 10.0504 11.1811 9.91889 11.1811C9.82547 11.1811 9.76255 11.1297 9.64816 11.0305L9.00945 10.4852H8.35358C7.85217 10.4852 7.55664 10.1973 7.55664 9.69782V8.57103C7.55664 8.07151 7.85217 7.78171 8.35358 7.78171H10.203C10.6815 7.78171 10.9999 8.07151 10.9999 8.57103ZM8.66818 8.69496C8.59001 8.69496 8.53281 8.74834 8.53281 8.82079C8.53281 8.89516 8.59001 8.95045 8.66818 8.95045H8.81307C8.86455 9.13729 8.9618 9.3146 9.09526 9.46331C8.9656 9.54911 8.81498 9.61202 8.64148 9.65397C8.56713 9.67113 8.52328 9.74167 8.53853 9.81793C8.5595 9.89421 8.63576 9.92851 8.71775 9.90563C8.92556 9.85988 9.12003 9.77219 9.29354 9.64444C9.45941 9.77027 9.65388 9.85797 9.84644 9.90373C9.93986 9.92662 10.018 9.89801 10.039 9.81793C10.06 9.73595 10.0219 9.67113 9.93986 9.65397C9.76637 9.61393 9.61764 9.55101 9.4842 9.46331C9.61956 9.3184 9.71489 9.14301 9.76637 8.95045H9.91317C9.99134 8.95045 10.0485 8.89516 10.0485 8.82079C10.0485 8.74834 9.99134 8.69496 9.91317 8.69496H8.66818ZM9.29354 9.30124C9.20012 9.1983 9.12575 9.07819 9.0819 8.95045H9.49945C9.4556 9.07627 9.38504 9.19638 9.29354 9.30124ZM9.10287 8.18971C9.03805 8.22022 9.00945 8.29839 9.04377 8.36893L9.13528 8.5615C9.1658 8.63013 9.24397 8.65683 9.3107 8.62823C9.38124 8.592 9.40984 8.51574 9.37552 8.4471L9.2821 8.25645C9.24777 8.184 9.17152 8.15158 9.10287 8.18971Z" fill="white"/>
</svg>
