<svg width="16" height="16" viewBox="0 0 16 16" fill="none" xmlns="http://www.w3.org/2000/svg">
<path d="M3 13.5C2.17157 13.5 1.5 12.8284 1.5 12V4C1.5 3.17157 2.17157 2.5 3 2.5H5.67157C6.0694 2.5 6.45093 2.65803 6.73223 2.93934L7.56066 3.76777C8.0295 4.23661 8.66539 4.5 9.32843 4.5H13C13.8284 4.5 14.5 5.17157 14.5 6V12C14.5 12.8284 13.8284 13.5 13 13.5H3Z" fill="#2C0A07" stroke="#E2574C"/>
<path d="M7.41559 9.99958V9.60967L6.33222 9.91687C6.33222 9.91687 6.41227 9.45174 6.97728 9.29146C7.14862 9.2429 7.29482 9.24323 7.41559 9.26655V7.66723H7.95803C7.89897 7.48472 7.84183 7.34421 7.79384 7.24658C7.71446 7.08498 7.63308 7.19211 7.44833 7.34663C7.31822 7.45533 6.98936 7.68724 6.49449 7.82059C5.99961 7.95402 5.59953 7.91864 5.4326 7.88973C5.19595 7.8489 5.07217 7.79693 5.08375 7.97693C5.09383 8.1357 5.13165 8.38185 5.21828 8.70696C5.4057 9.41099 6.0251 10.7676 7.19569 10.4523C7.50147 10.3699 7.7173 10.2071 7.8669 9.9995H7.41559V9.99958ZM5.66742 8.71662L6.49932 8.49748C6.49932 8.49748 6.47507 8.8175 6.16321 8.89972C5.85126 8.98185 5.66742 8.71662 5.66742 8.71662Z" fill="#E2574C"/>
<path d="M10.5473 7.68573C10.331 7.72364 9.81224 7.77087 9.17111 7.59902C8.5298 7.42727 8.1043 7.12689 7.93572 6.9857C7.69674 6.78553 7.59161 6.64643 7.48816 6.85684C7.3967 7.04243 7.27974 7.34446 7.16653 7.76729C6.92123 8.68289 6.73789 10.6151 8.25432 11.0217C9.77044 11.4279 10.5776 9.66281 10.8229 8.74712C10.9361 8.32438 10.9858 8.00427 10.9994 7.79786C11.015 7.56405 10.8544 7.63192 10.5473 7.68573ZM7.50048 8.44325C7.50048 8.44325 7.73946 8.07157 8.14478 8.18677C8.55036 8.30198 8.58177 8.75037 8.58177 8.75037L7.50048 8.44325ZM8.48989 10.1111C7.77695 9.90229 7.667 9.33378 7.667 9.33378L9.58218 9.86923C9.58218 9.86915 9.1956 10.3174 8.48989 10.1111ZM9.16702 8.94278C9.16702 8.94278 9.40567 8.57136 9.81092 8.68689C10.2162 8.80227 10.2481 9.25066 10.2481 9.25066L9.16702 8.94278Z" fill="#E2574C"/>
<path d="M7.03708 9.71704L6.33231 9.91679C6.33231 9.91679 6.40886 9.48066 6.92805 9.30781L6.52897 7.81012L6.49449 7.8206C5.99961 7.95406 5.59953 7.91865 5.4326 7.88974C5.19596 7.84893 5.07217 7.79694 5.08375 7.97696C5.09383 8.13573 5.13165 8.38187 5.21828 8.70699C5.4057 9.41101 6.0251 10.7676 7.19569 10.4523L7.23017 10.4415L7.03708 9.71704ZM5.6675 8.71665L6.4994 8.49749C6.4994 8.49749 6.47516 8.81752 6.16329 8.89973C5.85134 8.98186 5.6675 8.71665 5.6675 8.71665Z" fill="#E2574C"/>
<path d="M8.52205 10.119L8.4898 10.1111C7.77687 9.90229 7.66691 9.33378 7.66691 9.33378L8.65449 9.60983L9.17735 7.60069L9.17102 7.59902C8.52971 7.42727 8.10423 7.12689 7.93563 6.9857C7.69665 6.78553 7.59153 6.64643 7.48807 6.85684C7.3967 7.04243 7.27974 7.34446 7.16653 7.76729C6.92123 8.68289 6.73789 10.6151 8.25432 11.0216L8.2854 11.0286L8.52205 10.119ZM7.50048 8.44325C7.50048 8.44325 7.73946 8.07157 8.14478 8.18677C8.55036 8.30198 8.58177 8.75037 8.58177 8.75037L7.50048 8.44325Z" fill="#E2574C"/>
</svg>
