<svg width="16" height="16" viewBox="0 0 16 16" fill="none" xmlns="http://www.w3.org/2000/svg">
<path d="M3 13.5C2.17157 13.5 1.5 12.8284 1.5 12V4C1.5 3.17157 2.17157 2.5 3 2.5H5.67157C6.0694 2.5 6.45093 2.65803 6.73223 2.93934L7.56066 3.76777C8.0295 4.23661 8.66539 4.5 9.32843 4.5H13C13.8284 4.5 14.5 5.17157 14.5 6V12C14.5 12.8284 13.8284 13.5 13 13.5H3Z" fill="black" stroke="white"/>
<path d="M5 10.6731C5 11.1716 5.25682 11.4335 5.75283 11.4335H8.86741C9.36845 11.4335 9.6303 11.1767 9.6303 10.6832V9.62064C9.6303 9.57028 9.67059 9.54762 9.72095 9.58792C9.85943 9.69365 10.0231 9.77925 10.2396 9.77925C10.6677 9.77925 11 9.44186 11 9.0088C11 8.57825 10.6677 8.24086 10.2396 8.24086C10.0231 8.24086 9.85943 8.32647 9.72095 8.43222C9.67059 8.4725 9.6303 8.44984 9.6303 8.39949V7.31681C9.6303 6.82332 9.36845 6.5665 8.86741 6.5665H5.75283C5.25682 6.5665 5 6.82835 5 7.32689V8.40704C5 8.5707 5.12841 8.67897 5.27948 8.67897C5.36257 8.67897 5.45069 8.64372 5.52875 8.56818C5.64708 8.45739 5.79312 8.3164 6.08519 8.3164C6.46538 8.3164 6.765 8.61854 6.765 9.00377C6.765 9.389 6.46538 9.69113 6.08519 9.69113C5.79312 9.69113 5.64708 9.54762 5.52875 9.43683C5.45069 9.36381 5.36257 9.32857 5.27948 9.32857C5.12841 9.32857 5 9.43683 5 9.6005V10.6731Z" fill="white"/>
</svg>
