<svg width="16" height="16" viewBox="0 0 16 16" fill="none" xmlns="http://www.w3.org/2000/svg">
<path d="M3 13.5C2.17157 13.5 1.5 12.8284 1.5 12V4C1.5 3.17157 2.17157 2.5 3 2.5H5.67157C6.0694 2.5 6.45093 2.65803 6.73223 2.93934L7.56066 3.76777C8.0295 4.23661 8.66539 4.5 9.32843 4.5H13C13.8284 4.5 14.5 5.17157 14.5 6V12C14.5 12.8284 13.8284 13.5 13 13.5H3Z" fill="#00005B" stroke="#9999FF"/>
<path d="M9.8877 9.96654L10.1188 9.38212H10.7861L10.4694 8.49558L10.8655 7.49399L11.9999 10.506H11.1633L10.9695 9.96654H9.8877Z" fill="#9999FF"/>
<path d="M9.17409 10.506L10.3885 7.49399L9.58339 7.49399L8.75266 9.44043L8.16192 7.494H7.54306L6.90877 9.44043L6.46145 8.55348L6.05664 9.80062L6.46764 10.506H7.25998L7.83317 8.76048L8.37967 10.506H9.17409Z" fill="#9999FF"/>
<path d="M4.76425 9.47203H5.26016C5.41038 9.47203 5.54415 9.45527 5.66146 9.42173L5.78971 9.02662L6.14815 7.92233C6.12084 7.87904 6.08966 7.83811 6.05461 7.79955C5.87057 7.59584 5.60131 7.49399 5.24681 7.49399H4V10.506H4.76425V9.47203ZM5.42066 8.18693C5.49255 8.25928 5.52849 8.3561 5.52849 8.47739C5.52849 8.59961 5.49688 8.69654 5.43366 8.76819C5.36436 8.8478 5.23675 8.88761 5.05084 8.88761H4.76425V8.0784H5.05294C5.22621 8.0784 5.34878 8.11458 5.42066 8.18693Z" fill="#9999FF"/>
</svg>
