<svg width="16" height="16" viewBox="0 0 16 16" fill="none" xmlns="http://www.w3.org/2000/svg">
<path d="M3 13.5C2.17157 13.5 1.5 12.8284 1.5 12V4C1.5 3.17157 2.17157 2.5 3 2.5H5.67157C6.0694 2.5 6.45093 2.65803 6.73223 2.93934L7.56066 3.76777C8.0295 4.23661 8.66539 4.5 9.32843 4.5H13C13.8284 4.5 14.5 5.17157 14.5 6V12C14.5 12.8284 13.8284 13.5 13 13.5H3Z" fill="#470137" stroke="#FF61F6"/>
<path d="M9.15736 10.13C9.37878 10.1071 9.54676 9.91623 9.53912 9.68717C9.53149 9.45811 9.34061 9.27487 9.11155 9.27487H9.09628C8.85959 9.2825 8.67634 9.48102 8.68398 9.71771C8.69161 9.83224 8.73742 9.9315 8.80614 10.0002C8.54654 10.5118 8.14951 10.8859 7.55396 11.199C7.14929 11.4127 6.72935 11.4891 6.30942 11.4356C5.96583 11.3898 5.6986 11.2371 5.53062 10.9852C5.28629 10.611 5.26339 10.2064 5.46954 9.8017C5.61461 9.51156 5.84367 9.29777 5.98874 9.19088C5.95819 9.09162 5.91238 8.92365 5.88948 8.80148C4.78237 9.60318 4.8969 10.6874 5.23285 11.199C5.48481 11.5807 5.99637 11.8174 6.56138 11.8174C6.71408 11.8174 6.86679 11.8021 7.01949 11.764C7.99681 11.5731 8.73742 10.9928 9.15736 10.13Z" fill="#FF61F6"/>
<path d="M10.5009 9.18323C9.92062 8.5037 9.06547 8.12957 8.08816 8.12957H7.96599C7.89728 7.99214 7.75221 7.90051 7.59187 7.90051H7.5766C7.3399 7.90815 7.15666 8.10666 7.16429 8.34336C7.17193 8.57241 7.36281 8.75566 7.59187 8.75566H7.60714C7.77511 8.74803 7.92018 8.64113 7.98126 8.49606H8.1187C8.69898 8.49606 9.24872 8.66404 9.74501 8.99235C10.1268 9.24432 10.4016 9.57263 10.5543 9.96966C10.6841 10.2903 10.6765 10.6034 10.5391 10.8706C10.3253 11.2753 9.96643 11.4967 9.49304 11.4967C9.18763 11.4967 8.89749 11.4051 8.74479 11.3364C8.6608 11.4127 8.5081 11.5349 8.4012 11.6112C8.72952 11.7639 9.06547 11.8479 9.38615 11.8479C10.1191 11.8479 10.6612 11.4433 10.8674 11.0386C11.0888 10.5958 11.0735 9.83223 10.5009 9.18323Z" fill="#FF61F6"/>
<path d="M6.62222 10.2598C6.62985 10.4889 6.82073 10.6721 7.04979 10.6721H7.06506C7.30175 10.6645 7.485 10.466 7.47736 10.2293C7.46973 10.0002 7.27885 9.81696 7.04979 9.81696H7.03452C7.01925 9.81696 6.99634 9.81696 6.98107 9.82459C6.66803 9.3054 6.53823 8.74039 6.58404 8.12957C6.61458 7.67145 6.76729 7.27442 7.03452 6.9461C7.25594 6.6636 7.68352 6.52617 7.97365 6.51853C8.78299 6.50326 9.12658 7.51111 9.14948 7.91578C9.24874 7.93869 9.41672 7.99213 9.53124 8.03031C9.43962 6.7934 8.6761 6.15204 7.94311 6.15204C7.25594 6.15204 6.62222 6.64833 6.37025 7.38131C6.01903 8.35862 6.24809 9.29776 6.67566 10.0384C6.63749 10.0918 6.61458 10.1758 6.62222 10.2598Z" fill="#FF61F6"/>
</svg>
