<svg width="16" height="16" viewBox="0 0 16 16" fill="none" xmlns="http://www.w3.org/2000/svg">
<path d="M3 13.5C2.17157 13.5 1.5 12.8284 1.5 12V4C1.5 3.17157 2.17157 2.5 3 2.5H5.67157C6.0694 2.5 6.45093 2.65803 6.73223 2.93934L7.56066 3.76777C8.0295 4.23661 8.66539 4.5 9.32843 4.5H13C13.8284 4.5 14.5 5.17157 14.5 6V12C14.5 12.8284 13.8284 13.5 13 13.5H3Z" fill="#470137" stroke="#FF61F6"/>
<path d="M3.93417 10C3.71209 10 3.52085 9.97631 3.36046 9.92877C3.20006 9.88105 3.07361 9.81151 2.98107 9.7198C2.88853 9.62724 2.83258 9.51489 2.81319 9.38274L2.81055 9.36295H3.44902L3.45166 9.37208C3.46048 9.40998 3.48471 9.44264 3.52437 9.47005C3.56491 9.49645 3.61999 9.51709 3.68962 9.53215C3.75923 9.54619 3.84383 9.5533 3.94342 9.5533C4.02185 9.5533 4.08928 9.5467 4.14567 9.5335C4.20295 9.51929 4.24701 9.49949 4.27786 9.47394C4.3087 9.44839 4.32414 9.41895 4.32414 9.38545V9.3841C4.32414 9.34179 4.30518 9.311 4.26728 9.29154C4.2294 9.27208 4.16331 9.25719 4.06901 9.24653L3.58254 9.21083C3.33402 9.18714 3.15028 9.12843 3.03131 9.03503C2.9132 8.94078 2.85417 8.81032 2.85417 8.64382V8.64112C2.85417 8.50728 2.89471 8.39255 2.97578 8.29746C3.05774 8.20135 3.17451 8.12775 3.32608 8.07665C3.47767 8.02555 3.65833 8 3.86808 8C4.0787 8 4.25892 8.0242 4.40874 8.07276C4.55943 8.1203 4.6784 8.189 4.76566 8.27902C4.8529 8.36887 4.9071 8.47682 4.92825 8.60288L4.93221 8.62403H4.30034L4.29769 8.61337C4.28799 8.57631 4.26552 8.54602 4.23028 8.52217C4.19591 8.49746 4.14919 8.47902 4.09016 8.46667C4.03111 8.45347 3.96016 8.44687 3.87733 8.44687C3.79537 8.44687 3.7275 8.45296 3.67374 8.46531C3.61999 8.47682 3.57945 8.49391 3.55214 8.51692C3.52481 8.53892 3.51116 8.56531 3.51116 8.59628V8.59746C3.51116 8.63976 3.53143 8.67157 3.57197 8.69272C3.61339 8.71387 3.68168 8.72927 3.77686 8.73892L4.27258 8.77597C4.43209 8.79188 4.56427 8.82217 4.66914 8.86717C4.77402 8.91134 4.85202 8.97208 4.90312 9.04958C4.95512 9.12623 4.98112 9.22064 4.98112 9.33249V9.33384C4.98112 9.47124 4.9397 9.59036 4.85686 9.69069C4.77402 9.79036 4.65461 9.867 4.49862 9.92081C4.34265 9.9736 4.15449 10 3.93417 10Z" fill="#FF61F6"/>
<path d="M6.68152 10C6.43366 10 6.21982 9.95937 6.04002 9.87827C5.8609 9.79616 5.72291 9.68069 5.6259 9.5317C5.52889 9.38271 5.48047 9.20545 5.48047 8.99991V8.99737C5.48047 8.79268 5.52889 8.61593 5.6259 8.46694C5.72291 8.31795 5.8609 8.20283 6.04002 8.12173C6.21982 8.04063 6.43366 8 6.68152 8C6.89484 8 7.08582 8.03403 7.25411 8.10192C7.42341 8.16896 7.5597 8.26412 7.66298 8.38754C7.76609 8.51012 7.82687 8.6547 7.84549 8.82147L7.84803 8.84517H7.19604L7.19333 8.83196C7.17657 8.76153 7.14491 8.70143 7.09818 8.65216C7.0523 8.60272 6.99406 8.5648 6.92346 8.53839C6.85302 8.51198 6.77362 8.4986 6.68541 8.4986C6.5752 8.4986 6.48038 8.51892 6.40098 8.55955C6.32259 8.60002 6.26215 8.65792 6.21982 8.73275C6.1775 8.80691 6.15633 8.89511 6.15633 8.99737V8.99991C6.15633 9.10234 6.1775 9.19089 6.21982 9.26589C6.26215 9.34072 6.32293 9.39863 6.40233 9.43909C6.48174 9.47973 6.57655 9.49987 6.68677 9.49987C6.77413 9.49987 6.85252 9.48717 6.92227 9.46161C6.99185 9.4352 7.0501 9.39727 7.09682 9.34784C7.14355 9.29755 7.17572 9.23711 7.19333 9.16668L7.19604 9.15212H7.84803L7.84667 9.17328C7.82737 9.34174 7.76609 9.48768 7.66298 9.6111C7.5597 9.73453 7.42392 9.83019 7.25546 9.89808C7.08802 9.96597 6.89671 10 6.68152 10Z" fill="#FF61F6"/>
<path d="M9.47225 10C9.25017 10 9.05894 9.97631 8.89855 9.92877C8.73814 9.88105 8.6117 9.81151 8.51916 9.7198C8.42662 9.62724 8.37066 9.51489 8.35127 9.38274L8.34863 9.36295H8.98711L8.98975 9.37208C8.99857 9.40998 9.0228 9.44264 9.06246 9.47005C9.103 9.49645 9.15808 9.51709 9.2277 9.53215C9.29731 9.54619 9.38192 9.5533 9.48151 9.5533C9.55994 9.5533 9.62736 9.5467 9.68376 9.5335C9.74104 9.51929 9.7851 9.49949 9.81594 9.47394C9.84679 9.44839 9.86222 9.41895 9.86222 9.38545V9.3841C9.86222 9.34179 9.84327 9.311 9.80537 9.29154C9.76748 9.27208 9.70139 9.25719 9.60709 9.24653L9.12063 9.21083C8.8721 9.18714 8.68836 9.12843 8.56939 9.03503C8.45129 8.94078 8.39225 8.81032 8.39225 8.64382V8.64112C8.39225 8.50728 8.43279 8.39255 8.51386 8.29746C8.59582 8.20135 8.71259 8.12775 8.86417 8.07665C9.01576 8.02555 9.19642 8 9.40616 8C9.61679 8 9.79701 8.0242 9.94682 8.07276C10.0975 8.1203 10.2165 8.189 10.3037 8.27902C10.391 8.36887 10.4452 8.47682 10.4663 8.60288L10.4703 8.62403H9.83843L9.83577 8.61337C9.82608 8.57631 9.80361 8.54602 9.76836 8.52217C9.734 8.49746 9.68728 8.47902 9.62824 8.46667C9.56919 8.45347 9.49824 8.44687 9.41542 8.44687C9.33346 8.44687 9.26559 8.45296 9.21183 8.46531C9.15807 8.47682 9.11753 8.49391 9.09022 8.51692C9.0629 8.53892 9.04924 8.56531 9.04924 8.59628V8.59746C9.04924 8.63976 9.06951 8.67157 9.11005 8.69272C9.15148 8.71387 9.21977 8.72927 9.31494 8.73892L9.81066 8.77597C9.97017 8.79188 10.1024 8.82217 10.2072 8.86717C10.3121 8.91134 10.3901 8.97208 10.4412 9.04958C10.4932 9.12623 10.5192 9.22064 10.5192 9.33249V9.33384C10.5192 9.47124 10.4778 9.59036 10.3949 9.69069C10.3121 9.79036 10.1927 9.867 10.0367 9.92081C9.88073 9.9736 9.69258 10 9.47225 10Z" fill="#FF61F6"/>
<path d="M12.1432 10C11.9211 10 11.7298 9.97631 11.5694 9.92877C11.409 9.88105 11.2826 9.81151 11.1901 9.7198C11.0975 9.62724 11.0416 9.51489 11.0222 9.38274L11.0195 9.36295H11.658L11.6606 9.37208C11.6695 9.40998 11.6937 9.44264 11.7334 9.47005C11.7739 9.49645 11.829 9.51709 11.8986 9.53215C11.9682 9.54619 12.0528 9.5533 12.1524 9.5533C12.2308 9.5533 12.2983 9.5467 12.3547 9.5335C12.4119 9.51929 12.456 9.49949 12.4868 9.47394C12.5177 9.44839 12.5331 9.41895 12.5331 9.38545V9.3841C12.5331 9.34179 12.5142 9.311 12.4763 9.29154C12.4384 9.27208 12.3723 9.25719 12.278 9.24653L11.7915 9.21083C11.543 9.18714 11.3593 9.12843 11.2403 9.03503C11.1222 8.94078 11.0632 8.81032 11.0632 8.64382V8.64112C11.0632 8.50728 11.1037 8.39255 11.1848 8.29746C11.2667 8.20135 11.3835 8.12775 11.5351 8.07665C11.6867 8.02555 11.8673 8 12.0771 8C12.2877 8 12.4679 8.0242 12.6177 8.07276C12.7684 8.1203 12.8874 8.189 12.9746 8.27902C13.0619 8.36887 13.1161 8.47682 13.1372 8.60288L13.1412 8.62403H12.5093L12.5067 8.61337C12.497 8.57631 12.4745 8.54602 12.4393 8.52217C12.4049 8.49746 12.3582 8.47902 12.2991 8.46667C12.2401 8.45347 12.1691 8.44687 12.0863 8.44687C12.0044 8.44687 11.9365 8.45296 11.8827 8.46531C11.829 8.47682 11.7884 8.49391 11.7611 8.51692C11.7338 8.53892 11.7201 8.56531 11.7201 8.59628V8.59746C11.7201 8.63976 11.7404 8.67157 11.781 8.69272C11.8224 8.71387 11.8907 8.72927 11.9858 8.73892L12.4816 8.77597C12.6411 8.79188 12.7733 8.82217 12.8781 8.86717C12.983 8.91134 13.061 8.97208 13.1121 9.04958C13.1641 9.12623 13.1901 9.22064 13.1901 9.33249V9.33384C13.1901 9.47124 13.1487 9.59036 13.0658 9.69069C12.983 9.79036 12.8636 9.867 12.7076 9.92081C12.5516 9.9736 12.3635 10 12.1432 10Z" fill="#FF61F6"/>
</svg>
