<svg width="16" height="16" viewBox="0 0 16 16" fill="none" xmlns="http://www.w3.org/2000/svg">
<path d="M3 13.5C2.17157 13.5 1.5 12.8284 1.5 12V4C1.5 3.17157 2.17157 2.5 3 2.5H5.67157C6.0694 2.5 6.45093 2.65803 6.73223 2.93934L7.56066 3.76777C8.0295 4.23661 8.66539 4.5 9.32843 4.5H13C13.8284 4.5 14.5 5.17157 14.5 6V12C14.5 12.8284 13.8284 13.5 13 13.5H3Z" fill="black" stroke="white"/>
<path d="M9.69467 7.9122C9.87024 7.90711 10.0178 7.76207 10.0178 7.5865C10.0178 7.40838 9.87024 7.25826 9.69467 7.25826C9.52163 7.25826 9.3715 7.40838 9.3715 7.5865C9.3715 7.76207 9.52163 7.91475 9.69467 7.9122ZM9.69467 9.32187C9.87024 9.31679 10.0178 9.17175 10.0178 8.99617C10.0178 8.81806 9.87024 8.66793 9.69467 8.66793C9.52163 8.66793 9.3715 8.81806 9.3715 8.99617C9.3715 9.17175 9.52163 9.32442 9.69467 9.32187ZM9.69467 10.7316C9.87024 10.7264 10.0178 10.5814 10.0178 10.4059C10.0178 10.2277 9.87024 10.0776 9.69467 10.0776C9.52163 10.0776 9.3715 10.2277 9.3715 10.4059C9.3715 10.5814 9.52163 10.7341 9.69467 10.7316ZM10.7786 8.48726V8.10304H5.22901V8.48726H10.7786ZM10.7786 9.90203V9.51781H5.22901V9.90203H10.7786ZM5.79898 11.3422H10.201C10.7354 11.3422 11 11.0802 11 10.556V7.44655C11 6.92238 10.7354 6.65775 10.201 6.65775H5.79898C5.26718 6.65775 5 6.92238 5 7.44655V10.556C5 11.0802 5.26718 11.3422 5.79898 11.3422ZM5.80407 10.9325C5.54962 10.9325 5.40967 10.7977 5.40967 10.5331V7.46945C5.40967 7.20482 5.54962 7.06742 5.80407 7.06742H10.1959C10.4478 7.06742 10.5903 7.20482 10.5903 7.46945V10.5331C10.5903 10.7977 10.4478 10.9325 10.1959 10.9325H5.80407Z" fill="white"/>
</svg>
