<svg width="16" height="16" viewBox="0 0 16 16" fill="none" xmlns="http://www.w3.org/2000/svg">
<path d="M3 13.5C2.17157 13.5 1.5 12.8284 1.5 12V4C1.5 3.17157 2.17157 2.5 3 2.5H5.67157C6.0694 2.5 6.45093 2.65803 6.73223 2.93934L7.56066 3.76777C8.0295 4.23661 8.66539 4.5 9.32843 4.5H13C13.8284 4.5 14.5 5.17157 14.5 6V12C14.5 12.8284 13.8284 13.5 13 13.5H3Z" fill="#001E36" stroke="#31A8FF"/>
<path d="M5.60214 10.5V8.2713H4.47949V7.5H7.76431V8.2713H6.64374V10.5H5.60214Z" fill="#31A8FF"/>
<path d="M9.95008 10.5C9.61696 10.5 9.33011 10.4645 9.08952 10.3931C8.84891 10.3216 8.65924 10.2173 8.52044 10.0797C8.38163 9.94086 8.29769 9.77234 8.26861 9.57411L8.26465 9.54442H9.22236L9.22632 9.55812C9.23955 9.61497 9.27589 9.66396 9.33539 9.70508C9.3962 9.74467 9.47881 9.77564 9.58325 9.79822C9.68767 9.81929 9.81457 9.82995 9.96396 9.82995C10.0816 9.82995 10.1827 9.82005 10.2673 9.80025C10.3533 9.77893 10.4193 9.74924 10.4656 9.71091C10.5119 9.67259 10.535 9.62843 10.535 9.57817V9.57614C10.535 9.51269 10.5066 9.4665 10.4498 9.43731C10.3929 9.40812 10.2938 9.38579 10.1523 9.3698L9.42264 9.31624C9.04985 9.28071 8.77424 9.19264 8.59579 9.05254C8.41863 8.91117 8.33008 8.71548 8.33008 8.46574V8.46167C8.33008 8.26091 8.39089 8.08883 8.51249 7.94619C8.63543 7.80203 8.81059 7.69162 9.03795 7.61497C9.26533 7.53832 9.53632 7.5 9.85094 7.5C10.1669 7.5 10.4372 7.53629 10.6619 7.60914C10.888 7.68046 11.0664 7.7835 11.1973 7.91853C11.3282 8.0533 11.4095 8.21523 11.4412 8.40431L11.4471 8.43604H10.4993L10.4954 8.42005C10.4808 8.36447 10.4471 8.31904 10.3942 8.28325C10.3427 8.24619 10.2726 8.21853 10.1841 8.2C10.0955 8.1802 9.98907 8.1703 9.86483 8.1703C9.74188 8.1703 9.64008 8.17944 9.55945 8.19797C9.47881 8.21523 9.418 8.24086 9.37704 8.27538C9.33605 8.30838 9.31556 8.34797 9.31556 8.39442V8.39619C9.31556 8.45964 9.34597 8.50736 9.40678 8.53909C9.46891 8.57081 9.57135 8.59391 9.71412 8.60838L10.4577 8.66396C10.697 8.68782 10.8952 8.73325 11.0525 8.80076C11.2099 8.86701 11.3269 8.95812 11.4035 9.07437C11.4815 9.18934 11.5205 9.33097 11.5205 9.49873V9.50076C11.5205 9.70685 11.4584 9.88553 11.3341 10.036C11.2099 10.1855 11.0307 10.3005 10.7968 10.3812C10.5628 10.4604 10.2806 10.5 9.95008 10.5Z" fill="#31A8FF"/>
</svg>
