<svg width="16" height="16" viewBox="0 0 16 16" fill="none" xmlns="http://www.w3.org/2000/svg">
<path d="M3 13.5C2.17157 13.5 1.5 12.8284 1.5 12V4C1.5 3.17157 2.17157 2.5 3 2.5H5.67157C6.0694 2.5 6.45093 2.65803 6.73223 2.93934L7.56066 3.76777C8.0295 4.23661 8.66539 4.5 9.32843 4.5H13C13.8284 4.5 14.5 5.17157 14.5 6V12C14.5 12.8284 13.8284 13.5 13 13.5H3Z" fill="black" stroke="white"/>
<path d="M5.78452 10.9845H8.40936C8.9006 10.9845 9.19389 10.701 9.19389 10.2098V7.78777C9.19389 7.29897 8.92505 7.01547 8.43381 7.01547H5.78452C5.31528 7.01547 5 7.29897 5 7.78777V10.2098C5 10.701 5.29328 10.9845 5.78452 10.9845ZM9.52627 9.72096L10.4159 10.4908C10.499 10.5642 10.5967 10.6106 10.6847 10.6106C10.8754 10.6106 11 10.4713 11 10.2709V7.72912C11 7.52871 10.8754 7.3894 10.6847 7.3894C10.5967 7.3894 10.499 7.43584 10.4159 7.50916L9.52627 8.27657V9.72096Z" fill="white"/>
</svg>
