<svg width="16" height="16" viewBox="0 0 16 16" fill="none" xmlns="http://www.w3.org/2000/svg">
<path d="M3 13.5C2.17157 13.5 1.5 12.8284 1.5 12V4C1.5 3.17157 2.17157 2.5 3 2.5H5.67157C6.0694 2.5 6.45093 2.65803 6.73223 2.93934L7.56066 3.76777C8.0295 4.23661 8.66539 4.5 9.32843 4.5H13C13.8284 4.5 14.5 5.17157 14.5 6V12C14.5 12.8284 13.8284 13.5 13 13.5H3Z" fill="#032030" stroke="#23A8F2"/>
<path fill-rule="evenodd" clip-rule="evenodd" d="M9.25471 11.959C9.34921 11.9958 9.45697 11.9935 9.55235 11.9476L10.7876 11.3532C10.9175 11.2907 11 11.1594 11 11.0152V6.9848C11 6.84068 10.9175 6.70931 10.7877 6.64685L9.55235 6.05243C9.42718 5.99219 9.28067 6.00695 9.17081 6.08682C9.15512 6.09823 9.14017 6.11097 9.12614 6.125L6.7613 8.28249L5.73123 7.50058C5.63534 7.42779 5.50122 7.43376 5.41216 7.51476L5.08178 7.81529C4.97285 7.91439 4.97272 8.08577 5.08151 8.18502L5.97482 9L5.08151 9.815C4.97272 9.91425 4.97285 10.0856 5.08178 10.1847L5.41216 10.4852C5.50122 10.5663 5.63534 10.5722 5.73123 10.4994L6.7613 9.71752L9.12614 11.875C9.16355 11.9124 9.20747 11.9406 9.25471 11.959ZM9.50091 7.63794L7.70655 9L9.50091 10.3621V7.63794Z" fill="#23A8F2"/>
</svg>
