<svg width="16" height="16" viewBox="0 0 16 16" fill="none" xmlns="http://www.w3.org/2000/svg">
<rect x="2.5" y="2.5" width="11" height="11" rx="2.5" fill="#330000"/>
<rect x="2.5" y="2.5" width="11" height="11" rx="2.5" stroke="#FF9A00"/>
<path d="M8.01105 9.10262H6.69526L6.4321 9.91841C6.4321 9.94473 6.40579 9.97105 6.35316 9.97105H5.72158C5.70792 9.97012 5.69507 9.96428 5.68539 9.9546C5.67571 9.94493 5.66987 9.93207 5.66895 9.91841L6.80052 6.65526C6.82684 6.62894 6.82684 6.60262 6.82684 6.54999C6.84855 6.47302 6.85744 6.39301 6.85316 6.31315L6.87947 6.28683H7.77421C7.80052 6.28683 7.82684 6.28683 7.82684 6.31315L9.11631 9.91841C9.11631 9.94473 9.11631 9.97105 9.09 9.97105H8.35316C8.3395 9.97012 8.32664 9.96428 8.31697 9.9546C8.30729 9.94493 8.30145 9.93207 8.30052 9.91841L8.01105 9.10262ZM6.90579 8.3921H7.80052C7.77421 8.31315 7.74789 8.2342 7.72158 8.12894C7.69824 8.02857 7.6629 7.93138 7.61631 7.83947C7.59 7.7342 7.53737 7.62894 7.51105 7.52368C7.48792 7.4148 7.45261 7.30887 7.40579 7.20789C7.37102 7.12293 7.34458 7.0348 7.32684 6.94473C7.29879 7.09805 7.25468 7.248 7.19526 7.3921C7.14263 7.54999 7.09 7.7342 7.03737 7.91841C7.00579 8.07947 6.9618 8.23783 6.90579 8.3921Z" fill="#FF9A00"/>
<path d="M9.87961 6.89474C9.76187 6.89064 9.64963 6.84388 9.56382 6.76316C9.4905 6.67475 9.45294 6.56209 9.45856 6.44737C9.46265 6.32963 9.50942 6.21739 9.59014 6.13158C9.63148 6.08989 9.68067 6.05679 9.73487 6.03421C9.78907 6.01163 9.84721 6 9.90593 6C9.96464 6 10.0228 6.01163 10.077 6.03421C10.1312 6.05679 10.1804 6.08989 10.2217 6.13158C10.2633 6.17193 10.2945 6.22168 10.3128 6.27664C10.3312 6.3316 10.336 6.39015 10.327 6.44737C10.3335 6.50683 10.3248 6.56698 10.3018 6.6222C10.2788 6.67742 10.2422 6.72591 10.1954 6.76316C10.1544 6.80526 10.1052 6.83862 10.051 6.86123C9.99669 6.88384 9.9384 6.89524 9.87961 6.89474ZM9.51119 9.92105V7.23684C9.51211 7.22319 9.51795 7.21033 9.52763 7.20065C9.53731 7.19098 9.55017 7.18513 9.56382 7.18421H10.248C10.2617 7.18513 10.2745 7.19098 10.2842 7.20065C10.2939 7.21033 10.2997 7.22319 10.3007 7.23684V9.94737C10.2997 9.96102 10.2939 9.97388 10.2842 9.98356C10.2745 9.99324 10.2617 9.99908 10.248 10H9.56382C9.51119 10 9.51119 9.97368 9.51119 9.92105Z" fill="#FF9A00"/>
</svg>
