<svg width="16" height="16" viewBox="0 0 16 16" fill="none" xmlns="http://www.w3.org/2000/svg">
<rect x="2.5" y="2.5" width="11" height="11" rx="2.5" fill="#470137"/>
<rect x="2.5" y="2.5" width="11" height="11" rx="2.5" stroke="#FF61F6"/>
<path d="M9.88921 4.66689L9.75276 6.8096L8.44813 4L9.88921 4.66689ZM8.98558 7.43752L7.99979 8L7.01399 7.43752L7.21449 6.95161H8.78508L8.98558 7.43752ZM7.99979 5.06648L8.51634 6.32231H7.48322L7.99979 5.06648ZM6.24541 6.8096L6.11035 4.66689L7.55144 4L6.24541 6.8096Z" fill="#FF61F6"/>
<path fill-rule="evenodd" clip-rule="evenodd" d="M7.27239 9.33567C7.25861 9.32195 7.24879 9.30477 7.24395 9.28595C7.23911 9.26712 7.23943 9.24734 7.24488 9.22868C7.25033 9.21002 7.2607 9.19317 7.27491 9.1799C7.28912 9.16664 7.30664 9.15744 7.32563 9.15329L8.01346 9.0025C8.03119 8.99862 8.04961 8.99926 8.06702 9.00436C8.08444 9.00947 8.10029 9.01886 8.11312 9.0317C8.12595 9.04453 8.13535 9.06038 8.14045 9.07779C8.14556 9.09521 8.1462 9.11363 8.14232 9.13135L7.99139 9.81919C7.98722 9.83813 7.97804 9.85561 7.9648 9.86979C7.95156 9.88397 7.93476 9.89433 7.91614 9.89978C7.89753 9.90524 7.87779 9.90559 7.85899 9.90081C7.8402 9.89602 7.82303 9.88627 7.80929 9.87258L7.27224 9.33553L7.27239 9.33567ZM8.24447 12C8.36311 12 8.47688 11.9529 8.56076 11.869C8.64465 11.7851 8.69178 11.6713 8.69178 11.5527C8.69178 11.4341 8.64465 11.3203 8.56076 11.2364C8.47688 11.1525 8.36311 11.1054 8.24447 11.1054C8.12584 11.1054 8.01207 11.1525 7.92818 11.2364C7.8443 11.3203 7.79717 11.4341 7.79717 11.5527C7.79717 11.6713 7.8443 11.7851 7.92818 11.869C8.01207 11.9529 8.12584 12 8.24447 12ZM7.33688 9.80793C7.30983 9.78088 7.27313 9.76569 7.23487 9.76569C7.19661 9.76569 7.15992 9.78088 7.13286 9.80793L6.80056 10.1401C6.74366 10.197 6.69853 10.2645 6.66773 10.3389C6.63694 10.4132 6.62109 10.4929 6.62109 10.5733C6.62109 10.6538 6.63694 10.7335 6.66773 10.8078C6.69853 10.8821 6.74366 10.9497 6.80056 11.0066L6.80113 11.007C6.91625 11.1218 7.07223 11.1863 7.23482 11.1862C7.39741 11.1861 7.55332 11.1215 7.66832 11.0066L8.53479 10.1401C8.66176 10.0131 8.86738 10.0131 8.99435 10.1398C9.12104 10.2662 9.12119 10.4714 8.99479 10.5981L8.9945 10.5982L8.7391 10.8536C8.71203 10.8807 8.69681 10.9174 8.6968 10.9556C8.69678 10.9939 8.71198 11.0306 8.73903 11.0577C8.76609 11.0848 8.80279 11.1 8.84107 11.1C8.87934 11.1 8.91606 11.0848 8.94313 11.0578L9.19853 10.8024L9.1991 10.8018C9.31383 10.6868 9.37818 10.5309 9.37799 10.3684C9.3778 10.206 9.31309 10.0502 9.19809 9.93549C9.08298 9.82066 8.927 9.75622 8.76441 9.7563C8.60182 9.75638 8.4459 9.82098 8.3309 9.93592L7.46429 10.8024C7.33746 10.9294 7.13185 10.9294 7.00473 10.8024C6.94401 10.7416 6.9099 10.6592 6.9099 10.5733C6.9099 10.4874 6.94401 10.405 7.00473 10.3443L7.33688 10.012C7.36394 9.9849 7.37913 9.94821 7.37913 9.90995C7.37913 9.87169 7.36394 9.83499 7.33688 9.80793Z" fill="#FF61F6"/>
</svg>
