<svg width="16" height="16" viewBox="0 0 16 16" fill="none" xmlns="http://www.w3.org/2000/svg">
<rect x="2.5" y="2.5" width="11" height="11" rx="2.5" fill="#001E36"/>
<rect x="2.5" y="2.5" width="11" height="11" rx="2.5" stroke="#31A8FF"/>
<path d="M9.88921 5.16689L9.75276 7.3096L8.44813 4.5L9.88921 5.16689ZM8.98558 7.93752L7.99979 8.5L7.01399 7.93752L7.21449 7.45161H8.78508L8.98558 7.93752ZM7.99979 5.56648L8.51634 6.82231H7.48322L7.99979 5.56648ZM6.24541 7.3096L6.11035 5.16689L7.55144 4.5L6.24541 7.3096Z" fill="#31A8FF"/>
<path d="M5.64636 11.5C5.3985 11.5 5.18467 11.4594 5.00487 11.3783C4.82574 11.2962 4.68776 11.1807 4.59075 11.0317C4.49373 10.8827 4.44531 10.7054 4.44531 10.4999V10.4974C4.44531 10.2927 4.49373 10.1159 4.59075 9.96694C4.68776 9.81795 4.82574 9.70283 5.00487 9.62173C5.18467 9.54063 5.3985 9.5 5.64636 9.5C5.85969 9.5 6.05066 9.53403 6.21895 9.60192C6.38826 9.66896 6.52455 9.76412 6.62782 9.88754C6.73093 10.0101 6.79171 10.1547 6.81033 10.3215L6.81287 10.3452H6.16088L6.15817 10.332C6.14141 10.2615 6.10975 10.2014 6.06302 10.1522C6.01714 10.1027 5.9589 10.0648 5.8883 10.0384C5.81787 10.012 5.73846 9.9986 5.65026 9.9986C5.54004 9.9986 5.44523 10.0189 5.36582 10.0596C5.28744 10.1 5.22699 10.1579 5.18467 10.2328C5.14234 10.3069 5.12118 10.3951 5.12118 10.4974V10.4999C5.12118 10.6023 5.14234 10.6909 5.18467 10.7659C5.22699 10.8407 5.28777 10.8986 5.36718 10.9391C5.44658 10.9797 5.54139 10.9999 5.65161 10.9999C5.73897 10.9999 5.81736 10.9872 5.88711 10.9616C5.9567 10.9352 6.01494 10.8973 6.06167 10.8478C6.1084 10.7976 6.14056 10.7371 6.15817 10.6667L6.16088 10.6521H6.81287L6.81152 10.6733C6.79222 10.8417 6.73093 10.9877 6.62782 11.1111C6.52455 11.2345 6.38876 11.3302 6.22031 11.3981C6.05286 11.466 5.86155 11.5 5.64636 11.5Z" fill="#31A8FF"/>
<path d="M8.13632 11.5C7.91424 11.5 7.723 11.4763 7.56261 11.4288C7.4022 11.3811 7.27576 11.3115 7.18322 11.2198C7.09068 11.1272 7.03473 11.0149 7.01533 10.8827L7.0127 10.8629H7.65117L7.65381 10.8721C7.66263 10.91 7.68686 10.9426 7.72652 10.9701C7.76706 10.9964 7.82214 11.0171 7.89177 11.0321C7.96138 11.0462 8.04598 11.0533 8.14557 11.0533C8.224 11.0533 8.29143 11.0467 8.34782 11.0335C8.4051 11.0193 8.44916 10.9995 8.48001 10.9739C8.51085 10.9484 8.52628 10.919 8.52628 10.8854V10.8841C8.52628 10.8418 8.50733 10.811 8.46943 10.7915C8.43155 10.7721 8.36545 10.7572 8.27116 10.7465L7.78469 10.7108C7.53616 10.6871 7.35242 10.6284 7.23346 10.535C7.11535 10.4408 7.05632 10.3103 7.05632 10.1438V10.1411C7.05632 10.0073 7.09686 9.89255 7.17792 9.79746C7.25989 9.70135 7.37665 9.62775 7.52823 9.57665C7.67982 9.52555 7.86048 9.5 8.07023 9.5C8.28085 9.5 8.46107 9.5242 8.61089 9.57276C8.76158 9.6203 8.88055 9.689 8.96781 9.77902C9.05505 9.86887 9.10925 9.97682 9.1304 10.1029L9.13436 10.124H8.50249L8.49984 10.1134C8.49014 10.0763 8.46767 10.046 8.43243 10.0222C8.39806 9.99746 8.35134 9.97902 8.29231 9.96667C8.23325 9.95347 8.16231 9.94687 8.07948 9.94687C7.99752 9.94687 7.92965 9.95296 7.87589 9.96531C7.82214 9.97682 7.7816 9.99391 7.75429 10.0169C7.72696 10.0389 7.7133 10.0653 7.7133 10.0963V10.0975C7.7133 10.1398 7.73358 10.1716 7.77412 10.1927C7.81554 10.2139 7.88383 10.2293 7.97901 10.2389L8.47473 10.276C8.63424 10.2919 8.76642 10.3222 8.87129 10.3672C8.97617 10.4113 9.05417 10.4721 9.10527 10.5496C9.15726 10.6262 9.18327 10.7206 9.18327 10.8325V10.8338C9.18327 10.9712 9.14185 11.0904 9.05901 11.1907C8.97616 11.2904 8.85676 11.367 8.70077 11.4208C8.54479 11.4736 8.35664 11.5 8.13632 11.5Z" fill="#31A8FF"/>
<path d="M10.5074 11.5C10.2853 11.5 10.0941 11.4763 9.9337 11.4288C9.7733 11.3811 9.64685 11.3115 9.55431 11.2198C9.46178 11.1272 9.40582 11.0149 9.38643 10.8827L9.38379 10.8629H10.0223L10.0249 10.8721C10.0337 10.91 10.058 10.9426 10.0976 10.9701C10.1382 10.9964 10.1932 11.0171 10.2629 11.0321C10.3325 11.0462 10.4171 11.0533 10.5167 11.0533C10.5951 11.0533 10.6625 11.0467 10.7189 11.0335C10.7762 11.0193 10.8203 10.9995 10.8511 10.9739C10.8819 10.9484 10.8974 10.919 10.8974 10.8854V10.8841C10.8974 10.8418 10.8784 10.811 10.8405 10.7915C10.8026 10.7721 10.7365 10.7572 10.6423 10.7465L10.1558 10.7108C9.90726 10.6871 9.72352 10.6284 9.60455 10.535C9.48645 10.4408 9.42741 10.3103 9.42741 10.1438V10.1411C9.42741 10.0073 9.46795 9.89255 9.54902 9.79746C9.63098 9.70135 9.74775 9.62775 9.89932 9.57665C10.0509 9.52555 10.2316 9.5 10.4413 9.5C10.6519 9.5 10.8322 9.5242 10.982 9.57276C11.1327 9.6203 11.2516 9.689 11.3389 9.77902C11.4261 9.86887 11.4803 9.97682 11.5015 10.1029L11.5054 10.124H10.8736L10.8709 10.1134C10.8612 10.0763 10.8388 10.046 10.8035 10.0222C10.7692 9.99746 10.7224 9.97902 10.6634 9.96667C10.6043 9.95347 10.5334 9.94687 10.4506 9.94687C10.3686 9.94687 10.3007 9.95296 10.247 9.96531C10.1932 9.97682 10.1527 9.99391 10.1254 10.0169C10.0981 10.0389 10.0844 10.0653 10.0844 10.0963V10.0975C10.0844 10.1398 10.1047 10.1716 10.1452 10.1927C10.1866 10.2139 10.2549 10.2293 10.3501 10.2389L10.8458 10.276C11.0053 10.2919 11.1375 10.3222 11.2424 10.3672C11.3473 10.4113 11.4253 10.4721 11.4764 10.5496C11.5284 10.6262 11.5544 10.7206 11.5544 10.8325V10.8338C11.5544 10.9712 11.5129 11.0904 11.4301 11.1907C11.3473 11.2904 11.2279 11.367 11.0719 11.4208C10.9159 11.4736 10.7277 11.5 10.5074 11.5Z" fill="#31A8FF"/>
</svg>
