<svg width="16" height="16" viewBox="0 0 16 16" fill="none" xmlns="http://www.w3.org/2000/svg">
<rect x="2.5" y="2.5" width="11" height="11" rx="2.5" fill="#001E36"/>
<rect x="2.5" y="2.5" width="11" height="11" rx="2.5" stroke="#31A8FF"/>
<path d="M9.88921 5.36689L9.75276 7.50959L8.44813 4.7L9.88921 5.36689ZM8.98558 8.13752L7.99979 8.7L7.01399 8.13752L7.21449 7.65161H8.78508L8.98558 8.13752ZM7.99979 5.76647L8.51634 7.02231H7.48322L7.99979 5.76647ZM6.24541 7.50959L6.11035 5.36689L7.55144 4.7L6.24541 7.50959Z" fill="#31A8FF"/>
<path d="M4.48242 11.3V9.7H5.03907V10.8897H5.91616V11.3H4.48242Z" fill="#31A8FF"/>
<path d="M6.11621 11.3V9.7H7.64526V10.0892H6.67283V10.322H7.57651V10.668H6.67283V10.9108H7.64526V11.3H6.11621Z" fill="#31A8FF"/>
<path d="M8.74362 11.3C8.56596 11.3 8.41297 11.281 8.28466 11.243C8.15633 11.2048 8.05518 11.1492 7.98115 11.0758C7.90712 11.0018 7.86235 10.9119 7.84684 10.8062L7.84473 10.7904H8.35551L8.35762 10.7977C8.36467 10.828 8.38406 10.8541 8.41579 10.876C8.44822 10.8972 8.49228 10.9137 8.54798 10.9257C8.60367 10.937 8.67135 10.9426 8.75103 10.9426C8.81377 10.9426 8.86771 10.9374 8.91283 10.9268C8.95865 10.9154 8.9939 10.8996 9.01857 10.8792C9.04325 10.8587 9.0556 10.8352 9.0556 10.8084V10.8073C9.0556 10.7734 9.04044 10.7488 9.01011 10.7332C8.97981 10.7177 8.92693 10.7058 8.8515 10.6972L8.46232 10.6687C8.2635 10.6497 8.11651 10.6027 8.02134 10.528C7.92685 10.4526 7.87962 10.3483 7.87962 10.2151V10.2129C7.87962 10.1058 7.91206 10.014 7.97691 9.93797C8.04248 9.86108 8.13589 9.8022 8.25715 9.76132C8.37843 9.72044 8.52295 9.7 8.69075 9.7C8.85925 9.7 9.00343 9.71935 9.12328 9.7582C9.24383 9.79624 9.33901 9.8512 9.40882 9.92321C9.47861 9.99509 9.52197 10.0815 9.53889 10.1823L9.54205 10.1992H9.03656L9.03444 10.1907C9.02668 10.161 9.00871 10.1368 8.98051 10.1177C8.95302 10.098 8.91564 10.0832 8.86842 10.0733C8.82117 10.0628 8.76442 10.0575 8.69816 10.0575C8.63258 10.0575 8.57829 10.0624 8.53529 10.0722C8.49228 10.0815 8.45985 10.0951 8.438 10.1135C8.41614 10.1311 8.40521 10.1522 8.40521 10.177V10.178C8.40521 10.2118 8.42143 10.2373 8.45386 10.2542C8.487 10.2711 8.54163 10.2834 8.61778 10.2911L9.01435 10.3208C9.14196 10.3335 9.24771 10.3577 9.3316 10.3937C9.4155 10.4291 9.4779 10.4777 9.51878 10.5397C9.56038 10.601 9.58119 10.6765 9.58119 10.766V10.7671C9.58119 10.877 9.54805 10.9723 9.48178 11.0526C9.4155 11.1323 9.31998 11.1936 9.19518 11.2366C9.07041 11.2789 8.91988 11.3 8.74362 11.3Z" fill="#31A8FF"/>
<path d="M10.6801 11.3C10.5025 11.3 10.3495 11.281 10.2212 11.243C10.0929 11.2048 9.9917 11.1492 9.91767 11.0758C9.84364 11.0018 9.79887 10.9119 9.78336 10.8062L9.78125 10.7904H10.292L10.2941 10.7977C10.3012 10.828 10.3206 10.8541 10.3523 10.876C10.3847 10.8972 10.4288 10.9137 10.4845 10.9257C10.5402 10.937 10.6079 10.9426 10.6876 10.9426C10.7503 10.9426 10.8042 10.9374 10.8494 10.9268C10.8952 10.9154 10.9304 10.8996 10.9551 10.8792C10.9798 10.8587 10.9921 10.8352 10.9921 10.8084V10.8073C10.9921 10.7734 10.977 10.7488 10.9466 10.7332C10.9163 10.7177 10.8635 10.7058 10.788 10.6972L10.3988 10.6687C10.2 10.6497 10.053 10.6027 9.95786 10.528C9.86338 10.4526 9.81615 10.3483 9.81615 10.2151V10.2129C9.81615 10.1058 9.84858 10.014 9.91343 9.93797C9.979 9.86108 10.0724 9.8022 10.1937 9.76132C10.3149 9.72044 10.4595 9.7 10.6273 9.7C10.7958 9.7 10.94 9.71935 11.0598 9.7582C11.1804 9.79624 11.2755 9.8512 11.3453 9.92321C11.4151 9.99509 11.4585 10.0815 11.4754 10.1823L11.4786 10.1992H10.9731L10.971 10.1907C10.9632 10.161 10.9452 10.1368 10.917 10.1177C10.8895 10.098 10.8522 10.0832 10.8049 10.0733C10.7577 10.0628 10.7009 10.0575 10.6347 10.0575C10.5691 10.0575 10.5148 10.0624 10.4718 10.0722C10.4288 10.0815 10.3964 10.0951 10.3745 10.1135C10.3527 10.1311 10.3417 10.1522 10.3417 10.177V10.178C10.3417 10.2118 10.358 10.2373 10.3904 10.2542C10.4235 10.2711 10.4782 10.2834 10.5543 10.2911L10.9509 10.3208C11.0785 10.3335 11.1842 10.3577 11.2681 10.3937C11.352 10.4291 11.4144 10.4777 11.4553 10.5397C11.4969 10.601 11.5177 10.6765 11.5177 10.766V10.7671C11.5177 10.877 11.4846 10.9723 11.4183 11.0526C11.352 11.1323 11.2565 11.1936 11.1317 11.2366C11.0069 11.2789 10.8564 11.3 10.6801 11.3Z" fill="#31A8FF"/>
</svg>
