<svg width="16" height="16" viewBox="0 0 16 16" fill="none" xmlns="http://www.w3.org/2000/svg">
<rect x="2.5" y="2.5" width="11" height="11" rx="2.5" fill="#470137"/>
<rect x="2.5" y="2.5" width="11" height="11" rx="2.5" stroke="#FF61F6"/>
<path d="M9.88921 4.66689L9.75276 6.8096L8.44813 4L9.88921 4.66689ZM8.98558 7.43752L7.99979 8L7.01399 7.43752L7.21449 6.95161H8.78508L8.98558 7.43752ZM7.99979 5.06648L8.51634 6.32231H7.48322L7.99979 5.06648ZM6.24541 6.8096L6.11035 4.66689L7.55144 4L6.24541 6.8096Z" fill="#FF61F6"/>
<path d="M8.00003 12C8.02418 12 8.0619 11.9909 8.09963 11.9713C8.95829 11.5216 9.23444 11.2968 9.23444 10.755V9.6172C9.23444 9.46177 9.16804 9.41197 9.04128 9.35915C8.86472 9.28672 8.30033 9.08149 8.12528 9.02113C8.08454 9.00755 8.04228 9 8.00003 9C7.95778 9 7.91552 9.00905 7.87629 9.02113C7.69973 9.07847 7.13534 9.28823 6.95878 9.35915C6.83353 9.41046 6.76562 9.46177 6.76562 9.6172V10.755C6.76562 11.2968 7.05687 11.496 7.90043 11.9713C7.93967 11.9925 7.97589 12 8.00003 12Z" fill="#FF61F6"/>
</svg>
