<svg width="16" height="16" viewBox="0 0 16 16" fill="none" xmlns="http://www.w3.org/2000/svg">
<rect x="2.5" y="2.5" width="11" height="11" rx="2.5" fill="black"/>
<rect x="2.5" y="2.5" width="11" height="11" rx="2.5" stroke="white"/>
<path d="M5.09961 8.12015C5.09961 8.97782 5.34751 9.92384 5.76638 10.659C5.83762 10.7815 5.97154 10.8157 6.09976 10.7445C6.21944 10.6789 6.25363 10.545 6.17955 10.4111C5.79772 9.71582 5.58402 8.88664 5.58402 8.12015C5.58402 6.5387 6.54997 5.48441 8.00034 5.48441C9.44785 5.48441 10.4167 6.5387 10.4167 8.12015C10.4167 8.88664 10.2001 9.71582 9.81829 10.4111C9.74421 10.545 9.77841 10.6789 9.89807 10.7445C10.0263 10.8157 10.1631 10.7815 10.2315 10.659C10.6503 9.92384 10.9011 8.97782 10.9011 8.12015C10.9011 6.24521 9.74421 5 8.00034 5C6.25363 5 5.09961 6.24521 5.09961 8.12015ZM5.99148 10.5878C6.08552 10.9154 6.36476 11.0665 6.6953 10.9724C7.02298 10.8784 7.17685 10.5934 7.07997 10.2658L6.6725 8.87523C6.57847 8.55041 6.29923 8.39653 5.96869 8.49057C5.641 8.58744 5.48713 8.86954 5.58402 9.20007L5.99148 10.5878ZM10.0063 10.5878L10.4138 9.20007C10.5107 8.86671 10.3597 8.58744 10.0291 8.49057C9.6986 8.39653 9.42223 8.55041 9.32533 8.87523L8.91785 10.2658C8.82098 10.5963 8.97484 10.8784 9.30254 10.9724C9.63593 11.0665 9.91231 10.9154 10.0063 10.5878Z" fill="white"/>
</svg>
