<svg width="16" height="16" viewBox="0 0 16 16" fill="none" xmlns="http://www.w3.org/2000/svg">
<rect x="2.5" y="2.5" width="11" height="11" rx="2.5" fill="#470137"/>
<rect x="2.5" y="2.5" width="11" height="11" rx="2.5" stroke="#FF61F6"/>
<path d="M4.93894 8.8C4.76127 8.8 4.60828 8.78105 4.47997 8.74301C4.35165 8.70484 4.25049 8.6492 4.17646 8.57583C4.10243 8.50179 4.05766 8.41191 4.04215 8.30619L4.04004 8.29035H4.55082L4.55293 8.29766C4.55998 8.32798 4.57937 8.35411 4.6111 8.37604C4.64353 8.39715 4.68759 8.41367 4.7433 8.42572C4.79898 8.43695 4.86667 8.44264 4.94634 8.44264C5.00908 8.44264 5.06302 8.43736 5.10814 8.4268C5.15396 8.41543 5.18921 8.39959 5.21389 8.37915C5.23856 8.35871 5.25091 8.33516 5.25091 8.30836V8.30727C5.25091 8.27343 5.23575 8.2488 5.20543 8.23323C5.17512 8.21766 5.12225 8.20575 5.04681 8.19722L4.65764 8.16866C4.45881 8.14971 4.31182 8.10274 4.21665 8.02802C4.12216 7.95262 4.07494 7.84825 4.07494 7.71506V7.71289C4.07494 7.60582 4.10737 7.51404 4.17222 7.43797C4.23779 7.36108 4.33121 7.3022 4.45247 7.26132C4.57374 7.22044 4.71827 7.2 4.88606 7.2C5.05456 7.2 5.19874 7.21935 5.31859 7.2582C5.43915 7.29624 5.53432 7.3512 5.60413 7.42321C5.67392 7.49509 5.71728 7.58145 5.7342 7.6823L5.73737 7.69922H5.23188L5.22975 7.69069C5.222 7.66105 5.20402 7.63682 5.17582 7.61773C5.14833 7.59797 5.11096 7.58321 5.06373 7.57333C5.01649 7.56277 4.95973 7.55749 4.89347 7.55749C4.8279 7.55749 4.7736 7.56237 4.7306 7.57225C4.68759 7.58145 4.65516 7.59512 4.63331 7.61353C4.61145 7.63113 4.60053 7.65225 4.60053 7.67702V7.67797C4.60053 7.71181 4.61674 7.73726 4.64918 7.75418C4.68231 7.7711 4.73695 7.78341 4.81309 7.79113L5.20966 7.82078C5.33727 7.8335 5.44302 7.85773 5.52692 7.89374C5.61081 7.92907 5.67322 7.97766 5.7141 8.03966C5.75569 8.10098 5.7765 8.17651 5.7765 8.26599V8.26707C5.7765 8.37699 5.74336 8.47228 5.67709 8.55255C5.61081 8.63228 5.51529 8.6936 5.3905 8.73665C5.26572 8.77888 5.11519 8.8 4.93894 8.8Z" fill="#FF61F6"/>
<path d="M5.97656 8.8L6.66848 7.2H7.20515V7.60692H7.02553L6.56203 8.8H5.97656ZM6.38572 8.49172L6.53098 8.13803H7.50897L7.65203 8.49172H6.38572ZM7.50121 8.8L7.03772 7.60692V7.2H7.39365L8.08668 8.8H7.50121Z" fill="#FF61F6"/>
<path d="M9.18503 8.8C9.00736 8.8 8.85438 8.78105 8.72607 8.74301C8.59774 8.70484 8.49658 8.6492 8.42255 8.57583C8.34852 8.50179 8.30376 8.41191 8.28824 8.30619L8.28613 8.29035H8.79691L8.79903 8.29766C8.80608 8.32798 8.82546 8.35411 8.85719 8.37604C8.88963 8.39715 8.93369 8.41367 8.98939 8.42572C9.04508 8.43695 9.11276 8.44264 9.19243 8.44264C9.25518 8.44264 9.30912 8.43736 9.35423 8.4268C9.40006 8.41543 9.4353 8.39959 9.45998 8.37915C9.48466 8.35871 9.497 8.33516 9.497 8.30836V8.30727C9.497 8.27343 9.48184 8.2488 9.45152 8.23323C9.42121 8.21766 9.36834 8.20575 9.2929 8.19722L8.90373 8.16866C8.70491 8.14971 8.55792 8.10274 8.46274 8.02802C8.36826 7.95262 8.32103 7.84825 8.32103 7.71506V7.71289C8.32103 7.60582 8.35346 7.51404 8.41832 7.43797C8.48389 7.36108 8.5773 7.3022 8.69856 7.26132C8.81983 7.22044 8.96436 7.2 9.13216 7.2C9.30066 7.2 9.44483 7.21935 9.56469 7.2582C9.68524 7.29624 9.78042 7.3512 9.85022 7.42321C9.92002 7.49509 9.96337 7.58145 9.98029 7.6823L9.98346 7.69922H9.47797L9.47585 7.69069C9.46809 7.66105 9.45011 7.63682 9.42192 7.61773C9.39442 7.59797 9.35705 7.58321 9.30982 7.57333C9.26258 7.56277 9.20582 7.55749 9.13956 7.55749C9.07399 7.55749 9.0197 7.56237 8.97669 7.57225C8.93369 7.58145 8.90125 7.59512 8.87941 7.61353C8.85754 7.63113 8.84662 7.65225 8.84662 7.67702V7.67797C8.84662 7.71181 8.86284 7.73726 8.89527 7.75418C8.92841 7.7711 8.98304 7.78341 9.05918 7.79113L9.45576 7.82078C9.58337 7.8335 9.68911 7.85773 9.77301 7.89374C9.85691 7.92907 9.91931 7.97766 9.96019 8.03966C10.0018 8.10098 10.0226 8.17651 10.0226 8.26599V8.26707C10.0226 8.37699 9.98946 8.47228 9.92318 8.55255C9.85691 8.63228 9.76138 8.6936 9.63659 8.73665C9.51181 8.77888 9.36129 8.8 9.18503 8.8Z" fill="#FF61F6"/>
<path d="M11.1216 8.8C10.9439 8.8 10.7909 8.78105 10.6626 8.74301C10.5343 8.70484 10.4331 8.6492 10.3591 8.57583C10.285 8.50179 10.2403 8.41191 10.2248 8.30619L10.2227 8.29035H10.7334L10.7355 8.29766C10.7426 8.32798 10.762 8.35411 10.7937 8.37604C10.8261 8.39715 10.8702 8.41367 10.9259 8.42572C10.9816 8.43695 11.0493 8.44264 11.129 8.44264C11.1917 8.44264 11.2456 8.43736 11.2908 8.4268C11.3366 8.41543 11.3718 8.39959 11.3965 8.37915C11.4212 8.35871 11.4335 8.33516 11.4335 8.30836V8.30727C11.4335 8.27343 11.4184 8.2488 11.388 8.23323C11.3577 8.21766 11.3049 8.20575 11.2294 8.19722L10.8403 8.16866C10.6414 8.14971 10.4944 8.10274 10.3993 8.02802C10.3048 7.95262 10.2576 7.84825 10.2576 7.71506V7.71289C10.2576 7.60582 10.29 7.51404 10.3548 7.43797C10.4204 7.36108 10.5138 7.3022 10.6351 7.26132C10.7564 7.22044 10.9009 7.2 11.0687 7.2C11.2372 7.2 11.3814 7.21935 11.5012 7.2582C11.6218 7.29624 11.7169 7.3512 11.7867 7.42321C11.8565 7.49509 11.8999 7.58145 11.9168 7.6823L11.92 7.69922H11.4145L11.4124 7.69069C11.4046 7.66105 11.3866 7.63682 11.3584 7.61773C11.3309 7.59797 11.2936 7.58321 11.2463 7.57333C11.1991 7.56277 11.1423 7.55749 11.0761 7.55749C11.0105 7.55749 10.9562 7.56237 10.9132 7.57225C10.8702 7.58145 10.8378 7.59512 10.8159 7.61353C10.7941 7.63113 10.7831 7.65225 10.7831 7.67702V7.67797C10.7831 7.71181 10.7994 7.73726 10.8318 7.75418C10.8649 7.7711 10.9196 7.78341 10.9957 7.79113L11.3923 7.82078C11.5199 7.8335 11.6256 7.85773 11.7095 7.89374C11.7934 7.92907 11.8558 7.97766 11.8967 8.03966C11.9383 8.10098 11.9591 8.17651 11.9591 8.26599V8.26707C11.9591 8.37699 11.926 8.47228 11.8597 8.55255C11.7934 8.63228 11.6979 8.6936 11.5731 8.73665C11.4483 8.77888 11.2978 8.8 11.1216 8.8Z" fill="#FF61F6"/>
</svg>
