<svg width="16" height="16" viewBox="0 0 16 16" fill="none" xmlns="http://www.w3.org/2000/svg">
<rect x="2.5" y="2.5" width="11" height="11" rx="2.5" fill="#470137"/>
<rect x="2.5" y="2.5" width="11" height="11" rx="2.5" stroke="#FF61F6"/>
<path d="M5.04733 8.8C4.86967 8.8 4.71668 8.78105 4.58837 8.74301C4.46005 8.70484 4.35889 8.6492 4.28486 8.57583C4.21083 8.50179 4.16606 8.41191 4.15055 8.30619L4.14844 8.29035H4.65922L4.66133 8.29766C4.66838 8.32798 4.68777 8.35411 4.7195 8.37604C4.75193 8.39715 4.79599 8.41367 4.85169 8.42572C4.90738 8.43695 4.97506 8.44264 5.05474 8.44264C5.11748 8.44264 5.17142 8.43736 5.21654 8.4268C5.26236 8.41543 5.29761 8.39959 5.32229 8.37915C5.34696 8.35871 5.35931 8.33516 5.35931 8.30836V8.30727C5.35931 8.27343 5.34415 8.2488 5.31383 8.23323C5.28352 8.21766 5.23064 8.20575 5.15521 8.19722L4.76604 8.16866C4.56721 8.14971 4.42022 8.10274 4.32505 8.02802C4.23056 7.95262 4.18333 7.84825 4.18333 7.71506V7.71289C4.18333 7.60582 4.21577 7.51404 4.28062 7.43797C4.34619 7.36108 4.43961 7.3022 4.56086 7.26132C4.68214 7.22044 4.82666 7.2 4.99446 7.2C5.16296 7.2 5.30714 7.21935 5.42699 7.2582C5.54755 7.29624 5.64272 7.3512 5.71253 7.42321C5.78232 7.49509 5.82568 7.58145 5.8426 7.6823L5.84577 7.69922H5.34028L5.33815 7.69069C5.33039 7.66105 5.31242 7.63682 5.28422 7.61773C5.25673 7.59797 5.21936 7.58321 5.17213 7.57333C5.12488 7.56277 5.06813 7.55749 5.00187 7.55749C4.9363 7.55749 4.882 7.56237 4.839 7.57225C4.79599 7.58145 4.76356 7.59512 4.74171 7.61353C4.71985 7.63113 4.70892 7.65225 4.70892 7.67702V7.67797C4.70892 7.71181 4.72514 7.73726 4.75757 7.75418C4.79071 7.7711 4.84534 7.78341 4.92149 7.79113L5.31806 7.82078C5.44567 7.8335 5.55142 7.85773 5.63531 7.89374C5.71921 7.92907 5.78162 7.97766 5.8225 8.03966C5.86409 8.10098 5.8849 8.17651 5.8849 8.26599V8.26707C5.8849 8.37699 5.85176 8.47228 5.78549 8.55255C5.71921 8.63228 5.62369 8.6936 5.49889 8.73665C5.37412 8.77888 5.22359 8.8 5.04733 8.8Z" fill="#FF61F6"/>
<path d="M7.0458 8.8C6.84751 8.8 6.67644 8.76749 6.5326 8.70261C6.3893 8.63692 6.27892 8.54455 6.20131 8.42536C6.1237 8.30617 6.08496 8.16436 6.08496 7.99993V7.9979C6.08496 7.83414 6.1237 7.69274 6.20131 7.57355C6.27892 7.45436 6.3893 7.36226 6.5326 7.29738C6.67644 7.2325 6.84751 7.2 7.0458 7.2C7.21646 7.2 7.36924 7.22722 7.50387 7.28153C7.63932 7.33517 7.74835 7.41129 7.83097 7.51003C7.91345 7.60809 7.96208 7.72376 7.97698 7.85717L7.97901 7.87613H7.45742L7.45525 7.86557C7.44184 7.80922 7.41651 7.76114 7.37913 7.72173C7.34242 7.68218 7.29583 7.65184 7.23935 7.63071C7.18301 7.60958 7.11948 7.59888 7.04892 7.59888C6.96074 7.59888 6.88489 7.61513 6.82137 7.64764C6.75866 7.68001 6.71031 7.72633 6.67645 7.7862C6.64258 7.84552 6.62565 7.91609 6.62565 7.9979V7.99993C6.62565 8.08187 6.64258 8.15271 6.67645 8.21271C6.71031 8.27258 6.75893 8.3189 6.82245 8.35127C6.88598 8.38378 6.96183 8.39989 7.05 8.39989C7.11989 8.39989 7.1826 8.38974 7.2384 8.36928C7.29407 8.34815 7.34066 8.31782 7.37805 8.27827C7.41543 8.23804 7.44116 8.18968 7.45525 8.13334L7.45742 8.12169H7.97901L7.97793 8.13862C7.96248 8.27339 7.91345 8.39014 7.83097 8.48888C7.74835 8.58762 7.63972 8.66415 7.50496 8.71846C7.371 8.77277 7.21795 8.8 7.0458 8.8Z" fill="#FF61F6"/>
<path d="M9.07761 8.8C8.89994 8.8 8.74695 8.78105 8.61864 8.74301C8.49032 8.70484 8.38916 8.6492 8.31513 8.57583C8.2411 8.50179 8.19634 8.41191 8.18082 8.30619L8.17871 8.29035H8.68949L8.6916 8.29766C8.69866 8.32798 8.71804 8.35411 8.74977 8.37604C8.7822 8.39715 8.82626 8.41367 8.88197 8.42572C8.93766 8.43695 9.00534 8.44264 9.08501 8.44264C9.14775 8.44264 9.2017 8.43736 9.24681 8.4268C9.29263 8.41543 9.32788 8.39959 9.35256 8.37915C9.37724 8.35871 9.38958 8.33516 9.38958 8.30836V8.30727C9.38958 8.27343 9.37442 8.2488 9.3441 8.23323C9.31379 8.21766 9.26092 8.20575 9.18548 8.19722L8.79631 8.16866C8.59749 8.14971 8.45049 8.10274 8.35532 8.02802C8.26084 7.95262 8.21361 7.84825 8.21361 7.71506V7.71289C8.21361 7.60582 8.24604 7.51404 8.31089 7.43797C8.37646 7.36108 8.46988 7.3022 8.59114 7.26132C8.71241 7.22044 8.85694 7.2 9.02474 7.2C9.19324 7.2 9.33741 7.21935 9.45726 7.2582C9.57782 7.29624 9.67299 7.3512 9.7428 7.42321C9.81259 7.49509 9.85595 7.58145 9.87287 7.6823L9.87604 7.69922H9.37055L9.36842 7.69069C9.36067 7.66105 9.34269 7.63682 9.31449 7.61773C9.287 7.59797 9.24963 7.58321 9.2024 7.57333C9.15516 7.56277 9.0984 7.55749 9.03214 7.55749C8.96657 7.55749 8.91227 7.56237 8.86927 7.57225C8.82626 7.58145 8.79383 7.59512 8.77198 7.61353C8.75012 7.63113 8.7392 7.65225 8.7392 7.67702V7.67797C8.7392 7.71181 8.75542 7.73726 8.78785 7.75418C8.82099 7.7711 8.87562 7.78341 8.95176 7.79113L9.34834 7.82078C9.47594 7.8335 9.58169 7.85773 9.66559 7.89374C9.74949 7.92907 9.81189 7.97766 9.85277 8.03966C9.89437 8.10098 9.91517 8.17651 9.91517 8.26599V8.26707C9.91517 8.37699 9.88203 8.47228 9.81576 8.55255C9.74949 8.63228 9.65396 8.6936 9.52917 8.73665C9.40439 8.77888 9.25387 8.8 9.07761 8.8Z" fill="#FF61F6"/>
<path d="M11.0141 8.8C10.8365 8.8 10.6835 8.78105 10.5552 8.74301C10.4268 8.70484 10.3257 8.6492 10.2517 8.57583C10.1776 8.50179 10.1329 8.41191 10.1173 8.30619L10.1152 8.29035H10.626L10.6281 8.29766C10.6352 8.32798 10.6546 8.35411 10.6863 8.37604C10.7187 8.39715 10.7628 8.41367 10.8185 8.42572C10.8742 8.43695 10.9419 8.44264 11.0215 8.44264C11.0843 8.44264 11.1382 8.43736 11.1833 8.4268C11.2292 8.41543 11.2644 8.39959 11.2891 8.37915C11.3138 8.35871 11.3261 8.33516 11.3261 8.30836V8.30727C11.3261 8.27343 11.3109 8.2488 11.2806 8.23323C11.2503 8.21766 11.1974 8.20575 11.122 8.19722L10.7328 8.16866C10.534 8.14971 10.387 8.10274 10.2918 8.02802C10.1974 7.95262 10.1501 7.84825 10.1501 7.71506V7.71289C10.1501 7.60582 10.1826 7.51404 10.2474 7.43797C10.313 7.36108 10.4064 7.3022 10.5277 7.26132C10.6489 7.22044 10.7935 7.2 10.9613 7.2C11.1298 7.2 11.2739 7.21935 11.3938 7.2582C11.5143 7.29624 11.6095 7.3512 11.6793 7.42321C11.7491 7.49509 11.7925 7.58145 11.8094 7.6823L11.8126 7.69922H11.3071L11.3049 7.69069C11.2972 7.66105 11.2792 7.63682 11.251 7.61773C11.2235 7.59797 11.1862 7.58321 11.1389 7.57333C11.0917 7.56277 11.0349 7.55749 10.9687 7.55749C10.9031 7.55749 10.8488 7.56237 10.8058 7.57225C10.7628 7.58145 10.7304 7.59512 10.7085 7.61353C10.6866 7.63113 10.6757 7.65225 10.6757 7.67702V7.67797C10.6757 7.71181 10.6919 7.73726 10.7244 7.75418C10.7575 7.7711 10.8121 7.78341 10.8883 7.79113L11.2849 7.82078C11.4125 7.8335 11.5182 7.85773 11.6021 7.89374C11.686 7.92907 11.7484 7.97766 11.7893 8.03966C11.8309 8.10098 11.8517 8.17651 11.8517 8.26599V8.26707C11.8517 8.37699 11.8186 8.47228 11.7523 8.55255C11.686 8.63228 11.5905 8.6936 11.4657 8.73665C11.3409 8.77888 11.1904 8.8 11.0141 8.8Z" fill="#FF61F6"/>
</svg>
