<svg width="16" height="16" viewBox="0 0 16 16" fill="none" xmlns="http://www.w3.org/2000/svg">
<rect x="2.5" y="2.5" width="11" height="11" rx="2.5" fill="#013301"/>
<rect x="2.5" y="2.5" width="11" height="11" rx="2.5" stroke="#33FF66"/>
<path fill-rule="evenodd" clip-rule="evenodd" d="M6.79599 5.0121L6.88899 7.48859C6.89042 7.52642 6.90602 7.56219 6.9327 7.58906C6.95937 7.61593 6.99517 7.63179 7.03299 7.63349L9.04629 7.72394C9.06664 7.72485 9.08697 7.72163 9.10604 7.71448C9.12511 7.70732 9.14254 7.69638 9.15727 7.6823C9.172 7.66823 9.18373 7.65132 9.19175 7.6326C9.19977 7.61387 9.20392 7.59371 9.20394 7.57334V4.875C9.20396 4.85438 9.19975 4.83397 9.19157 4.81505C9.1834 4.79612 9.17142 4.77907 9.15639 4.76496C9.14136 4.75084 9.1236 4.73996 9.1042 4.73298C9.08479 4.72601 9.06417 4.72308 9.04359 4.7244L8.87794 4.73476L8.89009 5.08095C8.89025 5.08524 8.88917 5.08949 8.88698 5.09319C8.8848 5.09689 8.8816 5.09989 8.87777 5.10183C8.87394 5.10377 8.86963 5.10457 8.86535 5.10414C8.86108 5.10371 8.85701 5.10206 8.85364 5.0994L8.74204 5.0115L8.61004 5.1117C8.60664 5.11426 8.60258 5.1158 8.59834 5.11614C8.59409 5.11648 8.58984 5.11561 8.58607 5.11363C8.5823 5.11165 8.57917 5.10865 8.57704 5.10496C8.57491 5.10127 8.57387 5.09705 8.57404 5.0928L8.58814 4.75288L6.93759 4.8561C6.89831 4.8585 6.86152 4.87615 6.83506 4.90529C6.80861 4.93444 6.79459 4.97276 6.79599 5.0121ZM8.20399 5.8839C8.20399 5.94255 8.59939 5.9145 8.65234 5.87325C8.65234 5.47365 8.43799 5.26365 8.0453 5.26365C7.65275 5.26365 7.4327 5.47695 7.4327 5.79675C7.4327 6.1173 7.6814 6.25695 7.89275 6.37559C8.0489 6.46319 8.18449 6.53939 8.18449 6.66854C8.18449 6.75374 8.1428 6.80444 8.05085 6.80444C7.93115 6.80444 7.88375 6.74324 7.88945 6.53534C7.88945 6.49034 7.4327 6.47624 7.41875 6.53534C7.38335 7.03919 7.6973 7.18454 8.05655 7.18454C8.40454 7.18454 8.67754 6.99914 8.67754 6.66314C8.67754 6.31277 8.41464 6.17342 8.1976 6.05838L8.19754 6.05835C8.0447 5.97735 7.9145 5.90835 7.9145 5.7861C7.9145 5.6661 8.0036 5.6502 8.0564 5.6502C8.1122 5.6502 8.21239 5.65995 8.20399 5.8839Z" fill="#33FF66"/>
<path d="M6.5 8.72409L8.00001 11.2759L9.5 8.72409H8.90027L8.00065 10.2556L7.09332 8.72409H6.50064H6.5Z" fill="#33FF66"/>
<path d="M7.09277 8.72409L8.00396 10.2755L8.90035 8.72409H8.34749L8.00396 9.32062L7.65271 8.72409H7.09277Z" fill="#2C3D4F"/>
</svg>
