<svg width="16" height="16" viewBox="0 0 16 16" fill="none" xmlns="http://www.w3.org/2000/svg">
<rect x="2.5" y="2.5" width="11" height="11" rx="2.5" fill="#001E36"/>
<rect x="2.5" y="2.5" width="11" height="11" rx="2.5" stroke="#31A8FF"/>
<path fill-rule="evenodd" clip-rule="evenodd" d="M6.79599 4.93827L6.88899 7.41477C6.89042 7.4526 6.90602 7.48837 6.9327 7.51523C6.95937 7.5421 6.99517 7.55796 7.03299 7.55967L9.04629 7.65012C9.06664 7.65103 9.08697 7.64781 9.10604 7.64065C9.12511 7.6335 9.14254 7.62255 9.15727 7.60848C9.172 7.59441 9.18373 7.5775 9.19175 7.55877C9.19977 7.54005 9.20392 7.51989 9.20394 7.49952V4.80117C9.20396 4.78056 9.19975 4.76015 9.19157 4.74122C9.1834 4.7223 9.17142 4.70525 9.15639 4.69113C9.14136 4.67702 9.1236 4.66614 9.1042 4.65916C9.08479 4.65218 9.06417 4.64926 9.04359 4.65057L8.87794 4.66093L8.89009 5.00713C8.89025 5.01142 8.88917 5.01567 8.88698 5.01937C8.8848 5.02307 8.8816 5.02607 8.87777 5.02801C8.87394 5.02995 8.86963 5.03075 8.86535 5.03032C8.86108 5.02989 8.85701 5.02824 8.85364 5.02558L8.74204 4.93768L8.61004 5.03788C8.60664 5.04043 8.60258 5.04197 8.59834 5.04232C8.59409 5.04266 8.58984 5.04179 8.58607 5.03981C8.5823 5.03783 8.57917 5.03482 8.57704 5.03114C8.57491 5.02745 8.57387 5.02323 8.57404 5.01898L8.58814 4.67906L6.93759 4.78227C6.89831 4.78467 6.86152 4.80233 6.83506 4.83147C6.80861 4.86062 6.79459 4.89894 6.79599 4.93827ZM8.20399 5.81007C8.20399 5.86872 8.59939 5.84067 8.65234 5.79942C8.65234 5.39982 8.43799 5.18983 8.0453 5.18983C7.65275 5.18983 7.4327 5.40312 7.4327 5.72292C7.4327 6.04347 7.6814 6.18312 7.89275 6.30177C8.0489 6.38937 8.18449 6.46557 8.18449 6.59472C8.18449 6.67992 8.1428 6.73062 8.05085 6.73062C7.93115 6.73062 7.88375 6.66942 7.88945 6.46152C7.88945 6.41652 7.4327 6.40242 7.41875 6.46152C7.38335 6.96537 7.6973 7.11072 8.05655 7.11072C8.40454 7.11072 8.67754 6.92532 8.67754 6.58932C8.67754 6.23895 8.41464 6.0996 8.1976 5.98455L8.19754 5.98452C8.0447 5.90352 7.9145 5.83452 7.9145 5.71227C7.9145 5.59227 8.0036 5.57637 8.0564 5.57637C8.1122 5.57637 8.21239 5.58612 8.20399 5.81007Z" fill="#31A8FF"/>
<path d="M8.00512 9.71002C7.84642 9.71002 7.71777 9.83867 7.71777 9.99737C7.71777 10.1561 7.84642 10.2847 8.00512 10.2847C8.16382 10.2847 8.29247 10.1561 8.29247 9.99737C8.29247 9.83867 8.16382 9.71002 8.00512 9.71002Z" fill="#31A8FF"/>
<path d="M9.49979 9.99998C9.49979 9.77439 9.29088 9.57653 8.95827 9.44632C8.96271 9.417 8.96673 9.38799 8.96959 9.35952C9.0024 9.03537 8.9243 8.80142 8.74979 8.70064C8.55454 8.5879 8.27875 8.66973 7.99989 8.89288C7.72104 8.66973 7.44525 8.5879 7.25 8.70064C7.07549 8.80142 6.99739 9.03537 7.0302 9.35952C7.03305 9.38799 7.03697 9.41711 7.04152 9.44654C7.01379 9.45712 6.9866 9.46834 6.96046 9.48009C6.6635 9.61358 6.5 9.79842 6.5 9.99998C6.5 10.2256 6.7089 10.4234 7.04152 10.5536C7.03697 10.5829 7.03305 10.612 7.0302 10.6404C6.99739 10.9646 7.07549 11.1985 7.25 11.2993C7.31 11.3333 7.37798 11.3507 7.44695 11.3497C7.61225 11.3497 7.80528 11.2627 7.99989 11.1071C8.19441 11.2627 8.38754 11.3497 8.55305 11.3497C8.62201 11.3507 8.69 11.3333 8.75 11.2993C8.92451 11.1985 9.00261 10.9646 8.9698 10.6404C8.96695 10.612 8.96292 10.5829 8.95848 10.5536C9.2911 10.4236 9.5 10.2255 9.5 9.99998M8.55178 8.79316C8.59613 8.79209 8.63995 8.80284 8.67878 8.82429C8.79995 8.89426 8.85435 9.08407 8.82789 9.34502C8.82609 9.3628 8.82397 9.3808 8.82143 9.3989C8.68313 9.35724 8.54151 9.32752 8.39812 9.31008C8.3112 9.19451 8.21455 9.08659 8.10921 8.98752C8.27462 8.85964 8.42987 8.79316 8.55168 8.79316M8.49485 10.2858C8.44133 10.3787 8.38304 10.4688 8.32023 10.5557C8.21377 10.5667 8.10681 10.5721 7.99979 10.572C7.8928 10.5721 7.78588 10.5667 7.67945 10.5557C7.61681 10.4688 7.5587 10.3787 7.50536 10.2858C7.45184 10.1931 7.4032 10.0977 7.35964 9.99998C7.4032 9.90223 7.45184 9.80682 7.50536 9.71415C7.55862 9.6216 7.61654 9.53182 7.67892 9.44516C7.78554 9.43395 7.89268 9.42837 7.99989 9.42843C8.10688 9.42837 8.2138 9.43381 8.32023 9.44474C8.38282 9.53153 8.44096 9.62145 8.49443 9.71415C8.54791 9.80684 8.59655 9.90225 8.64015 9.99998C8.59655 10.0977 8.54791 10.1931 8.49443 10.2858M8.71296 10.1799C8.74655 10.2716 8.77412 10.3653 8.79551 10.4605C8.7027 10.4894 8.6081 10.5122 8.51231 10.5287C8.54872 10.4738 8.58399 10.4167 8.61814 10.3574C8.6519 10.2987 8.68354 10.2395 8.71338 10.1804M7.79893 10.7085C7.86475 10.7125 7.93195 10.7149 8 10.7149C8.06805 10.7149 8.13567 10.7125 8.2016 10.7085C8.13909 10.7834 8.07175 10.8541 8 10.9202C7.92841 10.8541 7.86124 10.7834 7.79893 10.7085ZM7.48758 10.5285C7.39176 10.5121 7.29712 10.4893 7.20428 10.4605C7.22558 10.3654 7.25305 10.2718 7.28651 10.1804C7.31593 10.2395 7.34747 10.2987 7.38176 10.3574C7.41604 10.416 7.4515 10.4738 7.48758 10.5287M7.28651 9.81948C7.25317 9.72834 7.22577 9.63513 7.20449 9.54043C7.2971 9.51153 7.39149 9.48865 7.48705 9.47194C7.45086 9.52667 7.41541 9.58341 7.38123 9.64259C7.34704 9.70177 7.31582 9.7602 7.28598 9.81948M8.20097 9.29134C8.13514 9.28732 8.06794 9.28499 7.99937 9.28499C7.93135 9.28499 7.86433 9.28711 7.79829 9.29134C7.86061 9.21644 7.92777 9.14571 7.99937 9.07962C8.07114 9.14569 8.13848 9.21642 8.20097 9.29134ZM8.61793 9.64259C8.58364 9.58317 8.54819 9.526 8.51157 9.4711C8.60761 9.48763 8.70247 9.51047 8.79551 9.53948C8.77416 9.63453 8.74669 9.72809 8.71328 9.81959C8.68386 9.76041 8.65222 9.70124 8.61803 9.6427M7.17232 9.34512C7.14555 9.08428 7.20026 8.89437 7.32133 8.82439C7.36017 8.80297 7.40398 8.79224 7.44832 8.79327C7.57013 8.79327 7.72538 8.85975 7.89079 8.98763C7.78538 9.08677 7.68866 9.19475 7.60166 9.3104C7.45832 9.32792 7.31671 9.35753 7.17835 9.3989C7.17592 9.3808 7.1737 9.36291 7.17201 9.34512M7.01908 9.61041C7.03538 9.60335 7.052 9.59629 7.06893 9.58924C7.10222 9.72972 7.14736 9.86712 7.20386 9.99998C7.14725 10.1331 7.10207 10.2708 7.06882 10.4116C6.79917 10.3009 6.64287 10.1477 6.64287 9.99998C6.64287 9.86003 6.78044 9.71807 7.01908 9.61041ZM7.32133 11.1756C7.20026 11.1056 7.14555 10.9157 7.17232 10.6548C7.17402 10.637 7.17624 10.6192 7.17867 10.6009C7.31698 10.6426 7.4586 10.6723 7.60198 10.6898C7.68893 10.8054 7.78558 10.9134 7.89089 11.0125C7.66029 11.1907 7.44959 11.2494 7.32165 11.1756M8.82778 10.6548C8.85424 10.9158 8.79984 11.1056 8.67867 11.1756C8.55083 11.2497 8.34002 11.1907 8.10953 11.0125C8.21481 10.9134 8.31142 10.8054 8.39833 10.6898C8.54172 10.6723 8.68334 10.6426 8.82165 10.6009C8.82419 10.6192 8.8263 10.637 8.8281 10.6548M8.9316 10.4113C8.89826 10.2707 8.85305 10.133 8.79646 9.99998C8.85302 9.86685 8.8982 9.72916 8.93149 9.58839C9.20061 9.69901 9.35734 9.8523 9.35734 9.99998C9.35734 10.1477 9.20104 10.3009 8.93139 10.4116" fill="#31A8FF"/>
</svg>
