<svg width="16" height="16" viewBox="0 0 16 16" fill="none" xmlns="http://www.w3.org/2000/svg">
<rect x="2" y="2" width="12" height="12" rx="3" fill="black"/>
<path d="M11 8C11 9.65293 9.65588 11 8 11C6.34706 11 5 9.65293 5 8C5 6.34412 6.34706 5 8 5C9.65588 5 11 6.34412 11 8ZM7.60294 9.21764C7.60294 9.39118 7.75588 9.53234 7.93235 9.53234C8.10883 9.53234 8.26177 9.3941 8.26177 9.21764C8.26177 9.04118 8.11175 8.89999 7.93235 8.89999C7.75294 8.89999 7.60294 9.0441 7.60294 9.21764ZM7.08529 6.97353C7.07059 7.02058 7.05882 7.07059 7.05882 7.12353C7.05882 7.25882 7.16765 7.33235 7.26765 7.33235C7.37058 7.33235 7.43823 7.28235 7.49411 7.21176L7.54706 7.13823C7.65588 6.96176 7.81176 6.86176 8.01471 6.86176C8.28824 6.86176 8.46765 7.01764 8.46765 7.24706C8.46765 7.45294 8.34119 7.55294 8.07645 7.73823C7.85882 7.89117 7.69411 8.05001 7.69411 8.34998C7.69411 8.36176 7.69411 8.37646 7.69411 8.38823C7.69411 8.54704 7.78235 8.62941 7.93823 8.62941C8.09118 8.62941 8.1853 8.53234 8.1853 8.41175C8.1853 8.40001 8.1853 8.38528 8.1853 8.37646C8.1853 8.20587 8.28234 8.09705 8.49412 7.95882C8.78822 7.7647 8.99998 7.58823 8.99998 7.22353C8.99998 6.71764 8.54999 6.45 8.03236 6.45C7.50882 6.45 7.16765 6.69412 7.08529 6.97353Z" fill="white"/>
</svg>
