<svg width="16" height="16" viewBox="0 0 16 16" fill="none" xmlns="http://www.w3.org/2000/svg">
<rect x="1.5" y="4.5" width="13" height="9" rx="2.5" fill="#102311"/>
<rect x="1.5" y="4.5" width="13" height="9" rx="2.5" stroke="#50AF54"/>
<path d="M10.9832 10.6151C10.9813 10.6028 10.9794 10.5906 10.9774 10.5785C10.965 10.5032 10.9495 10.4287 10.9316 10.3553C10.9002 10.227 10.8606 10.1018 10.8133 9.98056C10.7734 9.87787 10.7279 9.77797 10.6775 9.68114C10.6126 9.55681 10.5394 9.43746 10.4586 9.32395C10.3595 9.18485 10.2487 9.05453 10.1279 8.93444C10.0771 8.88397 10.0246 8.83526 9.97045 8.7886C9.85306 8.68724 9.72764 8.59495 9.59553 8.51245C9.59669 8.51054 9.59767 8.5085 9.59883 8.50659C9.65936 8.40201 9.72006 8.29757 9.78058 8.19299C9.83977 8.09089 9.89896 7.98879 9.95815 7.8867C10.0008 7.81342 10.0433 7.73999 10.0856 7.66671C10.0957 7.6493 10.1036 7.63131 10.1096 7.61289C10.1262 7.56155 10.1269 7.50757 10.1136 7.4574C10.1102 7.44497 10.1061 7.43283 10.1011 7.42098C10.0961 7.40913 10.0903 7.39758 10.0837 7.38646C10.0611 7.34843 10.0287 7.31537 9.9881 7.29123C9.95218 7.26988 9.91198 7.25716 9.87079 7.2535C9.8535 7.25204 9.83612 7.25218 9.81883 7.25394C9.80456 7.2554 9.79039 7.25804 9.77631 7.26169C9.72621 7.275 9.67968 7.3025 9.64349 7.34228C9.63048 7.35662 9.61871 7.37242 9.60864 7.38982C9.56612 7.4631 9.5236 7.53653 9.48117 7.60981L9.30361 7.9161C9.24308 8.02069 9.18238 8.12512 9.12185 8.22971C9.11526 8.24111 9.10857 8.25252 9.10197 8.26408C9.09279 8.26042 9.0837 8.25676 9.07452 8.25325C8.74079 8.126 8.3787 8.05638 8.00022 8.05638C7.98988 8.05638 7.97963 8.05638 7.9692 8.05652C7.6327 8.05988 7.3094 8.11839 7.00775 8.22342C6.9729 8.23556 6.93841 8.24843 6.90418 8.26189C6.89803 8.25121 6.8917 8.24053 6.88563 8.22985C6.82511 8.12527 6.76441 8.02083 6.70388 7.91625C6.64469 7.81415 6.58551 7.71206 6.52632 7.60996C6.48371 7.53668 6.44119 7.46325 6.39885 7.38997C6.38869 7.37256 6.37701 7.35677 6.364 7.34243C6.32781 7.30264 6.28128 7.27514 6.23118 7.26183C6.2171 7.25818 6.20292 7.25555 6.18857 7.25409C6.17137 7.25233 6.15399 7.25218 6.13669 7.25364C6.09551 7.25716 6.05531 7.26988 6.0193 7.29138C5.97865 7.31551 5.94656 7.34858 5.92374 7.3866C5.91715 7.39772 5.91126 7.40928 5.90636 7.42113C5.90137 7.43297 5.89709 7.44511 5.89388 7.45755C5.8806 7.50771 5.88131 7.56169 5.8978 7.61303C5.90386 7.63147 5.91171 7.64945 5.92178 7.66686C5.96439 7.74014 6.00691 7.81357 6.04925 7.88685C6.10853 7.98895 6.16771 8.09105 6.2269 8.19314C6.28743 8.29772 6.34804 8.40216 6.40857 8.50674C6.40901 8.50762 6.40964 8.5085 6.41008 8.50937C6.28796 8.58529 6.17181 8.66939 6.06217 8.76139C5.99648 8.81654 5.93319 8.87431 5.87258 8.93472C5.75179 9.05481 5.64117 9.18514 5.54187 9.32424C5.46093 9.43775 5.38766 9.55695 5.32295 9.68144C5.2725 9.77827 5.22704 9.87817 5.1871 9.98085C5.13986 10.1021 5.10028 10.2273 5.06881 10.3556C5.0509 10.429 5.03566 10.5033 5.02309 10.5788C5.02104 10.5909 5.01916 10.6032 5.01729 10.6154C5.01052 10.6591 5.00481 10.7031 5 10.7475H11C10.9952 10.7031 10.9895 10.6591 10.9828 10.6154L10.9832 10.6151Z" fill="#34A853"/>
<path d="M9.56113 9.91763C9.6812 9.83771 9.69867 9.6528 9.60008 9.50464C9.50158 9.35647 9.32438 9.30116 9.2044 9.38108C9.08433 9.46102 9.06686 9.64592 9.16544 9.79407C9.26394 9.94224 9.44115 9.99756 9.56113 9.91763Z" fill="#202124"/>
<path d="M6.84034 9.79456C6.93893 9.6464 6.92146 9.4615 6.80139 9.38158C6.68132 9.30165 6.5042 9.35697 6.40561 9.50512C6.30711 9.65329 6.32459 9.83819 6.44457 9.91811C6.56464 9.99804 6.74184 9.94272 6.84034 9.79456Z" fill="#202124"/>
</svg>
