<svg width="16" height="16" viewBox="0 0 16 16" fill="none" xmlns="http://www.w3.org/2000/svg">
<rect x="1.5" y="4.5" width="13" height="9" rx="2.5" fill="black"/>
<rect x="1.5" y="4.5" width="13" height="9" rx="2.5" stroke="white"/>
<path d="M8.00069 6.47913C6.78473 6.47913 5.75166 7.36638 5.52676 8.52302H5.17581C4.99786 8.52302 4.95338 8.64412 5.04976 8.78253L5.60337 9.56844C5.68493 9.68212 5.80356 9.67967 5.88265 9.56844L6.43625 8.78006C6.53017 8.64412 6.48568 8.52302 6.31021 8.52302H5.95432C6.16686 7.58881 6.99727 6.90175 8.00069 6.90175C8.70505 6.90422 9.32292 7.24281 9.70104 7.76923C9.77519 7.87056 9.89383 7.90269 9.99514 7.83843C10.0965 7.77911 10.1237 7.64318 10.0396 7.53444C9.57501 6.89928 8.83357 6.47913 8.00069 6.47913ZM8.00069 11.5209C9.21665 11.5209 10.2497 10.6312 10.4746 9.47701H10.8231C11.001 9.47701 11.048 9.35591 10.9491 9.2175L10.398 8.43158C10.3164 8.31789 10.1978 8.32036 10.1187 8.43158L9.56511 9.21998C9.46874 9.35591 9.51569 9.47701 9.69117 9.47701H10.0495C9.83451 10.4087 9.00164 11.1008 8.00069 11.1008C7.29632 11.0983 6.67846 10.7572 6.30032 10.2308C6.22371 10.1295 6.10755 10.0973 6.00375 10.1591C5.90489 10.2209 5.8777 10.3569 5.96173 10.4656C6.42636 11.1008 7.1678 11.5209 8.00069 11.5209Z" fill="white"/>
<path d="M8.00104 7.5542C7.88736 7.5542 7.7959 7.64317 7.7959 7.75686V9.15323C7.7959 9.21255 7.81569 9.26198 7.8577 9.31882L8.4558 10.1072C8.5423 10.2209 8.6634 10.2382 8.76718 10.1665C8.85865 10.1023 8.86852 9.97869 8.79191 9.87243L7.9788 8.77263L8.20371 9.46216V7.75686C8.20371 7.64317 8.11225 7.5542 8.00104 7.5542Z" fill="white"/>
</svg>
