<svg width="16" height="16" viewBox="0 0 16 16" fill="none" xmlns="http://www.w3.org/2000/svg">
<rect x="1.5" y="4.5" width="13" height="9" rx="2.5" fill="black"/>
<rect x="1.5" y="4.5" width="13" height="9" rx="2.5" stroke="white"/>
<path d="M6.77339 8.26032V9.74287H6.13529C5.50989 9.74287 5.00195 10.2349 5.00195 10.8635C5.00195 11.4921 5.50989 12 6.13529 12C6.76069 12 7.26862 11.4921 7.26862 10.8635V10.2286H8.73212V10.8635C8.73212 11.4921 9.24005 12 9.86544 12C10.4909 12 10.9988 11.4921 10.9988 10.8635C10.9988 10.2349 10.4909 9.74287 9.86544 9.74287H9.22734V8.26032H9.86544C10.4909 8.26032 10.9988 7.76826 10.9988 7.13968C10.9988 6.51111 10.4909 6 9.86544 6C9.24005 6 8.73212 6.51111 8.73212 7.13968V7.7746H7.26862V7.13968C7.26862 6.51111 6.76069 6 6.13529 6C5.50989 6 5.00195 6.51111 5.00195 7.13968C5.00195 7.76826 5.50989 8.26032 6.13529 8.26032H6.77339ZM6.13529 7.78096C5.78608 7.78096 5.49719 7.49206 5.49719 7.13968C5.49719 6.7873 5.78608 6.49524 6.13529 6.49524C6.4845 6.49524 6.77339 6.7873 6.77339 7.13968V7.78096H6.13529ZM9.86544 7.78096H9.22734V7.13968C9.22734 6.7873 9.51624 6.49524 9.86544 6.49524C10.2147 6.49524 10.5035 6.7873 10.5035 7.13968C10.5035 7.49206 10.2147 7.78096 9.86544 7.78096ZM7.26862 9.74287V8.26032H8.73212V9.74287H7.26862ZM6.13529 10.219H6.77339V10.8603C6.77339 11.2127 6.4845 11.5016 6.13529 11.5016C5.78608 11.5016 5.49719 11.2127 5.49719 10.8603C5.49719 10.5079 5.78608 10.219 6.13529 10.219ZM9.86544 10.219C10.2147 10.219 10.5035 10.5079 10.5035 10.8603C10.5035 11.2127 10.2147 11.5016 9.86544 11.5016C9.51624 11.5016 9.22734 11.2127 9.22734 10.8603V10.219H9.86544Z" fill="white"/>
</svg>
