<svg width="16" height="16" viewBox="0 0 16 16" fill="none" xmlns="http://www.w3.org/2000/svg">
<rect x="1.5" y="4.5" width="13" height="9" rx="2.5" fill="black"/>
<rect x="1.5" y="4.5" width="13" height="9" rx="2.5" stroke="white"/>
<path d="M6.2717 11.2883L5.93214 11.5763C5.83544 11.6551 5.71583 11.6653 5.63694 11.5711C5.56059 11.477 5.58858 11.3549 5.6802 11.2785L6.05477 10.964C6.11729 11.0809 6.18977 11.1894 6.2717 11.2883ZM10.317 11.2785C10.4112 11.3549 10.4391 11.477 10.3628 11.5711C10.2839 11.6653 10.1617 11.6551 10.0676 11.5763L9.72724 11.2893C9.80943 11.1901 9.88211 11.0814 9.94479 10.9643L10.317 11.2785ZM5.76418 9.73376L5.76589 9.7803L5.32646 9.7821C5.19667 9.7821 5.11523 9.70322 5.11523 9.58613C5.11523 9.47163 5.19667 9.39275 5.32391 9.39275L5.78853 9.39084C5.77245 9.50915 5.76418 9.62499 5.76418 9.73376ZM10.6758 9.39275C10.8005 9.39275 10.8845 9.47163 10.8845 9.58613C10.8845 9.70322 10.8005 9.7821 10.6733 9.7821L10.2338 9.7803C10.2354 9.76529 10.2355 9.74955 10.2355 9.73376C10.2355 9.62499 10.2273 9.50915 10.2112 9.39084L10.6758 9.39275ZM5.93978 7.78691L6.33151 8.11968C6.32089 8.12845 6.30991 8.13803 6.29861 8.14829C6.22318 8.21955 6.15385 8.31397 6.09219 8.42449L5.69038 8.08466C5.59876 8.00832 5.56822 7.88362 5.64457 7.792C5.72092 7.69784 5.84562 7.70802 5.93978 7.78691ZM10.3551 7.792C10.4315 7.88362 10.401 8.00832 10.3093 8.08466L9.90752 8.42449C9.84587 8.31397 9.77655 8.21955 9.70113 8.14829C9.68982 8.13803 9.67882 8.12845 9.66822 8.11968L10.0599 7.78691C10.1541 7.70802 10.2788 7.69784 10.3551 7.792Z" fill="white"/>
<path d="M9.7016 8.14832C10.0248 8.45371 10.236 9.1841 10.236 9.7338C10.236 10.963 9.5209 11.8562 8.42661 11.9962C8.25354 12.0165 8.16703 11.9555 8.16703 11.8231V8.92707C8.16703 8.83545 8.09067 8.76165 7.99907 8.76165C7.90745 8.76165 7.83364 8.83545 7.83364 8.92707V11.8231C7.83364 11.9555 7.74713 12.0165 7.57406 11.9962C6.47976 11.8562 5.76465 10.963 5.76465 9.7338C5.76465 9.1841 5.97587 8.45371 6.29908 8.14832C6.46449 7.99818 6.5612 7.99563 6.6579 8.03635C7.03455 8.20431 7.51044 8.3112 7.99907 8.3112C8.49022 8.3112 8.96612 8.20431 9.34276 8.03635C9.43947 7.99563 9.53617 7.99818 9.7016 8.14832ZM6.78006 10.9961C6.78006 11.1513 6.90476 11.276 7.06 11.276C7.21778 11.276 7.34248 11.1513 7.34248 10.9961C7.34248 10.8408 7.21778 10.7161 7.06 10.7161C6.90476 10.7161 6.78006 10.8408 6.78006 10.9961ZM8.6582 10.9961C8.6582 11.1513 8.78289 11.276 8.94066 11.276C9.0959 11.276 9.22062 11.1513 9.22062 10.9961C9.22062 10.8408 9.0959 10.7161 8.94066 10.7161C8.78289 10.7161 8.6582 10.8408 8.6582 10.9961ZM6.35506 9.96029C6.35506 10.1741 6.52557 10.3446 6.7368 10.3446C6.94548 10.3446 7.11853 10.1741 7.11853 9.96029C7.11853 9.7516 6.94548 9.58109 6.7368 9.58109C6.52557 9.58109 6.35506 9.7516 6.35506 9.96029ZM8.88213 9.96029C8.88213 10.1741 9.05519 10.3446 9.26388 10.3446C9.47509 10.3446 9.6456 10.1741 9.6456 9.96029C9.6456 9.7516 9.47509 9.58109 9.26388 9.58109C9.05519 9.58109 8.88213 9.7516 8.88213 9.96029ZM6.68335 8.92196C6.68335 9.09755 6.82841 9.25026 7.0091 9.25026C7.18978 9.25026 7.33739 9.10011 7.33739 8.92196C7.33739 8.74129 7.18978 8.59368 7.0091 8.59368C6.82841 8.59368 6.68335 8.74129 6.68335 8.92196ZM8.66328 8.92196C8.66328 9.10011 8.81088 9.25026 8.99155 9.25026C9.17225 9.25026 9.3173 9.09755 9.3173 8.92196C9.3173 8.74129 9.17225 8.59368 8.99155 8.59368C8.81088 8.59368 8.66328 8.74129 8.66328 8.92196Z" fill="white"/>
<path d="M6.64746 7.48917C6.64746 7.6266 6.7009 7.73348 6.86377 7.80728C7.14371 7.93707 7.56616 8.01596 7.99881 8.01596C8.43398 8.01596 8.85643 7.93707 9.13636 7.80728C9.29923 7.73348 9.35268 7.6266 9.35268 7.48917C9.35268 6.92929 8.8157 6.48394 7.99881 6.48394C7.18443 6.48394 6.64746 6.92929 6.64746 7.48917ZM6.87905 6.36688L7.0521 6.4305C7.16153 6.46867 7.20479 6.5272 7.18443 6.61627L7.15389 6.74606L7.52799 6.74352L7.5458 6.61373C7.5738 6.36688 7.45928 6.18364 7.20733 6.09457L7.00629 6.01314C6.75434 5.92661 6.63474 6.29307 6.87905 6.36688ZM9.12109 6.36688C9.3654 6.29307 9.24579 5.92661 8.99384 6.01314L8.79279 6.09457C8.54085 6.18364 8.42634 6.36688 8.45433 6.61373L8.47215 6.74352L8.84624 6.74606L8.8157 6.61627C8.79535 6.5272 8.8386 6.46867 8.94803 6.4305L9.12109 6.36688Z" fill="white"/>
</svg>
