<svg width="16" height="16" viewBox="0 0 16 16" fill="none" xmlns="http://www.w3.org/2000/svg">
<rect x="1.5" y="4.5" width="13" height="9" rx="2.5" fill="black"/>
<rect x="1.5" y="4.5" width="13" height="9" rx="2.5" stroke="white"/>
<path d="M8.16639 11.7103L10.7852 9.08612C10.9866 8.88468 11.0001 8.76919 11.0001 8.48717V7.46651C11.0001 7.18181 10.9329 7.09317 10.7288 6.88904L10.111 6.27128C9.90955 6.06983 9.82093 6 9.53622 6H8.51288C8.23086 6 8.11804 6.01343 7.9166 6.21487L5.28978 8.83633C4.90569 9.22042 4.89763 9.61793 5.29246 10.0101L6.99265 11.7076C7.38748 12.0997 7.7823 12.0943 8.16639 11.7103ZM9.08499 8.14873C8.8728 8.14873 8.71701 7.98489 8.71701 7.78076C8.71701 7.57395 8.8728 7.41279 9.08499 7.41279C9.29448 7.41279 9.45296 7.57395 9.45296 7.78076C9.45296 7.98489 9.29448 8.14873 9.08499 8.14873Z" fill="white"/>
</svg>
