<svg width="16" height="16" viewBox="0 0 16 16" fill="none" xmlns="http://www.w3.org/2000/svg">
<rect x="1.5" y="4.5" width="13" height="9" rx="2.5" fill="#0D2626"/>
<rect x="1.5" y="4.5" width="13" height="9" rx="2.5" stroke="#43BEC1"/>
<path d="M10.6738 7.08832C10.4993 6.9151 10.2639 6.81592 10.0171 6.81172C9.7704 6.80752 9.53168 6.89863 9.35132 7.06582C9.34229 7.07435 9.33509 7.08462 9.33017 7.096C9.32526 7.10738 9.32271 7.11964 9.32271 7.13202C9.32271 7.1444 9.32526 7.15666 9.33017 7.16804C9.33509 7.17942 9.34229 7.18969 9.35132 7.19822L9.46603 7.31474C9.48153 7.33005 9.50208 7.33928 9.52389 7.34074C9.5457 7.3422 9.56731 7.33579 9.58474 7.32269C9.69474 7.23546 9.83445 7.19383 9.97466 7.2065C10.1149 7.21917 10.2447 7.28516 10.337 7.39066C10.4294 7.49617 10.477 7.63303 10.4701 7.77262C10.4631 7.91221 10.402 8.04372 10.2997 8.13965C9.54406 8.88908 8.53571 6.78776 6.24693 7.87086C6.2083 7.88928 6.17393 7.91545 6.14601 7.94772C6.11808 7.97998 6.09719 8.01764 6.08465 8.05833C6.07212 8.09901 6.06821 8.14184 6.07319 8.18409C6.07816 8.22635 6.0919 8.26712 6.11356 8.30384L6.50636 8.97714C6.54702 9.04736 6.61399 9.0988 6.69268 9.12025C6.77136 9.1417 6.8554 9.13143 6.92649 9.09167L6.93584 9.08638L6.92849 9.09167L7.10056 8.99634C7.29456 8.87676 7.47795 8.74099 7.64874 8.5905C7.66565 8.57521 7.6875 8.5664 7.71036 8.56567C7.73323 8.56495 7.75559 8.57234 7.77345 8.58653C7.78311 8.59457 7.79095 8.60454 7.79644 8.6158C7.80194 8.62705 7.80498 8.63934 7.80535 8.65185C7.80573 8.66435 7.80344 8.67679 7.79863 8.68836C7.79383 8.69992 7.78661 8.71034 7.77746 8.71894C7.5977 8.87968 7.40399 9.02435 7.19859 9.15126H7.19259L7.01853 9.24791C6.94501 9.28889 6.86209 9.31033 6.77778 9.31014C6.69046 9.31045 6.6046 9.28791 6.52885 9.24479C6.4531 9.20167 6.39014 9.1395 6.3463 9.06453L5.97484 8.4283C5.26459 8.93014 4.82844 9.89407 5.06453 11.1149C5.0684 11.1354 5.07938 11.154 5.09556 11.1675C5.11175 11.1809 5.13214 11.1883 5.15322 11.1884H5.57203C5.59511 11.189 5.61754 11.1808 5.63476 11.1655C5.65198 11.1503 5.6627 11.1291 5.66473 11.1063C5.68441 10.9584 5.75755 10.8226 5.87055 10.7243C5.98354 10.626 6.12868 10.5718 6.27894 10.5718C6.4292 10.5718 6.57434 10.626 6.68733 10.7243C6.80033 10.8226 6.87348 10.9584 6.89315 11.1063C6.89576 11.128 6.9063 11.148 6.92276 11.1625C6.93924 11.177 6.96049 11.185 6.98251 11.1851H7.39199C7.41397 11.1849 7.43515 11.1768 7.45159 11.1623C7.46803 11.1479 7.47861 11.1279 7.48135 11.1063C7.50103 10.9584 7.57417 10.8226 7.68717 10.7243C7.80016 10.626 7.9453 10.5718 8.09556 10.5718C8.24583 10.5718 8.39097 10.626 8.50396 10.7243C8.61695 10.8226 8.6901 10.9584 8.70978 11.1063C8.71252 11.1279 8.7231 11.1479 8.73954 11.1623C8.75597 11.1768 8.77715 11.1849 8.79914 11.1851H9.20594C9.22977 11.1851 9.25264 11.1758 9.26961 11.1591C9.28658 11.1425 9.29629 11.12 9.29664 11.0963C9.30598 10.527 9.4607 9.87288 9.90152 9.54517C11.4287 8.41109 11.0272 7.43921 10.6738 7.08832ZM9.11658 8.80103L8.82515 8.65605C8.82512 8.62507 8.83308 8.5946 8.84828 8.56755C8.86347 8.54049 8.88539 8.51775 8.91195 8.50149C8.93851 8.48523 8.96882 8.47599 9 8.47466C9.03117 8.47331 9.06217 8.47993 9.09004 8.49385C9.11791 8.50779 9.14173 8.52857 9.15922 8.55422C9.1767 8.57988 9.18727 8.60956 9.18994 8.64041C9.1926 8.67128 9.18726 8.70231 9.17441 8.73054C9.16157 8.75877 9.14166 8.78327 9.11658 8.8017V8.80103Z" fill="#43BEC1"/>
</svg>
