<svg width="16" height="16" viewBox="0 0 16 16" fill="none" xmlns="http://www.w3.org/2000/svg">
<rect x="1.5" y="4.5" width="13" height="9" rx="2.5" fill="#00331E"/>
<rect x="1.5" y="4.5" width="13" height="9" rx="2.5" stroke="#00DC82"/>
<path d="M8.36 11H10.58C10.6508 11 10.7186 10.9751 10.78 10.94C10.8414 10.9049 10.9046 10.8608 10.94 10.8C10.9754 10.7392 11 10.6702 11 10.6C11 10.5298 10.9755 10.4608 10.94 10.4L9.44 7.82C9.4046 7.7592 9.36134 7.7151 9.3 7.68C9.23866 7.6449 9.15084 7.62 9.08 7.62C9.00916 7.62 8.94134 7.6449 8.88 7.68C8.81866 7.7151 8.7754 7.7592 8.74 7.82L8.36 8.48L7.6 7.19995C7.56456 7.13916 7.52136 7.0751 7.46 7.04C7.39864 7.0049 7.33084 7 7.26 7C7.18916 7 7.12136 7.0049 7.06 7.04C6.99865 7.0751 6.93543 7.13916 6.9 7.19995L5.04 10.4C5.00454 10.4608 5.00003 10.5298 5 10.6C4.99997 10.6702 5.00459 10.7392 5.04 10.8C5.07541 10.8608 5.13865 10.9049 5.2 10.94C5.26135 10.9751 5.32916 11 5.4 11H6.8C7.35474 11 7.7585 10.7512 8.04 10.28L8.72 9.1L9.08 8.48L10.18 10.36H8.72L8.36 11ZM6.78 10.36H5.8L7.26 7.84L8 9.1L7.50982 9.9545C7.32288 10.2602 7.10976 10.36 6.78 10.36Z" fill="#00DC82"/>
</svg>
