<svg width="16" height="16" viewBox="0 0 16 16" fill="none" xmlns="http://www.w3.org/2000/svg">
<rect x="1.5" y="4.5" width="13" height="9" rx="2.5" fill="black"/>
<rect x="1.5" y="4.5" width="13" height="9" rx="2.5" stroke="white"/>
<path d="M5 10.6731C5 11.1716 5.25682 11.4335 5.75283 11.4335H8.86741C9.36845 11.4335 9.6303 11.1767 9.6303 10.6832V9.62067C9.6303 9.57031 9.67059 9.54765 9.72095 9.58795C9.85943 9.69368 10.0231 9.77928 10.2396 9.77928C10.6677 9.77928 11 9.44189 11 9.00883C11 8.57828 10.6677 8.24089 10.2396 8.24089C10.0231 8.24089 9.85943 8.3265 9.72095 8.43225C9.67059 8.47253 9.6303 8.44987 9.6303 8.39952V7.31685C9.6303 6.82335 9.36845 6.56653 8.86741 6.56653H5.75283C5.25682 6.56653 5 6.82838 5 7.32692V8.40707C5 8.57073 5.12841 8.679 5.27948 8.679C5.36257 8.679 5.45069 8.64375 5.52875 8.56821C5.64708 8.45742 5.79312 8.31643 6.08519 8.31643C6.46538 8.31643 6.765 8.61857 6.765 9.0038C6.765 9.38903 6.46538 9.69116 6.08519 9.69116C5.79312 9.69116 5.64708 9.54765 5.52875 9.43686C5.45069 9.36385 5.36257 9.3286 5.27948 9.3286C5.12841 9.3286 5 9.43686 5 9.60053V10.6731Z" fill="white"/>
</svg>
