<svg width="16" height="16" viewBox="0 0 16 16" fill="none" xmlns="http://www.w3.org/2000/svg">
<rect x="1.5" y="4.5" width="13" height="9" rx="2.5" fill="#470137"/>
<rect x="1.5" y="4.5" width="13" height="9" rx="2.5" stroke="#FF61F6"/>
<path d="M4.93894 9.80001C4.76127 9.80001 4.60828 9.78106 4.47997 9.74303C4.35165 9.70485 4.25049 9.64922 4.17646 9.57585C4.10243 9.50181 4.05766 9.41192 4.04215 9.30621L4.04004 9.29037H4.55082L4.55293 9.29768C4.55998 9.328 4.57937 9.35412 4.6111 9.37605C4.64353 9.39717 4.68759 9.41368 4.7433 9.42573C4.79898 9.43697 4.86667 9.44265 4.94634 9.44265C5.00908 9.44265 5.06302 9.43737 5.10814 9.42681C5.15396 9.41544 5.18921 9.39961 5.21389 9.37917C5.23856 9.35873 5.25091 9.33517 5.25091 9.30837V9.30729C5.25091 9.27345 5.23575 9.24881 5.20543 9.23324C5.17512 9.21768 5.12225 9.20577 5.04681 9.19724L4.65764 9.16868C4.45881 9.14972 4.31182 9.10275 4.21665 9.02803C4.12216 8.95263 4.07494 8.84827 4.07494 8.71507V8.71291C4.07494 8.60583 4.10737 8.51406 4.17222 8.43798C4.23779 8.36109 4.33121 8.30221 4.45247 8.26133C4.57374 8.22045 4.71827 8.20001 4.88606 8.20001C5.05456 8.20001 5.19874 8.21937 5.31859 8.25822C5.43915 8.29626 5.53432 8.35121 5.60413 8.42323C5.67392 8.4951 5.71728 8.58147 5.7342 8.68231L5.73737 8.69923H5.23188L5.22975 8.69071C5.222 8.66106 5.20402 8.63683 5.17582 8.61774C5.14833 8.59798 5.11096 8.58323 5.06373 8.57335C5.01649 8.56279 4.95973 8.55751 4.89347 8.55751C4.8279 8.55751 4.7736 8.56238 4.7306 8.57226C4.68759 8.58147 4.65516 8.59514 4.63331 8.61355C4.61145 8.63115 4.60053 8.65226 4.60053 8.67703V8.67798C4.60053 8.71182 4.61674 8.73727 4.64918 8.75419C4.68231 8.77111 4.73695 8.78343 4.81309 8.79115L5.20966 8.82079C5.33727 8.83351 5.44302 8.85775 5.52692 8.89375C5.61081 8.92908 5.67322 8.97768 5.7141 9.03967C5.75569 9.10099 5.7765 9.17653 5.7765 9.266V9.26709C5.7765 9.377 5.74336 9.4723 5.67709 9.55257C5.61081 9.6323 5.51529 9.69362 5.3905 9.73666C5.26572 9.7789 5.11519 9.80001 4.93894 9.80001Z" fill="#FF61F6"/>
<path d="M5.97656 9.80001L6.66848 8.20001H7.20515V8.60693H7.02552L6.56203 9.80001H5.97656ZM6.38572 9.49174L6.53098 9.13804H7.50897L7.65203 9.49174H6.38572ZM7.50121 9.80001L7.03772 8.60693V8.20001H7.39365L8.08668 9.80001H7.50121Z" fill="#FF61F6"/>
<path d="M9.18601 9.80001C9.00834 9.80001 8.85535 9.78106 8.72704 9.74303C8.59872 9.70485 8.49756 9.64922 8.42353 9.57585C8.3495 9.50181 8.30473 9.41192 8.28922 9.30621L8.28711 9.29037H8.79789L8.8 9.29768C8.80706 9.328 8.82644 9.35412 8.85817 9.37605C8.8906 9.39717 8.93466 9.41368 8.99037 9.42573C9.04605 9.43697 9.11374 9.44265 9.19341 9.44265C9.25615 9.44265 9.31009 9.43737 9.35521 9.42681C9.40103 9.41544 9.43628 9.39961 9.46096 9.37917C9.48563 9.35873 9.49798 9.33517 9.49798 9.30837V9.30729C9.49798 9.27345 9.48282 9.24881 9.4525 9.23324C9.42219 9.21768 9.36932 9.20577 9.29388 9.19724L8.90471 9.16868C8.70588 9.14972 8.55889 9.10275 8.46372 9.02803C8.36923 8.95263 8.32201 8.84827 8.32201 8.71507V8.71291C8.32201 8.60583 8.35444 8.51406 8.41929 8.43798C8.48486 8.36109 8.57828 8.30221 8.69954 8.26133C8.82081 8.22045 8.96534 8.20001 9.13313 8.20001C9.30163 8.20001 9.44581 8.21937 9.56566 8.25822C9.68622 8.29626 9.78139 8.35121 9.8512 8.42323C9.92099 8.4951 9.96435 8.58147 9.98127 8.68231L9.98444 8.69923H9.47895L9.47682 8.69071C9.46907 8.66106 9.45109 8.63683 9.42289 8.61774C9.3954 8.59798 9.35803 8.58323 9.3108 8.57335C9.26356 8.56279 9.2068 8.55751 9.14054 8.55751C9.07497 8.55751 9.02067 8.56238 8.97767 8.57226C8.93466 8.58147 8.90223 8.59514 8.88038 8.61355C8.85852 8.63115 8.8476 8.65226 8.8476 8.67703V8.67798C8.8476 8.71182 8.86381 8.73727 8.89625 8.75419C8.92938 8.77111 8.98402 8.78343 9.06016 8.79115L9.45673 8.82079C9.58434 8.83351 9.69009 8.85775 9.77399 8.89375C9.85789 8.92908 9.92029 8.97768 9.96117 9.03967C10.0028 9.10099 10.0236 9.17653 10.0236 9.266V9.26709C10.0236 9.377 9.99043 9.4723 9.92416 9.55257C9.85788 9.6323 9.76236 9.69362 9.63757 9.73666C9.51279 9.7789 9.36226 9.80001 9.18601 9.80001Z" fill="#FF61F6"/>
<path d="M11.1225 9.80001C10.9449 9.80001 10.7919 9.78106 10.6636 9.74303C10.5352 9.70485 10.4341 9.64922 10.3601 9.57585C10.286 9.50181 10.2413 9.41192 10.2257 9.30621L10.2236 9.29037H10.7344L10.7365 9.29768C10.7436 9.328 10.763 9.35412 10.7947 9.37605C10.8271 9.39717 10.8712 9.41368 10.9269 9.42573C10.9826 9.43697 11.0503 9.44265 11.1299 9.44265C11.1927 9.44265 11.2466 9.43737 11.2917 9.42681C11.3376 9.41544 11.3728 9.39961 11.3975 9.37917C11.4222 9.35873 11.4345 9.33517 11.4345 9.30837V9.30729C11.4345 9.27345 11.4193 9.24881 11.389 9.23324C11.3587 9.21768 11.3058 9.20577 11.2304 9.19724L10.8412 9.16868C10.6424 9.14972 10.4954 9.10275 10.4002 9.02803C10.3058 8.95263 10.2585 8.84827 10.2585 8.71507V8.71291C10.2585 8.60583 10.291 8.51406 10.3558 8.43798C10.4214 8.36109 10.5148 8.30221 10.6361 8.26133C10.7573 8.22045 10.9019 8.20001 11.0697 8.20001C11.2382 8.20001 11.3823 8.21937 11.5022 8.25822C11.6227 8.29626 11.7179 8.35121 11.7877 8.42323C11.8575 8.4951 11.9009 8.58147 11.9178 8.68231L11.921 8.69923H11.4155L11.4133 8.69071C11.4056 8.66106 11.3876 8.63683 11.3594 8.61774C11.3319 8.59798 11.2946 8.58323 11.2473 8.57335C11.2001 8.56279 11.1433 8.55751 11.0771 8.55751C11.0115 8.55751 10.9572 8.56238 10.9142 8.57226C10.8712 8.58147 10.8388 8.59514 10.8169 8.61355C10.795 8.63115 10.7841 8.65226 10.7841 8.67703V8.67798C10.7841 8.71182 10.8003 8.73727 10.8328 8.75419C10.8659 8.77111 10.9205 8.78343 10.9967 8.79115L11.3933 8.82079C11.5209 8.83351 11.6266 8.85775 11.7105 8.89375C11.7944 8.92908 11.8568 8.97768 11.8977 9.03967C11.9393 9.10099 11.9601 9.17653 11.9601 9.266V9.26709C11.9601 9.377 11.927 9.4723 11.8607 9.55257C11.7944 9.6323 11.6989 9.69362 11.5741 9.73666C11.4493 9.7789 11.2988 9.80001 11.1225 9.80001Z" fill="#FF61F6"/>
</svg>
