<svg width="16" height="16" viewBox="0 0 16 16" fill="none" xmlns="http://www.w3.org/2000/svg">
<rect x="1.5" y="4.5" width="13" height="9" rx="2.5" fill="black"/>
<rect x="1.5" y="4.5" width="13" height="9" rx="2.5" stroke="white"/>
<path d="M7.99739 7.05048C6.92242 7.05048 6.04785 7.92504 6.04785 9.00001C6.04785 10.075 6.92242 10.9495 7.99739 10.9495C9.07236 10.9495 9.94693 10.075 9.94693 9.00001C9.94693 7.92504 9.07236 7.05048 7.99739 7.05048ZM7.99739 10.0089C7.44012 10.0089 6.98849 9.55728 6.98849 9.00001C6.98849 8.44274 7.44012 7.99112 7.99739 7.99112C8.55466 7.99112 9.00628 8.44274 9.00628 9.00001C9.00628 9.55728 8.55466 10.0089 7.99739 10.0089Z" fill="white"/>
<path fill-rule="evenodd" clip-rule="evenodd" d="M8.16101 6.73028V6.00238C9.74315 6.08697 11 7.39683 11 9.00002C11 10.6032 9.74315 11.9127 8.16101 11.9977V11.2698C9.34017 11.1855 10.2739 10.2002 10.2739 9.00002C10.2739 7.7998 9.34017 6.81451 8.16101 6.73028ZM6.27827 10.4885C5.96569 10.1276 5.7642 9.66802 5.72826 9.16339H5C5.03776 9.86951 5.3202 10.5103 5.76275 11.0037L6.27791 10.4885H6.27827ZM7.83429 11.9977V11.2698C7.32929 11.2338 6.86968 11.0327 6.50882 10.7198L5.99366 11.2349C6.4874 11.6778 7.12817 11.9599 7.83392 11.9977H7.83429Z" fill="white"/>
</svg>
