<svg width="16" height="16" viewBox="0 0 16 16" fill="none" xmlns="http://www.w3.org/2000/svg">
<rect x="1.5" y="4.5" width="13" height="9" rx="2.5" fill="#032030"/>
<rect x="1.5" y="4.5" width="13" height="9" rx="2.5" stroke="#23A8F2"/>
<path fill-rule="evenodd" clip-rule="evenodd" d="M9.25471 11.959C9.34921 11.9958 9.45697 11.9935 9.55235 11.9476L10.7876 11.3532C10.9175 11.2907 11 11.1593 11 11.0152V6.98477C11 6.84065 10.9175 6.70928 10.7877 6.64682L9.55235 6.05239C9.42718 5.99216 9.28067 6.00692 9.17081 6.08679C9.15512 6.0982 9.14017 6.11094 9.12614 6.12497L6.7613 8.28246L5.73123 7.50055C5.63534 7.42776 5.50122 7.43373 5.41216 7.51473L5.08178 7.81526C4.97285 7.91436 4.97272 8.08574 5.08151 8.18499L5.97482 8.99997L5.08151 9.81497C4.97272 9.91422 4.97285 10.0856 5.08178 10.1847L5.41216 10.4852C5.50122 10.5662 5.63534 10.5722 5.73123 10.4994L6.7613 9.71749L9.12614 11.875C9.16355 11.9124 9.20747 11.9406 9.25471 11.959ZM9.50091 7.63791L7.70655 8.99997L9.50091 10.362V7.63791Z" fill="#23A8F2"/>
</svg>
