<svg width="16" height="16" viewBox="0 0 16 16" fill="none" xmlns="http://www.w3.org/2000/svg">
<rect x="1.5" y="4.5" width="13" height="9" rx="2.5" stroke="white"/>
<path fill-rule="evenodd" clip-rule="evenodd" d="M10.6998 7.5C10.6998 6.99378 10.2972 6.61625 9.83103 6.38315C9.34686 6.14107 8.69901 6 7.9998 6C7.30059 6 6.65274 6.14107 6.16858 6.38315C5.70238 6.61625 5.2998 6.99378 5.2998 7.5V10.5C5.2998 11.0062 5.70238 11.3837 6.16858 11.6169C6.65274 11.8589 7.30059 12 7.9998 12C8.69901 12 9.34686 11.8589 9.83103 11.6169C10.2972 11.3837 10.6998 11.0062 10.6998 10.5V7.5ZM5.93878 9.64587C6.02045 9.50172 6.20352 9.45105 6.34768 9.53271C6.73182 9.75033 7.3212 9.9 7.99983 9.9C8.67843 9.9 9.26781 9.75033 9.65197 9.53271C9.79611 9.45105 9.9792 9.50172 10.0609 9.64587C10.1425 9.79002 10.0919 9.97308 9.9477 10.0548C9.45231 10.3354 8.75484 10.5 7.99983 10.5C7.24479 10.5 6.54733 10.3354 6.05193 10.0548C5.90777 9.97308 5.85711 9.79002 5.93878 9.64587ZM6.34765 8.03271C6.20349 7.95105 6.02043 8.00171 5.93876 8.14587C5.85709 8.29003 5.90775 8.47311 6.05191 8.55477C6.5473 8.83542 7.24477 9 7.9998 9C8.75484 9 9.45229 8.83542 9.94768 8.55477C10.0919 8.47311 10.1425 8.29003 10.0608 8.14587C9.97918 8.00171 9.79611 7.95105 9.65193 8.03271C9.26781 8.25033 8.6784 8.4 7.9998 8.4C7.32118 8.4 6.73179 8.25033 6.34765 8.03271Z" fill="white"/>
</svg>
