<svg width="16" height="16" viewBox="0 0 16 16" fill="none" xmlns="http://www.w3.org/2000/svg">
<rect x="1.5" y="4.5" width="13" height="9" rx="2.5" stroke="#E701F7"/>
<path d="M6.90688 6.34313L5.34313 7.90688C5.12375 8.12625 5 8.42438 5 8.73563V11.5312C5 11.79 5.21 12 5.46875 12H8.26437C8.57562 12 8.87281 11.8762 9.09312 11.6569L10.6569 10.0931C10.8762 9.87375 11 9.57562 11 9.26437V6.46875C11 6.21 10.79 6 10.5312 6H7.73563C7.42438 6 7.12719 6.12375 6.90688 6.34313Z" fill="#E701F7"/>
<path d="M9.5 7.5H5.75V11.25H9.5V7.5Z" fill="black"/>
<path d="M7.8125 10.4062H6.21875V10.7812H7.8125V10.4062Z" fill="white"/>
</svg>
