<svg width="16" height="16" viewBox="0 0 16 16" fill="none" xmlns="http://www.w3.org/2000/svg">
<rect x="1.5" y="4.5" width="13" height="9" rx="2.5" stroke="white"/>
<path d="M8.44328 7.60817V7.78167H8.35367C8.27594 7.78167 8.20318 7.78863 8.13633 7.80307V7.6177C8.13633 7.28215 7.94758 7.10674 7.62917 7.10674H5.81411C5.49571 7.10674 5.30696 7.28215 5.30696 7.6177V8.72543C5.30696 9.06288 5.49762 9.23639 5.81411 9.23639H6.0143C6.09628 9.23639 6.16111 9.28406 6.16111 9.39082V9.87318L6.77503 9.32409C6.84938 9.25736 6.89705 9.23639 6.99999 9.23639H7.55672V9.52239H6.98855L6.35176 10.0677C6.23737 10.1668 6.17445 10.2183 6.08103 10.2183C5.94948 10.2183 5.87512 10.1249 5.87512 9.97995V9.52239H5.79695C5.3184 9.52239 5 9.23447 5 8.73496V7.60817C5 7.10865 5.3184 6.81885 5.79695 6.81885H7.64633C8.12489 6.81885 8.44328 7.10865 8.44328 7.60817Z" fill="white"/>
<path d="M6.92412 7.47663L7.39504 8.74069C7.43317 8.84556 7.37788 8.94278 7.26541 8.94278C7.19296 8.94278 7.14911 8.90274 7.1205 8.82268L7.0042 8.48711H6.44366L6.32736 8.82268C6.30067 8.90274 6.25491 8.94278 6.18246 8.94278C6.07188 8.94278 6.01468 8.84556 6.05281 8.74069L6.52183 7.47663C6.55615 7.3832 6.6267 7.33173 6.72203 7.33173C6.82117 7.33173 6.8898 7.3832 6.92412 7.47663ZM6.52183 8.2526H6.92412L6.72298 7.66593L6.52183 8.2526Z" fill="white"/>
<path d="M10.9999 8.571V9.69779C10.9999 10.1954 10.6815 10.4852 10.203 10.4852H10.1229V10.9428C10.1229 11.0877 10.0504 11.1811 9.91889 11.1811C9.82547 11.1811 9.76255 11.1296 9.64816 11.0305L9.00945 10.4852H8.35358C7.85217 10.4852 7.55664 10.1973 7.55664 9.69779V8.571C7.55664 8.07148 7.85217 7.78168 8.35358 7.78168H10.203C10.6815 7.78168 10.9999 8.07148 10.9999 8.571ZM8.66818 8.69493C8.59001 8.69493 8.53281 8.74831 8.53281 8.82076C8.53281 8.89513 8.59001 8.95042 8.66818 8.95042H8.81307C8.86455 9.13725 8.9618 9.31457 9.09526 9.46328C8.9656 9.54908 8.81498 9.61198 8.64148 9.65394C8.56713 9.6711 8.52328 9.74164 8.53853 9.8179C8.5595 9.89418 8.63576 9.92848 8.71775 9.9056C8.92556 9.85985 9.12003 9.77215 9.29354 9.64441C9.45941 9.77024 9.65388 9.85794 9.84644 9.9037C9.93986 9.92658 10.018 9.89798 10.039 9.8179C10.06 9.73592 10.0219 9.6711 9.93986 9.65394C9.76637 9.6139 9.61764 9.55097 9.4842 9.46328C9.61956 9.31837 9.71489 9.14298 9.76637 8.95042H9.91317C9.99134 8.95042 10.0485 8.89513 10.0485 8.82076C10.0485 8.74831 9.99134 8.69493 9.91317 8.69493H8.66818ZM9.29354 9.30121C9.20012 9.19827 9.12575 9.07816 9.0819 8.95042H9.49945C9.4556 9.07624 9.38504 9.19635 9.29354 9.30121ZM9.10287 8.18968C9.03805 8.22019 9.00945 8.29836 9.04377 8.3689L9.13528 8.56147C9.1658 8.6301 9.24397 8.6568 9.3107 8.6282C9.38124 8.59197 9.40984 8.51571 9.37552 8.44707L9.2821 8.25642C9.24777 8.18397 9.17152 8.15155 9.10287 8.18968Z" fill="white"/>
</svg>
