<svg width="16" height="16" viewBox="0 0 16 16" fill="none" xmlns="http://www.w3.org/2000/svg">
<rect x="1.5" y="4.5" width="13" height="9" rx="2.5" stroke="white"/>
<path d="M4.01367 9.80001V8.20001H4.47722L5.55051 9.27997L5.0827 9.05047H5.32441V8.20001H5.85439V9.80001H5.39424L4.31868 8.70557L4.78663 8.93848H4.54379V9.80001H4.01367Z" fill="white"/>
<path d="M6.05469 9.80001V8.20001H7.58374V8.5892H6.61131V8.82205H7.51499V9.168H6.61131V9.41082H7.58374V9.80001H6.05469Z" fill="white"/>
<path d="M7.78418 9.80001L8.46027 9.0079L7.78418 8.20001H8.57199L8.91864 8.65552H8.93725L9.27388 8.20001H10.0345L9.35552 8.99358L10.033 9.80001H9.25239L8.89858 9.3445H8.88139L8.53904 9.80001H7.78418Z" fill="white"/>
<path d="M10.8331 9.80001V8.61137H10.2344V8.20001H11.9863V8.61137H11.3886V9.80001H10.8331Z" fill="white"/>
</svg>
