<svg width="16" height="16" viewBox="0 0 16 16" fill="none" xmlns="http://www.w3.org/2000/svg">
<rect x="1.5" y="4.5" width="13" height="9" rx="2.5" stroke="white"/>
<path fill-rule="evenodd" clip-rule="evenodd" d="M5.60112 10.1184C5.54008 10.0221 5.53916 9.89945 5.59874 9.80224L7.84224 6.14263C7.96703 5.93909 8.26834 5.95689 8.3683 6.1737L10.4178 10.6197C10.4939 10.7846 10.4063 10.9787 10.2323 11.0309L7.04413 11.9874C6.91585 12.0258 6.77764 11.9743 6.70593 11.8612L5.60112 10.1184ZM8.10109 7.21267C8.12271 7.10501 8.27022 7.08949 8.31379 7.19029L9.72753 10.4616C9.75414 10.5232 9.72102 10.5943 9.65673 10.6134L7.45392 11.271C7.37295 11.2952 7.29538 11.2244 7.31202 11.1416L8.10109 7.21267Z" fill="white"/>
</svg>
