<svg width="16" height="16" viewBox="0 0 16 16" fill="none" xmlns="http://www.w3.org/2000/svg">
<rect x="1.5" y="4.5" width="13" height="9" rx="2.5" stroke="white"/>
<path d="M5.06092 11.1073C5.52246 11.7706 6.54229 11.9972 7.19453 11.5439C7.75834 11.1515 7.88269 10.5435 7.5096 10.0128C7.17519 9.53195 6.56992 9.39653 6.17194 9.68118C5.71316 10.0073 5.89833 10.455 5.61643 10.654C5.38151 10.8226 5.21845 10.7176 5.08303 10.8088C4.99459 10.8641 4.96142 10.9691 5.06092 11.1073ZM7.61462 9.60381C7.81638 9.80557 7.96839 10.0736 8.0043 10.292C8.22816 10.2561 8.40782 10.151 8.59576 9.96309C8.62616 9.93544 8.65381 9.90504 8.68143 9.87188C8.55982 9.20582 8.0043 8.6586 7.3493 8.53699C7.31614 8.56463 7.28574 8.59503 7.25534 8.62543C7.0674 8.81337 6.96514 8.99854 6.92921 9.21688C7.14478 9.25279 7.41563 9.40205 7.61462 9.60381ZM10.2209 6.3177C10.0799 6.41996 8.54324 7.47295 7.6008 8.30484C8.22542 8.50106 8.7146 8.98747 8.91358 9.62039C9.751 8.67795 10.8012 7.14406 10.9035 7.00035C11.2296 6.54433 10.6603 5.99158 10.2209 6.3177Z" fill="white"/>
</svg>
