<svg width="16" height="16" viewBox="0 0 16 16" fill="none" xmlns="http://www.w3.org/2000/svg">
<rect x="1.5" y="4.5" width="13" height="9" rx="2.5" stroke="#FFC131"/>
<path d="M9.05113 8.18352C9.05113 8.33496 8.99097 8.48019 8.88389 8.58726C8.77682 8.69434 8.63159 8.7545 8.48015 8.7545C8.32872 8.7545 8.18349 8.69434 8.07641 8.58726C7.96934 8.48019 7.90918 8.33496 7.90918 8.18352C7.90918 8.03209 7.96934 7.88686 8.07641 7.77978C8.18349 7.6727 8.32872 7.61255 8.48015 7.61255C8.63159 7.61255 8.77682 7.6727 8.88389 7.77978C8.99097 7.88686 9.05113 8.03209 9.05113 8.18352Z" fill="#FFC131"/>
<path d="M7.51985 9.24758C7.2045 9.24758 6.94887 9.50321 6.94887 9.81855C6.94887 10.1339 7.2045 10.3895 7.51985 10.3895C7.83519 10.3895 8.09082 10.1339 8.09082 9.81855C8.09082 9.50321 7.83519 9.24758 7.51985 9.24758Z" fill="#FFC131"/>
<path fill-rule="evenodd" clip-rule="evenodd" d="M9.66371 10.0132C9.43424 10.1616 9.17892 10.2655 8.91106 10.3195C8.98869 10.0982 9.01444 9.86197 8.98633 9.62912C9.21343 9.54973 9.41864 9.41794 9.58531 9.24443C9.75197 9.07093 9.87541 8.8606 9.94562 8.63048C10.0158 8.40037 10.0308 8.15695 9.98939 7.91996C9.94796 7.68296 9.85127 7.45907 9.70716 7.26642C9.56304 7.07377 9.37557 6.91779 9.15992 6.81113C8.94427 6.70446 8.70653 6.6501 8.46595 6.65247C8.22538 6.65484 7.98875 6.71386 7.77524 6.82475C7.56173 6.93563 7.37736 7.09527 7.23707 7.29072C6.94655 7.32341 6.66384 7.40593 6.40137 7.53468C6.50513 7.1999 6.68808 6.89508 6.9347 6.64604C7.18133 6.39701 7.48436 6.2111 7.81812 6.1041C8.15187 5.99709 8.5065 5.97212 8.85196 6.03132C9.19741 6.09052 9.5235 6.23214 9.80258 6.44417C10.0817 6.6562 10.3055 6.93239 10.4551 7.24933C10.6048 7.56628 10.6758 7.91462 10.6622 8.26485C10.6485 8.61507 10.5507 8.95685 10.3769 9.2612C10.2031 9.56556 9.95842 9.82353 9.66371 10.0132ZM6.42732 7.93177L6.96196 7.99665C6.97409 7.8934 6.9967 7.79166 7.02944 7.693C6.81796 7.74216 6.61502 7.82264 6.42732 7.93177Z" fill="#FFC131"/>
<path fill-rule="evenodd" clip-rule="evenodd" d="M6.33377 7.98884C6.56463 7.83897 6.82177 7.73418 7.09161 7.67999C7.00999 7.90128 6.98067 8.13845 7.00597 8.37295C6.77964 8.45347 6.57544 8.5861 6.40985 8.76013C6.24427 8.93417 6.12195 9.14472 6.05279 9.37477C5.98363 9.60482 5.96957 9.84791 6.01173 10.0844C6.0539 10.3209 6.15111 10.5441 6.29551 10.7361C6.43992 10.9281 6.62746 11.0834 6.84299 11.1895C7.05852 11.2956 7.29598 11.3494 7.53618 11.3468C7.77639 11.3441 8.0126 11.285 8.22572 11.1741C8.43884 11.0633 8.6229 10.9039 8.76301 10.7088C9.05337 10.6769 9.33607 10.5952 9.59871 10.4674C9.49469 10.8018 9.31162 11.1063 9.06501 11.355C8.8184 11.6036 8.51551 11.7893 8.18196 11.8961C7.84842 12.0029 7.49405 12.0278 7.14885 11.9687C6.80364 11.9095 6.47777 11.7681 6.19881 11.5563C5.91985 11.3445 5.69602 11.0687 5.54627 10.7521C5.39651 10.4355 5.32523 10.0875 5.33847 9.73747C5.35171 9.38749 5.44908 9.04585 5.62233 8.74147C5.79558 8.43709 6.03961 8.17893 6.33377 7.98884Z" fill="#FFC131"/>
</svg>
