<svg width="16" height="16" viewBox="0 0 16 16" fill="none" xmlns="http://www.w3.org/2000/svg">
<rect x="1.5" y="4.5" width="13" height="9" rx="2.5" stroke="white"/>
<path d="M5.78452 10.9846H8.40936C8.9006 10.9846 9.19389 10.7011 9.19389 10.2098V7.78781C9.19389 7.29901 8.92505 7.0155 8.43381 7.0155H5.78452C5.31528 7.0155 5 7.29901 5 7.78781V10.2098C5 10.7011 5.29328 10.9846 5.78452 10.9846ZM9.52627 9.72099L10.4159 10.4909C10.499 10.5642 10.5967 10.6106 10.6847 10.6106C10.8754 10.6106 11 10.4713 11 10.2709V7.72915C11 7.52874 10.8754 7.38943 10.6847 7.38943C10.5967 7.38943 10.499 7.43587 10.4159 7.50919L9.52627 8.2766V9.72099Z" fill="white"/>
</svg>
