<svg width="16" height="16" viewBox="0 0 16 16" fill="none" xmlns="http://www.w3.org/2000/svg">
<rect x="1.5" y="4.5" width="13" height="9" rx="2.5" stroke="#67D55E"/>
<path fill-rule="evenodd" clip-rule="evenodd" d="M6.54472 6.91021C6.59228 6.39965 7.02192 6 7.5449 6C8.06789 6 8.49752 6.39965 8.54507 6.91021H9.08525C9.64005 6.91021 10.0898 7.35995 10.0898 7.91475V8.45493C10.6004 8.50248 11 8.93211 11 9.4551C11 9.97808 10.6004 10.4077 10.0898 10.4553V10.9955C10.0898 11.5503 9.64005 12 9.08525 12H8.0807V11.6256C8.0807 11.3297 7.84081 11.0898 7.5449 11.0898C7.24899 11.0898 7.0091 11.3297 7.0091 11.6256V12H5V9.9909H5.37441C5.67032 9.9909 5.91021 9.75101 5.91021 9.4551C5.91021 9.15919 5.67032 8.9193 5.37441 8.9193H5V7.91475C5 7.35995 5.44975 6.91021 6.00455 6.91021H6.54472ZM7.5449 6.46875C7.24899 6.46875 7.0091 6.70864 7.0091 7.00455V7.37896H6.00455C5.70863 7.37896 5.46875 7.61884 5.46875 7.91475V8.45493C5.97931 8.50248 6.37896 8.93211 6.37896 9.4551C6.37896 9.97808 5.97931 10.4077 5.46875 10.4553V11.5312H6.54472C6.59228 11.0207 7.02192 10.621 7.5449 10.621C8.06789 10.621 8.49752 11.0207 8.54507 11.5312H9.08525C9.38116 11.5312 9.62104 11.2914 9.62104 10.9955V9.9909H9.99546C10.2914 9.9909 10.5312 9.75102 10.5312 9.4551C10.5312 9.15918 10.2914 8.9193 9.99546 8.9193H9.62104V7.91475C9.62104 7.61884 9.38116 7.37896 9.08525 7.37896H8.0807V7.00455C8.0807 6.70863 7.84081 6.46875 7.5449 6.46875Z" fill="#67D55E"/>
</svg>
